<svg height="336.622114" viewBox="0 0 706.25 800" width="297.069016" xmlns="http://www.w3.org/2000/svg" xmlns:xlink="http://www.w3.org/1999/xlink"><linearGradient id="a"><stop offset="0" stop-color="#4c4d4f"/><stop offset=".30286" stop-color="#27282d"/><stop offset="1"/></linearGradient><linearGradient id="b" gradientUnits="userSpaceOnUse" x1="-978.517" x2="-1020.677" xlink:href="#a" y1="-708.8" y2="-709.39"/><linearGradient id="c" gradientUnits="userSpaceOnUse" x1="-1021.534" x2="-1063.694" xlink:href="#a" y1="-708.8" y2="-709.39"/><linearGradient id="d" gradientUnits="userSpaceOnUse" x1="-1064.55" x2="-1106.71" xlink:href="#a" y1="-708.8" y2="-709.39"/><linearGradient id="e" gradientUnits="userSpaceOnUse" x1="-1107.57" x2="-1149.73" xlink:href="#a" y1="-708.8" y2="-709.39"/><linearGradient id="f" gradientUnits="userSpaceOnUse" x1="-1150.58" x2="-1192.74" xlink:href="#a" y1="-708.8" y2="-709.39"/><linearGradient id="g" gradientUnits="userSpaceOnUse" x1="-1193.6" x2="-1235.76" xlink:href="#a" y1="-708.8" y2="-709.39"/><linearGradient id="h" gradientTransform="matrix(-.70711 -.70711 -.70711 .70711 1102.5 -674.66)" gradientUnits="userSpaceOnUse" x1="-934.09" x2="-976.25" xlink:href="#a" y1="547.8" y2="547.21"/><linearGradient id="i" gradientUnits="userSpaceOnUse" x1="-1000.025" x2="-1042.185" xlink:href="#a" y1="-729" y2="-729.59"/><linearGradient id="j" gradientUnits="userSpaceOnUse" x1="-1043.04" x2="-1085.2" xlink:href="#a" y1="-729" y2="-729.59"/><linearGradient id="k" gradientUnits="userSpaceOnUse" x1="-1086.06" x2="-1128.22" xlink:href="#a" y1="-729" y2="-729.59"/><linearGradient id="l" gradientUnits="userSpaceOnUse" x1="-1129.08" x2="-1171.24" xlink:href="#a" y1="-729" y2="-729.59"/><linearGradient id="m" gradientUnits="userSpaceOnUse" x1="-1172.09" x2="-1214.25" xlink:href="#a" y1="-729" y2="-729.59"/><linearGradient id="n" gradientTransform="matrix(-.70711 -.70711 -.70711 .70711 1101.5 -704.12)" gradientUnits="userSpaceOnUse" x1="-934.09" x2="-976.25" xlink:href="#a" y1="547.8" y2="547.21"/><linearGradient id="o" gradientUnits="userSpaceOnUse" x1="-978.517" x2="-1020.677" xlink:href="#a" y1="-668.5" y2="-669.09"/><linearGradient id="p" gradientUnits="userSpaceOnUse" x1="-1021.534" x2="-1063.694" xlink:href="#a" y1="-668.5" y2="-669.09"/><linearGradient id="q" gradientUnits="userSpaceOnUse" x1="-1064.55" x2="-1106.71" xlink:href="#a" y1="-668.5" y2="-669.09"/><linearGradient id="r" gradientUnits="userSpaceOnUse" x1="-1107.57" x2="-1149.73" xlink:href="#a" y1="-668.5" y2="-669.09"/><linearGradient id="s" gradientUnits="userSpaceOnUse" x1="-1150.58" x2="-1192.74" xlink:href="#a" y1="-668.5" y2="-669.09"/><linearGradient id="t" gradientUnits="userSpaceOnUse" x1="-1193.6" x2="-1235.76" xlink:href="#a" y1="-668.5" y2="-669.09"/><linearGradient id="u" gradientUnits="userSpaceOnUse" x1="-1236.62" x2="-1278.78" xlink:href="#a" y1="-668.5" y2="-669.09"/><linearGradient id="v" gradientTransform="matrix(-.70711 -.70711 -.70711 .70711 1104.4 -615.74)" gradientUnits="userSpaceOnUse" x1="-934.09" x2="-976.25" xlink:href="#a" y1="547.8" y2="547.21"/><linearGradient id="w" gradientUnits="userSpaceOnUse" x1="-1000.025" x2="-1042.185" xlink:href="#a" y1="-688.7" y2="-689.29"/><linearGradient id="x" gradientUnits="userSpaceOnUse" x1="-1043.04" x2="-1085.2" xlink:href="#a" y1="-688.7" y2="-689.29"/><linearGradient id="y" gradientUnits="userSpaceOnUse" x1="-1086.06" x2="-1128.22" xlink:href="#a" y1="-688.7" y2="-689.29"/><linearGradient id="z" gradientUnits="userSpaceOnUse" x1="-1129.08" x2="-1171.24" xlink:href="#a" y1="-688.7" y2="-689.29"/><linearGradient id="A" gradientUnits="userSpaceOnUse" x1="-1172.09" x2="-1214.25" xlink:href="#a" y1="-688.7" y2="-689.29"/><linearGradient id="B" gradientUnits="userSpaceOnUse" x1="-1215.11" x2="-1257.27" xlink:href="#a" y1="-688.7" y2="-689.29"/><linearGradient id="C" gradientTransform="matrix(-.70711 -.70711 -.70711 .70711 1103.5 -645.2)" gradientUnits="userSpaceOnUse" x1="-934.09" x2="-976.25" xlink:href="#a" y1="547.8" y2="547.21"/><linearGradient id="D" gradientUnits="userSpaceOnUse" x1="-978.517" x2="-1020.677" xlink:href="#a" y1="-789.5" y2="-790.09"/><linearGradient id="E" gradientUnits="userSpaceOnUse" x1="-1021.534" x2="-1063.694" xlink:href="#a" y1="-789.5" y2="-790.09"/><linearGradient id="F" gradientUnits="userSpaceOnUse" x1="-1064.55" x2="-1106.71" xlink:href="#a" y1="-789.5" y2="-790.09"/><linearGradient id="G" gradientUnits="userSpaceOnUse" x1="-1107.57" x2="-1149.73" xlink:href="#a" y1="-789.5" y2="-790.09"/><linearGradient id="H" gradientTransform="matrix(-.70711 -.70711 -.70711 .70711 1098.7 -792.51)" gradientUnits="userSpaceOnUse" x1="-934.09" x2="-976.25" xlink:href="#a" y1="547.8" y2="547.21"/><linearGradient id="I" gradientUnits="userSpaceOnUse" x1="-1000.025" x2="-1042.185" xlink:href="#a" y1="-809.6" y2="-810.19"/><linearGradient id="J" gradientUnits="userSpaceOnUse" x1="-1043.04" x2="-1085.2" xlink:href="#a" y1="-809.6" y2="-810.19"/><linearGradient id="K" gradientUnits="userSpaceOnUse" x1="-1086.06" x2="-1128.22" xlink:href="#a" y1="-809.6" y2="-810.19"/><linearGradient id="L" gradientTransform="matrix(-.70711 -.70711 -.70711 .70711 1097.7 -821.97)" gradientUnits="userSpaceOnUse" x1="-934.09" x2="-976.25" xlink:href="#a" y1="547.8" y2="547.21"/><linearGradient id="M" gradientUnits="userSpaceOnUse" x1="-978.517" x2="-1020.677" xlink:href="#a" y1="-749.2" y2="-749.79"/><linearGradient id="N" gradientUnits="userSpaceOnUse" x1="-1021.534" x2="-1063.694" xlink:href="#a" y1="-749.2" y2="-749.79"/><linearGradient id="O" gradientUnits="userSpaceOnUse" x1="-1064.55" x2="-1106.71" xlink:href="#a" y1="-749.2" y2="-749.79"/><linearGradient id="P" gradientUnits="userSpaceOnUse" x1="-1107.57" x2="-1149.73" xlink:href="#a" y1="-749.2" y2="-749.79"/><linearGradient id="Q" gradientUnits="userSpaceOnUse" x1="-1150.58" x2="-1192.74" xlink:href="#a" y1="-749.2" y2="-749.79"/><linearGradient id="R" gradientTransform="matrix(-.70711 -.70711 -.70711 .70711 1100.6 -733.59)" gradientUnits="userSpaceOnUse" x1="-934.09" x2="-976.25" xlink:href="#a" y1="547.8" y2="547.21"/><linearGradient id="S" gradientUnits="userSpaceOnUse" x1="-1000.025" x2="-1042.185" xlink:href="#a" y1="-769.3" y2="-769.89"/><linearGradient id="T" gradientUnits="userSpaceOnUse" x1="-1043.04" x2="-1085.2" xlink:href="#a" y1="-769.3" y2="-769.89"/><linearGradient id="U" gradientUnits="userSpaceOnUse" x1="-1086.06" x2="-1128.22" xlink:href="#a" y1="-769.3" y2="-769.89"/><linearGradient id="V" gradientUnits="userSpaceOnUse" x1="-1129.08" x2="-1171.24" xlink:href="#a" y1="-769.3" y2="-769.89"/><linearGradient id="W" gradientTransform="matrix(-.70711 -.70711 -.70711 .70711 1099.6 -763.05)" gradientUnits="userSpaceOnUse" x1="-934.09" x2="-976.25" xlink:href="#a" y1="547.8" y2="547.21"/><linearGradient id="X" gradientUnits="userSpaceOnUse" x1="-978.517" x2="-1020.677" xlink:href="#a" y1="-547.6" y2="-548.19"/><linearGradient id="Y" gradientUnits="userSpaceOnUse" x1="-1021.534" x2="-1063.694" xlink:href="#a" y1="-547.6" y2="-548.19"/><linearGradient id="Z" gradientUnits="userSpaceOnUse" x1="-1064.55" x2="-1106.71" xlink:href="#a" y1="-547.6" y2="-548.19"/><linearGradient id="aa" gradientUnits="userSpaceOnUse" x1="-1107.57" x2="-1149.73" xlink:href="#a" y1="-547.6" y2="-548.19"/><linearGradient id="ab" gradientUnits="userSpaceOnUse" x1="-1150.58" x2="-1192.74" xlink:href="#a" y1="-547.6" y2="-548.19"/><linearGradient id="ac" gradientUnits="userSpaceOnUse" x1="-1193.6" x2="-1235.76" xlink:href="#a" y1="-547.6" y2="-548.19"/><linearGradient id="ad" gradientUnits="userSpaceOnUse" x1="-1236.62" x2="-1278.78" xlink:href="#a" y1="-547.6" y2="-548.19"/><linearGradient id="ae" gradientUnits="userSpaceOnUse" x1="-1279.64" x2="-1321.8" xlink:href="#a" y1="-547.6" y2="-548.19"/><linearGradient id="af" gradientTransform="matrix(-.70711 -.70711 -.70711 .70711 1049.3 -499.81)" gradientUnits="userSpaceOnUse" x1="-934.09" x2="-976.25" xlink:href="#a" y1="547.8" y2="547.21"/><linearGradient id="ag" gradientUnits="userSpaceOnUse" x1="-1000.025" x2="-1042.185" xlink:href="#a" y1="-567.8" y2="-568.39"/><linearGradient id="ah" gradientUnits="userSpaceOnUse" x1="-1043.04" x2="-1085.2" xlink:href="#a" y1="-567.8" y2="-568.39"/><linearGradient id="ai" gradientUnits="userSpaceOnUse" x1="-1086.06" x2="-1128.22" xlink:href="#a" y1="-567.8" y2="-568.39"/><linearGradient id="aj" gradientUnits="userSpaceOnUse" x1="-1129.08" x2="-1171.24" xlink:href="#a" y1="-567.8" y2="-568.39"/><linearGradient id="ak" gradientUnits="userSpaceOnUse" x1="-1172.09" x2="-1214.25" xlink:href="#a" y1="-567.8" y2="-568.39"/><linearGradient id="al" gradientUnits="userSpaceOnUse" x1="-1215.11" x2="-1257.27" xlink:href="#a" y1="-567.8" y2="-568.39"/><linearGradient id="am" gradientUnits="userSpaceOnUse" x1="-1258.13" x2="-1300.29" xlink:href="#a" y1="-567.8" y2="-568.39"/><linearGradient id="an" gradientTransform="matrix(-.70711 -.70711 -.70711 .70711 1048.4 -529.27)" gradientUnits="userSpaceOnUse" x1="-934.09" x2="-976.25" xlink:href="#a" y1="547.8" y2="547.21"/><linearGradient id="ao" gradientUnits="userSpaceOnUse" x1="-978.517" x2="-1020.677" xlink:href="#a" y1="-507.3" y2="-507.89"/><linearGradient id="ap" gradientUnits="userSpaceOnUse" x1="-1021.534" x2="-1063.694" xlink:href="#a" y1="-507.3" y2="-507.89"/><linearGradient id="aq" gradientUnits="userSpaceOnUse" x1="-1064.55" x2="-1106.71" xlink:href="#a" y1="-507.3" y2="-507.89"/><linearGradient id="ar" gradientUnits="userSpaceOnUse" x1="-1107.57" x2="-1149.73" xlink:href="#a" y1="-507.3" y2="-507.89"/><linearGradient id="as" gradientUnits="userSpaceOnUse" x1="-1150.58" x2="-1192.74" xlink:href="#a" y1="-507.3" y2="-507.89"/><linearGradient id="at" gradientUnits="userSpaceOnUse" x1="-1193.6" x2="-1235.76" xlink:href="#a" y1="-507.3" y2="-507.89"/><linearGradient id="au" gradientUnits="userSpaceOnUse" x1="-1236.62" x2="-1278.78" xlink:href="#a" y1="-507.3" y2="-507.89"/><linearGradient id="av" gradientUnits="userSpaceOnUse" x1="-1279.64" x2="-1321.8" xlink:href="#a" y1="-507.3" y2="-507.89"/><linearGradient id="aw" gradientTransform="matrix(-.70711 -.70711 -.70711 .70711 1020.8 -471.31)" gradientUnits="userSpaceOnUse" x1="-934.09" x2="-976.25" xlink:href="#a" y1="547.8" y2="547.21"/><linearGradient id="ax" gradientUnits="userSpaceOnUse" x1="-1000.025" x2="-1042.185" xlink:href="#a" y1="-527.5" y2="-528.09"/><linearGradient id="ay" gradientUnits="userSpaceOnUse" x1="-1043.04" x2="-1085.2" xlink:href="#a" y1="-527.5" y2="-528.09"/><linearGradient id="az" gradientUnits="userSpaceOnUse" x1="-1086.06" x2="-1128.22" xlink:href="#a" y1="-527.5" y2="-528.09"/><linearGradient id="aA" gradientUnits="userSpaceOnUse" x1="-1129.08" x2="-1171.24" xlink:href="#a" y1="-527.5" y2="-528.09"/><linearGradient id="aB" gradientUnits="userSpaceOnUse" x1="-1172.09" x2="-1214.25" xlink:href="#a" y1="-527.5" y2="-528.09"/><linearGradient id="aC" gradientUnits="userSpaceOnUse" x1="-1215.11" x2="-1257.27" xlink:href="#a" y1="-527.5" y2="-528.09"/><linearGradient id="aD" gradientUnits="userSpaceOnUse" x1="-1258.13" x2="-1300.29" xlink:href="#a" y1="-527.5" y2="-528.09"/><linearGradient id="aE" gradientUnits="userSpaceOnUse" x1="-1301.14" x2="-1343.3" xlink:href="#a" y1="-527.5" y2="-528.09"/><linearGradient id="aF" gradientUnits="userSpaceOnUse" x1="-978.517" x2="-1020.677" xlink:href="#a" y1="-628.2" y2="-628.79"/><linearGradient id="aG" gradientUnits="userSpaceOnUse" x1="-1021.534" x2="-1063.694" xlink:href="#a" y1="-628.2" y2="-628.79"/><linearGradient id="aH" gradientUnits="userSpaceOnUse" x1="-1064.55" x2="-1106.71" xlink:href="#a" y1="-628.2" y2="-628.79"/><linearGradient id="aI" gradientUnits="userSpaceOnUse" x1="-1107.57" x2="-1149.73" xlink:href="#a" y1="-628.2" y2="-628.79"/><linearGradient id="aJ" gradientUnits="userSpaceOnUse" x1="-1150.58" x2="-1192.74" xlink:href="#a" y1="-628.2" y2="-628.79"/><linearGradient id="aK" gradientUnits="userSpaceOnUse" x1="-1193.6" x2="-1235.76" xlink:href="#a" y1="-628.2" y2="-628.79"/><linearGradient id="aL" gradientUnits="userSpaceOnUse" x1="-1236.62" x2="-1278.78" xlink:href="#a" y1="-628.2" y2="-628.79"/><linearGradient id="aM" gradientTransform="matrix(-.70711 -.70711 -.70711 .70711 1075.9 -587.24)" gradientUnits="userSpaceOnUse" x1="-934.09" x2="-976.25" xlink:href="#a" y1="547.8" y2="547.21"/><linearGradient id="aN" gradientUnits="userSpaceOnUse" x1="-1000.025" x2="-1042.185" xlink:href="#a" y1="-648.4" y2="-648.99"/><linearGradient id="aO" gradientUnits="userSpaceOnUse" x1="-1043.04" x2="-1085.2" xlink:href="#a" y1="-648.4" y2="-648.99"/><linearGradient id="aP" gradientUnits="userSpaceOnUse" x1="-1086.06" x2="-1128.22" xlink:href="#a" y1="-648.4" y2="-648.99"/><linearGradient id="aQ" gradientUnits="userSpaceOnUse" x1="-1129.08" x2="-1171.24" xlink:href="#a" y1="-648.4" y2="-648.99"/><linearGradient id="aR" gradientUnits="userSpaceOnUse" x1="-1172.09" x2="-1214.25" xlink:href="#a" y1="-648.4" y2="-648.99"/><linearGradient id="aS" gradientUnits="userSpaceOnUse" x1="-1215.11" x2="-1257.27" xlink:href="#a" y1="-648.4" y2="-648.99"/><linearGradient id="aT" gradientTransform="matrix(-.70711 -.70711 -.70711 .70711 1075 -616.7)" gradientUnits="userSpaceOnUse" x1="-934.09" x2="-976.25" xlink:href="#a" y1="547.8" y2="547.21"/><linearGradient id="aU" gradientUnits="userSpaceOnUse" x1="-978.517" x2="-1020.677" xlink:href="#a" y1="-587.9" y2="-588.49"/><linearGradient id="aV" gradientUnits="userSpaceOnUse" x1="-1021.534" x2="-1063.694" xlink:href="#a" y1="-587.9" y2="-588.49"/><linearGradient id="aW" gradientUnits="userSpaceOnUse" x1="-1064.55" x2="-1106.71" xlink:href="#a" y1="-587.9" y2="-588.49"/><linearGradient id="aX" gradientUnits="userSpaceOnUse" x1="-1107.57" x2="-1149.73" xlink:href="#a" y1="-587.9" y2="-588.49"/><linearGradient id="aY" gradientUnits="userSpaceOnUse" x1="-1150.58" x2="-1192.74" xlink:href="#a" y1="-587.9" y2="-588.49"/><linearGradient id="aZ" gradientUnits="userSpaceOnUse" x1="-1193.6" x2="-1235.76" xlink:href="#a" y1="-587.9" y2="-588.49"/><linearGradient id="a0" gradientUnits="userSpaceOnUse" x1="-1236.62" x2="-1278.78" xlink:href="#a" y1="-587.9" y2="-588.49"/><linearGradient id="a1" gradientUnits="userSpaceOnUse" x1="-1279.64" x2="-1321.8" xlink:href="#a" y1="-587.9" y2="-588.49"/><linearGradient id="a2" gradientTransform="matrix(-.70711 -.70711 -.70711 .70711 1077.8 -528.32)" gradientUnits="userSpaceOnUse" x1="-934.09" x2="-976.25" xlink:href="#a" y1="547.8" y2="547.21"/><linearGradient id="a3" gradientUnits="userSpaceOnUse" x1="-1000.025" x2="-1042.185" xlink:href="#a" y1="-608.1" y2="-608.69"/><linearGradient id="a4" gradientUnits="userSpaceOnUse" x1="-1043.04" x2="-1085.2" xlink:href="#a" y1="-608.1" y2="-608.69"/><linearGradient id="a5" gradientUnits="userSpaceOnUse" x1="-1086.06" x2="-1128.22" xlink:href="#a" y1="-608.1" y2="-608.69"/><linearGradient id="a6" gradientUnits="userSpaceOnUse" x1="-1129.08" x2="-1171.24" xlink:href="#a" y1="-608.1" y2="-608.69"/><linearGradient id="a7" gradientUnits="userSpaceOnUse" x1="-1172.09" x2="-1214.25" xlink:href="#a" y1="-608.1" y2="-608.69"/><linearGradient id="a8" gradientUnits="userSpaceOnUse" x1="-1215.11" x2="-1257.27" xlink:href="#a" y1="-608.1" y2="-608.69"/><linearGradient id="a9" gradientUnits="userSpaceOnUse" x1="-1258.13" x2="-1300.29" xlink:href="#a" y1="-608.1" y2="-608.69"/><linearGradient id="ba" gradientTransform="matrix(-.70711 -.70711 -.70711 .70711 1076.9 -557.78)" gradientUnits="userSpaceOnUse" x1="-934.09" x2="-976.25" xlink:href="#a" y1="547.8" y2="547.21"/><linearGradient id="bb" gradientUnits="userSpaceOnUse" x1="-978.517" x2="-1020.677" xlink:href="#a" y1="-386.37" y2="-386.96"/><linearGradient id="bc" gradientUnits="userSpaceOnUse" x1="-1021.534" x2="-1063.694" xlink:href="#a" y1="-386.37" y2="-386.96"/><linearGradient id="bd" gradientUnits="userSpaceOnUse" x1="-1064.55" x2="-1106.71" xlink:href="#a" y1="-386.37" y2="-386.96"/><linearGradient id="be" gradientUnits="userSpaceOnUse" x1="-1107.57" x2="-1149.73" xlink:href="#a" y1="-386.37" y2="-386.96"/><linearGradient id="bf" gradientUnits="userSpaceOnUse" x1="-1150.58" x2="-1192.74" xlink:href="#a" y1="-386.37" y2="-386.96"/><linearGradient id="bg" gradientUnits="userSpaceOnUse" x1="-1193.6" x2="-1235.76" xlink:href="#a" y1="-386.37" y2="-386.96"/><linearGradient id="bh" gradientUnits="userSpaceOnUse" x1="-1236.62" x2="-1278.78" xlink:href="#a" y1="-386.37" y2="-386.96"/><linearGradient id="bi" gradientUnits="userSpaceOnUse" x1="-1279.64" x2="-1321.8" xlink:href="#a" y1="-386.37" y2="-386.96"/><linearGradient id="bj" gradientTransform="matrix(-.70711 -.70711 -.70711 .70711 935.31 -385.8)" gradientUnits="userSpaceOnUse" x1="-934.09" x2="-976.25" xlink:href="#a" y1="547.8" y2="547.21"/><linearGradient id="bk" gradientUnits="userSpaceOnUse" x1="-1000.025" x2="-1042.185" xlink:href="#a" y1="-406.52" y2="-407.11"/><linearGradient id="bl" gradientUnits="userSpaceOnUse" x1="-1043.04" x2="-1085.2" xlink:href="#a" y1="-406.52" y2="-407.11"/><linearGradient id="bm" gradientUnits="userSpaceOnUse" x1="-1086.06" x2="-1128.22" xlink:href="#a" y1="-406.52" y2="-407.11"/><linearGradient id="bn" gradientUnits="userSpaceOnUse" x1="-1129.08" x2="-1171.24" xlink:href="#a" y1="-406.52" y2="-407.11"/><linearGradient id="bo" gradientUnits="userSpaceOnUse" x1="-1172.09" x2="-1214.25" xlink:href="#a" y1="-406.52" y2="-407.11"/><linearGradient id="bp" gradientUnits="userSpaceOnUse" x1="-1215.11" x2="-1257.27" xlink:href="#a" y1="-406.52" y2="-407.11"/><linearGradient id="bq" gradientUnits="userSpaceOnUse" x1="-1258.13" x2="-1300.29" xlink:href="#a" y1="-406.52" y2="-407.11"/><linearGradient id="br" gradientUnits="userSpaceOnUse" x1="-1301.14" x2="-1343.3" xlink:href="#a" y1="-406.52" y2="-407.11"/><linearGradient id="bs" gradientUnits="userSpaceOnUse" x1="-978.517" x2="-1020.677" xlink:href="#a" y1="-346.06" y2="-346.65"/><linearGradient id="bt" gradientUnits="userSpaceOnUse" x1="-1021.534" x2="-1063.694" xlink:href="#a" y1="-346.06" y2="-346.65"/><linearGradient id="bu" gradientUnits="userSpaceOnUse" x1="-1064.55" x2="-1106.71" xlink:href="#a" y1="-346.06" y2="-346.65"/><linearGradient id="bv" gradientUnits="userSpaceOnUse" x1="-1107.57" x2="-1149.73" xlink:href="#a" y1="-346.06" y2="-346.65"/><linearGradient id="bw" gradientUnits="userSpaceOnUse" x1="-1150.58" x2="-1192.74" xlink:href="#a" y1="-346.06" y2="-346.65"/><linearGradient id="bx" gradientUnits="userSpaceOnUse" x1="-1193.6" x2="-1235.76" xlink:href="#a" y1="-346.06" y2="-346.65"/><linearGradient id="by" gradientUnits="userSpaceOnUse" x1="-1236.62" x2="-1278.78" xlink:href="#a" y1="-346.06" y2="-346.65"/><linearGradient id="bz" gradientUnits="userSpaceOnUse" x1="-1279.64" x2="-1321.8" xlink:href="#a" y1="-346.06" y2="-346.65"/><linearGradient id="bA" gradientTransform="matrix(-.70711 -.70711 -.70711 .70711 906.81 -357.3)" gradientUnits="userSpaceOnUse" x1="-934.09" x2="-976.25" xlink:href="#a" y1="547.8" y2="547.21"/><linearGradient id="bB" gradientUnits="userSpaceOnUse" x1="-1000.025" x2="-1042.185" xlink:href="#a" y1="-366.21" y2="-366.8"/><linearGradient id="bC" gradientUnits="userSpaceOnUse" x1="-1043.04" x2="-1085.2" xlink:href="#a" y1="-366.21" y2="-366.8"/><linearGradient id="bD" gradientUnits="userSpaceOnUse" x1="-1086.06" x2="-1128.22" xlink:href="#a" y1="-366.21" y2="-366.8"/><linearGradient id="bE" gradientUnits="userSpaceOnUse" x1="-1129.08" x2="-1171.24" xlink:href="#a" y1="-366.21" y2="-366.8"/><linearGradient id="bF" gradientUnits="userSpaceOnUse" x1="-1172.09" x2="-1214.25" xlink:href="#a" y1="-366.21" y2="-366.8"/><linearGradient id="bG" gradientUnits="userSpaceOnUse" x1="-1215.11" x2="-1257.27" xlink:href="#a" y1="-366.21" y2="-366.8"/><linearGradient id="bH" gradientUnits="userSpaceOnUse" x1="-1258.13" x2="-1300.29" xlink:href="#a" y1="-366.21" y2="-366.8"/><linearGradient id="bI" gradientTransform="matrix(-.70711 -.70711 -.70711 .70711 905.85 -386.76)" gradientUnits="userSpaceOnUse" x1="-934.09" x2="-976.25" xlink:href="#a" y1="547.8" y2="547.21"/><linearGradient id="bJ" gradientUnits="userSpaceOnUse" x1="-978.517" x2="-1020.677" xlink:href="#a" y1="-467" y2="-467.59"/><linearGradient id="bK" gradientUnits="userSpaceOnUse" x1="-1021.534" x2="-1063.694" xlink:href="#a" y1="-467" y2="-467.59"/><linearGradient id="bL" gradientUnits="userSpaceOnUse" x1="-1064.55" x2="-1106.71" xlink:href="#a" y1="-467" y2="-467.59"/><linearGradient id="bM" gradientUnits="userSpaceOnUse" x1="-1107.57" x2="-1149.73" xlink:href="#a" y1="-467" y2="-467.59"/><linearGradient id="bN" gradientUnits="userSpaceOnUse" x1="-1150.58" x2="-1192.74" xlink:href="#a" y1="-467" y2="-467.59"/><linearGradient id="bO" gradientUnits="userSpaceOnUse" x1="-1193.6" x2="-1235.76" xlink:href="#a" y1="-467" y2="-467.59"/><linearGradient id="bP" gradientUnits="userSpaceOnUse" x1="-1236.62" x2="-1278.78" xlink:href="#a" y1="-467" y2="-467.59"/><linearGradient id="bQ" gradientUnits="userSpaceOnUse" x1="-1279.64" x2="-1321.8" xlink:href="#a" y1="-467" y2="-467.59"/><linearGradient id="bR" gradientTransform="matrix(-.70711 -.70711 -.70711 .70711 992.32 -442.81)" gradientUnits="userSpaceOnUse" x1="-934.09" x2="-976.25" xlink:href="#a" y1="547.8" y2="547.21"/><linearGradient id="bS" gradientUnits="userSpaceOnUse" x1="-1000.025" x2="-1042.185" xlink:href="#a" y1="-487.1" y2="-487.69"/><linearGradient id="bT" gradientUnits="userSpaceOnUse" x1="-1043.04" x2="-1085.2" xlink:href="#a" y1="-487.1" y2="-487.69"/><linearGradient id="bU" gradientUnits="userSpaceOnUse" x1="-1086.06" x2="-1128.22" xlink:href="#a" y1="-487.1" y2="-487.69"/><linearGradient id="bV" gradientUnits="userSpaceOnUse" x1="-1129.08" x2="-1171.24" xlink:href="#a" y1="-487.1" y2="-487.69"/><linearGradient id="bW" gradientUnits="userSpaceOnUse" x1="-1172.09" x2="-1214.25" xlink:href="#a" y1="-487.1" y2="-487.69"/><linearGradient id="bX" gradientUnits="userSpaceOnUse" x1="-1215.11" x2="-1257.27" xlink:href="#a" y1="-487.1" y2="-487.69"/><linearGradient id="bY" gradientUnits="userSpaceOnUse" x1="-1258.13" x2="-1300.29" xlink:href="#a" y1="-487.1" y2="-487.69"/><linearGradient id="bZ" gradientUnits="userSpaceOnUse" x1="-1301.14" x2="-1343.3" xlink:href="#a" y1="-487.1" y2="-487.69"/><linearGradient id="b0" gradientUnits="userSpaceOnUse" x1="-978.517" x2="-1020.677" xlink:href="#a" y1="-426.68" y2="-427.27"/><linearGradient id="b1" gradientUnits="userSpaceOnUse" x1="-1021.534" x2="-1063.694" xlink:href="#a" y1="-426.68" y2="-427.27"/><linearGradient id="b2" gradientUnits="userSpaceOnUse" x1="-1064.55" x2="-1106.71" xlink:href="#a" y1="-426.68" y2="-427.27"/><linearGradient id="b3" gradientUnits="userSpaceOnUse" x1="-1107.57" x2="-1149.73" xlink:href="#a" y1="-426.68" y2="-427.27"/><linearGradient id="b4" gradientUnits="userSpaceOnUse" x1="-1150.58" x2="-1192.74" xlink:href="#a" y1="-426.68" y2="-427.27"/><linearGradient id="b5" gradientUnits="userSpaceOnUse" x1="-1193.6" x2="-1235.76" xlink:href="#a" y1="-426.68" y2="-427.27"/><linearGradient id="b6" gradientUnits="userSpaceOnUse" x1="-1236.62" x2="-1278.78" xlink:href="#a" y1="-426.68" y2="-427.27"/><linearGradient id="b7" gradientUnits="userSpaceOnUse" x1="-1279.64" x2="-1321.8" xlink:href="#a" y1="-426.68" y2="-427.27"/><linearGradient id="b8" gradientTransform="matrix(-.70711 -.70711 -.70711 .70711 963.81 -414.3)" gradientUnits="userSpaceOnUse" x1="-934.09" x2="-976.25" xlink:href="#a" y1="547.8" y2="547.21"/><linearGradient id="b9" gradientUnits="userSpaceOnUse" x1="-1000.025" x2="-1042.185" xlink:href="#a" y1="-446.83" y2="-447.42"/><linearGradient id="ca" gradientUnits="userSpaceOnUse" x1="-1043.04" x2="-1085.2" xlink:href="#a" y1="-446.83" y2="-447.42"/><linearGradient id="cb" gradientUnits="userSpaceOnUse" x1="-1086.06" x2="-1128.22" xlink:href="#a" y1="-446.83" y2="-447.42"/><linearGradient id="cc" gradientUnits="userSpaceOnUse" x1="-1129.08" x2="-1171.24" xlink:href="#a" y1="-446.83" y2="-447.42"/><linearGradient id="cd" gradientUnits="userSpaceOnUse" x1="-1172.09" x2="-1214.25" xlink:href="#a" y1="-446.83" y2="-447.42"/><linearGradient id="ce" gradientUnits="userSpaceOnUse" x1="-1215.11" x2="-1257.27" xlink:href="#a" y1="-446.83" y2="-447.42"/><linearGradient id="cf" gradientUnits="userSpaceOnUse" x1="-1258.13" x2="-1300.29" xlink:href="#a" y1="-446.83" y2="-447.42"/><linearGradient id="cg" gradientUnits="userSpaceOnUse" x1="-1301.14" x2="-1343.3" xlink:href="#a" y1="-446.83" y2="-447.42"/><linearGradient id="ch" gradientUnits="userSpaceOnUse" x1="-978.517" x2="-1020.677" xlink:href="#a" y1="-225.13" y2="-225.72"/><linearGradient id="ci" gradientUnits="userSpaceOnUse" x1="-1021.534" x2="-1063.694" xlink:href="#a" y1="-225.13" y2="-225.72"/><linearGradient id="cj" gradientUnits="userSpaceOnUse" x1="-1064.55" x2="-1106.71" xlink:href="#a" y1="-225.13" y2="-225.72"/><linearGradient id="ck" gradientUnits="userSpaceOnUse" x1="-1107.57" x2="-1149.73" xlink:href="#a" y1="-225.13" y2="-225.72"/><linearGradient id="cl" gradientUnits="userSpaceOnUse" x1="-1150.58" x2="-1192.74" xlink:href="#a" y1="-225.13" y2="-225.72"/><linearGradient id="cm" gradientUnits="userSpaceOnUse" x1="-1193.6" x2="-1235.76" xlink:href="#a" y1="-225.13" y2="-225.72"/><linearGradient id="cn" gradientUnits="userSpaceOnUse" x1="-1236.62" x2="-1278.78" xlink:href="#a" y1="-225.13" y2="-225.72"/><linearGradient id="co" gradientTransform="matrix(-.70711 -.70711 -.70711 .70711 790.88 -302.2)" gradientUnits="userSpaceOnUse" x1="-934.09" x2="-976.25" xlink:href="#a" y1="547.8" y2="547.21"/><linearGradient id="cp" gradientUnits="userSpaceOnUse" x1="-1000.025" x2="-1042.185" xlink:href="#a" y1="-245.28" y2="-245.87"/><linearGradient id="cq" gradientUnits="userSpaceOnUse" x1="-1043.04" x2="-1085.2" xlink:href="#a" y1="-245.28" y2="-245.87"/><linearGradient id="cr" gradientUnits="userSpaceOnUse" x1="-1086.06" x2="-1128.22" xlink:href="#a" y1="-245.28" y2="-245.87"/><linearGradient id="cs" gradientUnits="userSpaceOnUse" x1="-1129.08" x2="-1171.24" xlink:href="#a" y1="-245.28" y2="-245.87"/><linearGradient id="ct" gradientUnits="userSpaceOnUse" x1="-1172.09" x2="-1214.25" xlink:href="#a" y1="-245.28" y2="-245.87"/><linearGradient id="cu" gradientUnits="userSpaceOnUse" x1="-1215.11" x2="-1257.27" xlink:href="#a" y1="-245.28" y2="-245.87"/><linearGradient id="cv" gradientUnits="userSpaceOnUse" x1="-1258.13" x2="-1300.29" xlink:href="#a" y1="-245.28" y2="-245.87"/><linearGradient id="cw" gradientTransform="matrix(-.70711 -.70711 -.70711 .70711 820.34 -301.25)" gradientUnits="userSpaceOnUse" x1="-934.09" x2="-976.25" xlink:href="#a" y1="547.8" y2="547.21"/><linearGradient id="cx" gradientUnits="userSpaceOnUse" x1="-978.517" x2="-1020.677" xlink:href="#a" y1="-184.82" y2="-185.41"/><linearGradient id="cy" gradientUnits="userSpaceOnUse" x1="-1021.534" x2="-1063.694" xlink:href="#a" y1="-184.82" y2="-185.41"/><linearGradient id="cz" gradientUnits="userSpaceOnUse" x1="-1064.55" x2="-1106.71" xlink:href="#a" y1="-184.82" y2="-185.41"/><linearGradient id="cA" gradientUnits="userSpaceOnUse" x1="-1107.57" x2="-1149.73" xlink:href="#a" y1="-184.82" y2="-185.41"/><linearGradient id="cB" gradientUnits="userSpaceOnUse" x1="-1150.58" x2="-1192.74" xlink:href="#a" y1="-184.82" y2="-185.41"/><linearGradient id="cC" gradientUnits="userSpaceOnUse" x1="-1193.6" x2="-1235.76" xlink:href="#a" y1="-184.82" y2="-185.41"/><linearGradient id="cD" gradientTransform="matrix(-.70711 -.70711 -.70711 .70711 731.96 -304.12)" gradientUnits="userSpaceOnUse" x1="-934.09" x2="-976.25" xlink:href="#a" y1="547.8" y2="547.21"/><linearGradient id="cE" gradientTransform="matrix(-.70711 -.70711 -.70711 .70711 762.37 -273.7)" gradientUnits="userSpaceOnUse" x1="-934.09" x2="-976.25" xlink:href="#a" y1="547.8" y2="547.21"/><linearGradient id="cF" gradientUnits="userSpaceOnUse" x1="-1000.025" x2="-1042.185" xlink:href="#a" y1="-204.97" y2="-205.56"/><linearGradient id="cG" gradientUnits="userSpaceOnUse" x1="-1043.04" x2="-1085.2" xlink:href="#a" y1="-204.97" y2="-205.56"/><linearGradient id="cH" gradientUnits="userSpaceOnUse" x1="-1086.06" x2="-1128.22" xlink:href="#a" y1="-204.97" y2="-205.56"/><linearGradient id="cI" gradientUnits="userSpaceOnUse" x1="-1129.08" x2="-1171.24" xlink:href="#a" y1="-204.97" y2="-205.56"/><linearGradient id="cJ" gradientUnits="userSpaceOnUse" x1="-1172.09" x2="-1214.25" xlink:href="#a" y1="-204.97" y2="-205.56"/><linearGradient id="cK" gradientUnits="userSpaceOnUse" x1="-1215.11" x2="-1257.27" xlink:href="#a" y1="-204.97" y2="-205.56"/><linearGradient id="cL" gradientUnits="userSpaceOnUse" x1="-1258.13" x2="-1300.29" xlink:href="#a" y1="-204.97" y2="-205.56"/><linearGradient id="cM" gradientTransform="matrix(-.70711 -.70711 -.70711 .70711 791.84 -272.74)" gradientUnits="userSpaceOnUse" x1="-934.09" x2="-976.25" xlink:href="#a" y1="547.8" y2="547.21"/><linearGradient id="cN" gradientUnits="userSpaceOnUse" x1="-978.517" x2="-1020.677" xlink:href="#a" y1="-305.75" y2="-306.34"/><linearGradient id="cO" gradientUnits="userSpaceOnUse" x1="-1021.534" x2="-1063.694" xlink:href="#a" y1="-305.75" y2="-306.34"/><linearGradient id="cP" gradientUnits="userSpaceOnUse" x1="-1064.55" x2="-1106.71" xlink:href="#a" y1="-305.75" y2="-306.34"/><linearGradient id="cQ" gradientUnits="userSpaceOnUse" x1="-1107.57" x2="-1149.73" xlink:href="#a" y1="-305.75" y2="-306.34"/><linearGradient id="cR" gradientUnits="userSpaceOnUse" x1="-1150.58" x2="-1192.74" xlink:href="#a" y1="-305.75" y2="-306.34"/><linearGradient id="cS" gradientUnits="userSpaceOnUse" x1="-1193.6" x2="-1235.76" xlink:href="#a" y1="-305.75" y2="-306.34"/><linearGradient id="cT" gradientUnits="userSpaceOnUse" x1="-1236.62" x2="-1278.78" xlink:href="#a" y1="-305.75" y2="-306.34"/><linearGradient id="cU" gradientUnits="userSpaceOnUse" x1="-1279.64" x2="-1321.8" xlink:href="#a" y1="-305.75" y2="-306.34"/><linearGradient id="cV" gradientTransform="matrix(-.70711 -.70711 -.70711 .70711 878.3 -328.79)" gradientUnits="userSpaceOnUse" x1="-934.09" x2="-976.25" xlink:href="#a" y1="547.8" y2="547.21"/><linearGradient id="cW" gradientUnits="userSpaceOnUse" x1="-1000.025" x2="-1042.185" xlink:href="#a" y1="-325.9" y2="-326.49"/><linearGradient id="cX" gradientUnits="userSpaceOnUse" x1="-1043.04" x2="-1085.2" xlink:href="#a" y1="-325.9" y2="-326.49"/><linearGradient id="cY" gradientUnits="userSpaceOnUse" x1="-1086.06" x2="-1128.22" xlink:href="#a" y1="-325.9" y2="-326.49"/><linearGradient id="cZ" gradientUnits="userSpaceOnUse" x1="-1129.08" x2="-1171.24" xlink:href="#a" y1="-325.9" y2="-326.49"/><linearGradient id="c0" gradientUnits="userSpaceOnUse" x1="-1172.09" x2="-1214.25" xlink:href="#a" y1="-325.9" y2="-326.49"/><linearGradient id="c1" gradientUnits="userSpaceOnUse" x1="-1215.11" x2="-1257.27" xlink:href="#a" y1="-325.9" y2="-326.49"/><linearGradient id="c2" gradientUnits="userSpaceOnUse" x1="-1258.13" x2="-1300.29" xlink:href="#a" y1="-325.9" y2="-326.49"/><linearGradient id="c3" gradientTransform="matrix(-.70711 -.70711 -.70711 .70711 877.35 -358.25)" gradientUnits="userSpaceOnUse" x1="-934.09" x2="-976.25" xlink:href="#a" y1="547.8" y2="547.21"/><linearGradient id="c4" gradientUnits="userSpaceOnUse" x1="-978.517" x2="-1020.677" xlink:href="#a" y1="-265.44" y2="-266.03"/><linearGradient id="c5" gradientUnits="userSpaceOnUse" x1="-1021.534" x2="-1063.694" xlink:href="#a" y1="-265.44" y2="-266.03"/><linearGradient id="c6" gradientUnits="userSpaceOnUse" x1="-1064.55" x2="-1106.71" xlink:href="#a" y1="-265.44" y2="-266.03"/><linearGradient id="c7" gradientUnits="userSpaceOnUse" x1="-1107.57" x2="-1149.73" xlink:href="#a" y1="-265.44" y2="-266.03"/><linearGradient id="c8" gradientUnits="userSpaceOnUse" x1="-1150.58" x2="-1192.74" xlink:href="#a" y1="-265.44" y2="-266.03"/><linearGradient id="c9" gradientUnits="userSpaceOnUse" x1="-1193.6" x2="-1235.76" xlink:href="#a" y1="-265.44" y2="-266.03"/><linearGradient id="da" gradientUnits="userSpaceOnUse" x1="-1236.62" x2="-1278.78" xlink:href="#a" y1="-265.44" y2="-266.03"/><linearGradient id="db" gradientUnits="userSpaceOnUse" x1="-1279.64" x2="-1321.8" xlink:href="#a" y1="-265.44" y2="-266.03"/><linearGradient id="dc" gradientUnits="userSpaceOnUse" x1="-1000.025" x2="-1042.185" xlink:href="#a" y1="-285.59" y2="-286.18"/><linearGradient id="dd" gradientUnits="userSpaceOnUse" x1="-1043.04" x2="-1085.2" xlink:href="#a" y1="-285.59" y2="-286.18"/><linearGradient id="de" gradientUnits="userSpaceOnUse" x1="-1086.06" x2="-1128.22" xlink:href="#a" y1="-285.59" y2="-286.18"/><linearGradient id="df" gradientUnits="userSpaceOnUse" x1="-1129.08" x2="-1171.24" xlink:href="#a" y1="-285.59" y2="-286.18"/><linearGradient id="dg" gradientUnits="userSpaceOnUse" x1="-1172.09" x2="-1214.25" xlink:href="#a" y1="-285.59" y2="-286.18"/><linearGradient id="dh" gradientUnits="userSpaceOnUse" x1="-1215.11" x2="-1257.27" xlink:href="#a" y1="-285.59" y2="-286.18"/><linearGradient id="di" gradientUnits="userSpaceOnUse" x1="-1258.13" x2="-1300.29" xlink:href="#a" y1="-285.59" y2="-286.18"/><linearGradient id="dj" gradientTransform="matrix(-.70711 -.70711 -.70711 .70711 848.84 -329.75)" gradientUnits="userSpaceOnUse" x1="-934.09" x2="-976.25" xlink:href="#a" y1="547.8" y2="547.21"/><linearGradient id="dk" gradientUnits="userSpaceOnUse" x1="-978.517" x2="-1020.677" xlink:href="#a" y1="-829.8" y2="-830.39"/><linearGradient id="dl" gradientUnits="userSpaceOnUse" x1="-1021.534" x2="-1063.694" xlink:href="#a" y1="-829.8" y2="-830.39"/><linearGradient id="dm" gradientUnits="userSpaceOnUse" x1="-1064.55" x2="-1106.71" xlink:href="#a" y1="-829.8" y2="-830.39"/><linearGradient id="dn" gradientTransform="matrix(-.70711 -.70711 -.70711 .70711 1096.8 -851.43)" gradientUnits="userSpaceOnUse" x1="-934.09" x2="-976.25" xlink:href="#a" y1="547.8" y2="547.21"/><linearGradient id="do" gradientUnits="userSpaceOnUse" x1="-1000.025" x2="-1042.185" xlink:href="#a" y1="-849.9" y2="-850.49"/><linearGradient id="dp" gradientUnits="userSpaceOnUse" x1="-1043.04" x2="-1085.2" xlink:href="#a" y1="-849.9" y2="-850.49"/><linearGradient id="dq" gradientTransform="matrix(-.70711 -.70711 -.70711 .70711 1095.8 -880.89)" gradientUnits="userSpaceOnUse" x1="-934.09" x2="-976.25" xlink:href="#a" y1="547.8" y2="547.21"/><linearGradient id="dr" gradientTransform="matrix(-.70711 -.70711 -.70711 .70711 1062.5 -999.69)" gradientUnits="userSpaceOnUse" x1="-934.09" x2="-976.25" xlink:href="#a" y1="547.8" y2="547.21"/><linearGradient id="ds" gradientTransform="matrix(-.70711 -.70711 -.70711 .70711 1092.9 -969.27)" gradientUnits="userSpaceOnUse" x1="-934.09" x2="-976.25" xlink:href="#a" y1="547.8" y2="547.21"/><linearGradient id="dt" gradientUnits="userSpaceOnUse" x1="-978.517" x2="-1020.677" xlink:href="#a" y1="-870.1" y2="-870.69"/><linearGradient id="du" gradientUnits="userSpaceOnUse" x1="-1021.534" x2="-1063.694" xlink:href="#a" y1="-870.1" y2="-870.69"/><linearGradient id="dv" gradientTransform="matrix(-.70711 -.70711 -.70711 .70711 1094.8 -910.35)" gradientUnits="userSpaceOnUse" x1="-934.09" x2="-976.25" xlink:href="#a" y1="547.8" y2="547.21"/><linearGradient id="dw" gradientUnits="userSpaceOnUse" x1="-1000.025" x2="-1042.185" xlink:href="#a" y1="-890.2" y2="-890.79"/><linearGradient id="dx" gradientTransform="matrix(-.70711 -.70711 -.70711 .70711 1093.9 -939.81)" gradientUnits="userSpaceOnUse" x1="-934.09" x2="-976.25" xlink:href="#a" y1="547.8" y2="547.21"/><linearGradient id="dy" gradientUnits="userSpaceOnUse" x1="-958.362" x2="-1000.522" xlink:href="#a" y1="-204.97" y2="-205.56"/><linearGradient id="dz" gradientUnits="userSpaceOnUse" x1="-957.008" x2="-999.168" xlink:href="#a" y1="-245.28" y2="-245.87"/><linearGradient id="dA" gradientUnits="userSpaceOnUse" x1="-958.362" x2="-1000.522" xlink:href="#a" y1="-164.66" y2="-165.25"/><linearGradient id="dB" gradientUnits="userSpaceOnUse" x1="-1001.379" x2="-1043.539" xlink:href="#a" y1="-164.66" y2="-165.25"/><linearGradient id="dC" gradientUnits="userSpaceOnUse" x1="-1044.4" x2="-1086.56" xlink:href="#a" y1="-164.66" y2="-165.25"/><radialGradient id="dD" cx="1044" cy="309.23" gradientTransform="matrix(1 0 0 .90163 -700 30.418)" gradientUnits="userSpaceOnUse" r="327.38"><stop offset="0" stop-color="#de021c"/><stop offset=".395" stop-color="#c00925"/><stop offset=".71426" stop-color="#a2122b"/><stop offset="1" stop-color="#8f182e"/></radialGradient><g stroke-width=".9937" transform="matrix(1.0063 0 0 1.0063 -3.3365 -2.9828)"><g fill-rule="evenodd" stroke-width=".9937" transform="translate(-700)"><path d="m-1021-677.97h43.017v20.155h-43.017z" fill="url(#o)" transform="matrix(-.70711 -.70711 -.70711 .70711 0 0)"/><path d="m-1064-677.97h43.017v20.155h-43.017z" fill="url(#p)" transform="matrix(-.70711 -.70711 -.70711 .70711 0 0)"/><path d="m-1107.1-677.97h43.017v20.155h-43.017z" fill="url(#q)" transform="matrix(-.70711 -.70711 -.70711 .70711 0 0)"/><path d="m-1150.1-677.97h43.017v20.155h-43.017z" fill="url(#r)" transform="matrix(-.70711 -.70711 -.70711 .70711 0 0)"/><path d="m-1193.1-677.97h43.017v20.155h-43.017z" fill="url(#s)" transform="matrix(-.70711 -.70711 -.70711 .70711 0 0)"/><path d="m-1236.1-677.97h43.017v20.155h-43.017z" fill="url(#t)" transform="matrix(-.70711 -.70711 -.70711 .70711 0 0)"/><path d="m-1279.1-677.97h43.017v20.155h-43.017z" fill="url(#u)" transform="matrix(-.70711 -.70711 -.70711 .70711 0 0)"/><path d="m1378.3 430.66-8.6738 8.6738 5.6835 5.6836c1.0279-4.7257 2.0525-9.4533 2.9903-14.357z" fill="url(#v)"/><path d="m-1042.5-698.12h43.017v20.155h-43.017z" fill="url(#w)" transform="matrix(-.70711 -.70711 -.70711 .70711 0 0)"/><path d="m-1085.6-698.12h43.017v20.155h-43.017z" fill="url(#x)" transform="matrix(-.70711 -.70711 -.70711 .70711 0 0)"/><path d="m-1128.6-698.12h43.017v20.155h-43.017z" fill="url(#y)" transform="matrix(-.70711 -.70711 -.70711 .70711 0 0)"/><path d="m-1171.6-698.12h43.017v20.155h-43.017z" fill="url(#z)" transform="matrix(-.70711 -.70711 -.70711 .70711 0 0)"/><path d="m-1214.6-698.12h43.017v20.155h-43.017z" fill="url(#A)" transform="matrix(-.70711 -.70711 -.70711 .70711 0 0)"/><path d="m-1257.6-698.12h43.017v20.155h-43.017z" fill="url(#B)" transform="matrix(-.70711 -.70711 -.70711 .70711 0 0)"/><path d="m1382.9 395.62-14.252 14.252 11.367 11.367c1.4033-8.0077 2.7236-16.172 3.8809-24.623z" fill="url(#C)"/><path d="m-1021-718.28h43.017v20.155h-43.017z" fill="url(#b)" transform="matrix(-.70711 -.70711 -.70711 .70711 0 0)"/><path d="m-1064-718.28h43.017v20.155h-43.017z" fill="url(#c)" transform="matrix(-.70711 -.70711 -.70711 .70711 0 0)"/><path d="m-1107.1-718.28h43.017v20.155h-43.017z" fill="url(#d)" transform="matrix(-.70711 -.70711 -.70711 .70711 0 0)"/><path d="m-1150.1-718.28h43.017v20.155h-43.017z" fill="url(#e)" transform="matrix(-.70711 -.70711 -.70711 .70711 0 0)"/><path d="m-1193.1-718.28h43.017v20.155h-43.017z" fill="url(#f)" transform="matrix(-.70711 -.70711 -.70711 .70711 0 0)"/><path d="m-1236.1-718.28h43.017v20.155h-43.017z" fill="url(#g)" transform="matrix(-.70711 -.70711 -.70711 .70711 0 0)"/><path d="m1382 366.16-14.252 14.252 16.205 16.205c1.132-8.2665 2.048-16.891 2.9316-25.572z" fill="url(#h)"/><path d="m-1042.5-738.43h43.017v20.155h-43.017z" fill="url(#i)" transform="matrix(-.70711 -.70711 -.70711 .70711 0 0)"/><path d="m-1085.6-738.43h43.017v20.155h-43.017z" fill="url(#j)" transform="matrix(-.70711 -.70711 -.70711 .70711 0 0)"/><path d="m-1128.6-738.43h43.017v20.155h-43.017z" fill="url(#k)" transform="matrix(-.70711 -.70711 -.70711 .70711 0 0)"/><path d="m-1171.6-738.43h43.017v20.155h-43.017z" fill="url(#l)" transform="matrix(-.70711 -.70711 -.70711 .70711 0 0)"/><path d="m-1214.6-738.43h43.017v20.155h-43.017z" fill="url(#m)" transform="matrix(-.70711 -.70711 -.70711 .70711 0 0)"/><path d="m1381 336.7-14.252 14.252 20.094 20.094c.871-8.5573 1.582-17.353 2.1992-26.305z" fill="url(#n)"/><path d="m-1021-798.9h43.017v20.155h-43.017z" fill="url(#D)" transform="matrix(-.70711 -.70711 -.70711 .70711 0 0)"/><path d="m-1064-798.9h43.017v20.155h-43.017z" fill="url(#E)" transform="matrix(-.70711 -.70711 -.70711 .70711 0 0)"/><path d="m-1107.1-798.9h43.017v20.155h-43.017z" fill="url(#F)" transform="matrix(-.70711 -.70711 -.70711 .70711 0 0)"/><path d="m-1150.1-798.9h43.017v20.155h-43.017z" fill="url(#G)" transform="matrix(-.70711 -.70711 -.70711 .70711 0 0)"/><path d="m1378.1 248.32-14.252 14.252 27.4 27.4c.08-9.3723-.1114-19.09-.3027-28.807z" fill="url(#H)"/><path d="m-1042.5-819.05h43.017v20.155h-43.017z" fill="url(#I)" transform="matrix(-.70711 -.70711 -.70711 .70711 0 0)"/><path d="m-1085.6-819.05h43.017v20.155h-43.017z" fill="url(#J)" transform="matrix(-.70711 -.70711 -.70711 .70711 0 0)"/><path d="m-1128.6-819.05h43.017v20.155h-43.017z" fill="url(#K)" transform="matrix(-.70711 -.70711 -.70711 .70711 0 0)"/><path d="m1377.2 218.86-14.252 14.252 28.055 28.055c-.1903-9.6654-.56-19.535-1.0292-29.533z" fill="url(#L)"/><path d="m-1021-758.59h43.017v20.155h-43.017z" fill="url(#M)" transform="matrix(-.70711 -.70711 -.70711 .70711 0 0)"/><path d="m-1064-758.59h43.017v20.155h-43.017z" fill="url(#N)" transform="matrix(-.70711 -.70711 -.70711 .70711 0 0)"/><path d="m-1107.1-758.59h43.017v20.155h-43.017z" fill="url(#O)" transform="matrix(-.70711 -.70711 -.70711 .70711 0 0)"/><path d="m-1150.1-758.59h43.017v20.155h-43.017z" fill="url(#P)" transform="matrix(-.70711 -.70711 -.70711 .70711 0 0)"/><path d="m-1193.1-758.59h43.017v20.155h-43.017z" fill="url(#Q)" transform="matrix(-.70711 -.70711 -.70711 .70711 0 0)"/><path d="m1380 307.24-14.251 14.251 23.25 23.25c.6098-8.8429 1.1324-17.8 1.4825-27.019z" fill="url(#R)"/><path d="m-1042.5-778.74h43.017v20.155h-43.017z" fill="url(#S)" transform="matrix(-.70711 -.70711 -.70711 .70711 0 0)"/><path d="m-1085.6-778.74h43.017v20.155h-43.017z" fill="url(#T)" transform="matrix(-.70711 -.70711 -.70711 .70711 0 0)"/><path d="m-1128.6-778.74h43.017v20.155h-43.017z" fill="url(#U)" transform="matrix(-.70711 -.70711 -.70711 .70711 0 0)"/><path d="m-1171.6-778.74h43.017v20.155h-43.017z" fill="url(#V)" transform="matrix(-.70711 -.70711 -.70711 .70711 0 0)"/><path d="m1379.1 277.78-14.252 14.252 25.689 25.688c.3462-9.12.6734-18.268.7538-27.748z" fill="url(#W)"/><path d="m-1021-557.04h43.017v20.155h-43.017z" fill="url(#X)" transform="matrix(-.70711 -.70711 -.70711 .70711 0 0)"/><path d="m-1064-557.04h43.017v20.155h-43.017z" fill="url(#Y)" transform="matrix(-.70711 -.70711 -.70711 .70711 0 0)"/><path d="m-1107.1-557.04h43.017v20.155h-43.017z" fill="url(#Z)" transform="matrix(-.70711 -.70711 -.70711 .70711 0 0)"/><path d="m-1150.1-557.04h43.017v20.155h-43.017z" fill="url(#aa)" transform="matrix(-.70711 -.70711 -.70711 .70711 0 0)"/><path d="m-1193.1-557.04h43.017v20.155h-43.017z" fill="url(#ab)" transform="matrix(-.70711 -.70711 -.70711 .70711 0 0)"/><path d="m-1236.1-557.04h43.017v20.155h-43.017z" fill="url(#ac)" transform="matrix(-.70711 -.70711 -.70711 .70711 0 0)"/><path d="m-1279.1-557.04h43.017v20.155h-43.017z" fill="url(#ad)" transform="matrix(-.70711 -.70711 -.70711 .70711 0 0)"/><path d="m-1322.1-557.04h43.017v20.155h-43.017z" fill="url(#ae)" transform="matrix(-.70711 -.70711 -.70711 .70711 0 0)"/><path d="m1328.8 541.01-14.252 14.252 12.52 12.52c3.7705-5.4101 7.4338-11.234 10.967-17.537z" fill="url(#af)"/><path d="m-1042.5-577.19h43.017v20.155h-43.017z" fill="url(#ag)" transform="matrix(-.70711 -.70711 -.70711 .70711 0 0)"/><path d="m-1085.6-577.19h43.017v20.155h-43.017z" fill="url(#ah)" transform="matrix(-.70711 -.70711 -.70711 .70711 0 0)"/><path d="m-1128.6-577.19h43.017v20.155h-43.017z" fill="url(#ai)" transform="matrix(-.70711 -.70711 -.70711 .70711 0 0)"/><path d="m-1171.6-577.19h43.017v20.155h-43.017z" fill="url(#aj)" transform="matrix(-.70711 -.70711 -.70711 .70711 0 0)"/><path d="m-1214.6-577.19h43.017v20.155h-43.017z" fill="url(#ak)" transform="matrix(-.70711 -.70711 -.70711 .70711 0 0)"/><path d="m-1257.6-577.19h43.017v20.155h-43.017z" fill="url(#al)" transform="matrix(-.70711 -.70711 -.70711 .70711 0 0)"/><path d="m-1300.6-577.19h43.017v20.155h-43.017z" fill="url(#am)" transform="matrix(-.70711 -.70711 -.70711 .70711 0 0)"/><path d="m1327.8 511.55-14.252 14.252 24.443 24.443c3.3151-5.9145 6.5084-12.234 9.5879-18.916z" fill="url(#an)"/><path d="m-1021-516.73h43.017v20.155h-43.017z" fill="url(#ao)" transform="matrix(-.70711 -.70711 -.70711 .70711 0 0)"/><path d="m-1064-516.73h43.017v20.155h-43.017z" fill="url(#ap)" transform="matrix(-.70711 -.70711 -.70711 .70711 0 0)"/><path d="m-1107.1-516.73h43.017v20.155h-43.017z" fill="url(#aq)" transform="matrix(-.70711 -.70711 -.70711 .70711 0 0)"/><path d="m-1150.1-516.73h43.017v20.155h-43.017z" fill="url(#ar)" transform="matrix(-.70711 -.70711 -.70711 .70711 0 0)"/><path d="m-1193.1-516.73h43.017v20.155h-43.017z" fill="url(#as)" transform="matrix(-.70711 -.70711 -.70711 .70711 0 0)"/><path d="m-1236.1-516.73h43.017v20.155h-43.017z" fill="url(#at)" transform="matrix(-.70711 -.70711 -.70711 .70711 0 0)"/><path d="m-1279.1-516.73h43.017v20.155h-43.017z" fill="url(#au)" transform="matrix(-.70711 -.70711 -.70711 .70711 0 0)"/><path d="m-1322.1-516.73h43.017v20.155h-43.017z" fill="url(#av)" transform="matrix(-.70711 -.70711 -.70711 .70711 0 0)"/><path d="m1300.3 569.52-14.252 14.252 15.293 15.293c4.4714-4.9572 8.8797-10.072 13.27-15.234z" fill="url(#aw)"/><path d="m-1042.5-536.88h43.017v20.155h-43.017z" fill="url(#ax)" transform="matrix(-.70711 -.70711 -.70711 .70711 0 0)"/><path d="m-1085.6-536.88h43.017v20.155h-43.017z" fill="url(#ay)" transform="matrix(-.70711 -.70711 -.70711 .70711 0 0)"/><path d="m-1128.6-536.88h43.017v20.155h-43.017z" fill="url(#az)" transform="matrix(-.70711 -.70711 -.70711 .70711 0 0)"/><path d="m-1171.6-536.88h43.017v20.155h-43.017z" fill="url(#aA)" transform="matrix(-.70711 -.70711 -.70711 .70711 0 0)"/><path d="m-1214.6-536.88h43.017v20.155h-43.017z" fill="url(#aB)" transform="matrix(-.70711 -.70711 -.70711 .70711 0 0)"/><path d="m-1257.6-536.88h43.017v20.155h-43.017z" fill="url(#aC)" transform="matrix(-.70711 -.70711 -.70711 .70711 0 0)"/><path d="m-1300.6-536.88h43.017v20.155h-43.017z" fill="url(#aD)" transform="matrix(-.70711 -.70711 -.70711 .70711 0 0)"/><path d="m-1343.7-536.88h43.017v20.155h-43.017z" fill="url(#aE)" transform="matrix(-.70711 -.70711 -.70711 .70711 0 0)"/><path d="m-1021-637.66h43.017v20.155h-43.017z" fill="url(#aF)" transform="matrix(-.70711 -.70711 -.70711 .70711 0 0)"/><path d="m-1064-637.66h43.017v20.155h-43.017z" fill="url(#aG)" transform="matrix(-.70711 -.70711 -.70711 .70711 0 0)"/><path d="m-1107.1-637.66h43.017v20.155h-43.017z" fill="url(#aH)" transform="matrix(-.70711 -.70711 -.70711 .70711 0 0)"/><path d="m-1150.1-637.66h43.017v20.155h-43.017z" fill="url(#aI)" transform="matrix(-.70711 -.70711 -.70711 .70711 0 0)"/><path d="m-1193.1-637.66h43.017v20.155h-43.017z" fill="url(#aJ)" transform="matrix(-.70711 -.70711 -.70711 .70711 0 0)"/><path d="m-1236.1-637.66h43.017v20.155h-43.017z" fill="url(#aK)" transform="matrix(-.70711 -.70711 -.70711 .70711 0 0)"/><path d="m-1279.1-637.66h43.017v20.155h-43.017z" fill="url(#aL)" transform="matrix(-.70711 -.70711 -.70711 .70711 0 0)"/><path d="m1355.4 453.59-14.252 14.252 22.24 22.239c2.2596-7.0816 4.3861-14.459 6.4082-22.094z" fill="url(#aM)"/><path d="m-1042.5-657.81h43.017v20.155h-43.017z" fill="url(#aN)" transform="matrix(-.70711 -.70711 -.70711 .70711 0 0)"/><path d="m-1085.6-657.81h43.017v20.155h-43.017z" fill="url(#aO)" transform="matrix(-.70711 -.70711 -.70711 .70711 0 0)"/><path d="m-1128.6-657.81h43.017v20.155h-43.017z" fill="url(#aP)" transform="matrix(-.70711 -.70711 -.70711 .70711 0 0)"/><path d="m-1171.6-657.81h43.017v20.155h-43.017z" fill="url(#aQ)" transform="matrix(-.70711 -.70711 -.70711 .70711 0 0)"/><path d="m-1214.6-657.81h43.017v20.155h-43.017z" fill="url(#aR)" transform="matrix(-.70711 -.70711 -.70711 .70711 0 0)"/><path d="m-1257.6-657.81h43.017v20.155h-43.017z" fill="url(#aS)" transform="matrix(-.70711 -.70711 -.70711 .70711 0 0)"/><path d="m1354.4 424.13-14.252 14.252 29.606 29.606c1.9628-7.4115 3.8161-15.043 5.539-22.965z" fill="url(#aT)"/><path d="m-1021-597.35h43.017v20.155h-43.017z" fill="url(#aU)" transform="matrix(-.70711 -.70711 -.70711 .70711 0 0)"/><path d="m-1064-597.35h43.017v20.155h-43.017z" fill="url(#aV)" transform="matrix(-.70711 -.70711 -.70711 .70711 0 0)"/><path d="m-1107.1-597.35h43.017v20.155h-43.017z" fill="url(#aW)" transform="matrix(-.70711 -.70711 -.70711 .70711 0 0)"/><path d="m-1150.1-597.35h43.017v20.155h-43.017z" fill="url(#aX)" transform="matrix(-.70711 -.70711 -.70711 .70711 0 0)"/><path d="m-1193.1-597.35h43.017v20.155h-43.017z" fill="url(#aY)" transform="matrix(-.70711 -.70711 -.70711 .70711 0 0)"/><path d="m-1236.1-597.35h43.017v20.155h-43.017z" fill="url(#aZ)" transform="matrix(-.70711 -.70711 -.70711 .70711 0 0)"/><path d="m-1279.1-597.35h43.017v20.155h-43.017z" fill="url(#a0)" transform="matrix(-.70711 -.70711 -.70711 .70711 0 0)"/><path d="m-1322.1-597.35h43.017v20.155h-43.017z" fill="url(#a1)" transform="matrix(-.70711 -.70711 -.70711 .70711 0 0)"/><path d="m1354.3 515.52-11.244 11.244 4.5703 4.5703c2.3132-5.0194 4.5064-10.371 6.6739-15.814z" fill="url(#a2)"/><path d="m-1042.5-617.5h43.017v20.155h-43.017z" fill="url(#a3)" transform="matrix(-.70711 -.70711 -.70711 .70711 0 0)"/><path d="m-1085.6-617.5h43.017v20.155h-43.017z" fill="url(#a4)" transform="matrix(-.70711 -.70711 -.70711 .70711 0 0)"/><path d="m-1128.6-617.5h43.017v20.155h-43.017z" fill="url(#a5)" transform="matrix(-.70711 -.70711 -.70711 .70711 0 0)"/><path d="m-1171.6-617.5h43.017v20.155h-43.017z" fill="url(#a6)" transform="matrix(-.70711 -.70711 -.70711 .70711 0 0)"/><path d="m-1214.6-617.5h43.017v20.155h-43.017z" fill="url(#a7)" transform="matrix(-.70711 -.70711 -.70711 .70711 0 0)"/><path d="m-1257.6-617.5h43.017v20.155h-43.017z" fill="url(#a8)" transform="matrix(-.70711 -.70711 -.70711 .70711 0 0)"/><path d="m-1300.6-617.5h43.017v20.155h-43.017z" fill="url(#a9)" transform="matrix(-.70711 -.70711 -.70711 .70711 0 0)"/><path d="m1356.3 483.05-14.251 14.251 13.93 13.93c2.5771-6.7297 5.0122-13.811 7.3535-21.148z" fill="url(#ba)"/><path d="m-1021-395.8h43.017v20.155h-43.017z" fill="url(#bb)" transform="matrix(-.70711 -.70711 -.70711 .70711 0 0)"/><path d="m-1064-395.8h43.017v20.155h-43.017z" fill="url(#bc)" transform="matrix(-.70711 -.70711 -.70711 .70711 0 0)"/><path d="m-1107.1-395.8h43.017v20.155h-43.017z" fill="url(#bd)" transform="matrix(-.70711 -.70711 -.70711 .70711 0 0)"/><path d="m-1150.1-395.8h43.017v20.155h-43.017z" fill="url(#be)" transform="matrix(-.70711 -.70711 -.70711 .70711 0 0)"/><path d="m-1193.1-395.8h43.017v20.155h-43.017z" fill="url(#bf)" transform="matrix(-.70711 -.70711 -.70711 .70711 0 0)"/><path d="m-1236.1-395.8h43.017v20.155h-43.017z" fill="url(#bg)" transform="matrix(-.70711 -.70711 -.70711 .70711 0 0)"/><path d="m-1279.1-395.8h43.017v20.155h-43.017z" fill="url(#bh)" transform="matrix(-.70711 -.70711 -.70711 .70711 0 0)"/><path d="m-1322.1-395.8h43.017v20.155h-43.017z" fill="url(#bi)" transform="matrix(-.70711 -.70711 -.70711 .70711 0 0)"/><path d="m1214.8 655.03-14.252 14.252 12.484 12.484c5.234-4.1688 10.456-8.4526 15.672-12.832z" fill="url(#bj)"/><path d="m-1042.5-415.95h43.017v20.155h-43.017z" fill="url(#bk)" transform="matrix(-.70711 -.70711 -.70711 .70711 0 0)"/><path d="m-1085.6-415.95h43.017v20.155h-43.017z" fill="url(#bl)" transform="matrix(-.70711 -.70711 -.70711 .70711 0 0)"/><path d="m-1128.6-415.95h43.017v20.155h-43.017z" fill="url(#bm)" transform="matrix(-.70711 -.70711 -.70711 .70711 0 0)"/><path d="m-1171.6-415.95h43.017v20.155h-43.017z" fill="url(#bn)" transform="matrix(-.70711 -.70711 -.70711 .70711 0 0)"/><path d="m-1214.6-415.95h43.017v20.155h-43.017z" fill="url(#bo)" transform="matrix(-.70711 -.70711 -.70711 .70711 0 0)"/><path d="m-1257.6-415.95h43.017v20.155h-43.017z" fill="url(#bp)" transform="matrix(-.70711 -.70711 -.70711 .70711 0 0)"/><path d="m-1300.6-415.95h43.017v20.155h-43.017z" fill="url(#bq)" transform="matrix(-.70711 -.70711 -.70711 .70711 0 0)"/><path d="m-1343.7-415.95h43.017v20.155h-43.017z" fill="url(#br)" transform="matrix(-.70711 -.70711 -.70711 .70711 0 0)"/><path d="m-1021-355.49h43.017v20.155h-43.017z" fill="url(#bs)" transform="matrix(-.70711 -.70711 -.70711 .70711 0 0)"/><path d="m-1064-355.49h43.017v20.155h-43.017z" fill="url(#bt)" transform="matrix(-.70711 -.70711 -.70711 .70711 0 0)"/><path d="m-1107.1-355.49h43.017v20.155h-43.017z" fill="url(#bu)" transform="matrix(-.70711 -.70711 -.70711 .70711 0 0)"/><path d="m-1150.1-355.49h43.017v20.155h-43.017z" fill="url(#bv)" transform="matrix(-.70711 -.70711 -.70711 .70711 0 0)"/><path d="m-1193.1-355.49h43.017v20.155h-43.017z" fill="url(#bw)" transform="matrix(-.70711 -.70711 -.70711 .70711 0 0)"/><path d="m-1236.1-355.49h43.017v20.155h-43.017z" fill="url(#bx)" transform="matrix(-.70711 -.70711 -.70711 .70711 0 0)"/><path d="m-1279.1-355.49h43.017v20.155h-43.017z" fill="url(#by)" transform="matrix(-.70711 -.70711 -.70711 .70711 0 0)"/><path d="m-1322.1-355.49h43.017v20.155h-43.017z" fill="url(#bz)" transform="matrix(-.70711 -.70711 -.70711 .70711 0 0)"/><path d="m1186.3 683.53-14.252 14.252 8.5079 8.5078c5.4779-3.9365 10.949-7.9121 16.439-12.065z" fill="url(#bA)"/><path d="m-1042.5-375.64h43.017v20.155h-43.017z" fill="url(#bB)" transform="matrix(-.70711 -.70711 -.70711 .70711 0 0)"/><path d="m-1085.6-375.64h43.017v20.155h-43.017z" fill="url(#bC)" transform="matrix(-.70711 -.70711 -.70711 .70711 0 0)"/><path d="m-1128.6-375.64h43.017v20.155h-43.017z" fill="url(#bD)" transform="matrix(-.70711 -.70711 -.70711 .70711 0 0)"/><path d="m-1171.6-375.64h43.017v20.155h-43.017z" fill="url(#bE)" transform="matrix(-.70711 -.70711 -.70711 .70711 0 0)"/><path d="m-1214.6-375.64h43.017v20.155h-43.017z" fill="url(#bF)" transform="matrix(-.70711 -.70711 -.70711 .70711 0 0)"/><path d="m-1257.6-375.64h43.017v20.155h-43.017z" fill="url(#bG)" transform="matrix(-.70711 -.70711 -.70711 .70711 0 0)"/><path d="m-1300.6-375.64h43.017v20.155h-43.017z" fill="url(#bH)" transform="matrix(-.70711 -.70711 -.70711 .70711 0 0)"/><path d="m1185.3 654.07-14.252 14.252 25.904 25.904c5.349-4.0452 10.696-8.2052 16.041-12.463z" fill="url(#bI)"/><path d="m-1021-476.42h43.017v20.155h-43.017z" fill="url(#bJ)" transform="matrix(-.70711 -.70711 -.70711 .70711 0 0)"/><path d="m-1064-476.42h43.017v20.155h-43.017z" fill="url(#bK)" transform="matrix(-.70711 -.70711 -.70711 .70711 0 0)"/><path d="m-1107.1-476.42h43.017v20.155h-43.017z" fill="url(#bL)" transform="matrix(-.70711 -.70711 -.70711 .70711 0 0)"/><path d="m-1150.1-476.42h43.017v20.155h-43.017z" fill="url(#bM)" transform="matrix(-.70711 -.70711 -.70711 .70711 0 0)"/><path d="m-1193.1-476.42h43.017v20.155h-43.017z" fill="url(#bN)" transform="matrix(-.70711 -.70711 -.70711 .70711 0 0)"/><path d="m-1236.1-476.42h43.017v20.155h-43.017z" fill="url(#bO)" transform="matrix(-.70711 -.70711 -.70711 .70711 0 0)"/><path d="m-1279.1-476.42h43.017v20.155h-43.017z" fill="url(#bP)" transform="matrix(-.70711 -.70711 -.70711 .70711 0 0)"/><path d="m-1322.1-476.42h43.017v20.155h-43.017z" fill="url(#bQ)" transform="matrix(-.70711 -.70711 -.70711 .70711 0 0)"/><path d="m1271.8 598.02-14.251 14.251 15.904 15.906c4.7462-4.6925 9.4724-9.4497 14.154-14.35z" fill="url(#bR)"/><path d="m-1042.5-496.57h43.017v20.155h-43.017z" fill="url(#bS)" transform="matrix(-.70711 -.70711 -.70711 .70711 0 0)"/><path d="m-1085.6-496.57h43.017v20.155h-43.017z" fill="url(#bT)" transform="matrix(-.70711 -.70711 -.70711 .70711 0 0)"/><path d="m-1128.6-496.57h43.017v20.155h-43.017z" fill="url(#bU)" transform="matrix(-.70711 -.70711 -.70711 .70711 0 0)"/><path d="m-1171.6-496.57h43.017v20.155h-43.017z" fill="url(#bV)" transform="matrix(-.70711 -.70711 -.70711 .70711 0 0)"/><path d="m-1214.6-496.57h43.017v20.155h-43.017z" fill="url(#bW)" transform="matrix(-.70711 -.70711 -.70711 .70711 0 0)"/><path d="m-1257.6-496.57h43.017v20.155h-43.017z" fill="url(#bX)" transform="matrix(-.70711 -.70711 -.70711 .70711 0 0)"/><path d="m-1300.6-496.57h43.017v20.155h-43.017z" fill="url(#bY)" transform="matrix(-.70711 -.70711 -.70711 .70711 0 0)"/><path d="m-1343.7-496.57h43.017v20.155h-43.017z" fill="url(#bZ)" transform="matrix(-.70711 -.70711 -.70711 .70711 0 0)"/><path d="m-1021-436.11h43.017v20.155h-43.017z" fill="url(#b0)" transform="matrix(-.70711 -.70711 -.70711 .70711 0 0)"/><path d="m-1064-436.11h43.017v20.155h-43.017z" fill="url(#b1)" transform="matrix(-.70711 -.70711 -.70711 .70711 0 0)"/><path d="m-1107.1-436.11h43.017v20.155h-43.017z" fill="url(#b2)" transform="matrix(-.70711 -.70711 -.70711 .70711 0 0)"/><path d="m-1150.1-436.11h43.017v20.155h-43.017z" fill="url(#b3)" transform="matrix(-.70711 -.70711 -.70711 .70711 0 0)"/><path d="m-1193.1-436.11h43.017v20.155h-43.017z" fill="url(#b4)" transform="matrix(-.70711 -.70711 -.70711 .70711 0 0)"/><path d="m-1236.1-436.11h43.017v20.155h-43.017z" fill="url(#b5)" transform="matrix(-.70711 -.70711 -.70711 .70711 0 0)"/><path d="m-1279.1-436.11h43.017v20.155h-43.017z" fill="url(#b6)" transform="matrix(-.70711 -.70711 -.70711 .70711 0 0)"/><path d="m-1322.1-436.11h43.017v20.155h-43.017z" fill="url(#b7)" transform="matrix(-.70711 -.70711 -.70711 .70711 0 0)"/><path d="m1243.3 626.52-14.252 14.252 14.949 14.949c4.9956-4.4251 9.9668-8.9508 14.92-13.584z" fill="url(#b8)"/><path d="m-1042.5-456.26h43.017v20.155h-43.017z" fill="url(#b9)" transform="matrix(-.70711 -.70711 -.70711 .70711 0 0)"/><path d="m-1085.6-456.26h43.017v20.155h-43.017z" fill="url(#ca)" transform="matrix(-.70711 -.70711 -.70711 .70711 0 0)"/><path d="m-1128.6-456.26h43.017v20.155h-43.017z" fill="url(#cb)" transform="matrix(-.70711 -.70711 -.70711 .70711 0 0)"/><path d="m-1171.6-456.26h43.017v20.155h-43.017z" fill="url(#cc)" transform="matrix(-.70711 -.70711 -.70711 .70711 0 0)"/><path d="m-1214.6-456.26h43.017v20.155h-43.017z" fill="url(#cd)" transform="matrix(-.70711 -.70711 -.70711 .70711 0 0)"/><path d="m-1257.6-456.26h43.017v20.155h-43.017z" fill="url(#ce)" transform="matrix(-.70711 -.70711 -.70711 .70711 0 0)"/><path d="m-1300.6-456.26h43.017v20.155h-43.017z" fill="url(#cf)" transform="matrix(-.70711 -.70711 -.70711 .70711 0 0)"/><path d="m-1343.7-456.26h43.017v20.155h-43.017z" fill="url(#cg)" transform="matrix(-.70711 -.70711 -.70711 .70711 0 0)"/><path d="m-1021-234.56h43.017v20.155h-43.017z" fill="url(#ch)" transform="matrix(-.70711 -.70711 -.70711 .70711 0 0)"/><path d="m-1064-234.56h43.017v20.155h-43.017z" fill="url(#ci)" transform="matrix(-.70711 -.70711 -.70711 .70711 0 0)"/><path d="m-1107.1-234.56h43.017v20.155h-43.017z" fill="url(#cj)" transform="matrix(-.70711 -.70711 -.70711 .70711 0 0)"/><path d="m-1150.1-234.56h43.017v20.155h-43.017z" fill="url(#ck)" transform="matrix(-.70711 -.70711 -.70711 .70711 0 0)"/><path d="m-1193.1-234.56h43.017v20.155h-43.017z" fill="url(#cl)" transform="matrix(-.70711 -.70711 -.70711 .70711 0 0)"/><path d="m-1236.1-234.56h43.017v20.155h-43.017z" fill="url(#cm)" transform="matrix(-.70711 -.70711 -.70711 .70711 0 0)"/><path d="m-1279.1-234.56h43.017v20.155h-43.017z" fill="url(#cn)" transform="matrix(-.70711 -.70711 -.70711 .70711 0 0)"/><path d="m1070.3 738.62-14.252 14.252 19.029 19.029c6.0324-3.2775 12.104-6.669 18.314-10.188z" fill="url(#co)"/><path d="m-1042.5-254.71h43.017v20.155h-43.017z" fill="url(#cp)" transform="matrix(-.70711 -.70711 -.70711 .70711 0 0)"/><path d="m-1085.6-254.71h43.017v20.155h-43.017z" fill="url(#cq)" transform="matrix(-.70711 -.70711 -.70711 .70711 0 0)"/><path d="m-1128.6-254.71h43.017v20.155h-43.017z" fill="url(#cr)" transform="matrix(-.70711 -.70711 -.70711 .70711 0 0)"/><path d="m-1171.6-254.71h43.017v20.155h-43.017z" fill="url(#cs)" transform="matrix(-.70711 -.70711 -.70711 .70711 0 0)"/><path d="m-1214.6-254.71h43.017v20.155h-43.017z" fill="url(#ct)" transform="matrix(-.70711 -.70711 -.70711 .70711 0 0)"/><path d="m-1257.6-254.71h43.017v20.155h-43.017z" fill="url(#cu)" transform="matrix(-.70711 -.70711 -.70711 .70711 0 0)"/><path d="m-1300.6-254.71h43.017v20.155h-43.017z" fill="url(#cv)" transform="matrix(-.70711 -.70711 -.70711 .70711 0 0)"/><path d="m1099.8 739.58-14.252 14.252 7.8848 7.8848c5.9655-3.3799 11.965-6.8203 18.068-10.436z" fill="url(#cw)"/><path d="m-1021-194.25h43.017v20.155h-43.017z" fill="url(#cx)" transform="matrix(-.70711 -.70711 -.70711 .70711 0 0)"/><path d="m-1064-194.25h43.017v20.155h-43.017z" fill="url(#cy)" transform="matrix(-.70711 -.70711 -.70711 .70711 0 0)"/><path d="m-1107.1-194.25h43.017v20.155h-43.017z" fill="url(#cz)" transform="matrix(-.70711 -.70711 -.70711 .70711 0 0)"/><path d="m-1150.1-194.25h43.017v20.155h-43.017z" fill="url(#cA)" transform="matrix(-.70711 -.70711 -.70711 .70711 0 0)"/><path d="m-1193.1-194.25h43.017v20.155h-43.017z" fill="url(#cB)" transform="matrix(-.70711 -.70711 -.70711 .70711 0 0)"/><path d="m-1236.1-194.25h43.017v20.155h-43.017z" fill="url(#cC)" transform="matrix(-.70711 -.70711 -.70711 .70711 0 0)"/><path d="m1011.4 736.71-14.252 14.252 1.0664 1.0664c12.864 7.5948 25.344 14.6 37.522 21.182l6.082-6.082z" fill="url(#cD)"/><path d="m1041.8 767.13-6.0821 6.082c6.1956 3.3483 12.497 6.8166 18.467 9.9257.7619-.39678 1.5916-.86501 2.3574-1.2656z" fill="url(#cE)"/><path d="m-1042.5-214.4h43.017v20.155h-43.017z" fill="url(#cF)" transform="matrix(-.70711 -.70711 -.70711 .70711 0 0)"/><path d="m-1085.6-214.4h43.017v20.155h-43.017z" fill="url(#cG)" transform="matrix(-.70711 -.70711 -.70711 .70711 0 0)"/><path d="m-1128.6-214.4h43.017v20.155h-43.017z" fill="url(#cH)" transform="matrix(-.70711 -.70711 -.70711 .70711 0 0)"/><path d="m-1171.6-214.4h43.017v20.155h-43.017z" fill="url(#cI)" transform="matrix(-.70711 -.70711 -.70711 .70711 0 0)"/><path d="m-1214.6-214.4h43.017v20.155h-43.017z" fill="url(#cJ)" transform="matrix(-.70711 -.70711 -.70711 .70711 0 0)"/><path d="m-1257.6-214.4h43.017v20.155h-43.017z" fill="url(#cK)" transform="matrix(-.70711 -.70711 -.70711 .70711 0 0)"/><path d="m-1300.6-214.4h43.017v20.155h-43.017z" fill="url(#cL)" transform="matrix(-.70711 -.70711 -.70711 .70711 0 0)"/><path d="m1071.3 768.08-12.697 12.697c5.3901-2.8303 10.952-5.853 16.518-8.8769z" fill="url(#cM)"/><path d="m-1021-315.18h43.017v20.155h-43.017z" fill="url(#cN)" transform="matrix(-.70711 -.70711 -.70711 .70711 0 0)"/><path d="m-1064-315.18h43.017v20.155h-43.017z" fill="url(#cO)" transform="matrix(-.70711 -.70711 -.70711 .70711 0 0)"/><path d="m-1107.1-315.18h43.017v20.155h-43.017z" fill="url(#cP)" transform="matrix(-.70711 -.70711 -.70711 .70711 0 0)"/><path d="m-1150.1-315.18h43.017v20.155h-43.017z" fill="url(#cQ)" transform="matrix(-.70711 -.70711 -.70711 .70711 0 0)"/><path d="m-1193.1-315.18h43.017v20.155h-43.017z" fill="url(#cR)" transform="matrix(-.70711 -.70711 -.70711 .70711 0 0)"/><path d="m-1236.1-315.18h43.017v20.155h-43.017z" fill="url(#cS)" transform="matrix(-.70711 -.70711 -.70711 .70711 0 0)"/><path d="m-1279.1-315.18h43.017v20.155h-43.017z" fill="url(#cT)" transform="matrix(-.70711 -.70711 -.70711 .70711 0 0)"/><path d="m-1322.1-315.18h43.017v20.155h-43.017z" fill="url(#cU)" transform="matrix(-.70711 -.70711 -.70711 .70711 0 0)"/><path d="m1157.8 712.03-14.252 14.252 3.1699 3.1699c5.632-3.6656 11.308-7.6308 16.99-11.514z" fill="url(#cV)"/><path d="m-1042.5-335.33h43.017v20.155h-43.017z" fill="url(#cW)" transform="matrix(-.70711 -.70711 -.70711 .70711 0 0)"/><path d="m-1085.6-335.33h43.017v20.155h-43.017z" fill="url(#cX)" transform="matrix(-.70711 -.70711 -.70711 .70711 0 0)"/><path d="m-1128.6-335.33h43.017v20.155h-43.017z" fill="url(#cY)" transform="matrix(-.70711 -.70711 -.70711 .70711 0 0)"/><path d="m-1171.6-335.33h43.017v20.155h-43.017z" fill="url(#cZ)" transform="matrix(-.70711 -.70711 -.70711 .70711 0 0)"/><path d="m-1214.6-335.33h43.017v20.155h-43.017z" fill="url(#c0)" transform="matrix(-.70711 -.70711 -.70711 .70711 0 0)"/><path d="m-1257.6-335.33h43.017v20.155h-43.017z" fill="url(#c1)" transform="matrix(-.70711 -.70711 -.70711 .70711 0 0)"/><path d="m-1300.6-335.33h43.017v20.155h-43.017z" fill="url(#c2)" transform="matrix(-.70711 -.70711 -.70711 .70711 0 0)"/><path d="m1156.8 682.57-14.252 14.252 21.117 21.117c5.6117-3.8344 11.209-7.5973 16.852-11.652z" fill="url(#c3)"/><path d="m-1021-274.87h43.017v20.155h-43.017z" fill="url(#c4)" transform="matrix(-.70711 -.70711 -.70711 .70711 0 0)"/><path d="m-1064-274.87h43.017v20.155h-43.017z" fill="url(#c5)" transform="matrix(-.70711 -.70711 -.70711 .70711 0 0)"/><path d="m-1107.1-274.87h43.017v20.155h-43.017z" fill="url(#c6)" transform="matrix(-.70711 -.70711 -.70711 .70711 0 0)"/><path d="m-1150.1-274.87h43.017v20.155h-43.017z" fill="url(#c7)" transform="matrix(-.70711 -.70711 -.70711 .70711 0 0)"/><path d="m-1193.1-274.87h43.017v20.155h-43.017z" fill="url(#c8)" transform="matrix(-.70711 -.70711 -.70711 .70711 0 0)"/><path d="m-1236.1-274.87h43.017v20.155h-43.017z" fill="url(#c9)" transform="matrix(-.70711 -.70711 -.70711 .70711 0 0)"/><path d="m-1279.1-274.87h43.017v20.155h-43.017z" fill="url(#da)" transform="matrix(-.70711 -.70711 -.70711 .70711 0 0)"/><path d="m-1322.1-274.87h43.017v20.155h-43.017z" fill="url(#db)" transform="matrix(-.70711 -.70711 -.70711 .70711 0 0)"/><path d="m-1042.5-295.02h43.017v20.155h-43.017z" fill="url(#dc)" transform="matrix(-.70711 -.70711 -.70711 .70711 0 0)"/><path d="m-1085.6-295.02h43.017v20.155h-43.017z" fill="url(#dd)" transform="matrix(-.70711 -.70711 -.70711 .70711 0 0)"/><path d="m-1128.6-295.02h43.017v20.155h-43.017z" fill="url(#de)" transform="matrix(-.70711 -.70711 -.70711 .70711 0 0)"/><path d="m-1171.6-295.02h43.017v20.155h-43.017z" fill="url(#df)" transform="matrix(-.70711 -.70711 -.70711 .70711 0 0)"/><path d="m-1214.6-295.02h43.017v20.155h-43.017z" fill="url(#dg)" transform="matrix(-.70711 -.70711 -.70711 .70711 0 0)"/><path d="m-1257.6-295.02h43.017v20.155h-43.017z" fill="url(#dh)" transform="matrix(-.70711 -.70711 -.70711 .70711 0 0)"/><path d="m-1300.6-295.02h43.017v20.155h-43.017z" fill="url(#di)" transform="matrix(-.70711 -.70711 -.70711 .70711 0 0)"/><path d="m1128.3 711.08-14.252 14.252 15.127 15.127c5.8156-3.6072 11.612-7.1651 17.504-11z" fill="url(#dj)"/><path d="m-1021-839.21h43.017v20.155h-43.017z" fill="url(#dk)" transform="matrix(-.70711 -.70711 -.70711 .70711 0 0)"/><path d="m-1064-839.21h43.017v20.155h-43.017z" fill="url(#dl)" transform="matrix(-.70711 -.70711 -.70711 .70711 0 0)"/><path d="m-1107.1-839.21h43.017v20.155h-43.017z" fill="url(#dm)" transform="matrix(-.70711 -.70711 -.70711 .70711 0 0)"/><path d="m1376.2 189.4-14.252 14.252 27.982 27.982c-.4674-9.9565-1.003-19.983-1.7579-30.262z" fill="url(#dn)"/><path d="m-1042.5-859.36h43.017v20.155h-43.017z" fill="url(#do)" transform="matrix(-.70711 -.70711 -.70711 .70711 0 0)"/><path d="m-1085.6-859.36h43.017v20.155h-43.017z" fill="url(#dp)" transform="matrix(-.70711 -.70711 -.70711 .70711 0 0)"/><path d="m1375.3 159.94-14.252 14.252 27.181 27.18c-.7524-10.245-1.5937-20.586-2.6426-31.145z" fill="url(#dq)"/><path d="m1328.4 56.1 29.709 29.709 11.478-11.479c-13.005-6.6718-26.754-12.738-41.188-18.23z" fill="url(#dr)"/><path d="m1369.6 74.33-11.478 11.479 19.115 19.115c-1.4445-9.6319-2.7957-19.181-4.4844-29.029-1.0279-.53987-2.115-1.0323-3.1523-1.5645z" fill="url(#ds)"/><path d="m-1021-879.52h43.017v20.155h-43.017z" fill="url(#dt)" transform="matrix(-.70711 -.70711 -.70711 .70711 0 0)"/><path d="m-1064-879.52h43.017v20.155h-43.017z" fill="url(#du)" transform="matrix(-.70711 -.70711 -.70711 .70711 0 0)"/><path d="m1374.3 130.48-14.252 14.252 25.496 25.494c-1.0481-10.551-2.3814-21.382-3.7362-32.238z" fill="url(#dv)"/><path d="m-1042.5-899.67h43.017v20.155h-43.017z" fill="url(#dw)" transform="matrix(-.70711 -.70711 -.70711 .70711 0 0)"/><path d="m1373.3 101.02-14.252 14.252 22.717 22.717c-1.3569-10.872-2.8833-21.892-4.5586-33.063z" fill="url(#dx)"/><path d="m1300.3 569.52-14.252 14.252 15.293 15.293c4.4714-4.9572 8.8797-10.072 13.27-15.234z" fill="url(#aw)"/><path d="m-1000.9-214.4h43.017v20.155h-43.017z" fill="url(#dy)" transform="matrix(-.70711 -.70711 -.70711 .70711 0 0)"/><path d="m-999.52-254.71h43.017v20.155h-43.017z" fill="url(#dz)" transform="matrix(-.70711 -.70711 -.70711 .70711 0 0)"/><path d="m-1000.9-174.09h43.017v20.155h-43.017z" fill="url(#dA)" transform="matrix(-.70711 -.70711 -.70711 .70711 0 0)"/><path d="m-1043.9-174.09h43.017v20.155h-43.017z" fill="url(#dB)" transform="matrix(-.70711 -.70711 -.70711 .70711 0 0)"/><path d="m-1086.9-174.09h43.017v20.155h-43.017z" fill="url(#dC)" transform="matrix(-.70711 -.70711 -.70711 .70711 0 0)"/></g><path d="m354.22 14.555c-127.06 0-237.52 18.782-318.55 61.34-42.945 250.47-5.8214 431.61 54.666 503.88 6.9151 8.2628 13.977 16.169 21.096 23.918l559.06-528.93c-80.825-41.736-190.38-60.211-316.27-60.211z" fill="url(#dD)" stroke="#000" stroke-width=".9937"/><path d="m19.314 266.21c-16.488 166.27 35.552 285.41 95.455 348.1 70.613 73.902 170.97 130.5 239.45 167.11 68.477-36.608 168.83-93.208 239.45-167.11 59.903-62.692 111.94-181.83 95.455-348.1-9.4147 117.91-35.905 247.61-108.9 317.74-59.758 57.415-141.55 116.64-226 160.96-84.455-44.324-166.25-103.55-226-160.96-72.993-70.132-99.484-199.83-108.9-317.74z" fill="#cf0326"/></g><g stroke-width=".9937"><g stroke-width=".9937"><g fill="#fff" transform="matrix(1.0063 0 0 1.0063 608.604593 103.393173)"><path d="m-340.13 19.127h5.16l12.32 28.32h-7.04l-2.44-6h-11l-2.36 6h-6.88zm2.4 8.24-3.44 8.8h6.92z"/><path d="m-296.57 43.447c-4.3595 2.2754-7.8838 4.3415-12.897 4.2768-4.5205-.05833-8.8668-2.7257-11.021-6.7876-2.1191-3.8498-2.3268-8.5835-1.1027-12.752 1.3921-4.5884 5.3957-8.1546 10.037-9.2402 3.9958-.9406 6.878-.75243 10.654.85196 1.6514.70159 2.2122 1.1902 3.645 2.325l-3.9546 5.0227c-1.8527-2.0375-3.6446-3.1492-6.3352-2.9663-3.5331.01894-6.857 2.4981-7.8462 5.8938-1.0699 3.6074-1.1876 7.3366 1.8921 9.7697 2.6852 2.1695 6.0341 2.8317 9.1767 1.7233.81155-.28626 1.7519-.71746 1.7519-1.3688v-3.7885h-6.08v-5.76h12.08z"/><path d="m-281.27 19.127h5.16l12.32 28.32h-7.04l-2.44-6h-11l-2.36 6h-6.88zm2.4 8.24-3.44 8.8h6.92z"/><path d="m-258.15 24.647h-8.08v-5.52h22.4v5.52h-8.08v22.8h-6.24z"/><path d="m-240.97 19.127h6.24v10.56h12.12v-10.56h6.24v28.32h-6.24v-12.24h-12.12v12.24h-6.24z"/><path d="m-212.43 33.287q0-3.4 1.12-6.16 1.16-2.76 3.2-4.68 2.04-1.96 4.84-3t6.12-1.04 6.12 1.04 4.84 3q2.04 1.92 3.16 4.68 1.16 2.76 1.16 6.16t-1.16 6.16q-1.12 2.76-3.16 4.72-2.04 1.92-4.84 2.96t-6.12 1.04-6.12-1.04-4.84-2.96q-2.04-1.96-3.2-4.72-1.12-2.76-1.12-6.16zm6.48 0q0 2 .6 3.68.64 1.64 1.8 2.88 1.16 1.2 2.76 1.88 1.64.68 3.64.68t3.6-.68q1.64-.68 2.8-1.88 1.16-1.24 1.76-2.88.64-1.68.64-3.68 0-1.96-.64-3.64-.6-1.68-1.76-2.88-1.16-1.24-2.8-1.92-1.6-.68-3.6-.68t-3.64.68q-1.6.68-2.76 1.92-1.16 1.2-1.8 2.88-.6 1.68-.6 3.64z"/><path d="m-176.61 19.127h6.24v28.32h-6.24z"/><path d="m-151.73 26.047q-.81069-.96-2.2187-1.4-1.3654-.48-2.6027-.48-.72535 0-1.4934.16t-1.4507.52q-.68267.32-1.1094.88t-.42668 1.36q0 1.28 1.024 1.96t2.56 1.16q1.5787.48 3.3707.96t3.3281 1.36q1.5787.88 2.6027 2.36t1.024 3.96q0 2.36-.93869 4.12t-2.5601 2.92q-1.5787 1.16-3.7121 1.72-2.0907.56-4.4374.56-2.9441 0-5.4614-.84-2.5174-.84-4.6934-2.72l4.7361-4.88q1.024 1.28 2.56 2 1.5787.68 3.2427.68.81068 0 1.6214-.16.85335-.2 1.4934-.56.68268-.36 1.0667-.92.42668-.56.42668-1.32 0-1.28-1.0667-2-1.024-.76-2.6027-1.28t-3.4134-1.04-3.4134-1.4q-1.5787-.88-2.6454-2.32-1.024-1.44-1.024-3.8 0-2.28.93869-4 .98135-1.72 2.56-2.88 1.6214-1.16 3.7121-1.72 2.0907-.6 4.3094-.6 2.56 0 4.9494.68t4.3094 2.28z"/><path d="m-473.94-20.478h5.16l12.32 28.32h-7.04l-2.44-6h-11l-2.36 6h-6.88zm2.4 8.24-3.44 8.8h6.92z"/><path d="m-435.8-13.118q-.92-1.12-2.28-1.72-1.32-.6-3.08-.6t-3.28.68q-1.48.68-2.6 1.92-1.08 1.2-1.72 2.88-.6 1.68-.6 3.64 0 2 .6 3.68.64 1.64 1.72 2.88 1.08 1.2 2.52 1.88 1.48.68 3.16.68 1.92 0 3.4-.8t2.44-2.24l5.2 3.88q-1.8 2.52-4.56 3.72t-5.68 1.2q-3.32 0-6.12-1.04t-4.84-2.96q-2.04-1.96-3.2-4.72-1.12-2.76-1.12-6.16t1.12-6.16q1.16-2.76 3.2-4.68 2.04-1.96 4.84-3t6.12-1.04q1.2 0 2.48.24 1.32.2 2.56.68 1.28.48 2.44 1.28t2.08 1.96z"/><path d="m-427-20.478h6.24v28.32h-6.24z"/><path d="m-417.08-20.478h6.48l14.08 17.68.04-17.68h6.24v28.32h-6.16l-14.4-18.16-.04 18.16h-6.24z"/><path d="m-358.84 5.8421q-2.76 1.44-5.76 2.08t-6.12.64q-3.32 0-6.12-1.04t-4.84-2.96q-2.04-1.96-3.2-4.72-1.12-2.76-1.12-6.16t1.12-6.16q1.16-2.76 3.2-4.68 2.04-1.96 4.84-3t6.12-1.04q3.4 0 6.24.84 2.88.8 5.04 2.8l-4.4 4.8q-1.28-1.32-2.88-2t-4-.68q-2 0-3.64.68-1.6.68-2.76 1.92-1.16 1.2-1.8 2.88-.6 1.68-.6 3.64 0 2 .6 3.68.64 1.64 1.8 2.88 1.16 1.2 2.76 1.88 1.64.68 3.64.68 2.04 0 3.52-.44 1.48-.48 2.36-.96v-4.6h-5.08v-5.76h11.08z"/><path d="m-325-13.118q-.92-1.12-2.28-1.72-1.32-.6-3.08-.6t-3.28.68q-1.48.68-2.6 1.92-1.08 1.2-1.72 2.88-.6 1.68-.6 3.64 0 2 .6 3.68.64 1.64 1.72 2.88 1.08 1.2 2.52 1.88 1.48.68 3.16.68 1.92 0 3.4-.8t2.44-2.24l5.2 3.88q-1.8 2.52-4.56 3.72t-5.68 1.2q-3.32 0-6.12-1.04t-4.84-2.96q-2.04-1.96-3.2-4.72-1.12-2.76-1.12-6.16t1.12-6.16q1.16-2.76 3.2-4.68 2.04-1.96 4.84-3t6.12-1.04q1.2 0 2.48.24 1.32.2 2.56.68 1.28.48 2.44 1.28t2.08 1.96z"/><path d="m-315.88-20.478h6.24v22.56h12.36v5.76h-18.6z"/><path d="m-269.16-3.0779q0 2.52-.76 4.64t-2.28 3.68q-1.48 1.56-3.72 2.44t-5.16.88q-2.96 0-5.2-.88t-3.76-2.44q-1.48-1.56-2.24-3.68t-.76-4.64v-17.4h6.24v17.16q0 1.32.4 2.44.44 1.12 1.2 1.96.76.8 1.8 1.28 1.08.44 2.32.44t2.28-.44q1.04-.48 1.8-1.28.76-.84 1.16-1.96.44-1.12.44-2.44v-17.16h6.24z"/><path d="m-264.47-20.478h11.258q1.9616 0 3.9232.28 2.0042.24 3.582 1.04 1.5778.76 2.5586 2.16.98079 1.4.98079 3.72 0 2.4-1.4499 4-1.4072 1.56-3.7526 2.24v.08q1.4925.2 2.6865.8 1.2366.56 2.0895 1.48.89551.88 1.3646 2.08.46908 1.2.46908 2.56 0 2.24-1.0234 3.76-1.0234 1.48-2.6439 2.4t-3.6673 1.32q-2.0042.4-4.0085.4h-12.367zm6.6523 11.32h4.8187q.76758 0 1.4925-.16.76758-.16 1.3646-.52.597-.36.93815-.96.38379-.6.38379-1.44 0-.88-.42644-1.44-.38378-.6-1.0234-.92t-1.4499-.44q-.81022-.16-1.5778-.16h-4.5202zm0 11.72h5.9701q.76758 0 1.5352-.16.81022-.16 1.4499-.56t1.0234-1.04q.42643-.64.42643-1.56 0-1-.55436-1.6-.51172-.64-1.3219-.96t-1.7484-.44-1.7484-.12h-5.0319z"/><path d="m-228.16-6.3179q0-3.4 1.12-6.16 1.16-2.76 3.2-4.68 2.04-1.96 4.84-3t6.12-1.04 6.12 1.04 4.84 3q2.04 1.92 3.16 4.68 1.16 2.76 1.16 6.16t-1.16 6.16q-1.12 2.76-3.16 4.72-2.04 1.92-4.84 2.96t-6.12 1.04-6.12-1.04-4.84-2.96q-2.04-1.96-3.2-4.72-1.12-2.76-1.12-6.16zm6.48 0q0 2 .6 3.68.64 1.64 1.8 2.88 1.16 1.2 2.76 1.88 1.64.68 3.64.68t3.6-.68q1.64-.68 2.8-1.88 1.16-1.24 1.76-2.88.64-1.68.64-3.68 0-1.96-.64-3.64-.6-1.68-1.76-2.88-1.16-1.24-2.8-1.92-1.6-.68-3.6-.68t-3.64.68q-1.6.68-2.76 1.92-1.16 1.2-1.8 2.88-.6 1.68-.6 3.64z"/><path d="m-167.96-4.2379-10.64-16.24h7.76l6 10.6 6.36-10.6h7.4l-10.64 16.24v12.08h-6.24z"/><path d="m-149-20.478h6.2632l7.7422 12.48 7.7772-12.48h6.2282v28.32h-5.4621l-.035-19.72-8.6309 13.72-8.3858-13.72-.035 19.72h-5.4621z"/><path d="m-116.44-20.479v28.49h6.2402v-9.0312h5.7598c1.4933 0 2.8802-.1509 4.1602-.45117 1.28-.3303 2.385-.87041 3.3184-1.6211.93333-.75068 1.6678-1.7564 2.2012-3.0176.53333-1.2612.79883-2.8238.79883-4.6855 0-1.8917-.29224-3.4525-.87891-4.6836-.56-1.2612-1.3336-2.252-2.3203-2.9727-.96-.75068-2.0937-1.2759-3.4004-1.5762-1.3067-.30027-2.6935-.45117-4.1602-.45117zm6.2402 5.2812h4.6836c.62453 0 1.2777.04828 1.959.14453.6813.06416 1.2907.24056 1.8301.5293.56775.28874 1.0226.70461 1.3633 1.25.36904.51331.55274 1.2041.55274 2.0703 0 .80205-.1419 1.4761-.42578 2.0215-.25549.51331-.61026.92918-1.0645 1.25-.42582.28874-.92248.49667-1.4902.625-.53937.12833-1.107.19336-1.7031.19336h-5.7051z"/><path d="m-88.524-20.478h6.24v28.32h-6.24z"/><path d="m-20.744-3.0779q0 2.52-.76 4.64t-2.28 3.68q-1.48 1.56-3.72 2.44t-5.16.88q-2.96 0-5.2-.88t-3.76-2.44q-1.48-1.56-2.24-3.68t-.76-4.64v-17.4h6.24v17.16q0 1.32.4 2.44.44 1.12 1.2 1.96.76.8 1.8 1.28 1.08.44 2.32.44t2.28-.44q1.04-.48 1.8-1.28.76-.84 1.16-1.96.44-1.12.44-2.44v-17.16h6.24z"/><path d="m-16.244-20.478h20.859v5.76h-14.094v5.28h13.313v5.76h-13.313v5.76h14.875v5.76h-21.64z"/><path d="m-194.48-20.478h6.24v22.56h12.36v5.76h-18.6z"/><path d="m-512.44-20.479v28.49h6.8223v-9.0312h5.0137l6.5234 9.0312h7.2617l-7.1113-9.7148c1.0483-.33089 1.9771-.79286 2.7871-1.3887 1.0205-.75068 1.8251-1.7564 2.4082-3.0176.58315-1.2611.87305-2.8239.87305-4.6855 0-1.8917-.31948-3.4525-.96094-4.6836-.61231-1.2611-1.4583-2.252-2.5371-2.9727-1.0497-.75068-2.29-1.2759-3.7188-1.5762-1.4287-.30027-2.9452-.45117-4.5488-.45117zm6.8223 5.2812h5.1211c.68286 0 1.3976.05098 2.1426.1543.74493.06887 1.4122.25842 2.002.56836.62078.30995 1.1178.75634 1.4902 1.3418.40351.55102.60351 1.2928.60351 2.2227 0 .86096-.15446 1.5845-.46484 2.1699-.27936.55102-.66747.99741-1.1641 1.3418-.4656.30995-1.0081.53412-1.6289.67188-.58975.13775-1.2115.20703-1.8633.20703h-6.2383z"/><path d="m-64.885-21.197c-2.2133 0-4.2525.34573-6.1191 1.0391s-3.4798 1.6933-4.8398 3c-1.36 1.28-2.4278 2.8397-3.2012 4.6797-.74667 1.84-1.1191 3.8935-1.1191 6.1602s.37247 4.3202 1.1191 6.1602c.77333 1.84 1.8412 3.414 3.2012 4.7207 1.36 1.28 2.9732 2.2657 4.8398 2.959 1.8667.69333 3.9058 1.041 6.1191 1.041s4.2544-.34768 6.1211-1.041c1.0332-.38375 1.9853-.86035 2.8633-1.4238l3.6094 2.8984 3.9062-4.8652-3.209-2.5781c.30846-.54298.58676-1.1113.83008-1.7109.77333-1.84 1.1602-3.8935 1.1602-6.1602s-.38682-4.3202-1.1602-6.1602c-.74667-1.84-1.8002-3.3997-3.1602-4.6797-1.36-1.3067-2.9732-2.3067-4.8398-3s-3.9078-1.0391-6.1211-1.0391zm0 5.7598c1.3333 0 2.5349.22636 3.6016.67969 1.0933.45333 2.0255 1.0933 2.7988 1.9199.77333.8 1.3598 1.7609 1.7598 2.8809.42667 1.12.64062 2.332.64062 3.6387 0 1.3333-.21396 2.5597-.64062 3.6797-.0069.018861-.01643.035906-.02344.054687l-4.9062-3.9414-3.9062 4.8652 4.5508 3.6543c-.09227.041853-.17877.089653-.27344.12891-1.0667.45333-2.2682.67969-3.6016.67969s-2.5453-.22635-3.6387-.67969c-1.0667-.45333-1.9864-1.0809-2.7598-1.8809-.77333-.82667-1.3741-1.7875-1.8008-2.8809-.4-1.12-.59961-2.3464-.59961-3.6797 0-1.3067.19961-2.5187.59961-3.6387.42667-1.12 1.0274-2.0809 1.8008-2.8809.77333-.82666 1.6931-1.4666 2.7598-1.9199 1.0933-.45333 2.3053-.67969 3.6387-.67969z"/></g><g fill-rule="evenodd"><g transform="matrix(1.0063 0 0 1.0063 -3.3365 -2.9828)"><path d="m124.85 226.86-10.497 5.0388-.00038 178.99h57.41v-84.451l38.642 84.451h68.785l-52.623-78.926c15.733-10.003 29.051-24.922 29.074-46.613-.0377-35.059-29.685-59.099-63.453-58.492zm46.912 42.459h20.34c11.481.19759 16.627 6.5949 16.627 16.033s-4.8492 18.508-16.33 18.705h-20.637z"/><path d="m513.03 221.79a95.544 92.185 0 0 0 -79.465 41.174 95.544 92.185 0 0 0 -26.078 63.01 95.544 92.185 0 0 0 95.543 92.186 95.544 92.185 0 0 0 79.27-40.73 95.544 92.185 0 0 0 26.275-63.455 95.544 92.185 0 0 0 -95.545-92.184zm-10 55.67a48.515 48.515 0 0 1 48.516 48.514 48.515 48.515 0 0 1 -6.7285 24.617 48.515 48.515 0 0 1 -31.787 11.898 48.515 48.515 0 0 1 -48.516-48.516 48.515 48.515 0 0 1 6.8516-24.473 48.515 48.515 0 0 1 31.664-12.041z"/><path d="m359.11 222.45c-34.204.005-65.795 17.41-82.832 45.635-12.946 15.92-19.974 35.479-19.982 55.609-.00042 50.216 42.776 90.925 95.543 90.926 24.1-.007 47.307-8.6818 64.971-24.285l7.2715-10.32-27.471-36.289c-9.2132 11.077-22.974 17.499-37.5 17.502-26.795.0001-48.516-21.425-48.516-47.854.0805-7.6955 2.0415-15.258 5.7168-22.047 9.1396-9.816 22.015-15.428 35.527-15.484 14.356.0885 27.935 6.4435 37.084 17.355l28.189-35.646c-.18173-.14518-.36402-.28971-.54688-.43359l7.8184-9.8867c-17.66-15.852-40.998-24.712-65.273-24.781z"/></g><g fill="#fff" transform="matrix(1.0063 0 0 1.0063 608.604593 103.393173)"><path d="m-493.77 126.19-.00038 174.58h46.912v-75.004l46.41 75.004h53.879l-45.485-69.479c15.733-10.003 29.051-24.922 29.074-46.613-.0377-35.059-29.685-59.099-63.453-58.492zm46.912 42.459h20.34c11.481.19759 16.627 6.5949 16.627 16.033s-4.8492 18.508-16.33 18.705h-20.637z"/><path d="m-101.72 121.71a95.544 92.185 0 0 0 -95.543 92.184 95.544 92.185 0 0 0 95.543 92.186 95.544 92.185 0 0 0 95.545-92.186 95.544 92.185 0 0 0 -95.545-92.184zm0 43.67a48.515 48.515 0 0 1 48.516 48.514 48.515 48.515 0 0 1 -48.516 48.516 48.515 48.515 0 0 1 -48.516-48.516 48.515 48.515 0 0 1 48.516-48.514z"/><path d="m-257.72 122.97a95.544 90.925 0 0 0 -95.543 90.924 95.544 90.925 0 0 0 95.543 90.926 95.544 90.925 0 0 0 64.971-24.285l-27.471-36.289a48.515 47.852 0 0 1 -37.5 17.502 48.515 47.852 0 0 1 -48.516-47.854 48.515 47.852 0 0 1 48.516-47.852 48.515 47.852 0 0 1 37.084 17.355l28.189-35.646a95.544 90.925 0 0 0 -65.273-24.781z"/></g></g><g transform="matrix(1.0063 0 0 1.0063 608.604593 103.393173)"><g stroke-width=".9937"><path d="m-378.38 332.97-.52539 1.1894-32.445 73.309h21.961l6.0156-14.938h25.355l6.2207 14.938h22.359l-33.188-74.498zm7.4316 27.867 5.8926 14.551h-11.719z"/><path d="m-282.68 331.93c-4.4995-.34732-9.0552.0633-14.18 1.2695-12.176 2.8497-22.947 11.533-26.65 23.738l-.004.016c-3.1369 10.675-2.6766 22.771 2.6758 32.834 5.5508 10.808 14.936 17.763 26.9 19.098h.0137l.0137.002c12.396 1.2127 25.53-.2145 37.082-10.076l.70313-.59961v-34.162h-31.582v17.338h12.645v6.3008l.0762.26757c.097.34183.0405.23896.0684.1875.0279-.0514-.025.0533-.32422.21289-.59849.31914-1.8836.61094-3.1894 1.2012l.20312-.0801c-7.3305 2.396-14.055 2.2136-20.168-2.459l-.01-.008-.0117-.008c-6.7176-4.9924-8.7227-14.579-6.834-22.709l.006-.0234.006-.0254c1.6565-8.0154 9.2716-14.439 17.461-14.668l.0566-.002.0566-.006c6.1942-.52131 12.51 2.2048 16.871 7.0137l1.5098 1.6621 12.66-14.469-1.4238-1.3223c-2.8049-2.6057-6.9606-5.6953-10.732-7.2246l-.0274-.0117-.0254-.01c-4.9018-1.8256-9.3462-2.93-13.846-3.2774z"/><path d="m-242.98 332.97v74.498h27.391c5.4382 0 10.663-.79542 15.645-2.3867 4.991-1.5944 9.4364-3.9331 13.287-7.0137l.008-.008.008-.006c3.8662-3.1632 6.942-7.0538 9.1856-11.607v-.002c2.3454-4.6916 3.498-10.063 3.498-16.027 0-6.6692-1.1693-12.464-3.5938-17.316-2.315-4.7648-5.5152-8.6875-9.5566-11.668-4.0131-3.0257-8.72-5.1946-14.055-6.5117-5.2152-1.3038-10.724-1.9512-16.516-1.9512zm19.533 18.338h7.1602c3.0758 0 5.966.40709 8.6934 1.2129l.0273.008.0254.006c2.7707.73885 5.1096 1.8574 7.0742 3.3457 1.9389 1.4688 3.4526 3.3259 4.5879 5.6562l.0274.0546c1.1525 2.1898 1.7617 4.8339 1.7617 8.0293 0 3.7607-.62819 6.8426-1.7969 9.2969l-.006.01-.004.01c-1.1348 2.4487-2.6748 4.385-4.6641 5.9102-2.0123 1.476-4.4311 2.5621-7.3203 3.2383l-.008.004c-2.8814.68903-6.0434 1.0391-9.4922 1.0391h-6.0664z"/><path d="m-163.31 332.97v74.498h57.686v-18.34h-38.152v-10.338h32.568v-18.338h-32.568v-9.1445h36.361v-18.338z"/></g><g fill="#fff"><path d="m-377.08 334.97h13.153l31.405 70.497h-17.945l-6.2198-14.936h-28.04l-6.0158 14.936h-17.538zm6.1178 20.512-8.7688 21.906h17.64z"/><path d="m-258.12 397.29c-11.062 9.4432-23.471 10.793-35.589 9.6071-11.337-1.2649-20.054-7.709-25.352-18.032-5.0679-9.517-5.5358-21.111-2.5282-31.347 3.4655-11.422 13.642-19.67 25.195-22.372 9.9469-2.3415 17.297-1.6286 26.868 1.936 3.3436 1.3558 7.4805 4.3822 10.123 6.8374l-9.9033 11.319c-4.7518-5.24-11.641-8.2407-18.522-7.6616-9.1761.25664-17.51 7.2884-19.365 16.264-2.0362 8.7648.0601 19.173 7.5881 24.768 6.6756 5.1026 14.276 5.2967 22.004 2.7709 1.9563-.88425 5.3473-1.1462 4.5457-3.9702v-8.0219h-12.646v-13.338h27.582z"/><path d="m-240.98 334.97h23.3q8.4637 0 16.031 1.8919 7.6671 1.8919 13.343 6.1735 5.6756 4.182 8.9615 10.953 3.3855 6.771 3.3855 16.43 0 8.5632-3.2859 15.135-3.1863 6.4722-8.6628 10.953-5.4765 4.3812-12.646 6.6714-7.1692 2.2902-15.035 2.2902h-25.391zm15.533 56.159h8.0654q5.3769 0 9.9573-1.0953 4.6799-1.0953 8.0654-3.5846 3.3855-2.5889 5.2774-6.6714 1.9914-4.182 1.9914-10.156 0-5.1778-1.9914-8.9616-1.8919-3.8833-5.1778-6.3726t-7.7667-3.6842q-4.3812-1.2944-9.2603-1.2944h-9.1607z"/><path d="m-161.31 334.97h51.894v14.338h-36.361v13.144h32.569v14.338h-32.569v14.338h38.153v14.338h-53.687z"/></g></g></g><g fill="#fff" transform="matrix(1.0063 0 0 1.0063 608.604593 103.393173)"><path d="m-375.91 495.05h23.032v6.376h-16.125v6.376h14.062v6.376h-14.062v12.221h-6.9074z"/><path d="m-348.6 510.72q0-3.7636 1.2398-6.8188 1.2841-3.0552 3.5422-5.1805 2.2582-2.1696 5.3576-3.3208 3.0995-1.1512 6.7746-1.1512t6.7745 1.1512q3.0995 1.1512 5.3576 3.3208 2.2582 2.1254 3.498 5.1805 1.2841 3.0552 1.2841 6.8188t-1.2841 6.8188q-1.2398 3.0552-3.498 5.2248-2.2582 2.1254-5.3576 3.2766-3.0995 1.1512-6.7745 1.1512t-6.7746-1.1512q-3.0995-1.1512-5.3576-3.2766-2.2582-2.1696-3.5422-5.2248-1.2398-3.0552-1.2398-6.8188zm7.173 0q0 2.2139.66417 4.0736.70845 1.8154 1.9925 3.188 1.2841 1.3283 3.0552 2.0811 1.8154.75272 4.0293.75272t3.985-.75272q1.8154-.75273 3.0995-2.0811 1.2841-1.3726 1.9482-3.188.70844-1.8597.70844-4.0736 0-2.1696-.70844-4.0293-.66418-1.8597-1.9482-3.188-1.2841-1.3726-3.0995-2.1253-1.7711-.75273-3.985-.75273t-4.0293.75273q-1.7711.75272-3.0552 2.1253-1.2841 1.3284-1.9925 3.188-.66417 1.8597-.66417 4.0293z"/><path d="m-309.46 510.72q0-3.7636 1.2398-6.8188 1.2841-3.0552 3.5422-5.1805 2.2582-2.1696 5.3576-3.3208 3.0995-1.1512 6.7746-1.1512t6.7746 1.1512q3.0995 1.1512 5.3576 3.3208 2.2582 2.1254 3.498 5.1805 1.2841 3.0552 1.2841 6.8188t-1.2841 6.8188q-1.2398 3.0552-3.498 5.2248-2.2582 2.1254-5.3576 3.2766-3.0995 1.1512-6.7746 1.1512t-6.7746-1.1512q-3.0995-1.1512-5.3576-3.2766-2.2582-2.1696-3.5422-5.2248-1.2398-3.0552-1.2398-6.8188zm7.173 0q0 2.2139.66417 4.0736.70845 1.8154 1.9925 3.188 1.2841 1.3283 3.0552 2.0811 1.8154.75272 4.0293.75272t3.985-.75272q1.8154-.75273 3.0995-2.0811 1.2841-1.3726 1.9482-3.188.70845-1.8597.70845-4.0736 0-2.1696-.70845-4.0293-.66417-1.8597-1.9482-3.188-1.2841-1.3726-3.0995-2.1253-1.7711-.75273-3.985-.75273t-4.0293.75273q-1.7711.75272-3.0552 2.1253-1.2841 1.3284-1.9925 3.188-.66417 1.8597-.66417 4.0293z"/><path d="m-263.17 501.16h-8.9442v-6.1104h24.796v6.1104h-8.9442v25.238h-6.9074z"/><path d="m-241.52 495.05h13.689c1.3579 0 2.7157.10332 4.0736.30995 1.3874.17711 2.6272.56086 3.7194 1.1512 1.0922.56085 1.9778 1.3579 2.6567 2.391.67893 1.0332 1.0184 2.4058 1.0184 4.1179 0 1.7711-.50182 3.247-1.5055 4.4278-.97411 1.1512-2.2729 1.9778-3.8965 2.4796v.0885c1.0332.14759 1.963.44278 2.7895.88556.85605.41327 1.5793.95936 2.1696 1.6383.61989.64941 1.0922 1.4169 1.4169 2.3025.32471.88557.48706 1.8302.48706 2.8338 0 1.653-.35423 3.0404-1.0627 4.1621-.70845 1.0922-1.6235 1.9778-2.7452 2.6567s-2.391 1.166-3.8079 1.4612c-1.3874.29519-2.7748.44278-4.1621.44278h-14.841zm6.9074 12.531h7.0034c.53133 0 1.0479-.059 1.5497-.17711.53133-.11808 1.0036-.30995 1.4169-.57562.41326-.26567.73797-.61989.97412-1.0627.26567-.44278.3985-.97412.3985-1.594 0-.64941-.14759-1.1808-.44278-1.594-.26567-.44278-.6199-.78224-1.0627-1.0184s-.9446-.39851-1.5054-.48706c-.56086-.11807-1.107-.17711-1.6383-.17711h-6.6935zm0 12.973h8.1989c.53134 0 1.0627-.059 1.594-.17712.56085-.11807 1.0627-.3247 1.5054-.61989s.797-.67893 1.0627-1.1512c.29519-.4723.44278-1.0479.44278-1.7268 0-.73797-.19187-1.3283-.57561-1.7711-.35423-.4723-.81177-.82652-1.3726-1.0627s-1.166-.39851-1.8154-.48706c-.64941-.0886-1.2546-.13284-1.8154-.13284h-7.2248z"/><path d="m-197.31 495.05h5.8572l13.985 31.349h-7.9912l-2.7697-6.6417h-12.486l-2.6789 6.6417h-7.8096zm2.7243 9.1213-3.9048 9.7412h7.855z"/><path d="m-173.05 495.05h6.9074v24.973h14.796v6.376h-21.704z"/><path d="m-144.28 495.05h6.9074v24.973h14.796v6.376h-21.704z"/></g><g fill="#fff" transform="matrix(1.0063 0 0 1.0063 608.604593 103.393173)"><path d="m-294.69 561.78h-6.2147v-5.3444l6.4056-1.9013h6.6815v30.534h-6.8724z"/><path d="m-273.56 554.02c-3.6845.0174-6.4245 1.355-8.9128 4.2031-1.2401 1.4194-1.9426 3.2147-2.123 5.0684-.40993 4.7635 2.6266 9.227 7.6768 10.418 2.8622.67505 5.6924-.16857 8.607-.93183-.95312 9.3471-11.243 5.6465-13.375 4.4453l-2.9043 5.084c11.592 7.3429 20.329 1.1629 22.025-6.0879 1.4827-6.3388 2.2332-13.553-1.3574-18.467-3.1745-3.4596-5.9145-3.7493-9.6363-3.7318zm.10742 5.7988c1.2479-.0146 2.4968.30342 3.5117.9961 1.8805 1.2006 2.422 3.8017 1.2871 5.6406-1.2041 2.0222-3.9004 2.6059-6.1465 2.1816-2.1823-.30559-4.0263-2.1924-3.9238-4.3438-.0589-1.6204.96914-3.1373 2.4707-3.8555.8604-.39533 1.8302-.60778 2.8008-.61914z"/><path d="m-260.58 569.81q0-2.717.57154-5.5202.6235-2.8032 2.1303-5.089 1.5588-2.2857 4.2086-3.7089 2.6499-1.4663 6.7546-1.4663t6.7546 1.4663q2.6499 1.4232 4.1567 3.7089 1.5588 2.2857 2.1303 5.089.6235 2.8032.6235 5.5202t-.6235 5.5202q-.57154 2.8032-2.1303 5.089-1.5068 2.2857-4.1567 3.752-2.6499 1.4232-6.7546 1.4232t-6.7546-1.4232q-2.6499-1.4663-4.2086-3.752-1.5068-2.2857-2.1303-5.089-.57154-2.8032-.57154-5.5202zm7.7938 0q0 1.2076.10386 2.8895.15587 1.6819.72742 3.2345.57154 1.5526 1.7146 2.6307 1.195 1.0782 3.3253 1.0782 2.0783 0 3.2734-1.0782 1.195-1.0782 1.7666-2.6307.57154-1.5526.67546-3.2345.15587-1.6819.15587-2.8895 0-1.2075-.15587-2.8895-.10387-1.6819-.67546-3.2345-.57155-1.5526-1.7666-2.6307-1.195-1.0782-3.2734-1.0782-2.1303 0-3.3253 1.0782-1.1431 1.0782-1.7146 2.6307-.57155 1.5526-.72742 3.2345-.10386 1.682-.10386 2.8895z"/><path d="m-217.79 578.95h-14.747v-5.434l13.792-18.976h7.8269v18.976h4.343v5.434h-4.343v6.124h-6.8724zm0-15.957h-.0954l-7.4928 10.523h7.5882z"/></g></g><path d="m353.13.0047506c-131.54-.35699-246.93 19.382-332.26 67.527-45.659 254.66-11.734 440.62 56.685 522.37 88.67 105.95 195.4 169.1 275.57 210.09 80.177-40.993 186.9-104.14 275.57-210.09 68.419-81.754 102.35-267.71 56.687-522.37-85.326-48.145-200.72-67.884-332.26-67.527zm0 21.801c124.51 0 232.76 18.405 312.17 60.109 42.084 245.44 5.7029 422.95-53.572 493.78-82.317 98.361-180.9 158.82-258.59 199.28-77.695-40.462-176.28-100.92-258.6-199.28-59.275-70.827-95.654-248.34-53.57-493.78 79.41-41.705 187.65-60.109 312.17-60.109z" fill="#1e1f21"/></svg>