<?xml version="1.0" encoding="utf-8"?>
<!-- Generator: Adobe Illustrator 13.0.0, SVG Export Plug-In . SVG Version: 6.00 Build 14948)  -->
<!DOCTYPE svg PUBLIC "-//W3C//DTD SVG 1.1//EN" "http://www.w3.org/Graphics/SVG/1.1/DTD/svg11.dtd">
<svg version="1.1" id="Ebene_1" xmlns="http://www.w3.org/2000/svg" xmlns:xlink="http://www.w3.org/1999/xlink" x="0px" y="0px"
	 width="453.031px" height="579.216px" viewBox="0 0 453.031 579.216" enable-background="new 0 0 453.031 579.216"
	 xml:space="preserve">
<path fill="#005AA1" d="M227.346,0.559L226.518,0l-0.83,0.555c-0.942,0.631-95.667,62.681-223.8,26.541L0,26.539v229.243
	c0,97.682,40.551,249.982,226.516,323.435c185.965-73.453,226.516-225.752,226.516-323.435V26.54l-1.885,0.557
	C323.017,63.239,228.291,1.188,227.346,0.559z"/>
<path fill="#FFED00" d="M226.516,30.577c-29.469,15.499-103.675,46.44-199.965,29.225v195.979
	c0,63.769,19.84,218.329,199.965,294.642c180.125-76.313,199.965-230.874,199.965-294.642V59.802
	C330.191,77.018,255.985,46.076,226.516,30.577z"/>
<path fill="#005AA1" d="M226.516,534.613c165.666-73.209,185.097-216.49,185.378-277.45L87.968,420.09
	C115.498,463.034,158.785,504.682,226.516,534.613z"/>
<path fill="#005AA1" d="M411.9,76.876c-85.367,10.766-152.536-13.921-185.384-29.919c-32.828,16.044-99.855,40.767-185.383,29.936
	v178.889c0,3.679,0.071,7.679,0.238,11.958L411.9,81.375V76.876z"/>
<polygon fill="#FFED00" points="334.691,403.194 334.691,417.957 347.757,411.383 347.757,396.623 "/>
<polygon fill="#FFED00" points="189.869,395.581 189.869,490.798 206.417,482.475 206.417,387.258 "/>
<path fill="#005AA1" d="M332.115,137.3c-28.411,14.29-58.314,29.329-88.471,44.497v23.851l36.647-18.432V307.56
	c7.798-3.922,15.538-7.816,23.208-11.671V175.542l28.616-14.394V137.3z"/>
<polygon fill="#FFED00" points="349.429,330.122 349.429,315.324 290.687,344.87 290.687,440.09 307.235,431.766 307.235,393.385 
	332.3,380.78 332.3,365.056 307.235,377.665 307.235,351.343 "/>
<path fill="#005AA1" d="M133.97,236.959c-6.417,3.229-12.771,6.423-19.041,9.58L78.088,409.263
	c9.123-4.589,18.527-9.318,28.109-14.137l8.662-44.43l28.37-14.268l10.615,34.732c7.214-3.63,14.476-7.282,21.796-10.963
	L133.97,236.959z M119.132,328.778l8.475-43.469l10.385,33.983L119.132,328.778z"/>
<path fill="#005AA1" d="M372.924,116.775c-6.321,3.18-12.755,6.416-19.301,9.708l-36.84,162.722
	c9.544-4.802,18.909-9.51,28.125-14.146l8.663-44.427l28.602-14.386l10.611,34.731c7.492-3.768,14.785-7.438,21.808-10.969
	L372.924,116.775z M357.844,208.711l8.578-44l10.514,34.398L357.844,208.711z"/>
<path fill="#005AA1" d="M211.523,321.598V197.952c-7.715,3.881-15.403,7.749-23.068,11.604v144.195
	c26.566-13.362,53.518-26.919,80.022-40.25V292.95L211.523,321.598z"/>
<polygon fill="#FFED00" points="241.114,450.264 241.114,465.024 254.18,458.451 254.18,443.69 "/>
</svg>
