<svg xmlns:dc="http://purl.org/dc/elements/1.1/" xmlns:cc="http://creativecommons.org/ns#" xmlns:rdf="http://www.w3.org/1999/02/22-rdf-syntax-ns#" xmlns:svg="http://www.w3.org/2000/svg" xmlns="http://www.w3.org/2000/svg" xmlns:xlink="http://www.w3.org/1999/xlink" xmlns:sodipodi="http://sodipodi.sourceforge.net/DTD/sodipodi-0.dtd" xmlns:inkscape="http://www.inkscape.org/namespaces/inkscape" inkscape:version="1.0 (4035a4f, 2020-05-01)" sodipodi:docname="Logo Andrézieux-Bouthéon FC 2020.svg" viewBox="0 0 700 700" id="svg931" height="300" width="300" version="1.1">
  <metadata id="metadata937">
    <rdf:RDF>
      <cc:Work rdf:about="">
        <dc:format>image/svg+xml</dc:format>
        <dc:type rdf:resource="http://purl.org/dc/dcmitype/StillImage"/>
        <dc:title/>
      </cc:Work>
    </rdf:RDF>
  </metadata>
  <defs id="defs935">
    <linearGradient id="linearGradient1049" inkscape:collect="always">
      <stop id="stop1045" offset="0" style="stop-color:#d50a1d;stop-opacity:1"/>
      <stop id="stop1047" offset="1" style="stop-color:#7e1b18;stop-opacity:1"/>
    </linearGradient>
    <defs id="defs843">
      <linearGradient id="grad1">
        <stop offset="201392128.0000%" stop-color="#791a14" stop-opacity="1.0000" id="stop833"/>
        <stop offset="201392175.0000%" stop-color="#791a14" stop-opacity="1.0000" id="stop835"/>
        <stop offset="201392213.0000%" stop-color="#db2023" stop-opacity="1.0000" id="stop837"/>
        <stop offset="100.0000%" stop-color="#e62125" stop-opacity="1.0000" id="stop839"/>
      </linearGradient>
      <linearGradient xlink:href="#grad1" id="grad2" x1="14.167214" y1="137.77789" x2="14.167214" y2="704.46765" gradientTransform="scale(1.0004225,0.99957764)" gradientUnits="userSpaceOnUse"/>
    </defs>
    <radialGradient gradientUnits="userSpaceOnUse" gradientTransform="matrix(1.3008604,0.01735951,-0.01644947,1.2346123,-31.292599,-174.92826)" r="283.4646" fy="346.92926" fx="260.65897" cy="346.92926" cx="260.65897" id="radialGradient1043" xlink:href="#linearGradient1049" inkscape:collect="always"/>
  </defs>
  <sodipodi:namedview inkscape:current-layer="svg931" inkscape:window-maximized="0" inkscape:window-y="0" inkscape:window-x="0" inkscape:cy="298.15761" inkscape:cx="93.230032" inkscape:zoom="0.71030677" showgrid="false" id="namedview933" inkscape:window-height="900" inkscape:window-width="1440" inkscape:pageshadow="2" inkscape:pageopacity="0" guidetolerance="10" gridtolerance="10" objecttolerance="10" borderopacity="1" bordercolor="#666666" pagecolor="#ffffff"/>
  <path d="M 350,0 A 350,350 0 0 1 700,350 350,350 0 1 1 350,0 Z" style="fill:url(#radialGradient1043);fill-opacity:1;stroke-width:1.23524" id="path845"/>
  <g transform="matrix(1.2347221,0,0,1.2357657,-17.499963,-170.18929)" id="g1152">
    <path id="path847" style="fill:#033653;fill-rule:evenodd" d="m 581.0913,421.8083 c -0.4676,155.9968 -127.216,282.3618 -283.4538,282.3618 -156.4746,0 -283.3783,-126.7468 -283.4624,-283.0706 h 11.988 c 27.5515,-22.8707 63.372,-50.5139 102.3893,-70.383 39.4655,-20.097 86.2646,-35.9173 131.7638,-44.9329 29.6659,-5.8785 61.0135,-10.8297 93.048,-5.1224 17.236,3.0705 33.1639,8.1354 47.7002,14.0392 14.5363,5.9036 27.6842,12.6496 39.3592,17.177 11.6842,4.5313 21.694,6.5625 28.0715,9.4343 3.8247,1.7224 5.7946,3.2809 7.2376,4.9805 2.9032,3.4183 6.8098,8.341 10.3139,13.6224 6.1762,9.3089 13.0381,21.0382 14.6481,23.7868 l -1.4285,2.0093 7.7199,-0.3174 c 10.5541,4.0326 27.9498,20.0598 37.5219,36.4604 z m -418.622,-34.4057 c 23.4278,-9.287 49.4264,-18.016 77.0379,-22.1886 11.6582,-1.7617 23.6052,-2.547 35.7662,-2.8565 16.3022,-0.4149 39.262,2.3379 58.1957,8.6388 21.4588,7.1409 38.4256,18.5365 58.7905,19.2622 9.6286,0.3431 18.5277,-2.1592 26.3805,-7.5196 -6.339,18.6054 -14.635,32.2542 -26.7376,41.2517 -5.9095,4.3935 -13.4564,7.803 -20.723,9.9015 -5.6432,1.63 -11.9978,3.1664 -18.4035,3.308 -5.6128,0.1241 -12.6003,-1.3542 -17.3363,-2.695 16.138,0.8142 32.7201,-4.9649 36.4153,-8.9896 -9.9628,3.7952 -20.6096,4.6646 -28.9529,1.5034 -7.3615,-2.7896 -12.6438,-7.8138 -15.8374,-16.7844 0.7142,9.6889 6.732,18.4058 14.9038,21.2639 -15.4724,-1.8309 -25.4298,-10.0767 -31.6133,-21.9089 0.4467,7.6796 7.5955,17.503 18.8032,23.0402 -13.3117,-1.3357 -22.3726,-9.4971 -33.6928,-18.4749 -10.6338,-8.4331 -24.5191,-17.5833 -37.4825,-21.6264 -16.5996,-5.1772 -36.5119,-7.0437 -57.4377,-5.1722 6.7101,-2.5616 17.4849,-4.8252 25.1648,-5.5321 3.3628,-0.3095 7.3954,-0.6161 10.8109,-0.6114 13.305,0.0197 27.8696,1.6329 41.4162,6.8022 -11.5713,-7.1532 -35.9526,-11.1659 -56.5803,-10.9056 -17.6373,0.2226 -35.4669,3.4149 -58.8877,10.2933 z m 25.7193,-15.2708 c 17.4344,-6.0534 38.9948,-11.9093 61.5661,-14.6344 7.8408,-0.9466 17.1005,-1.751 24.5747,-1.7326 26.3982,0.0658 56.6587,4.3907 79.963,15.8064 -8.2186,-5.3287 -16.7866,-9.7428 -24.561,-13.1222 -18.4134,-8.0036 -35.4695,-10.8224 -55.1421,-10.697 -10.5535,0.0673 -23.5046,2.0074 -33.7638,4.3948 -18.5324,4.3129 -34.9901,11.3055 -52.6369,19.985 z m 137.6733,-19.2213 c -12.9399,-5.4791 -22.1895,-7.4783 -35.1231,-9.0371 -19.7719,-2.3833 -47.7697,2.1632 -64.2081,7.9223 8.1363,-4.463 21.1718,-8.5823 34.1083,-10.9341 9.1137,-1.6563 18.4391,-2.4499 27.641,-1.4849 14.3741,1.5074 28.6647,6.0752 37.5819,13.5338 z M 28.8232,431.5378 c 14.9454,-8.5312 29.1015,-16.4552 42.7388,-24.9077 7.2009,-4.4627 14.2586,-9.2422 21.2109,-13.6322 18.4746,-11.6652 36.215,-22.5117 53.9735,-31.8704 21.3966,-11.2763 41.5149,-20.9496 63.3209,-29.73 32.9237,-13.2568 67.2656,-22.8606 102.2258,-24.4106 21.654,-0.9602 43.2537,1.9383 63.6018,7.9389 14.3795,4.2405 27.8017,9.8971 41.6561,16.511 6.8993,3.2937 14.4868,6.8603 21.9762,9.3032 3.9107,1.2758 8.98,2.6134 13.192,4.2431 5.415,2.0956 9.9387,4.676 14.3097,8.2331 4.6623,3.7945 7.8325,8.9226 10.9677,15.3877 -10.9903,-3.6863 -18.4083,-5.3757 -27.3483,-4.0876 -6.585,0.9485 -11.8397,4.9481 -15.6019,12.3664 -3.3778,6.6596 -3.8961,14.4934 -6.9441,22.5269 -2.5575,6.7409 -7.5735,14.0519 -12.6273,19.2266 -3.7215,3.8101 -8.0912,7.4113 -12.3984,10.0914 -5.9184,3.6828 -12.9142,6.5825 -19.6412,8.4556 -9.7133,2.7055 -19.5281,3.0273 -34.7101,2.8708 -9.3521,-0.0961 -17.8439,-0.5862 -27.062,-2.3499 -14.9426,-2.8584 -29.6541,-7.2361 -42.0084,-11.7721 18.5501,12.9663 41.0834,22.784 61.5099,25.6596 -43.7041,-0.2041 -81.9453,-22.8793 -96.6426,-45.9956 -28.0286,-0.4797 -50.2685,1.8179 -68.985,4.875 -28.3949,4.638 -48.8037,11.5995 -68.7626,19.618 42.8649,-10.8071 89.7627,-11.8032 132.2266,-7.9776 -18.6321,0.1194 -37.2562,1.5465 -57.332,4.3129 -8.6061,1.1856 -17.4798,2.7477 -26.7344,4.3447 -17.8461,3.0796 -40.8508,7.8588 -60.2263,13.6487 26.857,-4.2703 53.5797,-6.8409 79.957,-5.2553 14.8045,0.8901 30.2008,2.2648 45.1688,4.8573 17.2173,2.9822 35.9481,8.441 50.5225,13.9916 -34.395,-5.063 -53.5308,-6.3356 -82.3295,-6.8536 -20.3474,-0.366 -45.2306,-0.9437 -82.0488,5.8905 46.0703,-2.5991 91.8285,5.3137 127.6131,15.5622 39.3049,11.2567 66.1444,25.0007 71.5394,29.7253 -22.046,-7.8056 -44.3844,-12.495 -67.2967,-16.1428 -8.7435,-1.392 -17.5331,-2.7674 -26.3376,-3.4146 32.7421,7.5998 64.4185,19.0999 92.1608,33.4886 -21.9371,-6.8951 -43.7413,-13.963 -66.0346,-19.2009 -10.2888,-2.4175 -20.6829,-4.4449 -31.2409,-5.886 -38.744,-5.2881 -92.2872,-7.1793 -149.335,-7.5732 26.5439,-2.4122 53.8421,-4.9329 80.947,-5.13 20.4214,-0.1485 37.5371,0.6841 61.0449,2.4261 -24.3651,-5.4261 -50.5952,-9.5219 -80.5201,-11.9743 -15.6539,-1.2828 -32.8252,-1.1405 -51.3087,-0.3771 -6.9555,0.2872 -14.0983,0.9361 -21.4153,1.2332 l 29.604,-18.8876 -40.9902,12.4578 c 31.3597,-22.0451 64.9188,-43.5302 95.2069,-61.2871 z"/>
    <path id="path849" style="fill:#ffffff;fill-rule:evenodd" d="m 351.8812,395.8417 c -2.3439,-2.1877 -5.6921,-3.5717 -11.2522,-3.6168 -3.2981,3.5629 -5.4004,7.3625 -6.3168,10.9586 -1.2478,4.8986 0.425,9.5124 3.9107,13.1326 5.0674,5.263 15.2175,5.8341 21.7219,3.7238 6.1378,-1.9919 13.2774,-6.985 18.9851,-15.9178 -5.7601,-0.6697 -14.1891,-0.2431 -20.8868,-5.4673 3.4381,4.0186 3.4984,9.292 1.2056,12.5917 -2.255,3.2454 -6.7577,6.194 -12.7505,3.9939 -4.7239,-1.7341 -8.196,-7.045 -5.8692,-13.6386 0.1841,-0.5216 0.4022,-1.0079 0.6514,-1.4592 -0.0912,0.3675 -0.1404,0.7529 -0.1404,1.149 0,2.6258 2.1297,4.7554 4.7554,4.7554 2.6258,0 4.7554,-2.1296 4.7554,-4.7554 0,-2.6257 -2.1296,-4.7553 -4.7554,-4.7553 -0.2006,0 -0.3974,0.0117 -0.5916,0.0358 1.7953,-0.7383 4.0037,-0.9799 6.5774,-0.7304 z"/>
    <path id="path851" style="fill:#ffffff;fill-rule:evenodd" d="m 488.7727,627.5877 c -10.2139,-20.0548 -22.1136,-34.3565 -33.27,-45.6522 -7.8468,-7.9452 -16.4932,-15.5289 -25.3666,-22.1809 -5.3703,-4.0256 -10.8275,-7.5612 -16.239,-11.4344 -11.083,-7.9332 -22.792,-17.0881 -32.4465,-26.9554 -10.087,-10.3094 -22.2984,-22.4913 -26.4904,-37.6946 -1.0675,-3.8726 -1.5265,-8.4499 -0.4806,-11.5216 1.2485,-3.6666 4.3558,-7.2276 8.0437,-10.2031 2.2124,-1.7849 4.5348,-3.3168 7.0735,-4.9443 7.0746,-4.5351 14.324,-7.8446 22.6187,-11.1608 12.1223,-4.8464 28.5314,-9.6015 37.9892,-9.0844 -19.2032,5.0128 -37.9057,11.6102 -46.2979,18.0531 8.5049,-4.2241 16.6187,-6.3543 26.6008,-8.4998 9.9819,-2.1455 20.7611,-3.6365 31.3813,-4.5729 -1.191,-5.6391 2.4556,-8.6293 8.3039,-12.9279 7.5189,-5.5264 18.242,-11.993 22.3815,-16.0885 -2.1785,3.8412 -5.4664,6.626 -8.873,9.6066 -2.6499,2.3182 -5.3728,4.8818 -7.7012,7.3434 -2.3086,2.441 -4.0484,4.1863 -4.5598,7.4234 -0.4584,2.9007 -0.0279,6.1127 1.7106,9.785 -9.1683,0.5489 -20.9741,1.8878 -33.0925,3.3248 -14.3081,1.6969 -32.4037,5.7657 -43.9378,12.2387 -2.44,1.3694 -4.7119,2.8661 -6.7123,4.8411 -2.9765,2.9391 -4.697,5.6252 -3.5958,10.9408 3.937,19.007 16.0421,31.966 29.4227,44.445 15.8457,14.7779 35.3396,27.975 52.7731,43.5731 10.0786,9.0171 20.23,19.5875 28.0565,31.8288 5.7115,8.9334 10.111,18.7568 12.7079,29.517 z"/>
    <path id="path853" style="fill:#ffffff;fill-rule:evenodd" d="m 461.8929,446.8784 c 16.9284,-2.0099 32.1812,-0.6529 44.9468,4.3501 5.5944,2.1924 10.7402,5.1782 15.2826,8.7426 8.0322,6.3025 14.3925,14.6223 19.4984,25.3072 1.5842,-6.6069 2.4473,-12.9536 2.5724,-19.3278 0.3552,-18.0807 -5.5909,-35.0317 -15.3273,-48.7237 -8.1237,-11.4239 -21.8769,-23.7817 -31.9511,-28.3507 6.6841,5.2201 12.4153,10.1907 17.1427,15.5498 9.3467,10.5958 15.5911,21.9426 18.1268,33.0757 -3.4172,-5.8394 -7.6205,-11.6264 -13.0809,-17.057 -5.8131,-5.7807 -14.3906,-12.4968 -22.2832,-15.7619 3.1997,2.8943 6.3714,5.2512 9.381,8.1487 3.2038,3.0842 6.227,6.7206 8.9067,10.1072 12.7847,16.1578 20.236,36.9531 23.03,49.4407 -7.8627,-12.8507 -18.7066,-21.0981 -31.904,-25.2266 -12.7908,-4.0015 -31.8987,-4.8173 -44.3409,-0.2743 z"/>
    <path id="path855" style="fill:#ffffff;fill-rule:evenodd" d="m 438.8178,400.2622 c 6.4018,-8.1172 12.6904,-13.5868 21.4327,-16.337 8.4731,-2.6658 16.3622,-2.2424 29.604,0.1285 -6.6086,-4.5544 -20.8836,-9.0099 -30.9435,-6.2959 -9.3575,2.5245 -16.4765,11.297 -20.0932,22.5044 z"/>
    <path id="path857" style="fill:#ffffff;fill-rule:evenodd" d="m 468.9576,405.3525 c 1.6969,-3.0362 0.6685,-6.459 -2.6791,-6.4298 -7.5047,0.066 -14.2884,10.3145 -15.8067,19.8253 2.767,-5.4481 8.6252,-15.761 15.2708,-16.6104 1.5078,-0.1927 2.8578,1.0272 3.215,3.2149 z"/>
    <path d="m 403.9895,490.4137 c 8.7319,12.2483 18.9267,25.9196 27.7966,38.5399 4.6462,6.6104 8.7759,13.0463 13.0596,18.3908 3.0127,3.7587 8.0881,9.2975 12.3584,11.3646 3.6365,1.7604 6.9384,0.233 7.7189,-3.7098 0.8206,-4.1447 -0.4745,-10.7307 -2.3569,-16.9177 -1.4005,-4.6043 -3.5539,-10.1338 -6.4917,-16.0631 -7.2253,-14.5826 -18.5619,-31.592 -29.1685,-43.2486 12.8191,23.204 24.0525,45.1024 30.7995,62.9485 -12.028,-25.5193 -28.6197,-47.4485 -49.176,-55.5067 20.2141,17.0617 32.7189,36.9702 41.1387,53.3634 -8.8175,-15.0473 -22.9275,-31.9707 -45.6786,-49.1613 z" style="fill:#ffffff;fill-rule:evenodd" id="path859"/>
    <path d="m 450.2636,488.4742 c 5.3242,12.812 11.5547,25.8006 15.8406,37.7812 5.5112,15.4058 8.6134,30.3341 5.2925,38.745 -1.5773,3.9951 -4.2206,6.972 -9.5635,8.1725 l 7.2831,8.2557 c 6.4638,-6.3711 9.0521,-13.9262 9.1876,-22.966 0.1343,-8.959 -2.5185,-19.5427 -7.0094,-30.8994 -4.9329,-12.473 -12.434,-25.8792 -21.0309,-39.089 z" style="fill:#ffffff;fill-rule:evenodd" id="path861"/>
  </g>
  <g transform="matrix(1.2347221,0,0,1.2357657,-17.499963,-170.18929)" id="g1142">
    <path style="fill:#ffffff;fill-rule:evenodd" d="M 119.2289,616.333 C 66.1886,567.9607 32.9015,498.331 32.9015,420.9449 c 0,-55.9575 17.4179,-107.8519 47.1092,-150.5955 l 2.282,1.7224 c -29.3304,42.2636 -46.5344,93.5616 -46.5344,148.8731 0,76.5335 32.9138,145.3979 85.3619,193.2467 z" id="path1129"/>
    <path style="fill:#ffffff;fill-rule:evenodd" d="m 474.2291,617.9623 c -3.9707,3.5555 -8.0468,6.9949 -12.228,10.3088 l -1.6547,-2.334 c 4.1941,-3.328 8.2839,-6.7819 12.2635,-10.3558 z" id="path1127"/>
    <path style="fill:#ffffff;fill-rule:evenodd" d="m 523.5707,283.0513 c 24.609,40.1556 38.8034,87.3705 38.8034,137.8936 0,70.4493 -27.5899,134.4685 -72.5523,181.8764 l -1.5897,-2.4839 c 44.1889,-46.8441 71.2852,-109.9589 71.2852,-179.3925 0,-49.8115 -13.9447,-96.375 -38.139,-136.011 z" id="path864"/>
  </g>
  <g transform="matrix(1.2347221,0,0,1.2357657,-17.499963,-170.18929)" id="g1123">
    <g id="g1071" style="fill:#ffffff">
      <path id="path866" style="fill:#ffffff;fill-rule:evenodd" d="m 452.3481,206.1667 8.3362,7.052 -20.8065,24.5953 8.0221,6.7863 20.8065,-24.5953 8.3361,7.052 -27.7559,32.8103 -24.6944,-20.8903 z"/>
      <path id="path868" style="fill:#ffffff;fill-rule:evenodd" d="m 491.8803,241.1943 6.819,8.5278 -12.6409,10.108 6.6613,8.3304 12.6409,-10.108 6.819,8.5278 -12.863,10.2856 -7.3092,-1.3249 -0.7815,7.7945 -12.6107,10.0838 -6.819,-8.5277 12.5196,-10.0111 -6.6612,-8.3305 -12.5197,10.0111 -6.819,-8.5277 12.6106,-10.0839 7.7755,0.952 0.3152,-7.4215 z"/>
      <path id="path870" style="fill:#ffffff;fill-rule:evenodd" d="m 406.3992,179.6127 28.198,15.2668 -5.1241,9.4618 -18.595,-10.0702 -2.5852,4.7735 13.8904,7.5225 -5.1241,9.4617 -13.8903,-7.5224 -2.5096,4.634 18.7449,10.1515 -5.1241,9.4617 -28.3463,-15.351 z"/>
      <path id="path872" style="fill:#ffffff;fill-rule:evenodd" d="m 274.5197,157.5591 32.5385,-0.4621 0.1516,10.7591 -21.6207,0.3048 0.0743,5.2694 16.4297,-0.2316 0.1516,10.7591 -16.4297,0.2316 0.0743,5.2694 21.7911,-0.3071 0.1539,10.9178 -32.709,0.461 z m 0.2346,-5.8795 31.9037,-0.4499 0.0618,3.5483 -31.9155,0.4498 z"/>
      <path id="path874" style="fill:#ffffff;fill-rule:evenodd" d="m 322.7745,185.3938 24.4631,-12.653 -21.1591,-3.9089 1.9835,-10.7372 25.8289,4.7909 4.7869,5.9733 -2.0114,11.1117 -23.8938,12.1174 20.9528,3.8901 -2.0124,10.8933 -31.7525,-5.8658 z"/>
      <path id="path876" style="fill:#ffffff;fill-rule:evenodd" d="m 377.8682,169.4469 -14.4635,40.4687 10.2819,3.6747 14.4636,-40.4686 z"/>
      <path id="path878" style="fill:#ffffff;fill-rule:evenodd" d="m 222.5298,167.4838 31.5652,-7.0609 4.6581,20.8235 -2.3345,3.3781 3.635,2.4357 3.4229,15.3018 -10.6555,2.3836 -3.534,-15.7984 -10.2541,2.2938 3.534,15.7984 -10.6556,2.3836 z m 13.0037,8.1137 1.1504,5.1428 10.2541,-2.2938 -1.1504,-5.1428 z"/>
      <path id="path880" style="fill:#ffffff;fill-rule:evenodd" d="m 173.1679,187.6787 24.3924,-11.0882 7.1468,2.3082 13.3283,29.3203 -2.805,7.5466 -24.2781,11.0362 z m 14.3915,5.2739 8.8802,19.5351 9.5655,-4.3483 -8.8802,-19.5351 z"/>
      <path id="path882" style="fill:#ffffff;fill-rule:evenodd" d="m 154.041,252.0659 8.9283,-6.2856 -18.5453,-26.3422 8.5919,-6.0488 18.5452,26.3422 8.9283,-6.2856 -24.7395,-35.1406 -26.4483,18.6199 z"/>
      <path id="path884" style="fill:#ffffff;fill-rule:evenodd" d="m 123.1964,284.2649 7.4695,-7.9643 -11.7054,-10.9781 7.1881,-7.6642 11.7053,10.9782 7.4695,-7.9643 -31.3465,-29.399 -22.1269,23.5927 z m -12.0482,-26.2694 -3.9803,-3.733 7.188,-7.6642 3.9803,3.733 z"/>
    </g>
    <g id="g1087" style="fill:#ffffff">
      <path id="path887" style="fill:#ffffff;fill-rule:evenodd" d="m 428.3178,649.6988 9.0785,-6.0666 -17.8991,-26.7854 8.7364,-5.838 17.8991,26.7854 9.0785,-6.0666 -23.8775,-35.7319 -26.8934,17.9712 z"/>
      <path id="path889" style="fill:#ffffff;fill-rule:evenodd" d="m 369.7839,629.046 29.6338,-12.9628 17.2237,39.3735 -29.6338,12.9621 z m 14.3935,5.6594 8.522,19.4794 9.626,-4.2104 -8.5224,-19.4796 z"/>
      <path id="path891" style="fill:#ffffff;fill-rule:evenodd" d="m 186.1687,611.0872 29.2181,13.8745 -18.4343,38.8215 -29.2176,-13.8749 z m 5.1648,14.5783 -9.1195,19.2069 9.4907,4.5071 9.1194,-19.2073 z"/>
      <path id="path893" style="fill:#ffffff;fill-rule:evenodd" d="m 332.6645,638.7192 31.5497,-7.974 2.6355,10.4324 -20.9642,5.2962 1.2908,5.1094 15.9308,-4.0246 2.6355,10.4325 -15.9308,4.0245 1.1741,4.6478 21.1296,-5.3379 2.6355,10.4324 -31.7158,8.0123 z m -1.5946,-6.3122 30.9349,-7.8153 0.8806,3.4378 -30.9464,7.818 z"/>
      <path id="path895" style="fill:#ffffff;fill-rule:evenodd" d="m 294.8341,641.3061 10.8887,-0.8117 1.1914,15.9823 10.4784,-0.7811 -1.1913,-15.9822 10.8886,-0.8117 3.171,42.5402 -10.8887,0.8116 -1.1798,-15.8274 -10.4784,0.781 1.1798,15.8275 -10.8887,0.8117 z"/>
      <path id="path897" style="fill:#ffffff;fill-rule:evenodd" d="m 263.1932,680.8051 10.8597,1.1353 3.3003,-31.5672 10.892,1.1387 1.1188,-10.7019 -32.3846,-3.3857 -1.1189,10.7018 10.633,1.1117 z"/>
      <path id="path899" style="fill:#ffffff;fill-rule:evenodd" d="m 220.5035,627.2915 10.5181,2.9313 -8.4995,30.4974 10.1218,2.8209 8.4995,-30.4974 10.518,2.9313 -11.3383,40.6837 -31.1579,-8.6835 z"/>
      <path id="path901" style="fill:#ffffff;fill-rule:evenodd" d="m 154.9817,589.1678 26.4318,18.6428 -9.4377,13.3808 -7.0449,0.9012 0.8085,7.9409 -9.0959,12.8966 -26.4312,-18.6431 z m -0.3127,19.388 8.5855,6.0555 2.9222,-4.1435 -8.5856,-6.0556 z m 2.4694,14.728 -8.5858,-6.0557 -3.2156,4.5596 8.5857,6.056 z"/>
    </g>
    <g id="g1059" style="fill:#ffffff">
      <path id="path904" style="fill:#ffffff;fill-rule:evenodd" d="m 196.9432,276.5455 -2.9177,2.1006 -13.5773,-18.8586 7.2337,-5.2079 1.773,2.4628 -4.316,3.1073 4.0881,5.6782 3.8657,-2.7831 1.6434,2.2826 -3.8657,2.7832 z"/>
      <path id="path906" style="fill:#ffffff;fill-rule:evenodd" d="m 360.4279,231.8457 4.5004,1.5237 c 1.6708,0.5656 2.5743,2.3957 2.009,4.0656 l -6.445,19.0362 -3.3226,-1.1249 2.7862,-8.2295 -3.856,-1.3055 -2.7862,8.2295 -3.3963,-1.1499 6.4449,-19.0362 c 0.5657,-1.6708 2.3949,-2.5747 4.0656,-2.009 z m 0.4355,12.5907 2.599,-7.6766 c 0.2296,-0.6783 -0.2071,-0.8881 -0.472,-0.9778 l -2.2038,-0.7461 c -0.7342,-0.2486 -1.0677,0.0859 -1.221,0.5387 l -2.5582,7.5563 z"/>
      <path id="path908" style="fill:#ffffff;fill-rule:evenodd" d="m 250.1739,227.2281 5.251,-1.1985 c 1.7198,-0.3925 3.448,0.6958 3.8398,2.4127 l 3.7586,16.4675 c 0.3919,1.717 -0.6958,3.4479 -2.4127,3.8398 l -5.2511,1.1985 c -1.717,0.3919 -3.4473,-0.693 -3.8398,-2.4127 l -3.7586,-16.4675 c -0.3925,-1.7197 0.693,-3.4473 2.4128,-3.8398 z m 4.6594,18.6628 -3.3732,-14.7791 c -0.1542,-0.6755 0.007,-1.1411 0.8458,-1.3326 l 2.4687,-0.5634 c 0.64,-0.1461 1.0243,0.2038 1.1765,0.871 l 3.3732,14.7791 c 0.1572,0.6885 -0.0186,1.1438 -0.8208,1.3269 l -2.2873,0.522 c -0.8535,0.1948 -1.2268,-0.1397 -1.3829,-0.8239 z"/>
      <path id="path910" style="fill:#ffffff;fill-rule:evenodd" d="m 213.471,240.2609 4.925,-2.1805 c 1.6129,-0.7141 3.5173,0.0236 4.2303,1.634 l 6.8382,15.4449 c 0.7129,1.6103 -0.0237,3.5173 -1.634,4.2303 l -4.925,2.1805 c -1.6103,0.713 -3.5162,-0.021 -4.2303,-1.6339 l -6.8381,-15.4449 c -0.7142,-1.613 0.021,-3.5162 1.6339,-4.2304 z m 8.1422,17.4275 -6.137,-13.8613 c -0.2806,-0.6336 -0.2115,-1.1214 0.5754,-1.4698 l 2.3153,-1.0251 c 0.6003,-0.2658 1.0444,0.004 1.3214,0.63 l 6.137,13.8613 c 0.286,0.6458 0.2005,1.1262 -0.5518,1.4593 l -2.1453,0.9498 c -0.8005,0.3544 -1.2309,0.0975 -1.515,-0.5442 z"/>
      <path id="path912" style="fill:#ffffff;fill-rule:evenodd" d="m 396.0078,247.2215 -3.1292,-1.7702 -11.5197,20.3639 7.3437,4.1542 1.4942,-2.6413 -4.2145,-2.3841 z"/>
      <path id="path914" style="fill:#ffffff;fill-rule:evenodd" d="m 424.0365,266.6811 -2.7786,-2.2815 -14.847,18.0819 6.5207,5.3542 1.9257,-2.3453 -3.7422,-3.0727 z"/>
      <path id="path916" style="fill:#ffffff;fill-rule:evenodd" d="m 287.6804,224.9326 0.8125,20.5088 3.5924,-0.1423 -0.8125,-20.5088 3.3284,-0.1319 -0.1161,-2.9323 -10.2509,0.4061 0.1161,2.9323 z"/>
      <path id="path918" style="fill:#ffffff;fill-rule:evenodd" d="m 320.4285,222.9825 -3.1439,22.8638 6.985,0.9605 c 2.479,0.3408 4.1879,-1.0628 4.4671,-3.0936 l 0.6725,-4.8903 c 0.1597,-1.162 -0.0901,-2.8564 -2.1214,-3.6385 1.8492,-0.1449 2.5161,-1.5624 2.6789,-2.7467 l 0.4916,-3.5749 c 0.301,-2.1887 -0.636,-4.5976 -3.5697,-4.9984 z m 2.2219,10.2336 1.9198,0.264 c 1.1368,0.1563 1.6509,-0.1944 1.787,-1.184 l 0.6019,-4.3777 c 0.1107,-0.8045 -0.2181,-1.4152 -1.2338,-1.5549 l -2.0931,-0.2878 z m 1.8377,2.914 -2.1969,-0.3021 -1.0895,7.9237 2.1802,0.2998 c 1.1902,0.1637 1.7074,-0.2048 1.8507,-1.2466 l 0.6665,-4.847 c 0.161,-1.1714 -0.3921,-1.6877 -1.411,-1.8278 z"/>
    </g>
    <g id="g1077" style="fill:#ffffff">
      <path id="path921" style="fill:#ffffff;fill-rule:evenodd" d="m 283.0866,595.9737 -3.7539,-0.2062 -1.3424,24.4289 8.8096,0.4842 0.1741,-3.1686 -5.0557,-0.2778 z"/>
      <path id="path923" style="fill:#ffffff;fill-rule:evenodd" d="m 345.5791,589.6811 7.3068,23.9462 7.3157,-2.2323 c 2.5963,-0.7922 3.6405,-2.952 2.9915,-5.079 l -1.5628,-5.1218 c -0.3714,-1.2169 -1.3884,-2.7719 -3.7445,-2.6178 1.7551,-0.9841 1.7669,-2.6834 1.3884,-3.9238 l -1.1425,-3.7441 c -0.6994,-2.2923 -2.7182,-4.2383 -5.7896,-3.2982 z m 6.7979,8.915 2.0107,-0.6135 c 1.1907,-0.3633 1.5374,-0.9425 1.2211,-1.979 l -1.3063,-4.2813 c -0.2571,-0.8425 -0.8594,-1.2942 -1.9225,-0.9698 l -2.1922,0.669 z m 3.182,2.1854 -2.3009,0.7021 2.4396,7.9951 2.2834,-0.6967 c 1.2466,-0.3804 1.5883,-0.9786 1.2553,-2.0698 l -1.4563,-4.7727 c -0.3744,-1.2268 -1.154,-1.4836 -2.2211,-1.158 z"/>
      <path id="path925" style="fill:#ffffff;fill-rule:evenodd" d="m 316.7659,620.0578 5.0128,-0.4659 c 1.861,-0.1729 3.2416,-1.8375 3.0687,-3.6976 l -1.9707,-21.2039 -3.701,0.344 1.895,20.3894 c 0.0688,0.7398 -0.0938,0.99 -0.7324,1.0494 l -2.7506,0.2556 c -0.3794,0.0353 -0.7411,-0.1422 -0.804,-0.8184 l -1.9031,-20.4768 -3.7831,0.3516 1.9708,21.2039 c 0.1729,1.861 1.8365,3.2417 3.6976,3.0687 z"/>
      <path id="path927" style="fill:#ffffff;fill-rule:evenodd" d="m 249.1621,589.5544 4.6017,1.1825 c 1.7085,0.4391 2.7177,2.3083 2.246,4.1437 l -0.8944,3.4805 -3.4833,-0.8951 0.6623,-2.577 c 0.1831,-0.7126 0.01,-1.233 -0.6254,-1.3963 l -1.8376,-0.4722 c -0.8329,-0.214 -1.1981,0.1576 -1.3837,0.88 l -3.9852,15.5079 c -0.188,0.7317 -0.0162,1.2314 0.8305,1.449 l 1.6574,0.4259 c 0.7956,0.2044 1.1698,-0.151 1.3588,-0.8864 l 0.4396,-1.7106 3.4833,0.8951 -0.6717,2.6139 c -0.4716,1.8351 -2.262,2.9852 -3.9655,2.5474 l -4.6018,-1.1825 c -1.7038,-0.4379 -2.7189,-2.3034 -2.246,-4.1437 l 4.4495,-17.3147 c 0.4729,-1.8403 2.257,-2.9864 3.9655,-2.5474 z"/>
    </g>
  </g>
</svg>