<?xml version="1.0" encoding="UTF-8" standalone="no"?>
<!-- Generator: Adobe Illustrator 16.0.0, SVG Export Plug-In . SVG Version: 6.00 Build 0)  -->

<svg
   xmlns:dc="http://purl.org/dc/elements/1.1/"
   xmlns:cc="http://creativecommons.org/ns#"
   xmlns:rdf="http://www.w3.org/1999/02/22-rdf-syntax-ns#"
   xmlns:svg="http://www.w3.org/2000/svg"
   xmlns="http://www.w3.org/2000/svg"
   xmlns:sodipodi="http://sodipodi.sourceforge.net/DTD/sodipodi-0.dtd"
   xmlns:inkscape="http://www.inkscape.org/namespaces/inkscape"
   version="1.1"
   id="svg18516"
   sodipodi:docname="AS_BeÌziers.svg"
   inkscape:version="0.91 r13725"
   x="0px"
   y="0px"
   width="400"
   height="494"
   viewBox="0 0 400 494.00001"
   enable-background="new 0 0 510 509.964"
   xml:space="preserve"><metadata
     id="metadata133"><rdf:RDF><cc:Work
         rdf:about=""><dc:format>image/svg+xml</dc:format><dc:type
           rdf:resource="http://purl.org/dc/dcmitype/StillImage" /><dc:title></dc:title></cc:Work></rdf:RDF></metadata><defs
     id="defs131" /><sodipodi:namedview
     pagecolor="#ffffff"
     bordercolor="#666666"
     borderopacity="1"
     objecttolerance="10"
     gridtolerance="10"
     guidetolerance="10"
     inkscape:pageopacity="0"
     inkscape:pageshadow="2"
     inkscape:window-width="1280"
     inkscape:window-height="691"
     id="namedview129"
     showgrid="false"
     inkscape:zoom="0.9852105"
     inkscape:cx="255"
     inkscape:cy="254.98199"
     inkscape:window-x="0"
     inkscape:window-y="1"
     inkscape:window-maximized="1"
     inkscape:current-layer="svg18516" /><g
     id="Layer_2"
     transform="matrix(0.99762125,0,0,0.99762125,-54.715152,-6.8411677)"><g
       id="XMLID_1_"><path
         d="m 377.249,15.27 c -30.917,3.862 -54.921,30.322 -54.921,62.278 l 0,5.419 -4.175,1.032 -0.26,-1.032 -2.51,-5.419 c 0,-38.493 31.23,-69.691 69.715,-69.691 38.501,0 69.699,31.198 69.699,69.691 0,28.782 -17.452,53.505 -42.364,64.132 l 0,169.477 C 398.375,395.65 337.152,456.716 242.221,501.003 l 0.234,-15.403 c 0.211,0.095 0.424,0.188 0.634,0.281 46.492,-22.033 81.42,-41.316 108.169,-70.34 28.445,-30.869 47.586,-65.586 54.232,-104.993 l 0,-173.466 4.222,-1.806 c 23.177,-9.898 38.143,-32.558 38.143,-57.751 0,-34.623 -28.15,-62.771 -62.772,-62.771 -2.626,0 -5.254,0.156 -7.834,0.516 l 0,0 z"
         id="path5"
         inkscape:connector-curvature="0"
         style="fill:#1f1d25" /><path
         d="m 317.918,82.967 0.258,1.032 -1.103,0.281 c -1.643,0.399 -164.668,40.815 -218.952,66.759 -24.302,11.611 -39.905,25.639 -42.273,31.105 0,-9.36 4.503,-20.737 39.294,-37.368 55.542,-26.577 220.266,-67.251 220.266,-67.251 l 2.51,5.442 z"
         id="path7"
         inkscape:connector-curvature="0"
         style="fill:#7c7d78" /><path
         d="m 88.387,320.586 c 0.141,0.516 0.281,1.017 0.446,1.533 l -1.056,0.297 c 19.258,69.714 55.026,116.863 154.704,163.198 l -0.234,15.419 C 145.149,456.575 78.769,398.871 57.771,321.572 57.396,309.64 55.848,198.751 55.848,182.19 58.217,176.725 73.819,162.698 98.121,151.063 152.405,125.073 315.43,84.68 317.073,84.257 l 1.103,-0.281 4.175,-1.032 0,7.271 -3.095,0.774 c -1.62,0.399 -143.112,36.781 -196.575,62.443 -17.734,8.515 -28.922,17.405 -32.16,21.182 -2.744,3.19 -2.744,4.762 -2.744,6.287 0,15.269 0.164,121.515 0.61,139.685 z"
         id="path9"
         inkscape:connector-curvature="0"
         style="fill:#1f1d25" /><linearGradient
         id="SVGID_1_"
         gradientUnits="userSpaceOnUse"
         x1="7047.6113"
         y1="-16555.863"
         x2="13777.717"
         y2="-9221.1006"
         gradientTransform="matrix(0.0293,0,0,-0.0293,-54.3167,-132.5954)"><stop
           offset="0"
           style="stop-color:#E44628"
           id="stop12" /><stop
           offset="1"
           style="stop-color:#B1181E"
           id="stop14" /></linearGradient><path
         d="m 438.848,62.254 -3.285,7.811 -14.245,0 -10.198,-16.561 1.923,-17.436 9.525,0 c -1.298,-1.173 -2.611,-2.268 -3.988,-3.3 0,0 0,0 -0.032,0 -1.375,-0.985 -2.735,-1.908 -4.08,-2.799 -0.095,-0.062 -0.188,-0.109 -0.298,-0.188 -11.619,-7.568 -22.315,-11.775 -36.905,-14.543 l 0,0 c -30.916,3.878 -54.914,30.337 -54.914,62.286 l 0,5.419 0,7.271 -3.095,0.774 c -1.62,0.399 -143.112,36.781 -196.575,62.443 -17.734,8.515 -28.922,17.405 -32.16,21.182 -2.744,3.19 -2.744,4.762 -2.744,6.287 0,15.271 0.164,121.484 0.61,139.671 36.147,62.49 87.804,107.246 154.632,130.172 48.979,-19.814 90.521,-47.274 121.705,-85.541 13.323,-16.341 24.77,-34.685 34.06,-55.233 l 0,-177.46 8.396,-3.612 c 20.518,-8.796 33.794,-28.97 33.794,-51.371 -0.016,-5.279 -0.766,-10.417 -2.126,-15.272 z M 385.333,21.697 c 2.658,0 5.255,0.188 7.819,0.562 l -0.142,1.033 -11.571,6.162 -12.447,-5.302 c 5.176,-1.595 10.665,-2.455 16.341,-2.455 z m 9.603,30.072 -8.476,21.744 -20.971,0 -5.974,-23.104 16.56,-11.729 18.861,13.089 z m -52.779,-9.367 5.02,8.428 -7.881,18.086 -9.273,3.072 c 1.078,-11.149 5.472,-21.345 12.134,-29.586 z m 15.622,80.629 -19.188,-15.412 -2.205,-20.032 0.954,0 17.342,1.736 14.31,22.143 -11.213,11.565 z m 59.863,-12.526 -18.093,12.526 -13.276,-11.752 9.617,-21.181 22.737,0 -0.985,20.407 z"
         id="path16"
         style="fill:url(#SVGID_1_)"
         inkscape:connector-curvature="0" /><path
         d="m 365.942,384.89 c 16.748,-22.69 27.978,-46.664 32.809,-74.906 l 0,-177.476 8.398,-3.612 c 20.532,-8.796 33.809,-28.97 33.809,-51.371 0,-5.301 -0.75,-10.415 -2.11,-15.278 -2.909,-10.196 -8.634,-19.25 -16.279,-26.178 -1.298,-1.173 -2.611,-2.268 -3.988,-3.3 0,0 0,0 -0.032,0 -1.312,-0.985 -2.673,-1.924 -4.08,-2.799 -0.095,-0.062 -0.188,-0.109 -0.298,-0.188 -11.619,-7.568 -22.315,-11.775 -36.905,-14.543 2.581,-0.328 5.207,-0.484 7.865,-0.484 34.622,0 62.772,28.148 62.772,62.771 0,25.193 -14.966,47.853 -38.142,57.751 l -4.223,1.806 0,173.497 c -5.958,24.674 -21.002,49.493 -39.596,74.31 z"
         id="path18"
         inkscape:connector-curvature="0"
         style="fill:#c49d58" /><path
         d="m 418.533,32.769 c -1.393,-0.985 -2.753,-1.908 -4.081,-2.799 1.407,0.875 2.768,1.781 4.081,2.799 z"
         id="path20"
         inkscape:connector-curvature="0"
         style="fill:#1f2120" /><path
         d="m 243.019,450.743 c 48.979,-19.814 90.521,-47.274 121.705,-85.541 -27.853,43.755 -67.589,75.47 -121.705,97.098 -0.047,-0.017 -0.116,-0.047 -0.163,-0.063 l 0.163,-11.494 z"
         id="path22"
         inkscape:connector-curvature="0"
         style="fill:#c49d58" /><path
         d="m 342.157,42.402 5.02,8.428 -7.881,18.086 -9.273,3.072 c 1.078,-11.149 5.472,-21.345 12.134,-29.586 z"
         id="path24"
         inkscape:connector-curvature="0"
         style="fill:#1f2120" /><polygon
         points="338.592,107.62 336.402,87.587 337.371,87.587 354.683,89.324 368.992,111.467 357.779,123.031 "
         id="polygon26"
         style="fill:#1f2120" /><polygon
         points="395.89,90.098 418.627,90.098 417.642,110.505 399.549,123.031 386.272,111.279 "
         id="polygon28"
         style="fill:#1f2120" /><path
         d="m 438.848,62.254 -3.285,7.811 -14.245,0 -10.198,-16.561 1.923,-17.436 9.525,0 c 7.646,6.943 13.37,15.982 16.28,26.186 z"
         id="path30"
         inkscape:connector-curvature="0"
         style="fill:#1f2120" /><polygon
         points="376.045,38.68 394.936,51.769 386.46,73.537 365.474,73.537 359.516,50.424 "
         id="polygon32"
         style="fill:#1f2120" /><path
         d="m 393.152,22.259 -0.142,1.033 -11.571,6.162 -12.447,-5.302 c 5.176,-1.595 10.665,-2.455 16.341,-2.455 2.658,0 5.255,0.187 7.819,0.562 z"
         id="path34"
         inkscape:connector-curvature="0"
         style="fill:#1f2120" /><path
         d="m 365.942,384.89 c 18.594,-24.817 33.606,-49.636 39.564,-74.312 -6.662,39.376 -25.772,74.124 -54.233,104.994 -26.764,29.008 -61.668,48.305 -108.16,70.324 -0.211,-0.095 -0.422,-0.188 -0.633,-0.282 l 0.211,-13.621 c 0.094,0.047 0.211,0.094 0.327,0.142 44.123,-21.346 78.605,-36.766 104.08,-64.522 5.582,-6.099 10.79,-12.166 15.56,-18.359 0.047,-0.078 0.11,-0.142 0.188,-0.234 0.562,-0.751 1.127,-1.501 1.689,-2.236 0.469,-0.627 0.939,-1.268 1.407,-1.894 z"
         id="path36"
         inkscape:connector-curvature="0"
         style="fill:#797c80" /><path
         d="m 398.783,309.984 c -4.833,28.273 -16.076,52.216 -32.825,74.906 -0.469,0.626 -0.939,1.267 -1.423,1.893 -0.562,0.75 -1.127,1.501 -1.689,2.236 -0.077,0.062 -0.124,0.141 -0.188,0.234 -4.785,6.161 -9.978,12.261 -15.56,18.359 -25.475,27.757 -59.957,43.177 -104.08,64.522 -0.094,-0.048 -0.21,-0.095 -0.327,-0.142 l 0.141,-9.741 c 0.048,0.03 0.117,0.047 0.164,0.077 54.092,-21.611 93.859,-53.356 121.695,-97.096 13.356,-16.371 24.772,-34.715 34.092,-55.248 z"
         id="path38"
         inkscape:connector-curvature="0"
         style="fill:#b88e4b" /><path
         d="m 243.019,450.743 -0.163,11.493 C 164.04,430.632 113.181,381.387 88.411,320.587 c 36.123,62.489 87.779,107.245 154.608,130.156 z"
         id="path40"
         inkscape:connector-curvature="0"
         style="fill:#f4dab4" /><path
         d="m 242.832,462.236 -0.141,9.728 C 148.042,427.302 107.668,387.861 88.832,322.12 c -0.141,-0.517 -0.305,-1.018 -0.446,-1.533 24.771,60.8 75.622,110.044 154.446,141.649 z"
         id="path42"
         inkscape:connector-curvature="0"
         style="fill:#ca9749" /><path
         d="m 242.691,471.963 -0.211,13.636 C 142.802,439.264 107.035,392.115 87.776,322.401 l 1.056,-0.312 c 18.836,65.772 59.21,105.212 153.859,149.874 z"
         id="path44"
         inkscape:connector-curvature="0"
         style="fill:#414137" /></g></g><g
     id="Layer_3"
     transform="matrix(0.99762125,0,0,0.99762125,-54.715152,-6.8411677)"><path
       d="m 325.12,335.02 c -24.256,0 -43.983,-19.734 -43.983,-43.989 l 0,-157.022 38.306,0 0,56.61 8.093,0 c 23.362,0 42.363,19 42.363,42.364 l 0,58.048 c 0,24.255 -19.72,43.989 -43.974,43.989 l -0.805,0 z m -7.6,-45.256 c 0,2.846 1.103,5.489 3.097,7.49 1.994,1.986 4.645,3.097 7.481,3.097 5.85,0 10.604,-4.77 10.604,-10.603 l 0,-51.417 c 0,-7.319 -5.958,-13.277 -13.276,-13.277 l -7.883,0 0,64.71 -0.023,0 z"
       id="path47"
       inkscape:connector-curvature="0"
       style="fill:#e7c38d" /><path
       d="m 234.598,335.02 c -3.283,0 -6.568,-0.406 -9.711,-1.173 -21.792,-5.426 -30.071,-27.194 -28.571,-45.131 l 0.188,-2.111 29.978,0 1.877,0.047 c 0,0 -0.023,3.613 0.023,3.112 -0.118,1.11 1.22,5.817 1.712,6.99 1.783,2.611 5.254,4.254 9.125,4.254 l 0,0 c 2.346,0 4.528,-0.642 6.171,-1.783 3.049,-2.143 4.995,-7.271 4.433,-11.713 -0.281,-2.158 -1.244,-4.942 -4.339,-6.099 -1.972,-0.751 -4.95,-1.329 -8.398,-2.018 -12.714,-2.502 -31.901,-6.302 -38.047,-24.864 -3.988,-12.057 -3.683,-25.912 0.845,-38.017 4.879,-13.042 14.449,-21.94 27.655,-25.755 3.964,-1.158 8,-1.72 12.01,-1.72 13.394,0 30.165,7.037 36.405,20.485 6.756,14.56 3.895,27.367 3.753,27.914 l -0.423,1.783 -32.065,0 -0.069,-2.252 c -0.024,-0.562 -0.562,-13.683 -10.393,-13.683 -0.305,0 -0.585,0 -0.914,0.031 -6.779,0.485 -8.492,6.443 -8.867,8.257 -0.892,4.41 0.446,10.04 4.739,12.213 3.33,1.688 6.826,2.048 10.508,2.423 1.268,0.141 2.581,0.25 3.918,0.438 6.239,0.891 11.869,2.752 16.726,5.536 19.656,11.291 21.955,36.014 14.074,54.608 -7.015,16.64 -24.421,28.228 -42.343,28.228 z"
       id="path49"
       inkscape:connector-curvature="0"
       style="fill:#e7c38d" /><path
       d="m 148.339,333.675 c -0.485,0 -0.985,0 -1.47,-0.015 -16.92,-0.423 -26.393,-9.524 -31.366,-17.109 -9.594,-14.59 -9.782,-34.263 -5.02,-46.132 4.058,-10.117 13.042,-22.471 32.773,-23.973 0.845,-0.078 1.923,-0.094 3.238,-0.094 4.097,0 9.586,0.297 12.729,0.516 l 0,-9.664 c 0,-8.289 -6.724,-15.013 -15.012,-15.013 l -23.29,0 0,-32.934 35.674,0 c 19.032,0 34.514,15.481 34.514,34.529 l 0,78.409 -0.079,0.281 c -0.062,0.315 -8.413,31.199 -42.691,31.199 z m 9.618,-57.234 c -4.645,0 -12.964,0.734 -16.764,5.535 -2.143,2.706 -2.611,6.553 -1.407,11.447 1.095,4.535 3.675,6.615 8.116,6.615 4.941,0 10.524,-2.722 12.495,-3.895 l 0,-19.625 c -0.673,-0.046 -1.502,-0.077 -2.44,-0.077 z"
       id="path51"
       inkscape:connector-curvature="0"
       style="fill:#e7c38d" /><g
       id="XMLID_2_"><path
         d="m 367.585,232.951 0,58.064 c 0,23.035 -18.657,41.676 -41.692,41.676 l -0.772,0 c -23.035,0 -41.685,-18.641 -41.685,-41.676 l 0,-154.707 33.685,0 0,56.609 10.4,0 c 22.142,0 40.064,17.937 40.064,40.034 z m -26.555,56.813 0,-51.418 c 0,-8.601 -6.975,-15.591 -15.605,-15.591 l -10.204,0 0,67.009 c 0,3.565 1.454,6.802 3.775,9.132 2.323,2.315 5.561,3.77 9.134,3.77 7.099,0 12.9,-5.771 12.9,-12.902 z"
         id="path54"
         inkscape:connector-curvature="0"
         style="fill:#0367ab" /><path
         d="m 273.865,210.511 c 6.498,13.996 3.612,26.412 3.612,26.412 l -28.007,0 c 0,0 -0.492,-16.842 -13.769,-15.888 -13.276,0.97 -14.66,19.938 -4.996,24.848 4.926,2.502 9.852,2.346 15.153,3.097 5.56,0.766 11.002,2.439 15.881,5.255 18.296,10.508 20.783,33.605 13.112,51.698 -7.834,18.5 -29.509,30.589 -49.377,25.632 -19.164,-4.755 -28.383,-24.114 -26.835,-42.692 0,0 27.867,-0.062 27.867,0 0,2.205 -0.141,6.225 1.595,8.992 3.776,5.771 13.136,7.037 18.601,3.205 6.427,-4.504 8.374,-18.578 -0.423,-21.861 -9.664,-3.612 -37.695,-3.19 -45.061,-25.427 -3.87,-11.682 -3.495,-25.005 0.821,-36.5 4.551,-12.167 13.559,-20.705 26.155,-24.348 3.683,-1.048 7.53,-1.611 11.375,-1.611 13.02,0.015 28.573,6.818 34.296,19.188 z"
         id="path56"
         inkscape:connector-curvature="0"
         style="fill:#0367ab" /><path
         d="m 188.811,223.787 0,78.112 c 0,0 -7.788,30.322 -41.879,29.462 -34.08,-0.875 -42.547,-39.485 -34.267,-60.081 8.28,-20.595 25.806,-22.144 30.826,-22.519 4.988,-0.375 18.109,0.594 18.109,0.594 l 0,-12.15 c 0,-9.571 -7.772,-17.343 -17.343,-17.343 l -20.99,0 0,-28.289 33.36,0 c 17.749,0 32.184,14.402 32.184,32.214 z m -26.085,73.483 0,-22.909 c 0,0 -30.901,-3.925 -25.178,19.578 3.926,16.139 24.819,4.207 25.178,3.331 z"
         id="path58"
         inkscape:connector-curvature="0"
         style="fill:#0367ab" /></g></g><g
     id="Layer_4"
     transform="matrix(0.99762125,0,0,0.99762125,-54.715152,-6.8411677)"><g
       id="g61"><path
         d="m 137.689,372.004 0,-17.514 6.192,0 c 1.205,0 2.064,0.047 2.659,0.156 0.625,0.126 1.172,0.376 1.657,0.782 0.5,0.375 0.891,0.892 1.219,1.518 0.329,0.641 0.5,1.344 0.5,2.142 0,0.845 -0.218,1.611 -0.594,2.346 -0.281,0.484 -0.625,0.907 -1.048,1.235 0.657,0.328 1.188,0.798 1.596,1.407 0.515,0.782 0.766,1.689 0.766,2.722 0,0.797 -0.156,1.595 -0.484,2.377 -0.329,0.767 -0.798,1.407 -1.36,1.876 -0.595,0.47 -1.314,0.767 -2.159,0.86 -0.5,0.078 -1.673,0.094 -3.596,0.125 l 0,0 -5.349,0 0,-0.032 z m 6.005,-3.518 c 1.298,0 1.767,-0.047 1.955,-0.094 0.375,-0.062 0.656,-0.25 0.86,-0.531 0.235,-0.282 0.36,-0.704 0.36,-1.22 0,-0.454 -0.094,-0.829 -0.266,-1.11 -0.156,-0.282 -0.422,-0.485 -0.75,-0.626 -0.25,-0.094 -0.86,-0.219 -2.486,-0.219 l -2.033,0 0,3.8 2.36,0 z m -0.797,-7.287 c 1.407,0 1.923,-0.031 2.096,-0.047 0.422,-0.047 0.75,-0.219 0.985,-0.5 0.234,-0.282 0.344,-0.626 0.344,-1.079 0,-0.438 -0.094,-0.798 -0.297,-1.048 -0.188,-0.267 -0.5,-0.407 -0.892,-0.47 -0.187,-0.031 -0.782,-0.047 -2.47,-0.047 l -1.329,0 0,3.19 1.563,0 z"
         id="path63"
         inkscape:connector-curvature="0"
         style="fill:#e7c38d" /><path
         d="m 152.405,372.004 0,-17.514 11.509,0 0,3.534 -7.881,0 0,3.034 7.35,0 0,3.518 -7.35,0 0,3.895 8.163,0 0,3.519 -11.791,0 0,0.014 z m 3.581,-17.78 1.642,-4.129 4.113,0 -3.285,4.129 -2.47,0 z"
         id="path65"
         inkscape:connector-curvature="0"
         style="fill:#e7c38d" /><polygon
         points="177.316,372.004 164.759,372.004 164.759,368.486 172.109,358.024 165.604,358.024 165.604,354.49 177.003,354.49 177.003,357.586 169.31,368.486 177.316,368.486 "
         id="polygon67"
         style="fill:#e7c38d" /><rect
         x="178.396"
         y="354.48999"
         width="3.628"
         height="17.514999"
         id="rect69"
         style="fill:#e7c38d" /><polygon
         points="187.794,368.486 195.964,368.486 195.964,372.004 184.134,372.004 184.134,354.49 195.683,354.49 195.683,358.024 187.794,358.024 187.794,361.074 195.121,361.074 195.121,364.592 187.794,364.592 "
         id="polygon71"
         style="fill:#e7c38d" /><path
         d="m 218.132,372.318 c -1.924,0 -3.448,-0.548 -4.504,-1.58 -1.032,-1.032 -1.666,-2.549 -1.876,-4.504 l -0.023,-0.344 3.542,-0.406 0.047,0.328 c 0.165,1.032 0.469,1.782 0.962,2.252 0.468,0.469 1.079,0.688 1.9,0.688 0.844,0 1.501,-0.219 1.899,-0.595 0.422,-0.39 0.61,-0.844 0.61,-1.376 0,-0.328 -0.07,-0.594 -0.235,-0.828 -0.164,-0.234 -0.469,-0.422 -0.915,-0.61 -0.328,-0.141 -1.103,-0.375 -2.322,-0.719 -1.665,-0.469 -2.791,-1.063 -3.471,-1.767 -0.962,-0.986 -1.432,-2.205 -1.432,-3.629 0,-0.923 0.235,-1.782 0.681,-2.58 0.445,-0.798 1.125,-1.439 1.97,-1.861 0.845,-0.422 1.853,-0.609 3.026,-0.609 1.924,0 3.401,0.5 4.386,1.501 0.986,0.985 1.501,2.33 1.572,3.94 l 0,0.329 -3.612,0.188 -0.047,-0.297 c -0.117,-0.782 -0.352,-1.345 -0.704,-1.674 -0.352,-0.297 -0.892,-0.469 -1.642,-0.469 -0.774,0 -1.36,0.188 -1.783,0.548 -0.234,0.188 -0.352,0.438 -0.352,0.766 0,0.313 0.117,0.563 0.328,0.781 0.234,0.203 0.845,0.579 2.557,1.033 1.478,0.391 2.557,0.812 3.284,1.235 0.727,0.453 1.314,1.062 1.736,1.829 0.422,0.782 0.633,1.735 0.633,2.847 0,1.001 -0.258,1.985 -0.75,2.877 -0.492,0.892 -1.22,1.58 -2.134,2.018 -0.916,0.468 -2.018,0.688 -3.331,0.688 z"
         id="path73"
         inkscape:connector-curvature="0"
         style="fill:#e7c38d" /><polygon
         points="235.443,372.004 231.807,372.004 231.807,354.49 242.504,354.49 242.504,358.024 235.443,358.024 235.443,361.339 241.542,361.339 241.542,364.858 235.443,364.858 "
         id="polygon75"
         style="fill:#e7c38d" /><path
         d="m 251.088,372.318 c -2.274,0 -4.104,-0.83 -5.44,-2.425 -1.338,-1.595 -1.994,-3.769 -1.994,-6.521 0,-1.751 0.234,-3.236 0.681,-4.425 0.352,-0.892 0.82,-1.689 1.407,-2.424 0.609,-0.703 1.266,-1.236 1.992,-1.596 0.963,-0.469 2.065,-0.703 3.31,-0.703 2.25,0 4.08,0.829 5.44,2.439 1.338,1.595 2.017,3.831 2.017,6.646 0,2.783 -0.679,5.02 -1.992,6.583 -1.363,1.596 -3.169,2.426 -5.421,2.426 z m 0,-14.497 c -1.103,0 -1.992,0.423 -2.673,1.313 -0.704,0.892 -1.033,2.268 -1.033,4.129 0,1.798 0.352,3.205 1.08,4.128 0.703,0.892 1.57,1.329 2.626,1.329 1.08,0 1.925,-0.438 2.628,-1.329 0.704,-0.923 1.056,-2.33 1.056,-4.175 0,-1.83 -0.352,-3.223 -1.032,-4.113 -0.68,-0.859 -1.55,-1.282 -2.652,-1.282 z"
         id="path77"
         inkscape:connector-curvature="0"
         style="fill:#e7c38d" /><path
         d="m 266.97,372.318 c -2.276,0 -4.104,-0.83 -5.442,-2.425 -1.338,-1.595 -1.994,-3.769 -1.994,-6.521 0,-1.751 0.235,-3.236 0.681,-4.425 0.352,-0.892 0.82,-1.689 1.407,-2.424 0.609,-0.703 1.267,-1.236 1.994,-1.596 0.962,-0.469 2.064,-0.703 3.308,-0.703 2.252,0 4.081,0.829 5.441,2.439 1.337,1.595 2.018,3.831 2.018,6.646 0,2.783 -0.681,5.02 -1.994,6.583 -1.361,1.596 -3.192,2.426 -5.419,2.426 z m -0.025,-14.497 c -1.103,0 -1.994,0.423 -2.673,1.313 -0.704,0.892 -1.033,2.268 -1.033,4.129 0,1.798 0.352,3.205 1.08,4.128 0.703,0.892 1.571,1.329 2.626,1.329 1.08,0 1.925,-0.438 2.628,-1.329 0.704,-0.923 1.056,-2.33 1.056,-4.175 0,-1.83 -0.352,-3.223 -1.032,-4.113 -0.658,-0.859 -1.525,-1.282 -2.652,-1.282 z"
         id="path79"
         inkscape:connector-curvature="0"
         style="fill:#e7c38d" /><polygon
         points="279.261,358.024 274.945,358.024 274.945,354.49 287.235,354.49 287.235,358.024 282.92,358.024 282.92,372.004 279.261,372.004 "
         id="polygon81"
         style="fill:#e7c38d" /><path
         d="m 288.456,372.004 0,-17.514 6.192,0 c 1.196,0 2.063,0.047 2.65,0.156 0.609,0.126 1.174,0.376 1.665,0.782 0.493,0.375 0.892,0.892 1.221,1.518 0.328,0.641 0.493,1.344 0.493,2.142 0,0.845 -0.213,1.643 -0.587,2.346 -0.282,0.484 -0.634,0.907 -1.056,1.235 0.656,0.328 1.196,0.798 1.596,1.407 0.516,0.782 0.773,1.689 0.773,2.722 0,0.797 -0.164,1.595 -0.493,2.377 -0.328,0.767 -0.798,1.407 -1.36,1.876 -0.587,0.47 -1.313,0.767 -2.158,0.86 -0.492,0.078 -1.689,0.094 -3.589,0.125 l 0,0 -5.348,0 0,-0.032 z m 6.028,-3.518 c 1.29,0 1.759,-0.047 1.947,-0.094 0.374,-0.062 0.656,-0.25 0.867,-0.531 0.235,-0.282 0.352,-0.704 0.352,-1.22 0,-0.454 -0.094,-0.829 -0.258,-1.11 -0.163,-0.282 -0.421,-0.485 -0.75,-0.626 -0.235,-0.094 -0.868,-0.219 -2.487,-0.219 l -2.04,0 0,3.8 2.369,0 z m -0.797,-7.287 c 1.407,0 1.925,-0.031 2.088,-0.047 0.422,-0.047 0.751,-0.219 0.984,-0.5 0.235,-0.282 0.352,-0.626 0.352,-1.079 0,-0.438 -0.092,-0.798 -0.305,-1.048 -0.187,-0.267 -0.491,-0.407 -0.89,-0.47 -0.188,-0.031 -0.775,-0.047 -2.465,-0.047 l -1.336,0 0,3.19 1.572,0 z"
         id="path83"
         inkscape:connector-curvature="0"
         style="fill:#e7c38d" /><path
         d="m 313.25,372.004 -1.268,-3.815 -5.324,0 -1.196,3.815 -3.87,0 5.934,-17.515 3.614,0 6.098,17.515 -3.988,0 z m -2.462,-7.334 -1.526,-4.77 -1.501,4.77 3.027,0 z"
         id="path85"
         inkscape:connector-curvature="0"
         style="fill:#e7c38d" /><polygon
         points="321.646,368.486 328.975,368.486 328.975,372.004 317.987,372.004 317.987,354.63 321.646,354.63 "
         id="polygon87"
         style="fill:#e7c38d" /><polygon
         points="334.104,368.486 341.453,368.486 341.453,372.004 330.476,372.004 330.476,354.63 334.104,354.63 "
         id="polygon89"
         style="fill:#e7c38d" /><g
         id="g91"><path
           d="m 207.576,371.911 -2.392,-3.769 c -0.821,-1.298 -1.384,-2.111 -1.666,-2.44 -0.281,-0.312 -0.562,-0.516 -0.868,-0.641 -0.305,-0.109 -0.82,-0.156 -1.524,-0.156 l -0.422,0 0,7.037 -3.683,0 0,-17.358 6.99,0 c 1.735,0 2.979,0.157 3.776,0.47 0.821,0.328 1.478,0.892 1.97,1.704 0.493,0.829 0.727,1.736 0.727,2.8 0,1.312 -0.375,2.407 -1.103,3.283 -0.633,0.751 -1.548,1.268 -2.721,1.518 0.492,0.359 0.938,0.734 1.29,1.157 0.469,0.516 1.079,1.454 1.853,2.768 l 2.158,3.628 -4.385,0 z m -4.738,-10.228 c 1.876,0 2.557,-0.094 2.814,-0.188 0.328,-0.109 0.587,-0.328 0.774,-0.609 0.188,-0.298 0.281,-0.673 0.281,-1.143 0,-0.516 -0.117,-0.922 -0.375,-1.219 -0.258,-0.313 -0.61,-0.501 -1.08,-0.595 -0.234,-0.016 -1.008,-0.047 -2.298,-0.047 l -2.275,0 0,3.831 2.158,0 0,-0.03 z"
           id="path93"
           inkscape:connector-curvature="0"
           style="fill:#e7c38d" /></g></g><g
       id="g95"><path
         d="m 138.018,354.833 5.849,0 c 1.141,0 2.017,0.047 2.58,0.172 0.563,0.11 1.079,0.345 1.517,0.704 0.454,0.344 0.83,0.813 1.126,1.408 0.313,0.578 0.454,1.235 0.454,1.97 0,0.798 -0.188,1.501 -0.563,2.158 -0.375,0.657 -0.875,1.142 -1.501,1.47 0.892,0.313 1.564,0.798 2.033,1.532 0.469,0.72 0.735,1.564 0.735,2.533 0,0.767 -0.172,1.502 -0.469,2.221 -0.313,0.736 -0.735,1.299 -1.267,1.736 -0.547,0.422 -1.204,0.704 -1.97,0.797 -0.5,0.078 -1.689,0.095 -3.566,0.126 l -4.973,0 0,-16.827 0.015,0 z m 2.955,2.816 0,3.894 1.924,0 c 1.157,0 1.861,-0.016 2.143,-0.047 0.484,-0.062 0.891,-0.25 1.188,-0.609 0.281,-0.329 0.422,-0.767 0.422,-1.313 0,-0.517 -0.109,-0.938 -0.375,-1.268 -0.25,-0.328 -0.61,-0.516 -1.095,-0.578 -0.281,-0.047 -1.125,-0.047 -2.517,-0.047 l -1.689,0 0,-0.032 z m 0,6.693 0,4.503 2.721,0 c 1.063,0 1.736,-0.03 2.017,-0.094 0.454,-0.094 0.798,-0.312 1.08,-0.688 0.281,-0.345 0.422,-0.813 0.422,-1.423 0,-0.517 -0.109,-0.939 -0.329,-1.299 -0.203,-0.344 -0.516,-0.609 -0.907,-0.767 -0.406,-0.171 -1.267,-0.233 -2.611,-0.233 l -2.393,0 z"
         id="path97"
         inkscape:connector-curvature="0"
         style="fill:#0367ab" /><path
         d="m 152.75,371.676 0,-16.811 10.836,0 0,2.83 -7.881,0 0,3.737 7.349,0 0,2.831 -7.349,0 0,4.581 8.163,0 0,2.831 -11.118,0 z m 3.752,-17.797 1.392,-3.425 3.144,0 -2.752,3.425 -1.784,0 z"
         id="path99"
         inkscape:connector-curvature="0"
         style="fill:#0367ab" /><path
         d="m 165.087,371.676 0,-3.064 7.679,-10.916 -6.803,0 0,-2.83 10.696,0 0,2.643 -8.006,11.354 8.304,0 0,2.846 -11.87,0 0,-0.033 z"
         id="path101"
         inkscape:connector-curvature="0"
         style="fill:#0367ab" /><path
         d="m 178.74,371.676 0,-16.811 2.939,0 0,16.811 -2.939,0 z"
         id="path103"
         inkscape:connector-curvature="0"
         style="fill:#0367ab" /><path
         d="m 184.494,371.676 0,-16.811 10.837,0 0,2.83 -7.881,0 0,3.737 7.342,0 0,2.831 -7.342,0 0,4.581 8.163,0 0,2.831 -11.119,0 z"
         id="path105"
         inkscape:connector-curvature="0"
         style="fill:#0367ab" /><path
         d="m 212.103,366.187 2.862,-0.328 c 0.165,1.11 0.516,1.923 1.055,2.439 0.54,0.517 1.244,0.781 2.135,0.781 0.938,0 1.665,-0.234 2.158,-0.703 0.493,-0.47 0.728,-1.017 0.728,-1.627 0,-0.39 -0.094,-0.719 -0.305,-1 -0.211,-0.281 -0.563,-0.516 -1.055,-0.735 -0.353,-0.141 -1.126,-0.375 -2.37,-0.72 -1.572,-0.453 -2.698,-1.016 -3.331,-1.673 -0.892,-0.907 -1.337,-2.064 -1.337,-3.378 0,-0.86 0.211,-1.657 0.633,-2.393 0.422,-0.75 1.032,-1.313 1.83,-1.704 0.797,-0.406 1.759,-0.595 2.885,-0.595 1.83,0 3.213,0.47 4.128,1.393 0.915,0.906 1.407,2.157 1.455,3.706 l -2.956,0.14 c -0.118,-0.875 -0.399,-1.485 -0.821,-1.876 -0.422,-0.376 -1.032,-0.562 -1.876,-0.562 -0.868,0 -1.525,0.203 -2.017,0.609 -0.305,0.25 -0.469,0.61 -0.469,1.048 0,0.406 0.141,0.734 0.446,1.032 0.375,0.359 1.266,0.735 2.721,1.126 1.431,0.407 2.487,0.797 3.19,1.22 0.68,0.422 1.22,0.984 1.619,1.721 0.398,0.719 0.586,1.61 0.586,2.673 0,0.955 -0.234,1.877 -0.704,2.69 -0.47,0.845 -1.126,1.485 -1.971,1.877 -0.845,0.406 -1.9,0.609 -3.167,0.609 -1.853,0 -3.261,-0.484 -4.246,-1.47 -1.032,-0.985 -1.618,-2.423 -1.806,-4.3 z"
         id="path107"
         inkscape:connector-curvature="0"
         style="fill:#0367ab" /><path
         d="m 232.135,371.676 0,-16.811 10.016,0 0,2.83 -7.061,0 0,3.987 6.1,0 0,2.847 -6.1,0 0,7.146 -2.955,0 z"
         id="path109"
         inkscape:connector-curvature="0"
         style="fill:#0367ab" /><path
         d="m 243.982,363.357 c 0,-1.721 0.21,-3.144 0.656,-4.316 0.327,-0.876 0.773,-1.627 1.36,-2.299 0.562,-0.688 1.196,-1.204 1.876,-1.533 0.916,-0.437 1.971,-0.656 3.144,-0.656 2.157,0 3.87,0.782 5.16,2.299 1.291,1.549 1.947,3.69 1.947,6.428 0,2.721 -0.634,4.832 -1.923,6.38 -1.291,1.533 -3.003,2.299 -5.138,2.299 -2.183,0 -3.895,-0.766 -5.185,-2.299 -1.24,-1.518 -1.897,-3.629 -1.897,-6.303 z m 3.048,-0.125 c 0,1.907 0.376,3.361 1.149,4.347 0.774,0.985 1.736,1.471 2.908,1.471 1.174,0 2.136,-0.485 2.886,-1.455 0.751,-0.984 1.127,-2.438 1.127,-4.378 0,-1.924 -0.376,-3.378 -1.103,-4.316 -0.728,-0.938 -1.714,-1.439 -2.933,-1.439 -1.22,0 -2.205,0.47 -2.933,1.439 -0.725,0.953 -1.101,2.407 -1.101,4.331 z"
         id="path111"
         inkscape:connector-curvature="0"
         style="fill:#0367ab" /><path
         d="m 259.862,363.357 c 0,-1.721 0.211,-3.144 0.656,-4.316 0.328,-0.876 0.773,-1.627 1.36,-2.299 0.562,-0.688 1.196,-1.204 1.876,-1.533 0.916,-0.437 1.972,-0.656 3.144,-0.656 2.158,0 3.87,0.782 5.16,2.299 1.291,1.549 1.947,3.69 1.947,6.428 0,2.721 -0.634,4.832 -1.923,6.38 -1.29,1.533 -3.002,2.299 -5.138,2.299 -2.181,0 -3.894,-0.766 -5.183,-2.299 -1.289,-1.518 -1.899,-3.629 -1.899,-6.303 z m 3.026,-0.125 c 0,1.907 0.376,3.361 1.149,4.347 0.773,0.986 1.736,1.471 2.908,1.471 1.174,0 2.136,-0.485 2.886,-1.455 0.751,-0.984 1.126,-2.438 1.126,-4.378 0,-1.924 -0.375,-3.378 -1.103,-4.316 -0.727,-0.938 -1.713,-1.439 -2.932,-1.439 -1.221,0 -2.205,0.47 -2.933,1.439 -0.725,0.953 -1.101,2.407 -1.101,4.331 z"
         id="path113"
         inkscape:connector-curvature="0"
         style="fill:#0367ab" /><path
         d="m 279.612,371.676 0,-13.98 -4.34,0 0,-2.83 11.611,0 0,2.83 -4.315,0 0,13.98 -2.956,0 z"
         id="path115"
         inkscape:connector-curvature="0"
         style="fill:#0367ab" /><path
         d="m 288.809,354.833 5.84,0 c 1.149,0 2.018,0.047 2.581,0.172 0.562,0.11 1.078,0.345 1.523,0.704 0.446,0.344 0.822,0.813 1.127,1.408 0.305,0.578 0.446,1.235 0.446,1.97 0,0.798 -0.188,1.501 -0.564,2.158 -0.375,0.657 -0.867,1.142 -1.501,1.47 0.892,0.313 1.572,0.798 2.041,1.532 0.47,0.72 0.728,1.564 0.728,2.533 0,0.767 -0.165,1.502 -0.47,2.221 -0.305,0.736 -0.727,1.299 -1.267,1.736 -0.54,0.422 -1.196,0.704 -1.97,0.797 -0.493,0.078 -1.689,0.095 -3.566,0.126 l -4.973,0 0,-16.827 0.025,0 z m 2.955,2.816 0,3.894 1.923,0 c 1.149,0 1.854,-0.016 2.136,-0.047 0.516,-0.062 0.89,-0.25 1.196,-0.609 0.28,-0.329 0.421,-0.767 0.421,-1.313 0,-0.517 -0.116,-0.938 -0.374,-1.268 -0.26,-0.328 -0.611,-0.516 -1.103,-0.578 -0.282,-0.047 -1.127,-0.047 -2.512,-0.047 l -1.688,0 0,-0.032 z m 0,6.693 0,4.503 2.721,0 c 1.056,0 1.736,-0.03 2.017,-0.094 0.446,-0.094 0.798,-0.312 1.08,-0.688 0.28,-0.345 0.422,-0.813 0.422,-1.423 0,-0.517 -0.117,-0.939 -0.328,-1.299 -0.211,-0.344 -0.517,-0.609 -0.916,-0.767 -0.398,-0.171 -1.266,-0.233 -2.604,-0.233 l -2.392,0 z"
         id="path117"
         inkscape:connector-curvature="0"
         style="fill:#0367ab" /><path
         d="m 316.699,371.676 -3.215,0 -1.267,-3.815 -5.842,0 -1.194,3.815 -3.121,0 5.7,-16.811 3.119,0 5.82,16.811 z m -5.42,-6.662 -2.018,-6.239 -1.97,6.239 3.988,0 z"
         id="path119"
         inkscape:connector-curvature="0"
         style="fill:#0367ab" /><path
         d="m 318.34,371.676 0,-16.671 2.955,0 0,13.856 7.351,0 0,2.846 -10.306,0 0,-0.031 z"
         id="path121"
         inkscape:connector-curvature="0"
         style="fill:#0367ab" /><path
         d="m 330.804,371.676 0,-16.671 2.955,0 0,13.856 7.335,0 0,2.846 -10.29,0 0,-0.031 z"
         id="path123"
         inkscape:connector-curvature="0"
         style="fill:#0367ab" /><g
         id="g125"><path
           d="m 197.255,371.676 0,-16.89 6.756,0 c 1.688,0 2.932,0.141 3.706,0.454 0.774,0.297 1.384,0.844 1.853,1.61 0.469,0.782 0.704,1.674 0.704,2.658 0,1.268 -0.352,2.315 -1.055,3.144 -0.704,0.813 -1.76,1.329 -3.144,1.563 0.704,0.423 1.267,0.892 1.712,1.407 0.445,0.517 1.056,1.439 1.83,2.753 l 1.947,3.284 -3.847,0 -2.322,-3.69 c -0.821,-1.313 -1.384,-2.127 -1.688,-2.486 -0.306,-0.345 -0.634,-0.579 -0.962,-0.704 -0.328,-0.109 -0.868,-0.188 -1.618,-0.188 l -0.657,0 0,7.037 -3.213,0 0,0.048 z m 3.213,-9.759 2.37,0 c 1.548,0 2.509,-0.062 2.885,-0.203 0.375,-0.14 0.68,-0.375 0.892,-0.703 0.211,-0.329 0.329,-0.751 0.329,-1.268 0,-0.562 -0.141,-1.031 -0.422,-1.391 -0.281,-0.345 -0.68,-0.563 -1.22,-0.657 -0.258,-0.047 -1.032,-0.047 -2.345,-0.047 l -2.51,0 0,4.269 0.021,0 z"
           id="path127"
           inkscape:connector-curvature="0"
           style="fill:#0367ab" /></g></g></g></svg>