<svg xmlns:xlink="http://www.w3.org/1999/xlink" xmlns:inkscape="http://www.inkscape.org/namespaces/inkscape" xmlns:sodipodi="http://sodipodi.sourceforge.net/DTD/sodipodi-0.dtd" xmlns="http://www.w3.org/2000/svg" xmlns:svg="http://www.w3.org/2000/svg" width="300.00001417322943" height="300" viewBox="0 0 211.66666 211.66665" version="1.1" id="svg5" xml:space="preserve" inkscape:version="1.2 (dc2aeda, 2022-05-15)" sodipodi:docname="Logo AS Pierrots Vauban.svg.2022_08_25_21_37_44.0.svg"><sodipodi:namedview id="namedview7" pagecolor="#ffffff" bordercolor="#666666" borderopacity="1.0" inkscape:showpageshadow="2" inkscape:pageopacity="0.0" inkscape:pagecheckerboard="0" inkscape:deskcolor="#d1d1d1" inkscape:document-units="mm" showgrid="false" inkscape:zoom="0.5946522" inkscape:cx="642.39231" inkscape:cy="488.52085" inkscape:window-width="1920" inkscape:window-height="893" inkscape:window-x="0" inkscape:window-y="25" inkscape:window-maximized="0" inkscape:current-layer="layer1"/><defs id="defs2"><rect x="98.696114" y="268.73883" width="561.25983" height="98.696114" id="rect720"/><rect x="98.696114" y="268.73883" width="561.25983" height="98.696114" id="rect726"/><rect x="98.696114" y="268.73883" width="561.25983" height="98.696114" id="rect792"/><rect x="98.696114" y="268.73883" width="561.25983" height="98.696114" id="rect798"/><rect x="98.696114" y="268.73883" width="561.25983" height="98.696114" id="rect804"/><rect x="98.696114" y="268.73883" width="561.25983" height="98.696114" id="rect810"/><rect x="98.696114" y="268.73883" width="561.25983" height="98.696114" id="rect816"/><rect x="98.696114" y="268.73883" width="561.25983" height="98.696114" id="rect822"/><rect x="98.696114" y="268.73883" width="561.25983" height="98.696114" id="rect828"/><rect x="98.696114" y="268.73883" width="561.25983" height="98.696114" id="rect834"/><rect x="98.696114" y="268.73883" width="561.25983" height="98.696114" id="rect840"/><rect x="98.696114" y="268.73883" width="561.25983" height="98.696114" id="rect846"/><rect x="98.696114" y="268.73883" width="561.25983" height="98.696114" id="rect852"/><rect x="98.696114" y="268.73883" width="561.25983" height="98.696114" id="rect858"/><rect x="98.696114" y="268.73883" width="561.25983" height="98.696114" id="rect1002"/><rect x="98.696114" y="268.73883" width="561.25983" height="98.696114" id="rect1008"/></defs><g inkscape:label="Calque 1" inkscape:groupmode="layer" id="layer1" transform="translate(-371.42879,256.94593)"><g id="g781" transform="matrix(1.0000068,0,0,1.0000068,-0.0025348,0.00175351)" style="stroke-width:0.999993"><circle style="fill:#000000;stroke:none;stroke-width:0.199999;stroke-linecap:round;stroke-linejoin:round;stroke-dasharray:none" id="circle4289" cx="477.26141" cy="-151.11333" r="105.83261"/><circle style="fill:#ffffff;stroke:none;stroke-width:0.199999;stroke-linecap:round;stroke-linejoin:round;stroke-dasharray:none" id="circle4287" cx="477.26141" cy="-151.11334" r="86.326271"/><circle style="fill:#fccd57;fill-opacity:1;stroke:none;stroke-width:0.199999;stroke-linecap:round;stroke-linejoin:round;stroke-dasharray:none" id="path4095" cx="477.26141" cy="-151.11334" r="83.494705"/></g><g id="g2998" style="fill:#fccd57;fill-opacity:1;stroke-width:0.999993" transform="matrix(1.0000068,0,0,1.0000068,0.00566383,-9.3725369e-4)"><g transform="matrix(0.28973391,0.04493921,-0.04579137,0.29522798,470.23704,-332.46591)" id="text718" style="font-weight:bold;font-size:35px;line-height:1.25;font-family:'Frutiger Neue LT';-inkscape-font-specification:'Frutiger Neue LT Bold';letter-spacing:0.44338px;white-space:pre;shape-inside:url(#rect720);display:inline;fill:#fccd57;fill-opacity:1;stroke-width:0.893961"><path d="m 113.08031,290.64828 q 1.47,0 2.135,-0.49 0.7,-0.49 0.7,-1.61 0,-1.015 -0.7,-1.47 -0.665,-0.455 -2.135,-0.455 h -5.32 v 4.025 z m -5.32,9.415 q 0,0.245 0.14,0.42 0.175,0.14 0.84,0.21 v 0.42 h -7.21 v -0.42 q 0.665,-0.07 0.805,-0.21 0.175,-0.175 0.175,-0.42 v -16.31 q 0,-0.245 -0.175,-0.385 -0.14,-0.175 -0.805,-0.245 v -0.42 h 12.53 q 1.645,0 2.905,0.49 1.26,0.455 2.1,1.26 0.84,0.805 1.26,1.89 0.42,1.05 0.42,2.205 0,1.155 -0.42,2.24 -0.42,1.05 -1.26,1.855 -0.84,0.77 -2.1,1.26 -1.26,0.455 -2.905,0.455 h -6.3 z" style="font-family:Copperplate;-inkscape-font-specification:'Copperplate Bold';fill:#fccd57;fill-opacity:1;stroke-width:0.893961" id="path2918"/></g><g transform="matrix(0.25977646,0.13594655,-0.13852443,0.26470245,531.03965,-323.8701)" id="text724" style="font-weight:bold;font-size:35px;line-height:1.25;font-family:'Frutiger Neue LT';-inkscape-font-specification:'Frutiger Neue LT Bold';letter-spacing:0.44338px;white-space:pre;shape-inside:url(#rect726);display:inline;fill:#fccd57;fill-opacity:1;stroke-width:0.893961"><path d="m 101.91531,300.69328 q 0.665,-0.07 0.805,-0.21 0.175,-0.175 0.175,-0.42 v -16.31 q 0,-0.245 -0.175,-0.385 -0.14,-0.175 -0.805,-0.245 v -0.42 h 7.21 v 0.42 q -0.665,0.07 -0.84,0.245 -0.14,0.14 -0.14,0.385 v 16.31 q 0,0.245 0.14,0.42 0.175,0.14 0.84,0.21 v 0.42 h -7.21 z" style="font-family:Copperplate;-inkscape-font-specification:'Copperplate Bold';fill:#fccd57;fill-opacity:1;stroke-width:0.893961" id="path2921"/></g><g transform="matrix(0.2010484,0.21341231,-0.21745913,0.20486077,583.46135,-296.41536)" id="text790" style="font-weight:bold;font-size:35px;line-height:1.25;font-family:'Frutiger Neue LT';-inkscape-font-specification:'Frutiger Neue LT Bold';letter-spacing:0.44338px;white-space:pre;shape-inside:url(#rect792);display:inline;fill:#fccd57;fill-opacity:1;stroke-width:0.893961"><path d="m 115.32031,294.39328 q -0.07,-0.35 -0.315,-0.56 -0.21,-0.245 -0.735,-0.245 h -6.51 v 3.255 h 11.235 q 0.28,0 0.42,-0.175 0.14,-0.21 0.21,-0.875 h 0.42 v 5.985 h -0.42 q -0.07,-0.455 -0.21,-0.56 -0.14,-0.105 -0.42,-0.105 h -17.465 v -0.42 q 0.665,-0.07 0.805,-0.21 0.175,-0.175 0.175,-0.42 v -16.31 q 0,-0.245 -0.175,-0.385 -0.14,-0.175 -0.805,-0.245 v -0.42 h 17.465 q 0.28,0 0.42,-0.175 0.14,-0.21 0.21,-0.805 h 0.42 v 6.09 h -0.42 q -0.07,-0.595 -0.21,-0.77 -0.14,-0.21 -0.42,-0.21 h -11.235 v 2.905 h 6.51 q 0.525,0 0.735,-0.21 0.245,-0.245 0.315,-0.595 h 0.42 v 5.46 z" style="font-family:Copperplate;-inkscape-font-specification:'Copperplate Bold';fill:#fccd57;fill-opacity:1;stroke-width:0.893961" id="path2924"/></g><g transform="matrix(0.12073696,0.26718506,-0.27225155,0.12302643,625.91795,-251.78164)" id="text796" style="font-weight:bold;font-size:35px;line-height:1.25;font-family:'Frutiger Neue LT';-inkscape-font-specification:'Frutiger Neue LT Bold';letter-spacing:0.44338px;white-space:pre;shape-inside:url(#rect798);display:inline;fill:#fccd57;fill-opacity:1;stroke-width:0.893961"><path d="m 113.64031,290.47328 q 1.54,0 2.1,-0.56 0.595,-0.595 0.595,-1.365 0,-0.77 -0.595,-1.33 -0.56,-0.595 -2.1,-0.595 h -5.88 v 3.85 z m -5.88,9.59 q 0,0.245 0.14,0.42 0.175,0.14 0.84,0.21 v 0.42 h -7.21 v -0.42 q 0.665,-0.07 0.805,-0.21 0.175,-0.175 0.175,-0.42 v -16.31 q 0,-0.245 -0.175,-0.385 -0.14,-0.175 -0.805,-0.245 v -0.42 h 12.81 q 3.885,0 5.635,1.435 1.75,1.4 1.75,4.375 0,2.415 -1.435,3.78 -1.4,1.365 -3.57,1.96 l 4.13,5.81 q 0.42,0.63 1.015,0.63 v 0.42 h -7.28 v -0.42 q 0.77,-0.035 0.77,-0.63 0,-0.07 -0.28,-0.49 -0.28,-0.42 -0.7,-1.015 -0.42,-0.595 -0.945,-1.26 -0.49,-0.7 -0.98,-1.33 -0.455,-0.63 -0.805,-1.12 -0.35,-0.49 -0.455,-0.665 h -3.43 z" style="font-family:Copperplate;-inkscape-font-specification:'Copperplate Bold';fill:#fccd57;fill-opacity:1;stroke-width:0.893961" id="path2927"/></g><g transform="matrix(0.00995187,0.2930294,-0.29858597,0.01014058,653.09864,-189.87521)" id="text802" style="font-weight:bold;font-size:35px;line-height:1.25;font-family:'Frutiger Neue LT';-inkscape-font-specification:'Frutiger Neue LT Bold';letter-spacing:0.44338px;white-space:pre;shape-inside:url(#rect804);display:inline;fill:#fccd57;fill-opacity:1;stroke-width:0.893961"><path d="m 113.64031,290.47328 q 1.54,0 2.1,-0.56 0.595,-0.595 0.595,-1.365 0,-0.77 -0.595,-1.33 -0.56,-0.595 -2.1,-0.595 h -5.88 v 3.85 z m -5.88,9.59 q 0,0.245 0.14,0.42 0.175,0.14 0.84,0.21 v 0.42 h -7.21 v -0.42 q 0.665,-0.07 0.805,-0.21 0.175,-0.175 0.175,-0.42 v -16.31 q 0,-0.245 -0.175,-0.385 -0.14,-0.175 -0.805,-0.245 v -0.42 h 12.81 q 3.885,0 5.635,1.435 1.75,1.4 1.75,4.375 0,2.415 -1.435,3.78 -1.4,1.365 -3.57,1.96 l 4.13,5.81 q 0.42,0.63 1.015,0.63 v 0.42 h -7.28 v -0.42 q 0.77,-0.035 0.77,-0.63 0,-0.07 -0.28,-0.49 -0.28,-0.42 -0.7,-1.015 -0.42,-0.595 -0.945,-1.26 -0.49,-0.7 -0.98,-1.33 -0.455,-0.63 -0.805,-1.12 -0.35,-0.49 -0.455,-0.665 h -3.43 z" style="font-family:Copperplate;-inkscape-font-specification:'Copperplate Bold';fill:#fccd57;fill-opacity:1;stroke-width:0.893961" id="path2930"/></g><g transform="matrix(-0.03081185,0.29157486,-0.29710385,-0.03139612,653.89508,-149.78193)" id="text808" style="font-weight:bold;font-size:35px;line-height:1.25;font-family:'Frutiger Neue LT';-inkscape-font-specification:'Frutiger Neue LT Bold';letter-spacing:0.44338px;white-space:pre;shape-inside:url(#rect810);display:inline;fill:#fccd57;fill-opacity:1;stroke-width:0.893961"><path d="m 111.33031,282.49328 q 2.24,0 4.2,0.63 1.995,0.595 3.465,1.785 1.505,1.19 2.38,2.94 0.875,1.75 0.875,4.06 0,2.31 -0.875,4.06 -0.875,1.75 -2.38,2.94 -1.47,1.19 -3.465,1.75 -1.96,0.56 -4.2,0.56 -2.24,0 -4.235,-0.56 -1.96,-0.56 -3.465,-1.75 -1.47,-1.19 -2.345,-2.94 -0.875,-1.75 -0.875,-4.06 0,-2.31 0.875,-4.06 0.875,-1.75 2.345,-2.94 1.505,-1.19 3.465,-1.785 1.995,-0.63 4.235,-0.63 z m 0,4.27 q -1.155,0 -2.205,0.35 -1.015,0.35 -1.82,1.015 -0.77,0.63 -1.26,1.61 -0.455,0.945 -0.455,2.17 0,1.225 0.455,2.205 0.49,0.945 1.26,1.61 0.805,0.63 1.82,0.98 1.05,0.35 2.205,0.35 1.155,0 2.17,-0.35 1.05,-0.35 1.82,-0.98 0.805,-0.665 1.26,-1.61 0.49,-0.98 0.49,-2.205 0,-1.225 -0.49,-2.17 -0.455,-0.98 -1.26,-1.61 -0.77,-0.665 -1.82,-1.015 -1.015,-0.35 -2.17,-0.35 z" style="font-family:Copperplate;-inkscape-font-specification:'Copperplate Bold';fill:#fccd57;fill-opacity:1;stroke-width:0.893961" id="path2933"/></g><g transform="matrix(-0.17538965,0.23495476,-0.23941008,-0.17871549,638.76781,-71.291909)" id="text814" style="font-weight:bold;font-size:35px;line-height:1.25;font-family:'Frutiger Neue LT';-inkscape-font-specification:'Frutiger Neue LT Bold';letter-spacing:0.44338px;white-space:pre;shape-inside:url(#rect816);display:inline;fill:#fccd57;fill-opacity:1;stroke-width:0.893961"><path d="m 105.76531,300.69328 q 0.665,-0.07 0.805,-0.21 0.175,-0.175 0.175,-0.42 v -13.09 h -6.02 q -0.28,0 -0.42,0.21 -0.14,0.175 -0.21,0.77 h -0.419997 v -6.23 h 0.419997 q 0.07,0.595 0.21,0.805 0.14,0.175 0.42,0.175 h 17.29 q 0.28,0 0.42,-0.175 0.14,-0.21 0.21,-0.805 h 0.42 v 6.23 h -0.42 q -0.07,-0.595 -0.21,-0.77 -0.14,-0.21 -0.42,-0.21 h -6.02 v 13.09 q 0,0.245 0.14,0.42 0.175,0.14 0.84,0.21 v 0.42 h -7.21 z" style="font-family:Copperplate;-inkscape-font-specification:'Copperplate Bold';fill:#fccd57;fill-opacity:1;stroke-width:0.893961" id="path2936"/></g><g transform="matrix(-0.2390732,0.16973295,-0.1729515,-0.24360664,603.81169,-23.416313)" id="text820" style="font-weight:bold;font-size:35px;line-height:1.25;font-family:'Frutiger Neue LT';-inkscape-font-specification:'Frutiger Neue LT Bold';letter-spacing:0.44338px;white-space:pre;shape-inside:url(#rect822);display:inline;fill:#fccd57;fill-opacity:1;stroke-width:0.893961"><path d="m 103.07031,294.00828 q -0.07,0.21 -0.07,0.735 0,0.35 0.63,0.805 0.665,0.42 1.68,0.805 1.05,0.385 2.38,0.665 1.33,0.245 2.695,0.245 2.625,0 3.85,-0.595 1.225,-0.63 1.225,-1.785 0,-0.63 -1.085,-0.875 -1.05,-0.28 -2.66,-0.42 -1.61,-0.175 -3.465,-0.35 -1.855,-0.21 -3.465,-0.7 -1.61,-0.525 -2.695,-1.47 -1.05,-0.98 -1.05,-2.66 0,-1.33 0.595,-2.415 0.63,-1.085 1.715,-1.855 1.12,-0.77 2.695,-1.19 1.575,-0.455 3.5,-0.455 1.785,0 3.325,0.245 1.54,0.21 2.73,0.49 1.19,0.28 1.995,0.525 0.805,0.21 1.155,0.21 0.35,0 0.56,-0.14 0.21,-0.175 0.385,-0.385 l 0.385,0.14 -2.415,4.865 -0.42,-0.21 v -0.385 q 0,-0.315 -0.7,-0.63 -0.665,-0.35 -1.715,-0.595 -1.05,-0.28 -2.345,-0.455 -1.295,-0.175 -2.52,-0.175 -2.275,0 -3.185,0.525 -0.91,0.525 -0.91,1.12 0,0.595 0.63,0.91 0.63,0.28 1.645,0.42 1.015,0.14 2.31,0.245 1.295,0.07 2.66,0.245 1.365,0.175 2.66,0.49 1.295,0.315 2.31,0.945 1.015,0.595 1.645,1.61 0.63,0.98 0.63,2.485 0,1.155 -0.49,2.275 -0.455,1.12 -1.61,2.03 -1.12,0.875 -3.045,1.4 -1.89,0.525 -4.725,0.525 -2.205,0 -3.815,-0.21 -1.575,-0.21 -2.695,-0.49 -1.12,-0.315 -1.785,-0.56 -0.63,-0.245 -0.945,-0.245 -0.21,0 -0.385,0.14 -0.14,0.14 -0.315,0.315 l -0.42,-0.105 2.59,-6.23 z" style="font-family:Copperplate;-inkscape-font-specification:'Copperplate Bold';fill:#fccd57;fill-opacity:1;stroke-width:0.893961" id="path2939"/></g><g transform="matrix(-0.29291654,-0.01285179,0.0130955,-0.29847098,501.88619,27.878409)" id="text826" style="font-weight:bold;font-size:35px;line-height:1.25;font-family:'Frutiger Neue LT';-inkscape-font-specification:'Frutiger Neue LT Bold';letter-spacing:0.44338px;white-space:pre;shape-inside:url(#rect828);display:inline;fill:#fccd57;fill-opacity:1;stroke-width:0.893961"><path d="m 106.88531,300.69328 q 0.315,-0.07 0.42,-0.14 0.105,-0.07 0.105,-0.175 0,-0.07 -0.28,-0.7 -0.28,-0.665 -0.735,-1.715 -0.42,-1.05 -1.015,-2.38 -0.595,-1.33 -1.225,-2.765 -0.595,-1.435 -1.225,-2.835 -0.63,-1.4 -1.155,-2.59 -0.525,-1.19 -0.91,-2.065 -0.35,-0.875 -0.49,-1.225 -0.245,-0.595 -0.384997,-0.77 -0.140001,-0.175 -0.420001,-0.21 v -0.42 h 7.174998 v 0.42 q -0.42,0.035 -0.56,0.14 -0.14,0.105 -0.14,0.28 0,0.105 0.14,0.455 0.175,0.315 0.665,1.4 0.525,1.085 1.47,3.15 0.98,2.065 2.625,5.635 1.575,-3.465 2.485,-5.495 0.945,-2.065 1.435,-3.15 0.525,-1.085 0.665,-1.47 0.14,-0.42 0.14,-0.56 0,-0.175 -0.105,-0.245 -0.105,-0.105 -0.42,-0.14 v -0.42 h 6.02 v 0.42 q -0.21,0.07 -0.35,0.14 -0.105,0.07 -0.175,0.315 -0.07,0.21 -0.42,1.015 -0.35,0.805 -0.875,1.995 -0.49,1.19 -1.12,2.66 -0.595,1.435 -1.26,2.94 -0.63,1.505 -1.26,2.94 -0.595,1.435 -1.085,2.555 -0.455,1.12 -0.735,1.855 -0.28,0.735 -0.28,0.805 0,0.315 0.49,0.315 v 0.455 h -7.21 z" style="font-family:Copperplate;-inkscape-font-specification:'Copperplate Bold';fill:#fccd57;fill-opacity:1;stroke-width:0.893961" id="path2942"/></g><g transform="matrix(-0.27299929,-0.10694231,0.10897022,-0.27817605,443.7067,26.756317)" id="text832" style="font-weight:bold;font-size:35px;line-height:1.25;font-family:'Frutiger Neue LT';-inkscape-font-specification:'Frutiger Neue LT Bold';letter-spacing:0.44338px;white-space:pre;shape-inside:url(#rect834);display:inline;fill:#fccd57;fill-opacity:1;stroke-width:0.893961"><path d="m 105.69531,300.34328 q 0,0.175 0.105,0.28 0.14,0.07 0.525,0.07 v 0.42 h -6.195 v -0.42 q 0.385,-0.07 0.56,-0.21 0.175,-0.175 0.35,-0.595 0.07,-0.175 0.35,-0.945 0.28,-0.77 0.735,-1.925 0.455,-1.19 1.015,-2.625 0.56,-1.435 1.12,-2.905 0.56,-1.505 1.085,-2.905 0.56,-1.435 0.98,-2.555 0.42,-1.12 0.665,-1.82 0.28,-0.7 0.28,-0.735 0,-0.175 -0.245,-0.245 -0.21,-0.07 -0.455,-0.105 v -0.42 h 9.135 v 0.42 q -0.28,0.035 -0.455,0.105 -0.175,0.07 -0.175,0.35 0,0.07 0.315,0.91 0.35,0.84 0.875,2.205 0.525,1.33 1.19,3.045 0.7,1.68 1.435,3.465 0.735,1.75 1.4,3.43 0.7,1.68 1.26,3.01 0.28,0.63 0.455,0.84 0.21,0.21 0.525,0.21 v 0.42 h -6.895 v -0.42 q 0.665,-0.035 0.665,-0.42 0,-0.035 -0.175,-0.455 -0.175,-0.455 -0.385,-0.98 -0.21,-0.56 -0.42,-1.05 -0.175,-0.49 -0.21,-0.665 h -8.295 q -0.35,0.945 -0.56,1.54 -0.21,0.595 -0.35,0.945 -0.105,0.35 -0.175,0.525 -0.035,0.14 -0.035,0.21 z m 8.505,-6.02 -3.395,-8.33 -3.115,8.33 z" style="font-family:Copperplate;-inkscape-font-specification:'Copperplate Bold';fill:#fccd57;fill-opacity:1;stroke-width:0.893961" id="path2945"/></g><g transform="matrix(-0.2235559,-0.18970511,0.19330241,-0.22779508,388.3652,6.6870225)" id="text838" style="font-weight:bold;font-size:35px;line-height:1.25;font-family:'Frutiger Neue LT';-inkscape-font-specification:'Frutiger Neue LT Bold';letter-spacing:0.44338px;white-space:pre;shape-inside:url(#rect840);display:inline;fill:#fccd57;fill-opacity:1;stroke-width:0.893961"><path d="m 116.72031,283.75328 q 0,-0.245 -0.175,-0.385 -0.14,-0.175 -0.805,-0.245 v -0.42 h 7.21 v 0.42 q -0.665,0.07 -0.84,0.245 -0.14,0.14 -0.14,0.385 v 9.38 q 0,2.31 -0.77,3.885 -0.735,1.575 -2.065,2.52 -1.295,0.945 -3.08,1.33 -1.75,0.35 -3.745,0.35 -1.995,0 -3.78,-0.35 -1.75,-0.385 -3.08,-1.33 -1.295,-0.945 -2.065,-2.52 -0.735,-1.575 -0.735,-3.885 v -9.38 q 0,-0.245 -0.175,-0.385 -0.14,-0.175 -0.805,-0.245 v -0.42 h 7.21 v 0.42 q -0.665,0.07 -0.84,0.245 -0.14,0.14 -0.14,0.385 v 9.38 q 0,2.03 1.155,2.905 1.155,0.875 3.255,0.875 2.1,0 3.255,-0.875 1.155,-0.875 1.155,-2.905 z" style="font-family:Copperplate;-inkscape-font-specification:'Copperplate Bold';fill:#fccd57;fill-opacity:1;stroke-width:0.893961" id="path2948"/></g><g transform="matrix(-0.15138879,-0.25109102,0.25585236,-0.15425949,340.68969,-33.312296)" id="text844" style="font-weight:bold;font-size:35px;line-height:1.25;font-family:'Frutiger Neue LT';-inkscape-font-specification:'Frutiger Neue LT Bold';letter-spacing:0.44338px;white-space:pre;shape-inside:url(#rect846);display:inline;fill:#fccd57;fill-opacity:1;stroke-width:0.893961"><path d="m 113.57031,297.40328 q 1.89,0 2.66,-0.455 0.77,-0.49 0.77,-1.645 0,-1.155 -0.77,-1.61 -0.77,-0.49 -2.66,-0.49 h -5.95 v 4.2 z m -1.19,-7.77 q 1.12,0 1.855,-0.035 0.735,-0.07 1.155,-0.245 0.42,-0.175 0.595,-0.49 0.175,-0.315 0.175,-0.84 0,-0.525 -0.175,-0.84 -0.175,-0.315 -0.595,-0.49 -0.42,-0.175 -1.155,-0.21 -0.735,-0.07 -1.855,-0.07 h -4.76 v 3.22 z m -10.01,-5.88 q 0,-0.245 -0.175,-0.385 -0.14,-0.175 -0.805,-0.245 v -0.42 h 13.335 q 1.435,0 2.625,0.28 1.19,0.28 2.065,0.875 0.875,0.56 1.365,1.505 0.49,0.91 0.49,2.205 0,1.575 -0.945,2.555 -0.945,0.945 -2.415,1.26 v 0.07 q 1.785,0.49 2.905,1.505 1.155,1.015 1.155,2.975 0,1.05 -0.42,1.995 -0.385,0.945 -1.26,1.645 -0.84,0.7 -2.205,1.12 -1.33,0.42 -3.185,0.42 h -13.51 v -0.42 q 0.665,-0.07 0.805,-0.21 0.175,-0.175 0.175,-0.42 z" style="font-family:Copperplate;-inkscape-font-specification:'Copperplate Bold';fill:#fccd57;fill-opacity:1;stroke-width:0.893961" id="path2951"/></g><g transform="matrix(-0.05639191,-0.28772421,0.2931802,-0.05746122,309.0672,-83.685851)" id="text850" style="font-weight:bold;font-size:35px;line-height:1.25;font-family:'Frutiger Neue LT';-inkscape-font-specification:'Frutiger Neue LT Bold';letter-spacing:0.44338px;white-space:pre;shape-inside:url(#rect852);display:inline;fill:#fccd57;fill-opacity:1;stroke-width:0.893961"><path d="m 105.69531,300.34328 q 0,0.175 0.105,0.28 0.14,0.07 0.525,0.07 v 0.42 h -6.195 v -0.42 q 0.385,-0.07 0.56,-0.21 0.175,-0.175 0.35,-0.595 0.07,-0.175 0.35,-0.945 0.28,-0.77 0.735,-1.925 0.455,-1.19 1.015,-2.625 0.56,-1.435 1.12,-2.905 0.56,-1.505 1.085,-2.905 0.56,-1.435 0.98,-2.555 0.42,-1.12 0.665,-1.82 0.28,-0.7 0.28,-0.735 0,-0.175 -0.245,-0.245 -0.21,-0.07 -0.455,-0.105 v -0.42 h 9.135 v 0.42 q -0.28,0.035 -0.455,0.105 -0.175,0.07 -0.175,0.35 0,0.07 0.315,0.91 0.35,0.84 0.875,2.205 0.525,1.33 1.19,3.045 0.7,1.68 1.435,3.465 0.735,1.75 1.4,3.43 0.7,1.68 1.26,3.01 0.28,0.63 0.455,0.84 0.21,0.21 0.525,0.21 v 0.42 h -6.895 v -0.42 q 0.665,-0.035 0.665,-0.42 0,-0.035 -0.175,-0.455 -0.175,-0.455 -0.385,-0.98 -0.21,-0.56 -0.42,-1.05 -0.175,-0.49 -0.21,-0.665 h -8.295 q -0.35,0.945 -0.56,1.54 -0.21,0.595 -0.35,0.945 -0.105,0.35 -0.175,0.525 -0.035,0.14 -0.035,0.21 z m 8.505,-6.02 -3.395,-8.33 -3.115,8.33 z" style="font-family:Copperplate;-inkscape-font-specification:'Copperplate Bold';fill:#fccd57;fill-opacity:1;stroke-width:0.893961" id="path2954"/></g><g transform="matrix(0.04655094,-0.28947933,0.29496859,0.04743368,296.56288,-146.72789)" id="text856" style="font-weight:bold;font-size:35px;line-height:1.25;font-family:'Frutiger Neue LT';-inkscape-font-specification:'Frutiger Neue LT Bold';letter-spacing:0.44338px;white-space:pre;shape-inside:url(#rect858);display:inline;fill:#fccd57;fill-opacity:1;stroke-width:0.893961"><path d="m 102.51031,283.75328 q 0,-0.245 -0.175,-0.385 -0.14,-0.175 -0.805,-0.245 v -0.42 h 8.435 v 0.42 q -0.595,0.035 -0.805,0.175 -0.175,0.105 -0.175,0.28 0,0.07 0.455,0.63 0.455,0.56 1.19,1.4 0.735,0.84 1.645,1.89 0.945,1.015 1.89,2.065 0.945,1.015 1.82,1.96 0.875,0.91 1.505,1.575 v -9.345 q 0,-0.595 -0.735,-0.63 v -0.42 h 6.405 v 0.42 q -0.665,0.07 -0.84,0.245 -0.14,0.14 -0.14,0.385 v 16.31 q 0,0.245 0.14,0.42 0.175,0.14 0.84,0.21 v 0.42 h -6.65 v -0.42 q 0.49,0 0.63,-0.105 0.175,-0.105 0.175,-0.28 0,-0.105 -0.105,-0.245 -0.105,-0.175 -0.455,-0.56 -0.35,-0.385 -1.05,-1.085 -0.665,-0.735 -1.785,-1.925 -1.12,-1.225 -2.765,-3.01 -1.645,-1.82 -3.955,-4.41 v 10.99 q 0,0.245 0.14,0.42 0.175,0.14 0.84,0.21 v 0.42 h -6.65 v -0.42 q 0.665,-0.07 0.805,-0.21 0.175,-0.175 0.175,-0.42 z" style="font-family:Copperplate;-inkscape-font-specification:'Copperplate Bold';fill:#fccd57;fill-opacity:1;stroke-width:0.893961" id="path2957"/></g><g transform="matrix(0.19396686,-0.21986843,0.22403769,0.19764497,321.96308,-243.31998)" id="text1000" style="font-weight:bold;font-size:35px;line-height:1.25;font-family:'Frutiger Neue LT';-inkscape-font-specification:'Frutiger Neue LT Bold';letter-spacing:0.44338px;white-space:pre;shape-inside:url(#rect1002);display:inline;fill:#fccd57;fill-opacity:1;stroke-width:0.893961"><path d="m 105.69531,300.34328 q 0,0.175 0.105,0.28 0.14,0.07 0.525,0.07 v 0.42 h -6.195 v -0.42 q 0.385,-0.07 0.56,-0.21 0.175,-0.175 0.35,-0.595 0.07,-0.175 0.35,-0.945 0.28,-0.77 0.735,-1.925 0.455,-1.19 1.015,-2.625 0.56,-1.435 1.12,-2.905 0.56,-1.505 1.085,-2.905 0.56,-1.435 0.98,-2.555 0.42,-1.12 0.665,-1.82 0.28,-0.7 0.28,-0.735 0,-0.175 -0.245,-0.245 -0.21,-0.07 -0.455,-0.105 v -0.42 h 9.135 v 0.42 q -0.28,0.035 -0.455,0.105 -0.175,0.07 -0.175,0.35 0,0.07 0.315,0.91 0.35,0.84 0.875,2.205 0.525,1.33 1.19,3.045 0.7,1.68 1.435,3.465 0.735,1.75 1.4,3.43 0.7,1.68 1.26,3.01 0.28,0.63 0.455,0.84 0.21,0.21 0.525,0.21 v 0.42 h -6.895 v -0.42 q 0.665,-0.035 0.665,-0.42 0,-0.035 -0.175,-0.455 -0.175,-0.455 -0.385,-0.98 -0.21,-0.56 -0.42,-1.05 -0.175,-0.49 -0.21,-0.665 h -8.295 q -0.35,0.945 -0.56,1.54 -0.21,0.595 -0.35,0.945 -0.105,0.35 -0.175,0.525 -0.035,0.14 -0.035,0.21 z m 8.505,-6.02 -3.395,-8.33 -3.115,8.33 z" style="font-family:Copperplate;-inkscape-font-specification:'Copperplate Bold';fill:#fccd57;fill-opacity:1;stroke-width:0.893961" id="path2960"/></g><g transform="matrix(0.25549269,-0.14383587,0.14656335,0.26033748,360.14962,-289.7157)" id="text1006" style="font-weight:bold;font-size:35px;line-height:1.25;font-family:'Frutiger Neue LT';-inkscape-font-specification:'Frutiger Neue LT Bold';letter-spacing:0.44338px;white-space:pre;shape-inside:url(#rect1008);display:inline;fill:#fccd57;fill-opacity:1;stroke-width:0.893961"><path d="m 103.07031,294.00828 q -0.07,0.21 -0.07,0.735 0,0.35 0.63,0.805 0.665,0.42 1.68,0.805 1.05,0.385 2.38,0.665 1.33,0.245 2.695,0.245 2.625,0 3.85,-0.595 1.225,-0.63 1.225,-1.785 0,-0.63 -1.085,-0.875 -1.05,-0.28 -2.66,-0.42 -1.61,-0.175 -3.465,-0.35 -1.855,-0.21 -3.465,-0.7 -1.61,-0.525 -2.695,-1.47 -1.05,-0.98 -1.05,-2.66 0,-1.33 0.595,-2.415 0.63,-1.085 1.715,-1.855 1.12,-0.77 2.695,-1.19 1.575,-0.455 3.5,-0.455 1.785,0 3.325,0.245 1.54,0.21 2.73,0.49 1.19,0.28 1.995,0.525 0.805,0.21 1.155,0.21 0.35,0 0.56,-0.14 0.21,-0.175 0.385,-0.385 l 0.385,0.14 -2.415,4.865 -0.42,-0.21 v -0.385 q 0,-0.315 -0.7,-0.63 -0.665,-0.35 -1.715,-0.595 -1.05,-0.28 -2.345,-0.455 -1.295,-0.175 -2.52,-0.175 -2.275,0 -3.185,0.525 -0.91,0.525 -0.91,1.12 0,0.595 0.63,0.91 0.63,0.28 1.645,0.42 1.015,0.14 2.31,0.245 1.295,0.07 2.66,0.245 1.365,0.175 2.66,0.49 1.295,0.315 2.31,0.945 1.015,0.595 1.645,1.61 0.63,0.98 0.63,2.485 0,1.155 -0.49,2.275 -0.455,1.12 -1.61,2.03 -1.12,0.875 -3.045,1.4 -1.89,0.525 -4.725,0.525 -2.205,0 -3.815,-0.21 -1.575,-0.21 -2.695,-0.49 -1.12,-0.315 -1.785,-0.56 -0.63,-0.245 -0.945,-0.245 -0.21,0 -0.385,0.14 -0.14,0.14 -0.315,0.315 l -0.42,-0.105 2.59,-6.23 z" style="font-family:Copperplate;-inkscape-font-specification:'Copperplate Bold';fill:#fccd57;fill-opacity:1;stroke-width:0.893961" id="path2963"/></g></g><path id="circle7264" style="fill:#000000;fill-opacity:1;stroke:none;stroke-width:0.2;stroke-linecap:round;stroke-linejoin:round;stroke-dasharray:none" d="m 477.26219,-231.33946 a 74.473312,72.586775 0 0 0 -70.25822,48.66661 l 2.75386,1.05731 a 71.506028,69.694657 0 0 1 67.50436,-46.83157 71.506028,69.694657 0 0 1 67.50383,46.83157 l 2.75439,-1.05731 a 74.473312,72.586775 0 0 0 -70.25822,-48.66661 z"/><path id="path3052" style="fill:#ffffff;stroke:none;stroke-width:0.2;stroke-linecap:round;stroke-linejoin:round" inkscape:transform-center-x="0.1401453" inkscape:transform-center-y="-8.3353745" d="m 477.26229,-239.99636 -19.31436,61.72482 h -63.95054 l 52.01217,37.55404 -19.58086,61.446272 50.83342,-38.321962 50.83343,38.321961 -19.58086,-61.446271 52.01217,-37.55404 h -63.95054 z" sodipodi:nodetypes="ccccccccccc"/><g id="g6905" transform="matrix(1.0000068,0,0,1.0000068,-0.0025348,0.00175351)" style="stroke-width:0.999993"><g id="g2543" transform="translate(0.29439857)" style="fill:#000000;stroke-width:0.999993"><path d="m 420.46329,-144.99421 q 0.28411,-0.0679 0.37881,-0.13587 0.0947,-0.0679 0.0947,-0.16983 0,-0.0679 -0.25254,-0.67933 -0.25253,-0.64536 -0.66289,-1.66436 -0.3788,-1.01899 -0.91542,-2.30972 -0.53664,-1.29073 -1.10483,-2.68335 -0.53662,-1.39263 -1.10483,-2.75129 -0.56819,-1.35866 -1.04168,-2.51352 -0.47349,-1.15486 -0.82073,-2.00402 -0.31566,-0.84916 -0.44193,-1.18883 -0.22096,-0.57743 -0.34722,-0.74726 -0.12627,-0.16983 -0.3788,-0.2038 v -0.40759 h 6.4711 v 0.40759 q -0.37879,0.034 -0.50506,0.13587 -0.12626,0.1019 -0.12626,0.27173 0,0.1019 0.12626,0.44156 0.15783,0.3057 0.59976,1.35866 0.4735,1.05297 1.32579,3.05699 0.88385,2.00402 2.36747,5.4686 1.42049,-3.36268 2.24121,-5.33274 0.8523,-2.00402 1.29423,-3.05698 0.47349,-1.05296 0.59976,-1.42659 0.12626,-0.4076 0.12626,-0.54347 0,-0.16983 -0.0947,-0.23776 -0.0947,-0.1019 -0.3788,-0.13587 v -0.40759 h 5.42941 v 0.40759 q -0.18939,0.0679 -0.31566,0.13587 -0.0947,0.0679 -0.15783,0.3057 -0.0632,0.2038 -0.37879,0.98503 -0.31567,0.78122 -0.78917,1.93608 -0.44193,1.15487 -1.01012,2.58146 -0.53663,1.39262 -1.13639,2.85318 -0.56819,1.46056 -1.13638,2.85319 -0.53664,1.39262 -0.97857,2.47955 -0.41036,1.08693 -0.66289,1.80022 -0.25253,0.7133 -0.25253,0.78123 0,0.3057 0.44193,0.3057 v 0.44156 h -6.50268 z" style="font-weight:bold;font-size:35px;line-height:1.25;font-family:Copperplate;-inkscape-font-specification:'Copperplate Bold';letter-spacing:-2.78348px;white-space:pre;fill:#000000;stroke-width:0.264581" id="path1480"/><path d="m 437.18309,-145.33388 q 0,0.16983 0.0989,0.27173 0.13183,0.0679 0.49432,0.0679 v 0.40759 h -5.83301 v -0.40759 q 0.36251,-0.0679 0.52728,-0.2038 0.16478,-0.16983 0.32955,-0.57743 0.0659,-0.16983 0.32955,-0.9171 0.26363,-0.74726 0.69205,-1.86815 0.42841,-1.15486 0.95569,-2.54749 0.52728,-1.39263 1.05456,-2.81922 0.52728,-1.46056 1.0216,-2.81922 0.52728,-1.39262 0.92273,-2.47955 0.39547,-1.08693 0.62615,-1.76626 0.26364,-0.67933 0.26364,-0.71329 0,-0.16983 -0.23068,-0.23777 -0.19774,-0.0679 -0.42842,-0.1019 v -0.40759 h 8.60123 v 0.40759 q -0.26364,0.034 -0.42841,0.1019 -0.16479,0.0679 -0.16479,0.33967 0,0.0679 0.2966,0.88313 0.32955,0.81519 0.82388,2.13988 0.49432,1.29073 1.12047,2.95509 0.65909,1.63039 1.35114,3.36268 0.69205,1.69832 1.3182,3.32872 0.65909,1.63039 1.18637,2.92111 0.26364,0.6114 0.42842,0.8152 0.19773,0.2038 0.49432,0.2038 v 0.40759 h -6.49212 v -0.40759 q 0.62615,-0.034 0.62615,-0.4076 0,-0.034 -0.16477,-0.44156 -0.16478,-0.44157 -0.36251,-0.95107 -0.19773,-0.54346 -0.39545,-1.01899 -0.16478,-0.47553 -0.19774,-0.64536 h -7.81031 q -0.32954,0.91709 -0.52728,1.49452 -0.19772,0.57743 -0.32954,0.9171 -0.0989,0.33966 -0.16478,0.50949 -0.033,0.13587 -0.033,0.2038 z m 8.00805,-5.84223 -3.19663,-8.08403 -2.93298,8.08403 z" style="font-weight:bold;font-size:35px;line-height:1.25;font-family:Copperplate;-inkscape-font-specification:'Copperplate Bold';letter-spacing:-2.78348px;white-space:pre;fill:#000000;stroke-width:0.264581" id="path1482"/><path d="m 468.95661,-161.43399 q 0,-0.23777 -0.16228,-0.37363 -0.12983,-0.16983 -0.7465,-0.23777 v -0.40759 h 6.6861 v 0.40759 q -0.61668,0.0679 -0.77896,0.23777 -0.12983,0.13586 -0.12983,0.37363 v 9.10302 q 0,2.24178 -0.71406,3.77028 -0.68159,1.52849 -1.91494,2.44558 -1.20091,0.9171 -2.85621,1.29073 -1.62284,0.33966 -3.47288,0.33966 -1.85003,0 -3.50534,-0.33966 -1.62284,-0.37363 -2.8562,-1.29073 -1.20089,-0.91709 -1.91495,-2.44558 -0.68159,-1.5285 -0.68159,-3.77028 v -9.10302 q 0,-0.23777 -0.16228,-0.37363 -0.12984,-0.16983 -0.74651,-0.23777 v -0.40759 h 6.6861 v 0.40759 q -0.61668,0.0679 -0.77896,0.23777 -0.12983,0.13586 -0.12983,0.37363 v 9.10302 q 0,1.97005 1.07107,2.81921 1.07109,0.84917 3.01849,0.84917 1.94741,0 3.01849,-0.84917 1.07107,-0.84916 1.07107,-2.81921 z" style="font-weight:bold;font-size:35px;line-height:1.25;font-family:Copperplate;-inkscape-font-specification:'Copperplate Bold';letter-spacing:-2.78348px;white-space:pre;fill:#000000;stroke-width:0.264581" id="path1484"/><path d="m 489.30093,-148.18706 q 1.73799,0 2.44605,-0.44157 0.70807,-0.47553 0.70807,-1.59642 0,-1.1209 -0.70807,-1.56246 -0.70806,-0.47553 -2.44605,-0.47553 h -5.47143 v 4.07598 z m -1.09429,-7.54056 q 1.02992,0 1.70581,-0.034 0.67588,-0.0679 1.06209,-0.23776 0.38623,-0.16984 0.54715,-0.47553 0.16092,-0.3057 0.16092,-0.8152 0,-0.5095 -0.16092,-0.8152 -0.16092,-0.30569 -0.54715,-0.47553 -0.38621,-0.16983 -1.06209,-0.20379 -0.67589,-0.0679 -1.70581,-0.0679 h -4.37714 v 3.12492 z m -9.20487,-5.70637 q 0,-0.23777 -0.16093,-0.37363 -0.12874,-0.16983 -0.74026,-0.23777 v -0.40759 h 12.26245 q 1.31958,0 2.41387,0.27173 1.09429,0.27173 1.89891,0.84916 0.80462,0.54346 1.25521,1.46056 0.45058,0.88313 0.45058,2.13989 0,1.52849 -0.86898,2.47955 -0.869,0.91709 -2.22076,1.22279 v 0.0679 q 1.64143,0.47553 2.67134,1.46055 1.06211,0.98503 1.06211,2.88716 0,1.01899 -0.38623,1.93608 -0.35402,0.9171 -1.15865,1.59643 -0.77244,0.67933 -2.02765,1.08693 -1.22303,0.40759 -2.92882,0.40759 h -12.42338 v -0.40759 q 0.61152,-0.0679 0.74026,-0.2038 0.16093,-0.16983 0.16093,-0.4076 z" style="font-weight:bold;font-size:35px;line-height:1.25;font-family:Copperplate;-inkscape-font-specification:'Copperplate Bold';letter-spacing:-2.78348px;white-space:pre;fill:#000000;stroke-width:0.264581" id="path1486"/><path d="m 503.64374,-145.33388 q 0,0.16983 0.0978,0.27173 0.13034,0.0679 0.48879,0.0679 v 0.40759 h -5.76775 v -0.40759 q 0.35844,-0.0679 0.52137,-0.2038 0.16294,-0.16983 0.32587,-0.57743 0.0652,-0.16983 0.32586,-0.9171 0.26069,-0.74726 0.68431,-1.86815 0.42362,-1.15486 0.945,-2.54749 0.52138,-1.39263 1.04276,-2.81922 0.52138,-1.46056 1.01017,-2.81922 0.52138,-1.39262 0.91241,-2.47955 0.39104,-1.08693 0.61914,-1.76626 0.26069,-0.67933 0.26069,-0.71329 0,-0.16983 -0.2281,-0.23777 -0.19552,-0.0679 -0.42362,-0.1019 v -0.40759 h 8.50499 v 0.40759 q -0.26069,0.034 -0.42362,0.1019 -0.16293,0.0679 -0.16293,0.33967 0,0.0679 0.29328,0.88313 0.32586,0.81519 0.81465,2.13988 0.4888,1.29073 1.10793,2.95509 0.65173,1.63039 1.33604,3.36268 0.68431,1.69832 1.30345,3.32872 0.65172,1.63039 1.1731,2.92111 0.26069,0.6114 0.42362,0.8152 0.19552,0.2038 0.48879,0.2038 v 0.40759 h -6.41948 v -0.40759 q 0.61914,-0.034 0.61914,-0.4076 0,-0.034 -0.16293,-0.44156 -0.16293,-0.44157 -0.35845,-0.95107 -0.19552,-0.54346 -0.39103,-1.01899 -0.16294,-0.47553 -0.19552,-0.64536 h -7.72293 q -0.32586,0.91709 -0.52138,1.49452 -0.19552,0.57743 -0.32586,0.9171 -0.0978,0.33966 -0.16293,0.50949 -0.0326,0.13587 -0.0326,0.2038 z m 7.91845,-5.84223 -3.16086,-8.08403 -2.90018,8.08403 z" style="font-weight:bold;font-size:35px;line-height:1.25;font-family:Copperplate;-inkscape-font-specification:'Copperplate Bold';letter-spacing:-2.78348px;white-space:pre;fill:#000000;stroke-width:0.264581" id="path1488"/><path d="m 522.0437,-161.43399 q 0,-0.23777 -0.15276,-0.37363 -0.12219,-0.16983 -0.70264,-0.23777 v -0.40759 h 7.36251 v 0.40759 q -0.51935,0.034 -0.70264,0.16984 -0.15276,0.10189 -0.15276,0.27173 0,0.0679 0.39716,0.61139 0.39714,0.54347 1.03869,1.35866 0.64155,0.8152 1.43584,1.83419 0.82484,0.98503 1.6497,2.00403 0.82484,0.98502 1.58859,1.90212 0.76374,0.88313 1.31363,1.52849 v -9.06905 q 0,-0.57743 -0.64154,-0.6114 v -0.40759 h 5.59062 v 0.40759 q -0.58045,0.0679 -0.73319,0.23777 -0.12221,0.13586 -0.12221,0.37363 v 15.82838 q 0,0.23777 0.12221,0.4076 0.15274,0.13586 0.73319,0.2038 v 0.40759 h -5.80447 v -0.40759 q 0.4277,0 0.5499,-0.1019 0.15275,-0.1019 0.15275,-0.27173 0,-0.1019 -0.0917,-0.23777 -0.0917,-0.16983 -0.39715,-0.54346 -0.3055,-0.37363 -0.91649,-1.05296 -0.58045,-0.7133 -1.55805,-1.86816 -0.97759,-1.18883 -2.41343,-2.92112 -1.43585,-1.76626 -3.45214,-4.27978 v 10.66548 q 0,0.23777 0.12221,0.4076 0.15275,0.13586 0.7332,0.2038 v 0.40759 h -5.80447 v -0.40759 q 0.58044,-0.0679 0.70264,-0.2038 0.15275,-0.16983 0.15275,-0.4076 z" style="font-weight:bold;font-size:35px;line-height:1.25;font-family:Copperplate;-inkscape-font-specification:'Copperplate Bold';letter-spacing:-2.78348px;white-space:pre;fill:#000000;stroke-width:0.264581" id="path1490"/></g><g id="g2535" transform="translate(-2.4844364)" style="fill:#000000;stroke-width:0.999993"><path d="m 421.0279,-134.26407 q -0.0336,0.10283 -0.0336,0.3599 0,0.17138 0.30275,0.39418 0.31956,0.20566 0.80732,0.39418 0.50458,0.18852 1.14371,0.32562 0.63913,0.11997 1.29508,0.11997 1.26144,0 1.85011,-0.29135 0.58868,-0.30849 0.58868,-0.87405 0,-0.30848 -0.5214,-0.42845 -0.50458,-0.13711 -1.27826,-0.20566 -0.77369,-0.0857 -1.6651,-0.17138 -0.89142,-0.10283 -1.66511,-0.34276 -0.77368,-0.25708 -1.29508,-0.71981 -0.50458,-0.47987 -0.50458,-1.3025 0,-0.65125 0.28593,-1.18253 0.30275,-0.53129 0.82414,-0.90833 0.53822,-0.37704 1.29508,-0.58269 0.75687,-0.2228 1.68193,-0.2228 0.85778,0 1.59782,0.11997 0.74005,0.10283 1.31191,0.23993 0.57185,0.13711 0.95869,0.25707 0.38684,0.10283 0.55504,0.10283 0.16819,0 0.2691,-0.0686 0.10092,-0.0857 0.18502,-0.18852 l 0.18501,0.0685 -1.16053,2.38221 -0.20183,-0.10283 v -0.18852 q 0,-0.15424 -0.33639,-0.30849 -0.31956,-0.17138 -0.82414,-0.29135 -0.50458,-0.1371 -1.12689,-0.22279 -0.62231,-0.0857 -1.21098,-0.0857 -1.09325,0 -1.53055,0.25707 -0.4373,0.25707 -0.4373,0.54842 0,0.29135 0.30274,0.44559 0.30275,0.13711 0.79051,0.20566 0.48776,0.0685 1.11007,0.11997 0.62231,0.0343 1.27826,0.11997 0.65595,0.0857 1.27826,0.23993 0.62231,0.15424 1.11007,0.46273 0.48776,0.29135 0.7905,0.78836 0.30275,0.47987 0.30275,1.21681 0,0.56556 -0.23547,1.11398 -0.21865,0.54842 -0.77368,0.99401 -0.53822,0.42846 -1.46328,0.68553 -0.90824,0.25707 -2.27059,0.25707 -1.05962,0 -1.8333,-0.10283 -0.75687,-0.10283 -1.29508,-0.23993 -0.53822,-0.15425 -0.85778,-0.27421 -0.30275,-0.11997 -0.45412,-0.11997 -0.10092,0 -0.18501,0.0686 -0.0673,0.0686 -0.15138,0.15425 l -0.20183,-0.0514 1.24463,-3.05059 z" style="font-weight:bold;font-size:35px;line-height:1.25;font-family:Copperplate;-inkscape-font-specification:'Copperplate Bold';letter-spacing:0.44338px;white-space:pre;fill:#000000;stroke-width:0.264581" id="path2198"/><path d="m 434.28365,-130.99068 q 0.31956,-0.0343 0.38684,-0.10283 0.0841,-0.0857 0.0841,-0.20566 v -6.40967 h -2.89291 q -0.13456,0 -0.20183,0.10282 -0.0673,0.0857 -0.10092,0.37704 h -0.20183 v -3.05059 h 0.20183 q 0.0336,0.29135 0.10092,0.39418 0.0673,0.0857 0.20183,0.0857 h 8.3087 q 0.13455,0 0.20183,-0.0857 0.0673,-0.10283 0.10092,-0.39418 h 0.20183 v 3.05059 h -0.20183 q -0.0336,-0.29134 -0.10092,-0.37704 -0.0673,-0.10282 -0.20183,-0.10282 h -2.89291 v 6.40967 q 0,0.11997 0.0673,0.20566 0.0841,0.0686 0.40366,0.10283 v 0.20566 h -3.46476 z" style="font-weight:bold;font-size:35px;line-height:1.25;font-family:Copperplate;-inkscape-font-specification:'Copperplate Bold';letter-spacing:0.44338px;white-space:pre;fill:#000000;stroke-width:0.264581" id="path2200"/><path d="m 449.1573,-135.99503 q 0.74005,0 1.00916,-0.27421 0.28592,-0.29135 0.28592,-0.66839 0,-0.37704 -0.28592,-0.65125 -0.26911,-0.29135 -1.00916,-0.29135 h -2.82563 v 1.8852 z m -2.82563,4.69586 q 0,0.11997 0.0673,0.20566 0.0841,0.0686 0.40366,0.10283 v 0.20566 h -3.46477 v -0.20566 q 0.31957,-0.0343 0.38685,-0.10283 0.0841,-0.0857 0.0841,-0.20566 v -7.98639 q 0,-0.11996 -0.0841,-0.18852 -0.0673,-0.0857 -0.38685,-0.11996 v -0.20566 h 6.15585 q 1.86693,0 2.70789,0.70266 0.84096,0.68553 0.84096,2.14228 0,1.18253 -0.68958,1.85092 -0.67277,0.66839 -1.71557,0.95974 l 1.98467,2.84493 q 0.20183,0.30849 0.48776,0.30849 v 0.20566 h -3.4984 v -0.20566 q 0.37002,-0.0171 0.37002,-0.30849 0,-0.0343 -0.13455,-0.23993 -0.13455,-0.20566 -0.33639,-0.49701 -0.20183,-0.29135 -0.45411,-0.61697 -0.23547,-0.34277 -0.47094,-0.65125 -0.21865,-0.30849 -0.38685,-0.54843 -0.16819,-0.23993 -0.21865,-0.32562 h -1.64828 z" style="font-weight:bold;font-size:35px;line-height:1.25;font-family:Copperplate;-inkscape-font-specification:'Copperplate Bold';letter-spacing:0.44338px;white-space:pre;fill:#000000;stroke-width:0.264581" id="path2202"/><path d="m 457.5665,-131.16206 q 0,0.0857 0.0505,0.1371 0.0673,0.0343 0.25229,0.0343 v 0.20566 h -2.97701 v -0.20566 q 0.18501,-0.0343 0.26911,-0.10283 0.0841,-0.0857 0.16819,-0.29135 0.0336,-0.0857 0.16819,-0.46273 0.13456,-0.37704 0.35321,-0.9426 0.21865,-0.5827 0.48776,-1.28536 0.2691,-0.70267 0.53821,-1.42247 0.26911,-0.73694 0.5214,-1.42247 0.26911,-0.70266 0.47094,-1.25108 0.20183,-0.54843 0.31956,-0.89119 0.13456,-0.34276 0.13456,-0.3599 0,-0.0857 -0.11774,-0.11997 -0.10091,-0.0343 -0.21865,-0.0514 v -0.20566 h 4.38982 v 0.20566 q -0.13455,0.0171 -0.21865,0.0514 -0.0841,0.0343 -0.0841,0.17138 0,0.0343 0.15137,0.4456 0.16819,0.41131 0.42048,1.0797 0.25229,0.65125 0.57185,1.49102 0.33639,0.82263 0.68959,1.69668 0.35321,0.85691 0.67277,1.67954 0.33639,0.82263 0.60549,1.47388 0.13456,0.30849 0.21865,0.41132 0.10092,0.10283 0.25229,0.10283 v 0.20566 h -3.31339 v -0.20566 q 0.31957,-0.0171 0.31957,-0.20566 0,-0.0171 -0.0841,-0.2228 -0.0841,-0.22279 -0.18501,-0.47986 -0.10091,-0.27421 -0.20183,-0.51415 -0.0841,-0.23993 -0.10092,-0.32562 h -3.98615 q -0.1682,0.46273 -0.26911,0.75407 -0.10092,0.29135 -0.16819,0.46274 -0.0505,0.17138 -0.0841,0.25707 -0.0168,0.0686 -0.0168,0.10283 z m 4.08707,-2.94777 -1.63146,-4.07888 -1.49691,4.07888 z" style="font-weight:bold;font-size:35px;line-height:1.25;font-family:Copperplate;-inkscape-font-specification:'Copperplate Bold';letter-spacing:0.44338px;white-space:pre;fill:#000000;stroke-width:0.264581" id="path2204"/><path d="m 468.06184,-134.26407 q -0.0336,0.10283 -0.0336,0.3599 0,0.17138 0.30274,0.39418 0.31957,0.20566 0.80732,0.39418 0.50458,0.18852 1.14371,0.32562 0.63913,0.11997 1.29508,0.11997 1.26145,0 1.85012,-0.29135 0.58867,-0.30849 0.58867,-0.87405 0,-0.30848 -0.52139,-0.42845 -0.50458,-0.13711 -1.27826,-0.20566 -0.77369,-0.0857 -1.66511,-0.17138 -0.89142,-0.10283 -1.6651,-0.34276 -0.77369,-0.25708 -1.29508,-0.71981 -0.50458,-0.47987 -0.50458,-1.3025 0,-0.65125 0.28592,-1.18253 0.30275,-0.53129 0.82415,-0.90833 0.53821,-0.37704 1.29508,-0.58269 0.75686,-0.2228 1.68192,-0.2228 0.85778,0 1.59783,0.11997 0.74005,0.10283 1.3119,0.23993 0.57185,0.13711 0.9587,0.25707 0.38684,0.10283 0.55503,0.10283 0.16819,0 0.26911,-0.0686 0.10091,-0.0857 0.18501,-0.18852 l 0.18501,0.0685 -1.16052,2.38221 -0.20184,-0.10283 v -0.18852 q 0,-0.15424 -0.33638,-0.30849 -0.31957,-0.17138 -0.82414,-0.29135 -0.50458,-0.1371 -1.12689,-0.22279 -0.62231,-0.0857 -1.21099,-0.0857 -1.09325,0 -1.53055,0.25707 -0.4373,0.25707 -0.4373,0.54842 0,0.29135 0.30275,0.44559 0.30275,0.13711 0.7905,0.20566 0.48776,0.0685 1.11007,0.11997 0.62231,0.0343 1.27826,0.11997 0.65595,0.0857 1.27827,0.23993 0.62231,0.15424 1.11007,0.46273 0.48775,0.29135 0.7905,0.78836 0.30275,0.47987 0.30275,1.21681 0,0.56556 -0.23547,1.11398 -0.21865,0.54842 -0.77369,0.99401 -0.53821,0.42846 -1.46327,0.68553 -0.90824,0.25707 -2.2706,0.25707 -1.05961,0 -1.83329,-0.10283 -0.75687,-0.10283 -1.29509,-0.23993 -0.53821,-0.15425 -0.85778,-0.27421 -0.30274,-0.11997 -0.45412,-0.11997 -0.10091,0 -0.18501,0.0686 -0.0673,0.0686 -0.15137,0.15425 l -0.20183,-0.0514 1.24462,-3.05059 z" style="font-weight:bold;font-size:35px;line-height:1.25;font-family:Copperplate;-inkscape-font-specification:'Copperplate Bold';letter-spacing:0.44338px;white-space:pre;fill:#000000;stroke-width:0.264581" id="path2206"/><path d="m 484.83898,-132.60167 q 0.90824,0 1.27826,-0.2228 0.37002,-0.23993 0.37002,-0.80549 0,-0.56556 -0.37002,-0.78836 -0.37002,-0.23993 -1.27826,-0.23993 h -2.85927 v 2.05658 z m -0.57186,-3.80467 q 0.53822,0 0.89142,-0.0171 0.35321,-0.0343 0.55504,-0.11997 0.20183,-0.0857 0.28592,-0.23993 0.0841,-0.15425 0.0841,-0.41132 0,-0.25707 -0.0841,-0.41132 -0.0841,-0.15424 -0.28592,-0.23993 -0.20183,-0.0857 -0.55504,-0.10283 -0.3532,-0.0343 -0.89142,-0.0343 h -2.28741 v 1.57671 z m -4.8103,-2.87922 q 0,-0.11996 -0.0841,-0.18852 -0.0673,-0.0857 -0.38684,-0.11996 v -0.20566 h 6.40813 q 0.68959,0 1.26144,0.1371 0.57186,0.13711 0.99234,0.42846 0.42048,0.27421 0.65595,0.73694 0.23547,0.44559 0.23547,1.0797 0,0.77122 -0.45412,1.25109 -0.45412,0.46273 -1.16053,0.61698 v 0.0343 q 0.85778,0.23994 1.396,0.73694 0.55503,0.49701 0.55503,1.45675 0,0.51414 -0.20183,0.97687 -0.18501,0.46273 -0.60549,0.8055 -0.40366,0.34276 -1.05961,0.54842 -0.63913,0.20566 -1.53055,0.20566 h -6.49223 v -0.20566 q 0.31957,-0.0343 0.38684,-0.10283 0.0841,-0.0857 0.0841,-0.20566 z" style="font-weight:bold;font-size:35px;line-height:1.25;font-family:Copperplate;-inkscape-font-specification:'Copperplate Bold';letter-spacing:0.44338px;white-space:pre;fill:#000000;stroke-width:0.264581" id="path2208"/><path d="m 496.11907,-139.90253 q 1.07643,0 2.01831,0.30849 0.9587,0.29135 1.6651,0.87404 0.72323,0.5827 1.14371,1.43961 0.42048,0.85691 0.42048,1.98803 0,1.13112 -0.42048,1.98803 -0.42048,0.8569 -1.14371,1.4396 -0.7064,0.5827 -1.6651,0.85691 -0.94188,0.27421 -2.01831,0.27421 -1.07643,0 -2.03513,-0.27421 -0.94187,-0.27421 -1.6651,-0.85691 -0.70641,-0.5827 -1.12689,-1.4396 -0.42048,-0.85691 -0.42048,-1.98803 0,-1.13112 0.42048,-1.98803 0.42048,-0.85691 1.12689,-1.43961 0.72323,-0.58269 1.6651,-0.87404 0.9587,-0.30849 2.03513,-0.30849 z m 0,2.09086 q -0.55503,0 -1.05961,0.17138 -0.48776,0.17138 -0.8746,0.49701 -0.37002,0.30848 -0.60549,0.78835 -0.21865,0.46273 -0.21865,1.06257 0,0.59983 0.21865,1.0797 0.23547,0.46273 0.60549,0.78836 0.38684,0.30849 0.8746,0.47987 0.50458,0.17138 1.05961,0.17138 0.55504,0 1.04279,-0.17138 0.50458,-0.17138 0.8746,-0.47987 0.38685,-0.32563 0.6055,-0.78836 0.23547,-0.47987 0.23547,-1.0797 0,-0.59984 -0.23547,-1.06257 -0.21865,-0.47987 -0.6055,-0.78835 -0.37002,-0.32563 -0.8746,-0.49701 -0.48775,-0.17138 -1.04279,-0.17138 z" style="font-weight:bold;font-size:35px;line-height:1.25;font-family:Copperplate;-inkscape-font-specification:'Copperplate Bold';letter-spacing:0.44338px;white-space:pre;fill:#000000;stroke-width:0.264581" id="path2210"/><path d="m 511.06576,-139.28556 q 0,-0.11996 -0.0841,-0.18852 -0.0673,-0.0857 -0.38684,-0.11996 v -0.20566 h 3.46476 v 0.20566 q -0.31957,0.0343 -0.40366,0.11996 -0.0673,0.0686 -0.0673,0.18852 v 4.59303 q 0,1.13112 -0.37002,1.90234 -0.35321,0.77122 -0.99234,1.23395 -0.62231,0.46273 -1.48009,0.65125 -0.84096,0.17138 -1.79966,0.17138 -0.95869,0 -1.81648,-0.17138 -0.84096,-0.18852 -1.48009,-0.65125 -0.62231,-0.46273 -0.99233,-1.23395 -0.35321,-0.77122 -0.35321,-1.90234 v -4.59303 q 0,-0.11996 -0.0841,-0.18852 -0.0673,-0.0857 -0.38685,-0.11996 v -0.20566 h 3.46477 v 0.20566 q -0.31957,0.0343 -0.40367,0.11996 -0.0673,0.0686 -0.0673,0.18852 v 4.59303 q 0,0.99402 0.55503,1.42247 0.55504,0.42846 1.56419,0.42846 1.00916,0 1.56419,-0.42846 0.55504,-0.42845 0.55504,-1.42247 z" style="font-weight:bold;font-size:35px;line-height:1.25;font-family:Copperplate;-inkscape-font-specification:'Copperplate Bold';letter-spacing:0.44338px;white-space:pre;fill:#000000;stroke-width:0.264581" id="path2212"/><path d="m 522.58404,-135.99503 q 0.74005,0 1.00915,-0.27421 0.28593,-0.29135 0.28593,-0.66839 0,-0.37704 -0.28593,-0.65125 -0.2691,-0.29135 -1.00915,-0.29135 h -2.82563 v 1.8852 z m -2.82563,4.69586 q 0,0.11997 0.0673,0.20566 0.0841,0.0686 0.40366,0.10283 v 0.20566 h -3.46477 v -0.20566 q 0.31957,-0.0343 0.38685,-0.10283 0.0841,-0.0857 0.0841,-0.20566 v -7.98639 q 0,-0.11996 -0.0841,-0.18852 -0.0673,-0.0857 -0.38685,-0.11996 v -0.20566 h 6.15584 q 1.86694,0 2.7079,0.70266 0.84096,0.68553 0.84096,2.14228 0,1.18253 -0.68958,1.85092 -0.67277,0.66839 -1.71557,0.95974 l 1.98467,2.84493 q 0.20183,0.30849 0.48776,0.30849 v 0.20566 h -3.4984 v -0.20566 q 0.37002,-0.0171 0.37002,-0.30849 0,-0.0343 -0.13455,-0.23993 -0.13455,-0.20566 -0.33639,-0.49701 -0.20183,-0.29135 -0.45412,-0.61697 -0.23546,-0.34277 -0.47093,-0.65125 -0.21865,-0.30849 -0.38685,-0.54843 -0.16819,-0.23993 -0.21865,-0.32562 h -1.64828 z" style="font-weight:bold;font-size:35px;line-height:1.25;font-family:Copperplate;-inkscape-font-specification:'Copperplate Bold';letter-spacing:0.44338px;white-space:pre;fill:#000000;stroke-width:0.264581" id="path2214"/><path d="m 534.89814,-134.05841 q -0.13455,0 -0.18501,0.10283 -0.0505,0.0857 -0.0673,0.23993 H 534.444 v -2.39934 h 0.20183 q 0.0336,0.30848 0.25229,0.30848 h 4.96168 v 0.20566 q -0.26911,0.0171 -0.26911,0.29135 v 2.84494 q 0,0.11996 0.0336,0.20565 0.0336,0.0857 0.16819,0.0857 h 0.0841 v 0.20565 q -2.28742,1.23395 -5.4158,1.23395 -1.05961,0 -2.05194,-0.25707 -0.97552,-0.27421 -1.73239,-0.83977 -0.75686,-0.56556 -1.2278,-1.42247 -0.45412,-0.87405 -0.45412,-2.03944 0,-1.1654 0.45412,-2.02231 0.47094,-0.87404 1.2278,-1.4396 0.75687,-0.5827 1.73239,-0.85691 0.99233,-0.29135 2.05194,-0.29135 0.42048,0 0.74005,0.0171 0.31956,0.0171 0.62231,0.0685 0.30275,0.0514 0.62231,0.13711 0.31957,0.0686 0.75687,0.18852 0.42048,0.11996 0.77368,0.29135 0.35321,0.15424 0.45412,0.15424 0.13456,0 0.23547,-0.13711 l 0.20183,0.0686 -1.09325,2.26223 -0.20183,-0.11996 q 0.0336,-0.10283 0.0336,-0.18852 0,-0.11997 -0.28593,-0.25708 -0.28592,-0.15424 -0.72322,-0.27421 -0.4373,-0.11996 -0.99234,-0.20565 -0.53822,-0.0857 -1.05961,-0.0857 -0.60549,0 -1.16053,0.17138 -0.53821,0.15424 -0.97551,0.497 -0.42049,0.34277 -0.67277,0.85691 -0.25229,0.49701 -0.25229,1.19967 0,0.68553 0.30274,1.19968 0.30275,0.497 0.75687,0.82263 0.47094,0.32562 1.04279,0.47987 0.57186,0.15424 1.12689,0.15424 0.70641,0 1.26144,-0.0857 0.57186,-0.0857 1.09325,-0.23993 v -1.13112 z" style="font-weight:bold;font-size:35px;line-height:1.25;font-family:Copperplate;-inkscape-font-specification:'Copperplate Bold';letter-spacing:0.44338px;white-space:pre;fill:#000000;stroke-width:0.264581" id="path2216"/></g><g id="g2557" transform="translate(0.07244357)" style="fill:#000000;stroke-width:0.999993"><path d="m 469.02406,-190.9396 q 0,0.0857 0.0505,0.1371 0.0673,0.0343 0.25229,0.0343 v 0.20566 h -2.97701 v -0.20566 q 0.18501,-0.0343 0.26911,-0.10283 0.0841,-0.0857 0.16819,-0.29135 0.0336,-0.0857 0.16819,-0.46273 0.13456,-0.37704 0.35321,-0.9426 0.21865,-0.5827 0.48776,-1.28536 0.2691,-0.70267 0.53821,-1.42247 0.26911,-0.73694 0.5214,-1.42247 0.26911,-0.70266 0.47094,-1.25108 0.20183,-0.54843 0.31956,-0.89119 0.13456,-0.34276 0.13456,-0.3599 0,-0.0857 -0.11774,-0.11997 -0.10091,-0.0343 -0.21865,-0.0514 v -0.20566 h 4.38982 v 0.20566 q -0.13455,0.0171 -0.21865,0.0514 -0.0841,0.0343 -0.0841,0.17138 0,0.0343 0.15137,0.4456 0.16819,0.41131 0.42048,1.0797 0.25229,0.65125 0.57185,1.49102 0.33639,0.82263 0.68959,1.69668 0.35321,0.85691 0.67277,1.67954 0.33639,0.82263 0.6055,1.47388 0.13455,0.30849 0.21865,0.41132 0.10091,0.10283 0.25228,0.10283 v 0.20566 h -3.31339 v -0.20566 q 0.31957,-0.0171 0.31957,-0.20566 0,-0.0171 -0.0841,-0.2228 -0.0841,-0.22279 -0.18501,-0.47986 -0.10091,-0.27421 -0.20183,-0.51415 -0.0841,-0.23993 -0.10091,-0.32562 h -3.98616 q -0.1682,0.46273 -0.26911,0.75407 -0.10092,0.29135 -0.16819,0.46274 -0.0505,0.17138 -0.0841,0.25707 -0.0168,0.0685 -0.0168,0.10283 z m 4.08708,-2.94777 -1.63147,-4.07888 -1.49691,4.07888 z" style="font-weight:bold;font-size:35px;line-height:1.25;font-family:Copperplate;-inkscape-font-specification:'Copperplate Bold';letter-spacing:0.44338px;white-space:pre;fill:#000000;stroke-width:0.264581" id="path1329"/><path d="m 479.71936,-194.04161 q -0.0336,0.10283 -0.0336,0.3599 0,0.17138 0.30274,0.39418 0.31957,0.20566 0.80733,0.39418 0.50457,0.18852 1.1437,0.32562 0.63913,0.11997 1.29508,0.11997 1.26145,0 1.85012,-0.29135 0.58867,-0.30849 0.58867,-0.87405 0,-0.30848 -0.52139,-0.42845 -0.50458,-0.13711 -1.27826,-0.20566 -0.77369,-0.0857 -1.66511,-0.17138 -0.89142,-0.10283 -1.6651,-0.34276 -0.77369,-0.25708 -1.29508,-0.71981 -0.50458,-0.47987 -0.50458,-1.3025 0,-0.65125 0.28593,-1.18253 0.30274,-0.53129 0.82414,-0.90833 0.53821,-0.37704 1.29508,-0.58269 0.75687,-0.2228 1.68192,-0.2228 0.85778,0 1.59783,0.11997 0.74005,0.10283 1.3119,0.23993 0.57186,0.13711 0.9587,0.25707 0.38684,0.10283 0.55503,0.10283 0.16819,0 0.26911,-0.0685 0.10092,-0.0857 0.18501,-0.18852 l 0.18501,0.0686 -1.16052,2.38221 -0.20183,-0.10283 v -0.18852 q 0,-0.15424 -0.33639,-0.30849 -0.31956,-0.17138 -0.82414,-0.29135 -0.50458,-0.1371 -1.12689,-0.22279 -0.62231,-0.0857 -1.21099,-0.0857 -1.09325,0 -1.53055,0.25707 -0.4373,0.25707 -0.4373,0.54842 0,0.29135 0.30275,0.44559 0.30275,0.13711 0.7905,0.20566 0.48776,0.0686 1.11007,0.11997 0.62232,0.0343 1.27827,0.11997 0.65595,0.0857 1.27826,0.23993 0.62231,0.15424 1.11007,0.46273 0.48775,0.29135 0.7905,0.78836 0.30275,0.47987 0.30275,1.21681 0,0.56556 -0.23547,1.11398 -0.21865,0.54842 -0.77369,0.99401 -0.53821,0.42846 -1.46327,0.68553 -0.90824,0.25707 -2.2706,0.25707 -1.05961,0 -1.83329,-0.10283 -0.75687,-0.10283 -1.29509,-0.23993 -0.53821,-0.15425 -0.85778,-0.27421 -0.30274,-0.11997 -0.45412,-0.11997 -0.10091,0 -0.18501,0.0685 -0.0673,0.0686 -0.15137,0.15425 l -0.20183,-0.0514 1.24462,-3.05059 z" style="font-weight:bold;font-size:35px;line-height:1.25;font-family:Copperplate;-inkscape-font-specification:'Copperplate Bold';letter-spacing:0.44338px;white-space:pre;fill:#000000;stroke-width:0.264581" id="path1331"/></g><rect style="fill:#000000;stroke-width:0.0199999;stroke-linecap:round;stroke-linejoin:round" id="rect2763" width="128.67902" height="21.1581" x="412.92191" y="-187.57254"/><g id="g2553" style="fill:#ffffff;stroke-width:0.999993" transform="translate(0.17166357)"><path d="m 425.82581,-177.5038 q 1.0617,0 1.54199,-0.416 0.50558,-0.416 0.50558,-1.36685 0,-0.86171 -0.50558,-1.248 -0.48029,-0.38628 -1.54199,-0.38628 h -3.84236 v 3.41713 z m -3.84236,7.99312 q 0,0.208 0.10112,0.35657 0.12639,0.11886 0.60669,0.17829 v 0.35657 h -5.2074 v -0.35657 q 0.48029,-0.0594 0.58141,-0.17829 0.12639,-0.14857 0.12639,-0.35657 v -13.84682 q 0,-0.208 -0.12639,-0.32686 -0.10112,-0.14857 -0.58141,-0.208 v -0.35657 h 9.04975 q 1.1881,0 2.09813,0.416 0.91003,0.38629 1.51672,1.06971 0.60668,0.68343 0.91003,1.60457 0.30334,0.89143 0.30334,1.872 0,0.98057 -0.30334,1.90171 -0.30335,0.89142 -0.91003,1.57485 -0.60669,0.65371 -1.51672,1.06971 -0.91003,0.38629 -2.09813,0.38629 h -4.55016 z" style="font-weight:bold;font-size:35px;line-height:1.25;font-family:Copperplate;-inkscape-font-specification:'Copperplate Bold';letter-spacing:-1.68944px;white-space:pre;fill:#ffffff;stroke-width:0.264581" id="path1156"/><path d="m 433.40258,-168.97582 q 0.4803,-0.0594 0.58141,-0.17829 0.12639,-0.14857 0.12639,-0.35657 v -13.84682 q 0,-0.208 -0.12639,-0.32686 -0.10111,-0.14857 -0.58141,-0.208 v -0.35657 h 5.2074 v 0.35657 q -0.48029,0.0594 -0.60669,0.208 -0.10111,0.11886 -0.10111,0.32686 v 13.84682 q 0,0.208 0.10111,0.35657 0.1264,0.11886 0.60669,0.17829 v 0.35657 h -5.2074 z" style="font-weight:bold;font-size:35px;line-height:1.25;font-family:Copperplate;-inkscape-font-specification:'Copperplate Bold';letter-spacing:-1.68944px;white-space:pre;fill:#ffffff;stroke-width:0.264581" id="path1158"/><path d="m 450.4634,-174.32438 q -0.0497,-0.29714 -0.22349,-0.47543 -0.149,-0.208 -0.52149,-0.208 h -4.61885 v 2.76343 h 7.97126 q 0.19866,0 0.29798,-0.14857 0.0993,-0.17829 0.149,-0.74286 h 0.29799 v 5.08113 h -0.29799 q -0.0496,-0.38628 -0.149,-0.47543 -0.0993,-0.0891 -0.29798,-0.0891 h -12.39146 v -0.35657 q 0.47181,-0.0594 0.57115,-0.17829 0.12416,-0.14857 0.12416,-0.35657 v -13.84682 q 0,-0.208 -0.12416,-0.32686 -0.0993,-0.14857 -0.57115,-0.208 v -0.35657 h 12.39146 q 0.19866,0 0.29798,-0.14857 0.0993,-0.17828 0.149,-0.68342 h 0.29799 v 5.17027 h -0.29799 q -0.0496,-0.50514 -0.149,-0.65371 -0.0993,-0.17829 -0.29798,-0.17829 h -7.97126 v 2.46628 h 4.61885 q 0.37249,0 0.52149,-0.17828 0.17382,-0.208 0.22349,-0.50515 h 0.298 v 4.63542 z" style="font-weight:bold;font-size:35px;line-height:1.25;font-family:Copperplate;-inkscape-font-specification:'Copperplate Bold';letter-spacing:-1.68944px;white-space:pre;fill:#ffffff;stroke-width:0.264581" id="path1160"/><path d="m 464.74932,-177.65237 q 1.05177,0 1.43424,-0.47543 0.40636,-0.50514 0.40636,-1.15885 0,-0.65372 -0.40636,-1.12914 -0.38247,-0.50514 -1.43424,-0.50514 h -4.01585 v 3.26856 z m -4.01585,8.14169 q 0,0.208 0.0956,0.35657 0.11952,0.11886 0.5737,0.17829 v 0.35657 h -4.9242 v -0.35657 q 0.45418,-0.0594 0.5498,-0.17829 0.11951,-0.14857 0.11951,-0.35657 v -13.84682 q 0,-0.208 -0.11951,-0.32686 -0.0956,-0.14857 -0.5498,-0.208 v -0.35657 h 8.74882 q 2.65332,0 3.84852,1.21829 1.19519,1.18857 1.19519,3.71427 0,2.05028 -0.98006,3.20914 -0.95615,1.15885 -2.43818,1.66399 l 2.82065,4.93256 q 0.28685,0.53486 0.69321,0.53486 v 0.35657 h -4.97201 v -0.35657 q 0.52589,-0.0297 0.52589,-0.53486 0,-0.0594 -0.19123,-0.41599 -0.19123,-0.35658 -0.47808,-0.86172 -0.28685,-0.50514 -0.6454,-1.06971 -0.33466,-0.59428 -0.66932,-1.12914 -0.31075,-0.53485 -0.54978,-0.95085 -0.23904,-0.416 -0.31075,-0.56457 h -2.34258 z" style="font-weight:bold;font-size:35px;line-height:1.25;font-family:Copperplate;-inkscape-font-specification:'Copperplate Bold';letter-spacing:-1.68944px;white-space:pre;fill:#ffffff;stroke-width:0.264581" id="path1162"/><path d="m 481.67834,-177.65237 q 1.05176,0 1.43422,-0.47543 0.40637,-0.50514 0.40637,-1.15885 0,-0.65372 -0.40637,-1.12914 -0.38246,-0.50514 -1.43422,-0.50514 h -4.01586 v 3.26856 z m -4.01586,8.14169 q 0,0.208 0.0956,0.35657 0.11953,0.11886 0.5737,0.17829 v 0.35657 h -4.9242 v -0.35657 q 0.45418,-0.0594 0.54979,-0.17829 0.11952,-0.14857 0.11952,-0.35657 v -13.84682 q 0,-0.208 -0.11952,-0.32686 -0.0957,-0.14857 -0.54979,-0.208 v -0.35657 h 8.74882 q 2.65333,0 3.84853,1.21829 1.19519,1.18857 1.19519,3.71427 0,2.05028 -0.98006,3.20914 -0.95616,1.15885 -2.4382,1.66399 l 2.82066,4.93256 q 0.28684,0.53486 0.69321,0.53486 v 0.35657 h -4.97201 v -0.35657 q 0.52589,-0.0297 0.52589,-0.53486 0,-0.0594 -0.19122,-0.41599 -0.19123,-0.35658 -0.47809,-0.86172 -0.28685,-0.50514 -0.6454,-1.06971 -0.33466,-0.59428 -0.6693,-1.12914 -0.31075,-0.53485 -0.5498,-0.95085 -0.23904,-0.416 -0.31075,-0.56457 h -2.34258 z" style="font-weight:bold;font-size:35px;line-height:1.25;font-family:Copperplate;-inkscape-font-specification:'Copperplate Bold';letter-spacing:-1.68944px;white-space:pre;fill:#ffffff;stroke-width:0.264581" id="path1164"/><path d="m 497.97584,-184.42721 q 1.65011,0 3.09394,0.53485 1.46962,0.50515 2.55251,1.51543 1.10866,1.01028 1.75322,2.49599 0.64458,1.48571 0.64458,3.44685 0,1.96114 -0.64458,3.44685 -0.64456,1.48571 -1.75322,2.496 -1.08289,1.01028 -2.55251,1.48571 -1.44383,0.47542 -3.09394,0.47542 -1.6501,0 -3.11972,-0.47542 -1.44384,-0.47543 -2.5525,-1.48571 -1.08288,-1.01029 -1.72745,-2.496 -0.64457,-1.48571 -0.64457,-3.44685 0,-1.96114 0.64457,-3.44685 0.64457,-1.48571 1.72745,-2.49599 1.10866,-1.01028 2.5525,-1.51543 1.46962,-0.53485 3.11972,-0.53485 z m 0,3.62513 q -0.85083,0 -1.62431,0.29714 -0.74771,0.29715 -1.34071,0.86172 -0.56723,0.53485 -0.92818,1.36685 -0.33518,0.80228 -0.33518,1.84228 0,1.04 0.33518,1.872 0.36095,0.80228 0.92818,1.36685 0.593,0.53486 1.34071,0.832 0.77348,0.29714 1.62431,0.29714 0.85084,0 1.59854,-0.29714 0.77349,-0.29714 1.34071,-0.832 0.59301,-0.56457 0.92818,-1.36685 0.36096,-0.832 0.36096,-1.872 0,-1.04 -0.36096,-1.84228 -0.33517,-0.832 -0.92818,-1.36685 -0.56722,-0.56457 -1.34071,-0.86172 -0.7477,-0.29714 -1.59854,-0.29714 z" style="font-weight:bold;font-size:35px;line-height:1.25;font-family:Copperplate;-inkscape-font-specification:'Copperplate Bold';letter-spacing:-1.68944px;white-space:pre;fill:#ffffff;stroke-width:0.264581" id="path1166"/><path d="m 511.64435,-168.97582 q 0.50997,-0.0594 0.61733,-0.17829 0.1342,-0.14857 0.1342,-0.35657 v -11.11311 h -4.61654 q -0.21472,0 -0.32209,0.17828 -0.10737,0.14857 -0.16104,0.65372 h -0.32208 v -5.28913 h 0.32208 q 0.0538,0.50514 0.16104,0.68342 0.10737,0.14857 0.32209,0.14857 h 13.25915 q 0.21471,0 0.32208,-0.14857 0.10735,-0.17828 0.16104,-0.68342 h 0.32208 v 5.28913 h -0.32208 q -0.0538,-0.50515 -0.16104,-0.65372 -0.10737,-0.17828 -0.32208,-0.17828 h -4.61655 v 11.11311 q 0,0.208 0.10736,0.35657 0.13421,0.11886 0.64416,0.17829 v 0.35657 h -5.52911 z" style="font-weight:bold;font-size:35px;line-height:1.25;font-family:Copperplate;-inkscape-font-specification:'Copperplate Bold';letter-spacing:-1.68944px;white-space:pre;fill:#ffffff;stroke-width:0.264581" id="path1168"/><path d="m 524.20803,-174.65123 q -0.0506,0.17828 -0.0506,0.62399 0,0.29715 0.45502,0.68343 0.48029,0.35657 1.21337,0.68343 0.75836,0.32685 1.71895,0.56457 0.96059,0.208 1.94645,0.208 1.8959,0 2.78065,-0.50514 0.88476,-0.53486 0.88476,-1.51543 0,-0.53486 -0.78364,-0.74285 -0.75836,-0.23772 -1.92118,-0.35658 -1.16281,-0.14857 -2.50258,-0.29714 -1.33977,-0.17828 -2.50259,-0.59428 -1.16282,-0.44572 -1.94645,-1.248 -0.75836,-0.832 -0.75836,-2.25828 0,-1.12914 0.42973,-2.05028 0.45502,-0.92114 1.23866,-1.57485 0.80891,-0.65372 1.94645,-1.01029 1.13754,-0.38628 2.52787,-0.38628 1.28921,0 2.40147,0.208 1.11226,0.17828 1.97173,0.416 0.85948,0.23771 1.44088,0.44571 0.58141,0.17829 0.8342,0.17829 0.25279,0 0.40446,-0.11886 0.15167,-0.14857 0.27806,-0.32686 l 0.27807,0.11886 -1.74423,4.13027 -0.30334,-0.17828 v -0.32686 q 0,-0.26742 -0.50557,-0.53485 -0.4803,-0.29714 -1.23866,-0.50514 -0.75836,-0.23772 -1.69367,-0.38629 -0.93531,-0.14857 -1.82006,-0.14857 -1.64311,0 -2.30036,0.44571 -0.65724,0.44572 -0.65724,0.95086 0,0.50514 0.45502,0.77257 0.45501,0.23771 1.18809,0.35657 0.73308,0.11886 1.66839,0.208 0.93531,0.0594 1.92118,0.208 0.98587,0.14857 1.92118,0.416 0.9353,0.26742 1.66839,0.80228 0.73308,0.50514 1.18809,1.36685 0.45502,0.832 0.45502,2.10971 0,0.98057 -0.3539,1.93143 -0.32863,0.95085 -1.16282,1.72342 -0.80892,0.74286 -2.19924,1.18857 -1.36505,0.44571 -3.41262,0.44571 -1.59255,0 -2.75537,-0.17828 -1.13754,-0.17829 -1.94646,-0.416 -0.80891,-0.26743 -1.28921,-0.47543 -0.45501,-0.208 -0.68252,-0.208 -0.15167,0 -0.27807,0.11886 -0.10111,0.11886 -0.2275,0.26743 l -0.30335,-0.0892 1.87062,-5.28913 z" style="font-weight:bold;font-size:35px;line-height:1.25;font-family:Copperplate;-inkscape-font-specification:'Copperplate Bold';letter-spacing:-1.68944px;white-space:pre;fill:#ffffff;stroke-width:0.264581" id="path1170"/></g></g><g id="g6603" transform="matrix(1.0000068,0,0,1.0000068,-0.0025348,0.00175351)" style="stroke-width:0.999993"><path id="path3880" style="fill:#de4b39;fill-opacity:1;stroke:none;stroke-width:0.199999;stroke-linecap:round;stroke-linejoin:round" inkscape:transform-center-x="0.012645019" inkscape:transform-center-y="-0.75091262" d="m 449.24031,-216.43963 -1.73993,5.56057 h -5.76109 l 4.68559,3.38312 -1.76394,5.53546 4.57937,-3.45228 4.57941,3.45228 -1.76398,-5.53546 4.68559,-3.38312 h -5.76108 z"/><path id="path3882" style="fill:#de4b39;fill-opacity:1;stroke:none;stroke-width:0.199999;stroke-linecap:round;stroke-linejoin:round" inkscape:transform-center-x="0.012645019" inkscape:transform-center-y="-0.75091262" d="m 468.29031,-216.43963 -1.73993,5.56057 h -5.76109 l 4.68559,3.38312 -1.76394,5.53546 4.57937,-3.45228 4.57941,3.45228 -1.76398,-5.53546 4.68559,-3.38312 h -5.76108 z"/><path id="path5554" style="fill:#de4b39;fill-opacity:1;stroke:none;stroke-width:0.199999;stroke-linecap:round;stroke-linejoin:round" inkscape:transform-center-x="0.012645019" inkscape:transform-center-y="-0.75091262" d="m 505.28252,-216.43963 1.73993,5.56057 h 5.76109 l -4.68559,3.38312 1.76394,5.53546 -4.57937,-3.45228 -4.57941,3.45228 1.76398,-5.53546 -4.68559,-3.38312 h 5.76108 z"/><path id="path5556" style="fill:#de4b39;fill-opacity:1;stroke:none;stroke-width:0.199999;stroke-linecap:round;stroke-linejoin:round" inkscape:transform-center-x="0.012645019" inkscape:transform-center-y="-0.75091262" d="m 486.23252,-216.43963 1.73993,5.56057 h 5.76109 l -4.68559,3.38312 1.76394,5.53546 -4.57937,-3.45228 -4.57941,3.45228 1.76398,-5.53546 -4.68559,-3.38312 h 5.76108 z"/></g><g id="g7437" transform="matrix(1.0000068,0,0,1.0000068,1.2942141,0.00175351)" style="stroke-width:0.999993"><g id="g7417" style="stroke-width:0.999993"><path id="path3549" style="fill:#000000;stroke:none;stroke-width:0.0199999;stroke-linecap:butt;stroke-linejoin:miter;stroke-dasharray:none;stroke-opacity:1" d="m 456.93819,-117.52953 -0.29973,36.426196 19.32595,14.468368 19.32596,-14.468368 -0.30024,-36.426196 z m 0.8294,1.05833 h 36.39416 v 35.06866 l -18.19734,13.70924 -18.19682,-13.70924 z"/><path id="path2711" style="fill:#000000;stroke:none;stroke-width:0.0199999;stroke-linecap:butt;stroke-linejoin:miter;stroke-dasharray:none;stroke-opacity:1" d="m 458.46264,-115.74205 v 33.871838 l 17.50177,13.348022 17.5023,-13.348022 v -33.871838 z m 0.72915,0.72864 h 33.54576 v 32.842958 l -16.77314,12.619385 -16.77262,-12.619385 z"/></g><g id="g7413" style="stroke-width:0.999993"><path id="rect3713" style="fill:#000000;stroke:none;stroke-width:0.0199999;stroke-linecap:round;stroke-linejoin:round" d="m 472.18273,-114.48786 v 40.779941 l 3.78168,3.175 3.7822,-3.175 v -40.779941 h -3.7822 z"/><path id="path5204" style="fill:#ffffff;stroke:none;stroke-width:0.0499997;stroke-linecap:butt;stroke-linejoin:miter;stroke-dasharray:none;stroke-opacity:1" d="m 462.76961,-111.29167 v 27.005585 c -0.009,2.835604 2.30976,3.978508 4.79609,4.009574 h 5.3666 c 1.62689,-0.01132 2.82571,1.618338 3.03237,3.203422 0.20666,-1.585084 1.40547,-3.214742 3.03237,-3.203422 h 5.3666 c 2.48633,-0.03107 4.80509,-1.17397 4.79609,-4.009574 v -27.005585 z" sodipodi:nodetypes="cccccccccc"/><g id="g7282" style="stroke-width:0.999993"><path style="fill:#de4b39;fill-opacity:1;stroke:none;stroke-width:0.0499997;stroke-linecap:butt;stroke-linejoin:miter;stroke-dasharray:none;stroke-opacity:1" d="m 487.17252,-106.59532 -20.4153,24.196458 c 0.09,0.0031 0.18215,0.0055 0.27957,0.0057 h 5.89577 c 1.6269,-0.01132 2.24123,1.143985 3.03185,2.145088 0.79064,-1.001103 1.40548,-2.156408 3.03238,-2.145088 h 5.89576 c 1.7633,-0.0033 2.28897,-0.448539 2.27997,-2.422075 z" id="path7278"/><path style="fill:#de4b39;fill-opacity:1;stroke:none;stroke-width:0.0499997;stroke-linecap:butt;stroke-linejoin:miter;stroke-dasharray:none;stroke-opacity:1" d="m 464.75683,-109.70417 v 24.715802 l 20.85144,-24.715802 z" id="path4476"/></g></g><g id="g6189" style="stroke-width:0.999993"><path style="fill:#000000;stroke:none;stroke-width:0.0199999;stroke-linecap:butt;stroke-linejoin:miter;stroke-dasharray:none;stroke-opacity:1" d="m 454.33546,-120.24421 c 3.16448,0.45738 5.42366,0.44905 6.95214,-2.5584 3.08956,1.39962 5.62882,0.26785 7.98108,-1.72413 1.34285,1.44135 3.01097,1.62211 4.5744,0.66165 1.80763,-1.11046 3.9241,-1.60823 5.7426,0.25603 1.19678,-1.27226 2.99847,-0.45458 4.67185,0.0556 1.62217,2.10612 3.41119,1.30402 5.03335,0.83426 0.58208,-0.13547 2.72143,0.77994 3.34891,1.51226 2.05227,2.39519 2.3807,1.66146 4.65998,1.5745 -1.50471,1.29881 -3.37836,1.84806 -4.75253,-0.50963 -0.59036,-1.01289 -2.01105,-1.27017 -3.03389,-1.68726 -2.64412,1.21587 -4.28436,0.23575 -5.75638,-1.11234 -1.82597,-0.54327 -3.66306,-1.09258 -4.11567,0.75083 -1.43159,-1.98937 -2.93535,-2.38984 -5.81275,-0.60452 -1.30494,0.80966 -3.36204,0.57077 -4.61549,-0.48001 -2.32122,1.72077 -4.84549,2.5278 -7.75859,1.58509 -2.0393,3.30886 -4.66258,2.798 -7.11901,1.44605 z" id="path1011" sodipodi:nodetypes="cccscccscscccscccc"/><path style="fill:#000000;stroke:none;stroke-width:0.0199999;stroke-linecap:butt;stroke-linejoin:miter;stroke-dasharray:none;stroke-opacity:1" d="m 454.64138,-117.90506 c 3.14572,0.45738 5.39151,0.44905 6.91093,-2.5584 3.07125,1.39962 5.59546,0.26785 7.93377,-1.72413 1.33489,1.44135 2.99313,1.62211 4.54729,0.66165 1.79691,-1.11046 3.90084,-1.60823 5.70856,0.25603 1.18969,-1.27226 2.9807,-0.45458 4.64416,0.0556 1.61255,2.10612 3.39097,1.30402 5.00351,0.83426 0.57863,-0.13547 2.7053,0.77994 3.32906,1.51226 2.04011,2.39519 1.62021,1.57803 3.88598,1.49107 -1.49579,1.29881 -2.61195,1.93149 -3.97798,-0.4262 -0.58686,-1.01289 -1.99913,-1.27017 -3.0159,-1.68726 -2.62845,1.21587 -4.25897,0.23575 -5.72226,-1.11234 -1.81515,-0.54327 -3.64135,-1.09258 -4.09128,0.75083 -1.4231,-1.98937 -2.91795,-2.38984 -5.77829,-0.60452 -1.29721,0.80966 -3.34212,0.57077 -4.58814,-0.48001 -2.30746,1.72077 -4.81677,2.5278 -7.7126,1.58509 -2.02721,3.30886 -4.63494,2.798 -7.07681,1.44605 z" id="path1767" sodipodi:nodetypes="cccscccscscccscccc"/><path id="rect4006" style="fill:#000000;stroke:none;stroke-width:0.0199999;stroke-linecap:round;stroke-linejoin:round" transform="rotate(4.9830293)" d="m 470.15641,-166.51149 h 0.11124 c 0.0924,0 0.16685,0.0992 0.16685,0.22247 v 6.32896 l -0.44494,-0.12757 v -6.20139 c 0,-0.12325 0.0744,-0.22247 0.16685,-0.22247 z" sodipodi:nodetypes="sssccss"/><path id="rect4008" style="fill:#000000;stroke:none;stroke-width:0.0199999;stroke-linecap:round;stroke-linejoin:round" transform="rotate(8.0089349)" d="m 465.37156,-190.49539 h 0.11124 c 0.0924,0 0.16685,0.0992 0.16685,0.22247 v 6.08102 l -0.44494,0.0383 v -6.11934 c 0,-0.12325 0.0744,-0.22247 0.16685,-0.22247 z" sodipodi:nodetypes="sssccss"/><path id="rect1821" style="fill:#000000;stroke:none;stroke-width:0.0199999;stroke-linecap:round;stroke-linejoin:round" d="m 455.64472,-119.96608 5.29167,0.97307 h 30.05605 c 1.06159,1e-4 1.96048,-0.15873 2.81946,-0.36277 l -0.54673,-0.6103 z" sodipodi:nodetypes="cccccc"/><path id="path2601" style="fill:#000000;stroke:none;stroke-width:0.0199999;stroke-linecap:butt;stroke-linejoin:miter;stroke-dasharray:none;stroke-opacity:1" d="m 475.96441,-126.7791 c -8.83266,-0.0317 -15.44567,1.39161 -23.21408,4.97748 l 4.14341,7.81451 c 5.84759,-2.36302 11.96334,-4.92914 19.07067,-4.95009 7.10734,0.0209 13.22309,2.58707 19.07068,4.95009 l 4.14393,-7.81451 c -7.76842,-3.58587 -14.38194,-5.00918 -23.21461,-4.97748 z m 0,0.91777 c 6.87167,0.0173 14.89434,1.09568 22.07411,4.33772 l -3.50366,6.50762 c -5.32205,-2.34221 -14.6691,-4.88946 -18.57045,-4.87826 -3.90133,-0.0112 -13.24789,2.53605 -18.56992,4.87826 l -3.50418,-6.50762 c 7.17977,-3.24204 15.20245,-4.32042 22.0741,-4.33772 z"/><path id="rect4002" style="fill:#000000;stroke:none;stroke-width:0.0199999;stroke-linecap:round;stroke-linejoin:round" transform="rotate(-13.14741)" d="m 479.18016,-15.654551 h 0.11123 c 0.0924,0 0.16685,0.09922 0.16685,0.222469 v 6.8266383 l -0.44493,0.1361877 v -6.962826 c 0,-0.123247 0.0744,-0.222469 0.16685,-0.222469 z" sodipodi:nodetypes="sssccss"/><path id="rect4004" style="fill:#000000;stroke:none;stroke-width:0.0199999;stroke-linecap:round;stroke-linejoin:round" transform="rotate(-8.1630422)" d="m 482.82631,-57.390926 h 0.11123 c 0.0924,0 0.16685,0.09922 0.16685,0.222469 v 6.399405 l -0.44494,0.07051 v -6.469914 c 0,-0.123248 0.0744,-0.222469 0.16686,-0.22247 z" sodipodi:nodetypes="sssccss"/></g></g></g></svg>