<svg xmlns:xlink="http://www.w3.org/1999/xlink" xmlns:dc="http://purl.org/dc/elements/1.1/" xmlns:cc="http://creativecommons.org/ns#" xmlns:rdf="http://www.w3.org/1999/02/22-rdf-syntax-ns#" xmlns:svg="http://www.w3.org/2000/svg" xmlns="http://www.w3.org/2000/svg" xmlns:sodipodi="http://sodipodi.sourceforge.net/DTD/sodipodi-0.dtd" xmlns:inkscape="http://www.inkscape.org/namespaces/inkscape" id="svg118" version="1.1" viewBox="0 0 476.8 559.99999" height="300" width="255.428575989796" inkscape:version="0.91 r13725" sodipodi:docname="Logo-Entente-Feignies-Aulnoye-FC.svg" style="fill-rule:evenodd">
  <sodipodi:namedview pagecolor="#ffffff" bordercolor="#666666" borderopacity="1" objecttolerance="10" gridtolerance="10" guidetolerance="10" inkscape:pageopacity="0" inkscape:pageshadow="2" inkscape:window-width="1440" inkscape:window-height="788" id="namedview63" showgrid="false" inkscape:zoom="0.77676421" inkscape:cx="372.0475" inkscape:cy="544.92368" inkscape:window-x="0" inkscape:window-y="1" inkscape:window-maximized="1" inkscape:current-layer="svg118" units="px"/>
  <metadata id="metadata124">
    <rdf:RDF>
      <cc:Work rdf:about="">
        <dc:format>image/svg+xml</dc:format>
        <dc:type rdf:resource="http://purl.org/dc/dcmitype/StillImage"/>
        <dc:title/>
      </cc:Work>
    </rdf:RDF>
  </metadata>
  <defs id="defs122"/>
  <g id="g4525" transform="matrix(0.98782907,0,0,0.98777463,-55.615174,-135.79829)">
    <g id="g4499">
      <g id="g4448">
        <path inkscape:connector-curvature="0" style="fill:#2b4387;stroke:none" d="m 494.418,161.389 c 10.577,56.72 17.318,120.002 14.876,177.409 l 29.681,0 c -2.732,42.443 -9.844,77.923 -23.098,111.6 l -23.399,0 C 469.598,559.914 403.698,668.525 298.744,704.41 191.683,663.487 126.021,558.952 104.461,450.398 l -20.8647,0 C 68.8112,414.467 60.4372,375.784 56.3004,338.798 l 30.2316,0 c -3.7919,-59.484 2.4072,-120.365 12.9213,-173.885 69.9417,-18.592 135.9537,-27.03 203.2197,-27.421 63.188,-0.367 126.824,7.028 191.745,23.897 z" id="path2"/>
        <path inkscape:connector-curvature="0" style="fill:#3b64a8;stroke:none" d="m 110.026,176.04 c 124.115,-31.938 248.694,-35.332 372.611,-0.703 l 2.546,0.712 0.544,2.587 c 3.22,15.318 5.633,30.894 7.618,46.418 2.249,17.597 3.932,35.292 5.104,52.993 1.008,15.209 1.639,30.461 1.779,45.703 0.07,7.667 0.021,15.354 -0.201,23.034 l 29.913,0 -0.606,4.891 c -3.673,29.649 -10.381,59.359 -19.707,87.742 l -0.984,2.996 -24.42,0 c -10.778,53.087 -31.829,104.798 -63.029,148.959 -29.891,42.31 -71.192,80.115 -120.737,97.461 l -1.505,0.527 -1.489,-0.569 C 243.294,668.088 200.539,631.098 168.826,582.921 140.998,540.646 122.038,492.093 112.104,442.413 l -21.6011,0 -1.082,-2.772 C 78.542,411.773 70.6605,381.346 66.2908,351.776 l -0.738,-4.992 30.8762,0 c -2.3937,-24.39 -2.3382,-49.078 -0.8609,-73.454 1.9052,-31.438 6.2009,-62.697 11.2439,-93.77 l 0.456,-2.811 2.758,-0.709 z" id="path4"/>
      </g>
      <g id="g4430">
        <g id="g4422">
          <path style="fill:#709b34;stroke:none" d="m 111.111,180.258 c 13.478,-3.468 26.815,-6.561 40.014,-9.289 l 0,175.815 -50.312,0 c -5.4754,-55.214 1.645,-113.209 10.298,-166.526 z" id="path4420" inkscape:connector-curvature="0"/>
          <path style="fill:#709b34;stroke:none" d="m 179.188,165.679 c 13.085,-2.229 26.034,-4.095 38.849,-5.611 l 0,186.716 -38.849,0 0,-181.105 z" id="path4418" inkscape:connector-curvature="0"/>
          <path style="fill:#709b34;stroke:none" d="m 372.777,158.729 c 13.488,1.425 26.819,3.251 39.996,5.465 l 0,182.59 -39.996,0 0,-188.055 z" id="path4416" inkscape:connector-curvature="0"/>
          <path style="fill:#709b34;stroke:none" d="m 444.88,170.411 c 12.329,2.706 24.522,5.75 36.584,9.121 9.418,44.809 15.767,113.543 14.198,167.252 l -50.782,0 0,-176.373 z" id="path4414" inkscape:connector-curvature="0"/>
          <path style="fill:#709b34;stroke:none" d="m 479.777,442.413 c -20.349,99.228 -74.529,181.293 -140.463,222.697 23.438,-26.576 44.27,-58.348 57.978,-87.915 20.321,-43.83 32.612,-88.999 41.22,-134.782 l 41.265,0 z" id="path4412" inkscape:connector-curvature="0"/>
          <path style="fill:#709b34;stroke:none" d="M 258.069,664.678 C 223.222,643.495 194.881,614.581 172.464,580.526 145.951,540.249 126.727,492.781 116.546,442.413 l 38.332,0 c 7.531,47.117 19.682,91.656 38.606,132.46 14.027,30.249 43.915,68.376 64.585,89.805 z" id="path6" inkscape:connector-curvature="0"/>
        </g>
        <g id="g4400">
          <path inkscape:connector-curvature="0" style="fill:#96bb2b;stroke:none" d="m 198.355,346.784 0,-184.126 c 6.595,-0.955 13.156,-1.818 19.682,-2.59 l 0,186.716 -19.682,0 z" id="path8"/>
          <path inkscape:connector-curvature="0" style="fill:#96bb2b;stroke:none" d="m 394.125,161.335 0,185.449 -21.348,0 0,-188.055 c 7.16,0.757 14.276,1.626 21.348,2.606 z" id="path10"/>
          <path inkscape:connector-curvature="0" style="fill:#96bb2b;stroke:none" d="m 130.115,175.594 c 7.042,-1.644 14.045,-3.186 21.01,-4.625 l 0,175.815 -27.08,0 c -4.472,-55.27 -0.822,-114.67 6.07,-171.19 z m 7.868,266.819 c 7.211,69.083 35.471,134.237 68.361,180.69 15.336,15.913 32.545,29.915 51.725,41.575 -20.67,-21.429 -50.558,-59.556 -64.585,-89.805 -18.924,-40.804 -31.075,-85.343 -38.606,-132.46 l -16.895,0 z" id="path12"/>
          <path inkscape:connector-curvature="0" style="fill:#96bb2b;stroke:none" d="m 464.615,175.058 c 6.934,56.681 10.622,116.281 6.136,171.726 l -25.871,0 0,-176.373 c 6.617,1.453 13.195,3.002 19.735,4.647 z m -5.831,267.355 c -11.061,66.092 -37.126,137.121 -83.745,195.253 -11.398,10.476 -23.354,19.676 -35.725,27.444 23.438,-26.576 44.27,-58.348 57.978,-87.915 20.321,-43.83 32.612,-88.999 41.22,-134.782 l 20.272,0 z" id="path14"/>
        </g>
      </g>
      <g id="g4444">
        <path id="path18" d="m 70.5995,351.139 454.4115,0 c -3.723,30.058 -10.655,59.932 -19.521,86.918 l -412.0119,0 C 84.6123,415.346 75.525,384.469 70.5995,351.139 Z" style="fill:#709b34;stroke:none" inkscape:connector-curvature="0"/>
        <path id="path20" d="m 84.0772,351.139 430.3628,0 c -3.724,29.807 -11.375,60.13 -19.368,86.918 l -390.485,0 C 95.2291,414.296 88.5784,385.339 84.0772,351.139 Z" style="fill:#2b4387;stroke:none" inkscape:connector-curvature="0"/>
      </g>
      <g id="g4493">
        <path inkscape:connector-curvature="0" style="fill:#314892;stroke:none" d="m 435.825,456.075 -278.617,0 c -0.821,-4.529 -1.598,-9.083 -2.33,-13.662 l 283.634,0 c -0.857,4.561 -1.752,9.115 -2.687,13.662 z" id="path24"/>
        <path inkscape:connector-curvature="0" style="fill:#577637;stroke:none" d="m 476.736,456.075 -40.911,0 c 0.935,-4.547 1.83,-9.101 2.687,-13.662 l 41.265,0 c -0.942,4.592 -1.957,9.146 -3.041,13.662 z m -319.528,0 -37.661,0 c -1.074,-4.528 -2.075,-9.083 -3.001,-13.662 l 38.332,0 c 0.732,4.579 1.509,9.133 2.33,13.662 z" id="path26"/>
        <path id="path28" d="m 157.208,456.075 -17.518,0 c -0.658,-4.534 -1.23,-9.089 -1.707,-13.662 l 16.895,0 c 0.732,4.579 1.509,9.133 2.33,13.662 z" style="fill:#678b36;stroke:none" inkscape:connector-curvature="0"/>
        <path id="path30" d="m 456.292,456.075 -20.467,0 c 0.935,-4.547 1.83,-9.101 2.687,-13.662 l 20.272,0 c -0.758,4.533 -1.59,9.089 -2.492,13.662 z" style="fill:#678b36;stroke:none" inkscape:connector-curvature="0"/>
      </g>
    </g>
    <g id="g4452">
      <g id="g4390" transform="translate(1.1375,0)">
        <path id="path34" d="m 277.984,663.976 -13.7,0 0,-2.699 c 4.229,-3.735 6.758,-6.155 7.589,-7.26 0.83,-1.105 1.245,-2.107 1.245,-3.007 0,-0.87 -0.27,-1.554 -0.816,-2.048 -0.545,-0.494 -1.327,-0.738 -2.341,-0.738 -1.371,0 -2.761,0.547 -4.171,1.642 l -1.303,-3.226 c 1.815,-1.369 3.939,-2.054 6.372,-2.054 2.085,0 3.731,0.548 4.938,1.648 1.207,1.1 1.81,2.566 1.81,4.395 0,1.291 -0.39,2.611 -1.177,3.965 -0.787,1.354 -2.694,3.232 -5.716,5.627 l 0,0.059 7.27,0 0,3.696 z" style="fill:#fae323;stroke:none" inkscape:connector-curvature="0"/>
        <path id="path36" d="m 296.492,654.384 c 0,3.099 -0.637,5.524 -1.917,7.279 -1.279,1.755 -3.084,2.635 -5.411,2.635 -2.298,0 -4.084,-0.88 -5.358,-2.639 -1.275,-1.761 -1.912,-4.146 -1.912,-7.158 0,-2.923 0.628,-5.309 1.883,-7.152 1.255,-1.844 3.08,-2.763 5.474,-2.763 2.307,0 4.093,0.88 5.353,2.64 1.26,1.76 1.888,4.146 1.888,7.158 z m -10.137,0.058 c 0,2.113 0.246,3.726 0.733,4.84 0.488,1.115 1.178,1.672 2.076,1.672 0.907,0 1.603,-0.552 2.085,-1.657 0.483,-1.105 0.724,-2.723 0.724,-4.855 0,-4.302 -0.926,-6.453 -2.78,-6.453 -0.898,0 -1.593,0.552 -2.09,1.662 -0.498,1.11 -0.748,2.709 -0.748,4.791 z" style="fill:#fae323;stroke:none" inkscape:connector-curvature="0"/>
        <path id="path38" d="m 305.904,663.976 0,-15.049 -0.057,0 -3.621,1.731 -0.753,-3.402 5.069,-2.347 3.678,0 0,19.067 -4.316,0 z" style="fill:#fae323;stroke:none" inkscape:connector-curvature="0"/>
        <path id="path40" d="m 330.727,644.645 0,3.461 c -0.918,0 -1.681,0.025 -2.289,0.074 -0.608,0.048 -1.279,0.195 -2.018,0.444 -0.738,0.25 -1.366,0.582 -1.882,0.998 -0.516,0.415 -0.932,0.88 -1.246,1.393 -0.314,0.514 -0.54,1.071 -0.676,1.667 l 0.088,0 c 1.033,-1.017 2.413,-1.525 4.141,-1.525 1.719,0 3.147,0.572 4.287,1.716 1.139,1.144 1.709,2.655 1.709,4.532 0,1.936 -0.676,3.569 -2.032,4.899 -1.357,1.329 -3.056,1.994 -5.093,1.994 -2.385,0 -4.258,-0.777 -5.624,-2.327 -1.366,-1.549 -2.052,-3.559 -2.052,-6.033 0,-1.623 0.261,-3.133 0.778,-4.527 0.516,-1.393 1.221,-2.557 2.119,-3.49 0.898,-0.934 1.921,-1.658 3.065,-2.176 1.144,-0.518 2.418,-0.856 3.828,-1.012 0.531,-0.059 1.497,-0.088 2.897,-0.088 z m -8.255,12.379 c 0,1.065 0.275,1.985 0.82,2.762 0.546,0.777 1.332,1.168 2.366,1.168 0.782,0 1.419,-0.308 1.906,-0.919 0.488,-0.611 0.729,-1.398 0.729,-2.366 0,-0.978 -0.26,-1.77 -0.782,-2.376 -0.521,-0.606 -1.235,-0.909 -2.143,-0.909 -0.821,0 -1.506,0.278 -2.061,0.835 -0.555,0.558 -0.835,1.159 -0.835,1.805 z" style="fill:#fae323;stroke:none" inkscape:connector-curvature="0"/>
      </g>
      <g id="g4379">
        <path id="path44" d="m 163.475,390.492 0,7.478 -15.175,0 0,9.452 16.933,0 0,7.538 -26.015,0 0,-40.321 25.194,0 0,7.537 -16.112,0 0,8.316 15.175,0 z" style="fill:#fae323;stroke:none" inkscape:connector-curvature="0"/>
        <path id="path46" d="m 194.176,410.054 c 0,1.636 -0.498,2.972 -1.504,4.009 -1.005,1.037 -2.304,1.555 -3.886,1.555 -1.563,0 -2.842,-0.529 -3.838,-1.575 -0.996,-1.048 -1.494,-2.373 -1.494,-3.989 0,-1.615 0.508,-2.951 1.523,-3.998 1.016,-1.047 2.305,-1.565 3.867,-1.565 1.582,0 2.871,0.518 3.858,1.555 0.986,1.037 1.474,2.373 1.474,4.008 z" style="fill:#fae323;stroke:none" inkscape:connector-curvature="0"/>
        <path id="path48" d="m 212.75,414.96 0,-40.321 24.96,0 0,7.537 -15.879,0 0,9.153 14.824,0 0,7.478 -14.824,0 0,16.153 -9.081,0 z" style="fill:#fae323;stroke:none" inkscape:connector-curvature="0"/>
        <path id="path50" d="m 258.862,410.054 c 0,1.636 -0.498,2.972 -1.504,4.009 -1.006,1.037 -2.305,1.555 -3.887,1.555 -1.562,0 -2.841,-0.529 -3.837,-1.575 -0.996,-1.048 -1.494,-2.373 -1.494,-3.989 0,-1.615 0.507,-2.951 1.523,-3.998 1.016,-1.047 2.304,-1.565 3.867,-1.565 1.582,0 2.871,0.518 3.857,1.555 0.986,1.037 1.475,2.373 1.475,4.008 z" style="fill:#fae323;stroke:none" inkscape:connector-curvature="0"/>
        <path id="path52" d="m 297.649,404.431 -11.835,0 -2.93,10.529 -9.433,0 12.48,-40.321 11.953,0 12.831,40.321 -9.843,0 -3.223,-10.529 z m -10.488,-6.82 9.082,0 c -2.383,-7.877 -3.926,-13.281 -4.629,-16.212 l -0.117,0 -1.875,7.657 -2.461,8.555 z" style="fill:#fae323;stroke:none" inkscape:connector-curvature="0"/>
        <path id="path54" d="m 338.664,410.054 c 0,1.636 -0.499,2.972 -1.505,4.009 -1.005,1.037 -2.304,1.555 -3.886,1.555 -1.563,0 -2.841,-0.529 -3.838,-1.575 -0.996,-1.048 -1.494,-2.373 -1.494,-3.989 0,-1.615 0.508,-2.951 1.524,-3.998 1.015,-1.047 2.304,-1.565 3.866,-1.565 1.582,0 2.871,0.518 3.858,1.555 0.986,1.037 1.475,2.373 1.475,4.008 z" style="fill:#fae323;stroke:none" inkscape:connector-curvature="0"/>
        <path id="path56" d="m 357.237,414.96 0,-40.321 24.96,0 0,7.537 -15.879,0 0,9.153 14.824,0 0,7.478 -14.824,0 0,16.153 -9.081,0 z" style="fill:#fae323;stroke:none" inkscape:connector-curvature="0"/>
        <path id="path58" d="m 410.965,410.054 c 0,1.636 -0.498,2.972 -1.504,4.009 -1.005,1.037 -2.304,1.555 -3.887,1.555 -1.562,0 -2.841,-0.529 -3.837,-1.575 -0.996,-1.048 -1.494,-2.373 -1.494,-3.989 0,-1.615 0.508,-2.951 1.523,-3.998 1.016,-1.047 2.305,-1.565 3.867,-1.565 1.582,0 2.871,0.518 3.858,1.555 0.986,1.037 1.474,2.373 1.474,4.008 z" style="fill:#fae323;stroke:none" inkscape:connector-curvature="0"/>
        <path id="path60" d="m 458.307,406.584 1.407,7.179 c -2.696,1.237 -6.231,1.855 -10.606,1.855 -6.659,0 -11.884,-1.855 -15.682,-5.554 -3.799,-3.699 -5.704,-8.604 -5.704,-14.727 0,-6.46 2.071,-11.635 6.211,-15.524 4.141,-3.888 9.472,-5.833 15.996,-5.833 4.394,0 7.812,0.619 10.253,1.855 l -1.875,7.298 c -2.441,-1.076 -5.097,-1.615 -7.968,-1.615 -3.965,0 -7.128,1.177 -9.502,3.53 -2.373,2.353 -3.564,5.604 -3.564,9.751 0,4.048 1.172,7.249 3.506,9.612 2.334,2.363 5.537,3.549 9.618,3.549 2.949,0 5.586,-0.458 7.91,-1.376 z" style="fill:#fae323;stroke:none" inkscape:connector-curvature="0"/>
      </g>
      <g id="g4396">
        <path id="path64" d="m 302.436,484.725 c -1.725,1.476 -2.352,2.403 -6.716,6.263 -4.012,3.55 -9.972,8.218 -13.691,11.359 -6.596,5.574 -12.82,10.16 -18.912,16.249 -5.722,5.721 -11.356,12.685 -16.332,19.55 -6.515,8.987 -16.107,23.055 -17.516,29.905 -0.18,0.876 1.253,1.96 2.622,0.688 3.083,-2.868 6.272,-6.821 9.261,-11.118 6.343,-9.118 12.733,-20.056 20.249,-28.174 9.162,-9.896 20.439,-17.753 31.442,-25.615 -3.945,11.668 -5.231,19.576 -6.538,27.836 -6.661,3.271 -13.435,5.855 -20.378,9.42 -6.796,3.49 -13.931,8.56 -19.067,13.582 -1.176,1.149 3.289,8.804 5.105,8.637 1.389,-0.129 5.08,-0.597 7.111,-1.541 6.812,-3.169 17.37,-7.529 23.832,-10.716 -0.557,6.291 -0.714,12.425 -0.431,18.478 1.126,24.076 9.094,44.735 24.966,59.226 0.695,0.635 2.375,0.112 1.496,-1.447 -13.828,-24.546 -14.201,-60.462 -7.352,-84.469 3.875,-2.933 8.375,-5.53 14.42,-8.453 8.623,-4.17 18.912,-7.249 29.606,-11.117 15.629,-5.654 32.262,-11.835 45.706,-17.144 1.609,-0.635 2.041,-2.765 -0.261,-3.008 -4.05,-0.428 -9.628,0.813 -14.065,1.888 -9.116,2.209 -14.822,3.342 -22.273,5.302 -5.556,1.462 -10.68,3.098 -15.107,4.236 -10.485,2.695 -18.278,4.412 -27.392,7.449 -2.708,0.903 -5.23,2.063 -7.731,3.298 1.268,-12.614 4.82,-24.87 11.438,-36.151 1.844,-3.144 -4.408,-8.083 -6.771,-7.992 -2.575,0.1 -5.247,2.317 -6.721,3.579 z" style="fill:#fae323;stroke:none" inkscape:connector-curvature="0"/>
        <path id="path66" d="m 289.369,467.666 c -1.724,1.475 -2.352,2.402 -6.716,6.263 -4.011,3.55 -9.972,8.217 -13.691,11.359 -6.596,5.573 -12.82,10.159 -18.912,16.249 -5.722,5.721 -11.356,12.684 -16.332,19.55 -6.514,8.986 -16.107,23.054 -17.516,29.905 -0.18,0.876 1.253,1.96 2.622,0.687 3.083,-2.867 6.272,-6.82 9.262,-11.117 6.342,-9.118 12.732,-20.056 20.248,-28.174 9.163,-9.897 20.44,-17.753 31.443,-25.615 -3.946,11.668 -5.232,19.575 -6.539,27.836 -6.66,3.271 -13.435,5.854 -20.378,9.42 -6.796,3.489 -13.93,8.56 -19.067,13.581 -1.175,1.15 3.289,8.805 5.105,8.637 1.389,-0.128 5.081,-0.596 7.111,-1.541 6.813,-3.169 17.37,-7.529 23.832,-10.715 -0.557,6.29 -0.714,12.425 -0.43,18.478 1.125,24.076 9.093,44.735 24.965,59.226 0.695,0.635 2.375,0.111 1.496,-1.448 -13.828,-24.546 -14.201,-60.461 -7.352,-84.469 3.875,-2.933 8.376,-5.529 14.42,-8.452 8.623,-4.17 18.912,-7.249 29.606,-11.117 15.63,-5.654 32.263,-11.836 45.706,-17.144 1.609,-0.635 2.041,-2.765 -0.261,-3.008 -4.05,-0.428 -9.628,0.812 -14.065,1.888 -9.115,2.209 -14.822,3.341 -22.273,5.301 -5.556,1.462 -10.68,3.099 -15.107,4.236 -10.485,2.695 -18.278,4.412 -27.392,7.45 -2.708,0.903 -5.229,2.063 -7.731,3.298 1.268,-12.614 4.82,-24.87 11.438,-36.152 1.844,-3.143 -4.408,-8.083 -6.771,-7.991 -2.574,0.1 -5.247,2.317 -6.721,3.579 z" style="fill:#e03735;stroke:none" inkscape:connector-curvature="0"/>
      </g>
      <g id="g4357">
        <path id="path70" d="m 295.404,218.485 c 0.08,1.091 -3.135,2.585 -4.591,2.556 -2.128,-0.044 -4.177,-1.672 -6.151,-3.913 -2.012,1.097 -3.8,1.668 -5.043,1.038 -1.243,-0.63 -2.047,-3.929 -0.104,-6.268 -2.195,0.13 -2.961,0.633 -3.787,1.286 -3.58,2.83 -0.037,7.191 7.55,11.155 -4.669,2.476 -8.885,2.162 -13.694,-1.57 -1.951,6.377 3.241,11.987 8.676,11.918 -1.498,5.788 -5.574,7.423 -9.199,9.513 6.098,5.088 16.517,3.415 21.116,-2.299 -0.211,4.323 -6.723,6.373 -8.048,7.697 -0.585,1.79 0.432,6.151 5.121,7.457 1.119,-6.509 3.851,-7.464 9.513,-11.289 -1.011,9.91 4.25,17.655 11.185,10.663 -5.747,-2.941 -3.567,-8.31 0.523,-12.334 0.102,4.73 2.47,8.742 8.154,7.319 -0.349,-4.155 -0.794,-11.307 0.584,-15.908 0.386,-1.287 2.273,-1.945 5.792,-0.816 -1.185,-4.6 -3.205,-10.98 -2.822,-15.37 1.777,0.245 4.495,-0.555 5.958,-2.614 -2.845,-1.775 -4.985,-3.502 -5.908,-4.872 -1.123,-0.816 -0.845,-4.369 -0.814,-6.353 0.035,-2.18 4.745,-0.293 5.05,-5.185 -5.157,1.12 -7.596,-1.566 -8.572,-4.916 2.021,-1.008 6.342,-3.168 2.718,-5.643 -1.011,1.989 -2.126,2.93 -3.973,2.929 0,-2.929 -1.951,-5.823 -5.017,-6.797 -0.244,-1.637 -0.488,-3.065 -1.882,-4.702 -0.732,2.616 -1.777,4.602 -4.39,3.656 -1.753,-0.566 -4.944,-1.895 -7.538,-0.997 -1.042,0.361 -1.791,0.418 -4.322,2.111 -2.456,1.002 -5,-1.073 -6.225,2.022 -0.335,0.848 -0.673,2.882 -1.009,3.781 -1.528,-0.002 -2.507,-0.169 -3.975,-0.064 -1.392,0.1 -2.108,1.513 -1.364,2.751 0.526,0.875 1.514,1.749 1.34,2.842 -0.255,1.601 -0.441,3.274 0.433,4.233 0.873,0.959 2.809,0.788 3.868,2.049 0.697,0.829 1.283,2.37 1.879,3.789 -0.268,0.026 -0.544,0.03 -0.832,0.012 -4.051,-0.261 -7.892,-4.704 -11.316,-8.101 3.29,7.951 8.363,10.158 9.532,10.055 1.015,-0.09 2.1,-0.353 3.193,-0.673 0.291,0.595 0.594,1.103 0.92,1.434 -0.139,3.787 -0.748,5.999 0.506,7.426 2.333,2.654 5.238,-0.88 6.965,0.992 z m 2.112,-8.614 c -0.897,-1.714 -2.437,-3.009 -4.254,-2.894 -1.315,0.084 -2.922,0.608 -4.589,1.141 0.49,3.718 3.803,4.861 5.482,4.665 1.17,-0.137 2.473,-1.008 3.361,-2.912 z m -8.89,-3.25 c 0.707,-0.389 1.395,-0.906 2.128,-1.481 2.048,-1.607 3.716,-3.249 7.822,-1.633 -0.006,-0.271 -0.016,-0.549 -0.031,-0.835 -0.091,-1.719 -1.742,-3.567 -4.704,-2.723 -3.391,0.965 -5.042,3.776 -5.215,6.672 z m 16.035,-14.634 c -0.53,0.601 -1.397,-0.01 -1.288,-1.034 0.262,-2.455 3.545,-4.78 5.417,-3.679 1.704,1.002 2.845,4.689 1.777,7.071 -0.402,0.896 -1.794,0.823 -1.861,-0.288 -0.088,-1.463 0.221,-3.194 -0.752,-3.955 -1.301,-1.018 -2.2,0.647 -3.293,1.885 z m -8.206,-1.99 c -1.487,1.106 -2.822,0.546 -4.495,1.453 -1.476,0.801 -1.845,1.3 -2.3,1.638 -0.888,0.657 -0.778,-0.111 -0.392,-0.676 0.34,-0.498 0.576,-0.981 1.275,-1.576 1.022,-0.87 2.844,-1.813 4.874,-2.527 1.11,-0.39 1.425,0.161 1.483,0.475 0.097,0.529 -0.296,1.102 -0.445,1.213 z m -5.07,6.862 c 2.021,1.161 3.554,0.898 4.233,-0.105 -0.296,-1.048 -0.946,-1.484 -1.672,-1.414 -1.088,0.103 -1.812,0.698 -2.561,1.519 z" style="fill:#fae323;stroke:none" inkscape:connector-curvature="0"/>
        <path id="path72" d="m 293.836,250.054 c -1.568,0.695 -3.798,2.577 -4.809,5.124 3.032,1.777 5.75,3.345 7.632,5.854 -0.558,-0.105 -1.116,-0.209 -1.673,-0.208 -0.557,0 -1.115,0.105 -1.673,0 0.775,3.545 3.891,3.221 3.534,5.811 -0.124,0.904 -0.431,1.845 -0.565,2.872 -0.319,2.456 1.431,3.59 1.739,5.065 0.316,1.507 0.175,2.694 1.941,4.189 l -3.385,5.278 c 1.081,3.304 1.269,7.783 -0.396,10.09 -1.565,2.167 -5.273,2.779 -7.467,-1.326 -1.9,3.593 -0.087,8.127 6.376,8.367 -3.483,3.757 -5.68,6.512 -7.601,9.096 -0.873,1.174 -1.895,2.272 -2.376,3.319 -1.737,3.777 0.326,7.956 4.956,9.697 1.432,0.538 3.591,0.036 5.231,-2.044 -4.967,0.072 -6.124,-3.203 -5.954,-4.76 0.148,-1.349 1.383,-2.986 2.253,-3.949 3.181,-0.566 8.274,-4.326 10.495,-8.746 0.337,4.113 4.029,8.496 8.99,4.81 -4.808,-3.937 -5.993,-7.594 -2.509,-12.019 2.927,4.465 6.586,5.089 10.349,4.806 1.46,5.531 2.136,10.465 1.396,14.132 -0.346,1.718 -2.851,3.171 -4.767,3.262 -1.374,0.065 -2.025,-0.515 -3.42,-1.729 -0.724,-0.631 -1.497,0.555 -1.675,0.868 l -1.402,2.457 c -1.034,1.814 -1.023,1.799 0.424,3.059 0.691,0.603 1.647,1.298 1.596,2.136 -0.023,0.372 -0.68,1.826 -0.158,2.141 1.08,0.181 2.294,1.369 4.649,3.213 1.071,0.839 1.707,-1.277 3.049,-1.64 0.447,-0.12 1.42,0.112 1.667,1.478 0.079,0.433 0.871,0.35 1.677,0.406 0.388,0.026 0.8,0.476 1.224,0.48 0.708,0.006 1.454,-0.48 2.192,-0.76 0.918,-0.348 1.107,-2.141 2.197,-3.487 0.848,-1.048 1.571,-2.647 2.677,-2.007 1.134,0.654 1.934,-0.474 3.609,-1.021 0.972,-0.317 0.166,-3.904 1.02,-4.424 1.862,-0.062 3.132,-0.121 4.116,-1.525 -4.364,-4.475 -3.435,-8.964 -2.964,-8.936 5.037,0.305 6.719,-2.573 7.459,-5.491 -2.33,1.023 -5.083,1.485 -6.276,0.538 -0.505,-0.401 -0.833,-2.931 1.677,-2.73 1.83,0.146 4.159,0.392 5.551,-0.981 1.393,-1.372 0.63,-4.08 2.346,-5.549 1.371,-1.173 3.54,-1.881 7.155,-1.622 -1.664,-3.162 -4.318,-4.07 -7.109,-3.579 -3.731,0.657 -4.66,4.336 -7.317,4.74 -4.546,0.691 -9.293,-1.214 -9.198,-7.541 -6.9,0.283 -8.617,-2.626 -9.304,-5.015 -0.25,-0.872 -0.476,-3.868 3.032,-1.567 4.905,3.218 13.18,0.788 15.806,-5.758 0.571,-1.423 6.56,-0.234 4.891,5.859 5.444,0.567 7.516,-11.484 -3.597,-8.977 -1.452,-6.511 1.493,-8.321 5.417,-9.511 1.746,1.088 2.956,2.535 3.978,3.606 -1.16,5.252 1.399,8.096 3.812,8.209 2.413,0.114 5.307,-2.608 5.025,-6.603 -2.687,0.688 -4.116,2.393 -4.979,1.977 -0.294,-0.14 -0.8,-2.505 -0.545,-2.774 1.566,-1.648 3.649,-3.662 1.509,-7.518 -1.286,-2.318 -4.61,-4.67 -8.31,-4.511 -2.221,0.095 -4.023,0.262 -6.087,2.657 -0.846,0.983 -1.418,-0.085 -1.167,-1.091 0.561,-2.249 3.557,-4.108 5.933,-4.665 1.909,1.389 3.614,1.994 5.415,1.75 2.303,-0.313 4.33,-1.866 6.002,-3.253 1.686,-1.398 3.27,-4.27 3.249,-6.302 -0.018,-1.88 -1.114,-4.095 -3.211,-4.828 -2.233,-0.78 -5.834,-0.03 -6.799,3.474 1.154,-0.031 1.652,-0.253 2.316,-0.08 1.109,0.288 1.626,1.329 0.974,2.403 -0.603,0.993 -2.939,2.567 -5.866,3.721 -6.217,-3.661 -9.944,1.144 -10.872,1.95 -0.749,0.65 -2.343,0.134 -1.753,-1.689 0.583,-1.801 2.522,-6.925 7.463,-8.587 3.309,-1.113 4.748,0.422 8.105,-0.728 2.45,-0.84 5.956,-4.249 6.902,-5.785 0.583,-0.946 1.539,-1.33 2.36,-5.727 -0.493,-5.118 -5.974,-9.623 -10.36,-3.563 1.24,0.65 6.044,7.185 -3.487,10.533 -8.551,-5.416 -14.6,1.037 -15.062,1.402 -1.3,1.027 -2.563,-0.372 -1.367,-1.758 2.605,-3.019 6.182,-6.349 10.748,-9.205 4.646,-2.905 10.068,-5.78 13.923,-9.752 3.637,-3.748 6.264,-8.382 6.231,-14.669 -0.021,-4.136 -3.86,-11.072 -10.607,-12.015 -3.785,-0.529 -7.435,0.364 -14.035,5.778 -0.614,-0.206 -1.205,-0.89 -1.768,-1.373 -0.379,-0.326 0.152,-1.707 -0.264,-2.047 -3.203,-2.627 -4.992,-4.856 -6.578,-7.561 -2.945,1.763 -1.457,4.999 1.101,8.026 -0.34,3.609 -3.534,5.501 3.863,10.234 0.168,2.269 0.865,12.748 -8.937,17.278 9.06,5.174 14.461,-4.213 15.472,-8.362 1.655,2.687 5.348,3.978 8.362,2.825 -5.419,5.087 -20.232,12.199 -25.154,21.28 -3.09,5.702 -1.255,13.061 1.909,17.528 4.336,6.122 10.464,9.43 9.588,16.352 -0.21,1.665 -1.02,3.282 -3.277,4.636 -2.333,-0.204 -4.679,-1.449 -7.093,-3.434 -0.675,-0.555 -0.521,-3.31 -2.023,-5.226 -2.156,-2.75 -3.789,-2.693 -6.185,-6.878 -0.729,-1.273 -0.329,-2.325 -1.197,-3.46 -0.401,-0.524 -0.999,-0.742 -1.368,-1.28 -0.909,-1.324 1.004,-3.906 0.095,-5.23 -0.837,-0.14 -1.255,0.978 -2.091,0.839 -0.836,1.208 -2.419,0.816 -3.113,1.817 -0.786,1.134 -0.967,2.384 0.619,3.415 1.005,0.653 2.015,1.352 2.494,1.765 -1.169,3.919 -4.574,6.156 -6.69,6.021 -2.514,-0.161 -8.291,-4.403 -7.902,-8.182 -0.658,-1.114 -1.333,-2.315 -2.029,-3.585 z m 55.618,-38.687 c 3.485,-4.539 4.289,-9.381 2.3,-12.571 -1.752,-2.809 -6.269,-4.648 -9.304,-1.361 -2.081,2.254 -2.006,6.726 0.21,8.484 2.019,1.603 6.237,0.106 6.794,-3.142 0.558,1.833 1.15,5.186 0,8.59 z" style="fill:#fae323;stroke:none" inkscape:connector-curvature="0"/>
        <path id="path74" d="m 241.098,299.399 c 0.74,-0.205 1.037,1.748 0.997,2.993 -0.028,0.877 -0.391,1.06 -1.083,1.189 -1.435,0.268 -2.352,0.725 -4.068,1.648 0.078,-2.989 1.777,-5.172 4.154,-5.83 z" style="fill:#fae323;stroke:none" inkscape:connector-curvature="0"/>
        <path id="path76" d="m 246.94,293.879 c -0.764,-0.855 -1.567,-1.899 -2.673,-3.778 1.834,-0.449 4.365,0.218 5.501,1.736 0.633,0.847 -1.661,3.348 -2.828,2.042 z" style="fill:#fae323;stroke:none" inkscape:connector-curvature="0"/>
        <path id="path78" d="m 250.676,316.636 c -1.409,0.882 -2.197,2.067 -3.057,3.286 2.04,0.348 3.277,0.663 4.814,-0.342 1.009,-0.66 0.75,-2.199 0.333,-2.89 -0.535,-0.889 -1.272,-0.566 -2.09,-0.054 z" style="fill:#fae323;stroke:none" inkscape:connector-curvature="0"/>
        <path id="path80" d="m 241.767,309.881 c 0.243,-0.165 1.272,0.707 1.967,2.089 0.871,1.731 0.454,2.175 -0.979,2.991 -0.719,0.41 -1.494,0.768 -2.369,1.638 -0.743,-2.405 -0.658,-5.33 1.381,-6.718 z" style="fill:#fae323;stroke:none" inkscape:connector-curvature="0"/>
        <path id="path82" d="m 308.999,316.223 c 1.628,0.398 0.186,2.285 -0.627,3.037 -1.29,1.191 -4.46,0.838 -5.854,0.629 1.324,-3.108 4.159,-4.235 6.481,-3.666 z" style="fill:#fae323;stroke:none" inkscape:connector-curvature="0"/>
        <path id="path84" d="m 309.94,328.583 c 0.56,-0.582 1.696,-0.487 2.346,0.112 0.649,0.598 0.813,1.701 0.267,2.297 -1.115,1.217 -1.568,2.305 -1.777,4.086 -1.861,-1.341 -2.997,-4.252 -0.836,-6.495 z" style="fill:#fae323;stroke:none" inkscape:connector-curvature="0"/>
        <path id="path86" d="m 319.729,333.103 c -0.34,-0.951 1.395,-1.794 2.314,-1.573 0.551,0.132 0.864,0.79 1.131,1.333 0.967,1.961 1.419,3.193 1.666,4.801 -1.929,-0.262 -4.186,-1.98 -5.111,-4.561 z" style="fill:#fae323;stroke:none" inkscape:connector-curvature="0"/>
        <path id="path88" d="m 333.609,326.608 c -0.06,-0.388 -0.35,-1.269 -1.269,-1.049 -0.551,0.132 -1.482,0.649 -1.653,1.229 -0.549,1.856 -0.27,3.612 -0.307,5.324 1.719,-0.786 3.583,-3.217 3.229,-5.504 z" style="fill:#fae323;stroke:none" inkscape:connector-curvature="0"/>
        <path id="path90" d="m 291.954,258.519 c -1.324,-0.487 -2.543,-1.079 -3.867,-0.52 -9.594,3.713 -16.761,6.765 -24.388,11.756 -7.289,4.771 -17.625,9.48 -21.465,10.503 -2.555,0.681 -7.01,-1.408 -7.992,-6.065 -0.477,-2.258 1.259,-7.265 7.849,-3.801 -1.352,-4.777 -7.114,-6.297 -10.907,-3.263 -2.211,1.768 -3.369,4.937 -3.224,7.733 0.201,3.898 2.644,7.695 5.903,9.79 1.547,0.995 3.51,1.652 6.26,1.887 3.291,0.283 7.373,-0.62 11.481,-3.977 1.021,-0.835 1.882,1.532 2.509,2.822 2.735,-0.769 4.138,0.137 4.56,1.502 0.422,1.364 -0.135,3.187 -2.574,4.251 2.227,1.643 5.11,0.693 5.867,-1.218 0.914,-2.306 -0.465,-5.653 -3.776,-7.039 1.812,-1.882 3.244,-3.286 4.077,-5.541 0.162,-0.441 1.38,-0.673 1.427,0.452 0.2,4.791 2.34,9.214 4.74,13.241 -3.833,3.479 -9.234,6.844 -13.067,7.528 -1.219,-1.464 -2.039,-3.89 -4.069,-4.401 -1.059,-0.267 -1.599,0.383 -2.607,0.667 -0.587,0.164 -1.061,0.213 -1.507,0.578 -0.535,0.438 -0.653,1.891 -1.195,2.246 -1.124,0.735 -2.454,1.131 -2.852,1.952 -0.285,0.589 1.173,2.577 0.429,4.353 -0.377,0.899 2.376,1.357 2.965,2.14 -1.388,0.973 -3.046,2.559 -2.673,3.164 0.639,1.033 1.827,2.793 2.695,4.27 0.553,0.94 3.287,-0.577 3.733,-0.42 0.31,0.109 0.883,-0.069 0.57,1.409 -0.163,0.77 0.629,0.885 2.021,1.472 0.521,0.221 1.475,0.562 1.905,0.909 0.599,0.484 1.48,0.249 2.781,-1.166 0.825,-0.898 1.618,-1.165 2.404,-1.078 1.988,0.22 1.821,2.044 2.383,3.286 0.936,2.071 2.931,2.272 -0.188,5.599 4.049,1.374 6.193,-1.877 6.158,-3.618 -0.046,-2.24 -2.406,-4.716 -1.663,-6.833 0.703,-2.001 3.868,-1.465 3.868,-0.207 0,2.86 0.941,3.518 3.031,3.864 -0.853,-3.05 0.964,-5.381 0.781,-7.165 -0.09,-0.873 0.579,-0.92 0.892,-0.674 2.199,1.735 3.656,3.408 5.329,3.206 1.433,-0.174 3.13,-1.912 4.706,-4.149 -1.698,0.164 -2.842,0.265 -4.008,0.041 -1.5,-0.286 -1.79,-0.938 -2.962,-2.063 -1.2,-1.152 0.065,-1.921 0.954,-3.069 2.115,-2.728 4.009,-6.27 5.494,-11.316 -1.707,-1.291 -3.426,-3.616 -3.803,-5.079 -0.868,-3.372 1.49,-6.858 3.777,-7.6 1.233,-0.4 4.021,-0.825 12.779,-0.179 0.327,-3.767 -5.912,-6.743 -2.547,-11.603 -0.751,-1.78 -4.011,-3.644 -4.502,-5.954 -0.215,-1.009 0.306,-2.293 1.508,-2.623 z" style="fill:#fae323;stroke:none" inkscape:connector-curvature="0"/>
        <path inkscape:connector-curvature="0" style="fill:#fae323;stroke:none" d="m 241.136,195.65 c -0.961,0.102 -2.465,0.009 -4.383,0.768 0.439,-3.146 2.119,-4.835 4.499,-5.32 0.863,-0.176 0.752,4.46 -0.116,4.552 z" id="path92"/>
        <path inkscape:connector-curvature="0" style="fill:#fae323;stroke:none" d="m 236.737,250.8 c -1.027,0.109 -3.159,0.22 -5.42,1.24 0.47,-3.363 2.267,-5.17 4.812,-5.689 0.923,-0.189 1.536,4.351 0.608,4.449 z" id="path94"/>
        <path inkscape:connector-curvature="0" style="fill:#fae323;stroke:none" d="m 238.356,239.854 c -1.235,-0.455 -2.341,-1.267 -4.309,-1.771 2.021,-1.911 4.304,-2.356 6.197,-1.386 0.687,0.352 -1.17,3.422 -1.888,3.157 z" id="path96"/>
        <path inkscape:connector-curvature="0" style="fill:#fae323;stroke:none" d="m 239.791,261.924 c -0.129,0.861 -0.514,1.517 -1.416,2.643 -0.965,-1.155 -1.65,-2.658 -1.648,-4.082 0.003,-1.801 0.637,-2.504 1.448,-2.319 2.27,0.516 1.875,2.026 1.616,3.758 z" id="path98"/>
        <path inkscape:connector-curvature="0" style="fill:#fae323;stroke:none" d="m 250.894,184.562 c -0.647,-0.95 -1.735,-3.298 -1.921,-5.16 2.166,0.241 4.67,2.044 5.617,4.339 0.409,0.989 -2.957,1.906 -3.696,0.821 z" id="path100"/>
        <path inkscape:connector-curvature="0" style="fill:#fae323;stroke:none" d="m 262.184,186.492 c 0.244,-1.461 0.199,-3.616 -0.261,-5.729 3.062,2.052 3.904,4.462 3.542,6.917 -0.156,1.059 -3.498,0.107 -3.281,-1.188 z" id="path102"/>
        <path inkscape:connector-curvature="0" style="fill:#fae323;stroke:none" d="m 245.912,211.94 c -1.143,0.942 -2.929,1.979 -4.989,2.637 2.692,1.747 4.354,2.066 5.87,1.34 0.724,-0.346 1.179,-1.562 1.265,-2.356 0.113,-1.063 -1.133,-2.455 -2.146,-1.621 z" id="path104"/>
        <path inkscape:connector-curvature="0" style="fill:#fae323;stroke:none" d="m 247.593,264.555 c -0.881,1.302 -1.734,2.609 -3.124,4.264 3.208,0.04 5.622,-0.998 6.515,-2.419 0.514,-0.818 -0.239,-1.402 -0.959,-1.959 -0.925,-0.717 -1.664,-1.02 -2.432,0.114 z" id="path106"/>
        <path inkscape:connector-curvature="0" style="fill:#fae323;stroke:none" d="m 277.111,222.874 c -5.785,-6.895 -12.823,-12.009 -15.994,-27.598 1.498,-1.219 4.669,-2.649 3.345,-4.288 -1.857,-1.52 -2.669,-1.365 -4.631,-3.934 -0.616,0.337 -1.547,1.722 -2.164,2.059 -0.533,-0.774 -0.753,-1.861 -1.287,-2.635 -0.514,-1.197 -2.111,1.212 -3.201,1.204 -1.401,-0.009 -2.728,-2.336 -4.137,-1.002 -1.03,1.405 -0.074,3.125 -0.268,4.53 -1.616,-0.071 -4.59,-0.876 -4.429,0.729 0.051,2.438 0.205,3.2 -1.313,5.429 0.923,2.052 4.874,0.925 6.412,2.055 1.858,1.363 3.154,3.888 3.415,7.35 -0.666,1.709 -1.749,2.685 -5.76,1.355 -0.523,0.228 -0.655,1.796 0.708,3.825 0.713,1.062 2.141,2.556 3.483,3.396 0.854,-0.331 1.636,-1.207 2.833,-1.666 1.895,-0.727 2.597,0.024 2.715,1.685 0.363,5.085 0.364,6.577 0.12,7.969 -0.31,1.764 -3.09,3.783 -5.487,4.037 -5.41,0.572 -6.497,-3.522 -8.543,-4.292 -0.871,7.018 5.287,9.435 8.206,9.687 2.918,0.252 6.15,-1.241 9.878,-7.596 1.671,1.673 2.333,4.584 1.916,6.007 -0.536,1.829 -2.242,3.313 -2.438,5.077 2.927,-0.176 4.831,0.118 5.017,1.672 0.205,1.712 -2.3,1.949 -3.554,3.133 -3.85,0.051 -8.485,1.377 -13.171,2.825 -0.802,-1.427 -2.656,-4.564 -4.6,-5.435 -2.008,-0.899 -4.079,1.985 -3.922,3.24 0.159,1.271 1.985,2.194 1.723,3.449 -0.794,0.336 -2.419,0.653 -2.801,1.426 -0.89,1.805 -1.067,3.347 -0.342,4.811 0.392,0.791 2.288,1.239 3.589,1.91 -1.935,1.564 -2.465,2.358 -2.671,3.857 -0.143,1.032 3.445,4.944 4.07,4.274 0.915,-1.93 2.96,-4.923 4.104,-4.427 1.088,0.471 1.182,2.151 0.831,3.566 -0.167,0.672 -0.049,1.262 0.236,1.506 0.864,0.739 1.082,1.248 1.763,1.734 0.6,0.429 1.656,0.867 2.515,1.101 1.143,0.311 2.728,-2.124 3.358,-4.808 0.372,-1.586 2.32,-0.943 2.75,0.217 1.147,3.088 2.106,5.703 6.958,4.59 -1.892,-4.643 -0.494,-7.603 2.823,-9.303 0.645,4.814 2.526,6.659 5.122,7.004 0.836,-2.98 1.311,-7.197 6.593,-9.066 -0.226,-1.565 -0.481,-3.115 -0.062,-4.108 -1.723,0.394 -4.577,1.72 -6.256,1.708 -4.294,-0.033 -7.871,-2.921 -9.265,-9.754 3.92,0.387 8.206,-1.04 9.617,-5.122 -6.071,-3.383 -9.643,-9.464 -6.063,-18.399 2.335,4.465 4.879,6.836 8.259,5.016 z" id="path108"/>
      </g>
    </g>
  </g>
</svg>