<?xml version="1.0" encoding="UTF-8" standalone="no"?>
<svg id="svg95" height="247.62247" viewBox="0 0 296.25002 185.71685" width="395" xmlns="http://www.w3.org/2000/svg">
   <g id="surface46" transform="matrix(.37216059 0 0 .37216059 -8.8533517 -16.963836)">
      <path id="path2" d="m705.04297 341.32812l114.77344-68.71875c-.22657-.375-.45704-.7539-.6875-1.13281-82.69532-135.64844-229.72657-225.894529-397.32813-225.894529-168.06641 0-315.44922 90.746089-398.011717 227.019529l114.699217 68.52735zm0 0" fill="#1175c7"/>
      <path id="path4" d="m421.80078 175.41016c-116.36719 0-219.12891 59.65625-280.76172 150.73828-2.10937 3.11718-4.17578 6.26953-6.1875 9.46093 60.79688 96.39063 166.59766 160.19532 286.94922 160.19532 120.34766 0 226.14844-63.80469 286.94531-160.19532-1.88672-2.99218-3.8164-5.94921-5.78515-8.875-61.58594-91.41406-164.54297-151.32421-281.16016-151.32421" fill="#1175c7"/>
      <path id="path6" d="m421.80078 175.41016c116.61719 0 219.57422 59.91015 281.16016 151.32421l96.90625-58.01953-.008-.004c-81.19122-125.371-220.20294-208.027246-378.05841-208.027246-157.65234 0-296.51172 82.441406-377.746092 207.539066l96.984372 57.92578c61.63281-91.08203 164.39453-150.73828 280.76172-150.73828" fill="#fff"/>
      <path id="path8" d="m621.13672 258.73437v153.7461c27.46484-21.60547 51.5-47.5625 71.11328-76.8711-19.61328-29.3125-43.64844-55.26953-71.11328-76.875" fill="#eb1923"/>
      <path id="path10" d="m548.99219 215.71484v239.78516c22.98047-9.92969 44.6289-22.45703 64.58203-37.24219v-165.30078c-19.95313-14.78516-41.60156-27.3125-64.58203-37.24219" fill="#fff"/>
      <path id="path12" d="m461.41406 191.90234v287.41016c27.90235-3.44922 54.72656-10.48828 80.01563-20.65625v-246.09766c-25.28907-10.16797-52.11328-17.20703-80.01563-20.65625" fill="#eb1923"/>
      <path id="path14" d="m421.80078 189.46484c-11.98437 0-23.81641.66407-35.46875 1.94922v288.38672c11.65234 1.28516 23.48438 1.94922 35.46875 1.94922 10.8125 0 21.50391-.54688 32.05078-1.59766v-289.08984c-10.54687-1.05078-21.23828-1.59766-32.05078-1.59766" fill="#fff"/>
      <path id="path16" d="m300.08984 213.40625v244.40234c24.86719 10.19922 51.23828 17.375 78.67969 21.0625v-286.52734c-27.44141 3.6875-53.8125 10.86328-78.67969 21.0625" fill="#eb1923"/>
      <path id="path18" d="m220.37109 260.41016c-26.59375 21.26562-49.91015 46.63671-69.02343 75.19921 19.11328 28.5625 42.42968 53.92969 69.02343 75.19532zm0 0" fill="#eb1923"/>
      <path id="path20" d="m227.93359 254.53125v162.15234c19.9336 15.01172 41.58203 27.77344 64.59375 37.91016v-237.97266c-23.01172 10.13672-44.66015 22.89844-64.59375 37.91016" fill="#fff"/>
      <path id="path22" d="m127.54688 391.88672l5.65234-7.76953-.0469-.0547-8.85156 3.85547zm10.84374-17.3711l5.17579 6.32032-17.08594 26.7539-5.48828-6.69922 2.61328-3.61328-5.46484-6.67187-4.10157 1.79297-5.32031-6.5zm0 0" fill="#eb1923"/>
      <path id="path24" d="m152.26172 391.07812l5.78906 6.03516-7.50391 7.19922.0508.0508 12.66796-1.8125 7.13282 7.4375-15.33203 1.05078-5.35547 20.98047-7.21095-7.51955 3.85156-12.96094-3.64844.28906-6.4375 6.16407-5.79296-6.03516zm0 0" fill="#1175c7"/>
      <path id="path26" d="m173.33984 423.11719l-5.65234-5.10157 5.17187-5.74609 17.52344 15.80469-5.17187 5.75-5.65235-5.10156-15.01172 16.6875-6.21875-5.61329zm0 0" fill="#1175c7"/>
      <path id="path28" d="m193.51953 430.51172l6.48047 5.28125-19.05859 23.39453-6.48047-5.27734zm0 0" fill="#1175c7"/>
      <path id="path30" d="m197.96484 472.08594l-7.54297-5.53516 11.34766-29.09766 6.80859 4.9961-7.25781 17.37109.0625.043 14.3711-12.15234 6.92968 5.08203zm0 0" fill="#1175c7"/>
      <path id="path32" d="m224.92578 454.08594l6.99219 4.60156-16.59375 25.21875-6.9961-4.60938zm0 0" fill="#1175c7"/>
      <path id="path34" d="m237.88672 471.50391l-6.57031-3.83985 3.89843-6.67969 20.35938 11.90235-3.89453 6.67969-6.56641-3.83985-11.30859 19.39063-7.22657-4.21875zm0 0" fill="#1175c7"/>
      <path id="path36" d="m259.61328 475.01172l20.20703 9.78906-3.375 6.96094-12.68359-6.14844-1.64453 3.38281 11.52343 5.58594-3.13671 6.45703-11.51954-5.57812-1.64062 3.38281 13.05859 6.32812-3.375 6.95704-20.58203-9.97266zm0 0" fill="#1175c7"/>
      <path id="path38" d="m288.33984 496.64453l-7.09375-2.75781 2.8125-7.20313 21.98828 8.55078-2.8125 7.20704-7.09375-2.75782-8.16015 20.90235-7.80469-3.03907zm0 0" fill="#1175c7"/>
      <path id="path40" d="m328.1875 509.83594c3.63672.98047 5.70703 4.99609 4.61328 9.03125-1.08984 4.04297-4.91016 6.51172-8.54687 5.53515-3.63672-.98437-5.66016-5.02734-4.57032-9.0664 1.09375-4.03907 4.86719-6.47657 8.50391-5.5" fill="#1175c7"/>
      <path id="path42" d="m355.52734 508.36719l8.2461 1.44922-5.19141 29.71484-8.24609-1.45313zm0 0" fill="#eb1923"/>
      <path id="path44" d="m369.19531 510.84375l8.5.93359 6.08594 16.89453.0742.0117 1.77734-16.04297 7.85938.85938-3.32032 29.97656-8.08593-.8789-6.46094-17.28125-.0781-.008-1.8125 16.37891-7.85937-.85938zm0 0" fill="#1175c7"/>
      <path id="path46" d="m399.69141 513.93359l8.55468.19141 7.5625 16.29297h.0742l.34766-16.1211 7.90625.17188-.64063 30.13672-8.13672-.17578-7.97656-16.64453h-.0742l-.35156 16.46484-7.90625-.17188zm0 0" fill="#1175c7"/>
      <path id="path48" d="m438.26953 533.75391c.0586.75781.22266 1.42578.45313 1.95703.73828 1.77343 2.58593 2.01562 4.14062 1.90234 1.36719-.0977 3.41406-.75781 3.25391-2.99219-.11719-1.55859-1.32032-1.89453-6.09766-3.02734-4.38281-1.03516-9.375-1.98047-9.81641-8.05078-.50781-6.95313 4.625-10.33594 10.20313-10.7461 5.87891-.42578 11.25781 1.67969 12.01953 8.99219l-7.89062.57813c.0703-1.14844-.44141-1.8711-1.16016-2.32813-.72266-.5-1.6875-.63672-2.52344-.58203-1.13672.0859-2.96875.55859-2.85156 2.24219.3125 2.14062 4.21484 2.32422 8.13672 3.21875 3.91406.90234 7.85547 2.60937 8.25781 8.125.57031 7.83594-5.73437 10.83984-11.76562 11.28125-3.07422.22656-11.92579-.35547-12.70313-9.95703zm0 0" fill="#1175c7"/>
      <path id="path50" d="m473.9375 529.13281l-3.80469-8.82031-.0742.008-1.1914 9.58985zm-9.42188-18.17187l8.07422-1.23828 14.32032 28.3164-8.56641 1.31641-1.78125-4.08985-8.52734 1.31641-.55079 4.44141-8.30078 1.27734zm0 0" fill="#1175c7"/>
      <path id="path52" d="m490.65625 514.19922l-7.42188 1.64453-1.67187-7.54297 23.01172-5.11328 1.67578 7.54687-7.42578 1.65235 4.85937 21.89453-8.16406 1.81641zm0 0" fill="#1175c7"/>
      <path id="path54" d="m521.01172 519.32812c.21484.73047.51562 1.34375.85156 1.82032 1.10156 1.5625 2.95703 1.41015 4.44922.96875 1.31641-.39063 3.17187-1.46875 2.53906-3.61328-.44531-1.4961-1.69531-1.57032-6.59765-1.66016-4.50391-.0742-9.57422.0625-11.30079-5.76953-1.97656-6.67969 2.3086-11.07422 7.66407-12.66406 5.64843-1.67579 11.34765-.76172 13.65625 6.21875l-7.58203 2.24609c-.17969-1.13672-.83204-1.73438-1.63282-2.02734-.80859-.33204-1.77734-.26563-2.58203-.0274-1.09375.32422-2.78125 1.17578-2.30078 2.79297.75781 2.02734 4.60547 1.37109 8.62109 1.41406 4.01563.043 8.22657.86719 9.79297 6.16797 2.23438 7.53125-3.28125 11.8086-9.07422 13.52344-2.94921.875-11.71875 2.19531-14.52343-7.01563zm0 0" fill="#1175c7"/>
      <path id="path56" d="m556.55078 493.875c3.48828-1.41406 7.5625.52734 9.13672 4.40625 1.57422 3.87109.0234 8.15625-3.46484 9.57031-3.48829 1.42188-7.54297-.58203-9.11719-4.45703-1.57422-3.875-.043-8.09766 3.44531-9.51953" fill="#1175c7"/>
      <path id="path58" d="m577.70312 476.21484l7.40235-3.89062 10.47265 19.86719 10.64063-5.59375 3.60547 6.84765-18.04297 9.48438zm0 0" fill="#eb1923"/>
      <path id="path60" d="m622.33203 473.22266l-7.01172-6.57422-.0625.043 2.71875 9.26171zm-15.90234-12.91407l6.93359-4.35156 24.44531 20.26953-7.35156 4.61719-3.26562-3.03906-7.31641 4.59375 1.26172 4.29297-7.125 4.47656zm0 0" fill="#1175c7"/>
      <path id="path62" d="m656.73828 458.35937c.10938 3.2461-1.51172 5.89454-3.87891 7.67969-6.40625 4.82031-14.52343 2.26563-19.68359-4.58203-6.91406-9.17969-3.88672-17.23047 1.00391-20.91016 5.52734-4.16015 11.53515-3.44921 16.78125 1.48829l-6.41016 4.82421c-1.56641-1.57031-3.83984-1.8164-5.41797-.625-4.58984 3.45313-.39453 8.70313.85156 10.35547 1.69922 2.26172 5.4961 5.58985 9.56641 2.52735 1.55078-1.16407 2.46484-3.23438 1.45313-5.27344l-2.94532 2.21875-3.88672-5.16406 8.86719-6.67578 9.98438 13.25781-4.21485 3.18359zm0 0" fill="#1175c7"/>
      <path id="path64" d="m672.84766 434.56641l-8.02735-5.28125-.0586.0547 4.26953 8.66407zm-17.86719-10.01954l6.08203-5.46484 27.53125 15.82031-6.44531 5.79688-3.73047-2.44141-6.41797 5.76953 1.98047 4.01953-6.2461 5.61719zm.91015-5.01953c.78907-.70703.73438-2.14062-.0312-2.98828-.76171-.84375-2.17578-.99609-2.9414-.3125-.76172.6875-.82031 2.10156-.0273 2.98828.79297.875 2.20704 1.02344 3 .3125m-4.66406-5.17968c1.72266-1.55079 4.60547-1.25 6.32813.67187 1.72656 1.91406 1.78125 4.81641.0273 6.39453-1.75 1.57422-4.63281 1.26563-6.38672-.67969-1.75-1.94531-1.69922-4.83984.0312-6.38671" fill="#1175c7"/>
      <path id="path66" d="m670.86719 410.00781l5.87109-6.22265 17.17188 5.30078.0508-.0547-11.74219-11.05859 5.42969-5.75391 21.94922 20.66406-5.58594 5.92188-17.70313-5.22657-.0508.0547 11.98438 11.28516-5.42578 5.75781zm0 0" fill="#1175c7"/>
      <path id="path68" d="m714.28906 395.10156l2.03516-2.5625c3.23437-4.07422.0391-7.58203-2.17969-9.33984-1.48437-1.1836-5.94922-4.04688-9.70703.6875l-1.65625 2.08594zm-22.75-7.38281l8.52344-10.75c5.625-7.08203 13.42578-4.96094 19.375-.23828 7.24219 5.74609 9.10156 12.84375 3.22266 20.25781l-7.51172 9.46484zm0 0" fill="#1175c7"/>
      <path id="path70" d="m127.96875 270.28516l13.63672-15.78907-31.13281-13.48437-.14844.17187zm16.75781 28.03515l-11.77344 13.63281-42.867182-75.59375 12.894532-14.92578 80.79687 31.67969-12.14453 14.0625-16.19922-7.05859-19.75 22.85937zm0 0" fill="#eb1923"/>
      <path id="path72" d="m159.59766 168.82031l13.625-11.42578 31.27343 80.59375-12.49218 10.47266-73.72657-44.9961 14.0625-11.79297 53.30078 36.24219.17188-.14453zm0 0" fill="#eb1923"/>
      <path id="path74" d="m217.15625 190.69531l17.86328-10.77734-25.41406-22.48047-.19531.11719zm7.23828 31.85156l-15.42578 9.30469-17.30078-85.16406 16.88672-10.1875 66.98437 55.18359-15.91015 9.59766-13.20704-11.73438-25.86328 15.60547zm0 0" fill="#eb1923"/>
      <path id="path76" d="m291.68359 171.02344l27.34375-9.13672 4.96485 13.96484-43.45703 14.86328-27.42188-77.11718 16.11328-5.73047zm0 0" fill="#eb1923"/>
      <path id="path78" d="m342.02734 156.25781l16.38282-2.93359c13.6875-2.45703 15.8164-17.08203 13.4414-30.32422-4.26172-23.789062-15.9375-23.664062-23.11719-22.37891l-16.16015 2.89844zm-28.4414-63.69531l35.57031-6.375c27.15625-4.867187 36.91016 17.24219 39.64453 32.50391 3.09766 17.28125.71484 43.41796-25.87891 48.18359l-34.89843 6.25391zm0 0" fill="#eb1923"/>
      <path id="path80" d="m411.5 136.48437c.0312 4.5625 2.15625 13.26563 17.08594 13.53516 8.09375.14844 17.13281-1.62891 17.28906-10.28906.11719-6.38281-6.00781-8.20313-14.63281-10.41406l-8.73828-2.21094c-13.16797-3.31641-25.87891-6.51172-25.55469-24.51953.16406-9.11719 5.35547-25.101565 31.91406-24.621096 25.07813.453125 31.50391 16.988281 31.4375 27.019536l-16.41406-.29688c-.39063-3.65234-1.60156-12.34375-16.53125-12.609375-6.5-.121094-14.29297 2.132813-14.42578 9.542965-.11719 6.38282 5.10156 7.84375 8.50781 8.70704l19.85937 5.26171c11.1211 2.9375 21.29688 7.67969 21.03125 22.38282-.44531 24.62109-25.5625 26.33593-32.74218 26.20312-29.86328-.53906-34.6836-17.84375-34.5-27.98828zm0 0" fill="#eb1923"/>
      <path id="path82" d="m527.95703 92.9375l15.61719 3.292969-16.89453 80.085941-16.73047-3.52735-20.63672-64.0039-.22266-.0469-12.04687 57.10938-15.61719-3.29297 16.89453-80.089846 17.625 3.71875 20.02344 62.476566.22266.0469zm0 0" fill="#eb1923"/>
      <path id="path84" d="m614.09766 140.35937l-39.90235-17.15624-6.80078 15.8164 36.65625 15.76172-5.71875 13.30078-36.65625-15.76172-8.375 19.48047 41.68359 17.92188-5.71875 13.30468-57.07812-24.54297 32.32812-75.19921 55.30079 23.77343zm0 0" fill="#eb1923"/>
      <path id="path86" d="m614.46484 189.78906c-2.4375 3.85547-5.35156 12.32813 7.07032 20.6211 6.73437 4.49218 15.30078 7.8789 20.10937.67187 3.54688-5.30859-.625-10.14844-6.69141-16.66406l-6.16406-6.58203c-9.28906-9.90235-18.26172-19.45703-8.26172-34.4375 5.0625-7.58594 18.06641-18.23438 40.15625-3.48438 20.85938 13.92188 17.33985 31.3125 11.86719 39.71875l-13.65625-9.11328c1.64844-3.28906 5.32031-11.25391-7.10156-19.54297-5.40625-3.60937-13.17969-5.92187-17.29688.24219-3.54297 5.30859.0586 9.35937 2.46094 11.92187l13.87109 15.15235c7.77344 8.47656 13.77344 17.96484 5.60938 30.19922-13.67188 20.48047-35.73438 8.35937-41.70703 4.37109-24.84375-16.58594-19.55078-33.75-13.91797-42.1875zm0 0" fill="#eb1923"/>
      <path id="path88" d="m667.62891 263.44922l-12.6211-11.97656 57.33203-60.41016 12.6211 11.97656zm0 0" fill="#eb1923"/>
      <path id="path90" d="m712.40625 235.73437c3.99609 4.23438 3.89844 10.83985-.38281 14.88282-4.32813 4.08593-10.97657 3.84765-14.97657-.38672-4.03906-4.28125-3.89843-10.83985.47657-14.97266 4.28125-4.03906 10.83984-3.80469 14.88281.47656" fill="#eb1923"/>
      <path id="path92" d="m704.39844 281.75781l18.71093 23.85547-11.96484 9.17969-29.30078-37.66016 66.07422-50.70312 10.59375 13.80468zm0 0" fill="#eb1923"/>
   </g>
</svg>
