<?xml version="1.0" encoding="UTF-8" standalone="no"?>
<!-- Created with Inkscape (http://www.inkscape.org/) -->

<svg
   width="750"
   height="411.54922"
   id="svg2"
   version="1.1"
   inkscape:version="1.2 (dc2aeda, 2022-05-15)"
   sodipodi:docname="Football_club_Bourg-PeÌronnas.svg"
   xml:space="preserve"
   xmlns:inkscape="http://www.inkscape.org/namespaces/inkscape"
   xmlns:sodipodi="http://sodipodi.sourceforge.net/DTD/sodipodi-0.dtd"
   xmlns="http://www.w3.org/2000/svg"
   xmlns:svg="http://www.w3.org/2000/svg"
   xmlns:rdf="http://www.w3.org/1999/02/22-rdf-syntax-ns#"
   xmlns:cc="http://creativecommons.org/ns#"
   xmlns:dc="http://purl.org/dc/elements/1.1/"><defs
     id="defs4" /><sodipodi:namedview
     id="base"
     pagecolor="#ffffff"
     bordercolor="#666666"
     borderopacity="1.0"
     inkscape:pageopacity="0.0"
     inkscape:pageshadow="2"
     inkscape:zoom="1.3834698"
     inkscape:cx="336.83424"
     inkscape:cy="208.17223"
     inkscape:document-units="px"
     inkscape:current-layer="layer1"
     showgrid="false"
     inkscape:window-width="1920"
     inkscape:window-height="1080"
     inkscape:window-x="0"
     inkscape:window-y="0"
     inkscape:window-maximized="0"
     inkscape:showpageshadow="2"
     inkscape:pagecheckerboard="0"
     inkscape:deskcolor="#d1d1d1" /><metadata
     id="metadata7"><rdf:RDF><cc:Work
         rdf:about=""><dc:format>image/svg+xml</dc:format><dc:type
           rdf:resource="http://purl.org/dc/dcmitype/StillImage" /><dc:title /></cc:Work></rdf:RDF></metadata><g
     inkscape:label="Calque 1"
     inkscape:groupmode="layer"
     id="layer1"
     transform="translate(-2.0546875,-650.59067)"><path
       id="circle667"
       style="fill:#e35540;fill-opacity:1;stroke:none;stroke-width:0.279865"
       d="M 345.30631,650.59067 A 205.77462,205.77462 0 0 0 165.11555,758.08487 H 2.0546875 V 954.6457 H 165.11555 a 205.77462,205.77462 0 0 0 180.19076,107.4942 205.77462,205.77462 0 0 0 161.20331,-78.62114 L 491.94112,954.6457 H 752.05469 V 758.08487 H 490.60544 l 15.70023,-29.78485 A 205.77462,205.77462 0 0 0 345.30631,650.59067 Z" /><path
       id="rect3016"
       style="color:#000000;display:inline;overflow:visible;visibility:visible;fill:#ffffff;fill-opacity:1;fill-rule:evenodd;stroke:none;stroke-width:3.48946;marker:none;enable-background:accumulate"
       d="m 345.30631,668.50637 a 187.85891,187.85891 0 0 0 -169.6133,107.4942 H 19.970388 V 936.73 H 175.69301 a 187.85891,187.85891 0 0 0 169.6133,107.4942 187.85891,187.85891 0 0 0 141.12013,-63.98464 L 464.47371,936.73 H 734.13899 V 776.00057 H 462.73213 l 23.24042,-44.08742 A 187.85891,187.85891 0 0 0 345.30631,668.50637 Z" /><g
       id="g4110"
       style="stroke:none"
       transform="matrix(1.0237543,0,0,1.0237543,-0.04880767,-15.454329)"><circle
         style="fill:#ffffff;stroke:none;stroke-width:0.18103"
         id="circle1014"
         cx="337.34149"
         cy="851.5899"
         r="133.10492" /><path
         id="path7"
         style="fill:#000000;stroke:none;stroke-width:1;stroke-opacity:1"
         d="m 357.48242,720.03207 -3.51562,11.86524 c -12.34094,4.31299 -23.4665,11.99992 -33.3086,21.11718 -17.15948,-0.5122 -34.9992,-1.03658 -54.84961,5.46875 -3.58401,-3.91627 -7.92693,-7.04736 -12.78515,-9.62109 -0.23299,0.17372 -0.46542,0.3482 -0.69727,0.52344 l -0.55469,1.06445 c 4.76123,2.48462 8.95733,5.48822 12.40821,9.21289 -12.36306,16.51595 -18.80157,31.74657 -16.99414,56.48828 -11.47541,9.37708 -21.22515,20.66167 -30.4961,32.42774 l -11.73047,-7.08008 a 133.10492,133.10492 0 0 0 -0.002,0.0293 133.10492,133.10492 0 0 0 -0.7207,10.0625 133.10492,133.10492 0 0 0 1.22851,17.16601 c 0.20403,1.50501 0.46357,3.00019 0.71875,4.4961 a 133.10492,133.10492 0 0 0 2.63086,12.09375 c 0.82565,3.07884 1.77876,6.12062 2.82422,9.13476 a 133.10492,133.10492 0 0 0 2.38867,6.4043 c 1.82939,4.51132 3.87356,8.94418 6.19922,13.25 a 133.10492,133.10492 0 0 0 0.002,0.006 l 7.64062,-13.58399 c 13.30468,7.10616 26.98994,12.64965 40.89648,17.25196 8.1866,22.59782 19.86014,32.94588 37.49024,44.50976 -1.02135,5.29546 -0.58891,12.65618 -0.0293,18.37305 a 133.10492,133.10492 0 0 0 2.05078,0.44726 c -0.5815,-5.71137 -1.06364,-13.0866 -0.10156,-18.2207 21.97039,-1.79231 36.85954,-9.20617 53.10352,-17.375 13.09131,2.93403 25.89868,4.54431 38.63672,5.94531 l 8.15429,9.62891 c 0,0 0.7484,1.11715 1.53907,2.21875 a 133.10492,133.10492 0 0 0 49.31445,-57.80664 c -1.82507,0.10389 -3.47266,0.30859 -3.47266,0.30859 l -15.39844,2.38477 c -1.49985,-11.4474 -2.87431,-23.19241 -8.58984,-38.35156 l 17.42188,-44.07032 c 6.13567,-0.65385 13.4244,-1.16159 18.83593,-0.92773 a 133.10492,133.10492 0 0 0 -0.46289,-2.06055 c -5.55926,-0.27179 -12.78759,0.16638 -19.3125,1.00391 L 411.89257,794.5576 c -0.49525,-13.02241 -1.62409,-25.95434 -3.92383,-38.70508 l 17.30469,-4.14257 c -0.001,-0.001 -0.003,-0.003 -0.004,-0.004 -7.08243,-6.23709 -14.77925,-11.66261 -22.93555,-16.23047 a 133.10492,133.10492 0 0 0 -0.45898,-0.25976 c -5.29935,-2.94032 -10.79531,-5.50567 -16.44531,-7.69727 a 133.10492,133.10492 0 0 0 -0.91797,-0.35547 c -5.57092,-2.11363 -11.29153,-3.85162 -17.12305,-5.20508 a 133.10492,133.10492 0 0 0 -1.21094,-0.27148 c -2.86686,-0.63726 -5.75481,-1.20068 -8.66992,-1.64844 a 133.10492,133.10492 0 0 0 -0.0254,-0.006 z m -2.04687,13.48047 c 21.51142,3.52493 34.57909,11.9516 50.47265,22.17578 2.31997,12.68129 3.46214,25.57316 3.96875,38.58594 l -39.33398,24.99805 c -12.70702,-8.41749 -25.56047,-16.75454 -40.23828,-23.02344 l -8.36133,-41.69727 c 9.93627,-9.21728 21.14738,-16.89436 33.49219,-21.03906 z m -26.13477,64.48047 c 14.72395,6.25984 27.65549,14.67395 40.55274,23.2207 l 11.63671,45.26367 c -8.00474,11.9127 -17.82266,23.4325 -30.26757,34.39844 -21.63774,0.16788 -33.83103,-4.93969 -52.34961,-12.04101 -5.08477,-19.57928 -9.06128,-39.3001 -11.95117,-59.19336 13.56385,-13.7186 22.66957,-22.39589 42.3789,-31.64844 z m -80.87305,19.72656 36.55274,12.46289 c 2.89495,19.86377 6.86954,39.5574 11.94531,59.10938 l -27.96289,26.47461 c -13.89188,-4.61851 -27.53296,-10.1753 -40.77344,-17.30274 -6.24355,-15.77611 -10.1092,-31.81663 -10.22656,-48.27343 9.31685,-11.84699 19.05831,-23.14492 30.46484,-32.47071 z m 134.56641,50.10156 46.65039,2.9004 c 5.70067,15.17004 6.97886,26.8008 8.51563,38.45898 -11.36446,15.59897 -19.25206,28.44108 -37.48243,40.38086 -12.80281,-1.40278 -25.61563,-2.99877 -38.67187,-5.90625 l -9.25391,-41.46289 c 12.39663,-10.95523 22.22131,-22.47371 30.24219,-34.3711 z" /><path
         id="circle1010"
         style="fill:#000000;stroke:none;stroke-width:0.182503"
         d="M 337.3418,717.40121 A 134.18842,134.18842 0 0 0 203.15234,851.59067 134.18842,134.18842 0 0 0 337.3418,985.77817 134.18842,134.18842 0 0 0 471.5293,851.59067 134.18842,134.18842 0 0 0 337.3418,717.40121 Z m 0,2.5293 A 131.66026,131.66026 0 0 1 469.00195,851.59067 131.66026,131.66026 0 0 1 337.3418,983.25082 131.66026,131.66026 0 0 1 205.68164,851.59067 131.66026,131.66026 0 0 1 337.3418,719.93051 Z" /></g><g
       id="g6663"><path
         sodipodi:nodetypes="ccccccccccc"
         style="fill:#0074af;fill-opacity:1;stroke:none;stroke-width:1.02375"
         d="m 68.851687,919.97567 v -128.048 h 72.918403 l -2.6e-4,27.77713 h -39.33059 v 22.28099 h 35.49049 l -4e-4,27.87683 h -35.49009 v 50.11305 z"
         id="path3018"
         inkscape:connector-curvature="0" /><path
         id="path661"
         style="fill:#0074af;fill-opacity:1;stroke:none;stroke-width:0.243663"
         d="m 345.30631,677.20828 a 179.157,179.157 0 0 0 -179.157,179.15701 179.157,179.157 0 0 0 179.157,179.15701 179.157,179.157 0 0 0 109.45173,-37.38504 L 434.80483,969.2402 a 144.4011,144.4011 0 0 1 -89.49852,31.5244 144.4011,144.4011 0 0 1 -144.40134,-144.39931 144.4011,144.4011 0 0 1 144.40134,-144.40136 144.4011,144.4011 0 0 1 89.36056,31.03056 l 18.70351,-29.48293 A 179.157,179.157 0 0 0 345.30631,677.20828 Z" /><path
         inkscape:connector-curvature="0"
         id="path2995"
         d="m 500.26569,791.92767 h 48.20768 c 21.96362,-0.19837 36.04257,10.98831 36.35578,29.52746 0.20166,11.93617 0.83799,20.93619 -13.56782,29.9549 21.09194,4.35203 25.49117,19.10581 25.63659,31.97227 0.2664,23.57172 -18.09052,36.55613 -42.84045,36.59337 h -53.79178 z m 32.63019,75.893 -7e-4,26.785 h 15.53651 c 6.47965,0 14.93538,-5.06112 14.924,-13.092 -0.0149,-10.53478 -6.01547,-13.693 -14.924,-13.693 z m -1.9e-4,-49.69568 v 24.59068 c 15.39022,0.0928 21.21485,-3.8395 21.29685,-12.295 0.11298,-11.64928 -6.60113,-12.4754 -21.29685,-12.29568 z"
         style="fill:#0074af;fill-opacity:1;stroke:none;stroke-width:0.2;stroke-dasharray:none"
         sodipodi:nodetypes="ccscscccccssscccsc" /><path
         sodipodi:nodetypes="cccsccccccsc"
         style="fill:#0074af;fill-opacity:1;stroke:none;stroke-width:0.2;stroke-dasharray:none"
         d="m 615.32591,919.97567 -0.20506,-128.048 h 49.7326 c 28.14698,-0.22979 46.98063,13.30165 47.31893,42.66641 0.24736,21.4718 -14.25101,43.70354 -40.44512,44.00059 h -23.77357 v 41.381 z m 32.62778,-100.44659 v 31.32576 c 19.08302,-0.1241 29.41074,0.17479 29.479,-15.66317 0.0739,-17.15464 -11.48082,-15.67469 -29.479,-15.66259 z"
         id="path3016"
         inkscape:connector-curvature="0" /></g></g></svg>
