<svg xmlns:xlink="http://www.w3.org/1999/xlink" xmlns:dc="http://purl.org/dc/elements/1.1/" xmlns:cc="http://creativecommons.org/ns#" xmlns:rdf="http://www.w3.org/1999/02/22-rdf-syntax-ns#" xmlns:svg="http://www.w3.org/2000/svg" xmlns="http://www.w3.org/2000/svg" viewBox="0 0 700 700" height="300" width="300">
  <g transform="matrix(1.2347221,0,0,1.2347221,-17.499963,-169.74996)" id="g1144">
    <path id="path833" style="fill:#000200;fill-rule:evenodd" d="M 297.6378,137.4803 A 283.4646,283.4646 0 0 1 581.1024,420.9449 283.4646,283.4646 0 1 1 297.6378,137.4803 Z"/>
    <path id="path835" style="fill:#ffffff;fill-rule:evenodd" d="m 297.6378,218.1319 a 202.813,202.813 0 0 1 202.813,202.813 202.813,202.813 0 1 1 -202.813,-202.813 z"/>
    <path id="path837" style="fill:#000200;fill-rule:evenodd" d="M 297.6378,224.6073 A 196.3376,196.3376 0 0 1 493.9754,420.945 196.3376,196.3376 0 1 1 297.6378,224.6073 Z"/>
    <path id="path839" style="fill:#ffffff;fill-rule:evenodd" d="M 297.6378,232.2603 A 188.6846,188.6846 0 0 1 486.3224,420.9449 188.6846,188.6846 0 1 1 297.6378,232.2603 Z"/>
  </g>
  <path d="m 142.61299,259.02136 c 56.37643,60.95069 107.39514,119.29699 149.72549,184.30869 24.60394,37.78805 46.95611,78.84058 59.9991,121.70297 11.30227,-39.40467 35.10673,-85.71897 67.70265,-134.29825 C 455.881,377.3181 509.55721,311.55767 558.05721,260.55291 540.71542,220.2796 512.02566,186.04163 476.01475,161.86638 431.34102,237.85106 382.83953,322.74512 349.52895,394.43246 321.26876,333.20185 269.23251,238.20431 224.07539,161.80687 c -35.59445,23.87125 -64.04207,57.57139 -81.4624,97.21449 z" style="fill:#000200;fill-rule:evenodd;stroke-width:1.23472" id="path841"/>
  <g transform="matrix(1.2347221,0,0,1.2347221,-17.499963,-169.74996)" id="g991">
    <path id="path894" style="fill:#000200;fill-rule:evenodd;stroke:#1b1918;stroke-width:0.216;stroke-linecap:butt;stroke-linejoin:miter;stroke-dasharray:none" d="m 428.712,478.9396 c 14.9647,0.5746 27.4391,12.2955 27.4391,27.5363 0,15.1041 -12.7287,27.8777 -27.8706,27.7087 -9.2737,-0.1042 -16.935,-4.1332 -21.7134,-10.6054 -4.012,1.7408 -7.8567,3.8784 -11.6191,6.7712 -1.4411,1.1074 -2.4337,2.114 -3.4556,3.6305 l -0.8484,1.2581 -1.3716,-0.6488 c -4.9804,-2.3559 -9.0659,-4.3216 -12.3815,-8.9564 -1.6901,-2.3619 -2.818,-4.9574 -4.2798,-7.4411 -0.6823,-1.1603 -1.4517,-2.2506 -2.5331,-3.0736 -4.7961,-3.6505 -10.4718,-6.3579 -15.8554,-9.0276 -6.9872,-3.4657 -14.2911,-7.0208 -20.1928,-12.2002 -3.7594,-3.3002 -6.1077,-7.3728 -9.4798,-10.9197 -5.549,-5.8369 -11.685,-11.1369 -17.8675,-16.2927 l -9.2019,0.707 -2.1587,-2.2677 -0.6394,1.7438 -3.3755,1.3634 c -1.8273,4.5571 -3.1996,9.3962 -4.5212,14.111 -1.0461,3.7288 -2.0163,7.4835 -2.8087,11.2747 -0.8477,4.0526 -1.0061,10.4888 -4.2857,13.3728 -3.2678,2.874 -6.9949,4.4406 -11.207,5.3736 -2.542,0.5628 -5.2729,0.7577 -7.746,1.5289 -5.9223,1.8461 -10.6142,5.2641 -16.938,6.508 -8.6662,1.7031 -17.6138,-0.644 -25.9691,1.1168 -1.8815,0.3973 -3.1372,1.4776 -3.8448,3.2496 -0.4839,1.2133 -0.6387,2.489 -0.8565,3.7664 l -0.2179,1.281 -1.2874,0.1731 c -1.5047,0.2025 -2.9435,0.5098 -4.3688,1.0361 -2.8275,1.045 -5.9105,3.7082 -8.4413,5.3931 -3.4556,2.3018 -6.591,5.0262 -10.527,6.5309 -2.5096,0.9596 -5.2641,1.2151 -7.9321,1.2375 l -1.3446,0.0112 -0.3685,-1.2934 c -0.8183,-2.8711 -1.1998,-6.8159 -0.8501,-9.7971 1.0043,-8.549 5.3937,-14.5843 10.835,-20.9717 2.1881,-2.5702 4.6301,-9.1147 5.3153,-12.4432 l 0.6682,-3.2514 3.1289,-1.1103 c 4.4488,-1.5794 8.6709,-1.2009 12.7082,1.2716 1.527,0.9349 3.3873,2.7663 4.9103,3.4086 0.196,0.0824 0.2631,0.0724 0.4745,0.0194 6.4026,-1.5995 10.6665,-4.5353 16.1279,-7.9804 6.966,-4.394 13.1826,-6.6251 21.1859,-7.1155 0.8707,-5.9382 1.6696,-11.8946 2.9088,-17.7686 l -5.1264,-0.7883 2.429,-6.7294 c 1.1397,-3.1583 2.2718,-8.9999 1.5812,-12.3002 -0.3991,-1.9132 -0.9525,-3.7924 -1.4747,-5.6738 -2.9464,-10.5971 -2.7321,-18.0365 2.0346,-27.7034 -10.6749,-10.5871 -16.6307,-29.6203 -20.4507,-44.1799 -1.3258,-0.0147 -2.6515,-0.0383 -3.9767,-0.0606 -1.8255,-0.0312 -3.6687,-0.0795 -5.4896,0.0683 -4.288,0.3491 -4.7984,0.3856 -7.9055,3.4032 l -4.3953,4.2675 -10.8031,-12.0471 c -9.1142,1.2139 -18.2484,2.3165 -27.3078,3.9031 -10.4659,1.8332 -21.4562,5.1934 -32.1293,4.862 -4.9262,-0.1542 -9.2961,-2.9447 -12.0058,-6.9843 -2.5903,-3.8601 -3.8207,-9.3803 -0.4857,-13.2144 1.3593,-1.5619 3.2325,-2.4755 5.2806,-2.6986 4.3946,-0.4786 9.2584,1.3257 13.4128,2.6203 1.8939,0.5898 5.6957,1.8037 7.6307,1.4817 8.2465,-1.3734 15.7111,-5.9311 23.5626,-8.6379 8.0621,-2.7798 16.5176,-4.0862 24.8282,-5.8846 l 1.6301,-2.1811 2.1581,-0.4633 c 3.5787,-0.7689 7.2563,-1.0285 10.8132,-1.8656 0.5816,-0.1372 1.155,-0.3085 1.7196,-0.5039 5.4961,-1.9009 9.9695,-5.1717 15.8188,-6.501 2.6132,-0.594 5.2559,-1.0414 7.9039,-1.447 5.6185,-0.8589 11.0639,-1.7114 16.4887,-3.3426 -0.0606,-0.3003 -0.1312,-0.5987 -0.2078,-0.8966 -0.7747,-3.0088 -1.6218,-5.7887 -1.9721,-8.9023 -0.9201,-8.1669 2.1311,-17.3759 9.143,-22.1096 9.896,-6.6782 23.1187,-3.614 32.4907,2.479 l 3.2149,2.0899 -0.7871,4.8708 c 0.4751,2.6327 0.7841,5.22 0.8047,7.9062 0.0101,1.3605 -0.1265,2.9388 0.0513,4.3116 0.873,1.2881 2.6032,3.5604 3.2725,4.7779 0.7689,1.3975 -2.0592,2.1275 -3.6805,2.894 0.0701,0.6964 0.103,1.3923 -0.0495,2.0798 0.0224,0.0954 0.0489,0.192 0.0695,0.2744 0.3921,1.5435 0.6729,2.7415 0.2337,4.3393 -0.007,0.0259 -0.0141,0.0518 -0.0218,0.0783 1.2958,0.7788 2.6727,1.5182 4.0049,2.121 2.0982,0.9496 4.4588,1.8267 6.74,2.1835 l 2.3083,0.3615 1.4323,1.8455 c 1.862,2.399 2.7251,5.4761 2.9311,8.4896 3.9861,3.0141 8.5072,5.5114 12.8836,7.8779 3.3155,1.7944 6.6682,3.5204 9.9966,5.2906 3.6152,1.9233 7.3805,3.5469 10.9398,5.5809 3.803,2.174 7.55,5.0027 8.7109,9.4526 0.4021,1.543 0.4415,3.1484 0.1431,4.7126 -0.2449,1.2886 -0.7618,2.506 -1.5189,3.5775 -2.5579,3.6204 -7.278,4.9138 -11.4766,3.8836 -3.6711,-0.9013 -6.5239,-3.3573 -8.1964,-6.6717 -3.2637,-1.5424 -6.2826,-3.481 -9.2967,-5.4649 -3.123,-2.0557 -6.2914,-4.1579 -9.7923,-5.5208 -5.8381,-2.2729 -12.6411,-3.1642 -18.7894,-4.3416 -0.4904,-0.0942 -0.9808,-0.189 -1.47,-0.2855 -1.2239,3.79 -1.4253,7.9768 -1.2169,11.9058 0.2985,5.6273 1.4488,11.1846 2.6651,16.6736 0.8671,3.9142 2.4766,9.7818 1.8226,13.6954 -0.2526,1.5124 -0.6912,2.93 -1.4359,4.2245 2.2518,2.4843 4.7061,4.7861 7.0514,7.1786 5.2783,5.3842 10.9922,11.7132 12.5457,19.3292 3.1254,3.8918 6.7218,7.427 10.2357,10.9615 5.084,5.1128 9.969,8.0616 10.6448,15.7358 7.5388,7.7196 15.3537,15.166 22.7843,22.9915 5.204,5.479 11.3123,10.0167 16.7919,15.2125 1.5718,0.2738 5.0375,0.1448 6.3797,0.1172 2.3972,-0.0495 4.8279,-0.1972 7.218,-0.202 0.647,-10e-4 1.2945,0.003 1.9415,0.0154 0.2067,0.004 0.4204,-0.006 0.6388,-0.026 2.8334,-12.2578 13.2291,-21.233 26.7367,-20.7156 z"/>
    <path id="path896" style="fill:#ffffff;fill-rule:evenodd" d="m 302.1413,329.4475 c 2.0234,1.3104 4.3281,2.5049 5.4937,3.0323 2.2241,1.0067 4.7761,1.941 7.1951,2.3195 l 1.6159,0.2531 1.0026,1.2916 c 1.7743,2.2865 2.5184,5.3583 2.602,8.3089 4.1715,3.2619 9.2078,6.0635 13.7672,8.5296 3.3197,1.7961 6.6753,3.5239 10.0079,5.2965 3.5922,1.9109 7.3663,3.5392 10.8926,5.5549 3.3391,1.9086 6.8536,4.4364 7.8785,8.3648 0.3373,1.2939 0.3674,2.6256 0.1172,3.9372 -0.1978,1.0414 -0.6146,2.0222 -1.2263,2.8881 -2.1405,3.0295 -6.123,4.0438 -9.6134,3.1872 -3.4126,-0.8377 -5.9223,-3.2172 -7.2969,-6.2908 -3.4115,-1.5471 -6.4939,-3.5304 -9.6463,-5.6055 -3.2449,-2.1358 -6.4833,-4.2746 -10.1226,-5.6915 -5.7852,-2.2524 -12.9778,-3.2585 -19.0985,-4.4306 -0.9825,-0.1878 -1.9645,-0.3803 -2.9441,-0.581 -0.008,0.0188 -0.0153,0.0383 -0.0229,0.0571 -1.7432,4.3675 -2.0616,9.3196 -1.815,13.9727 0.3038,5.7256 1.467,11.3771 2.7045,16.9621 0.7753,3.4992 2.3866,9.5415 1.8049,13.0225 -0.3279,1.9627 -0.9519,3.4403 -1.9221,4.6625 2.4996,2.894 5.4637,5.662 8.0187,8.2676 5.0727,5.1746 10.8149,11.4619 12.1548,18.8542 3.1954,4.0355 7.026,7.8155 10.6353,11.4454 5.1011,5.1299 9.7788,7.8161 10.1815,15.2607 7.6731,7.8803 15.6411,15.4568 23.2193,23.4378 5.3395,5.622 11.6174,10.2539 17.2035,15.6081 2.1664,0.6316 12.1106,0.0741 14.4701,0.0694 0.6347,-10e-4 1.2699,0.003 1.9051,0.0147 0.6864,0.013 1.4164,-0.0847 2.1493,-0.2443 2.2411,-12.04 12.0965,-20.9993 25.1914,-20.4978 14.0192,0.5381 25.7408,11.4837 25.7408,25.7714 0,14.1198 -11.9223,26.101 -26.0846,25.9426 -9.2466,-0.1042 -16.7319,-4.3281 -21.1053,-11.0304 -4.6383,1.8968 -8.9929,4.2327 -13.3233,7.5618 -1.5689,1.2057 -2.6592,2.2853 -3.8442,4.0438 -4.6283,-2.1894 -8.575,-4.0185 -11.7003,-8.3872 -1.6808,-2.3495 -2.7498,-4.8549 -4.1939,-7.3092 -0.8077,-1.3729 -1.7072,-2.6103 -2.9859,-3.5834 -4.8402,-3.6841 -10.7001,-6.5069 -16.1402,-9.2049 -6.7865,-3.3661 -14.0893,-6.9218 -19.8126,-11.9452 -3.8465,-3.3761 -5.9794,-7.248 -9.365,-10.809 -5.7056,-6.0018 -12.1783,-11.5738 -18.5674,-16.8915 l -9.0806,0.6976 -3.5399,-3.7182 -1.3475,3.6753 -3.3414,1.3493 c -1.9498,4.7119 -3.5275,10.2121 -4.868,14.9923 -1.0543,3.7582 -2.038,7.5694 -2.8369,11.3901 -0.7294,3.4892 -1.0243,10.0349 -3.7229,12.4079 -3.0459,2.6786 -6.5063,4.1079 -10.4229,4.9756 -2.5472,0.564 -5.4407,0.8036 -7.8896,1.5672 -5.9635,1.8591 -10.2993,5.1917 -16.7531,6.4609 -8.6533,1.7007 -17.678,-0.6305 -25.9927,1.122 -2.5679,0.5416 -4.2357,2.107 -5.1205,4.3228 -0.5551,1.3905 -0.7076,2.6586 -0.9572,4.125 -1.7979,0.242 -3.2726,0.5858 -4.7455,1.1297 -2.9235,1.0803 -6.7082,4.1815 -8.8081,5.5797 -3.2525,2.1664 -6.4756,4.9356 -10.1785,6.3514 -2.4937,0.9531 -5.2883,1.1038 -7.3163,1.1209 -0.5587,-1.9609 -1.1721,-5.8864 -0.7942,-9.1071 0.9213,-7.8438 4.8091,-13.4399 10.4252,-20.0327 2.3619,-2.774 4.9516,-9.594 5.7004,-13.2327 l 0.468,-2.2759 2.1899,-0.7771 c 3.9561,-1.4041 7.6213,-1.0756 11.1953,1.1132 1.5783,0.9666 3.5863,2.8722 5.1463,3.5298 0.557,0.2349 1.0008,0.2526 1.5889,0.106 6.8318,-1.7066 10.8656,-4.5565 16.6425,-8.2005 7.3769,-4.6531 13.5994,-6.6346 21.7782,-6.9143 1.0408,-6.9725 1.9327,-14.0521 3.5021,-20.9228 l -4.8644,-0.7482 1.7002,-4.7108 c 1.2515,-3.468 2.4101,-9.6204 1.6489,-13.2609 -0.4074,-1.9504 -0.9696,-3.8666 -1.5023,-5.7851 -2.9223,-10.5124 -2.6804,-17.6603 2.5007,-27.5999 0.003,-0.005 0.005,-0.01 0.008,-0.0147 -0.2449,-0.2207 -0.488,-0.4362 -0.6906,-0.6328 -10.716,-10.4199 -16.7113,-30.007 -20.5678,-44.9175 -1.7714,-0.0106 -3.541,-0.0418 -5.3147,-0.0724 -1.8692,-0.0318 -3.7995,-0.0771 -5.6627,0.0742 -4.7484,0.3862 -5.585,0.5863 -8.9929,3.8965 l -3.0765,2.9871 -10.1998,-11.3742 c -9.4456,1.2669 -18.9148,2.3936 -28.3045,4.0379 -10.0849,1.7666 -21.568,5.1534 -31.7689,4.8361 -4.3576,-0.136 -8.2053,-2.6409 -10.5948,-6.2025 -2.1158,-3.1536 -3.3985,-7.8767 -0.6199,-11.0716 1.0673,-1.2263 2.5344,-1.9274 4.1397,-2.1022 4.0114,-0.4368 8.8776,1.361 12.6964,2.5508 2.2282,0.6941 6.1219,1.9244 8.446,1.5377 8.4684,-1.4106 15.7865,-5.9311 23.8481,-8.7104 8.1269,-2.8022 16.8673,-4.1214 25.2727,-5.9688 l 1.6283,-2.1787 1.5106,-0.3244 c 3.5822,-0.7694 7.2969,-1.0373 10.8473,-1.8732 0.6399,-0.1507 1.271,-0.3391 1.8921,-0.554 5.4672,-1.8909 9.75,-5.111 15.6328,-6.448 2.5756,-0.5851 5.1699,-1.0237 7.7796,-1.4229 6.405,-0.9795 12.0612,-1.8514 18.1901,-3.8553 -0.0789,-0.8572 -0.2378,-1.6855 -0.4662,-2.5709 -0.7789,-3.0241 -1.5695,-5.4807 -1.9274,-8.6591 -0.8454,-7.5035 1.9156,-16.0867 8.376,-20.4477 9.2831,-6.2649 21.7999,-3.1866 30.5403,2.4955 l 2.2506,1.4629 -0.6523,4.0355 c 0.4927,2.6632 0.8095,5.1558 0.8307,7.9009 0.006,0.8983 -0.136,3.4173 0.1271,4.9315 1.0709,1.8067 2.907,3.5722 2.9535,3.999 0.0895,0.8118 -1.5418,1.0926 -3.5793,1.769 0.0589,0.77 0.3727,2.3683 0.0571,3.2355 0.01,0.2402 0.1089,0.6246 0.159,0.8236 0.302,1.1879 0.5893,2.1764 0.2425,3.4379 -0.1271,0.4639 -0.309,0.8766 -0.5357,1.2434 z"/>
    <path id="path898" style="fill:#000200;fill-rule:evenodd" d="m 296.5175,329.0183 c 2.2877,2.5873 7.2221,5.2523 9.7824,6.4115 2.4978,1.1303 5.3141,2.1434 8.0298,2.5685 l 0.3461,0.0541 0.2149,0.2767 c 1.6118,2.0769 2.0487,5.2241 1.9032,7.8526 7.1374,5.9947 17.2859,10.7808 25.5112,15.156 3.561,1.8938 7.3139,3.511 10.8067,5.5072 2.4595,1.4058 5.5908,3.4533 6.352,6.3709 0.216,0.8295 0.2296,1.6742 0.07,2.5149 -0.1118,0.5869 -0.3455,1.1368 -0.6905,1.6248 -1.3599,1.925 -4.0137,2.4466 -6.1972,1.9109 -2.8234,-0.6929 -4.6948,-2.894 -5.532,-5.5773 -7.5918,-3.1083 -13.5211,-8.9199 -21.1306,-11.8828 -6.0165,-2.343 -13.3075,-3.3762 -19.6648,-4.593 -1.7985,-0.3444 -3.5946,-0.7035 -5.3819,-1.1032 -0.4521,0.8277 -0.8518,1.6825 -1.2015,2.5584 -1.9244,4.8232 -2.313,10.2027 -2.0404,15.3444 0.3132,5.9129 1.4988,11.7245 2.7763,17.4913 0.634,2.8611 2.2412,8.9859 1.7731,11.7886 -0.4132,2.4708 -1.3657,3.6729 -3.1736,4.8332 6.5622,8.7798 20.1198,17.7704 21.5492,28.8155 3.3815,4.3934 7.5047,8.4713 11.4083,12.3973 4.6283,4.6543 9.3538,7.1156 9.2649,14.3171 7.9374,8.2023 16.2209,16.0479 24.0841,24.3279 5.512,5.8051 12.1919,10.2698 17.9158,15.8029 1.0208,0.9873 5.031,1.0049 6.3785,1.0126 3.8577,0.0212 7.7078,-0.1878 11.5708,-0.1154 1.5094,0.0288 3.0483,-0.3026 4.5,-0.7424 1.1568,-12.057 10.3575,-21.067 22.8002,-20.5896 12.5969,0.4833 23.1934,10.2622 23.1934,23.124 0,12.6487 -10.7189,23.4359 -23.4059,23.2935 -8.7363,-0.0977 -16.3039,-4.2475 -20.1734,-12.0483 -6.7612,2.7275 -12.8342,6.1984 -18.4904,10.8868 l -0.4015,0.3326 -0.4856,-0.1907 c -3.2632,-1.2857 -5.7781,-3.1749 -7.8179,-6.0271 -1.6007,-2.2365 -2.6533,-4.7155 -4.0373,-7.0673 -1.0284,-1.7484 -2.1882,-3.2796 -3.8153,-4.5176 -10.8974,-8.2954 -25.5053,-11.9912 -35.7774,-21.0076 -3.6794,-3.229 -5.8611,-7.1421 -9.1548,-10.606 -6.096,-6.4126 -13.0402,-12.3367 -19.8538,-17.9899 l -8.8557,0.6805 -6.0712,-6.3773 -2.6462,7.2168 -3.2485,1.3116 c -2.2529,5.1057 -4.0343,11.2729 -5.5337,16.6195 -1.0738,3.8282 -2.0746,7.7095 -2.8887,11.602 -0.4468,2.1375 -0.7288,4.2863 -1.115,6.4315 -0.2231,1.2392 -0.5905,3.3402 -1.5759,4.2068 -2.6262,2.3094 -5.6133,3.4992 -8.9859,4.2462 -2.665,0.5905 -5.5685,0.8313 -8.1528,1.6372 -5.7646,1.7973 -10.3517,5.1829 -16.4141,6.375 -8.5431,1.6795 -17.4913,-0.6699 -26.0362,1.1315 -4.4246,0.9325 -7.1891,4.1226 -8.1087,8.4519 l -0.1366,0.6428 -0.6546,0.0536 c -4.0384,0.3314 -8.562,4.2869 -11.8581,6.4815 -3.6228,2.4137 -8.038,6.3844 -12.5027,6.7106 l -0.9166,0.0671 -0.03,-0.919 c -0.3167,-9.7087 3.6899,-15.5056 9.8453,-22.7324 2.7404,-3.2179 5.5426,-10.4794 6.4068,-14.6786 l 0.1001,-0.488 0.4692,-0.1666 c 9.0482,-3.2108 11.1893,6.4486 17.632,4.8391 7.2303,-1.8062 11.4795,-4.752 17.5855,-8.6032 7.6719,-4.8391 13.8385,-6.5398 22.8355,-6.4462 1.3999,-8.8964 2.3724,-18.0918 4.7119,-26.791 l -4.4776,-0.6888 0.3644,-1.009 c 1.4706,-4.0744 2.665,-10.756 1.7732,-15.0229 -0.4227,-2.0216 -1.0002,-4.002 -1.5524,-5.99 -2.7004,-9.7141 -2.5467,-16.029 2.2529,-25.2362 1.4464,-2.7769 0.8306,-2.3978 -1.2969,-4.4658 -10.7496,-10.4523 -16.6648,-31.4075 -20.3112,-45.8347 -2.5938,0.0206 -5.1793,-0.0259 -7.7731,-0.0706 -1.9792,-0.0336 -4.0073,-0.076 -5.9806,0.0841 -5.5119,0.4486 -7.0084,0.9378 -10.9862,4.8009 l -0.6593,0.6399 -9.0954,-10.1421 c -10.0508,1.3687 -20.134,2.5361 -30.1288,4.2869 -9.7506,1.7078 -21.2832,5.0946 -31.1097,4.7884 -8.3441,-0.2596 -12.9995,-12.2489 -6.8247,-12.9206 6.3632,-0.6929 14.8704,5.1375 21.3237,4.0631 8.877,-1.4782 15.9955,-5.9552 24.3714,-8.8428 8.3566,-2.8816 17.4731,-4.1762 26.0934,-6.1312 l 1.6189,-2.1664 0.3238,-0.0701 c 3.6028,-0.7735 7.3257,-1.0432 10.9091,-1.8868 6.1201,-1.4405 11.2423,-5.5743 17.5013,-6.9966 2.499,-0.5681 5.0181,-0.9925 7.5506,-1.3799 6.9825,-1.0673 13.0897,-2.0245 19.8373,-4.3581 0.5846,-0.2019 1.145,-0.4198 1.1568,-1.135 0.0288,-1.732 -0.1931,-3.2696 -0.624,-4.9409 -0.7383,-2.8652 -1.5065,-5.2076 -1.8456,-8.2141 -0.7076,-6.2867 1.5265,-13.7272 6.9702,-17.4013 3.2201,-2.1734 7.3475,-3.0017 11.184,-2.8787 5.6609,0.1819 11.0745,2.346 15.7806,5.4048 l 0.4821,0.3138 -0.4068,2.5137 c 0.5169,2.6845 0.8589,5.1417 0.8801,7.8815 0.0136,1.8049 -0.6187,3.3238 -0.0877,5.167 0.1013,0.2378 1.7526,1.4111 2.1758,2.0451 0.1837,0.2743 0.3015,0.4639 0.116,0.936 -0.2567,0.6547 -0.8253,0.6264 -1.3764,0.7282 -0.2472,0.046 -0.8612,0.1072 -1.2398,0.1831 -0.006,0.5958 0.119,1.3805 0.1702,1.8809 0.0712,0.697 0.239,1.2528 -0.0371,1.9486 -0.614,1.543 0.6364,3.4003 0.3544,4.4264 -0.2832,1.032 -1.7349,1.47 -3.0371,1.6713 z"/>
  </g>
  <g transform="matrix(1.2347221,0,0,1.2347221,-17.499963,-169.74996)" id="g1128">
    <g id="g1017">
      <path id="path862" style="fill:#ffffff;fill-rule:evenodd" d="m 57.5259,486.6839 -1.5647,0.4121 c -1.5536,0.4086 -2.821,0.5516 -3.8271,0.4374 -0.9943,-0.1183 -1.8132,-0.4845 -2.4302,-1.0944 -0.6163,-0.6093 -1.1409,-1.4464 -1.5459,-2.5031 -0.4203,-1.0667 -0.8041,-2.3324 -1.1815,-3.8142 -0.445,-1.693 -0.6947,-3.1206 -0.7229,-4.2898 -0.0318,-1.1809 0.1442,-2.1511 0.5204,-2.9335 0.3774,-0.7829 0.9555,-1.4281 1.7431,-1.9521 0.7877,-0.5233 1.7808,-0.9872 2.9682,-1.3881 1.1992,-0.4044 2.5885,-0.8077 4.1804,-1.2139 l 8.3223,-2.19 c 1.8933,-0.5109 3.5157,-0.8494 4.8544,-1.0119 1.3387,-0.1625 2.4843,-0.0465 3.4204,0.3279 0.9377,0.3856 1.7284,1.1262 2.3865,2.2317 0.6582,1.1044 1.2569,2.655 1.7744,4.6702 0.3296,1.2038 0.5745,2.3288 0.7447,3.3596 0.1666,1.0191 0.1866,1.9633 0.0506,2.7958 -0.1325,0.8447 -0.4828,1.5824 -1.0614,2.2282 -0.5658,0.6422 -1.4241,1.185 -2.5756,1.6271 l -2.0628,0.5428 3.8495,14.6273 2.0622,-0.5428 c 3.1737,-0.8989 5.7451,-1.9168 7.7143,-3.0553 1.9662,-1.1497 3.4462,-2.4631 4.4246,-3.9478 0.9814,-1.4729 1.5524,-3.1548 1.7414,-5.0392 0.1884,-1.8844 0.0859,-4.0084 -0.3197,-6.3691 -0.3944,-2.3642 -0.9878,-5.0045 -1.7802,-7.9215 -0.8112,-3.1272 -1.6984,-5.9688 -2.6674,-8.4978 -0.9849,-2.5373 -2.1287,-4.7161 -3.4586,-6.5428 -1.3298,-1.8267 -2.9311,-3.2396 -4.799,-4.2669 -1.8756,-1.0125 -4.1003,-1.5659 -6.7,-1.666 -2.5996,-0.1006 -5.6632,0.3009 -9.1718,1.2239 l -13.7991,3.6317 c -3.2325,0.863 -5.9111,1.8591 -8.038,3.0259 -2.1299,1.1556 -3.7877,2.4643 -4.9927,3.9083 -1.2045,1.4429 -2.0416,3.0301 -2.5026,4.7455 -0.4739,1.719 -0.6593,3.5652 -0.5616,5.5255 0.086,1.9645 0.3579,4.0567 0.8206,6.2502 0.4669,2.2058 1.0232,4.5141 1.6702,6.9254 0.3968,1.5536 0.8183,3.0618 1.2498,4.5559 0.4427,1.49 0.9684,2.9082 1.57,4.281 0.5993,1.3611 1.3546,2.6427 2.2488,3.8248 0.8972,1.1939 1.9892,2.26 3.2908,3.2084 1.334,0.9272 2.6586,1.5783 3.9979,1.9468 1.3275,0.372 2.6768,0.5363 4.0343,0.4951 1.3581,-0.0406 2.7357,-0.2008 4.1297,-0.4922 1.394,-0.2908 2.8228,-0.6416 4.2775,-1.0367 l 1.5653,-0.4121 z"/>
      <path id="path864" style="fill:#ffffff;fill-rule:evenodd" d="m 118.6614,540.9923 -6.6582,-13.2086 -18.3996,9.279 -8.6886,-17.2364 18.4003,-9.279 -6.6582,-13.2092 -48.9365,24.6788 6.6582,13.2085 19.1832,-9.674 8.688,17.237 -19.1833,9.674 6.6582,13.2086 z"/>
      <path id="path866" style="fill:#ffffff;fill-rule:evenodd" d="m 167.3118,608.5839 12.0476,9.0206 7.7567,-10.3622 -35.4277,-26.5243 -7.7567,10.3617 11.4519,8.5737 -25.6771,34.3027 11.9281,8.9306 z"/>
      <path id="path868" style="fill:#ffffff;fill-rule:evenodd" d="m 197.5013,625.2105 23.2181,10.0355 4.8197,-11.1529 -36.8353,-15.9212 -22.0419,51.0051 37.3121,16.1268 4.8196,-11.1529 -23.6944,-10.2415 4.2904,-9.929 21.7882,9.4174 4.085,-9.4527 -21.7876,-9.4173 z"/>
      <path id="path870" style="fill:#ffffff;fill-rule:evenodd" d="m 317.2761,633.3698 1.0114,36.0553 c 0.0577,1.6159 -0.0548,2.9028 -0.3244,3.8618 -0.2702,0.9578 -0.72,1.6748 -1.374,2.1499 -0.6429,0.4751 -1.5,0.7959 -2.5832,0.9613 -1.0714,0.1661 -2.4048,0.2656 -3.9743,0.2973 -1.5571,0.056 -2.9417,0.0577 -4.1556,0.005 -1.2133,-0.0529 -2.2453,-0.2584 -3.0971,-0.6293 -0.8513,-0.3591 -1.4988,-0.9707 -1.9557,-1.8344 -0.4574,-0.8642 -0.7146,-2.0798 -0.7582,-3.6346 l -1.0296,-36.721 -14.8299,0.4156 1.0379,37.0178 c 0.05,2.2217 0.1931,4.2297 0.4533,6.0259 0.249,1.7961 0.677,3.3891 1.2963,4.7678 0.6081,1.3905 1.4829,2.5761 2.6238,3.5687 1.1409,0.9931 2.6221,1.7914 4.4582,2.4066 1.822,0.6034 4.0726,1.0343 6.7641,1.2798 2.678,0.2461 5.8587,0.3173 9.554,0.2137 4.0784,-0.1019 7.5676,-0.4839 10.4923,-1.1709 2.924,-0.687 5.3183,-1.7673 7.1562,-3.2508 1.8508,-1.4841 3.1807,-3.461 4.0137,-5.9411 0.8336,-2.4814 1.2051,-5.5544 1.0891,-9.2437 l -1.0385,-37.0172 z"/>
      <path id="path872" style="fill:#ffffff;fill-rule:evenodd" d="m 108.298,600.4988 -5.4319,8.2894 9.6199,11.4719 31.5176,-48.2648 -14.336,-17.0957 -52.8778,22.7902 9.8077,11.6968 9.0153,-4.0155 z m 6.3414,-9.1489 -8.771,-10.46 22.6083,-10.2409 0.0936,0.1118 z"/>
      <path id="path874" style="fill:#ffffff;fill-rule:evenodd" d="m 256.4638,676.6483 1.244,9.8319 14.7633,2.4901 -7.3252,-57.1764 -22.0001,-3.7112 -25.457,51.6475 15.0518,2.5384 4.2563,-8.904 z m -1.1091,-11.0769 -13.4605,-2.27 10.5618,-22.4605 0.1442,0.0248 z"/>
      <path id="path876" style="fill:#ffffff;fill-rule:evenodd" d="m 506.0973,579.5189 9.2902,3.4503 9.0435,-11.9317 -54.0682,-19.9856 -13.477,17.7804 33.9866,46.4804 9.2208,-12.1654 -5.9211,-7.8955 z m -10.3311,-4.1468 -8.2452,10.8791 -15.0159,-19.7625 0.0883,-0.1166 z"/>
      <path id="path878" style="fill:#ffffff;fill-rule:evenodd" d="m 351.5464,686.4984 28.5135,-6.6393 c 2.2829,-0.5192 4.3257,-1.0967 6.1283,-1.7349 1.812,-0.6523 3.3426,-1.4317 4.6248,-2.3583 1.2728,-0.9119 2.2535,-2.0498 2.9464,-3.4033 0.7035,-1.3557 1.0773,-2.9929 1.1421,-4.9309 0.0653,-1.9374 -0.2166,-4.2298 -0.8395,-6.9042 -0.3903,-1.7284 -0.863,-3.272 -1.4382,-4.6625 -0.5728,-1.3793 -1.3063,-2.5284 -2.2152,-3.4574 -0.906,-0.9172 -2.0499,-1.56 -3.4292,-1.9185 -1.3805,-0.358 -3.083,-0.3715 -5.084,-0.046 l -0.1359,-0.5839 c 1.6989,-0.7035 3.0158,-1.5354 3.9619,-2.499 0.9613,-0.9537 1.6024,-2.0387 1.9621,-3.2508 0.3456,-1.221 0.4745,-2.5579 0.3703,-4.0332 -0.1042,-1.4753 -0.3627,-3.0683 -0.7789,-4.8037 -0.5551,-2.3825 -1.2757,-4.3423 -2.1499,-5.8817 -0.8748,-1.5388 -1.9056,-2.7215 -3.1042,-3.5445 -1.1986,-0.823 -2.5437,-1.3558 -4.0496,-1.6072 -1.5059,-0.2519 -3.1731,-0.2737 -5.0027,-0.0789 -1.8156,0.2055 -3.7989,0.5517 -5.9335,1.0615 l -28.2268,6.5728 z m 4.3752,-46.0784 12.0359,-2.8028 c 1.334,-0.2719 2.3554,-0.3173 3.0765,-0.1395 0.7306,0.1637 1.2763,0.5616 1.6354,1.1827 0.3579,0.6217 0.6576,1.4747 0.8889,2.5744 0.3485,1.4435 0.4363,2.5767 0.2679,3.4232 -0.1678,0.8466 -0.6811,1.5042 -1.5241,1.9957 -0.8419,0.4904 -2.0917,0.9096 -3.7542,1.284 l -10.3163,2.4018 z m 4.6707,20.0581 11.1046,-2.5856 c 1.5341,-0.3832 2.8045,-0.551 3.7806,-0.5216 0.9878,0.0259 1.7725,0.3691 2.3512,1.0161 0.5817,0.6593 1.045,1.7302 1.3782,3.2161 0.3544,1.4682 0.3909,2.6514 0.1271,3.5716 -0.2672,0.9077 -0.853,1.6336 -1.7466,2.1752 -0.9054,0.544 -2.1252,0.9819 -3.68,1.331 L 363.089,671.2 Z"/>
      <path id="path880" style="fill:#ffffff;fill-rule:evenodd" d="m 414.4379,636.4975 -7.2786,-13.0519 9.8507,-5.4931 c 1.3816,-0.7842 2.5514,-1.2263 3.4933,-1.3299 0.9584,-0.0989 1.8049,0.1737 2.5596,0.8065 0.7618,0.6429 1.5212,1.6807 2.3048,3.1113 0.78,1.3492 1.4046,2.5184 1.8897,3.5121 0.4786,0.9837 0.7347,1.8662 0.7665,2.6209 0.0276,0.7718 -0.2526,1.4894 -0.8277,2.1752 -0.5858,0.6923 -1.5524,1.3999 -2.9082,2.1558 z m 0.6635,31.069 12.7094,-7.0873 -7.135,-12.7947 9.8506,-5.4931 c 1.2769,-0.6982 2.4319,-1.0184 3.4963,-0.9519 1.0643,0.0671 2.0204,0.4609 2.871,1.1662 0.8472,0.7217 1.5919,1.6837 2.2141,2.9235 l 3.7647,6.7511 12.7094,-7.0873 -5.4137,-9.7082 c -1.0261,-1.8161 -2.2299,-3.1542 -3.6393,-4.0113 -1.3917,-0.8537 -2.9081,-1.2581 -4.5547,-1.1975 -1.6519,0.0507 -3.3697,0.5305 -5.1535,1.4412 l -0.2867,-0.5145 c 1.5507,-1.4265 2.7304,-2.7728 3.5216,-4.0432 0.7918,-1.2698 1.2628,-2.5155 1.4205,-3.727 0.1508,-1.2228 0.063,-2.452 -0.2607,-3.7041 -0.3338,-1.2469 -0.8454,-2.5632 -1.5454,-3.9431 -0.6834,-1.3746 -1.4876,-2.8652 -2.3936,-4.4664 -1.3387,-2.4007 -2.6856,-4.3181 -4.0591,-5.7586 -1.3716,-1.4406 -2.7992,-2.4561 -4.2774,-3.0648 -1.4777,-0.6093 -3.0406,-0.8471 -4.7008,-0.7365 -1.6495,0.1054 -3.4303,0.5228 -5.3218,1.2398 -1.9073,0.7124 -3.9548,1.6719 -6.176,2.8682 l -24.5297,13.6789 z"/>
      <path id="path882" style="fill:#ffffff;fill-rule:evenodd" d="m 444.1765,582.0132 -11.2394,9.9778 36.6216,41.2522 11.2394,-9.9784 z"/>
      <path id="path884" style="fill:#ffffff;fill-rule:evenodd" d="m 498.7062,529.0794 0.2467,-0.5433 45.6816,3.3861 10.5299,-23.1657 -50.9574,-23.1622 -6.176,13.587 39.5061,16.9733 -0.2472,0.544 -45.774,-3.1831 -10.4376,22.9621 50.9575,23.1622 6.176,-13.5871 z"/>
      <path id="path886" style="fill:#ffffff;fill-rule:evenodd" d="m 524.3533,457.8108 3.6399,-14.1735 -12.4303,-3.1925 -10.7043,41.6791 12.4304,3.1925 3.4597,-13.4717 41.1481,10.5677 3.604,-14.0334 z"/>
    </g>
    <g id="g1021">
      <path id="path889" style="fill:#ffffff;fill-rule:evenodd" d="m 527.7142,421.3527 2.1384,-6.6374 c 4.9618,1.7549 8.5517,3.2546 10.8012,4.5314 -0.5905,-5.6323 -0.9092,-9.5092 -0.9416,-11.6311 h 6.781 c -0.0959,3.0788 -0.447,6.9403 -1.0692,11.5829 3.2069,-1.6114 6.8768,-3.1111 11.0253,-4.4832 l 2.1537,6.6374 c -3.9569,1.308 -7.8337,2.1854 -11.6311,2.6165 1.8984,1.6591 4.579,4.595 8.0253,8.8388 l -5.5999,3.9727 c -1.8032,-2.4572 -3.941,-5.8076 -6.3981,-10.0515 -2.3136,4.388 -4.3397,7.7384 -6.0787,10.0515 l -5.5206,-3.9727 c 3.6215,-4.4515 6.2063,-7.4032 7.7542,-8.8388 -4.0209,-0.7822 -7.8342,-1.6437 -11.4399,-2.6165 z"/>
      <path id="path891" style="fill:#ffffff;fill-rule:evenodd" d="m 42.629,421.3527 2.1384,-6.6374 c 4.9619,1.7549 8.5517,3.2546 10.8012,4.5314 -0.5904,-5.6323 -0.9092,-9.5092 -0.9415,-11.6311 h 6.7809 c -0.0959,3.0788 -0.447,6.9403 -1.0692,11.5829 3.207,-1.6114 6.8768,-3.1111 11.0253,-4.4832 l 2.1537,6.6374 c -3.9568,1.308 -7.8336,2.1854 -11.6311,2.6165 1.8984,1.6591 4.579,4.595 8.0254,8.8388 l -5.6,3.9727 c -1.8032,-2.4572 -3.9409,-5.8076 -6.3981,-10.0515 -2.3136,4.388 -4.3397,7.7384 -6.0787,10.0515 l -5.5206,-3.9727 c 3.6216,-4.4515 6.2063,-7.4032 7.7542,-8.8388 -4.0209,-0.7822 -7.8342,-1.6437 -11.4399,-2.6165 z"/>
    </g>
    <g id="g1098">
      <path id="path851" style="fill:#ffffff;fill-rule:evenodd" d="m 517.0436,292.8412 -13.9244,-21.7305 -10.8051,6.9236 13.9244,21.7305 c 2.5193,3.9317 5.3429,3.5382 8.9806,1.2073 3.3264,-2.1315 3.9677,-4.7861 1.8245,-8.1309 z m 10.3555,-5.9119 c 4.5495,7.0999 6.4791,13.844 5.5513,17.6512 -1.7439,7.1577 -8.0107,11.9075 -15.0157,12.0528 -2.5916,0.0539 -6.2575,-0.4973 -8.6018,-2.7722 1.6985,5.8161 -0.4897,10.3143 -5.0825,13.2573 l -9.547,6.1175 -8.7636,-13.6765 7.7319,-4.9544 c 4.0615,-2.6025 4.926,-5.6497 1.1613,-11.5248 l -12.1105,-18.8998 -13.7905,8.8366 -8.7832,-13.7072 44.214,-28.3312 z"/>
      <path id="path843" style="fill:#ffffff;fill-rule:evenodd" d="m 80.9998,366.8265 -35.8216,-29.8517 4.0455,-16.761 44.949,37.5832 -5.4433,22.5523 -57.0868,12.7055 4.1542,-17.2113 z"/>
      <path id="path845" style="fill:#ffffff;fill-rule:evenodd" d="m 432.8067,189.7189 13.271,10.1272 -19.504,25.5586 c -2.1417,2.8067 -2.9313,5.1859 -2.3725,7.1225 0.5614,1.9428 2.995,4.5601 7.3178,7.8588 l 7.2792,5.5549 c 3.6008,2.7478 6.395,4.0757 8.3938,3.9951 1.9907,-0.0808 4.0158,-1.47 6.0716,-4.164 l 19.504,-25.5587 13.2998,10.1492 -20.7281,27.1629 c -8.6154,11.2898 -19.7882,8.4239 -29.6133,0.9263 l -14.3269,-10.9329 c -10.2195,-7.7986 -18.7984,-18.2169 -9.3205,-30.637 z"/>
      <path id="path847" style="fill:#ffffff;fill-rule:evenodd" d="m 405.8828,189.9826 -36.7515,-12.8291 -2.6923,7.7124 34.4616,12.0297 -3.4716,9.9451 -34.4616,-12.0297 -3.1948,9.1521 37.3607,13.0418 -4.0235,11.526 -52.662,-18.3831 17.4375,-49.953 52.0528,18.1705 z"/>
      <path id="path849" style="fill:#ffffff;fill-rule:evenodd" d="m 319.5218,172.7988 0.0152,-1.4022 c 0.0541,-5.019 -5.0105,-5.6411 -9.5585,-5.6902 l -13.85,-0.1494 c -8.0529,-0.0868 -12.2101,0.7997 -12.3232,11.2832 l -0.1096,10.165 c -0.095,8.8028 4.5258,9.8576 12.1566,9.9399 l 12.0216,0.1297 c 5.4864,0.0592 11.665,0.4526 11.4674,-6.5607 -0.017,-0.6037 -0.0411,-1.1526 -0.0709,-1.3943 -0.008,-0.0678 0.001,-0.1313 0.002,-0.179 l -19.0574,-0.2056 0.1071,-9.9224 36.4346,0.393 -0.1308,12.1252 c -0.1549,14.3604 -9.5025,17.1767 -21.6672,17.0455 l -20.3595,-0.2196 c -14.0501,-0.1515 -28.1811,-2.64 -27.9817,-21.1258 l 0.1276,-11.8268 c 0.182,-16.8734 12.355,-21.0557 26.0054,-20.9084 l 18.6682,0.2013 c 7.4178,0.08 18.0587,-0.0466 22.5965,6.8947 1.9987,3.0594 2.4593,6.8546 2.3195,10.4319 -0.0163,0.4167 -0.0339,0.7986 -0.0625,1.1556 z"/>
      <path id="path853" style="fill:#ffffff;fill-rule:evenodd" d="m 514.0724,334.1419 3.4935,15.3233 -2.0594,0.4647 c -3.9397,0.8889 -4.0515,4.532 -3.1868,8.3647 l 4.2712,18.9304 c 0.9105,4.0354 4.8178,4.7325 7.2363,4.0981 2.4184,-0.6344 4.4978,-2.8609 3.7663,-6.4574 l -5.2207,-25.6607 c -1.9883,-9.7728 -0.071,-17.5963 10.0937,-19.8898 13.9151,-3.1396 18.8033,7.9384 21.3301,19.1377 l 4.4435,19.6936 c 1.3257,5.8759 1.3035,13.3491 -0.2226,16.3977 -1.5335,3.0635 -4.678,5.1357 -9.4251,6.2068 -0.311,0.0701 -0.6484,0.1336 -1.019,0.2051 -0.3597,0.0697 -0.9554,0.1667 -1.778,0.2787 l -3.5045,-15.532 1.3557,-0.3059 c 3.0973,-0.6988 3.8247,-3.6137 2.9524,-7.4796 l -3.6967,-16.3842 c -0.6596,-2.9235 -2.2567,-6.6084 -5.9307,-5.9436 -3.6228,0.6556 -4.1998,3.8697 -3.3387,7.7122 l 3.7402,16.7003 c 3.6633,16.3567 2.6329,25.0091 -10.9002,28.0626 -13.7708,3.107 -18.3741,-9.7341 -20.4074,-18.746 l -4.5423,-20.1318 c -2.4079,-10.6721 -2.7359,-21.3167 9.0891,-24.4844 1.3099,-0.3511 2.1202,-0.3553 3.4601,-0.5605 z"/>
      <path id="path855" style="fill:#ffffff;fill-rule:evenodd" d="m 217.9707,223.1117 -15.7943,7.2318 -16.8228,-36.741 -20.0667,9.1881 -4.8913,-10.6826 55.9277,-25.608 4.8913,10.6826 -20.0667,9.1881 z"/>
      <path id="path857" style="fill:#ffffff;fill-rule:evenodd" d="m 148.9588,253.2217 26.85,-23.0314 7.5024,8.7462 -39.6258,33.9903 -34.1892,-39.8577 12.7758,-10.9588 z"/>
      <path id="path859" style="fill:#ffffff;fill-rule:evenodd" d="m 114.4781,314.9678 c -6.6452,10.3877 -16.9547,17.6431 -29.0301,9.9182 L 73.4853,317.2332 C 59.9565,308.5785 61.9278,298.087 69.4879,286.2692 l 10.4376,-16.3158 c 8.2818,-12.9461 17.415,-19.3773 30.2127,-11.1903 l 12.2344,7.8265 c 12.6751,8.1086 10.7894,19.172 2.5056,32.121 z m -8.3598,-8.9225 8.4617,-13.2273 c 3.3812,-5.2853 3.206,-9.8561 -2.0037,-13.1888 l -11.1495,-7.1326 c -5.621,-3.5959 -9.726,-2.2112 -13.6277,3.8879 l -8.4992,13.2858 c -3.1952,4.9948 -3.1994,9.861 2.2352,13.3376 l 11.5347,7.379 c 5.1241,3.278 8.8831,2.1696 13.0485,-4.3416 z"/>
      <path d="m 257.28775,209.66015 -17.15481,2.73334 -7.90136,-51.55737 17.72049,-2.82351 z" style="fill:#ffffff;fill-rule:evenodd" id="path986"/>
    </g>
  </g>
</svg>