<svg height="316.227766" viewBox="0 0 98.373581 98.373581" width="316.227766" xmlns="http://www.w3.org/2000/svg" xmlns:xlink="http://www.w3.org/1999/xlink"><linearGradient id="a"><stop offset="0" stop-color="#e4bd7c"/><stop offset=".5" stop-color="#c19a3e"/><stop offset="1" stop-color="#e0c7a1"/></linearGradient><linearGradient id="b" gradientUnits="userSpaceOnUse" x1="346.85779" x2="362.0752" xlink:href="#a" y1="484.59619" y2="484.59619"/><linearGradient id="c" gradientUnits="userSpaceOnUse" x1="368.936" x2="394.61539" xlink:href="#a" y1="484.5961" y2="484.5961"/><linearGradient id="d" gradientUnits="userSpaceOnUse" x1="401.88971" x2="427.569" xlink:href="#a" y1="484.5961" y2="484.5961"/><linearGradient id="e" gradientUnits="userSpaceOnUse" x1="434.97101" x2="460.65039" xlink:href="#a" y1="484.755" y2="484.755"/><g transform="matrix(.14053369 0 0 .14053369 -7.026684 -7.026684)"><circle cx="400" cy="400" fill="#fff" r="350"/><path d="m400 50c-193.3 0-350 156.7-350 350s156.7 350 350 350 350-156.7 350-350-156.7-350-350-350zm-332.9 350c0-2.8 0-5.5.1-8.3l151.4-159.6c.1 14.6 2.5 43.2 16.7 69.4l-160.6 169.4c-5-22.8-7.6-46.6-7.6-70.9zm10.7 83.8 163.6-172.4c5.2 7.6 11.5 14.7 19.3 21 8.6 7 17.5 12.8 26.8 17.5l-186.5 196.5c-9.8-19.8-17.6-40.7-23.2-62.6zm322.2 249.1c-105.3 0-199.2-48.9-260.2-125.3-12.6-15.8-23.8-32.7-33.4-50.7l191.9-202.2c23.9 9.3 49.8 11 77.6 4l-160.9 169.6c38.5 24.9 84.3 39.3 133.5 39.3 136 0 246.3-110.3 246.3-246.3s-110.3-246.3-246.3-246.3c-9.1 0-18.1.5-27 1.5 25.2-6.1 51.4-9.3 78.5-9.3 183.8 0 332.9 149 332.9 332.9s-149.1 332.8-332.9 332.8z" fill="#052490"/><circle cx="358.79999" cy="228" fill="#183077" r="115.4"/><circle cx="358.79999" cy="228" fill="#fff" r="109.4"/><circle cx="358.79999" cy="228" fill="#052490" r="98"/><path d="m358.8 128.2c55.2 0 99.9 44.7 99.9 99.9s-44.7 99.9-99.9 99.9-99.9-44.7-99.9-99.9 44.7-99.9 99.9-99.9m0-2c-27.2 0-52.7 10.6-72 29.8-19.2 19.2-29.8 44.8-29.8 72s10.6 52.7 29.8 72c19.2 19.2 44.8 29.8 72 29.8s52.7-10.6 72-29.8c19.2-19.2 29.8-44.8 29.8-72s-10.6-52.7-29.8-72-44.9-29.8-72-29.8z" fill="#052490"/><g fill="#fff"><path d="m280.3 180.6s17.4-35.7 66.1-43.6v5.1s7.6 3.6 29.5 8.6c0 0 2.4 21.1 5.6 24.9l-4.1-5.5v7.9s-21 19.8-24.7 24c0 0-5.5 2.2-14.1 1.7-8.5-.5-29.1-3.2-31.3-6.6s-6.2-18.7-6.5-21.8c-.3-3.2 10.8-14.4 25.3-25 0 0-19.1 9.8-27.2 22.3 0 0-15.8 6.6-18.6 8z"/><path d="m378.6 150.4s10.6-3 13.3-4c2.6-1.1 6.5-3 13.6 2s18.3 13.1 20.9 16.7c2.5 3.6 4.8 19.2 4.7 20.9s-5.8 4.8-10.5 6.2-5.9 1.6-12.8-3.4-16.1-8.1-20.6-9.7c-4.3-1.6-9.1-19.4-8.6-28.7z"/><path d="m416.9 199.5c.6-2.4 11.1-9.2 14.2-9.3 3.2-.2 16.9 19.5 18.7 22.1 1.7 2.7 1.7 21 1.3 24.8-.5 3.8-10.8 8.5-14.4 12s-7.6 7.3-9.6 4.6c-2.1-2.7-12.5-15.2-13.8-20.6s.9-11.7 2.1-16.3 1-15.4 1.5-17.3z"/><path d="m424.1 254.6c-1.5-3-11.8-19.1-19.2-16.4s-27.6 4.6-31.2 4.9c-4 .3-19 28.5-20.9 32.5s-5.3 9.9-1.1 13.1 14.3 16.2 14.3 16.2 7.6 1.9 26.6-2.3 27.8-12.4 28.9-19 4.1-26 2.6-29zm-12.5 39.5c-11.9 6.6-38.1 8.4-38.1 8.4 21.5-4.3 34.8-9.5 40.9-15.3 5.1-4.8 6.7-19.5 6.7-19.5.2 10.3 3 19.5-9.5 26.4z"/><path d="m317.3 204.3c4 .2 29.7 1.1 33.1 5.1s6.7 15.1 9.6 19.7c2.8 4.6 6.5 10 6.8 12.5s-3.6 13.6-12.2 25.8-10 16.3-22.1 17.1c-12.2.8-15.3 2.7-24.4-5.7-9-8.4-18.7-23.6-19.5-35.1s1.9-12.3 3.8-15.3 10.9-18.3 12.2-20.7 3.4-3.9 12.7-3.4z"/><path d="m273.3 234.2s7 29.1 31 47.4c0 0-15.6-24.7-19-35.6s-3.8-11-12-11.8z"/><path d="m282.8 184.7s8.2-5.3 11.6-4.6 5.5 8.4 6.5 17.5c0 0-5.9-14.5-7.2-14.5-1.2-.1-5.4-.3-10.9 1.6z"/><path d="m350.6 136.3s17.6-3.8 28 1.7c0 0-14.9-1.8-28-1.7z"/><path d="m366.2 195.7s12.7-11.7 14.5-11.9c1.9-.2 4.3-1 19.9 6.3 0 0-11.8-9.5-19.1-9.3s-15.3 14.9-15.3 14.9z"/></g><path d="m353.5 459.4h-6.7v8.6h4.8c1.1 0 1.9.9 1.9 1.9v39.9h8.6v-41.8-1c0-4.2-3.4-7.6-7.6-7.6z" fill="url(#b)"/><path d="m368.9 467v14.4c0 4.2 3.4 7.6 7.6 7.6h9.5v10.3c0 1.1-.9 1.9-1.9 1.9h-14.3v8.6h17.2c4.2 0 7.6-3.4 7.6-7.6v-35.2c0-4.2-3.4-7.6-7.6-7.6h-10.5c-4.2 0-7.6 3.4-7.6 7.6zm8.6 11.6v-8.7c0-1.1.9-1.9 1.9-1.9h4.8c1.1 0 1.9.9 1.9 1.9v8.7c0 1.1-.9 1.9-1.9 1.9h-4.8c-1.1 0-1.9-.9-1.9-1.9z" fill="url(#c)"/><path d="m427.6 478.9v-11.9c0-4.2-3.4-7.6-7.6-7.6h-10.5c-4.2 0-7.6 3.4-7.6 7.6v11.9c0 3.2 2.6 5.7 5.7 5.7-3.2 0-5.7 2.6-5.7 5.7v11.9c0 4.2 3.4 7.6 7.6 7.6h10.5c4.2 0 7.6-3.4 7.6-7.6v-11.9c0-3.2-2.6-5.7-5.7-5.7 3.1 0 5.7-2.6 5.7-5.7zm-8.6 20.4c0 1.1-.9 1.9-1.9 1.9h-4.8c-1.1 0-1.9-.9-1.9-1.9v-8.6c0-1.1.9-1.9 1.9-1.9h4.8c1.1 0 1.9.9 1.9 1.9zm-8.6-29.4c0-1.1.9-1.9 1.9-1.9h4.8c1.1 0 1.9.9 1.9 1.9v8.6c0 1.1-.9 1.9-1.9 1.9h-4.8c-1.1 0-1.9-.9-1.9-1.9z" fill="url(#d)"/><path d="m460.7 479v-12c0-4.2-3.4-7.6-7.6-7.6h-18.1v8.6h15.2c1.1 0 1.9.9 1.9 1.9v8.7c0 1.1-.9 1.9-1.9 1.9h-7.6v4.3 4.3h7.6c1.1 0 1.9.9 1.9 1.9v8.7c0 1.1-.9 1.9-1.9 1.9h-15.2v8.6h18c4.2 0 7.6-3.4 7.6-7.6v-12c0-3.2-2.6-5.7-5.7-5.7 3.2-.1 5.8-2.7 5.8-5.9z" fill="url(#e)"/><path d="m238.6 563.8-48 61.5 23.2 18.2c5.4 4.2 13.2 3.2 17.4-2.1l32.8-42c4.2-5.4 3.2-13.2-2.1-17.4zm-19.4 68.1-9-7c-1.2-1-1.5-2.8-.5-4l29.3-37.5c1-1.2 2.8-1.5 4-.5l9 7c1.2 1 1.5 2.8.5 4l-29.3 37.5c-1 1.2-2.8 1.5-4 .5z" fill="#052490"/><path d="m268.9 604.9-24 61.1 11.5 4.5 12-30.5 15.9 6.3-12 30.5 11.5 4.5 24-61.1c2.5-6.4-.6-13.5-7-16l-15.9-6.3c-6.4-2.5-13.5.6-16 7zm19.9 29.8-15.9-6.3 6.1-15.5c.8-2 3-2.9 4.9-2.1l8.9 3.5c2 .8 2.9 3 2.1 4.9z" fill="#052490"/><path d="m320.3 675.1 8.6-62.2-12.2-1.7-9 65c-.9 6.8 3.8 13 10.5 13.9l22.6 3.5 1.7-12.2-19.8-3.1c-1.5-.2-2.6-1.7-2.4-3.2z" fill="#052490"/><path d="m359.79999 617.20001h12.4v78h-12.4z" fill="#052490"/><path d="m480.5 678.9 11.8-3.7-23.1-74.5-11.8 3.7 13.4 43.2-29.7-38.2-11.8 3.7 23 74.5 11.8-3.7-13.4-43.2z" fill="#052490"/><path d="m603.3 538.4-12.3-10.4c-5.2-4.4-13-3.7-17.4 1.5l-19 22.5 59.6 50.3 8-9.5-25.1-21.2 8-9.5c1.7-2 4.7-2.3 6.7-.6l21.5 18.1 8-9.5-21.8-18.4c-4.4-3.7-11-3.2-14.7 1.3 3.5-4.3 3-10.9-1.5-14.6zm-31.3 12.1 8.6-10.2c1.4-1.6 3.8-1.8 5.4-.5l6.9 5.8c3.2 2.7 3.6 7.5.9 10.7l-6.1 7.3z" fill="#052490"/><path d="m383.3 630.9 6.7 65.3 12.3-1.3-3.3-32.6 17-1.7 3.3 32.6 12.3-1.3-6.7-65.3c-.7-6.8-6.8-11.7-13.6-11l-17 1.7c-6.8.7-11.7 6.8-11 13.6zm31.4 17.3-17 1.7-1.7-16.6c-.2-2.1 1.3-4 3.4-4.2l9.5-1c2.1-.2 4 1.3 4.2 3.4z" fill="#052490"/><path d="m516.2 580.6 48.4 61.2 9.7-7.7-14.7-18.7 13.4-10.6c5.4-4.2 6.3-12 2-17.4l-18.3-23.1c-4.2-5.4-12-6.3-17.4-2zm46.1 16.9-7.5 5.9c-1.6 1.3-4 1-5.3-.6l-13.5-17.2c-1.3-1.6-1-4 .6-5.3l7.5-5.9c1.6-1.3 4-1 5.3.6l13.6 17.2c1.3 1.6 1 4-.7 5.3z" fill="#052490"/><path d="m596.3 521.5 47.7 23.7c6.1 3 13.5.5 16.6-5.6l7.6-15.3c3-6.1.5-13.5-5.6-16.6l-47.7-23.7c-6.1-3-13.5-.5-16.6 5.6l-7.6 15.3c-3 6.1-.5 13.5 5.6 16.6zm59.1.6-4.2 8.5c-.9 1.9-3.2 2.7-5.1 1.7l-40.9-20.3c-1.9-.9-2.7-3.2-1.7-5.1l4.2-8.5c.9-1.9 3.2-2.7 5.1-1.7l40.9 20.3c1.9 1 2.7 3.2 1.7 5.1z" fill="#052490"/></g></svg>