<?xml version="1.0" encoding="utf-8"?>
<!DOCTYPE svg PUBLIC "-//W3C//DTD SVG 1.1//EN" "http://www.w3.org/Graphics/SVG/1.1/DTD/svg11.dtd">
<svg version="1.1" id="Lag_1" xmlns="http://www.w3.org/2000/svg" xmlns:xlink="http://www.w3.org/1999/xlink" x="0px" y="0px" width="497px" height="542px" viewBox="0 0 497 542" enable-background="new 0 0 497 542" xml:space="preserve">
<path d="M213.61,76.579c2.135-2.115,4.815-3.19,8.005-3.19h53.278V27.737c0-8.067-4.516-12.781-12.794-12.781h-87.396
	c-3.183,0-5.85,1.055-7.979,3.19l-29.309,29.309l51.482,51.482L213.61,76.579z"/>
<path d="M161.938,223.58v40.198h64.167l146.136-64.889c13.841-6.387,21.847-19.175,21.847-34.091V82.449
	c0-10.121-2.667-18.127-10.129-25.567L331.233,4.142c-0.986-0.993-2.021-1.919-3.068-2.79c5.448,6.625,7.476,13.828,7.476,22.663
	v91.395c0,14.923-7.999,27.697-21.854,34.091l-145.456,64.48C164.597,215.588,161.938,219.315,161.938,223.58z"/>
<polygon points="394.088,375.524 394.088,322.232 335.641,263.778 335.641,317.07 101.198,317.07 159.631,375.524 "/>
<path d="M368.126,460.702c-22.507,0-40.049,14.78-40.049,39.438c0,25.533,18.256,39.43,40.049,39.43
	c21.792,0,40.049-13.896,40.049-39.43C408.175,475.483,390.633,460.702,368.126,460.702z M368.126,531.149
	c-15.972,0-30.098-10.761-30.098-31.01c0-19.772,13.019-31.023,30.098-31.023s30.098,11.251,30.098,31.023
	C398.224,520.388,384.097,531.149,368.126,531.149z"/>
<polygon points="484.592,462.009 484.592,523.653 432.491,462.009 423.009,462.009 423.009,538.454 432.565,538.454 
	432.565,476.387 486.163,538.454 494.339,538.454 494.339,462.009 "/>
<rect x="89.716" y="462.015" width="9.747" height="76.459"/>
<rect x="198.129" y="462.015" width="9.754" height="76.459"/>
<rect x="301.407" y="462.015" width="9.755" height="76.459"/>
<polygon points="149.307,530.952 122.011,461.994 111.455,461.994 143.212,538.473 155.496,538.473 186.641,461.994 
	176.602,461.994 "/>
<path d="M32.188,462.056H1.239v76.322h30.949c29.92,0,40.239-16.501,40.239-38.15C72.426,478.544,62.108,462.056,32.188,462.056z
	 M32.615,530.814H11.053v-60.862h20.27c21.996,0,31.043,11.944,31.043,30.276C62.367,520.912,51.913,530.814,32.615,530.814z"/>
<path d="M256.509,495.596c-11.937-2.456-22.418-4.497-22.418-14.55c0-8.728,7.862-11.787,21.255-11.787
	c10.911,0,23.289,1.89,23.289,1.89l1.163-7.569c0,0-10.188-2.326-23.881-2.326c-19.787,0-31.431,5.388-31.431,20.371
	c0,17.032,14.841,19.65,30.859,23.004c11.787,2.468,19.93,4.216,19.93,14.264c0,9.597-6.836,12.658-21.242,12.658
	c-12.374,0-26.779-2.483-26.779-2.483l-1.02,8.162c0,0,13.678,2.326,26.356,2.326c24.446,0,32.444-7.855,32.444-21.977
	C285.035,501.426,274.119,499.242,256.509,495.596z"/>
</svg>