<?xml version="1.0" encoding="UTF-8" standalone="no"?>
<!-- Generator: Adobe Illustrator 22.0.1, SVG Export Plug-In . SVG Version: 6.00 Build 0)  -->

<svg
   xmlns:dc="http://purl.org/dc/elements/1.1/"
   xmlns:cc="http://creativecommons.org/ns#"
   xmlns:rdf="http://www.w3.org/1999/02/22-rdf-syntax-ns#"
   xmlns:svg="http://www.w3.org/2000/svg"
   xmlns="http://www.w3.org/2000/svg"
   xmlns:xlink="http://www.w3.org/1999/xlink"
   xmlns:sodipodi="http://sodipodi.sourceforge.net/DTD/sodipodi-0.dtd"
   xmlns:inkscape="http://www.inkscape.org/namespaces/inkscape"
   version="1.1"
   id="Layer_1"
   x="0px"
   y="0px"
   viewBox="0 0 302.0181 252"
   xml:space="preserve"
   sodipodi:docname="rapid buc.svg"
   width="302.0181"
   height="252"
   inkscape:version="0.92.4 (5da689c313, 2019-01-14)"><metadata
   id="metadata371"><rdf:RDF><cc:Work
       rdf:about=""><dc:format>image/svg+xml</dc:format><dc:type
         rdf:resource="http://purl.org/dc/dcmitype/StillImage" /><dc:title></dc:title></cc:Work></rdf:RDF></metadata><defs
   id="defs369" /><sodipodi:namedview
   pagecolor="#ffffff"
   bordercolor="#666666"
   borderopacity="1"
   objecttolerance="10"
   gridtolerance="10"
   guidetolerance="10"
   inkscape:pageopacity="0"
   inkscape:pageshadow="2"
   inkscape:window-width="1366"
   inkscape:window-height="705"
   id="namedview367"
   showgrid="false"
   fit-margin-top="1"
   fit-margin-bottom="1"
   fit-margin-left="1"
   fit-margin-right="1"
   inkscape:zoom="0.8324515"
   inkscape:cx="106.18581"
   inkscape:cy="139.14999"
   inkscape:window-x="-8"
   inkscape:window-y="-8"
   inkscape:window-maximized="1"
   inkscape:current-layer="Layer_1" />
<style
   type="text/css"
   id="style2">
	.st0{clip-path:url(#SVGID_2_);fill:#A9A9AA;}
	.st1{clip-path:url(#SVGID_2_);fill:#843037;}
	.st2{clip-path:url(#SVGID_2_);fill:#FFFFFF;}
	.st3{clip-path:url(#SVGID_2_);}
	.st4{clip-path:url(#SVGID_2_);fill:#556463;}
	.st5{clip-path:url(#SVGID_2_);fill:none;stroke:#000000;stroke-width:1.701;}
	.st6{fill:none;stroke:#000000;stroke-width:1.701;}
	.st7{clip-path:url(#SVGID_4_);fill:none;stroke:#000000;stroke-width:1.701;}
	.st8{clip-path:url(#SVGID_6_);}
	.st9{clip-path:url(#SVGID_6_);fill:#969693;}
	.st10{clip-path:url(#SVGID_6_);fill:none;stroke:#000000;stroke-width:0.567;}
	.st11{clip-path:url(#SVGID_6_);fill:none;stroke:#000000;stroke-width:0.283;}
	.st12{clip-path:url(#SVGID_6_);fill:#FFFFFF;}
	.st13{clip-path:url(#SVGID_6_);fill:#EE7738;}
	.st14{fill:none;stroke:#000000;stroke-width:0.567;}
	.st15{clip-path:url(#SVGID_8_);fill:none;stroke:#000000;stroke-width:0.567;}
	.st16{fill:none;stroke:#000000;}
	.st17{clip-path:url(#SVGID_14_);fill:none;stroke:#000000;stroke-width:0.567;}
	.st18{clip-path:url(#SVGID_16_);fill:none;stroke:#000000;stroke-width:0.567;}
	.st19{clip-path:url(#SVGID_18_);fill:#969693;}
	.st20{clip-path:url(#SVGID_18_);fill:none;stroke:#000000;stroke-width:0.567;}
	.st21{clip-path:url(#SVGID_20_);fill:none;stroke:#000000;stroke-width:0.567;}
	.st22{clip-path:url(#SVGID_26_);fill:none;stroke:#000000;stroke-width:0.567;}
	.st23{clip-path:url(#SVGID_28_);fill:none;stroke:#000000;stroke-width:0.567;}
	.st24{clip-path:url(#SVGID_30_);fill:#BE3A38;}
	.st25{clip-path:url(#SVGID_30_);fill:#FFFFFF;}
	.st26{clip-path:url(#SVGID_30_);fill:none;stroke:#000000;}
	.st27{fill:#BE3A38;}
	.st28{clip-path:url(#SVGID_32_);}
	.st29{fill:#6A6968;}
	.st30{clip-path:url(#SVGID_34_);fill:none;stroke:#000000;stroke-width:0.709;}
	.st31{fill:none;stroke:#000000;stroke-width:0.709;}
	.st32{clip-path:url(#SVGID_36_);fill:none;stroke:#000000;stroke-width:0.709;}
	.st33{clip-path:url(#SVGID_38_);fill:none;stroke:#000000;stroke-width:0.709;}
</style>
<g
   id="g364"
   transform="matrix(0.90448627,0,0,0.90448627,-0.26628076,-2.1657019)">
	<g
   id="g32">
		<defs
   id="defs5">
			<rect
   id="SVGID_1_"
   x="1.4"
   y="3.5"
   width="331.70001"
   height="276.39999" />
		</defs>
		<clipPath
   id="SVGID_2_">
			<use
   xlink:href="#SVGID_1_"
   style="overflow:visible"
   id="use7"
   x="0"
   y="0"
   width="100%"
   height="100%" />
		</clipPath>
		<path
   class="st0"
   d="M 266.4,39 C 265.5,27.4 255.2,17.6 230.1,10.6 203.5,3.3 167.2,3.5 167.2,3.5 c 0,0 -36.3,-0.3 -62.9,7.1 C 79.3,17.5 68.9,27.4 68,39 67.1,50.6 66.4,74.1 66.6,84.9 66.7,95.7 67.7,123 70.9,142 74,161 93.6,248.4 167.3,279.9 241,248.4 260.5,161 263.7,142 266.8,123 267.8,95.7 268,84.9 268,74.1 267.3,50.6 266.4,39"
   clip-path="url(#SVGID_2_)"
   id="path10"
   inkscape:connector-curvature="0"
   style="fill:#a9a9aa" />
		<path
   class="st1"
   d="m 259.4,39 c 0,-9.4 -11.6,-15.4 -30.5,-21.3 -15.7,-5.5 -61.7,-7.1 -61.7,-7.1 0,0 -45.9,1.6 -61.7,7.1 C 86.7,23.5 75.1,29.6 75.1,39 m 0,0 v 0 C 74.6,47.2 74,62.2 74,69.3 c 0,7.1 0.1,32.5 1.1,44.9 1,12.5 4.8,51.7 17.9,76.4 13,24.7 30,60.4 74.3,80.5 44.2,-20.1 61.2,-55.8 74.3,-80.5 13,-24.7 16.9,-63.9 17.9,-76.4 1,-12.5 1.1,-37.8 1.1,-44.9 0,-7.1 -0.6,-22.1 -1.1,-30.3 v 0"
   clip-path="url(#SVGID_2_)"
   id="path12"
   inkscape:connector-curvature="0"
   style="fill:#843037" />
		<path
   class="st2"
   d="m 245.2,59.7 c 0,-16.7 -14.9,-21.3 -34,-26.6 -15.4,-4.3 -43.9,-4.3 -43.9,-4.3 0,0 -28.5,-0.1 -43.9,4.3 -19.1,5.4 -34,9.9 -34,26.6 0,16.7 -0.9,46.8 1.3,65.6 2.1,18.9 4.1,34.2 13.7,54.6 9.6,20.4 29.5,54.1 62.9,66.3 33.4,-12.2 53.3,-45.9 62.9,-66.3 9.6,-20.4 11.6,-35.7 13.7,-54.6 2.1,-18.8 1.3,-48.9 1.3,-65.6"
   clip-path="url(#SVGID_2_)"
   id="path14"
   inkscape:connector-curvature="0"
   style="fill:#ffffff" />
		<path
   class="st3"
   d="m 124.5,46.7 c -0.8,2.6 -7.4,3.2 -7.4,3.2 l 0.1,-7.6 c 0,0 3.1,-0.6 5.4,-0.8 2.3,0 2.8,2.7 1.9,5.2 m 1,18.4 c 0,0 3.8,-0.8 6.9,-1.1 v -3.7 c 0,0 -1.8,0.2 -2.4,-0.3 -0.6,-0.5 -5.3,-7.4 -5.3,-7.4 0,0 6.3,-3 5.8,-9.4 -0.5,-6.4 -4.3,-6.8 -6.8,-6.6 -2.5,0.2 -14.1,2.8 -14.1,2.8 v 0.1 4 c 0,0 2.5,-1 2.5,0.3 0,1.3 -0.2,18.9 -0.2,18.9 0,0 0.2,1.4 -2.5,1.7 l -0.1,4 c 0,0 8.1,-1.9 10.2,-2.1 l 0.1,-3.9 c 0,0 -2.3,0.8 -2.4,-0.7 0,-1.5 -0.1,-7.3 -0.1,-7.3 l 1.8,-0.4 z m 23.4,-16.1 -4.2,0.3 2.2,-7.9 z m 9.8,12.9 V 58 c 0,0 -1.3,0.1 -1.7,-0.9 -0.4,-1 -6.8,-23.7 -6.8,-23.7 l -4.8,0.2 -6.9,24.3 c 0,0 -0.4,1.7 -2.1,1.8 l -0.1,3.9 c 0,0 5.6,-0.7 8.2,-0.8 l 0.1,-3.9 h -1.3 c 0,0 -1.3,0 -0.9,-1.6 0.4,-1.6 1,-3.8 1,-3.8 l 6.5,-0.4 c 0,0 1.1,3.9 0.9,4.5 -0.3,0.5 -0.5,0.8 -2,0.8 v 3.9 c 0,0 6.9,-0.4 9.9,-0.4 M 178.2,42 c 0,3 -2,3.9 -2.7,4 -0.8,0.1 -3.3,0 -3.3,0 v -8.2 c 0,0 1.7,0 2.9,0.1 1.2,0 3.1,1.1 3.1,4.1 m 5.4,0.1 c -0.1,-6.3 -3.7,-8.8 -8.3,-8.9 -4.6,-0.2 -11.1,-0.1 -11.1,-0.1 V 37 c 0,0 2.6,-0.4 2.6,1.3 0,1.6 -0.2,17.8 -0.2,17.8 0,0 0.1,1.9 -1.1,1.9 -1.2,0 -1.6,0 -1.6,0 v 4 c 0,0 6.4,-0.1 10.2,0.1 l 0.2,-3.9 H 173 c 0,0 -1.2,-0.1 -1.2,-1.3 0,-1.2 0,-6.3 0,-6.3 0,0 4.9,0.1 6.2,-0.2 1.6,-0.3 5.7,-2 5.6,-8.3 m 15.7,-2.8 v -3.9 l -10.4,-1.3 v 4 c 0,0 2.6,-0.5 2.6,2.1 0,2.6 -0.2,17.5 -0.2,17.5 0,0 0.3,2 -2.5,1.4 l -0.2,3.9 c 0,0 8,0.8 10.4,1.3 l 0.1,-3.9 c 0,0 -2.4,0.3 -2.4,-2 0,-2.2 0.1,-18 0.1,-18 0,0 -0.1,-1.9 2.5,-1.1 m 22.5,15.1 c -0.3,8.8 -5,8.1 -6.7,8.1 -1.6,-0.1 -2,-1.3 -2,-1.3 l 0.2,-18.7 c 4.9,0.4 8.8,3.1 8.5,11.9 m 4.5,-6.8 c -1.7,-6.4 -6.9,-8.8 -11.3,-9.6 -4.4,-0.9 -9.5,-1.6 -9.5,-1.6 v 3.9 c 0,0 2.5,0 2.5,1.9 0,1.9 -0.2,17.6 -0.2,17.6 0,0 0.3,2.4 -2.5,1.4 v 3.9 c 0,0 9,1.9 11.9,2.1 2.9,0.2 6.3,-0.2 8.2,-3.9 2,-3.8 2.6,-9.3 0.9,-15.7"
   clip-path="url(#SVGID_2_)"
   id="path16"
   inkscape:connector-curvature="0" />
		<path
   class="st2"
   d="m 67.5,210.5 0.6,34.4 c 0,0 3.8,2.4 5.4,2.9 1.6,0.6 7.1,2.3 10.1,2.7 3.1,0.4 9,0.2 12.8,-0.2 3.7,-0.5 11.9,-2.8 11.9,-2.8 l 15.3,-5 13.5,-4.1 c 0,0 8.3,-1.9 12.7,-2.2 4.4,-0.3 11.7,-1.1 18.1,-0.8 6.5,0.2 14.2,0.2 19.9,1.2 5.7,1 24,6.4 27.1,7.5 3.1,1.1 8.5,2.9 13.6,4.3 5.1,1.3 7.4,2.4 15.6,2.6 8.2,0.2 13.2,-1.7 15.6,-2.4 2.4,-0.7 7,-4 7,-4 l 0.4,-34.3 -8.8,3.9 -6.7,1.6 -5.3,0.5 -4.8,-0.1 -7.3,-1 -12,-2.3 -10.3,-3 -9.9,-2.9 -14.2,-4.1 -6.3,-1.3 -6.4,-0.9 -6.7,-0.6 -3.5,0.1 -11.2,1.4 -10.1,2.1 -9.1,2.7 -12.5,3.7 -12.6,3.6 -8.2,1.5 -8.8,0.9 -7.7,-0.5 -7.4,-1.4 -8.6,-3.6 z"
   clip-path="url(#SVGID_2_)"
   id="path18"
   inkscape:connector-curvature="0"
   style="fill:#ffffff" />
		<path
   class="st2"
   d="m 243.9,191.8 -0.9,0.9 -0.2,1.1 c 0,0 0.1,0.7 0.2,0.7 0.1,0.1 0.6,0.9 0.6,0.9 l 1.3,0.9 1.7,0.8 2.1,0.5 2.6,0.1 1.5,-0.1 3.3,0.1 1.9,0.3 2.7,0.7 2.2,0.9 1.5,0.8 1.4,1.1 c 0,0 0.9,1.3 1,1.4 0,0.1 0.8,1.9 0.8,2 0,0.1 0.3,1.3 0.3,1.3 0,0 0.1,1.1 0.1,1.2 0,0.1 0.1,1.3 0.1,1.3 l -0.1,7.6 -0.2,14.1 1.6,0.4 3.7,0.5 7.8,0.6 h 8.3 l 6.7,-0.7 3.8,-1.3 0.7,-0.6 -8.2,-8.6 -8,-8.4 15.5,-17.6 -5.7,0.6 -3.6,0.4 -11.6,1 -6.8,-0.2 -2,-0.6 -3.3,-2.4 -3.9,-2.5 -3.4,-1.1 -4.9,-0.4 -3.7,0.1 -3.4,0.5 -2.2,0.8 z"
   clip-path="url(#SVGID_2_)"
   id="path20"
   inkscape:connector-curvature="0"
   style="fill:#ffffff" />
		<path
   class="st2"
   d="m 34.6,194.5 14.9,18 -15.9,17.4 3.4,1 5.1,1.6 14.6,-0.4 9.9,-1.4 -0.4,-18.9 0.5,-6.8 1,-2.1 1.7,-2 2.1,-1.2 2.4,-0.9 3.4,-1 2.9,-0.1 h 2.6 c 0.1,0 2.5,0 2.5,0 0,0 2.3,-0.5 2.4,-0.5 0.1,0 2.2,-1.1 2.2,-1.1 l 1.2,-1.1 0.5,-1.4 -1,-1.8 -1.8,-1 -3,-0.9 -3.9,-0.3 -3.2,0.1 -3.2,0.2 -3.1,1 -1.9,0.8 -3.7,2.8 -1.8,1.3 -2.8,0.9 -3.4,0.2 -9.6,-0.5 z"
   clip-path="url(#SVGID_2_)"
   id="path22"
   inkscape:connector-curvature="0"
   style="fill:#ffffff" />
		<path
   class="st4"
   d="m 91.7,196.3 0.1,18.7 -0.7,0.3 -3,-0.1 -5.9,-0.7 -5.7,-1.4 -6.7,-2.8 -2.3,-1.2 c 0,0 0,-2.6 0.3,-3.7 0.3,-1.1 1.6,-3.3 2.7,-4 1.1,-0.7 2.8,-1.6 5.4,-2.1 2.6,-0.5 2.1,-0.5 4.4,-0.5 2.3,0 3.6,0.3 6.2,0.1 2.6,-0.3 3.2,-1 3.2,-1 z"
   clip-path="url(#SVGID_2_)"
   id="path24"
   inkscape:connector-curvature="0"
   style="fill:#556463" />
		<path
   class="st4"
   d="m 242.8,196.3 -0.1,18.7 0.7,0.3 3,-0.1 5.9,-0.7 5.7,-1.4 6.7,-2.8 2.3,-1.2 c 0,0 0,-2.6 -0.3,-3.7 -0.3,-1.1 -1.6,-3.3 -2.7,-4 -1.1,-0.7 -2.8,-1.6 -5.4,-2.1 -2.6,-0.5 -2.1,-0.5 -4.4,-0.5 -2.3,0 -3.6,0.3 -6.2,0.1 -2.6,-0.3 -3.2,-1 -3.2,-1 z"
   clip-path="url(#SVGID_2_)"
   id="path26"
   inkscape:connector-curvature="0"
   style="fill:#556463" />
		<path
   class="st5"
   d="m 167.2,235.9 c -6.4,0 -19.3,0.4 -28.3,2.6 -9.1,2.2 -27.4,9.4 -39.7,11.9 C 86.9,252.9 78,250 74.9,249 c -3.1,-1 -7.4,-4 -7.4,-4 l -0.6,-37.7 c 0,0 0.4,-4.7 3.3,-6.4 2.8,-1.7 6.7,-3 12.6,-2.7 6,0.3 10.1,-2.5 9.5,-4.8 -0.6,-2.3 -3.7,-4.1 -8.8,-4.3 -5.1,-0.1 -7.8,-0.1 -10.9,1 -3.1,1.1 -6,3.8 -7.4,5 -1.4,1.1 -3,1.1 -7.7,1.1 -4.7,0 -21,-1.4 -24.4,-2.5 l -0.1,0.1 16.6,18.5 -16.3,17.2 c 0,0 1.8,2.2 10.2,2.9 0,0 14.9,0.7 23.2,-1.5"
   clip-path="url(#SVGID_2_)"
   id="path28"
   inkscape:connector-curvature="0"
   style="fill:none;stroke:#000000;stroke-width:1.70099998" />
		<path
   class="st5"
   d="m 67,209.4 c 0,0 4.3,2.4 8.4,3.9 4.1,1.5 12.3,3.2 21.9,1.9 9.6,-1.3 17,-3.2 22.2,-4.9 5.2,-1.7 20.9,-6.7 27.8,-8.1 6.9,-1.5 15.2,-2.7 19.8,-2.7"
   clip-path="url(#SVGID_2_)"
   id="path30"
   inkscape:connector-curvature="0"
   style="fill:none;stroke:#000000;stroke-width:1.70099998" />
	</g>
	<line
   class="st6"
   x1="92.300003"
   y1="193.60001"
   x2="92.400002"
   y2="215.8"
   id="line34"
   style="fill:none;stroke:#000000;stroke-width:1.70099998" />
	<g
   id="g46">
		<defs
   id="defs37">
			<rect
   id="SVGID_3_"
   x="1.4"
   y="3.5"
   width="331.70001"
   height="276.39999" />
		</defs>
		<clipPath
   id="SVGID_4_">
			<use
   xlink:href="#SVGID_3_"
   style="overflow:visible"
   id="use39"
   x="0"
   y="0"
   width="100%"
   height="100%" />
		</clipPath>
		<path
   class="st7"
   d="m 167.2,235.9 c 6.4,0 19.3,0.4 28.3,2.6 9.1,2.2 27.4,9.4 39.7,11.9 12.3,2.5 21.3,-0.5 24.3,-1.4 3.1,-1 7.4,-4 7.4,-4 l 0.6,-37.7 c 0,0 -0.4,-4.7 -3.3,-6.4 -2.8,-1.7 -6.7,-3 -12.6,-2.7 -6,0.3 -10.1,-2.5 -9.5,-4.8 0.6,-2.3 3.7,-4.1 8.8,-4.3 5.1,-0.1 7.8,-0.1 10.9,1 3.1,1.1 6,3.8 7.4,5 1.4,1.1 3,1.1 7.7,1.1 4.7,0 21,-1.4 24.4,-2.5 l 0.1,0.1 -16.6,18.5 16.3,17.2 c 0,0 -1.8,2.2 -10.2,2.9 0,0 -14.9,0.7 -23.2,-1.5"
   clip-path="url(#SVGID_4_)"
   id="path42"
   inkscape:connector-curvature="0"
   style="fill:none;stroke:#000000;stroke-width:1.70099998" />
		<path
   class="st7"
   d="m 267.4,209.4 c 0,0 -4.3,2.4 -8.4,3.9 -4.1,1.5 -12.3,3.2 -21.9,1.9 -9.6,-1.3 -17,-3.2 -22.2,-4.9 -5.2,-1.7 -20.9,-6.7 -27.9,-8.1 -6.9,-1.5 -15.2,-2.7 -19.8,-2.7"
   clip-path="url(#SVGID_4_)"
   id="path44"
   inkscape:connector-curvature="0"
   style="fill:none;stroke:#000000;stroke-width:1.70099998" />
	</g>
	<line
   class="st6"
   x1="242.2"
   y1="193.60001"
   x2="242.10001"
   y2="215.8"
   id="line48"
   style="fill:none;stroke:#000000;stroke-width:1.70099998" />
	<g
   id="g120">
		<defs
   id="defs51">
			<rect
   id="SVGID_5_"
   x="1.4"
   y="3.5"
   width="331.70001"
   height="276.39999" />
		</defs>
		<clipPath
   id="SVGID_6_">
			<use
   xlink:href="#SVGID_5_"
   style="overflow:visible"
   id="use53"
   x="0"
   y="0"
   width="100%"
   height="100%" />
		</clipPath>
		<path
   class="st8"
   d="m 214.6,229.9 c 0.8,0.3 1.2,0.7 1.5,1.1 0.2,0.4 0.2,0.9 -0.1,1.5 -0.3,0.6 -0.6,1 -1,1.2 -0.4,0.2 -0.9,0.1 -1.4,-0.1 -0.2,-0.1 -0.5,-0.2 -0.7,-0.4 l 1.5,-3.4 z m 1.2,-3.7 c 0.3,0.1 0.6,0.2 0.8,0.3 0.5,0.2 0.8,0.5 0.9,0.8 0.1,0.4 0.1,0.8 -0.1,1.2 -0.2,0.5 -0.6,0.9 -1,1 -0.4,0.1 -1,0.1 -1.6,-0.2 l -0.3,-0.1 z m -2,-1 c 0.1,0.1 0.1,0.1 0.1,0.2 0,0.1 0,0.4 -0.2,0.7 -0.4,1 -0.7,1.8 -1,2.3 -0.4,0.9 -0.8,1.8 -1.2,2.8 -0.3,0.6 -0.4,0.9 -0.5,1 -0.1,0.1 -0.1,0.1 -0.2,0.1 -0.1,0 -0.1,0 -0.2,0 l -1.1,-0.2 -0.2,0.4 c 1,0.4 1.7,0.7 2,0.8 0.2,0.1 0.5,0.2 0.9,0.4 0.3,0.2 0.6,0.3 0.9,0.4 0.9,0.4 1.6,0.6 2.2,0.6 0.6,0 1.2,-0.1 1.6,-0.4 0.4,-0.3 0.8,-0.7 1,-1.2 0.2,-0.4 0.2,-0.8 0.2,-1.1 -0.1,-0.4 -0.2,-0.7 -0.5,-1 -0.3,-0.3 -0.6,-0.5 -1.1,-0.8 0.7,0.1 1.2,0 1.6,-0.1 0.5,-0.2 0.9,-0.6 1.2,-1.1 0.3,-0.6 0.2,-1.2 -0.1,-1.8 -0.3,-0.4 -0.8,-0.8 -1.7,-1.2 -0.2,-0.1 -0.5,-0.2 -0.8,-0.3 -0.6,-0.2 -1,-0.4 -1.3,-0.5 -0.7,-0.3 -1.5,-0.7 -2.4,-1.1 l -0.2,0.4 c 0.6,0.5 0.9,0.7 1,0.7 m -11.1,-3.9 c 0.1,0.1 0.1,0.2 0.1,0.3 0,0.1 -0.1,0.5 -0.2,1 l -1.3,3.8 c -0.3,0.8 -0.4,1.5 -0.3,2 0.1,0.5 0.3,1 0.8,1.4 0.5,0.4 1.1,0.8 2.1,1.1 0.5,0.2 1.1,0.3 1.6,0.3 0.4,0 0.8,-0.1 1.2,-0.2 0.4,-0.1 0.7,-0.3 1,-0.6 0.3,-0.2 0.5,-0.6 0.7,-1 0.2,-0.3 0.4,-1 0.8,-2.1 0.6,-1.9 1,-2.9 1.1,-3.1 0.1,-0.1 0.2,-0.2 0.3,-0.2 0.1,0 0.5,0 1.2,0.1 l 0.2,-0.5 c -0.7,-0.2 -1.3,-0.4 -1.7,-0.5 -0.4,-0.1 -1,-0.4 -1.8,-0.7 l -0.2,0.5 c 0.1,0.1 0.2,0.1 0.2,0.1 0.4,0.2 0.7,0.4 0.7,0.5 0,0.1 0.1,0.1 0.1,0.2 0,0.1 -0.1,0.5 -0.3,1.2 -0.4,1.2 -0.6,1.9 -0.7,2.1 -0.4,1.1 -0.7,1.8 -0.9,2.2 -0.2,0.4 -0.6,0.7 -1,0.8 -0.4,0.2 -1,0.1 -1.6,-0.1 -0.6,-0.2 -1,-0.5 -1.3,-0.8 -0.3,-0.3 -0.4,-0.7 -0.4,-1.2 0,-0.3 0.1,-0.9 0.4,-1.7 l 1.1,-3.2 c 0.1,-0.4 0.3,-0.7 0.3,-0.8 0.1,-0.1 0.1,-0.1 0.3,-0.1 0.2,0 0.6,0 1.2,0.1 l 0.2,-0.5 c -1,-0.3 -1.7,-0.5 -2.3,-0.7 -0.6,-0.2 -1.4,-0.5 -2.3,-0.9 l -0.2,0.5 c 0.5,0.4 0.8,0.6 0.9,0.7 m -9.6,-2.3 c 0.1,0.1 0.1,0.1 0.1,0.3 0,0.1 -0.1,0.6 -0.2,1.2 l -0.1,0.4 -0.5,2.3 c -0.4,1.9 -0.7,2.9 -0.7,3.1 -0.1,0.1 -0.1,0.2 -0.2,0.3 -0.1,0 -0.5,0 -1.3,0 l -0.1,0.5 c 1.1,0.2 2.1,0.4 3.1,0.6 1.2,0.3 2.7,0.6 4.5,1.1 0.5,-0.9 1,-1.7 1.4,-2.4 l -0.6,-0.1 c -0.6,0.6 -1,1 -1.2,1.1 -0.2,0.1 -0.4,0.2 -0.6,0.3 -0.1,0 -0.4,0 -0.8,-0.1 l -2.3,-0.5 1.2,-5.3 0.4,-1.6 c 0.1,-0.3 0.2,-0.5 0.3,-0.5 0.1,0 0.6,0 1.5,0.1 l 0.1,-0.5 c -1,-0.2 -1.9,-0.4 -2.5,-0.5 -0.6,-0.1 -1.5,-0.4 -2.5,-0.7 l -0.1,0.5 c 0.6,0.2 1,0.4 1.1,0.4 m -7.3,6.4 c -1,-0.2 -1.8,-0.6 -2.4,-1.4 -0.5,-0.8 -0.7,-1.8 -0.5,-3 0.2,-1.2 0.6,-2.1 1.4,-2.7 0.6,-0.5 1.4,-0.7 2.3,-0.5 0.6,0.1 1.1,0.3 1.4,0.6 0.3,0.3 0.6,0.6 0.7,0.9 0,0.2 0.1,0.7 0.2,1.5 l 0.7,0.1 c 0,-0.8 0.1,-1.4 0.2,-1.9 0,-0.3 0.1,-0.6 0.2,-0.9 -0.7,-0.3 -1.3,-0.6 -1.8,-0.7 -0.5,-0.2 -1,-0.3 -1.5,-0.4 -1.7,-0.2 -3,0 -4.1,0.8 -1.1,0.8 -1.7,1.9 -1.9,3.4 -0.2,1.4 0,2.6 0.8,3.5 0.7,1 1.8,1.5 3.3,1.8 0.7,0.1 1.4,0.1 2,0 0.7,-0.1 1.4,-0.4 2.2,-0.7 l -0.2,-0.7 c -1.1,0.3 -2,0.5 -3,0.3 m -17.7,-8.9 c 0.1,0 0.1,0.1 0.2,0.2 0,0.1 0.1,0.6 0,1.3 v 0.4 l -0.1,2.4 c -0.1,1.9 -0.1,3 -0.1,3.1 0,0.2 -0.1,0.3 -0.2,0.3 -0.1,0.1 -0.5,0.1 -1.3,0.3 v 0.5 c 1.1,0 2.1,0 3.1,0 1.2,0 2.8,0.1 4.6,0.2 0.3,-1 0.6,-1.8 0.9,-2.6 h -0.6 c -0.4,0.7 -0.7,1.1 -0.9,1.3 -0.2,0.2 -0.3,0.3 -0.5,0.4 -0.1,0 -0.4,0.1 -0.8,0.1 l -2.4,-0.1 0.2,-5.4 0.1,-1.7 c 0,-0.3 0.1,-0.5 0.2,-0.6 0.1,0 0.6,-0.1 1.5,-0.2 v -0.5 c -1.1,0 -1.9,0 -2.5,0 -0.6,0 -1.5,-0.1 -2.6,-0.1 v 0.5 c 0.8,0.1 1.2,0.2 1.2,0.2 m -6.9,5.2 c -0.6,0 -1,0.1 -1.3,0.1 l -1.3,0.1 1.1,-3.2 z m 2.7,3.3 c 0.7,0 1.4,-0.1 2.2,-0.1 v -0.5 c -0.5,-0.1 -0.8,-0.2 -0.9,-0.2 -0.1,-0.1 -0.2,-0.2 -0.3,-0.3 -0.2,-0.2 -0.6,-1.1 -1.4,-2.6 -1.5,-2.7 -2.4,-4.6 -2.9,-5.6 h -0.5 c -0.8,2.4 -1.5,4.1 -1.9,5.4 -0.7,1.9 -1.2,3 -1.3,3.3 -0.1,0.1 -0.2,0.3 -0.3,0.3 -0.1,0.1 -0.4,0.2 -0.8,0.3 v 0.5 c 0.6,-0.1 1.1,-0.1 1.6,-0.2 0.5,0 1,0 1.6,0 v -0.5 c -0.6,-0.1 -0.9,-0.1 -0.9,-0.2 -0.1,0 -0.1,-0.1 -0.1,-0.2 0,-0.1 0.2,-0.8 0.6,-1.9 0.8,-0.1 1.3,-0.1 1.7,-0.1 0.4,0 0.9,-0.1 1.5,-0.1 0.4,0.9 0.7,1.4 0.8,1.6 0,0.1 0.1,0.1 0.1,0.2 0,0.1 0,0.2 -0.1,0.3 -0.1,0.1 -0.4,0.2 -0.9,0.3 v 0.5 c 0.7,0 1.5,-0.1 2.2,-0.2 M 150,221.9 c 0.8,-0.1 1.4,-0.1 1.8,0.1 0.4,0.2 0.6,0.7 0.7,1.3 0.1,0.7 0,1.2 -0.2,1.5 -0.3,0.4 -0.7,0.6 -1.3,0.7 -0.2,0 -0.5,0 -0.8,0 l -0.5,-3.7 z m -0.9,-3.9 c 0.3,-0.1 0.6,-0.2 0.8,-0.2 0.5,-0.1 0.9,0 1.2,0.2 0.3,0.2 0.5,0.6 0.6,1.1 0.1,0.6 0,1 -0.3,1.4 -0.3,0.3 -0.8,0.6 -1.5,0.7 h -0.3 z m -2.3,0.3 c 0.1,0 0.2,0.1 0.2,0.1 0.1,0.1 0.2,0.3 0.2,0.6 0.2,1.1 0.3,1.9 0.4,2.5 0.1,0.9 0.3,2 0.4,3 0.1,0.6 0.1,1 0.1,1.1 0,0.1 0,0.2 -0.1,0.2 0,0.1 -0.1,0.1 -0.2,0.2 l -1,0.4 0.1,0.5 c 1.1,-0.2 1.8,-0.3 2.1,-0.4 0.2,0 0.5,-0.1 1,-0.1 0.4,0 0.7,-0.1 0.9,-0.1 0.9,-0.1 1.6,-0.4 2.2,-0.7 0.5,-0.3 0.9,-0.7 1.2,-1.2 0.2,-0.5 0.3,-1 0.2,-1.5 -0.1,-0.4 -0.2,-0.8 -0.4,-1.1 -0.2,-0.3 -0.5,-0.5 -0.9,-0.6 -0.4,-0.1 -0.8,-0.1 -1.4,-0.1 0.6,-0.3 1,-0.6 1.3,-1 0.3,-0.5 0.5,-1 0.4,-1.6 -0.1,-0.7 -0.4,-1.2 -1,-1.4 -0.4,-0.2 -1.1,-0.3 -2,-0.1 -0.3,0 -0.5,0.1 -0.8,0.1 -0.6,0.1 -1.1,0.2 -1.4,0.2 -0.7,0.1 -1.6,0.2 -2.7,0.3 l 0.1,0.5 c 0.7,0.2 1.1,0.2 1.1,0.2 m -2.8,-0.2 c -0.6,0.2 -1.6,0.4 -2.9,0.7 -1.6,0.4 -3.3,0.7 -5,1.1 0.1,0.7 0.2,1.2 0.3,1.4 0,0.2 0.1,0.7 0.2,1.3 l 0.6,-0.1 c 0,-0.8 0.1,-1.3 0.2,-1.5 0,-0.2 0.1,-0.3 0.2,-0.4 0.1,-0.1 0.3,-0.2 0.7,-0.3 l 1.1,-0.2 1.4,5.9 c 0.2,0.8 0.3,1.2 0.3,1.3 0,0.1 0,0.2 -0.1,0.3 -0.1,0.1 -0.5,0.3 -1.1,0.6 l 0.1,0.5 c 1,-0.3 1.8,-0.5 2.3,-0.6 0.4,-0.1 1.2,-0.3 2.5,-0.5 l -0.1,-0.5 c -0.7,0 -1.1,0 -1.2,0 -0.1,0 -0.2,-0.1 -0.2,-0.2 -0.1,-0.1 -0.2,-0.6 -0.4,-1.3 l -1.4,-6 0.6,-0.1 c 0.6,-0.1 1,-0.2 1.2,-0.2 0.1,0 0.2,0.1 0.3,0.2 0.1,0.1 0.4,0.6 0.9,1.4 l 0.6,-0.1 c -0.7,-1 -1,-1.9 -1.1,-2.7 m -16.3,6.9 c 0,-0.7 0.1,-1.2 0.4,-1.6 0.3,-0.4 0.7,-0.7 1.2,-0.9 0.4,-0.2 0.9,-0.2 1.2,-0.1 0.4,0.1 0.7,0.3 1,0.5 0.3,0.2 0.6,0.6 0.9,1.1 0.3,0.5 0.5,1.1 0.7,1.7 0.3,0.8 0.4,1.5 0.4,2.2 0,0.7 -0.1,1.2 -0.4,1.6 -0.3,0.4 -0.7,0.7 -1.2,0.8 -0.8,0.3 -1.4,0.2 -2,-0.2 -0.8,-0.5 -1.4,-1.5 -1.9,-3 -0.2,-0.8 -0.3,-1.5 -0.3,-2.1 m 0.6,6 c 1,0.5 2.3,0.5 3.7,0.1 0.9,-0.3 1.5,-0.7 2,-1.1 0.3,-0.3 0.6,-0.7 0.9,-1.2 0.3,-0.5 0.4,-1.1 0.5,-1.7 0.1,-0.8 0,-1.6 -0.3,-2.4 -0.4,-1.3 -1.2,-2.2 -2.2,-2.7 -1.1,-0.5 -2.3,-0.5 -3.6,-0.1 -1.5,0.5 -2.5,1.3 -3.1,2.5 -0.6,1.2 -0.6,2.5 -0.1,3.9 0.4,1.2 1.2,2.2 2.2,2.7 m -12.8,-2.9 c 0.6,-0.1 0.9,-0.2 1,-0.2 0.1,0 0.2,0.1 0.3,0.2 0.1,0.1 0.3,0.4 0.5,1 l 0.2,0.5 0.7,1.6 c 0.9,2 1.4,3.1 1.5,3.3 0.1,0.2 0.1,0.4 0,0.5 -0.1,0.1 -0.4,0.4 -1,0.8 l 0.2,0.4 c 0.8,-0.4 1.5,-0.8 2.2,-1.1 0.7,-0.3 1.5,-0.7 2.5,-1.1 l -0.2,-0.4 c -0.1,0 -0.2,0.1 -0.3,0.1 -0.5,0.2 -0.9,0.3 -1.1,0.3 -0.1,0 -0.2,0 -0.3,-0.1 -0.1,-0.1 -0.2,-0.3 -0.3,-0.6 l -1.2,-2.7 1.1,-0.5 c 0.4,-0.2 0.7,-0.3 0.8,-0.3 0.1,0 0.2,0 0.3,0.1 0.1,0.1 0.4,0.4 0.8,0.9 l 0.5,-0.2 c -0.3,-0.5 -0.5,-1 -0.7,-1.5 -0.2,-0.5 -0.5,-1.1 -0.7,-1.8 l -0.5,0.2 c 0.1,0.5 0.2,0.9 0.1,1.1 0,0.1 -0.1,0.2 -0.1,0.3 -0.1,0.1 -0.3,0.2 -0.7,0.4 l -1,0.5 -1.3,-2.9 2.3,-1 c 0.3,-0.2 0.6,-0.2 0.7,-0.2 0.1,0 0.2,0 0.3,0.1 0.2,0.1 0.6,0.4 1,0.9 l 0.1,0.2 0.5,-0.2 c -0.4,-0.6 -0.8,-1.4 -1.2,-2.3 -1.2,0.6 -2.6,1.3 -4.3,2 -0.6,0.3 -1.6,0.7 -2.9,1.3 l 0.2,0.4 c -0.2,0.1 -0.1,0 0,0"
   clip-path="url(#SVGID_6_)"
   id="path56"
   inkscape:connector-curvature="0" />
		<path
   class="st9"
   d="m 173.3,108.5 -0.3,0.7 c 2.9,-0.3 5.6,-0.7 8.2,-1.3 2.5,-0.6 5.2,-1.5 8,-2.8 l -4,-4.4 c -1.5,4.1 -5.8,3.3 -5.8,3.3 -1.2,4.2 -4.2,4.7 -6.1,4.5"
   clip-path="url(#SVGID_6_)"
   id="path58"
   inkscape:connector-curvature="0"
   style="fill:#969693" />
		<path
   class="st10"
   d="m 173.2,109.3 v -1.1 c 0,0 4.7,1 6,-4.3 0,0 4.8,0.8 5.8,-3.5"
   clip-path="url(#SVGID_6_)"
   id="path60"
   inkscape:connector-curvature="0"
   style="fill:none;stroke:#000000;stroke-width:0.56699997" />
		<path
   class="st10"
   d="m 154.1,68.1 c 0,0 -8.9,1.2 -5.5,11 0,0 0.2,-0.7 0.6,-1.5 0,0 0.5,-1.4 2.8,-1.2 2.6,0.2 4.7,0.2 5.2,-0.3 0.5,-0.6 0.8,-0.5 1.5,-0.5 0.7,0 1.6,0.1 3.1,-0.6 0,0 -3.1,-0.3 -4.4,-2.4 0,-0.1 1.4,-6.9 -3.3,-4.5 z"
   clip-path="url(#SVGID_6_)"
   id="path62"
   inkscape:connector-curvature="0"
   style="fill:none;stroke:#000000;stroke-width:0.56699997" />
		<path
   class="st11"
   d="m 149.6,76.8 c 0,0 0.5,-1.1 1,-1.5 0.6,-0.4 1.3,-0.3 1.9,-0.2 0.6,0.1 1.3,-0.3 1.7,-0.5 0.4,-0.2 2,-0.4 4.3,0.3"
   clip-path="url(#SVGID_6_)"
   id="path64"
   inkscape:connector-curvature="0"
   style="fill:none;stroke:#000000;stroke-width:0.28299999" />
		<path
   class="st8"
   d="m 155,69.3 c 0,0 -0.9,0.1 -0.7,0.6 0.1,0.5 0.3,0.6 0.8,0.6 0.5,0 0.8,0.1 1,0.9 0,0 0.3,-2.2 -1.1,-2.1"
   clip-path="url(#SVGID_6_)"
   id="path66"
   inkscape:connector-curvature="0" />
		<path
   class="st8"
   d="m 160.8,69 c 0,0 1.2,0 2,-0.6 0.8,-0.5 3.8,-2.7 6.2,-1.2 0,0 -2.1,-0.3 -3.2,0.4 0,0 0.8,0.1 1.2,0.5 0,0 -1.4,-0.1 -1.9,0.8 -0.5,0.9 -0.8,0.9 -1.2,1 0,0 0.9,0.4 2.3,-0.8 0.1,0.2 -2.1,3.4 -5.4,-0.1"
   clip-path="url(#SVGID_6_)"
   id="path68"
   inkscape:connector-curvature="0" />
		<path
   class="st12"
   d="m 163.9,67.9 c 0.2,-0.1 0.3,0 0.5,0.1 0.1,0.1 0.4,0.4 0.4,0.7 0,0.4 -0.1,0.5 -0.4,0.7 -0.3,0.3 -0.9,0.5 -1.3,0.3 -0.4,-0.2 -0.7,-0.5 -0.7,-0.6 -0.1,-0.1 0.1,-0.2 0.2,-0.3 0.1,-0.1 0.2,0 0.2,0 0.1,0.1 0.4,0.6 0.7,0.5 0.3,-0.1 0.6,-0.4 0.6,-0.7 -0.1,-0.3 -0.2,-0.4 -0.3,-0.4 -0.2,0 -0.1,-0.2 0.1,-0.3"
   clip-path="url(#SVGID_6_)"
   id="path70"
   inkscape:connector-curvature="0"
   style="fill:#ffffff" />
		<path
   class="st12"
   d="m 163.5,68.4 c 0,0 0.2,-0.1 0.4,0.1 0.2,0.2 0.1,0.3 0.1,0.5 0,0.2 -0.1,0.2 -0.2,0.2 -0.1,0 -0.1,0 -0.1,-0.1 0,-0.1 0.1,-0.3 0,-0.4 -0.1,-0.1 -0.1,-0.1 -0.2,-0.2 -0.1,0.1 -0.2,-0.1 0,-0.1"
   clip-path="url(#SVGID_6_)"
   id="path72"
   inkscape:connector-curvature="0"
   style="fill:#ffffff" />
		<path
   class="st10"
   d="m 190.3,105.8 c -8.9,-6.6 -7.9,-14.2 -7.9,-14.2 0,0 -0.2,-10.4 -0.3,-12.5 -0.1,-2.1 2.2,-13.5 -13,-15.5 0,0 -7.5,-1 -13.1,4"
   clip-path="url(#SVGID_6_)"
   id="path74"
   inkscape:connector-curvature="0"
   style="fill:none;stroke:#000000;stroke-width:0.56699997" />
		<path
   class="st9"
   d="m 161.3,109.2 -0.1,-0.7 c -1.9,0.2 -4.9,-0.3 -6.2,-4.3 0,0 -4,0.6 -5.6,-3 l -4.4,3.6 c 3.2,1.4 6.3,2.5 9,3.2 2.4,0.5 4.8,0.9 7.3,1.2"
   clip-path="url(#SVGID_6_)"
   id="path76"
   inkscape:connector-curvature="0"
   style="fill:#969693" />
		<path
   class="st10"
   d="m 161.3,109.2 v -1.1 c 0,0 -4.7,1 -6,-4.3 0,0 -4.4,0.8 -5.7,-3.3"
   clip-path="url(#SVGID_6_)"
   id="path78"
   inkscape:connector-curvature="0"
   style="fill:none;stroke:#000000;stroke-width:0.56699997" />
		<path
   class="st10"
   d="m 156.5,76.4 c 0,0 17.1,4.9 -12.4,29"
   clip-path="url(#SVGID_6_)"
   id="path80"
   inkscape:connector-curvature="0"
   style="fill:none;stroke:#000000;stroke-width:0.56699997" />
		<path
   class="st13"
   d="m 191.2,191.3 2,3 0.7,2.2 c 0,0 0.1,0.9 0.1,1 0,0.2 -0.4,1.5 -0.4,1.5 l -1.3,1.1 -0.9,0.8 c 0,0 -0.4,0.3 -0.5,0.3 -0.1,0.1 -0.3,0.3 -0.3,0.3 l -0.6,0.5 -0.4,0.3 -0.2,0.2 -0.3,0.3 c 0,0 -0.1,0.8 0.1,0.9 0.1,0.2 0.5,0.7 0.5,0.9 0,0.1 0.2,0.3 0.3,0.5 0.1,0.1 0.3,0.6 0.3,0.6 l 0.8,0.3 0.5,-0.5 0.4,-0.3 0.5,0.1 0.2,-0.8 0.2,-0.6 0.3,-0.3 c 0,0 0.2,-0.5 0.3,-0.6 0.1,-0.1 0.2,-0.4 0.3,-0.4 0.1,0 0.4,-0.1 0.3,-0.2 0,-0.1 0.1,-0.3 0.1,-0.5 0.1,-0.1 0.3,-0.4 0.3,-0.4 h 0.5 0.8 c 0.1,0 0.6,-0.1 0.6,-0.1 0,0 0.3,-0.2 0.3,-0.1 0,0.1 0.3,0.3 0.3,0.4 0.1,0.1 0.7,0.5 0.7,0.5 v 0.3 c 0,0 0.2,0.7 0.3,0.7 0.1,0 0.7,0.4 0.7,0.4 l 0.3,0.5 c 0,0 0.2,0.4 0.2,0.5 0,0.1 0,0.6 0.1,0.7 0.1,0.1 0.1,0.3 0.1,0.3 0,0 0.2,0.3 0.2,0.5 0,0.2 0.3,0.8 0.3,0.9 0,0.1 0.7,0.4 0.7,0.4 h 0.3 l 0.3,-0.5 c 0,0 0.1,-0.6 0.2,-0.7 0.1,-0.1 0.7,-0.4 0.7,-0.4 l 0.1,-0.4 -0.2,-0.7 -1.3,-1.7 -0.3,-0.6 -0.4,-0.3 v -0.5 l 0.3,0.1 1.5,0.5 c 0,0 1.5,0.5 1.7,0.5 0.2,0 1.6,-0.1 1.6,-0.1 0,0 0.9,-0.4 1,-0.4 0.1,0 1.7,-0.1 1.7,-0.1 l 0.6,0.5 c 0,0 0.5,0.1 0.5,0.1 0.1,0.1 0.4,0.2 0.5,0.3 0.1,0.1 0.9,0.5 0.9,0.5 l 0.5,-0.4 c 0,0 0.3,-0.6 0.3,-0.7 0,-0.1 -0.4,-1.1 -0.4,-1.1 l 0.1,-1 -0.3,-0.6 -0.3,-0.1 -0.5,0.1 c 0,0 -0.2,-0.1 -0.3,-0.1 -0.1,0 -0.6,0.2 -0.6,0.2 l -0.5,-0.1 c 0,0 -0.3,-0.1 -0.4,-0.1 -0.1,0 -0.5,0.3 -0.5,0.3 l -0.5,-0.1 c 0,0 -0.2,-0.1 -0.3,-0.1 h -0.3 l -0.3,0.1 -0.4,-0.1 h -0.3 l -0.5,0.1 -0.9,0.1 -0.9,-0.4 -1.3,-0.3 c 0,0 -0.8,-0.4 -0.9,-0.5 -0.1,-0.1 -1,-0.5 -1,-0.5 l -0.3,-0.5 -2.4,-2.4 -2.4,-2.7 -1.5,-3 z"
   clip-path="url(#SVGID_6_)"
   id="path82"
   inkscape:connector-curvature="0"
   style="fill:#ee7738" />
		<path
   class="st10"
   d="m 191.2,191.3 c 0,0 3.7,5.3 2.8,7 -0.9,1.6 -4.7,3.7 -4.8,4.6 -0.1,0.9 0.5,2.2 1.1,2.7 0.6,0.5 2.3,-0.1 2.6,-1 0.3,-1 0.5,-1.2 0.9,-1.6 0.4,-0.5 0.9,-1.4 0.9,-1.4 0,0 1.5,0.5 2.2,-0.2 0,0 0.3,0.5 1.1,0.7 0,0 -0.2,1 1.2,1.8 0,0 0.3,1.5 0.9,2.6 0.5,1.1 1.1,1.4 1.8,0.2 0.7,-1.1 1,-1.4 0.5,-2 -0.5,-0.7 -2.3,-3.3 -2.9,-5.2"
   clip-path="url(#SVGID_6_)"
   id="path84"
   inkscape:connector-curvature="0"
   style="fill:none;stroke:#000000;stroke-width:0.56699997" />
		<path
   class="st10"
   d="m 200.4,201.3 c 0,0 3.5,1.3 5.5,0.9 2,-0.5 1.9,-0.8 3.2,0.1 1.2,0.9 2.6,1.5 2.4,-0.2 -0.2,-1.7 -0.1,-2.7 -0.7,-2.7 -0.7,0 -7.1,0.9 -9.8,-1.5 -2.7,-2.4 -5.9,-5.9 -7.1,-8.6"
   clip-path="url(#SVGID_6_)"
   id="path86"
   inkscape:connector-curvature="0"
   style="fill:none;stroke:#000000;stroke-width:0.56699997" />
		<path
   class="st8"
   d="m 189.2,204 c 0,0 0,0 0,0 -0.9,0.9 -1,2.6 -1,2.6 -0.3,-1.4 0.5,-2.6 0.8,-3 z m 1.1,0.8 c 0.1,-0.2 0.2,-0.8 -0.3,-1.1 -0.5,-0.3 -0.2,-0.6 -0.5,-0.7 -0.2,-0.1 -0.4,0 -0.4,0 l -0.1,0.2 v -0.1 c 0,0 -3.8,6 2.4,7.1 0,0 -3.4,-1.8 -1.5,-5 v 0 c 0,0 0.3,-0.2 0.4,-0.4"
   clip-path="url(#SVGID_6_)"
   id="path88"
   inkscape:connector-curvature="0" />
		<path
   class="st8"
   d="m 202.9,207.6 c 0,-0.6 -0.7,-1.6 -0.7,-1.6 0,0 0,0 0,-0.1 l 0.2,-0.2 c 0,0 0,0 0,0.1 0.6,1.1 0.5,1.8 0.5,1.8 m 0,-2.2 c 0,0 -0.8,0 -1.1,0.4 -0.3,0.4 0.3,1.1 0.4,1.8 0.1,0.6 0,2.2 -1,3.1 -0.1,-0.1 3.5,-0.7 1.7,-5.3"
   clip-path="url(#SVGID_6_)"
   id="path90"
   inkscape:connector-curvature="0" />
		<path
   class="st8"
   d="m 208.6,204.5 c 0,-1.6 -0.8,-2.7 -0.8,-2.7 l 0.5,0.2 c 0.7,1.7 0.3,2.5 0.3,2.5 m 0.3,-2.5 c 0,0 -0.3,-0.7 -1.4,-0.7 -1,0 -1.7,0.4 -1,1 0.7,0.6 2.5,2.4 0.7,5.1 0,0.1 2.6,-0.6 1.7,-5.4"
   clip-path="url(#SVGID_6_)"
   id="path92"
   inkscape:connector-curvature="0" />
		<path
   class="st8"
   d="m 213.2,203 c -0.3,-2.1 -1.7,-2.4 -1.7,-2.4 v -0.2 c 1.8,0.4 1.7,2.6 1.7,2.6 m -1.6,-3 c 0,0 -0.6,0 -0.5,0.8 0.1,0.8 0.3,0.9 0.9,1.3 0.5,0.4 1,2.4 0.4,3.8 -0.1,0.1 3.5,-3.8 -0.8,-5.9"
   clip-path="url(#SVGID_6_)"
   id="path94"
   inkscape:connector-curvature="0" />
		<path
   class="st13"
   d="m 199.2,199.4 c 0,0 0.7,0.7 1.6,1.1 0.9,0.5 0.7,-0.6 0.6,-0.6 -0.1,-0.1 -1.2,-1.4 -1.2,-1.4 -0.1,0 -1.4,-0.4 -1.5,-0.3 -0.1,0.1 0.5,1.2 0.5,1.2"
   clip-path="url(#SVGID_6_)"
   id="path96"
   inkscape:connector-curvature="0"
   style="fill:#ee7738" />
		<path
   class="st13"
   d="m 143.4,191.3 -2,3 -0.7,2.2 c 0,0 -0.1,0.9 -0.1,1 0,0.2 0.4,1.5 0.4,1.5 l 1.3,1.1 0.9,0.8 c 0,0 0.4,0.3 0.5,0.3 0.1,0.1 0.3,0.3 0.3,0.3 l 0.6,0.4 0.4,0.3 0.2,0.2 0.3,0.3 c 0,0 0.1,0.8 -0.1,0.9 -0.1,0.2 -0.5,0.7 -0.5,0.9 0,0.1 -0.2,0.3 -0.3,0.5 -0.1,0.1 -0.3,0.6 -0.3,0.6 l -0.8,0.3 -0.5,-0.5 -0.4,-0.3 -0.5,0.1 -0.2,-0.8 -0.2,-0.6 -0.3,-0.3 c 0,0 -0.2,-0.5 -0.3,-0.6 -0.1,-0.1 -0.2,-0.4 -0.3,-0.4 -0.1,0 -0.4,-0.1 -0.3,-0.2 0,-0.1 -0.1,-0.3 -0.1,-0.5 -0.1,-0.1 -0.3,-0.4 -0.3,-0.4 h -0.5 -0.8 c -0.1,0 -0.6,-0.1 -0.6,-0.1 0,0 -0.3,-0.2 -0.3,-0.1 0,0.1 -0.3,0.3 -0.3,0.4 -0.1,0.1 -0.7,0.5 -0.7,0.5 v 0.3 c 0,0 -0.2,0.7 -0.3,0.7 -0.1,0.1 -0.7,0.4 -0.7,0.4 l -0.3,0.5 c 0,0 -0.2,0.4 -0.2,0.5 0,0.1 0,0.6 -0.1,0.7 -0.1,0.1 -0.1,0.3 -0.1,0.3 0,0 -0.2,0.3 -0.2,0.5 0,0.2 -0.3,0.8 -0.3,0.9 0,0.1 -0.7,0.4 -0.7,0.4 h -0.3 l -0.3,-0.5 c 0,0 -0.1,-0.6 -0.2,-0.7 -0.1,-0.1 -0.7,-0.4 -0.7,-0.4 l -0.1,-0.4 0.2,-0.7 1.3,-1.7 0.3,-0.6 0.4,-0.3 v -0.5 l -0.3,0.1 -1.5,0.5 c 0,0 -1.5,0.5 -1.7,0.5 -0.1,0 -1.6,-0.1 -1.6,-0.1 0,0 -0.9,-0.4 -1,-0.4 -0.1,0 -1.7,-0.1 -1.7,-0.1 l -0.6,0.5 c 0,0 -0.5,0.1 -0.5,0.1 -0.1,0.1 -0.4,0.2 -0.5,0.3 -0.1,0.1 -0.9,0.5 -0.9,0.5 l -0.5,-0.4 c 0,0 -0.3,-0.6 -0.3,-0.7 0,-0.1 0.4,-1.1 0.4,-1.1 l -0.1,-1 0.3,-0.6 0.3,-0.1 0.5,0.1 c 0,0 0.2,-0.1 0.3,-0.1 0.1,0 0.6,0.2 0.6,0.2 l 0.5,-0.1 c 0,0 0.3,-0.1 0.4,-0.1 0.1,0 0.5,0.3 0.5,0.3 l 0.5,-0.1 c 0,0 0.2,-0.1 0.3,-0.1 h 0.3 l 0.3,0.1 0.4,-0.1 h 0.3 l 0.5,0.1 0.9,0.1 0.9,-0.4 1.3,-0.3 c 0,0 0.9,-0.4 0.9,-0.5 0.1,-0.1 1,-0.5 1,-0.5 l 0.3,-0.5 2.4,-2.4 2.4,-2.7 1.5,-3 z"
   clip-path="url(#SVGID_6_)"
   id="path98"
   inkscape:connector-curvature="0"
   style="fill:#ee7738" />
		<path
   class="st10"
   d="m 143.4,191.3 c 0,0 -3.7,5.3 -2.8,7 0.9,1.6 4.7,3.7 4.8,4.6 0.1,0.9 -0.5,2.2 -1.1,2.7 -0.6,0.5 -2.3,-0.1 -2.6,-1 -0.3,-1 -0.5,-1.2 -0.9,-1.6 -0.4,-0.5 -0.9,-1.4 -0.9,-1.4 0,0 -1.5,0.5 -2.2,-0.2 0,0 -0.3,0.5 -1.1,0.7 0,0 0.2,1 -1.2,1.8 0,0 -0.3,1.5 -0.9,2.6 -0.5,1.1 -1.1,1.4 -1.8,0.2 -0.7,-1.1 -1,-1.4 -0.5,-2 0.5,-0.7 2.3,-3.3 2.9,-5.2"
   clip-path="url(#SVGID_6_)"
   id="path100"
   inkscape:connector-curvature="0"
   style="fill:none;stroke:#000000;stroke-width:0.56699997" />
		<path
   class="st10"
   d="m 134.3,201.3 c 0,0 -3.5,1.3 -5.5,0.9 -2,-0.5 -1.9,-0.8 -3.2,0.1 -1.2,0.9 -2.6,1.5 -2.4,-0.2 0.2,-1.7 0.1,-2.7 0.7,-2.7 0.7,0 7.1,0.9 9.8,-1.5 2.7,-2.4 5.9,-5.9 7.1,-8.6"
   clip-path="url(#SVGID_6_)"
   id="path102"
   inkscape:connector-curvature="0"
   style="fill:none;stroke:#000000;stroke-width:0.56699997" />
		<path
   class="st8"
   d="m 145.4,204 c 0,0 0,0 0,0 0.9,0.9 1,2.6 1,2.6 0.3,-1.4 -0.5,-2.6 -0.8,-3 z m -1.1,0.8 c -0.1,-0.2 -0.2,-0.8 0.3,-1.1 0.5,-0.3 0.2,-0.6 0.5,-0.7 0.2,-0.1 0.4,0 0.4,0 l 0.1,0.2 v -0.1 c 0,0 3.8,6 -2.4,7.1 0,0 3.4,-1.8 1.5,-5 v 0 c 0,0 -0.3,-0.2 -0.4,-0.4"
   clip-path="url(#SVGID_6_)"
   id="path104"
   inkscape:connector-curvature="0" />
		<path
   class="st8"
   d="m 131.7,207.6 c 0,-0.6 0.7,-1.6 0.7,-1.6 0,0 0,0 0,-0.1 l -0.2,-0.2 c 0,0 0,0 0,0.1 -0.5,1.1 -0.5,1.8 -0.5,1.8 m 0.1,-2.2 c 0,0 0.8,0 1.1,0.4 0.3,0.4 -0.3,1.1 -0.4,1.8 -0.1,0.6 0,2.2 1,3.1 0.1,-0.1 -3.5,-0.7 -1.7,-5.3"
   clip-path="url(#SVGID_6_)"
   id="path106"
   inkscape:connector-curvature="0" />
		<path
   class="st8"
   d="m 126,204.5 c 0,-1.6 0.8,-2.7 0.8,-2.7 l -0.5,0.2 c -0.6,1.7 -0.3,2.5 -0.3,2.5 m -0.3,-2.5 c 0,0 0.3,-0.7 1.4,-0.7 1,0 1.7,0.4 1,1 -0.7,0.6 -2.5,2.4 -0.7,5.1 0.1,0.1 -2.6,-0.6 -1.7,-5.4"
   clip-path="url(#SVGID_6_)"
   id="path108"
   inkscape:connector-curvature="0" />
		<path
   class="st8"
   d="m 121.4,203 c 0.3,-2.1 1.7,-2.4 1.7,-2.4 v -0.2 c -1.8,0.4 -1.7,2.6 -1.7,2.6 m 1.6,-3 c 0,0 0.6,0 0.5,0.8 -0.1,0.8 -0.3,0.9 -0.9,1.3 -0.5,0.4 -1,2.4 -0.4,3.8 0.1,0.1 -3.5,-3.8 0.8,-5.9"
   clip-path="url(#SVGID_6_)"
   id="path110"
   inkscape:connector-curvature="0" />
		<path
   class="st13"
   d="m 135.5,199.4 c 0,0 -0.7,0.7 -1.6,1.1 -0.9,0.5 -0.7,-0.6 -0.6,-0.6 0.1,-0.1 1.2,-1.4 1.2,-1.4 0.1,0 1.4,-0.4 1.5,-0.3 0,0.1 -0.5,1.2 -0.5,1.2"
   clip-path="url(#SVGID_6_)"
   id="path112"
   inkscape:connector-curvature="0"
   style="fill:#ee7738" />
		<path
   class="st9"
   d="m 212.9,118.5 -17.9,-12.7 1.8,-2.8 2.6,-4.5 2.3,-4.3 1.3,-3.6 0.7,-3.6 -0.7,-3.1 1,-1.3 3.1,-2.7 5.1,-4.1 5.6,-3.3 6.4,-2.2 5.9,-0.8 6.5,-1 14.9,-2 20.4,0.3 45.9,0.8 6.4,1.1 5.2,1.4 2,0.8 1.5,1.1 -1.5,2.4 -1,1 -2,3 -3.3,2.7 -5.6,0.2 -0.8,0.2 -0.2,1.4 -1.1,2.3 -2.1,2.2 -2.8,1 -2.6,0.1 -0.9,2.3 -1.8,2.7 -2.2,0.9 -2.4,0.3 -2.3,0.2 -1.3,0.4 -0.6,1.2 -1,2.6 -1.8,2.2 -2.8,1.3 -2.1,-0.2 h -1.8 -2 -1.7 -4.2 l -16,-0.1 -20.5,-0.1 2.7,2.6 1.6,3.4 c 0,0 0,3.2 0,3.3 0,0.2 -1.6,3.1 -1.6,3.1 l -1.9,2.1 -1.4,1.1 0.5,1.3 0.1,1.6 -1.3,3.8 -3.3,3.5 -1.5,0.9 0.3,1.6 -0.4,2.9 -1.6,2.2 -1.8,2.3 -2,1.7 -2.5,1.4 0.2,2.1 -0.8,2.6 -3.3,3 -2.6,1.6 -2.2,0.4 -1.5,-0.5 -0.8,-0.4 0.3,1.3 -0.7,2.9 -2.2,2.3 -3.3,1.1 -2,-0.2 -1.8,-0.8 -0.1,0.7 0.6,2 -0.1,1.7 -1.2,0.9 -0.8,1.2 -6.9,13 -0.6,0.9 -0.8,1.9 2.2,2.6 -4.4,2.1 3.2,3.4 -3,0.8 3,4.6 1,1.3 -7.8,-1.1 -1.1,4 -2.9,3 0.1,-4.4 -1.2,-3.1 c 2.2,-3 4.2,-7.1 5.8,-9.6 0.9,-1.4 1.8,-2.8 2.6,-4.3 1.5,-2.6 2.4,-4.3 2.4,-4.3 13.2,-24.9 13.2,-55.2 13.2,-55.2 z"
   clip-path="url(#SVGID_6_)"
   id="path114"
   inkscape:connector-curvature="0"
   style="fill:#969693" />
		<path
   class="st10"
   d="m 195,105.6 c 0,0 5.2,-7 7.4,-13.4 0,0 1.5,-4.3 1.4,-5.4 -0.1,-1.1 -0.9,-2.1 -0.3,-3.2 0.6,-1.1 5,-5.2 10,-8.6 4.9,-3.3 8.8,-4 11.1,-4.5 2.3,-0.6 8.9,-1.5 13.4,-2.2 4.5,-0.7 12,-1.8 14.7,-1.8 2.8,0 29,0.3 29,0.3 0,0 28.5,0.5 34.2,0.9 5.7,0.4 12.9,1.4 17,4.2 0,0 -0.5,2.3 -2,2.9 0,0 -2.7,6.5 -7.8,6.6 h -4.3 c 0,0 0,2.2 -1.1,3.6 -1.1,1.4 -2.3,2.8 -4,3.1 -1.7,0.3 -3.6,0.3 -3.6,0.3 0,0 -0.7,1.6 -1,2.7 -0.3,1.1 -1.6,2.4 -3.2,2.9 -1.6,0.6 -3.1,0.5 -4.8,0.7 -1.7,0.2 -1.8,0.5 -1.8,0.5 0,0 -0.8,3 -1.8,4.2 -1,1.3 -1.9,2.9 -5,2.9 h -19 l -28.9,-0.2"
   clip-path="url(#SVGID_6_)"
   id="path116"
   inkscape:connector-curvature="0"
   style="fill:none;stroke:#000000;stroke-width:0.56699997" />
		<path
   class="st10"
   d="m 330.6,74.8 c 0,0 -35.9,-0.3 -45.3,-0.3 -9.4,0 -49.7,-0.2 -49.7,-0.2"
   clip-path="url(#SVGID_6_)"
   id="path118"
   inkscape:connector-curvature="0"
   style="fill:none;stroke:#000000;stroke-width:0.56699997" />
	</g>
	<polyline
   class="st14"
   points="318.6,81.4 289.3,81.3 239.2,81  "
   id="polyline122"
   style="fill:none;stroke:#000000;stroke-width:0.56699997" />
	<polyline
   class="st14"
   points="309.9,88.4 256.7,88.1 235.8,88.1  "
   id="polyline124"
   style="fill:none;stroke:#000000;stroke-width:0.56699997" />
	<g
   id="g136">
		<defs
   id="defs127">
			<rect
   id="SVGID_7_"
   x="1.4"
   y="3.5"
   width="331.70001"
   height="276.39999" />
		</defs>
		<clipPath
   id="SVGID_8_">
			<use
   xlink:href="#SVGID_7_"
   style="overflow:visible"
   id="use129"
   x="0"
   y="0"
   width="100%"
   height="100%" />
		</clipPath>
		<path
   class="st15"
   d="m 299.2,95.2 c 0,0 -14.1,-0.3 -31.6,-0.7 -17.5,-0.4 -35.6,-0.7 -35.6,-0.7 6.4,-1.1 3.8,-5.7 3.8,-5.7 2,-0.7 3.1,-1.8 3.5,-6.2 0.4,-4.5 -3.9,-7.8 -3.9,-7.8"
   clip-path="url(#SVGID_8_)"
   id="path132"
   inkscape:connector-curvature="0"
   style="fill:none;stroke:#000000;stroke-width:0.56699997" />
		<path
   class="st15"
   d="m 245.5,72.6 c 0,0 -7.5,0.4 -13.2,2.5 -5.7,2.1 -8,3.8 -10.6,6 -2.6,2.2 -4.2,4.5 -5.7,7.7 -1.5,3.1 -6.3,15.8 -11,19.8"
   clip-path="url(#SVGID_8_)"
   id="path134"
   inkscape:connector-curvature="0"
   style="fill:none;stroke:#000000;stroke-width:0.56699997" />
	</g>
	<path
   class="st16"
   d="M 235.4,73.9"
   id="path138"
   inkscape:connector-curvature="0"
   style="fill:none;stroke:#000000" />
	<g
   id="g146">
		<defs
   id="defs141">
			<rect
   id="SVGID_9_"
   x="1.4"
   y="3.5"
   width="331.70001"
   height="276.39999" />
		</defs>
		<clipPath
   id="SVGID_10_">
			<use
   xlink:href="#SVGID_9_"
   style="overflow:visible"
   id="use143"
   x="0"
   y="0"
   width="100%"
   height="100%" />
		</clipPath>
	</g>
	<path
   class="st16"
   d="M 232.2,93.8"
   id="path148"
   inkscape:connector-curvature="0"
   style="fill:none;stroke:#000000" />
	<g
   id="g156">
		<defs
   id="defs151">
			<rect
   id="SVGID_11_"
   x="1.4"
   y="3.5"
   width="331.70001"
   height="276.39999" />
		</defs>
		<clipPath
   id="SVGID_12_">
			<use
   xlink:href="#SVGID_11_"
   style="overflow:visible"
   id="use153"
   x="0"
   y="0"
   width="100%"
   height="100%" />
		</clipPath>
	</g>
	<path
   class="st16"
   d="M 231.9,93.8"
   id="path158"
   inkscape:connector-curvature="0"
   style="fill:none;stroke:#000000" />
	<g
   id="g170">
		<defs
   id="defs161">
			<rect
   id="SVGID_13_"
   x="1.4"
   y="3.5"
   width="331.70001"
   height="276.39999" />
		</defs>
		<clipPath
   id="SVGID_14_">
			<use
   xlink:href="#SVGID_13_"
   style="overflow:visible"
   id="use163"
   x="0"
   y="0"
   width="100%"
   height="100%" />
		</clipPath>
		<path
   class="st17"
   d="m 232.2,93.6 c 0,0 2.2,3.7 -2.7,6.3 0,0 3.7,6 -4.3,9.4 0,0 4.3,8.2 -5.7,7.9 0,0 2.7,8.4 -4.9,7.7 -7.7,-0.7 -1,-0.1 -1,-0.1"
   clip-path="url(#SVGID_14_)"
   id="path166"
   inkscape:connector-curvature="0"
   style="fill:none;stroke:#000000;stroke-width:0.56699997" />
		<path
   class="st17"
   d="m 232.7,97 c 0,0 11,4.3 12.1,5.2 1.1,1 9.7,7.5 -0.7,15.5 0,0 3.2,5.7 -5.4,11.1 0,0 0.6,2.9 -0.3,4.4 -0.9,1.5 -3.9,6.3 -8,7.8 0,0 1.3,2.8 -1.2,5.3 -2.6,2.5 -6,6 -9.5,3.5 0,0 0.7,4.4 -2.7,6.5 -3.5,2.1 -6.5,1.1 -7.5,-0.3 0,0 1,3.5 0.9,4.4 -0.1,0.9 -1.3,1.1 -1.6,1.5 -0.3,0.4 -9.1,17 -9.1,17 l 2.3,2.7 -4.5,1.9 3.3,3.6 -3.2,0.7 c 0,0 2.2,3.8 3.1,4.6 0,0 0.7,0.9 1.4,1.1 l 0.7,0.2 c 0,0 -5.6,0.1 -9,-1.4 0,0 0.3,4 -4.3,7.4 0,0 0.3,-1.2 0.3,-2.9 0.1,-1.8 -0.6,-3.1 -1,-3.9 -0.3,-0.8 -0.3,-0.5 -0.3,-0.5"
   clip-path="url(#SVGID_14_)"
   id="path168"
   inkscape:connector-curvature="0"
   style="fill:none;stroke:#000000;stroke-width:0.56699997" />
	</g>
	<line
   class="st14"
   x1="230.39999"
   y1="141"
   x2="213.60001"
   y2="125.8"
   id="line172"
   style="fill:none;stroke:#000000;stroke-width:0.56699997" />
	<g
   id="g182">
		<defs
   id="defs175">
			<rect
   id="SVGID_15_"
   x="1.4"
   y="3.5"
   width="331.70001"
   height="276.39999" />
		</defs>
		<clipPath
   id="SVGID_16_">
			<use
   xlink:href="#SVGID_15_"
   style="overflow:visible"
   id="use177"
   x="0"
   y="0"
   width="100%"
   height="100%" />
		</clipPath>
		<path
   class="st18"
   d="m 219.7,149.9 c 0,0 -6.5,-6.2 -7.9,-10"
   clip-path="url(#SVGID_16_)"
   id="path180"
   inkscape:connector-curvature="0"
   style="fill:none;stroke:#000000;stroke-width:0.56699997" />
	</g>
	<line
   class="st14"
   x1="238.7"
   y1="129"
   x2="219.5"
   y2="117.2"
   id="line184"
   style="fill:none;stroke:#000000;stroke-width:0.56699997" />
	<line
   class="st14"
   x1="244.3"
   y1="117.9"
   x2="225.2"
   y2="109.3"
   id="line186"
   style="fill:none;stroke:#000000;stroke-width:0.56699997" />
	<g
   id="g200">
		<defs
   id="defs189">
			<rect
   id="SVGID_17_"
   x="1.4"
   y="3.5"
   width="331.70001"
   height="276.39999" />
		</defs>
		<clipPath
   id="SVGID_18_">
			<use
   xlink:href="#SVGID_17_"
   style="overflow:visible"
   id="use191"
   x="0"
   y="0"
   width="100%"
   height="100%" />
		</clipPath>
		<path
   class="st19"
   d="m 121.6,118.5 17.9,-12.7 -1.8,-2.8 -2.6,-4.5 -2.3,-4.3 -1.3,-3.6 -0.7,-3.6 0.7,-3.1 -1,-1.3 -3.1,-2.7 -5.1,-4.1 -5.6,-3.3 -6.4,-2.2 -5.9,-0.8 -6.5,-1 -14.9,-2 -20.4,0.3 -45.9,0.8 -6.4,1.1 -5.2,1.4 -2,0.8 -1.5,1.1 1.5,2.4 1,1 2,3 3.3,2.7 5.6,0.2 0.8,0.2 0.2,1.4 1.1,2.3 2.1,2.2 2.8,1 2.6,0.1 0.9,2.3 1.8,2.7 2.2,0.9 2.4,0.3 2.3,0.2 1.3,0.4 0.6,1.2 1,2.6 1.8,2.2 2.8,1.3 2.1,-0.2 h 1.8 2 1.7 4.2 l 16,-0.1 20.5,-0.1 -2.7,2.6 -1.6,3.4 c 0,0 0,3.2 0,3.3 0,0.2 1.6,3.1 1.6,3.1 l 1.9,2.1 1.4,1.1 -0.5,1.3 -0.1,1.6 1.3,3.8 3.3,3.5 1.5,0.9 -0.3,1.6 0.4,2.9 1.6,2.2 1.8,2.3 2,1.7 2.5,1.4 -0.2,2.1 0.8,2.6 3.3,3 2.6,1.6 2.2,0.4 1.5,-0.5 0.8,-0.4 -0.3,1.3 0.7,2.9 2.2,2.3 3.3,1.1 2,-0.2 1.8,-0.8 0.1,0.7 -0.6,2 0.1,1.7 1.2,0.9 0.8,1.2 6.9,13 0.6,0.9 0.9,1.9 -2.2,2.6 4.4,2.1 -3.2,3.4 3,0.8 -3,4.6 -1,1.3 7.8,-1.1 1.1,4 2.9,3 -0.1,-4.4 1.2,-3.1 c -2.2,-3 -4.2,-7.1 -5.8,-9.6 -0.9,-1.4 -1.8,-2.8 -2.6,-4.3 -1.5,-2.6 -2.4,-4.3 -2.4,-4.3 -13.3,-24.9 -13.3,-55.2 -13.3,-55.2 z"
   clip-path="url(#SVGID_18_)"
   id="path194"
   inkscape:connector-curvature="0"
   style="fill:#969693" />
		<path
   class="st20"
   d="m 139.5,105.6 c 0,0 -5.2,-7 -7.4,-13.4 0,0 -1.5,-4.3 -1.4,-5.4 0.1,-1.1 0.9,-2.1 0.3,-3.2 -0.6,-1.1 -5,-5.2 -10,-8.6 -4.9,-3.3 -8.8,-4 -11.1,-4.5 C 107.6,69.9 101,69 96.5,68.3 92,67.6 84.5,66.5 81.8,66.5 c -2.7,0 -29,0.3 -29,0.3 0,0 -28.5,0.5 -34.2,0.9 -5.7,0.4 -12.9,1.4 -17,4.2 0,0 0.5,2.3 2,2.9 0,0 2.7,6.5 7.8,6.6 h 4.3 c 0,0 0,2.2 1.1,3.6 1.1,1.4 2.3,2.8 4,3.1 1.7,0.3 3.6,0.3 3.6,0.3 0,0 0.7,1.6 1,2.7 0.3,1.1 1.6,2.4 3.2,2.9 1.6,0.6 3.1,0.5 4.8,0.7 1.7,0.2 1.8,0.5 1.8,0.5 0,0 0.8,3 1.8,4.2 1,1.3 1.9,2.9 5,2.9 H 61 L 90,102"
   clip-path="url(#SVGID_18_)"
   id="path196"
   inkscape:connector-curvature="0"
   style="fill:none;stroke:#000000;stroke-width:0.56699997" />
		<path
   class="st20"
   d="m 3.9,74.8 c 0,0 35.9,-0.3 45.3,-0.3 9.4,0 49.7,-0.2 49.7,-0.2"
   clip-path="url(#SVGID_18_)"
   id="path198"
   inkscape:connector-curvature="0"
   style="fill:none;stroke:#000000;stroke-width:0.56699997" />
	</g>
	<polyline
   class="st14"
   points="15.9,81.4 45.1,81.3 95.2,81  "
   id="polyline202"
   style="fill:none;stroke:#000000;stroke-width:0.56699997" />
	<polyline
   class="st14"
   points="24.6,88.4 77.7,88.1 98.6,88.1  "
   id="polyline204"
   style="fill:none;stroke:#000000;stroke-width:0.56699997" />
	<g
   id="g216">
		<defs
   id="defs207">
			<rect
   id="SVGID_19_"
   x="1.4"
   y="3.5"
   width="331.70001"
   height="276.39999" />
		</defs>
		<clipPath
   id="SVGID_20_">
			<use
   xlink:href="#SVGID_19_"
   style="overflow:visible"
   id="use209"
   x="0"
   y="0"
   width="100%"
   height="100%" />
		</clipPath>
		<path
   class="st21"
   d="m 35.3,95.2 c 0,0 14.1,-0.3 31.6,-0.7 17.5,-0.4 35.6,-0.7 35.6,-0.7 -6.4,-1.1 -3.8,-5.7 -3.8,-5.7 -2,-0.7 -3.1,-1.8 -3.5,-6.2 -0.4,-4.5 3.9,-7.8 3.9,-7.8"
   clip-path="url(#SVGID_20_)"
   id="path212"
   inkscape:connector-curvature="0"
   style="fill:none;stroke:#000000;stroke-width:0.56699997" />
		<path
   class="st21"
   d="m 89,72.6 c 0,0 7.5,0.4 13.2,2.5 5.7,2.1 8,3.8 10.6,6 2.6,2.2 4.2,4.5 5.7,7.7 1.5,3.1 6.3,15.8 11,19.8"
   clip-path="url(#SVGID_20_)"
   id="path214"
   inkscape:connector-curvature="0"
   style="fill:none;stroke:#000000;stroke-width:0.56699997" />
	</g>
	<path
   class="st16"
   d="M 99.1,73.9"
   id="path218"
   inkscape:connector-curvature="0"
   style="fill:none;stroke:#000000" />
	<g
   id="g226">
		<defs
   id="defs221">
			<rect
   id="SVGID_21_"
   x="1.4"
   y="3.5"
   width="331.70001"
   height="276.39999" />
		</defs>
		<clipPath
   id="SVGID_22_">
			<use
   xlink:href="#SVGID_21_"
   style="overflow:visible"
   id="use223"
   x="0"
   y="0"
   width="100%"
   height="100%" />
		</clipPath>
	</g>
	<path
   class="st16"
   d="M 102.3,93.8"
   id="path228"
   inkscape:connector-curvature="0"
   style="fill:none;stroke:#000000" />
	<g
   id="g236">
		<defs
   id="defs231">
			<rect
   id="SVGID_23_"
   x="1.4"
   y="3.5"
   width="331.70001"
   height="276.39999" />
		</defs>
		<clipPath
   id="SVGID_24_">
			<use
   xlink:href="#SVGID_23_"
   style="overflow:visible"
   id="use233"
   x="0"
   y="0"
   width="100%"
   height="100%" />
		</clipPath>
	</g>
	<path
   class="st16"
   d="M 102.5,93.8"
   id="path238"
   inkscape:connector-curvature="0"
   style="fill:none;stroke:#000000" />
	<g
   id="g250">
		<defs
   id="defs241">
			<rect
   id="SVGID_25_"
   x="1.4"
   y="3.5"
   width="331.70001"
   height="276.39999" />
		</defs>
		<clipPath
   id="SVGID_26_">
			<use
   xlink:href="#SVGID_25_"
   style="overflow:visible"
   id="use243"
   x="0"
   y="0"
   width="100%"
   height="100%" />
		</clipPath>
		<path
   class="st22"
   d="m 102.3,93.6 c 0,0 -2.2,3.7 2.7,6.3 0,0 -3.7,6 4.3,9.4 0,0 -4.3,8.2 5.7,7.9 0,0 -2.7,8.4 4.9,7.7 7.7,-0.7 1,-0.1 1,-0.1"
   clip-path="url(#SVGID_26_)"
   id="path246"
   inkscape:connector-curvature="0"
   style="fill:none;stroke:#000000;stroke-width:0.56699997" />
		<path
   class="st22"
   d="m 101.8,97 c 0,0 -11,4.3 -12.1,5.2 -1.1,1 -9.7,7.5 0.7,15.5 0,0 -3.2,5.7 5.4,11.1 0,0 -0.6,2.9 0.3,4.4 0.9,1.5 3.9,6.3 8,7.8 0,0 -1.3,2.8 1.2,5.3 2.6,2.5 6,6 9.5,3.5 0,0 -0.7,4.4 2.7,6.5 3.5,2.1 6.5,1.1 7.5,-0.3 0,0 -1,3.5 -0.9,4.4 0.1,0.9 1.3,1.1 1.6,1.5 0.3,0.4 9.1,17 9.1,17 l -2.3,2.7 4.5,1.9 -3.3,3.6 3.2,0.7 c 0,0 -2.2,3.8 -3.1,4.6 0,0 -0.7,0.9 -1.4,1.1 l -0.7,0.2 c 0,0 5.6,0.1 9,-1.4 0,0 -0.3,4 4.3,7.4 0,0 -0.3,-1.2 -0.3,-2.9 -0.1,-1.8 0.6,-3.1 1,-3.9 0.3,-0.8 0.3,-0.5 0.3,-0.5"
   clip-path="url(#SVGID_26_)"
   id="path248"
   inkscape:connector-curvature="0"
   style="fill:none;stroke:#000000;stroke-width:0.56699997" />
	</g>
	<line
   class="st14"
   x1="104.1"
   y1="141"
   x2="120.9"
   y2="125.8"
   id="line252"
   style="fill:none;stroke:#000000;stroke-width:0.56699997" />
	<g
   id="g262">
		<defs
   id="defs255">
			<rect
   id="SVGID_27_"
   x="1.4"
   y="3.5"
   width="331.70001"
   height="276.39999" />
		</defs>
		<clipPath
   id="SVGID_28_">
			<use
   xlink:href="#SVGID_27_"
   style="overflow:visible"
   id="use257"
   x="0"
   y="0"
   width="100%"
   height="100%" />
		</clipPath>
		<path
   class="st23"
   d="m 114.8,149.9 c 0,0 6.5,-6.2 7.9,-10"
   clip-path="url(#SVGID_28_)"
   id="path260"
   inkscape:connector-curvature="0"
   style="fill:none;stroke:#000000;stroke-width:0.56699997" />
	</g>
	<line
   class="st14"
   x1="95.800003"
   y1="129"
   x2="115"
   y2="117.2"
   id="line264"
   style="fill:none;stroke:#000000;stroke-width:0.56699997" />
	<line
   class="st14"
   x1="90.199997"
   y1="117.9"
   x2="109.3"
   y2="109.3"
   id="line266"
   style="fill:none;stroke:#000000;stroke-width:0.56699997" />
	<g
   id="g280">
		<defs
   id="defs269">
			<rect
   id="SVGID_29_"
   x="1.4"
   y="3.5"
   width="331.70001"
   height="276.39999" />
		</defs>
		<clipPath
   id="SVGID_30_">
			<use
   xlink:href="#SVGID_29_"
   style="overflow:visible"
   id="use271"
   x="0"
   y="0"
   width="100%"
   height="100%" />
		</clipPath>
		<path
   class="st24"
   d="m 214.2,119.3 -21.9,-15.8 c -4.2,2.1 -8.1,3.5 -11.5,4.3 -4.2,1 -8.7,1.5 -13.5,1.5 -4.8,0 -9.4,-0.6 -13.5,-1.5 -3.4,-0.9 -7.3,-2.3 -11.5,-4.3 l -21.9,15.8 c 0,0 -1,63.5 46.9,91.3 47.8,-27.8 46.9,-91.3 46.9,-91.3"
   clip-path="url(#SVGID_30_)"
   id="path274"
   inkscape:connector-curvature="0"
   style="fill:#be3a38" />
		<path
   class="st25"
   d="m 210.3,121.2 -17.6,-12.5 c -3.7,1.9 -10.2,3.4 -13.3,4.2 -3.7,0.9 -7.8,1.4 -12.1,1.4 -4.3,0 -8.4,-0.5 -12.1,-1.4 -3.1,-0.8 -9.5,-2.4 -13.3,-4.2 l -17.6,12.5 c 0,0 0.1,59.4 43,84.3 42.9,-24.9 43,-84.3 43,-84.3"
   clip-path="url(#SVGID_30_)"
   id="path276"
   inkscape:connector-curvature="0"
   style="fill:#ffffff" />
		<path
   class="st26"
   d="m 210.3,121.2 -17.6,-12.5 c -3.7,1.9 -10.2,3.4 -13.3,4.2 -3.7,0.9 -7.8,1.4 -12.1,1.4 -4.3,0 -8.4,-0.5 -12.1,-1.4 -3.1,-0.8 -9.5,-2.4 -13.3,-4.2 l -17.6,12.5 c 0,0 0.1,59.4 43,84.3 42.9,-24.9 43,-84.3 43,-84.3 z"
   clip-path="url(#SVGID_30_)"
   id="path278"
   inkscape:connector-curvature="0"
   style="fill:none;stroke:#000000" />
	</g>
	<path
   class="st27"
   d="m 118.1,148.6 h 22.1 l -4.3,-6.2 h -21.3 z m 1.9,3.1 h 22 l -1.2,-1.7 h -21.7 z m 14.8,9.2 h 22.1 l -4.3,-6.2 h -21.3 z m 1.9,3.1 h 22 l -1.2,-1.7 h -21.7 z m 9.9,9.2 h 15.5 l -3.3,-6.3 h -15.4 z m 1.6,3.3 h 15.5 l -0.7,-1.4 h -15.4 z m 19,9.2 h 2.2 V 160 h -2.2 v 5.3 h -3 v 16.1 h 3 z m 19,-10.5 h -15.4 l -0.7,1.4 h 15.5 z m 4.1,-8.3 h -15.4 l -3.3,6.3 h 15.5 z m 7.6,-4.6 H 176.2 L 175,164 h 22 z m 4.4,-7.6 H 181 l -4.3,6.2 h 22.1 z m 12.3,-4.7 h -21.7 l -1.2,1.7 h 22 z m 4.4,-7.6 h -21.3 l -4.3,6.2 h 22.1 z"
   id="path282"
   inkscape:connector-curvature="0"
   style="fill:#be3a38" />
	<g
   id="g292">
		<defs
   id="defs285">
			<rect
   id="SVGID_31_"
   x="1.4"
   y="3.5"
   width="331.70001"
   height="276.39999" />
		</defs>
		<clipPath
   id="SVGID_32_">
			<use
   xlink:href="#SVGID_31_"
   style="overflow:visible"
   id="use287"
   x="0"
   y="0"
   width="100%"
   height="100%" />
		</clipPath>
		<path
   class="st28"
   d="m 176.1,189 c 0.2,-0.2 0.4,-0.2 0.6,-0.2 0.2,0 0.4,0.1 0.6,0.2 0.1,0.1 0.2,0.3 0.2,0.6 0,0.3 -0.1,0.5 -0.3,0.6 -0.2,0.2 -0.4,0.3 -0.7,0.3 -0.1,0 -0.2,0 -0.3,0 l -0.1,1.6 c 0.3,-0.1 0.5,-0.1 0.7,-0.1 0.3,0 0.5,0.1 0.7,0.3 0.2,0.2 0.3,0.5 0.3,0.8 0,0.4 -0.1,0.6 -0.3,0.9 -0.2,0.2 -0.4,0.3 -0.7,0.3 -0.3,0 -0.5,-0.1 -0.7,-0.3 -0.2,-0.2 -0.3,-0.5 -0.4,-0.9 l -2.1,0.3 c 0.1,0.5 0.3,0.9 0.6,1.2 0.3,0.3 0.6,0.6 1,0.7 0.4,0.2 0.9,0.3 1.6,0.3 0.7,0 1.3,-0.1 1.7,-0.3 0.4,-0.2 0.8,-0.5 1,-1 0.2,-0.4 0.3,-0.9 0.3,-1.3 0,-0.4 -0.1,-0.7 -0.2,-0.9 -0.1,-0.3 -0.3,-0.5 -0.6,-0.6 -0.2,-0.1 -0.4,-0.2 -0.7,-0.3 0.4,-0.2 0.6,-0.4 0.8,-0.7 0.2,-0.3 0.3,-0.6 0.3,-0.9 0,-0.6 -0.2,-1.1 -0.7,-1.4 -0.4,-0.4 -1.1,-0.6 -2.1,-0.6 -0.8,0 -1.5,0.2 -2,0.5 -0.5,0.3 -0.8,0.9 -0.9,1.5 l 2,0.4 c 0.1,-0.6 0.2,-0.9 0.4,-1 m -3,4.6 h -3.2 c 0.2,-0.2 0.4,-0.4 0.5,-0.5 0.1,-0.1 0.4,-0.3 0.8,-0.6 0.7,-0.5 1.2,-1 1.5,-1.4 0.3,-0.4 0.4,-0.9 0.4,-1.4 0,-0.4 -0.1,-0.9 -0.3,-1.2 -0.2,-0.4 -0.5,-0.6 -1,-0.8 -0.4,-0.2 -1,-0.3 -1.7,-0.3 -0.7,0 -1.2,0.1 -1.6,0.3 -0.4,0.2 -0.7,0.4 -0.9,0.8 -0.2,0.3 -0.4,0.8 -0.4,1.4 l 2.1,0.2 c 0.1,-0.4 0.2,-0.8 0.3,-0.9 0.2,-0.2 0.4,-0.3 0.6,-0.3 0.3,0 0.5,0.1 0.6,0.3 0.2,0.2 0.3,0.4 0.3,0.6 0,0.2 -0.1,0.5 -0.3,0.7 -0.2,0.2 -0.6,0.6 -1.2,1.1 -1,0.8 -1.7,1.4 -2,2 -0.4,0.6 -0.6,1.2 -0.6,1.8 h 6.2 v -1.8 z m -9.2,-2.6 c -0.2,0.2 -0.4,0.3 -0.7,0.3 -0.3,0 -0.5,-0.1 -0.7,-0.3 -0.2,-0.2 -0.3,-0.6 -0.3,-1 0,-0.4 0.1,-0.8 0.3,-1 0.2,-0.2 0.4,-0.3 0.7,-0.3 0.3,0 0.5,0.1 0.7,0.4 0.2,0.2 0.3,0.6 0.3,1 0,0.4 -0.1,0.7 -0.3,0.9 m -3,3.6 c 0.2,0.3 0.5,0.5 0.9,0.6 0.3,0.1 0.8,0.2 1.4,0.2 1,0 1.8,-0.3 2.4,-1 0.6,-0.7 0.8,-1.7 0.8,-3.1 0,-1 -0.1,-1.7 -0.4,-2.3 -0.3,-0.6 -0.6,-1 -1.1,-1.3 -0.4,-0.3 -1,-0.4 -1.8,-0.4 -0.6,0 -1.1,0.1 -1.5,0.3 -0.4,0.2 -0.7,0.5 -1,1 -0.2,0.4 -0.4,0.9 -0.4,1.4 0,0.8 0.2,1.4 0.7,1.9 0.5,0.5 1,0.7 1.7,0.7 0.3,0 0.6,-0.1 0.9,-0.2 0.3,-0.1 0.5,-0.3 0.8,-0.6 -0.1,0.8 -0.2,1.4 -0.3,1.7 -0.2,0.4 -0.4,0.5 -0.8,0.5 -0.2,0 -0.3,-0.1 -0.5,-0.2 -0.1,-0.1 -0.2,-0.3 -0.3,-0.6 l -2.1,0.3 c 0.2,0.5 0.4,0.8 0.6,1.1 m -4.4,-7.2 c -0.2,0.5 -0.5,0.9 -0.9,1.2 -0.4,0.3 -0.9,0.6 -1.6,0.9 v 1.8 c 0.5,-0.2 0.9,-0.3 1.2,-0.5 0.3,-0.2 0.6,-0.4 1,-0.7 v 5.2 h 2.1 v -8 h -1.8 z"
   clip-path="url(#SVGID_32_)"
   id="path290"
   inkscape:connector-curvature="0" />
	</g>
	<polygon
   class="st29"
   points="166.6,142.5 173.7,139.3 172.6,131.2 165.2,130.2 165,130.4 164.4,130.6 161.1,137.2 "
   id="polygon294"
   style="fill:#6a6968" />
	<polygon
   class="st29"
   points="166.6,120.5 163.5,118.8 159,120.3 155.8,122.8 155.9,125.8 162,124.6 "
   id="polygon296"
   style="fill:#6a6968" />
	<polygon
   class="st29"
   points="151.8,144.2 153.7,144.6 155.2,138.3 152.2,133.7 149.9,136.3 150.3,140.5 "
   id="polygon298"
   style="fill:#6a6968" />
	<polygon
   class="st29"
   points="166.4,154 170.6,153.6 171.2,152.4 165.5,149.4 159.9,151.1 160.3,152.5 164.1,153.7 "
   id="polygon300"
   style="fill:#6a6968" />
	<polygon
   class="st29"
   points="182.8,144.2 184.1,140.1 182.8,137.8 178.8,142.1 178.2,148 180.2,148.1 "
   id="polygon302"
   style="fill:#6a6968" />
	<polygon
   class="st29"
   points="176.4,127.3 177.3,127.4 179.5,128.3 181,129.5 181.1,129.3 181.1,125.4 178.9,123.1 175.8,120.8 172.9,121.2 175,125.6 175.5,127.6 "
   id="polygon304"
   style="fill:#6a6968" />
	<g
   id="g324">
		<defs
   id="defs307">
			<rect
   id="SVGID_33_"
   x="1.4"
   y="3.5"
   width="331.70001"
   height="276.39999" />
		</defs>
		<clipPath
   id="SVGID_34_">
			<use
   xlink:href="#SVGID_33_"
   style="overflow:visible"
   id="use309"
   x="0"
   y="0"
   width="100%"
   height="100%" />
		</clipPath>
		<path
   class="st30"
   d="m 167.2,154.2 c 9.7,0 17.6,-8.1 17.6,-18 0,-9.9 -7.9,-18 -17.6,-18 -9.7,0 -17.6,8.1 -17.6,18 0,2.9 0.7,5.6 1.8,8 3,5.9 8.9,10 15.8,10 z"
   clip-path="url(#SVGID_34_)"
   id="path312"
   inkscape:connector-curvature="0"
   style="fill:none;stroke:#000000;stroke-width:0.70899999" />
		<path
   class="st30"
   d="m 151.6,144.1 c 0,0 2,0.4 2.4,0.9 0.3,0.5 2.5,4 5.5,5.8 l 0.5,1.8"
   clip-path="url(#SVGID_34_)"
   id="path314"
   inkscape:connector-curvature="0"
   style="fill:none;stroke:#000000;stroke-width:0.70899999" />
		<path
   class="st30"
   d="m 149.6,136.2 2.8,-2.9 c 0,0 1.7,-5 3.3,-7.3 l -0.2,-3.3"
   clip-path="url(#SVGID_34_)"
   id="path316"
   inkscape:connector-curvature="0"
   style="fill:none;stroke:#000000;stroke-width:0.70899999" />
		<path
   class="st30"
   d="m 170.5,153.9 1.1,-1.8 c 0,0 4.8,-2.2 6.2,-3.9 l 2.4,0.1"
   clip-path="url(#SVGID_34_)"
   id="path318"
   inkscape:connector-curvature="0"
   style="fill:none;stroke:#000000;stroke-width:0.70899999" />
		<path
   class="st30"
   d="m 184.4,140.3 -1.5,-3 c 0,0 -0.2,-4.9 -1.5,-6.9 l -0.1,-4.9"
   clip-path="url(#SVGID_34_)"
   id="path320"
   inkscape:connector-curvature="0"
   style="fill:none;stroke:#000000;stroke-width:0.70899999" />
		<path
   class="st30"
   d="m 163.8,118.7 c 0,0 3.5,3.5 12,1.9"
   clip-path="url(#SVGID_34_)"
   id="path322"
   inkscape:connector-curvature="0"
   style="fill:none;stroke:#000000;stroke-width:0.70899999" />
	</g>
	<polygon
   class="st31"
   points="173.6,139 172.5,131.4 164.5,130.2 161.1,137 166.3,142.5 "
   id="polygon326"
   style="fill:none;stroke:#000000;stroke-width:0.70899999" />
	<g
   id="g338">
		<defs
   id="defs329">
			<rect
   id="SVGID_35_"
   x="1.4"
   y="3.5"
   width="331.70001"
   height="276.39999" />
		</defs>
		<clipPath
   id="SVGID_36_">
			<use
   xlink:href="#SVGID_35_"
   style="overflow:visible"
   id="use331"
   x="0"
   y="0"
   width="100%"
   height="100%" />
		</clipPath>
		<path
   class="st32"
   d="m 164.5,130.3 c 0,0 -2.4,-4 -2.3,-5.4 0.1,-1.4 4.8,-4.4 4.8,-4.4"
   clip-path="url(#SVGID_36_)"
   id="path334"
   inkscape:connector-curvature="0"
   style="fill:none;stroke:#000000;stroke-width:0.70899999" />
		<path
   class="st32"
   d="m 172.5,121 c 0,0 3.4,5.9 2.7,6.9 -0.7,1 -2.8,3.5 -2.8,3.5"
   clip-path="url(#SVGID_36_)"
   id="path336"
   inkscape:connector-curvature="0"
   style="fill:none;stroke:#000000;stroke-width:0.70899999" />
	</g>
	<polyline
   class="st31"
   points="173.6,139 178.5,142 177.9,148.4  "
   id="polyline340"
   style="fill:none;stroke:#000000;stroke-width:0.70899999" />
	<g
   id="g362">
		<defs
   id="defs343">
			<rect
   id="SVGID_37_"
   x="1.4"
   y="3.5"
   width="331.70001"
   height="276.39999" />
		</defs>
		<clipPath
   id="SVGID_38_">
			<use
   xlink:href="#SVGID_37_"
   style="overflow:visible"
   id="use345"
   x="0"
   y="0"
   width="100%"
   height="100%" />
		</clipPath>
		<path
   class="st33"
   d="m 182.8,137.5 c 0,0 -2.3,3.2 -4.3,4.6"
   clip-path="url(#SVGID_38_)"
   id="path348"
   inkscape:connector-curvature="0"
   style="fill:none;stroke:#000000;stroke-width:0.70899999" />
		<path
   class="st33"
   d="m 166.2,142.5 -0.6,6.7 c 0,0 2.7,2.2 6,2.9"
   clip-path="url(#SVGID_38_)"
   id="path350"
   inkscape:connector-curvature="0"
   style="fill:none;stroke:#000000;stroke-width:0.70899999" />
		<path
   class="st33"
   d="m 159.5,150.9 c 0,0 4.6,-1.1 6,-1.8"
   clip-path="url(#SVGID_38_)"
   id="path352"
   inkscape:connector-curvature="0"
   style="fill:none;stroke:#000000;stroke-width:0.70899999" />
		<path
   class="st33"
   d="m 155.7,125.9 c 0,0 2,-1.1 6.5,-1.1"
   clip-path="url(#SVGID_38_)"
   id="path354"
   inkscape:connector-curvature="0"
   style="fill:none;stroke:#000000;stroke-width:0.70899999" />
		<path
   class="st33"
   d="m 174.9,128.3 c 0,0 2.2,-2.6 6.4,1.8"
   clip-path="url(#SVGID_38_)"
   id="path356"
   inkscape:connector-curvature="0"
   style="fill:none;stroke:#000000;stroke-width:0.70899999" />
		<path
   class="st33"
   d="m 161.2,136.9 c 0,0 -4.6,0.9 -5.5,1.4 -0.9,0.6 -1.9,5.4 -2,6.5"
   clip-path="url(#SVGID_38_)"
   id="path358"
   inkscape:connector-curvature="0"
   style="fill:none;stroke:#000000;stroke-width:0.70899999" />
		<path
   class="st33"
   d="m 152.4,133.1 c 0,0 0.9,3.2 3.1,5.2"
   clip-path="url(#SVGID_38_)"
   id="path360"
   inkscape:connector-curvature="0"
   style="fill:none;stroke:#000000;stroke-width:0.70899999" />
	</g>
</g>
</svg>