<?xml version="1.0" encoding="UTF-8" standalone="no"?>
<!-- Created with Inkscape (http://www.inkscape.org/) -->

<svg
   width="198.4375mm"
   height="198.4375mm"
   viewBox="0 0 198.4375 198.4375"
   version="1.1"
   id="svg5"
   xml:space="preserve"
   inkscape:version="1.2 (dc2aeda, 2022-05-15)"
   sodipodi:docname="Logo FC Bassin Piennois.svg"
   xmlns:inkscape="http://www.inkscape.org/namespaces/inkscape"
   xmlns:sodipodi="http://sodipodi.sourceforge.net/DTD/sodipodi-0.dtd"
   xmlns="http://www.w3.org/2000/svg"
   xmlns:svg="http://www.w3.org/2000/svg"><sodipodi:namedview
     id="namedview7"
     pagecolor="#ffffff"
     bordercolor="#000000"
     borderopacity="0.25"
     inkscape:showpageshadow="2"
     inkscape:pageopacity="0.0"
     inkscape:pagecheckerboard="0"
     inkscape:deskcolor="#d1d1d1"
     inkscape:document-units="mm"
     showgrid="false"
     inkscape:zoom="0.67081229"
     inkscape:cx="406.96929"
     inkscape:cy="472.56141"
     inkscape:window-width="1920"
     inkscape:window-height="1080"
     inkscape:window-x="0"
     inkscape:window-y="0"
     inkscape:window-maximized="0"
     inkscape:current-layer="layer1"
     showguides="false" /><defs
     id="defs2" /><g
     inkscape:label="Calque 1"
     inkscape:groupmode="layer"
     id="layer1"
     transform="translate(607.93393,346.26556)"><g
       id="g4320"
       transform="matrix(0.93602594,0,0,0.93602594,-38.892,-22.152013)"
       style="stroke-width:1.06835"><circle
         style="fill:#003d66;fill-opacity:1;stroke:none;stroke-width:0.213668;stroke-linecap:square"
         id="circle648"
         cx="-501.93393"
         cy="-240.26556"
         r="106" /><circle
         style="fill:#ffffff;stroke:none;stroke-width:0.213668;stroke-linecap:square"
         id="circle646"
         cx="-501.93393"
         cy="-240.26556"
         r="103.5" /><circle
         style="fill:#003d66;fill-opacity:1;stroke:none;stroke-width:0.213668;stroke-linecap:square"
         id="circle644"
         cx="-501.93393"
         cy="-240.26556"
         r="101.00001" /><circle
         style="fill:#ffffff;stroke:none;stroke-width:0.213668;stroke-linecap:square"
         id="circle642"
         cx="-501.93393"
         cy="-240.26556"
         r="80.5" /><circle
         style="fill:#ca122a;fill-opacity:1;stroke:none;stroke-width:0.213668;stroke-linecap:square"
         id="path636"
         cx="-501.93393"
         cy="-240.26556"
         r="77.5" /></g><g
       id="g740"
       transform="matrix(0.93602594,0,0,0.93602594,-244.81812,-21.656699)"
       style="fill:#ffffff;stroke-width:1.06835"><path
         d="m -297.83319,-334.86784 -4.76013,1.00629 0.69393,3.28254 4.59202,-0.97075 0.40962,1.93767 -4.59201,0.97075 1.37477,6.50315 -2.06155,0.43581 -2.88794,-13.66103 6.82166,-1.4421 z"
         style="font-size:18.5208px;font-family:Futura;-inkscape-font-specification:Futura;text-align:end;letter-spacing:0.79375px;text-anchor:end;white-space:pre;fill:#ffffff;stroke-width:0.80757;stroke-linecap:square"
         id="path723" /><path
         d="m -282.70226,-337.5008 0.16116,2.49076 q -1.92163,-1.40718 -3.87092,-1.28105 -2.14782,0.13898 -3.51896,1.77735 -1.38075,1.62993 -1.2371,3.84995 0.1419,2.19295 1.71943,3.60427 1.57754,1.41133 3.72537,1.27235 1.11001,-0.0718 1.86276,-0.48303 0.42149,-0.20851 0.86189,-0.54513 0.44942,-0.3372 0.93578,-0.80366 l 0.16409,2.53588 q -1.73891,1.13656 -3.7243,1.26503 -2.9871,0.19328 -5.23372,-1.75473 -2.23877,-1.96665 -2.43088,-4.93571 -0.17227,-2.66222 1.45262,-4.86074 2.00062,-2.69408 5.43895,-2.91656 1.87709,-0.12146 3.69383,0.78502 z"
         style="font-size:18.5208px;font-family:Futura;-inkscape-font-specification:Futura;text-align:end;letter-spacing:0.79375px;text-anchor:end;white-space:pre;fill:#ffffff;stroke-width:0.80757;stroke-linecap:square"
         id="path725" /><path
         d="m -278.38347,-324.14388 1.23567,-13.90816 2.08983,0.18567 q 1.39622,0.12405 2.20574,0.41386 0.81852,0.29062 1.34941,0.85529 0.53829,0.58348 0.81016,1.40659 0.28009,0.83291 0.20726,1.65263 -0.13285,1.49531 -1.36889,2.42957 1.07436,0.47677 1.62989,1.47942 0.56533,0.99444 0.45489,2.23753 -0.14485,1.63042 -1.3979,2.65397 -0.75523,0.63198 -1.64399,0.82539 -0.96904,0.1772 -2.39228,0.0507 z m 2.80391,-7.74947 0.65757,0.0584 q 1.17102,0.10404 1.75711,-0.3614 0.5959,-0.47363 0.68554,-1.48252 0.0872,-0.98186 -0.42644,-1.53591 -0.51287,-0.56307 -1.5758,-0.65751 l -0.73865,-0.0656 z m -0.5298,5.96322 1.29713,0.11524 q 1.42324,0.12645 2.13945,-0.37282 0.75623,-0.5411 0.83866,-1.46891 0.08,-0.90079 -0.54114,-1.57335 -0.60395,-0.66195 -2.29743,-0.8124 l -1.06293,-0.0944 z"
         style="font-size:18.5208px;font-family:Futura;-inkscape-font-specification:Futura;text-align:end;letter-spacing:0.79375px;text-anchor:end;white-space:pre;fill:#ffffff;stroke-width:0.80757;stroke-linecap:square"
         id="path727" /><path
         d="m -263.40763,-327.85749 -1.25361,5.52987 -2.05496,-0.46585 3.08705,-13.61742 2.32837,0.52784 q 1.71099,0.38788 2.53015,0.82395 0.82797,0.43806 1.34831,1.25149 0.91308,1.41246 0.5172,3.15873 -0.42387,1.86975 -1.92417,2.67946 -1.50031,0.80972 -3.62582,0.32787 z m 0.43187,-1.90502 0.7673,0.17394 q 2.83109,0.64181 3.32493,-1.53663 0.47786,-2.10788 -2.44142,-2.76967 l -0.67911,-0.15395 z"
         style="font-size:18.5208px;font-family:Futura;-inkscape-font-specification:Futura;text-align:end;letter-spacing:0.79375px;text-anchor:end;white-space:pre;fill:#ffffff;stroke-width:0.80757;stroke-linecap:square"
         id="path729" /></g><g
       id="g1647"
       transform="matrix(0.93602594,0,0,0.93602594,-244.81802,-22.152013)"
       style="fill:#ffffff;stroke-width:1.06835"><path
         id="circle732"
         style="fill:#ffffff;stroke:none;stroke-width:0.213669;stroke-linecap:square"
         d="m -272.08636,-290.61477 a 15.75,15.75 0 0 0 -15.74994,15.74995 15.75,15.75 0 0 0 15.74994,15.74994 15.75,15.75 0 0 0 15.74995,-15.74994 15.75,15.75 0 0 0 -15.74995,-15.74995 z m 0,3.50005 a 12.25,12.25 0 0 1 12.2499,12.2499 12.25,12.25 0 0 1 -12.2499,12.25041 12.25,12.25 0 0 1 -12.2499,-12.25041 12.25,12.25 0 0 1 12.2499,-12.2499 z" /><path
         id="rect786"
         style="fill:#ffffff;stroke:none;stroke-width:0.213669;stroke-linecap:square"
         d="m -308.07176,-295.40362 v 3.90002 h 52.40404 v 33.20521 h -39.62342 c -0.6648,0 -1.19993,0.53512 -1.19993,1.19992 v 1.50017 c 0,0.6648 0.53513,1.19993 1.19993,1.19993 h 9.35653 l -29.69999,70.12698 c -0.25927,0.61216 0.0245,1.31377 0.63665,1.57303 l 1.48415,0.6289 c 0.61216,0.25927 1.31376,-0.025 1.57303,-0.63717 l 30.36352,-71.69174 h 1.56786 v 72.47309 c 0,0.6648 0.53513,1.19993 1.19993,1.19993 h 1.50017 c 0.66479,0 1.19992,-0.53513 1.19992,-1.19993 v -32.3081 l 20.46077,32.49879 c 0.0914,0.57289 0.58139,1.00924 1.18081,1.00924 h 1.50016 c 0.6648,0 1.19993,-0.53513 1.19993,-1.19993 v -113.47834 z m 31.96239,41.00525 h 20.44165 v 32.82435 l -20.44165,-32.46882 z m 0,7.8853 17.72295,28.15022 h -17.72295 z m 4.59662,32.05024 h 15.58148 l 0.26355,0.41858 v 24.7494 z"
         sodipodi:nodetypes="ccccsssscccccccssssccssccccccccccccccccc" /></g><g
       id="g1643"
       transform="matrix(0.93602594,0,0,0.93602594,-244.81812,-22.152013)"
       style="fill:#ffffff;stroke-width:1.06835"><path
         d="m -375.86148,-211.79023 13.56822,-4.70827 0.70747,2.03875 q 0.47265,1.36209 0.54229,2.24375 0.0727,0.89044 -0.23305,1.62667 -0.32026,0.75112 -0.9777,1.3534 -0.66318,0.61411 -1.46286,0.89161 -1.45876,0.5062 -2.85662,-0.25916 0.006,1.20896 -0.70021,2.15308 -0.69437,0.94985 -1.90707,1.37067 -1.59058,0.55194 -3.07937,-0.19171 -0.91145,-0.44185 -1.46783,-1.19399 -0.57503,-0.83428 -1.05683,-2.22274 z m 8.45248,-0.63898 0.22261,0.6415 q 0.39642,1.1424 1.08028,1.49585 0.6957,0.35919 1.67993,0.0177 0.95786,-0.33238 1.26091,-1.04799 0.31183,-0.71865 -0.048,-1.7556 l -0.25006,-0.72059 z m -5.81746,2.0187 0.43911,1.26543 q 0.48181,1.38846 1.2523,1.84969 0.82663,0.48113 1.73176,0.16704 0.87877,-0.30494 1.24763,-1.17138 0.36617,-0.84581 -0.20711,-2.4979 l -0.35983,-1.03695 z"
         style="font-size:19.05px;font-family:Futura;-inkscape-font-specification:Futura;text-align:end;letter-spacing:1.05833px;text-anchor:end;white-space:pre;fill:#ffffff;stroke-width:0.80757;stroke-linecap:square"
         id="path1557" /><path
         d="m -364.74585,-194.49229 -2.80453,-5.47158 -3.83392,0.16731 -1.06496,-2.07771 16.8253,-0.63836 -10.45676,13.06323 -1.08193,-2.11082 z m 1.40975,-1.71557 3.37419,-4.12311 -5.36409,0.24085 z"
         style="font-size:19.05px;font-family:Futura;-inkscape-font-specification:Futura;text-align:end;letter-spacing:1.05833px;text-anchor:end;white-space:pre;fill:#ffffff;stroke-width:0.80757;stroke-linecap:square"
         id="path1559" /><path
         d="m -349.64621,-187.38519 -1.86293,-0.83997 q 0.41699,-0.89526 0.37353,-1.41032 -0.0237,-0.55168 -0.44602,-1.15304 -0.51855,-0.73838 -1.27935,-0.93153 -0.75319,-0.1985 -1.37738,0.23985 -0.86018,0.60408 -0.48731,2.25179 l 0.34369,1.50905 q 0.42649,1.83737 0.0542,3.08767 -0.36463,1.24495 -1.57496,2.09494 -1.62139,1.13866 -3.43859,0.80081 -1.83015,-0.34012 -2.96347,-1.9539 -1.07451,-1.53004 -0.86897,-3.16338 0.21623,-1.61813 1.68939,-3.01641 l 1.65745,1.51848 q -0.94972,0.84883 -1.13172,1.4313 -0.37631,1.08265 0.36141,2.13313 0.5827,0.82972 1.52328,0.98755 0.94059,0.15783 1.79315,-0.4409 0.34255,-0.24056 0.5547,-0.53732 0.22511,-0.29449 0.31675,-0.66573 0.1046,-0.36899 0.0856,-0.83303 -0.0114,-0.4694 -0.13114,-1.04455 l -0.32457,-1.46565 q -0.67461,-3.12939 1.28933,-4.50862 1.32451,-0.93017 2.92613,-0.54322 1.60923,0.38161 2.6677,1.88881 1.42734,2.03245 0.25006,4.56419 z"
         style="font-size:19.05px;font-family:Futura;-inkscape-font-specification:Futura;text-align:end;letter-spacing:1.05833px;text-anchor:end;white-space:pre;fill:#ffffff;stroke-width:0.80757;stroke-linecap:square"
         id="path1561" /><path
         d="m -342.19211,-178.99954 -1.95214,-0.6043 q 0.30364,-0.93978 0.19712,-1.44558 -0.0914,-0.54456 -0.58454,-1.08937 -0.60548,-0.66895 -1.38427,-0.767 -0.7719,-0.1043 -1.3374,0.40755 -0.77928,0.70535 -0.20647,2.29464 l 0.52681,1.45529 q 0.64938,1.7709 0.43384,3.05751 -0.20864,1.28037 -1.30516,2.27285 -1.46892,1.32956 -3.31388,1.21792 -1.8581,-0.11229 -3.18142,-1.57431 -1.25465,-1.38617 -1.25169,-3.03239 0.0154,-1.63244 1.3053,-3.2014 l 1.83174,1.30295 q -0.83803,0.95926 -0.94696,1.5597 -0.24021,1.12074 0.62119,2.07244 0.68039,0.7517 1.63325,0.79257 0.95286,0.0409 1.72525,-0.65825 0.31033,-0.28089 0.48435,-0.6015 0.18716,-0.31995 0.23241,-0.69966 0.0584,-0.37905 -0.0176,-0.83723 -0.0691,-0.46442 -0.2587,-1.02046 l -0.5025,-1.41456 q -1.05461,-3.02258 0.72464,-4.63303 1.19997,-1.08611 2.83703,-0.89922 1.64396,0.18065 2.87989,1.54613 1.66662,1.84132 0.80988,4.49871 z"
         style="font-size:19.05px;font-family:Futura;-inkscape-font-specification:Futura;text-align:end;letter-spacing:1.05833px;text-anchor:end;white-space:pre;fill:#ffffff;stroke-width:0.80757;stroke-linecap:square"
         id="path1563" /><path
         d="m -337.00877,-176.98941 -9.68015,10.60939 -1.60103,-1.4608 9.68015,-10.60939 z"
         style="font-size:19.05px;font-family:Futura;-inkscape-font-specification:Futura;text-align:end;letter-spacing:1.05833px;text-anchor:end;white-space:pre;fill:#ffffff;stroke-width:0.80757;stroke-linecap:square"
         id="path1565" /><path
         d="m -343.47344,-163.59222 8.89359,-12.49707 2.18014,15.00044 5.78703,-8.13181 1.76581,1.25665 -8.83426,12.4137 -2.19632,-14.9777 -5.83018,8.19243 z"
         style="font-size:19.05px;font-family:Futura;-inkscape-font-specification:Futura;text-align:end;letter-spacing:1.05833px;text-anchor:end;white-space:pre;fill:#ffffff;stroke-width:0.80757;stroke-linecap:square"
         id="path1567" /><path
         d="m -300.39692,-146.02966 5.2614,0.96136 -0.36616,2.00391 -9.48882,-1.7338 5.98962,-5.04236 q 0.88505,-0.7555 1.48872,-1.31655 0.61282,-0.55939 0.94928,-0.95179 0.67873,-0.76482 0.80413,-1.45109 0.18056,-0.98823 -0.39281,-1.78327 -0.57337,-0.79503 -1.59819,-0.98229 -2.14117,-0.39123 -2.9154,2.08655 l -2.12286,-0.38789 q 1.32831,-4.3717 5.32698,-3.64107 1.93071,0.35278 3.01516,1.818 1.0936,1.46689 0.76255,3.27865 -0.21066,1.15293 -1.02603,2.14809 -0.41644,0.51962 -1.16582,1.20535 -0.73855,0.67825 -1.85086,1.59079 z"
         style="font-size:19.05px;font-family:Futura;-inkscape-font-specification:Futura;text-align:end;letter-spacing:1.05833px;text-anchor:end;white-space:pre;fill:#ffffff;stroke-width:0.80757;stroke-linecap:square"
         id="path1573" /><path
         d="m -290.95278,-149.67491 q 0.17574,-3.42785 1.87832,-5.38963 1.52537,-1.77528 3.55978,-1.67098 2.03441,0.1043 3.37023,2.02627 1.49303,2.12562 1.31252,5.64636 -0.18002,3.51145 -1.8826,5.47324 -1.52537,1.77527 -3.5505,1.67145 -2.02512,-0.10383 -3.37951,-2.02675 -1.49303,-2.12561 -1.30824,-5.72996 z m 2.12683,0.11835 q -0.1224,2.38742 0.62341,4.00903 0.74723,1.59374 2.02919,1.65947 1.27267,0.0652 2.18827,-1.44325 0.91512,-1.4992 1.03561,-3.84946 0.12049,-2.35026 -0.63603,-3.94448 -0.757,-1.58493 -2.02967,-1.65017 -1.26338,-0.0648 -2.1785,1.43443 -0.91464,1.48991 -1.03228,3.78443 z"
         style="font-size:19.05px;font-family:Futura;-inkscape-font-specification:Futura;text-align:end;letter-spacing:1.05833px;text-anchor:end;white-space:pre;fill:#ffffff;stroke-width:0.80757;stroke-linecap:square"
         id="path1575" /><path
         d="m -277.49102,-149.08618 q -0.26313,-3.42225 1.17519,-5.58527 1.28635,-1.95541 3.31744,-2.11158 2.0311,-0.15616 3.60125,1.57963 1.75207,1.91772 2.02233,5.43271 0.26954,3.50571 -1.16878,5.66873 -1.28635,1.95541 -3.30817,2.11086 -2.02181,0.15546 -3.61052,-1.57891 -1.75207,-1.91771 -2.02874,-5.51617 z m 2.12455,-0.15402 q 0.18326,2.38351 1.1299,3.89669 0.9445,1.48536 2.22437,1.38696 1.27059,-0.0977 1.9862,-1.71069 0.71632,-1.60373 0.53592,-3.95015 -0.18041,-2.34642 -1.13419,-3.83106 -0.95307,-1.47537 -2.22366,-1.37768 -1.26131,0.097 -1.97764,1.7007 -0.71703,1.59445 -0.5409,3.88523 z"
         style="font-size:19.05px;font-family:Futura;-inkscape-font-specification:Futura;text-align:end;letter-spacing:1.05833px;text-anchor:end;white-space:pre;fill:#ffffff;stroke-width:0.80757;stroke-linecap:square"
         id="path1577" /><path
         d="m -258.921,-157.12391 -6.77079,2.09651 -0.59979,-1.93705 10.22727,-3.16676 -4.26067,16.87 -1.96573,-0.53062 z"
         style="font-size:19.05px;font-family:Futura;-inkscape-font-specification:Futura;text-align:end;letter-spacing:1.05833px;text-anchor:end;white-space:pre;fill:#ffffff;stroke-width:0.80757;stroke-linecap:square"
         id="path1579" /><path
         d="m -247.33514,-155.87224 q -0.23596,-0.59713 0.0289,-1.20685 0.26487,-0.60974 0.87329,-0.84964 0.60843,-0.23992 1.21881,0.0246 0.61037,0.26459 0.85056,0.87236 0.24438,0.61842 -0.0205,1.22815 -0.25843,0.59487 -0.87751,0.83898 -0.62977,0.24833 -1.22527,-0.01 -0.59551,-0.25814 -0.84832,-0.89789 z"
         style="font-size:19.05px;font-family:Futura;-inkscape-font-specification:Futura;text-align:end;letter-spacing:1.05833px;text-anchor:end;white-space:pre;fill:#ffffff;stroke-width:0.80757;stroke-linecap:square"
         id="path1581" /><path
         d="m -231.95566,-162.31076 3.184,4.88639 -1.81583,1.18321 -7.84066,-12.03283 2.05743,-1.34063 q 1.5119,-0.98516 2.42054,-1.27748 0.91644,-0.29739 1.88959,-0.0988 1.69667,0.33774 2.70214,1.88081 1.07656,1.65218 0.5996,3.33964 -0.47695,1.68746 -2.35513,2.91129 z m -1.09687,-1.68334 0.67801,-0.4418 q 2.50164,-1.63008 1.24735,-3.55503 -1.21368,-1.86259 -3.79325,-0.18173 l -0.60009,0.39102 z"
         style="font-size:19.05px;font-family:Futura;-inkscape-font-specification:Futura;text-align:end;letter-spacing:1.05833px;text-anchor:end;white-space:pre;fill:#ffffff;stroke-width:0.80757;stroke-linecap:square"
         id="path1583" /><path
         d="m -228.463,-175.95365 9.24843,10.98778 -1.65813,1.39565 -9.24842,-10.98779 z"
         style="font-size:19.05px;font-family:Futura;-inkscape-font-specification:Futura;text-align:end;letter-spacing:1.05833px;text-anchor:end;white-space:pre;fill:#ffffff;stroke-width:0.80757;stroke-linecap:square"
         id="path1585" /><path
         d="m -218.73664,-181.9907 -4.11032,4.03204 2.41662,2.46354 3.9908,-3.9148 1.42652,1.45421 -3.9908,3.9148 3.36113,3.42638 4.11032,-4.03205 1.42652,1.45421 -5.65749,5.54977 -10.05732,-10.25255 5.65749,-5.54977 z"
         style="font-size:19.05px;font-family:Futura;-inkscape-font-specification:Futura;text-align:end;letter-spacing:1.05833px;text-anchor:end;white-space:pre;fill:#ffffff;stroke-width:0.80757;stroke-linecap:square"
         id="path1587" /><path
         d="m -208.15045,-175.85785 -12.08257,-9.44903 15.08361,-1.50031 -7.86209,-6.14846 1.33512,-1.70724 12.00196,9.38599 -15.06162,1.51751 7.92072,6.19429 z"
         style="font-size:19.05px;font-family:Futura;-inkscape-font-specification:Futura;text-align:end;letter-spacing:1.05833px;text-anchor:end;white-space:pre;fill:#ffffff;stroke-width:0.80757;stroke-linecap:square"
         id="path1589" /><path
         d="m -198.24275,-188.89432 -13.28766,-7.66229 14.72444,-3.59959 -8.64625,-4.98583 1.08266,-1.87752 13.19903,7.61118 -14.70027,3.61353 8.71071,5.023 z"
         style="font-size:19.05px;font-family:Futura;-inkscape-font-specification:Futura;text-align:end;letter-spacing:1.05833px;text-anchor:end;white-space:pre;fill:#ffffff;stroke-width:0.80757;stroke-linecap:square"
         id="path1591" /><path
         d="m -197.79135,-206.2051 q -2.85708,-1.01607 -4.16296,-3.84 -1.30899,-2.81517 -0.26799,-5.74236 1.02853,-2.89213 3.8324,-4.22489 2.80699,-1.34152 5.70789,-0.30987 2.91842,1.03789 4.20989,3.84682 1.29712,2.82081 0.24365,5.78306 -0.93192,2.62045 -3.48786,4.06112 -2.82356,1.58244 -6.07502,0.42612 z m 0.75873,-2.0502 q 2.24359,0.79789 4.22575,-0.19526 1.97903,-0.98438 2.67719,-2.94753 0.75737,-2.12966 -0.19449,-4.11687 -0.96938,-1.99345 -3.10781,-2.75394 -2.16472,-0.76984 -4.14258,0.15572 -1.98351,0.91369 -2.73777,3.03459 -0.75114,2.11213 0.20384,4.09058 0.93744,1.97221 3.07587,2.73271 z"
         style="font-size:19.05px;font-family:Futura;-inkscape-font-specification:Futura;text-align:end;letter-spacing:1.05833px;text-anchor:end;white-space:pre;fill:#ffffff;stroke-width:0.80757;stroke-linecap:square"
         id="path1593" /><path
         d="m -199.05794,-226.85463 14.03333,3.05454 -0.46095,2.11772 -14.03333,-3.05454 z"
         style="font-size:19.05px;font-family:Futura;-inkscape-font-specification:Futura;text-align:end;letter-spacing:1.05833px;text-anchor:end;white-space:pre;fill:#ffffff;stroke-width:0.80757;stroke-linecap:square"
         id="path1595" /><path
         d="m -195.81802,-237.93347 0.82658,1.8689 q -0.90806,0.38833 -1.21948,0.80088 -0.35057,0.42663 -0.43747,1.15631 -0.10671,0.89594 0.3309,1.54757 0.42836,0.65054 1.18576,0.74074 1.04372,0.12431 1.86584,-1.35152 l 0.75131,-1.35312 q 0.90877,-1.65285 2.02049,-2.33542 1.10248,-0.68367 2.57108,-0.50877 1.96737,0.23431 3.09504,1.6988 1.1358,1.47482 0.90259,3.43295 -0.2211,1.85653 -1.46435,2.93561 -1.24105,1.0606 -3.27133,1.11856 l -0.22069,-2.23701 q 1.27377,0.002 1.79807,-0.31044 1.00285,-0.55502 1.15465,-1.82965 0.1199,-1.00678 -0.47516,-1.75211 -0.59506,-0.74533 -1.62954,-0.86853 -0.41564,-0.0495 -0.7717,0.0299 -0.36418,0.069 -0.68021,0.28432 -0.32417,0.20495 -0.61976,0.56318 -0.30482,0.35713 -0.59954,0.86534 l -0.73656,1.30804 q -1.5864,2.78056 -3.96941,2.49675 -1.60715,-0.19141 -2.54152,-1.54856 -0.9436,-1.35826 -0.72579,-3.18708 0.29371,-2.46614 2.8602,-3.56561 z"
         style="font-size:19.05px;font-family:Futura;-inkscape-font-specification:Futura;text-align:end;letter-spacing:1.05833px;text-anchor:end;white-space:pre;fill:#ffffff;stroke-width:0.80757;stroke-linecap:square"
         id="path1597" /><path
         d="m -317.61761,-154.40802 q -0.23596,-0.59713 0.0289,-1.20685 0.26487,-0.60974 0.87329,-0.84964 0.60843,-0.23992 1.21881,0.0246 0.61037,0.26459 0.85056,0.87236 0.24438,0.61842 -0.0205,1.22815 -0.25843,0.59487 -0.87751,0.83898 -0.62977,0.24833 -1.22527,-0.01 -0.59551,-0.25814 -0.84832,-0.89789 z"
         style="font-size:19.05px;font-family:Futura;-inkscape-font-specification:Futura;text-align:end;letter-spacing:1.05833px;text-anchor:end;white-space:pre;fill:#ffffff;stroke-width:0.80757;stroke-linecap:square"
         id="path1621" /></g></g></svg>
