<svg height="328.35679" viewBox="0 0 550 593" width="304.54677" xmlns="http://www.w3.org/2000/svg"><g fill-rule="evenodd" transform="matrix(1.0446243 0 0 1.0446243 -35.919615 -142.84307)"><path d="m34.3852 137.4802h526.5051v179.8317c0 43.3967-.9869 85.4252-12.9679 127.3726-2.9345 10.2743-6.3596 20.3915-10.0514 30.4186-11.8667 32.231-28.1381 62.0354-47.639 88.2132-47.535 63.8101-112.3703 108.8911-191.1363 141.093-95.3605-33.2017-184.995-104.7468-230.8028-203.2224-5.0495-10.8558-10.023-24.4671-14.0999-35.7283-17.8757-49.3762-19.8078-101.7212-19.8078-153.7492z" fill="#296aad"/><path d="m56.9845 158.7235h482.8885v158.5884c0 73.3541-6.9902 107.285-22.7105 149.9831-44.4632 120.7668-152.2082 186.6131-218.7599 213.6916-91.7023-37.7975-171.7245-105.8685-209.9246-192.6471-20.722-47.0743-31.4935-77.8834-31.4935-176.6301z" fill="#fff"/><path d="m81.1657 182.9047v128.8047c0 45.9042 1.226 92.9697 17.0136 136.5765 3.7176 10.268 8.0322 20.3197 12.4303 30.311 35.3357 80.2712 108.4847 141.2325 187.8452 176.1307 86.1343-37.5272 163.1405-106.4951 196.0154-195.7873 3.2898-8.9348 6.3543-17.9483 8.9699-27.1051 10.7046-37.4729 12.2517-75.7662 12.2517-114.5233v-134.4072z" fill="#3569ac"/><path d="m301.2254 359.5536 176.4269-176.6489h36.0449z" fill="#2357a0"/><path d="m301.9597 360.5945 213.7321-143.3322v27.0409z" fill="#2357a0"/><path d="m302.4835 361.7744 213.2083-88.336v22.2994z" fill="#2357a0"/><path d="m302.7629 363.016 212.9253-42.6468c-.0151 6.7418-.0834 13.4691-.2443 20.1804z" fill="#2357a0"/><path d="m302.7963 364.2863 211.6582-.6045c-.418 6.5056-.9692 12.9939-1.6895 19.4627z" fill="#2357a0"/><path d="m302.5805 365.5489 206.8407 40.5401c-1.1665 6.3723-2.544 12.7239-4.1679 19.0526z" fill="#2357a0"/><path d="m302.1183 366.7532 196.3204 81.003c-1.2733 3.7447-2.6014 7.4713-3.9685 11.1841-.9118 2.4767-1.863 4.9353-2.842 7.3805z" fill="#2357a0"/><path d="m301.437 367.8326 180.4981 120.0773c-3.0312 6.0737-6.2726 12.0345-9.7055 17.8823z" fill="#2357a0"/><path d="m300.5526 368.7639 158.3132 157.8474c-4.048 5.7929-8.286 11.458-12.7066 16.9858z" fill="#2357a0"/><path d="m299.5181 369.4959 130.1145 193.2575c-5.0862 5.4796-10.3514 10.8036-15.7797 15.9659z" fill="#2357a0"/><path d="m298.3442 370.0202 94.7693 227.0126c-6.2358 5.1122-12.6386 10.0253-19.18 14.7422z" fill="#2357a0"/><path d="m297.0841 370.3052 51.64 258.2394c-7.5565 4.6269-15.2529 8.9997-23.0608 13.1109z" fill="#2357a0"/><path d="m294.5435 370.1198-50.5448 255.8071c-7.1165-4.4548-14.1083-9.1333-20.95-14.0265z" fill="#2357a0"/><path d="m293.3543 369.6631-92.6069 225.0576c-5.9394-4.9278-11.7227-10.0356-17.335-15.3123z" fill="#2357a0"/><path d="m292.2605 368.972-127.7336 191.293c-4.8586-5.3224-9.5387-10.7943-14.0301-16.4071z" fill="#2357a0"/><path d="m291.3328 368.0888-155.6283 155.7116c-3.8336-5.6602-7.4727-11.4476-10.9062-17.3564z" fill="#2357a0"/><path d="m290.5975 367.0452-176.8559 118.3989c-1.0735-2.2672-2.12-4.5481-3.132-6.8472-1.6349-3.7142-3.2582-7.4363-4.8437-11.1751z" fill="#2357a0"/><path d="m290.0788 365.8777-192.707 80.1359c-2.127-6.0842-3.9774-12.2337-5.5854-18.4363z" fill="#2357a0"/><path d="m289.7961 364.6223-202.8125 40.4389c-1.0736-6.2708-1.951-12.5789-2.6683-18.9128z" fill="#2357a0"/><path d="m289.7642 363.3477-207.3763.2794c-.3897-6.4254-.6581-12.8619-.8421-19.2971z" fill="#2357a0"/><path d="m289.9816 362.0867-208.7953-41.2025c-.0147-3.0624-.0206-6.1212-.0206-9.1748v-11.3139z" fill="#2357a0"/><path d="m290.4406 360.8923-209.2749-86.2674v-23.5966z" fill="#2357a0"/><path d="m291.1233 359.8107-209.9576-139.7011v-29.9239z" fill="#2357a0"/><path d="m292.0054 358.8815-176.6278-175.9768h29.9578z" fill="#2357a0"/><path d="m293.0572 358.1393-117.2992-175.2346h22.147z" fill="#2357a0"/><path d="m294.2323 357.6184-72.3917-174.7137h18.2735z" fill="#2357a0"/><path d="m295.4809 357.3384-34.7459-174.4337h16.5058z" fill="#2357a0"/><path d="m296.7576 357.3067-.1413-174.402h16.1648z" fill="#2357a0"/><path d="m298.0186 357.5248 34.5594-174.6201h17.1348z" fill="#2357a0"/><path d="m299.2229 357.9897 72.6485-175.085h19.7845z" fill="#2357a0"/><path d="m300.2977 358.6711 117.2847-175.7664h25.0992z" fill="#2357a0"/><path d="m295.8095 370.3382.5241 283.4445c-8.4652-3.7774-16.8559-7.8516-25.1344-12.2142z" fill="#2357a0"/><g fill="#fff"><path d="m412.6302 394.7752c4.8564 2.8206 6.6984-1.6846 9.8178-2.5809 1.3546-.3891 3.6304-.5478 3.1302 1.5845-.3717 1.5842-1.0013 4.3994 3.4566 4.676l-5.9257 5.0527c-1.0448.8907-2.3786.4855-3.2435-.499z"/><path d="m405.1454 376.4372c1.5175-2.9112 4.8231-3.4097 8.6699-2.9935-1.289-3.7008-4.6156-5.6997-9.4184-3.9923l4.8651-12.1006c3.9084 5.5307 9.1686 10.0418 16.4046 12.9107-4.5122 4.0546-4.4681 7.4813-2.0586 9.5439l9.1066 7.7961c.3743-.998.5612-1.5587 1.1228-2.5567-1.996-1.7048-3.992-3.4097-5.9879-5.1146 3.3234 1.6438 6.5223 3.4755 9.8453 5.1192.5438.2687 1.0877.5378 1.7562.6192-.1247.4574-.2495.9148-.3742 1.3722-2.1223-.1693-3.8071.0371-4.9273 1.8717l2.1828 1.8707c-5.1662.786-6.7007 2.8448-7.8591 5.3007-.7921-4.683-2.8525-6.2184-5.0658-6.6702-1.6697-.3405-4.8281-.2282-7.277 4.7502.2344-6.569.6156-10.8481-5.0362-12.6558-.0398-.8552.4813-2.0225 3.5607-2.1289-1.1738-.9388-4.0943-3.3752-9.5095-2.942z"/><path d="m420.3314 364.548c-1.6387-3.5456-4.6663-6.1321-8.802-7.0085 3.2801-4.8331 8.315-1.9555 10.6748 1.3142-.5203.2296-1.0405.459-1.5607.6883.2291 1.8776.1455 3.6297-.3121 5.006z"/><path d="m425.5127 340.2063c-4.2477 1.812-7.3262 4.6496-10.2377 7.6343 7.1999 4.9015 5.2623-1.3356 6.5547-3.3167.7279-1.1157 1.852-2.3776 3.683-4.3176z"/><path d="m428.4468 358.1653c-1.6023-1.7729-3.9922-3.0726-4.8069-5.3187-.5812-1.6032-.541-4.2134 1.0613-5.319 1.4359 3.379 2.8093 7.0711 4.245 10.4501 2.1017 1.4809 4.2082 2.947 5.0564 5.1935.9062 2.3999.666 5.6944.0002 8.3853-1.8104-4.2344-3.7458-9.157-5.556-13.3912z"/><path d="m414.9227 340.7293c-11.5539 11.8422-13.3322 21.7289-12.1855 33.1416-2.198-2.048-3.4896-1.1842-4.1318-.3962-.939 1.1521-.709 3.8084.4393 5.2891 3.3214 4.2833 6.895 5.8343 10.6164 9.8784 1.9287 2.0956 1.8231 5.2986-2.6703 6.076-4.6136.7982-9.2804-.8328-12.8257-3.0841-2.7571-1.751-5.3961-4.321-8.2291-5.5766-2.1637-.9586-5.1395.5343-7.0175-2.0319-4.4179-6.0369-8.1547-15.2319-8.9543-30.1869 2.156 8.3983 6.5246 18.1354 10.8935 19.3861 1.4222.407 2.7244-.0163 3.3768-1.4911.7397-1.6713.7431-4.1495 1.9589-5.1364 1.3164-1.0685 2.5474-.4147 3.4353-.0212 2.0317.8999 3.1499.4431 3.7908-2.1648 2.0421-8.3068 7.1748-14.7779 21.5032-23.682z"/><path d="m390.5514 365.3776c.6776-3.0773 2.3388-6.2466 4.5228-9.2318-2.6152 1.0771-4.7691 2.5228-6.5544 3.9684v-6.0914c-3.1083-.6133-7.0768 1.417-9.6009 4.4306-1.1975-3.5087.1691-7.8345 1.4787-10.1574 1.9749-3.5034.4872-5.7147-1.5996-5.6819-1.7993.0282-3.4945 1.7763-4.033 2.546-3.7526 5.3646-2.8548 17.664 6.4624 21.6028.6093.2575 1.8041.0389 1.8925-.7697.1851-1.6893 1.0326-2.4925 2.1336-2.9026 1.3704-.5103 3.3063.3433 5.2979 2.287z"/><path d="m385.4736 347.5597c3.0157-.9218 5.7545-.9829 8.7706.5543 1.4488-6.3684 5.9677-13.2919 9.9712-14.9561 2.417-1.0046 3.9366 2.1265 4.2453 6.6475 2.7645-6.7662-.0179-12.1229-4.154-11.6318-5.027.5966-12.6784 10.3423-18.8331 19.3861z"/><path d="m370.8695 381.1417c-.0576-3.7765-.7082-6.8885-1.6427-9.5398-2.9246-8.2964-8.6325-12.0863-7.6756-17.631.6206-3.5958 3.0864-7.4196 13.473-12.2127-8.7796-.5091-22.8076.7661-30.2943 6.232 8.432.8018 10.8325 4.5119 11.8124 8.6404.8644 3.643.5855 7.5935 2.9128 10.4343 3.862 4.7137 7.552 2.6326 11.4144 14.0768z"/><path d="m371.0426 390.5753c-.6425-6.0028-3.0511-9.3848-5.5338-11.5041-4.4259-3.7786-10.1896-3.5477-13.5955-7.0076-4.3522-4.4213-6.1588-11.4474-9.828-16.1438-1.7919-2.2933-4.6346-4.5517-7.5691-4.4656 7.0405 5.4485 3.6323 15.4703 9.0019 21.3771 7.3649 8.1012 21.8413 4.2247 27.5245 17.744z"/><path d="m321.1336 365.4219c1.5817 4.2541 7.9461 5.6336 9.5368 9.7218 1.9361 4.9747-4.3169 7.4796-.3267 12.8494 6.3115 8.4942 11.5016 13.7069 17.2527 20.6255-3.5461 1.0811-6.9622 2.9399-8.4318 4.0213 4.2916 1.0809 7.3832 6.7018 5.7077 13.88 2.5098-2.9375 3.5313-5.8928 2.7241-11.6748 4.5833 2.6376 9.2374-4.0242 5.5779-9.9884-3.9544-6.4453-7.7536-10.4332-13.0388-14.9693-2.1809-1.8721-2.1834-4.1639-.5788-6.2001 1.2384-1.5722 2.5225-3.7677-.2506-7.0216-1.8708-2.1951-4.1111-2.5469-6.2616-4.4405-2.1506-1.8936-3.6432-5.6948-5.6844-7.7113-2.8165-2.7822-6.5655-.6382-6.2265.908z"/><path d="m320.3552 367.238c-4.6728 3.132-4.3302 9.4322-2.0897 14.2228 2.057 4.3976 4.6975 7.006 5.9712 14.7128 1.4775 8.9391.9977 16.0697 3.5469 21.9025 1.3354 3.0552 3.1363 5.1296 6.4516 7.0169l2.2053-2.7241c-11.2506-5.3436-2.0055-18.2114-4.1755-26.7973-1.9839-7.8501-11.0031-12.2348-12.7229-20.1864-.5035-2.329-.4278-4.8174.8131-8.1472z"/><path d="m342.667 428.8548c13.0477.9535 29.2224-13.3335 41.6075-14.263 6.1899-.4647 13.4868 1.7417 19.5391 5.1522 6.0523 3.4104 10.3419 8.1542 13.6307 6.9282 1.0757-.4009 1.2895-1.5284 1.6276-2.8764 2.2484.9946 4.5834 2.9835 6.2266 5.5779l4.7996-6.3562c-9.1425-6.2345-20.8928-14.6995-43.975-16.9933-.2163-4.9728-2.9835-9.4262-7.0048-13.3612 6.8317.1732 13.7934 8.6481 20.4957 4.7997 12.9475 6.8618 26.4872 12.2072 40.4725 15.9555.0391 5.4521 1.8565 8.2182 4.9294 10.637-.8215 3.4975-3.027 6.102-6.6157 6.486-1.3836 4.6267-5.7511 6.14-8.9507 3.243-11.6147 5.3479-21.0697-5.1967-31.6866-11.1613-3.8399-2.1571-7.6802-3.0224-11.5101-3.2376-14.4201-.8102-28.452 13.0368-43.5858 9.4695z"/><path d="m355.639 416.5315c2.4864 1.6646 3.4211 1.5745 4.8645.5837 1.1021-.7564 2.0323-3.7619-.5838-9.4047 6.2266-2.2052 23.2199 1.6864 33.0786 4.1511-5.5111-.5657-10.7534-.8907-14.0529-.417-4.1045.5892-5.2677 1.697-6.4711 2.6068-2.9664 2.2428-5.0593 2.1922-7.1063.0154-1.6864 5.8808-6.2266 9.5559-12.5828 10.3776z"/><path d="m351.7474 391.8847c6.5075 3.7511 11.1177 4.6336 15.3876 4.472 2.5619-.0968 5.7341-1.3899 8.2214-.3209 1.6613.7141 2.078 1.9797 2.1006 2.9342.0377 1.5917-1.4785 2.7838-3.5275 2.514-1.9101-.2513-2.9651-1.9951-4.7056-2.6821-2.5013-.9874-5.0178 1.6337-9.0165.9004-2.0179-.3702-5.4728-2.2889-8.46-7.8176z"/><path d="m367.7029 431.1898c3.2008.1087 6.961-6.5208 11.3376-7.6878 1.9736-.5263 3.853.9539 5.542.7681 1.8005-.1979 3.2894-2.1331 5.6616-2.3431 3.7743-.3342 8.818 2.7874 17.4125 10.4303-9.5129.1729-17.5596 6.7346-24.6468 6.7454-5.7436.009-11.5018-3.4593-15.3069-7.9129z"/><path d="m425.9471 405.7647c6.071 8.183 12.5105 2.2383 16.3973 6.2589 1.353 1.3993 1.7336 4.3888 2.2597 7.6858.5263 3.297 1.1989 6.9022 2.0981 9.0157 3.1354-4.8001 1.9677-8.778-.7783-12.1936 7.8695.562 8.8171 2.9853 8.6912 8.0426-.0687 2.7612 1.3042 4.008 2.6021 4.3537 2.1634.5763 4.9425-.8289 5.5703-3.0565.6822-2.4211.3982-6.1179-1.0177-9.7918-1.8111-4.6993-4.2215-7.8259-6.8684-8.2313-3.449-.5286-4.6034 1.6886-7.1784 1.508-2.0728-.1455-1.6504-2.9372-7.0833-3.7379-4.346-.6405-9.7457 2.1331-14.6926.1464z"/><path d="m326.2069 425.0677c-1.904-2.5969-3.4618-5.2804-4.674-8.5692-10.3577-11.8095-14.3887-23.5091-13.8931-41.5451-3.2677 3.0479-7.8528 6.0695-11.6454 8.5409-3.4243 2.2315-6.3427 4.337-8.0915 6.822-1.6201 2.3025-1.8307 4.8017-1.9519 7.5147-.3991 8.8965 1.8091 17.7653 5.1158 26.17 3.7639 9.5669 9.1453 15.2287 12.0278 24.8684l-.9001.2217c-1.9892-4.7564-8.5184-13.0153-12.972-18.031 2.6075 6.0299 4.1827 11.5846 3.1214 17.986-.3819 2.3034-.3702 2.3312-2.5338 2.9637-.8712.2547-1.7851.4857-2.7164.7074-1.4724-12.981-10.3069-24.3469-10.4739-37.442-.0775-6.0799.8068-9.88 2.5612-12.9193 1.8104-3.1359 4.8692-5.4643 3.5555-8.6551-.713-1.7315-2.6757-2.2488-4.7894-1.9729-2.7178.3546-5.8557 1.8513-8.7014 1.9729 3.2861 1.2972 6.3129 1.5566 9.5992 1.4269-4.0055 3.137-5.5015 4.5895-6.5811 9.2648-.9977 4.3203.1869 11.8502.3146 17.4091.1175 5.1255-2.0816 9.3274-1.4107 13.7833.3049 2.0253 1.3067 4.4127 3.2069 6.42 3.2258 3.4073 8.7337 7.015 11.6447 10.9631-1.8147.4177-3.6602.8208-5.3583 1.3119-3.5458-4.151-7.2643-8.3886-12.1936-13.2314 1.4603 4.9725 3.0396 10.3342 4.151 15.3069-1.7298.6052-3.589.8215-5.3185 1.4269-2.5786-5.956-5.7407-12.6935-5.9194-20.0731-.2746-11.3409 3.8084-19.2331 6.114-27.812 1.2755-4.7454 1.1573-9.9981-.5838-13.2128-2.9523 12.0185-7.9339 24.7518-10.5457 32.9748-2.0258 6.3775-3.7189 10.9952-.5873 17.2857 1.9202 3.8574 4.6601 7.6957 5.1659 13.3021-7.2645 2.3345-12.0644 7.8261-13.88 13.3611 3.2905-3.8201 10.1855-7.7391 17.641-8.9786 8.1891-1.3616 16.7512-.1035 28.0355-3.0127 17.1465-4.4209 35.9016-17.378 48.5-26.6651-4.6489.1514-6.0322-1.2753-7.7832-3.243l-4.2807.6486-.1297 5.8374-.9081-1.427c-1.8961.3237-4.8405.3002-6.547-.5841-4.3612-2.2597-5.1506-7.4022-11.3543-5.2532 2.6376 4.4968 6.2697 8.0426 10.637 11.1559l-1.2972 2.7241-15.0084 3.6961c.3598-2.8256.464-5.74-.7399-9.265-2.9379-8.6015-8.7007-13.3313-11.1604-21.5575-2.1702-7.2582-1.511-17.2082 2.2491-24.5547 1.9481 6.4602 4.9341 13.536 8.8277 18.306-2.2289-6.2053-3.9106-11.9075-3.4644-16.6615.4189-4.466 2.5345-8.4559 5.4129-11.6422.0981 9.0932.9885 20.109 4.4098 26.5923 3.7578 7.1213 9.0856 10.4522 16.1036 15.3438z"/><path d="m253.6303 401.4379c3.4498 4.4758 3.0452 9.0474 2.374 12.47-1.4766 7.5301-8.3827 14.5867-9.2851 22.8036-.5858 5.3348 3.5015 9.7516 4.3144 16.1404-10.5005.9751-9.9136-11.8337-7.5468-18.6469 1.1271-3.245 2.6371-6.1748 4.2306-10.051 2.9483-7.1708 6.1847-15.6484 5.9129-22.7161z"/><path d="m248.1014 405.1161c1.1546 12.137-13.5905 22.1704-15.3013 33.15-1.3232 8.4923 7.9088 14.4594 2.6891 24.3021-1.1162 2.1047-2.8087 3.8588-4.5101 5.5517-4.3486 4.3271-10.0637 8.2591-17.2534 16.6441h-4.67c3.7404-5.7944 10.7455-13.7939 19.1986-20.8848-7.15-10.7731-4.6024-22.979 3.1349-36.4865 2.9415-5.135 6.1405-10.8235 9.9152-15.8715 1.7537-2.3451 4.0216-3.8642 6.797-6.4051z"/><path d="m232.7944 413.029c-16.6276 21.9378-17.4149 30.6889-16.5993 38.9225.3001 3.0315 2.0829 7.2659 1.4707 9.9701-1.4366 6.3466-6.5183 9.6424-3.551 17.5239-3.914-2.4938-4.7854-5.5076-4.4532-8.7479.3078-3.0005.7345-4.9506 1.1438-6.3895 1.1279-3.9664 1.2328-6.2686.7487-10.2865-.4902-4.0636-.9571-8.5563-.2931-12.0651 1.7284-9.1332 9.2966-20.3228 21.5334-28.9275z"/><path d="m217.3578 484.764c9.1507-4.9402 15.0635-10.3665 20.7552-18.031l.1297 2.335c4.4276-2.1825 8.0275-5.4682 9.3398-11.8045 2.1621 2.3781 5.1022 3.2432 8.3021 2.8538-8.6425 5.3707-14.1585 11.4452-11.5451 20.4957-3.0484-2.0215-7.502-1.0918-14.0097 4.151z"/><path d="m204.6453 451.2964c-.9273 8.3092-1.6979 11.9493-.5462 19.6651 1.23 8.2427 2.9916 9.183 4.0486 13.8025h-4.6071c-.9785-7.9965-4.6577-12.9661-4.5643-16.4662.1548-5.8004 3.3501-10.383 5.669-17.0014z"/><path d="m197.4104 484.764h-3.8559c-1.0981-2.3747-2.6168-3.0748-3.5838-4.7661-.5801-1.0143-.3892-1.7992-1.4107-2.9513-.8565 2.9253-2.1483 5.6394-3.3727 7.7174h-1.1028c1.3006-4.5655 2.2619-8.6015 2.6097-12.7086 1.8783-22.1826 4.4672-32.8867 20.9346-47.8705-2.9121-17.2095-13.0951-26.8603-22.4718-32.1978-9.8162-5.5877-25.8354-6.4449-35.4408-1.7444-1.2215.5975-2.1643.2106-2.2868-.2324-1.5562-5.6303 10.3066-8.7364 18.5694-9.072 9.0736-.3683 18.1492 3.0098 25.9864 7.9168 9.7622 6.1122 17.7476 14.5975 23.0799 21.1687 1.8077 2.2278 1.9991 4.9212 1.2549 7.1563 2.8105-2.0322 5.7509-3.9348 8.5615-5.9671-6.9189 7.5025-12.0216 13.9887-12.7125 19.0688-6.7011 3.873-12.3374 8.4656-15.6965 14.2199-2.2249 3.8113-3.342 8.0961-3.5015 13.1509 3.7573-5.2157 1.3209-6.2032 2.776-8.9468 1.5492-2.9203 5.4329-3.2389 6.4336-8.0465.2314 2.7314-.1232 5.9678-4.0866 7.4582 1.5946 1.0832 2.3171 2.5917 2.294 3.9976-.0547 3.328-4.6993 7.1052-7.3495 11.5369-2.8988 4.8471-2.5053 8.8284-1.6694 12.8355.2868 1.3743.5964 2.0995 1.4385 2.7666 1.6074 1.2742 4.0954 2.815 4.6028 5.5099z"/><path d="m206.2774 279.9167 2.8425-13.3835h-30.2018l2.8425-13.2651h-18.5951l-12.4359 58.5088h18.5949l6.751-31.8602zm17.4105-32.5707 3.3164-15.7523h-59.3379l-3.3165 15.7523z"/><path d="m278.9023 311.7769 3.4347-16.2262h-36.4791c-1.4608 0-2.4872-.1777-3.0597-.5725-.5923-.3948-.8687-1.0264-.8488-1.9146 0-.296.0197-.5923.0789-.908.0395-.2961.0987-.6317.1579-.9872l8.4092-39.0847c.2172-1.1844.5133-2.0924.8884-2.744.3749-.671.908-1.125 1.6186-1.3817.7107-.2565 1.6976-.3948 2.9413-.3751h36.2424l3.3162-15.9892h-45.1253c-3.3361 0-6.1194.4935-8.3303 1.52-2.2109 1.0068-3.9678 2.5465-5.2903 4.619-1.3225 2.0728-2.3094 4.6783-2.9609 7.8368l-11.0149 52.2316c-.2368 1.0068-.3948 1.9345-.4737 2.7833-.0788.8489-.1184 1.6581-.1184 2.4281-.0197 1.974.3749 3.6123 1.1252 4.8954.7698 1.3029 1.9738 2.2701 3.6322 2.9018 1.6581.6513 3.8294.9672 6.4943.9672z"/><path d="m329.8528 311.7769 43.3487-80.1832h-17.8843l-30.4387 58.509-4.5007-58.509h-18.5951l7.8171 80.1832z"/><path d="m416.6904 311.7769c3.3359 0 6.1192-.4935 8.3301-1.5001 2.2109-1.0068 3.9481-2.5268 5.2509-4.5402 1.3029-2.0136 2.2701-4.5402 2.8819-7.5802l4.0269-19.0686c.0593-.4145.1185-.8292.158-1.224.0592-.4145.0789-.7896.0789-1.1449-.0197-1.4212-.3354-2.5661-1.0066-3.4545-.6515-.8881-1.5596-1.5593-2.7241-2.0133-1.1844-.4737-2.5268-.7897-4.0862-.9277 2.7834-.2568 5.093-1.1845 6.8892-2.7637 1.7964-1.5792 3.0597-4.027 3.7702-7.3039l3.198-15.0416c.1777-.8884.3158-1.7173.4342-2.5069.0987-.7896.1579-1.52.1579-2.2308.0199-2.9609-.8881-5.1915-2.7437-6.672-1.8557-1.4804-4.7969-2.2108-8.8632-2.2108h-51.0472l-3.198 15.5155h42.9935c1.3028-.0197 2.2305.1579 2.8228.5331.5725.3749.8685 1.0264.8489 1.9541 0 .5921-.1187 1.3029-.3555 2.1318l-2.0134 9.7121c-.1776.908-.454 1.6187-.8292 2.1715-.3552.5329-.8685.9078-1.5397 1.1449-.6908.2368-1.5988.3553-2.7241.3553h-25.1091l2.7241-12.9099h-18.0025l-12.5546 59.5748zm0-20.3714c-.2567 1.2434-.5923 2.2107-.9871 2.8819-.4145.6712-.9673 1.1252-1.6975 1.3819-.7107.2565-1.6779.3749-2.882.3553h-25.346l4.1454-19.5425h25.3459c1.3621-.0197 2.349.1381 2.9807.4936.6316.3356.9279 1.0065.9279 1.9937 0 .2368-.0199.5329-.0791.8488-.0396.3356-.0988.6909-.158 1.0461z"/><path d="m192.5601 524.4452 15.5901-28.8371h-6.432l-10.9471 21.0421-1.6185-21.0421h-6.6876l2.8114 28.8371z"/><path d="m210.9057 524.4452 4.5578-21.5532h-5.9635l-4.5575 21.5532zm5.154-24.1089 1.3632-6.4745h-6.006l-1.3629 6.4745z"/><path d="m221.3712 524.4452 6.4745-30.5834h-5.9633l-6.4745 30.5834z"/><path d="m232.1608 524.4452 6.4744-30.5834h-5.9632l-6.4745 30.5834z"/><path d="m257.6624 524.4452 1.0222-4.8984h-14.525c-.355.007-.6104-.0355-.7596-.1279-.1491-.0922-.2271-.2626-.2201-.5112 0-.085.007-.1774.0285-.2839.014-.1064.0355-.2271.0567-.355l2.0021-9.2858c.0637-.3123.1489-.5537.2414-.7241.0922-.1774.2341-.2981.4117-.369.1774-.071.433-.1065.7523-.0995h8.5618c.3338 0 .5679.0425.7028.1349.1349.0995.1989.2484.1917.4615 0 .0852 0 .1704-.007.2626 0 .0852-.0142.1847-.0354.2911l-.6389 2.8965h-8.6897l-.724 3.578h14.3546l1.7891-8.4766c.0638-.2981.1065-.5749.1347-.8375.0215-.2556.0355-.5042.0355-.7383.007-.8308-.2199-1.4484-.6956-1.8602-.4757-.4045-1.2495-.6104-2.3286-.6104h-14.5675c-1.0294 0-1.8742.149-2.5415.4473-.6674.3051-1.1928.7665-1.5761 1.3914-.3833.6176-.6743 1.4127-.866 2.3781l-2.7688 13.1193c-.0638.3196-.1135.6177-.1562.8945-.0355.2771-.0567.5325-.0567.7668-.007.8732.2556 1.5121.795 1.9311.5397.4188 1.4057.6247 2.6125.6247h17.4642z"/><path d="m268.3277 524.4452 3.5779-16.8677h5.3244l.9797-4.6855h-5.3244l.6816-3.2798c.0782-.4048.2201-.6888.4187-.859.1919-.1704.483-.2556.859-.2486h4.4727l.9796-4.6428h-7.4116c-.9227-.007-1.7108.149-2.3781.4755-.6604.3266-1.2141.852-1.6613 1.5761s-.8023 1.6897-1.0719 2.8893l-5.4098 25.6425z"/><path d="m282.5711 524.4452 3.1946-15.2066c.0995-.4615.2626-.7738.4828-.9512.2271-.1704.5466-.2486.9654-.2414h8.6042l1.1076-5.154h-6.2616c-.9299-.007-1.7322.1844-2.4136.5607-.6746.3835-1.278.9727-1.8032 1.782l.511-2.3427h-5.7929l-4.5576 21.5532z"/><path d="m317.6268 524.4452 3.6634-17.3364c.0639-.3193.1134-.6176.1561-.8945.0355-.2768.0568-.5324.0568-.7667.007-.582-.1065-1.0649-.3336-1.441-.2271-.3763-.5892-.6533-1.0934-.8377-.4969-.1847-1.1643-.2769-1.9806-.2769h-17.6344l-.9797 4.6855h14.6102c.3761 0 .6459.0638.8021.1844.1491.128.2273.3054.2201.5397 0 .0637 0 .1349-.007.2201 0 .078-.0142.1632-.0355.2484l-2.2577 10.5636h-9.9671c-.2911.007-.5042-.0355-.6249-.1135-.1277-.0852-.1846-.2273-.1846-.4402 0-.0852.007-.1704.0284-.2626.0143-.0995.0355-.2059.0568-.3338l.4687-2.2575c.0779-.4402.1986-.7313.3763-.8874.1774-.1562.4612-.2271.8589-.2201h7.8375l.7668-3.6632h-10.9471c-.9015-.007-1.6398.1065-2.2077.3551-.5752.2413-1.0294.6601-1.3775 1.2635-.3405.6034-.6246 1.4412-.8447 2.5133l-1.0649 5.1112c-.064.2984-.1134.5822-.1562.852-.0354.2699-.0567.5112-.0567.7241-.007.8305.2341 1.4482.7171 1.8599.4897.4048 1.2707.6107 2.3496.6107z"/><path d="m344.6915 524.4452 3.6633-17.3364c.0637-.2981.1064-.5821.1347-.859.0215-.2698.0355-.5252.0355-.7595.007-.93-.2626-1.5973-.7951-2.0021-.5394-.4045-1.3842-.6034-2.5272-.5962h-9.6691c-.9087-.007-1.711.1844-2.3926.5607-.6886.3835-1.299.9727-1.8244 1.782l.5111-2.3427h-5.7503l-4.5576 21.5532h5.9632l3.1947-15.2066c.0994-.4615.2556-.7738.4614-.9512.2129-.1704.5253-.2486.9442-.2414h8.9023c.3621-.007.6319.0425.8023.1489.1774.0995.2626.2771.2626.5327 0 .0637-.007.1347-.0282.2199-.0143.0852-.0355.1846-.057.2911l-3.1946 15.2066z"/><path d="m368.1059 524.4452 1.1073-5.3671h-12.1396c-.3548 0-.6104-.0425-.7596-.142-.1491-.0994-.2271-.2626-.2201-.4969 0-.0852.007-.1704.0285-.2626.0142-.0852.0355-.1847.0567-.2911l1.8317-8.6042c.0639-.3123.1491-.5467.2484-.7171.0994-.1634.2415-.2841.4259-.3408.1777-.0639.426-.0994.7314-.0922h12.1396l1.1074-5.2392h-15.2064c-1.0152 0-1.8529.149-2.5133.4473-.6601.3051-1.1783.7665-1.5618 1.3914-.3833.6176-.6744 1.4127-.866 2.3781l-2.7686 13.1193c-.064.3196-.1137.6177-.1562.8945-.0355.2771-.0569.5325-.0569.7668-.007.8732.2556 1.5121.788 1.9311.5324.4188 1.3914.6247 2.577.6247z"/><path d="m394.8724 524.4452 3.6631-17.3364c.064-.2981.1065-.5821.1349-.859.0213-.2698.0355-.5252.0355-.7595.007-.93-.2626-1.5973-.795-2.0021-.5397-.4045-1.3844-.6034-2.5275-.5962h-9.456c-.9087-.007-1.704.1844-2.3783.5607-.6816.3835-1.292.9727-1.8387 1.782l2.4278-11.3729h-5.9632l-6.4745 30.5834h5.9633l3.1946-15.2066c.0994-.4615.2556-.7738.4615-.9512.2131-.1704.5254-.2486.9442-.2414h8.9025c.362-.007.6319.0425.8023.1489.1774.0995.2626.2771.2626.5327 0 .0637-.007.1347-.0285.2199-.0142.0852-.0355.1846-.0567.2911l-3.1947 15.2066z"/><path d="m420.3314 524.4452 1.0221-4.8984h-14.5249c-.3551.007-.6105-.0355-.7596-.1279-.1492-.0922-.2271-.2626-.2201-.5112 0-.085.007-.1774.0285-.2839.014-.1064.0354-.2271.0567-.355l2.002-9.2858c.0638-.3123.149-.5537.2414-.7241.0922-.1774.2341-.2981.4118-.369.1774-.071.433-.1065.7523-.0995h8.5617c.3338 0 .5679.0425.7029.1349.1349.0995.1988.2484.1916.4615 0 .0852 0 .1704-.007.2626 0 .0852-.0143.1847-.0355.2911l-.6389 2.8965h-8.6896l-.7241 3.578h14.3546l1.7892-8.4766c.0637-.2981.1064-.5749.1347-.8375.0214-.2556.0355-.5042.0355-.7383.007-.8308-.2199-1.4484-.6957-1.8602-.4757-.4045-1.2495-.6104-2.3286-.6104h-14.5675c-1.0293 0-1.8741.149-2.5415.4473-.6673.3051-1.1928.7665-1.576 1.3914-.3833.6176-.6744 1.4127-.866 2.3781l-2.7689 13.1193c-.0637.3196-.1134.6177-.1562.8945-.0354.2771-.0567.5325-.0567.7668-.007.8732.2556 1.5121.7951 1.9311.5396.4188 1.4056.6247 2.6124.6247z"/><path d="m211.0189 564.6535c1.1998 0 2.2008-.1774 2.996-.5394.7951-.3623 1.4197-.9087 1.8884-1.633.4685-.7241.8163-1.6328 1.0364-2.726l1.4482-6.8579c.0214-.149.0427-.2981.0569-.44.0213-.1492.0283-.2841.0283-.4118-.007-.5112-.1207-.9229-.3621-1.2425-.2343-.3193-.5609-.5607-.9796-.7241-.426-.1704-.9088-.2838-1.4697-.3335 1.0012-.0925 1.8317-.426 2.4778-.994.6459-.5679 1.1004-1.4483 1.356-2.6267l1.15-5.4096c.0638-.3195.1135-.6176.1562-.9017.0355-.2838.0567-.5466.0567-.8022.007-1.0649-.3193-1.867-.9867-2.3994-.6673-.5324-1.7252-.7953-3.1876-.7953h-18.3585l-1.1501 5.58h15.462c.4687-.007.8023.057 1.0152.1919.2058.1347.3125.369.3053.7026 0 .2131-.0425.4687-.1277.7668l-.7241 3.4929c-.0639.3266-.1634.582-.2983.7808-.1277.1917-.3123.3266-.5537.4118-.2483.0852-.5749.1277-.9797.1277h-9.0302l.9797-4.6428h-6.4745l-4.5151 21.4254zm0-7.3264c-.0922.4472-.2128.7952-.355 1.0366-.1489.2414-.3478.4045-.6104.497-.2556.0922-.6034.1347-1.0366.1276h-9.1152l1.4906-7.0281h9.1154c.49-.007.8448.0497 1.0722.1774.2271.1207.3335.362.3335.7171 0 .0852-.007.1916-.0282.3053-.0143.1207-.0357.2484-.057.3761z"/><path d="m241.3338 564.6535 1.0222-4.8984h-14.525c-.3551.007-.6104-.0354-.7596-.1279-.1491-.0922-.2271-.2626-.2201-.5112 0-.0849.007-.1774.0285-.2838.014-.1065.0355-.2271.0567-.355l2.0021-9.2859c.0637-.3123.1489-.5536.2413-.724.0922-.1774.2342-.2981.4118-.3691.1774-.0709.433-.1064.7523-.0994h8.5617c.3338 0 .568.0425.7029.1349.1349.0994.1988.2484.1916.4615 0 .0852 0 .1704-.007.2626 0 .0852-.0142.1846-.0355.2911l-.6389 2.8965h-8.6896l-.7241 3.5779h14.3546l1.7892-8.4765c.0637-.2981.1064-.5749.1347-.8375.0215-.2556.0355-.5042.0355-.7384.007-.8307-.2199-1.4483-.6956-1.8601-.4757-.4045-1.2495-.6104-2.3287-.6104h-14.5674c-1.0294 0-1.8742.1489-2.5415.4472-.6674.3051-1.1928.7666-1.5761 1.3915-.3833.6176-.6744 1.4126-.866 2.3781l-2.7689 13.1193c-.0637.3196-.1134.6176-.1561.8945-.0355.2771-.0568.5324-.0568.7668-.007.8732.2556 1.5121.7951 1.9311.5396.4187 1.4057.6246 2.6125.6246z"/><path d="m268.4407 564.6535 3.6633-17.3363c.064-.3193.1135-.6176.1562-.8945.0355-.2768.0567-.5324.0567-.7668.007-.5819-.1064-1.0649-.3335-1.4409-.2272-.3763-.5892-.6534-1.0934-.8378-.497-.1846-1.1643-.2768-1.9806-.2768h-17.6344l-.9797 4.6855h14.6102c.376 0 .6459.0637.802.1844.1492.1279.2274.3053.2202.5397 0 .0637 0 .1349-.007.2201 0 .078-.0143.1632-.0355.2484l-2.2577 10.5635h-9.9672c-.291.007-.5042-.0355-.6248-.1134-.1277-.0852-.1847-.2274-.1847-.4403 0-.0852.007-.1704.0285-.2626.0142-.0994.0355-.2058.0567-.3337l.4687-2.2575c.078-.4402.1987-.7313.3763-.8875.1774-.1561.4613-.2271.859-.2201h7.8374l.7668-3.6631h-10.9471c-.9014-.007-1.6398.1065-2.2077.355-.5751.2414-1.0294.6602-1.3774 1.2636-.3406.6034-.6246 1.4411-.8448 2.5132l-1.0648 5.1113c-.064.2983-.1135.5822-.1562.852-.0355.2698-.0567.5112-.0567.7241-.007.8305.2341 1.4481.7171 1.8599.4897.4047 1.2707.6106 2.3496.6106z"/><path d="m295.2072 564.6535 4.5576-21.5531h-5.9632l-3.2374 15.2064c-.0992.4614-.2553.788-.4685.9726-.2128.1847-.5394.2699-.9796.2626h-8.5618c-.362.007-.6176-.0425-.7808-.1489-.1634-.0994-.2413-.2771-.2413-.5324 0-.064.007-.1492.0282-.2414.0143-.0994.0357-.2059.057-.3125l3.2371-15.2064h-5.9633l-3.6631 17.3361c-.0639.2983-.1137.5822-.1561.859-.0357.2698-.057.5254-.057.7598 0 .93.2769 1.5973.8378 2.0018.5536.4048 1.3984.6034 2.5272.5964h9.371c.9088.007 1.7038-.1774 2.3784-.5466.6743-.3621 1.2707-.9513 1.7959-1.7535l-.4684 2.3001z"/><path d="m300.2335 573.6837c1.0152 0 1.8457-.1491 2.4988-.4472.6532-.3053 1.1786-.7668 1.5619-1.3914.3835-.6177.6746-1.4127.8804-2.3784l5.6225-26.3663h-5.9633l-5.1542 24.3218c-.0779.3975-.2128.6886-.4115.859-.1989.1704-.5112.2556-.9514.2486h-4.8559l-1.1074 5.1539zm11.1173-33.1391 1.3632-6.4744h-6.006l-1.3632 6.4744z"/><path d="m328.9036 564.6535c1.0294 0 1.8742-.1491 2.5343-.4472.6604-.3053 1.1786-.7668 1.5618-1.3914.3906-.6177.6816-1.4127.8875-2.3784l2.7687-13.1193c.0639-.3193.1136-.6176.1561-.8945.0355-.2768.057-.5324.057-.7668.007-.5819-.1067-1.0649-.3338-1.4409-.2272-.3763-.5892-.6534-1.0932-.8378-.4969-.1846-1.1643-.2768-1.9808-.2768h-14.6527c-1.0151 0-1.8529.1489-2.5132.4472-.6601.3051-1.1783.7666-1.5619 1.3915-.3832.6176-.6743 1.4126-.866 2.3781l-2.7686 13.1193c-.0639.3196-.1137.6176-.1561.8945-.0355.2771-.057.5324-.057.7668-.007.8732.2556 1.5121.788 1.9311.5325.4187 1.3915.6246 2.577.6246zm-.5112-6.4319c-.0782.4189-.2343.717-.4684.8944-.2344.1777-.6034.2629-1.1076.2556h-8.4339c-.3337 0-.5751-.0425-.724-.1349-.1422-.0992-.2131-.2484-.2131-.4612 0-.0852.007-.1704.0284-.2629.0143-.0852.0355-.1844.0568-.291l1.8316-8.7747c.0782-.4614.2129-.7738.4118-.9512.1989-.1704.5112-.2486.9512-.2413h8.434c.4046-.007.6956.0425.8803.1489.1846.0994.2698.2771.2698.5327 0 .0637-.007.1347-.0285.2199-.0142.0852-.0355.1846-.0567.291z"/><path d="m343.1172 564.6535 6.4745-30.5833h-5.9633l-6.4745 30.5833z"/><path d="m370.0799 564.6535 3.6634-17.3363c.0639-.3193.1134-.6176.1561-.8945.0355-.2768.0567-.5324.0567-.7668.007-.5819-.1064-1.0649-.3335-1.4409-.2272-.3763-.5892-.6534-1.0934-.8378-.4969-.1846-1.1643-.2768-1.9806-.2768h-17.6344l-.9797 4.6855h14.6102c.3761 0 .6459.0637.8021.1844.1491.1279.2273.3053.2201.5397 0 .0637 0 .1349-.007.2201 0 .078-.0143.1632-.0355.2484l-2.2577 10.5635h-9.9671c-.2911.007-.5042-.0355-.6249-.1134-.1277-.0852-.1847-.2274-.1847-.4403 0-.0852.007-.1704.0285-.2626.0143-.0994.0355-.2058.0567-.3337l.4688-2.2575c.0779-.4402.1986-.7313.3762-.8875.1774-.1561.4613-.2271.859-.2201h7.8375l.7667-3.6631h-10.947c-.9015-.007-1.6398.1065-2.2078.355-.5751.2414-1.0294.6602-1.3774 1.2636-.3405.6034-.6246 1.4411-.8447 2.5132l-1.0649 5.1113c-.064.2983-.1135.5822-.1562.852-.0355.2698-.0567.5112-.0567.7241-.007.8305.2341 1.4481.7171 1.8599.4897.4047 1.2707.6106 2.3496.6106z"/><path d="m380.375 564.6535 4.5578-21.5531h-5.9635l-4.5576 21.5531zm5.154-24.1089 1.3632-6.4744h-6.006l-1.363 6.4744z"/><path d="m402.7672 564.6535c.9867 0 1.8032-.1349 2.4493-.4047.6459-.2696 1.1571-.6814 1.5334-1.2353.3763-.5537.6531-1.2565.8305-2.1083l1.278-5.9635c.0213-.1489.0425-.2981.0567-.44.0213-.1491.0285-.2841.0285-.4117.007-.6674-.2201-1.1928-.6673-1.5831-.4545-.3835-1.1714-.5822-2.144-.5894h-11.6712c-.3193 0-.5467-.0567-.6886-.1632-.1419-.1136-.2059-.284-.2059-.5184 0-.0637 0-.1277.007-.1916 0-.0638.014-.1277.0354-.1917l.3833-1.7889c.078-.4188.2201-.7171.433-.8945.2059-.1774.5325-.2626.9727-.2556h14.6954l1.0222-4.8132h-17.8049c-.9866 0-1.8032.1347-2.449.4045-.6462.2699-1.1501.6816-1.5194 1.2353-.369.5537-.6389 1.2565-.8023 2.1085l-1.1925 5.7504c-.0427.1704-.071.3336-.0925.4827-.0212.1562-.0354.3053-.0354.4543-.007.6673.2201 1.1857.6673 1.5618.4473.3693 1.1501.5609 2.1015.5681h11.5433c.3123 0 .5394.0425.6673.1347.1277.0852.1917.2274.1847.419 0 .0425 0 .0922-.007.1562 0 .0567-.0142.1207-.0355.1846l-.4684 2.1298c-.0498.2696-.1207.4755-.2059.6246-.0852.1492-.2131.2556-.3833.3123-.1634.057-.3977.0852-.6888.0852h-14.7804l-1.0224 4.9411z"/><path d="m472.5092 249.3427c9.0239 0 16.342 7.318 16.342 16.3419s-7.3181 16.342-16.342 16.342-16.342-7.3181-16.342-16.342 7.3181-16.3419 16.342-16.3419zm.294 15.2212-4.1632 5.2593-5.2265-.6716-2.4168-5.8833 3.3368-5.1843 6.4102.4988zm-.294-14.3173c4.1924 0 7.9945 1.673 10.7767 4.3865l-1.9594.9976-6.4396-2.1185-3.2112-2.5754.281-.6793c.1835-.007.3674-.0109.5525-.0109zm15.3806 14.1103c.0373.4378.0574.8805.0574 1.3277 0 1.1969-.1365 2.3619-.3944 3.4805l.3045-4.7698zm-7.4668 14.584c-1.7173 1.0274-3.6504 1.7306-5.7156 2.0251l-3.0952-2.0253 1.5944-3.2252 7.0663-2.0746 2.1574 1.5519zm-15.7311.0572c-2.8502-1.6776-5.1151-4.2439-6.4125-7.3179l2.2847 2.2902 4.1337 4.8781-.006.1496zm-7.4966-15.2794c.5796-4.5583 3.1483-8.4959 6.8078-10.9172l.3778.2612-.4804 4.4417-3.6464 5.6649zm7.4324-11.3096c1.9553-1.1636 4.1888-1.9071 6.5768-2.1071l-.1905.461-6.0168 1.9017zm6.3287 26.3275 1.6009-3.2378-4.0027-5.0028-5.2338-.6728-2.0882 3.8878 3.9831 4.6999zm9.7245-5.6376 2.1394 1.539 3.9425-3.7325.4104-6.4338-2.9919-2.0687-3.5009 3.8475zm-.3722-7.4474 3.452-3.7937-2.6812-5.5947-5.6306-1.8524-4.0751 3.9189 2.0547 5.9673z"/><path d="m127.4187 249.3427c-9.0239 0-16.342 7.318-16.342 16.3419s7.3181 16.342 16.342 16.342c9.0238 0 16.3419-7.3181 16.3419-16.342s-7.3181-16.3419-16.3419-16.3419zm-.294 15.2212 4.1632 5.2593 5.2265-.6716 2.4168-5.8833-3.3368-5.1843-6.4103.4988zm.294-14.3173c-4.1924 0-7.9945 1.673-10.7767 4.3865l1.9593.9976 6.4397-2.1185 3.2111-2.5754-.2809-.6793c-.1835-.007-.3674-.0109-.5525-.0109zm-15.3806 14.1103c-.0373.4378-.0574.8805-.0574 1.3277 0 1.1969.1365 2.3619.3943 3.4805l-.3044-4.7698zm7.4668 14.584c1.7173 1.0274 3.6504 1.7306 5.7155 2.0251l3.0952-2.0253-1.5943-3.2252-7.0664-2.0746-2.1573 1.5519zm15.7311.0572c2.8502-1.6776 5.1151-4.2439 6.4125-7.3179l-2.2848 2.2902-4.1336 4.8781.006.1496zm7.4966-15.2794c-.5797-4.5583-3.1483-8.4959-6.8078-10.9172l-.3779.2612.4805 4.4417 3.6464 5.6649zm-7.4324-11.3096c-1.9553-1.1636-4.1888-1.9071-6.5769-2.1071l.1905.461 6.0169 1.9017zm-6.3287 26.3275-1.601-3.2378 4.0028-5.0028 5.2338-.6728 2.0881 3.8878-3.9831 4.6999zm-9.7245-5.6376-2.1395 1.539-3.9424-3.7325-.4104-6.4338 2.9919-2.0687 3.5009 3.8475zm.3722-7.4474-3.452-3.7937 2.6812-5.5947 5.6306-1.8524 4.0751 3.9189-2.0548 5.9673z"/></g></g></svg>