<?xml version="1.0" encoding="UTF-8" standalone="no"?>
<!-- Created with Inkscape (http://www.inkscape.org/) -->
<svg
   xmlns:svg="http://www.w3.org/2000/svg"
   xmlns="http://www.w3.org/2000/svg"
   version="1.0"
   width="350"
   height="350"
   id="svg28856">
  <defs
     id="defs28858" />
  <g
     transform="translate(-196.42853,-160.21933)"
     id="layer1">
    <g
       transform="matrix(9.1271922e-2,0,0,9.1271922e-2,274.72951,469.27512)"
       id="g28851"
       style="fill-rule:evenodd">
      <path
         d="M 7669.39,6892.4297 A 1917.3475,1917.3475 0 1 1 3834.6949,6892.4297 A 1917.3475,1917.3475 0 1 1 7669.39,6892.4297 z"
         transform="translate(-4692.5818,-8361.1814)"
         id="path28837"
         style="opacity:1;fill:#000000;fill-opacity:1;fill-rule:nonzero;stroke:none;stroke-width:3;stroke-linecap:round;stroke-linejoin:round;stroke-miterlimit:4;stroke-dasharray:none;stroke-opacity:1" />
      <path
         d="M 7385.3386,6935.0376 A 1619.0935,1619.0935 0 1 1 4147.1516,6935.0376 A 1619.0935,1619.0935 0 1 1 7385.3386,6935.0376 z"
         transform="translate(-4706.7844,-8403.7894)"
         id="path28839"
         style="opacity:1;fill:none;fill-opacity:1;fill-rule:nonzero;stroke:#008e39;stroke-width:133.33334351;stroke-linecap:round;stroke-linejoin:round;stroke-miterlimit:4;stroke-dasharray:none;stroke-opacity:1" />
      <path
         d="M 1509.0674,-2768.9175 C 1407.5294,-2765.6173 1332.1144,-2678.74 1281.8074,-2609.2468 C 1218.6864,-2494.6703 1210.5704,-2432.2753 1184.7754,-2342.5828 C 1124.7764,-2000.1834 1151.5154,-1802.4036 1187.9884,-1620.7841 C 1247.9894,-1455.5547 1274.7534,-1264.4746 1503.0204,-1230.1195 C 1623.2264,-1239.6496 1691.8664,-1295.5894 1747.3074,-1363.4079 L 1743.8414,-1720.7255 L 1682.9744,-1715.8898 C 1677.1324,-1559.7277 1653.1744,-1528.9198 1619.8094,-1460.3761 C 1519.6724,-1349.7949 1454.7554,-1405.2558 1400.0044,-1508.6387 C 1320.5054,-1718.6638 1323.3644,-1870.8583 1330.6364,-2129.6028 C 1337.9084,-2388.3472 1391.9434,-2641.8614 1523.5134,-2615.8386 C 1638.8014,-2588.7556 1664.2724,-2444.507 1673.9814,-2327.4989 L 1725.6994,-2331.7798 L 1724.2724,-2670.2609 C 1662.4614,-2733.4798 1610.6054,-2772.2177 1509.0674,-2768.9175 z M 454.26142,-2448.4917 L 454.26142,-2277.6271 C 559.68942,-2233.637 565.69042,-2181.7517 573.33142,-2111.0981 L 563.80642,-1403.8018 C 569.23442,-1344.3874 530.07342,-1321.3143 498.89842,-1292.4029 L 593.71642,-1212.3912 L 796.31742,-1306.2986 L 804.49842,-1375.7818 C 754.49342,-1390.0763 749.84642,-1397.0018 730.89342,-1459.0396 L 728.72842,-1725.7883 C 726.69042,-1846.4664 850.81442,-1944.7967 1025.2484,-1920.033 L 1025.2484,-2098.0931 L 949.34942,-2098.0931 C 883.61442,-2002.6058 715.14842,-1880.838 724.43142,-2015.1723 L 724.43142,-2446.8952 C 787.31342,-2494.6952 887.10542,-2583.9571 919.55742,-2589.1542 C 941.13642,-2608.5693 1010.8064,-2597.0373 1084.5374,-2564.3004 L 955.91942,-2833.761 L 454.26142,-2448.4917 z M 2149.0224,-1973.0228 C 2138.3214,-1892.3365 2120.7694,-1832.202 2103.7494,-1770.4708 L 2045.0574,-1617.5787 L 1579.8014,-507.70958 C 1526.6574,-431.17108 1502.1614,-476.38668 1474.1234,-506.54808 L 1101.2694,-1287.8936 L 979.73242,-1288.7446 L 727.82042,-616.36648 C 684.80442,-559.32418 657.07642,-578.84008 619.45342,-618.81558 L 140.75742,-1658.3802 C 91.993425,-1765.7612 79.225425,-1843.623 61.026425,-1932.6802 L -233.05058,-1689.3675 C -179.32858,-1645.6361 -129.31158,-1638.9545 -69.724575,-1536.5671 L 551.85542,-103.74238 L 628.29142,-103.74238 L 940.84342,-896.56248 C 962.51342,-930.44478 984.18342,-921.44738 1005.8534,-896.85298 L 1400.6324,-103.74238 L 1497.4184,-103.74238 L 2177.8864,-1619.6974 C 2235.9144,-1734.1239 2293.9424,-1765.1659 2351.9704,-1782.8542 L 2149.0224,-1973.0228 z"
         id="path28818"
         style="fill:#008e39;fill-opacity:1;stroke:none;stroke-width:22.22222328;stroke-miterlimit:4;stroke-dasharray:none;stroke-opacity:1" />
    </g>
  </g>
</svg>
