<?xml version="1.0" encoding="UTF-8"?>
<svg id="svg138" width="840" height="1292.683" version="1.1" xml:space="preserve" xmlns="http://www.w3.org/2000/svg"><g id="g723" transform="translate(-80)"><g id="g458" transform="matrix(.84 0 0 .84 80 0)"><path id="path132" d="m0 0h1e3v750h-1e3z" fill="#3a75c4"/><path id="path134" d="m0 0h1e3v500h-1e3z" fill="#fcd116"/><path id="path136" d="m0 0h1e3v250h-1e3z" fill="#009e60"/></g><g id="text403" aria-label="GABON"><path id="path756" d="m294.4538 796.1075h-47.35993v14.93331h29.01329v42.87993c-4.26666 2.13333-12.58665 3.84-24.74663 3.84-33.70661 0-55.46658-21.54664-55.46658-58.02658 0-36.05327 22.82664-57.81324 57.81325-57.81324 14.50664 0 24.10662 2.56 31.78661 6.18666l4.69333-15.14664c-6.18666-2.98667-19.4133-6.61333-36.05328-6.61333-48.21325 0-77.86654 31.35995-77.86654 74.23988 0 22.39997 7.67999 41.59994 20.0533 53.54658 14.07998 13.43998 31.99995 18.98664 53.75991 18.98664 19.41331 0 36.05328-4.69332 44.37327-7.89332z"/><path id="path758" d="m396.8537 826.4008 15.35997 45.22659h19.83997l-49.06659-143.7864h-22.18663l-49.06659 143.7864h19.19997l14.93331-45.22659zm-47.1466-14.50665 14.07998-41.59993c2.98666-8.74665 5.11999-17.70664 7.25332-26.02663h0.42667c2.13333 8.31999 4.26666 16.85331 7.46665 26.23996l14.29331 41.3866z"/><path id="path760" d="m453.1735 871.2007c6.18666 0.85334 15.99998 1.70667 28.79996 1.70667 23.46663 0 39.67993-4.26666 49.49325-13.43998 7.46666-6.82666 12.37331-16.42664 12.37331-28.79995 0-21.3333-15.99997-32.63995-29.65328-35.83995v-0.64c14.93331-5.33332 24.31996-17.4933 24.31996-31.57328 0-11.30665-4.69333-19.83997-12.15998-25.38662-8.74665-7.25333-20.6933-10.45332-39.25327-10.45332-12.79998 0-25.81329 1.28-33.91995 3.19999zm18.55997-128.8531c2.98666-0.64 7.89332-1.28 16.42664-1.28 18.77331 0 31.35995 6.82665 31.35995 23.46663 0 13.86664-11.51998 24.31996-30.93328 24.31996h-16.85331zm0 60.37323h15.35998c20.26663 0 37.11994 8.31999 37.11994 27.73329 0 20.90664-17.70664 27.94662-36.90661 27.94662-6.61332 0-11.73331-0.21333-15.57331-0.85333z"/><path id="path762" d="m626.8265 725.281c-38.39994 0-66.55989 29.86662-66.55989 75.51988 0 43.51993 26.45329 73.17321 64.63989 73.17321 36.69328 0 66.77323-26.45329 66.77323-75.73321 0-42.87993-25.38663-72.95988-64.85323-72.95988zm-0.64 15.14664c30.93329 0 45.86659 29.86662 45.86659 58.66657 0 32.63995-16.63997 59.73324-46.07992 59.73324s-46.07993-27.51996-46.07993-58.45324c0-31.35995 15.35998-59.94657 46.29326-59.94657z"/><path id="path764" d="m733.2795 871.6274v-61.4399c0-23.8933-0.21333-41.17327-1.28-59.30657l0.64-0.21334c7.03999 15.57331 16.63997 31.99995 26.66662 47.99993l45.65326 72.95988h18.77331v-143.7864h-17.49331v60.15991c0 22.39996 0.42667 39.89327 2.13333 59.09324l-0.64 0.21333c-6.61332-14.71998-15.14664-29.86662-25.59996-46.71993l-45.86659-72.74655h-20.47997v143.7864z"/></g><g id="g480" transform="matrix(2.046784 0 0 2.046784 150 969.255)" fill="none" stroke="#000000" stroke-width="9.5"><circle id="circle464" cx="54" cy="54" r="49.25" stroke="#0081c8"/><circle id="circle466" cx="171" cy="54" r="49.25"/><circle id="circle468" cx="288" cy="54" r="49.25" stroke="#ee334e"/><circle id="circle470" cx="112.5" cy="104" r="49.25" stroke="#fcb131"/><circle id="circle472" cx="229.5" cy="104" r="49.25" stroke="#00a651"/><path id="path474" d="m93.4 24.45a49.25 49.25 0 0 1 0 59.1" stroke="#0081c8"/><path id="path476" d="m210.4 24.45a49.25 49.25 0 0 1 0 59.1m-39.4 19.7a49.25 49.25 0 0 1-29.55-9.85"/><path id="path478" d="m288 103.25a49.25 49.25 0 0 1-29.55-9.85" stroke="#ee334e"/></g></g></svg>
