<?xml version="1.0" encoding="UTF-8" standalone="no"?>
<!-- Generator: Adobe Illustrator 11.0, SVG Export Plug-In . SVG Version: 6.0.0 Build 78)  -->
<svg
   xmlns:dc="http://purl.org/dc/elements/1.1/"
   xmlns:cc="http://web.resource.org/cc/"
   xmlns:rdf="http://www.w3.org/1999/02/22-rdf-syntax-ns#"
   xmlns:svg="http://www.w3.org/2000/svg"
   xmlns="http://www.w3.org/2000/svg"
   xmlns:sodipodi="http://sodipodi.sourceforge.net/DTD/sodipodi-0.dtd"
   xmlns:inkscape="http://www.inkscape.org/namespaces/inkscape"
   width="240.3183594"
   height="224.1669922"
   viewBox="0 0 240.3183594 224.1669922"
   overflow="visible"
   enable-background="new 0 0 240.3183594 224.1669922"
   xml:space="preserve"
   id="svg2262"
   sodipodi:version="0.32"
   inkscape:version="0.45.1"
   sodipodi:docname="Germany_coat_arms_red.svg"
   inkscape:output_extension="org.inkscape.output.svg.inkscape"
   sodipodi:docbase="C:\Users\Fernando\Documents\+backup!\!!!!comiccovers!"><metadata
   id="metadata2284"><rdf:RDF><cc:Work
       rdf:about=""><dc:format>image/svg+xml</dc:format><dc:type
         rdf:resource="http://purl.org/dc/dcmitype/StillImage" /></cc:Work></rdf:RDF></metadata><defs
   id="defs2282">
		
	
			
			
			
			
			
			
			
		</defs><sodipodi:namedview
   inkscape:window-height="706"
   inkscape:window-width="1366"
   inkscape:pageshadow="2"
   inkscape:pageopacity="0.0"
   guidetolerance="10.0"
   gridtolerance="10.0"
   objecttolerance="10.0"
   borderopacity="1.0"
   bordercolor="#666666"
   pagecolor="#ffffff"
   id="base"
   inkscape:zoom="1.5667116"
   inkscape:cx="162.41807"
   inkscape:cy="84.999504"
   inkscape:window-x="-8"
   inkscape:window-y="-8"
   inkscape:current-layer="svg2262" />
	<g
   id="g4248"><path
     id="path2267"
     d="M 199.66211,145.9873 C 203.35547,151.44238 209.47461,159.50879 218.14453,166.14941 C 205.69336,166.14941 197.4375,166.44043 186.90234,149.78613 L 184.5332,145.9873 L 157.70703,103.05811 C 155.97852,103.72363 154.22461,104.34033 152.43945,104.9248 L 178.0957,145.9873 L 185.44141,157.73926 C 188.66406,162.87012 195.54688,173.02441 205.79883,180.88965 C 193.35547,180.88965 185.10156,181.17285 174.56641,164.51855 L 162.99023,145.9873 L 139.39648,108.22021 C 137.375,111.45898 136.70898,114.2998 136.70898,117.13184 C 136.70898,127.57129 140.74414,137.30176 146.91992,145.9873 C 151.20508,152.01074 156.53906,157.55371 162.24414,162.49707 C 161.35938,162.89355 159.80859,163.04004 158.36523,163.04004 C 155.5,163.04004 153.63281,162.87012 152.33398,162.65137 C 155.56445,169.97949 162.49609,179.45215 165.99414,184.3623 C 170.55664,183.54395 177.1875,182.90137 181.53711,182.90137 C 186.08398,182.90137 186.59375,185.55566 186.59375,187.92676 C 186.59375,192.05762 184.66211,195.37012 182.41406,197.2041 C 181.57813,195.05176 179.87305,192.25293 171.48047,192.25293 C 173.08789,195.02051 180.77539,201.2373 180.77539,206.24512 C 180.77539,209.55762 177.14648,214.52441 172.34961,214.52441 C 172.63477,213.4541 172.59375,212.46387 172.59375,211.7334 C 172.59375,207.69043 169.00586,202.9502 165.97852,199.63965 C 166.06641,200.62012 166.01953,200.52246 166.01953,201.65918 C 166.01953,211.24512 165.15039,215.64551 159.07031,215.64551 C 156.0918,215.64551 154.03125,214.0127 153.32422,213.53418 C 157.26953,209.88184 157.4707,207.03223 157.4707,201.65137 L 157.43945,197.00098 C 157.43164,195.78418 157.45508,194.15137 157.64258,192.96582 C 155.4668,192.66699 154.58984,192.6748 152.91016,192.6748 C 152.91016,192.6748 144.26562,191.98535 142.1875,196.48926 C 139.84961,194.33105 136.44141,191.30176 136.44141,187.94238 C 136.44141,185.73535 137.48828,183.22754 141.9375,183.22754 C 143.625,183.22754 148.92578,184.25684 153.36523,184.25684 C 152.17187,181.60254 146.85547,173.84473 142.26953,168.20996 C 141.57031,170.40137 140.49219,172.77246 138.08008,174.68848 C 137.74805,171.0752 135.62109,159.63184 129.95508,152.93457 C 129.29883,157.44824 128.40625,162.09082 128.40625,171.87988 C 128.40625,195.68652 134.13672,213.2666 146.28711,216.63574 C 144.70508,219.40332 141.35937,221.8623 137.89453,221.8623 C 133.44727,221.8623 131.02734,216.82129 128.55273,212.08887 C 127.26953,215.59668 123.71484,224.16699 120.15918,224.16699 C 116.59619,224.16699 113.04102,215.59668 111.7666,212.08887 C 109.29102,216.82129 106.87256,221.8623 102.42432,221.8623 C 98.950195,221.8623 95.606445,219.40332 94.023437,216.63574 C 106.18213,213.2666 111.9126,195.68652 111.9126,171.87988 C 111.9126,162.09082 111.02002,157.44824 110.3623,152.93457 C 104.69727,159.63184 102.57031,171.0752 102.24561,174.68848 C 99.834961,172.77246 98.747558,170.40137 98.049316,168.20996 C 93.455566,173.84473 88.155273,181.60254 86.953613,184.25684 C 91.394043,184.25684 96.693848,183.22754 98.382324,183.22754 C 102.83008,183.22754 103.87744,185.73535 103.87744,187.94238 C 103.87744,191.30176 100.46826,194.33105 98.122558,196.48926 C 96.052734,191.98535 87.408691,192.6748 87.408691,192.6748 C 85.728515,192.6748 84.851562,192.66699 82.676269,192.96582 C 82.863281,194.15137 82.895508,195.78418 82.879394,197.00098 L 82.84668,201.65137 C 82.84668,207.03223 83.041504,209.88184 87.002441,213.53418 C 86.280273,214.0127 84.226562,215.64551 81.248047,215.64551 C 75.168457,215.64551 74.291992,211.24512 74.291992,201.65918 C 74.291992,200.52246 74.251465,200.62012 74.34082,199.63965 C 71.312988,202.9502 67.725586,207.69043 67.725586,211.7334 C 67.725586,212.46387 67.685058,213.4541 67.96875,214.52441 C 63.180176,214.52441 59.543945,209.55762 59.543945,206.24512 C 59.543945,201.2373 67.230469,195.02051 69.68164,192.29395 C 60.444824,192.25293 58.740234,195.05176 57.895996,197.2041 C 55.655762,195.37012 53.724121,192.05762 53.724121,187.92676 C 53.724121,185.55566 54.227539,182.90137 58.772949,182.90137 C 63.123535,182.90137 69.762695,183.54395 74.324219,184.3623 C 77.822754,179.45215 84.746094,169.97949 87.984863,162.65137 C 86.686035,162.87012 84.819336,163.04004 81.945801,163.04004 C 80.509277,163.04004 78.958984,162.89355 78.065918,162.49707 C 83.780273,157.55371 89.112793,152.01074 93.398437,145.97168 C 99.567383,137.27051 103.60937,127.57129 103.60937,117.13184 C 103.60937,114.2998 102.93555,111.45898 101.97803,108.42285 L 77.327636,145.9873 L 65.752929,164.51855 C 55.217773,181.17285 46.96289,180.88965 34.512207,180.88965 C 44.771484,173.02441 51.654297,162.87012 54.876465,157.73926 L 62.222656,145.9873 L 87.879394,104.9248 C 86.09375,104.34033 84.332519,103.72363 82.611328,103.05811 L 55.785644,145.9873 L 53.407715,149.78613 C 42.880371,166.44043 34.625488,166.14941 22.182617,166.14941 C 30.834961,159.50879 36.96289,151.44238 40.648437,145.92285 L 42.53955,143.00098 L 70.898925,97.619629 C 69.283691,96.734863 67.709472,95.801758 66.191406,94.835938 L 42.953125,132.02637 C 38.059082,139.77051 33.651855,143.84473 29.089844,145.9873 C 23.838379,148.47168 18.375977,148.39746 11.720215,148.39746 L 14.682617,145.97949 C 23.375977,138.5127 29.130371,129.93262 32.084961,125.2334 L 55.915527,87.084473 C 54.51123,85.810059 53.180176,84.51123 51.922363,83.164062 L 35.03125,110.20068 C 24.503906,126.86426 16.249512,126.56348 3.7983398,126.56348 C 14.13916,118.62598 20.900391,108.60986 24.163086,103.39063 L 43.789551,71.995117 C 42.734375,70.047363 41.833008,68.050293 41.094727,66.004883 L 31.240723,81.791992 C 20.705566,98.455566 12.450684,98.155273 0,98.155273 C 10.299805,90.266113 17.125977,80.160645 20.372559,74.990723 L 39.617676,44.211914 C 41.484375,34.690918 46.411133,25.802734 53.764649,19.195801 C 51.297363,18.254394 49.23584,17.272461 47.993652,16.331055 C 60.566406,16.331055 73.009277,9.942871 79.868164,9.942871 C 84.275391,9.942871 87.116211,12.581055 87.116211,16.071289 C 86.815918,19.942871 82.830567,23.887207 75.452637,23.887207 C 73.780762,23.887207 71.645996,23.668457 69.300293,23.287109 C 65.306641,28.85498 62.076172,33.887207 62.076172,41.054199 C 62.076172,54.536621 78.204102,65.047363 94.470215,65.047363 L 97.188965,64.941894 C 100.41113,54.016601 107.27002,46.85791 112.74902,39.861328 C 106.18213,37.466797 98.853027,31.225098 98.853027,28.400391 C 99.681152,27.921875 112.27783,31.866699 113.57666,32.215332 C 115.94678,31.760742 117.229,29.528809 117.229,29.301269 C 115.88184,29.074219 107.98438,28.05957 102.59473,26.086914 C 98.487793,24.585449 96.409668,21.866211 96.409668,20.835449 C 97.73291,20.624512 102.7168,23.246582 110.06201,23.246582 C 112.77295,23.246582 113.29248,23.141113 115.9873,22.808105 C 114.09619,18.29541 110.54102,14.488281 106.53955,14.488281 C 104.93262,14.488281 101.40967,15.486816 98.47168,16.972168 C 96.417969,13.782226 94.624024,9.6020506 94.624024,7.3129881 C 94.624024,4.6020506 97.294434,1.444824 104.82715,1.444824 C 106.93701,1.444824 108.90137,1.6235349 110.72803,1.9643553 C 112.20459,2.248535 113.43897,2.5815428 114.76172,3.092285 C 114.59912,1.1040039 115.54883,0 119.07959,0 C 125.28125,0 131.63672,2.0454102 139.42773,2.0454102 C 141.44922,2.0454102 142.82031,1.9643555 143.98242,1.4692383 C 143.47852,3.0273438 141.28711,5.3081055 139.29102,7.1669922 C 140.53125,8.8554688 143.73828,12.937988 143.73828,19.537109 C 143.73828,30.145508 136.75781,38.89502 136.75781,49.609375 C 136.75781,55.980957 141.66016,61.605957 143.12891,64.941895 L 145.83984,65.047363 C 162.11523,65.047363 178.23437,54.536621 178.23437,41.054199 C 178.23437,33.887207 175.01172,28.85498 171.01758,23.287109 C 168.67187,23.668457 166.53906,23.887207 164.86523,23.887207 C 157.48828,23.887207 153.49414,19.942871 153.21094,16.071289 C 153.21094,12.581055 156.03516,9.9428711 160.45117,9.9428711 C 167.30859,9.9428711 179.75195,16.331055 192.32422,16.331055 C 191.07422,17.272461 189.02148,18.254394 186.54492,19.195801 C 193.9082,25.802734 198.83398,34.690918 200.70117,44.211914 L 219.94531,74.990723 C 223.18359,80.160645 230.01953,90.266113 240.31836,98.155274 C 227.86719,98.155274 219.61328,98.455567 209.08594,81.791992 L 199.2168,66.004883 C 198.48633,68.050293 197.57617,70.047363 196.5293,71.995117 L 216.14648,103.39063 C 219.41797,108.60986 226.17187,118.62598 236.51953,126.56348 C 224.06836,126.56348 215.81445,126.86426 205.28711,110.20068 L 188.38867,83.164063 C 187.13867,84.511231 185.79883,85.810059 184.39453,87.084473 L 208.23437,125.2334 C 211.1875,129.93262 216.94336,138.52051 225.63672,145.97949 L 228.59766,148.39746 C 221.94336,148.39746 216.48047,148.46191 211.22852,145.9873 C 206.6582,143.85254 202.25977,139.77051 197.36523,132.02637 L 174.12695,94.835938 C 172.60156,95.801758 171.03516,96.734863 169.41992,97.619629 L 197.7793,143.00098 L 199.66211,145.9873 L 199.66211,145.9873 z " /><path
     style="fill:#ff0000;fill-rule:evenodd"
     id="path2269"
     d="M 97.334961,165.71191 C 96.65332,163.21973 95.987793,161.39355 93.382324,161.39355 C 92.05127,161.39355 91.417969,161.62793 90.614746,161.92871 C 87.806152,169.7373 76.978516,184.40332 75.273926,186.65137 C 70.598633,185.88965 64.064941,185.06934 58.772949,185.06934 C 57.539063,185.06934 55.834473,184.94824 55.834473,187.92676 C 55.834473,189.65527 56.597656,192.66699 57.530762,193.66504 C 59.860352,190.91309 63.870117,190.09277 68.837402,190.09277 C 70.769043,190.09277 73.106934,190.7666 73.991699,190.97754 C 67.668457,197.38965 61.702637,202.69824 61.702637,206.24512 C 61.702637,208.2334 63.764648,210.85645 65.493652,211.7334 C 65.493652,206.49707 70.915527,199.26465 76.223633,195.22363 C 76.223633,195.93848 76.475098,198.68066 76.475098,201.65918 C 76.475098,211.53809 77.449219,213.49512 81.248047,213.49512 C 81.9375,213.49512 83.130859,213.24316 83.577637,212.97363 C 81.532226,210.62988 80.671875,207.52051 80.671875,201.65137 C 80.671875,199.96387 80.720215,198.37207 80.720215,196.99316 C 80.720215,194.3877 80.419922,192.55371 80.225097,191.11621 C 81.686035,190.91309 84.981445,190.44238 87.408691,190.44238 C 92.578613,190.44238 95.785156,190.94629 98.122558,193.27441 C 99.802734,192.00098 101.67773,189.59863 101.67773,187.94238 C 101.67773,185.55566 100.07031,185.39355 98.382324,185.39355 C 95.760254,185.39355 93.609863,186.43262 83.674805,186.43262 C 85.630859,180.83301 91.361328,172.96777 97.334961,165.71191 L 97.334961,165.71191 L 97.334961,165.71191 z "
     clip-rule="evenodd" /><path
     style="fill:#ff0000"
     id="path2271"
     d="M 156.64453,186.43262 C 146.70898,186.43262 144.55078,185.39355 141.9375,185.39355 C 140.25586,185.39355 138.64063,185.55566 138.64063,187.94238 C 138.64063,189.59863 140.51563,192.00098 142.1875,193.27441 C 144.52539,190.94629 147.74023,190.44238 152.91016,190.44238 C 155.32813,190.44238 158.63281,190.91309 160.08594,191.11621 C 159.89063,192.55371 159.59766,194.3877 159.59766,196.99316 C 159.59766,198.37207 159.64648,199.96387 159.64648,201.65137 C 159.64648,207.52051 158.78711,210.62988 156.74219,212.97363 C 157.1875,213.24316 158.38086,213.49512 159.07031,213.49512 C 162.86914,213.49512 163.84375,211.53809 163.84375,201.65918 C 163.84375,198.68066 164.0957,195.93848 164.0957,195.22363 C 169.4043,199.26465 174.81641,206.49707 174.81641,211.7334 C 176.55469,210.85645 178.61523,208.2334 178.61523,206.24512 C 178.61523,202.69824 172.64258,197.38965 166.32617,190.97754 C 167.21289,190.7666 169.54883,190.09277 171.48047,190.09277 C 176.44922,190.09277 180.45898,190.91309 182.78711,193.66504 C 183.7207,192.66699 184.47656,189.65527 184.47656,187.92676 C 184.47656,184.94824 182.77148,185.06934 181.53711,185.06934 C 176.25391,185.06934 169.71094,185.88965 165.04492,186.65137 C 163.33984,184.40332 152.51172,169.7373 149.70508,161.92871 C 148.90039,161.62793 148.26758,161.39355 146.93555,161.39355 C 144.33008,161.39355 143.66602,163.21973 142.98437,165.71191 C 148.95703,172.96777 154.6875,180.83301 156.64453,186.43262 L 156.64453,186.43262 z " /><path
     style="fill:#ffffff;fill-opacity:1"
     id="path2273"
     d="M 188.73633,45.640625 C 188.73633,33.919434 180.20703,24.625977 177.20313,22.020508 L 175.04492,22.515625 C 178.23438,26.419922 183.86719,32.937988 183.86719,41.582031 C 183.86719,58.586426 165.88867,73.351074 145.37695,73.634766 C 145.54102,75.388184 145.53125,76.921875 145.53125,78.245117 C 145.53125,80.680176 145.36133,83.058594 145.08594,85.355469 C 168.36523,84.949219 188.73633,66.021484 188.73633,45.640625 L 188.73633,45.640625 z " /><path
     style="fill:#ffffff;fill-opacity:1"
     id="path2275"
     d="M 56.451172,41.582031 C 56.451172,32.937988 62.076172,26.419922 65.273926,22.515625 L 63.115234,22.020508 C 60.111816,24.625977 51.581543,33.919434 51.581543,45.640625 C 51.581543,66.16748 72.254395,85.225586 95.736328,85.379883 C 95.484863,83.147949 95.338379,80.769531 95.338379,78.245117 C 95.338379,76.662109 95.411621,75.120605 95.549317,73.650879 C 74.787109,73.650879 56.451172,58.740723 56.451172,41.582031 L 56.451172,41.582031 z " /><path
     style="fill:#ff0000"
     id="path2277"
     d="M 119.57471,25.754395 C 120.64648,23.311035 122.0918,20.38916 122.0918,17.166992 C 122.0918,8.2709961 114.71289,4.0175781 104.82715,4.0175781 C 99.753906,4.0175781 97.188965,5.6577148 97.188965,7.3129883 C 97.188965,8.9526367 98.861328,12.572754 99.518555,13.692871 C 101.34473,12.88916 104.63232,11.92334 106.53955,11.92334 C 113.31689,11.92334 118.39014,19.512695 119.57471,25.754395 L 119.57471,25.754395 z " /><path
     style="fill:#ffffff;fill-rule:evenodd"
     id="path2279"
     d="M 124.42969,14.375 C 130.19922,15.50293 134.14453,8.1328125 128.6582,6.8178711 C 129.41992,9.2451172 125.71875,10.973633 125.71875,10.973633 C 125.71875,10.973633 124.31445,7.6948242 126.125,5.8359375 C 122.78125,4.2045898 121.92773,6.1928711 121.86328,8.2788086 C 123.17969,10.032227 124.04688,12.09375 124.42969,14.375 L 124.42969,14.375 L 124.42969,14.375 z "
     clip-rule="evenodd" /></g>
</svg>