<?xml version="1.0" encoding="UTF-8" standalone="no"?>
<!-- Generator: Adobe Illustrator 22.1.0, SVG Export Plug-In . SVG Version: 6.00 Build 0)  -->

<svg
   xmlns:dc="http://purl.org/dc/elements/1.1/"
   xmlns:cc="http://creativecommons.org/ns#"
   xmlns:rdf="http://www.w3.org/1999/02/22-rdf-syntax-ns#"
   xmlns:svg="http://www.w3.org/2000/svg"
   xmlns="http://www.w3.org/2000/svg"
   xmlns:sodipodi="http://sodipodi.sourceforge.net/DTD/sodipodi-0.dtd"
   xmlns:inkscape="http://www.inkscape.org/namespaces/inkscape"
   version="1.1"
   id="图层_1"
   x="0px"
   y="0px"
   viewBox="0 0 228.79095 252"
   xml:space="preserve"
   sodipodi:docname="rnf.svg"
   width="228.79095"
   height="252"
   inkscape:version="0.92.4 (5da689c313, 2019-01-14)"><metadata
   id="metadata157"><rdf:RDF><cc:Work
       rdf:about=""><dc:format>image/svg+xml</dc:format><dc:type
         rdf:resource="http://purl.org/dc/dcmitype/StillImage" /><dc:title></dc:title></cc:Work></rdf:RDF></metadata><defs
   id="defs155" /><sodipodi:namedview
   pagecolor="#ffffff"
   bordercolor="#666666"
   borderopacity="1"
   objecttolerance="10"
   gridtolerance="10"
   guidetolerance="10"
   inkscape:pageopacity="0"
   inkscape:pageshadow="2"
   inkscape:window-width="1366"
   inkscape:window-height="705"
   id="namedview153"
   showgrid="false"
   fit-margin-top="1"
   fit-margin-bottom="1"
   fit-margin-left="1"
   fit-margin-right="1"
   inkscape:zoom="0.295"
   inkscape:cx="148.00127"
   inkscape:cy="351.80001"
   inkscape:window-x="-8"
   inkscape:window-y="-8"
   inkscape:window-maximized="1"
   inkscape:current-layer="图层_1" />
<style
   type="text/css"
   id="style2">
	.st0{fill:#F6B800;}
	.st1{fill:#FFFFFF;}
	.st2{fill:#0067AC;}
</style>
<g
   id="g150"
   transform="matrix(0.35637919,0,0,0.35637919,-28.156196,-16.569494)">
	<g
   id="g20">
		<path
   class="st0"
   d="m 146.6,289.3 c 0.6,-3.8 4.6,-9.8 4.6,-9.8 -22.5,0 -27,29.5 -27,29.5 17.6,-1.3 21.6,-14.7 22.4,-19.7 z"
   id="path4"
   inkscape:connector-curvature="0"
   style="fill:#f6b800" />
		<path
   class="st0"
   d="m 104.3,363.9 -2.5,2.8 v 2.4 c 0,0 1.6,2.8 3.6,2.5 2,-0.3 3.1,-5.5 3.1,-5.5 v -7.4 c 0,0 2.4,3.6 18,-7.4 18.1,-12 13,-24.6 13,-24.6 0,0 -0.8,2.8 -4.4,4 -6.8,1.9 -19.3,8.9 -19.3,8.9 v -10 c 36.2,-5.5 31,-22.5 31,-22.5 0,0 -2.6,3.5 -6.3,3.5 -11.8,-0.3 -19.4,6.5 -19.4,6.5 1.1,-4.1 0.3,-11.8 -2.8,-15.9 -3.1,-4.1 -2,-10 -2,-10 -15.5,8.1 -5.3,31.7 -5.3,31.7 v 13.8 l -0.6,0.9 C 108,330 102.9,325 101,322.5 99.1,320 98.2,313.9 98.2,313.9 82.8,335 104,359 104,359 v 4.9 z"
   id="path6"
   inkscape:connector-curvature="0"
   style="fill:#f6b800" />
		<path
   class="st0"
   d="m 106.6,432 c 0.8,5.3 4.3,11 4.3,11 l 2.3,0.3 1.5,-1.8 -0.5,-2.2 c -2.3,-2.7 -1.7,-8.5 -1.7,-8.5 0,0 5.2,-3 11.7,-13 12.8,-19.5 2.7,-31 2.7,-31 0,0 0.3,5 -5.7,10.2 -8.7,6.8 -12.3,17.5 -12.3,17.5 -3.2,-7.2 -2,-17.8 -2,-17.8 0,0 3.8,0.1 15.5,-12.1 15.1,-14.3 8.9,-29.3 8.9,-29.3 0,0 -1.3,4.9 -9.8,9.8 -11.7,6.3 -16,15 -16,15 -1.7,-7.2 -11,-17 -14.5,-19.4 -3.5,-2.3 -5.7,-8.5 -5.7,-8.5 -10.2,23 15,42.9 16.3,45 -0.2,5.8 0.5,10.5 0.5,10.5 C 94.6,405 81.9,393 81.9,393 c -1.8,29.1 24.7,39 24.7,39 z"
   id="path8"
   inkscape:connector-curvature="0"
   style="fill:#f6b800" />
		<path
   class="st0"
   d="m 121.1,471.3 c 1.2,3.2 3,7.2 3,7.2 l 2,0.8 1.7,-1 0.7,-1.3 -4.3,-9.2 c 0,0 -1.7,-5.3 1.3,-8.7 3,-3.3 9,-13 10.2,-22.2 1.2,-9.2 -2.7,-17 -7.3,-19.7 0,0 1.7,4.7 -2.2,9.3 -3.8,4.7 -11,15.5 -10,23.7 0,0 -7.7,-9.3 -20.2,-12 -6.5,-1.8 -9.3,-7.2 -9.3,-7.2 0,0 -3.3,22 26.1,33 7.5,3 7.2,4.2 8.3,7.3 z"
   id="path10"
   inkscape:connector-curvature="0"
   style="fill:#f6b800" />
		<path
   class="st0"
   d="m 145,510.1 h 1.2 l 1.5,-0.8 0.2,-1.3 -0.7,-1.7 c 0,0 -2,-3.2 -4.3,-5.2 -2.3,-2 -1.2,-6 -1.2,-6 0,0 2.3,-3.3 3.8,-10 8.7,-30.7 -7.7,-37.4 -7.7,-37.4 0,0 1.8,9.3 -2,14.5 -8.1,10.5 -5.9,22.4 -5.9,22.4 -2.5,-3 -12.3,-7.5 -20.2,-8 -7.8,-0.5 -13.3,-5.3 -13.3,-5.3 3.5,27.9 41.2,30.4 41.2,30.4 z"
   id="path12"
   inkscape:connector-curvature="0"
   style="fill:#f6b800" />
		<path
   class="st0"
   d="m 148.8,528.4 c 7.2,-0.3 9.7,2.5 9.7,2.5 l 7.3,6.3 2.3,0.7 1.3,-2.8 -0.8,-1 c 0,0 -1.5,-1.2 -4.2,-3 -2.7,-1.8 -1.5,-4.2 -0.8,-7.5 8.2,-43.4 -13.2,-46.7 -13.2,-46.7 0,0 1.8,4.7 -0.5,13.5 -3.5,10 -1,23.7 -1,23.7 -6.2,-4.5 -19.7,-4 -24.2,-4 -4.5,0 -10.3,-2.3 -10.3,-2.3 5.7,17.1 27.3,20.9 34.4,20.6 z"
   id="path14"
   inkscape:connector-curvature="0"
   style="fill:#f6b800" />
		<path
   class="st0"
   d="m 192.4,556.3 -3.3,-18.5 c -5.3,-32.5 -21.5,-33.4 -21.5,-33.4 0,0 2.2,4.5 1.3,10.2 -2.2,13 3.8,26.5 3.8,26.5 -4.5,-2.2 -18.2,-1.3 -23,0 -4.8,1.3 -12,0.5 -12,0.5 17.3,23.5 54.7,14.7 54.7,14.7 z"
   id="path16"
   inkscape:connector-curvature="0"
   style="fill:#f6b800" />
		<path
   class="st0"
   d="m 177,563.8 c -8.7,1.3 -13.3,-1.5 -13.3,-1.5 11,23.7 41.7,14.8 41.7,14.8 l 0.8,-13.9 c -5.8,-1.2 -20.5,-0.8 -29.2,0.6 z"
   id="path18"
   inkscape:connector-curvature="0"
   style="fill:#f6b800" />
	</g>
	<g
   id="g38">
		<path
   class="st0"
   d="m 653.4,289.3 c -0.6,-3.8 -4.6,-9.8 -4.6,-9.8 22.5,0 27,29.5 27,29.5 -17.6,-1.3 -21.6,-14.7 -22.4,-19.7 z"
   id="path22"
   inkscape:connector-curvature="0"
   style="fill:#f6b800" />
		<path
   class="st0"
   d="m 695.7,363.9 2.5,2.8 v 2.4 c 0,0 -1.6,2.8 -3.6,2.5 -2,-0.3 -3.1,-5.5 -3.1,-5.5 v -7.4 c 0,0 -2.4,3.6 -18,-7.4 -18.1,-12 -13,-24.6 -13,-24.6 0,0 0.8,2.8 4.4,4 6.8,1.9 19.3,8.9 19.3,8.9 v -10 c -36.2,-5.5 -31,-22.5 -31,-22.5 0,0 2.6,3.5 6.3,3.5 11.8,-0.3 19.4,6.5 19.4,6.5 -1.1,-4.1 -0.3,-11.8 2.8,-15.9 3.1,-4.1 2,-10 2,-10 15.5,8.1 5.3,31.7 5.3,31.7 v 13.8 l 0.6,0.9 c 2.4,-7.6 7.5,-12.6 9.4,-15.1 1.9,-2.5 2.8,-8.6 2.8,-8.6 C 717.2,335 696,359 696,359 v 4.9 z"
   id="path24"
   inkscape:connector-curvature="0"
   style="fill:#f6b800" />
		<path
   class="st0"
   d="m 693.4,432 c -0.8,5.3 -4.3,11 -4.3,11 l -2.3,0.3 -1.5,-1.8 0.5,-2.2 c 2.3,-2.7 1.7,-8.5 1.7,-8.5 0,0 -5.2,-3 -11.7,-13 -12.8,-19.5 -2.7,-31 -2.7,-31 0,0 -0.3,5 5.7,10.2 8.7,6.8 12.3,17.5 12.3,17.5 3.2,-7.2 2,-17.8 2,-17.8 0,0 -3.8,0.1 -15.5,-12.1 -15.1,-14.3 -8.9,-29.3 -8.9,-29.3 0,0 1.3,4.9 9.8,9.8 11.7,6.3 16,15 16,15 1.7,-7.2 11,-17 14.5,-19.4 3.5,-2.3 5.7,-8.5 5.7,-8.5 10.2,23 -15,42.9 -16.3,45 0.2,5.8 -0.5,10.5 -0.5,10.5 7.5,-2.7 20.2,-14.7 20.2,-14.7 1.8,29.1 -24.7,39 -24.7,39 z"
   id="path26"
   inkscape:connector-curvature="0"
   style="fill:#f6b800" />
		<path
   class="st0"
   d="m 678.9,471.3 c -1.2,3.2 -3,7.2 -3,7.2 l -2,0.8 -1.7,-1 -0.7,-1.3 4.3,-9.2 c 0,0 1.7,-5.3 -1.3,-8.7 -3,-3.3 -9,-13 -10.2,-22.2 -1.2,-9.2 2.7,-17 7.3,-19.7 0,0 -1.7,4.7 2.2,9.3 3.8,4.7 11,15.5 10,23.7 0,0 7.7,-9.3 20.2,-12 6.5,-1.8 9.3,-7.2 9.3,-7.2 0,0 3.2,21.9 -26.2,32.9 -7.4,3.1 -7.1,4.3 -8.2,7.4 z"
   id="path28"
   inkscape:connector-curvature="0"
   style="fill:#f6b800" />
		<path
   class="st0"
   d="m 655,510.1 h -1.2 l -1.5,-0.8 -0.2,-1.3 0.7,-1.7 c 0,0 2,-3.2 4.3,-5.2 2.3,-2 1.2,-6 1.2,-6 0,0 -2.3,-3.3 -3.8,-10 -8.7,-30.7 7.7,-37.4 7.7,-37.4 0,0 -1.8,9.3 2,14.5 8.1,10.5 5.9,22.4 5.9,22.4 2.5,-3 12.3,-7.5 20.2,-8 7.8,-0.5 13.3,-5.3 13.3,-5.3 -3.5,27.9 -41.2,30.4 -41.2,30.4 z"
   id="path30"
   inkscape:connector-curvature="0"
   style="fill:#f6b800" />
		<path
   class="st0"
   d="m 651.2,528.4 c -7.2,-0.3 -9.7,2.5 -9.7,2.5 l -7.3,6.3 -2.3,0.7 -1.3,-2.8 0.8,-1 c 0,0 1.5,-1.2 4.2,-3 2.7,-1.8 1.5,-4.2 0.8,-7.5 -8.2,-43.4 13.2,-46.7 13.2,-46.7 0,0 -1.8,4.7 0.5,13.5 3.5,10 1,23.7 1,23.7 6.2,-4.5 19.7,-4 24.2,-4 4.5,0 10.3,-2.3 10.3,-2.3 -5.7,17.1 -27.3,20.9 -34.4,20.6 z"
   id="path32"
   inkscape:connector-curvature="0"
   style="fill:#f6b800" />
		<path
   class="st0"
   d="m 607.6,556.3 3.3,-18.5 c 5.3,-32.5 21.5,-33.4 21.5,-33.4 0,0 -2.2,4.5 -1.3,10.2 2.2,13 -3.8,26.5 -3.8,26.5 4.5,-2.2 18.2,-1.3 23,0 4.8,1.3 12,0.5 12,0.5 -17.3,23.5 -54.7,14.7 -54.7,14.7 z"
   id="path34"
   inkscape:connector-curvature="0"
   style="fill:#f6b800" />
		<path
   class="st0"
   d="m 623,563.8 c 8.7,1.3 13.3,-1.5 13.3,-1.5 -11,23.7 -41.7,14.8 -41.7,14.8 l -0.8,-13.9 c 5.8,-1.2 20.5,-0.8 29.2,0.6 z"
   id="path36"
   inkscape:connector-curvature="0"
   style="fill:#f6b800" />
	</g>
	<path
   class="st0"
   d="m 463.3,129.2 c 0,0 -17.3,14.2 -29,-6.9 0,0 -17.2,15 -34.4,-7.1 -17.1,22.1 -34.4,7.1 -34.4,7.1 -11.8,21.1 -29,6.9 -29,6.9 l -3.5,32.9 66.9,-31.1 66.9,31.1 z"
   id="path40"
   inkscape:connector-curvature="0"
   style="fill:#f6b800" />
	<circle
   class="st1"
   cx="399.89999"
   cy="218.60001"
   r="87.599998"
   id="circle42"
   style="fill:#ffffff" />
	<polygon
   class="st2"
   points="614.1,578.3 399.9,673.2 185.7,578.3 185.7,471.9 399.9,377.1 614.1,471.9 "
   id="polygon44"
   style="fill:#0067ac" />
	<g
   id="g52">
		<path
   class="st1"
   d="m 501.9,575.5 c -1.1,0.9 -0.9,6.3 0.2,7.1 6.5,0 12,-0.5 25,-0.5 16.3,0 24.5,0.5 30.4,0.5 1.3,-0.9 1.5,-6.3 0.5,-7.2 -5.2,-0.6 -9.4,-1.1 -14.1,-2 -5.4,-1.1 -6.5,-3.1 -6.7,-8.5 -0.4,-7.4 -0.2,-20.1 -0.2,-31.3 l 0.7,-0.9 c 5.1,0 22.4,0 29,0.4 3.8,0.2 5.4,2 6.7,6.3 0.7,2.4 1.3,4.2 2.2,8.2 2.2,0.9 6.9,0.7 8.3,-0.2 -0.4,-6.5 -0.5,-12.9 -0.5,-19.8 0,-6 0.7,-14.3 1.3,-19 -1.8,-1.1 -7.1,-1.3 -8.9,-0.7 -0.6,3.4 -1.3,5.8 -2,7.8 -1.3,3.8 -2.3,6.2 -5.6,6.3 -6.3,0.5 -18.8,0.5 -30.4,0.5 l -0.7,-1.1 c -0.2,-13 0.2,-25.5 0.2,-38.6 0,-0.9 1.1,-3.1 2.2,-3.2 5.8,-0.6 24.5,-0.2 31.5,0.2 5.3,0.2 6.7,2 8.5,6.5 1.1,4 1.5,6.3 2.5,11.8 1.1,1.1 7.3,0.5 8.2,-0.7 0.2,-10.1 1.5,-22.1 2.5,-26.4 l -1.1,-1.4 c -4,0.5 -12.7,0.5 -18.8,0.5 h -45.1 c -9.4,0 -20.1,-0.5 -24.3,-0.5 -0.7,0.9 -1.5,6.2 -0.2,7.1 4.3,0.5 8,1.3 10.7,1.8 4,1.1 5.1,2.5 5.2,8.5 0.4,5.6 0.4,17.2 0.4,37.8 0,22.1 0.2,33.3 -0.2,40 -0.4,6.3 -1.2,7.6 -6.7,9.1 -2.4,0.3 -6.2,1 -10.7,1.6 z"
   id="path46"
   inkscape:connector-curvature="0"
   style="fill:#ffffff" />
		<path
   class="st1"
   d="m 336.6,575.8 c -12.9,-2.2 -15,-2.9 -21.9,-10 -8.9,-9.6 -22.3,-26.8 -28.6,-36.8 l 0.4,-1.4 c 11.4,-5.3 20.5,-14.5 20.5,-29.4 0,-15.6 -12.3,-28.6 -33.9,-28.6 -6.7,0 -17,0.2 -31.9,0.2 -6.2,0 -18.9,-0.5 -22.8,-0.5 -1.1,0.7 -1.5,6 -0.5,7.1 4.2,0.5 7.6,1.1 10.7,1.8 4.9,1.3 6,3.1 6.2,8.5 0.2,4.2 0.2,16.3 0.2,40.6 0,10.1 -0.2,33.2 -0.6,36.8 -0.4,7.1 -2.2,8.9 -6.5,9.8 -2.7,0.5 -5.6,1.1 -9.8,1.5 -1.1,1.1 -1.1,6 0,7.2 4.2,0 12.9,-0.5 24.8,-0.5 14.7,0 22.5,0.5 26.6,0.5 1.1,-0.7 1.5,-6.3 0.6,-7.2 -4.9,-0.6 -8.2,-0.9 -11,-1.6 -4.7,-0.9 -6.2,-2.9 -6.5,-7.8 -0.4,-4.7 -0.4,-20.5 -0.4,-30.4 l 0.7,-1.1 c 2.7,0 11.2,0 13.6,0.4 1.5,0.2 3.4,0.9 4.5,2.4 6.9,10.2 16.9,25.6 23.7,34.1 3.6,4.2 6.5,6.3 9.2,8 7.4,3.8 22.8,3.8 31.3,3.8 1.4,-0.7 2.3,-6.8 1.4,-7.4 z m -59,-52.3 c -2.4,1.3 -7.4,2.2 -24.6,2.2 l -0.9,-0.9 c 0,-12.5 0,-36.6 0.4,-43.3 0,-0.9 0.9,-2.5 1.4,-2.9 2,-0.7 5.8,-1.1 6.9,-1.1 19.4,0 27.5,9.8 27.5,26.8 0,9.2 -4.7,16.1 -10.7,19.2 z"
   id="path48"
   inkscape:connector-curvature="0"
   style="fill:#ffffff" />
		<path
   class="st1"
   d="m 487.3,488.5 c -3,0 -11.1,0.7 -26.3,0.7 -9.5,0 -19.6,-0.7 -23.6,-0.7 -0.9,0.7 -1.6,8.8 -0.5,9 5.1,0.7 10.2,1.9 12.7,2.8 4.6,1.9 3.4,6.2 2.5,8.5 -2.8,8.5 -7.2,19.2 -12,26.3 l -1.9,0.2 c -16.9,-12.2 -35.1,-27.7 -41.8,-34.6 l 0.2,-1.1 c 22.6,-14.5 29.8,-23.3 29.8,-35.3 0,-16.2 -12.9,-29.3 -30.9,-29.3 -19.8,0 -38.3,15 -38.3,37.4 0,12.9 5.5,22.6 12.9,31.6 v 1.2 c -25.2,17.1 -31.2,26.8 -31.2,39.2 0,24 17.1,41.8 44.8,41.8 15.5,0 31.9,-5.8 49.4,-25.6 0.5,-0.5 0.2,-0.9 0.9,-0.2 9.9,7.8 18.9,15 27.7,22.4 2.1,1.6 6,5.8 7.4,8.8 0.7,0.5 3.9,0.7 4.6,0 2.3,-2.6 9.2,-17.1 9.2,-21.9 -4.4,-5.3 -21.2,-17.5 -34.9,-27.5 l -0.2,-1.6 c 5.5,-7.4 11.1,-18.9 19.9,-33.9 1.6,-2.5 4.1,-5.3 8.5,-6.7 2.5,-0.7 6.5,-1.4 10.2,-2.1 2,-1.1 1.8,-8 0.9,-9.4 z M 391,444.8 c 11.3,0 17.5,10.9 17.5,20.1 0,11.5 -6.5,20.1 -17.5,28.6 h -2.1 c -9,-8.1 -14.1,-18 -14.1,-27.9 0.1,-13.4 7.4,-20.8 16.2,-20.8 z m 33.7,110.6 c -8.3,9.5 -21,14.3 -30.5,14.3 -18.9,0 -34.2,-12.2 -34.2,-30.7 0,-12.5 6.9,-19.6 15.5,-27.2 h 1.6 c 14.3,14.1 31.9,28.9 47.8,41.6 0.8,0.7 0.3,1.3 -0.2,2 z"
   id="path50"
   inkscape:connector-curvature="0"
   style="fill:#ffffff" />
	</g>
	<g
   id="g72">
		<path
   class="st1"
   d="m 346.3,618.4 c 3.7,0 5.8,-2 5.8,-4.6 0,-1.7 -0.8,-2.8 -2.6,-4 -1.1,-0.7 -1.6,-1 -2.7,-1.7 -1,-0.7 -1.5,-1.4 -1.5,-2.5 0,-1.2 0.8,-2.1 2.2,-2.1 0.8,0 1.3,0.1 1.9,0.5 0.6,0.5 0.9,1.2 1.1,2.7 h 0.7 c 0.1,-1.5 0.2,-2.6 0.4,-3.6 -1.1,-0.1 -2.1,-0.4 -3.9,-0.4 -2.8,0 -5.1,1.6 -5.1,4.4 0,2.4 1.5,3.6 3.8,5 2.1,1.3 2.7,2.1 2.7,3.4 0,1.3 -0.9,2 -2.1,2 -0.8,0 -1.6,-0.2 -2.3,-0.6 -0.9,-0.7 -1.5,-1.5 -2.1,-3.3 l -0.7,0.2 c 0.1,0.8 0.5,3.4 0.7,3.8 0.5,0.4 2.1,0.8 3.7,0.8 z"
   id="path54"
   inkscape:connector-curvature="0"
   style="fill:#ffffff" />
		<path
   class="st1"
   d="m 361.3,618.1 0.1,-0.7 -1.2,-0.2 c -0.7,-0.1 -0.7,-0.8 -0.8,-1.2 -0.1,-0.9 -0.1,-2.4 -0.1,-5.7 0,-2.1 0,-4.1 0,-4.9 0,-0.9 0.1,-1.1 0.6,-1.3 l 1.2,-0.2 v -0.7 c -0.5,0 -1.3,0.1 -3.5,0.1 -1.7,0 -2.7,-0.1 -3.6,-0.1 v 0.7 l 1.2,0.2 0.6,1 c 0.1,1.1 0.1,2.5 0.1,5.1 0,2.4 0,4.8 -0.1,5.8 0,1 -0.2,1.2 -0.8,1.4 l -1.1,0.2 v 0.7 c 0.9,0 1.5,-0.1 3.7,-0.1 1.7,-0.2 2.6,-0.2 3.7,-0.1 z"
   id="path56"
   inkscape:connector-curvature="0"
   style="fill:#ffffff" />
		<path
   class="st1"
   d="m 379.3,603.8 v -0.7 c -0.4,0 -1.5,0.1 -2.7,0.1 -1.4,0 -2.5,-0.1 -3.2,-0.1 v 0.7 c 0.7,0.1 1,0.1 1.4,0.2 0.8,0.2 1,0.5 1.1,1.4 0.1,1.4 0.1,5.3 0.1,8.3 h -0.1 c -1.7,-2 -5.4,-6.9 -7.2,-9.3 l -0.9,-1.3 c -0.3,0 -0.9,0 -1.6,0 -1.4,0 -2.7,-0.1 -3.6,-0.1 v 0.7 l 1.5,0.3 c 0.6,0.2 0.9,1 0.9,1.6 0,4.1 -0.1,8.7 -0.2,10 -0.1,0.8 -0.3,1.2 -0.8,1.4 l -1.4,0.3 v 0.7 c 0.7,0 1.6,-0.1 3.1,-0.1 1.1,0 2.2,0.1 2.9,0.1 v -0.7 l -1.4,-0.2 c -0.7,-0.1 -1,-0.5 -1.1,-1.6 -0.1,-1 -0.1,-6.3 0,-9 h 0.1 c 1.3,1.8 7.4,9.8 8.6,11.5 h 2.3 c 0,-0.9 0,-2.3 0,-3.3 0,-3.1 0,-7 0.2,-9.3 0.1,-0.9 0.3,-1.3 1,-1.5 z"
   id="path58"
   inkscape:connector-curvature="0"
   style="fill:#ffffff" />
		<path
   class="st1"
   d="m 392.4,617.9 c 0.7,-0.5 1.6,-2.5 1.9,-3.4 l -0.6,-0.4 c -0.5,0.9 -1.2,1.9 -1.8,2.4 -0.8,0.7 -1.8,0.8 -2.6,0.8 -3.9,0 -5.4,-3.5 -5.4,-7.2 0,-4.5 1.9,-6.6 4.5,-6.6 1,0 2,0.1 3,0.7 1,0.6 1.2,1.6 1.4,3 l 0.7,-0.1 c 0,-1.3 0.3,-3.3 0.4,-4 -1.2,-0.1 -3.2,-0.4 -4.9,-0.4 -2.1,0 -3.7,0.4 -5,1.1 -2.7,1.4 -3.9,3.9 -3.9,6.6 0,5.3 3.2,8 8.6,8 1.8,0 3,-0.3 3.7,-0.5 z"
   id="path60"
   inkscape:connector-curvature="0"
   style="fill:#ffffff" />
		<path
   class="st1"
   d="m 407.3,617.7 c 0.4,-0.8 1,-3.1 1,-3.6 l -0.7,-0.2 c -0.4,0.9 -0.8,1.8 -1.4,2.4 -0.5,0.5 -0.8,0.7 -2.1,0.7 -1.2,0 -2.4,-0.1 -2.8,-0.2 l -0.5,-0.8 v -4.7 l 0.1,-0.2 c 0.7,0 2.8,0 3.2,0.1 l 0.9,0.8 c 0.1,0.3 0.1,0.2 0.2,0.9 h 0.7 c 0,-0.7 -0.1,-1.8 -0.1,-2.4 0,-0.8 0.1,-1.7 0.1,-2.3 h -0.7 L 405,609 c -0.2,0.7 -0.4,1 -1,1 -0.7,0 -2.6,0 -3.3,0 l -0.1,-0.2 c 0,-1.7 0,-3.4 0,-5 l 0.2,-0.4 h 3.4 l 0.9,0.6 c 0.2,0.4 0.4,1 0.5,1.9 l 0.7,-0.1 c 0.1,-1.3 0.2,-2.9 0.4,-3.6 l -0.1,-0.1 c -0.8,0.1 -2.1,0.1 -3.1,0.1 h -4.7 c -1.2,0 -2.7,-0.1 -3.6,-0.1 v 0.7 l 1.2,0.2 c 0.5,0.2 0.6,0.4 0.7,1.1 0.1,0.9 0.1,2.8 0.1,4.7 0,2.7 0,4.8 -0.1,6.1 0,0.8 -0.2,1.1 -0.7,1.2 -0.4,0.1 -0.9,0.2 -1.7,0.3 v 0.7 c 1.3,0 2.9,-0.1 4.2,-0.1 2.3,0 4.6,0.1 6.8,0.1 1.3,0 1.5,-0.1 1.6,-0.4 z"
   id="path62"
   inkscape:connector-curvature="0"
   style="fill:#ffffff" />
		<path
   class="st1"
   d="m 428.6,617.8 c 0.5,-0.6 1.3,-3.2 1.6,-4.1 l -0.6,-0.2 c -0.7,1.5 -1.4,1.9 -1.9,2 -1.1,0 -3.7,0 -4.6,-0.1 v -0.2 c 1,-0.9 1.7,-1.5 2.5,-2.3 1.8,-1.8 2.7,-3.3 2.7,-5 0,-2.8 -2,-4.4 -4.1,-4.4 -1.8,0 -3.7,1.1 -5,3.4 l 0.5,0.5 c 1,-1.1 2,-1.4 2.8,-1.4 1.8,0 2.6,1.4 2.6,3.2 0,1.5 -0.6,3 -1.5,4.3 -1.2,1.6 -2.5,2.8 -4.3,4.2 v 0.6 c 0.4,0 1,0 1.7,0 2.1,0 4.6,0.1 6.4,0.1 0.8,-0.4 1,-0.4 1.2,-0.6 z"
   id="path64"
   inkscape:connector-curvature="0"
   style="fill:#ffffff" />
		<path
   class="st1"
   d="m 451.1,618.1 0.1,-0.7 -1.2,-0.2 c -0.6,-0.1 -0.7,-0.8 -0.8,-1.7 -0.1,-2 -0.1,-6.1 -0.1,-8.1 0,-2 0,-2.9 0.1,-3.9 l -0.3,-0.2 c -1.1,0.4 -2.9,1.1 -4.9,1.2 l -0.1,0.7 1.1,0.2 0.6,0.9 c 0.1,0.7 0.1,2.5 0.1,4.5 0,2.3 0,3.8 -0.1,4.8 0,0.8 -0.1,1.4 -0.8,1.6 l -1.2,0.2 v 0.7 c 0.7,0 1.7,-0.1 3.5,-0.1 1.5,0 3.1,0.1 4,0.1 z"
   id="path66"
   inkscape:connector-curvature="0"
   style="fill:#ffffff" />
		<path
   class="st1"
   d="m 460.8,618.1 0.1,-0.7 -1.2,-0.2 c -0.6,-0.1 -0.7,-0.8 -0.8,-1.7 -0.1,-2 -0.1,-6.1 -0.1,-8.1 0,-2 0,-2.9 0.1,-3.9 l -0.3,-0.2 c -1.1,0.4 -2.9,1.1 -4.9,1.2 l -0.1,0.7 1.1,0.2 0.6,0.9 c 0.1,0.7 0.1,2.5 0.1,4.5 0,2.3 0,3.8 -0.1,4.8 0,0.8 -0.1,1.4 -0.8,1.6 l -1.3,0.2 v 0.7 c 0.7,0 1.7,-0.1 3.5,-0.1 1.7,0 3.2,0.1 4.1,0.1 z"
   id="path68"
   inkscape:connector-curvature="0"
   style="fill:#ffffff" />
		<path
   class="st1"
   d="m 440.8,605 c -0.7,-0.9 -1.9,-1.6 -3.6,-1.6 -1.1,0 -2.3,0.3 -3.3,1.1 -1.7,1.4 -2.3,4 -2.3,6.2 0,2.8 0.4,5.4 2.3,6.8 0.8,0.6 1.7,0.8 3,0.8 0.9,0 2,-0.3 2.7,-0.8 2.1,-1.4 2.7,-4.1 2.7,-7 0.1,-2.5 -0.5,-4.4 -1.5,-5.5 z m -2.7,12.2 -0.8,0.3 c -1.3,0 -2.2,-2 -2.2,-7.2 0,-3 0.4,-5.2 1.2,-5.9 l 0.6,-0.2 c 1.4,0 2.2,2.5 2.2,6.8 0,4.4 -0.5,5.7 -1,6.2 z"
   id="path70"
   inkscape:connector-curvature="0"
   style="fill:#ffffff" />
	</g>
	<polygon
   class="st2"
   points="185.7,655.9 399.9,750.8 614.1,655.9 614.1,590.8 399.9,685.7 185.7,590.8 "
   id="polygon74"
   style="fill:#0067ac" />
	<g
   id="g126">
		<path
   class="st1"
   d="m 439.1,701.3 c -1.8,-4 -5.9,-6.2 -10.8,-4 -2.7,1.2 -4.3,3.1 -4.9,5.3 -0.7,1.9 -0.4,3.9 0.4,5.7 0.8,1.8 2.3,3.7 4.4,4.5 1.9,0.8 4.1,0.8 6.6,-0.4 2.5,-1.1 4.4,-3.1 5,-5.8 0.5,-1.6 0.1,-3.6 -0.7,-5.3 z m -2.3,8.3 c -0.2,0.7 -0.8,1.3 -1.5,1.7 -1,0.4 -2,0.4 -2.9,0.2 -2.3,-0.7 -4.2,-3.3 -5.2,-5.5 -1,-2.3 -1.4,-4.5 -0.6,-6.1 0.3,-0.6 0.9,-1.1 1.6,-1.4 1,-0.4 1.8,-0.5 2.7,-0.1 2.1,0.7 3.9,3.1 4.9,5.5 0.9,1.8 1.5,4.2 1,5.7 z"
   id="path76"
   inkscape:connector-curvature="0"
   style="fill:#ffffff" />
		<path
   class="st1"
   d="m 457.6,693.1 c -1.8,-4 -5.9,-6.2 -10.8,-4 -2.7,1.2 -4.3,3.1 -4.9,5.3 -0.7,1.9 -0.4,3.9 0.4,5.7 0.8,1.8 2.3,3.7 4.4,4.5 1.9,0.8 4.1,0.8 6.6,-0.4 2.5,-1.1 4.4,-3.1 5,-5.8 0.4,-1.6 0.1,-3.6 -0.7,-5.3 z m -2.4,8.3 c -0.3,0.7 -0.8,1.3 -1.5,1.7 -1,0.4 -2,0.4 -2.9,0.2 -2.3,-0.7 -4.2,-3.3 -5.2,-5.5 -1,-2.3 -1.4,-4.5 -0.6,-6.1 0.3,-0.6 0.9,-1.1 1.6,-1.4 1,-0.4 1.8,-0.4 2.8,-0.1 2.1,0.7 3.9,3.1 4.9,5.5 0.9,1.8 1.5,4.2 0.9,5.7 z"
   id="path78"
   inkscape:connector-curvature="0"
   style="fill:#ffffff" />
		<path
   class="st1"
   d="m 488.9,682.7 c -0.9,-2.1 -2.9,-2.5 -5.3,-1.9 l -0.1,-0.1 c 1.7,-1.3 2,-2.9 1.4,-4.2 -1.2,-2.7 -3.9,-2.1 -5.9,-1.3 -0.6,0.3 -2.3,1.1 -4.1,1.9 -1.6,0.7 -2.6,1.1 -3.3,1.4 l 0.3,0.6 1.3,-0.3 c 0.4,0 0.7,0.1 1,0.8 0.7,1.2 1.4,2.9 2.4,5.3 1.4,3.2 2.1,4.7 2.3,5.3 0.2,0.7 0.2,1 -0.1,1.3 -0.3,0.3 -0.6,0.5 -1.3,0.9 l 0.3,0.6 c 1.6,-0.7 5.4,-2.3 6.5,-2.7 1.4,-0.6 2.8,-1.5 3.7,-2.5 1.4,-1.6 1.7,-3.3 0.9,-5.1 z m -9.5,-0.4 c -0.7,-1.6 -1.7,-3.9 -2,-4.8 v -0.4 l 0.4,-0.3 c 2.1,-0.9 3.6,0 4.4,1.7 0.5,1 0.5,1.8 0,2.5 -0.2,0.3 -0.7,0.6 -1.3,0.9 l -1.2,0.5 z m 5.3,6.9 c -0.2,0.1 -1.1,0.3 -1.8,0 l -0.7,-0.6 c -0.6,-1.2 -1.6,-3.5 -2.3,-5.2 l 0.1,-0.2 0.8,-0.4 c 2.2,-1 4,-0.2 4.9,1.8 0.9,2.3 0.5,3.9 -1,4.6 z"
   id="path80"
   inkscape:connector-curvature="0"
   style="fill:#ffffff" />
		<path
   class="st1"
   d="m 319,673.7 c -2.7,-1.2 -5.2,-1.1 -7.2,-0.1 -1.9,0.7 -3.2,2.3 -4,4.1 -0.8,1.8 -1.2,4.1 -0.4,6.3 0.7,1.9 2.2,3.6 4.7,4.7 2.5,1.1 5.3,1.2 7.7,-0.2 1.5,-0.9 2.8,-2.4 3.5,-4.2 1.7,-3.9 0.6,-8.4 -4.3,-10.6 z m 0.2,9.9 c -0.9,2 -2.2,4 -3.8,4.6 -0.7,0.3 -1.5,0.3 -2.2,0 -1,-0.4 -1.6,-1.1 -2.1,-2 -1,-2.2 -0.3,-5.3 0.6,-7.5 1,-2.3 2.4,-4.1 4.2,-4.5 0.6,-0.2 1.4,-0.1 2.1,0.2 0.9,0.4 1.5,1 1.9,1.9 1,2 0.4,4.9 -0.7,7.3 z"
   id="path82"
   inkscape:connector-curvature="0"
   style="fill:#ffffff" />
		<path
   class="st1"
   d="m 261.4,648.6 c -1.4,-0.6 -2.4,-1.1 -3,-1.4 l -0.3,0.6 c 0.6,0.4 0.9,0.5 1.3,0.8 0.6,0.5 0.7,0.9 0.5,1.8 -0.5,1.4 -2.1,5.1 -3.5,8 h -0.1 c -0.8,-2.7 -2.3,-9 -3,-12 -0.2,-0.8 -0.3,-1.2 -0.3,-1.6 -0.3,-0.1 -0.9,-0.3 -1.6,-0.6 -1.3,-0.6 -2.6,-1.2 -3.4,-1.6 l -0.3,0.6 1.2,1 c 0.5,0.5 0.5,1.3 0.2,2 -1.8,4 -3.8,8.4 -4.5,9.5 -0.5,0.8 -0.8,1 -1.4,1 l -1,-0.2 c -1.2,-0.8 -1.3,-1.2 -1.2,-3.3 0.1,-2.4 0.7,-9.1 1,-11.6 l 0.2,-1.4 -1.1,-0.5 -1.1,-0.5 -1,1.2 c -1.4,1.5 -6.1,6.4 -8.6,8.8 -1.2,1.1 -1.6,1.2 -3.3,0.7 l -0.3,0.6 c 0.8,0.4 1.7,0.7 2.5,1 1.2,0.5 2.1,1 2.8,1.3 l 0.4,-0.6 -1,-0.7 -0.3,-1.1 c 0.2,-0.4 1.6,-1.9 2.5,-2.8 l 0.3,-0.1 c 0.3,0.1 1.1,0.4 2,0.9 0.6,0.3 1.4,0.6 1.6,0.7 l 0.2,0.3 c -0.1,1.1 -0.2,3.1 -0.4,4.1 l -0.4,0.4 -1.3,-0.2 -0.3,0.6 c 0.9,0.4 1.5,0.6 3.6,1.5 1.2,0.5 2,0.9 2.6,1.2 v 0 l 0.3,0.1 0.4,0.2 v 0 c 0.6,0.2 1.3,0.5 2.3,1 1.1,0.5 2.1,1 2.8,1.3 l 0.3,-0.6 -1.2,-0.8 c -0.6,-0.4 -0.8,-0.9 -0.4,-2 0.4,-1 2.6,-6.1 3.8,-8.7 h 0.1 c 0.5,2.3 2.9,12.6 3.4,14.8 l 2.2,1 c 0.4,-0.8 0.9,-2.2 1.4,-3.2 1.3,-3 3.1,-6.7 4.2,-8.8 0.5,-0.9 0.9,-1.1 1.6,-1 l 1,0.2 0.3,-0.6 c -0.5,-0.4 -1.6,-0.8 -2.7,-1.3 z m -23.5,-1 -0.1,0.1 c -0.3,-0.1 -0.9,-0.4 -1.7,-0.7 -0.6,-0.3 -1.1,-0.5 -1.3,-0.6 v -0.2 c 0.8,-0.9 2.4,-2.7 3.5,-3.9 h 0.1 c -0.1,1.6 -0.4,4.2 -0.5,5.3 z"
   id="path84"
   inkscape:connector-curvature="0"
   style="fill:#ffffff" />
		<path
   class="st1"
   d="m 373.2,704.2 c -1,-0.4 -1.8,-0.9 -2.2,-1 l -0.3,0.6 0.9,0.7 v 1.1 c -0.4,0.4 -1.2,1.3 -2.3,2 l -0.2,-0.1 c -0.9,-1.4 -2,-3.5 -2.7,-4.9 v -0.1 c 2.2,-0.2 3.6,-0.5 4.2,-1.8 0.7,-1.6 -0.2,-3.6 -2.2,-4.5 -2.4,-1.1 -4.9,-0.2 -5.8,1.9 -0.6,1.3 -0.5,2.5 -0.1,3.6 l -0.1,0.1 c -3.1,0.4 -4,0.9 -4.6,2.2 -1.2,2.6 0.2,5.2 2.8,6.3 1.7,0.8 3.5,0.7 5.7,-0.2 l 0.1,0.1 c 0.7,1.1 1.1,2.1 1.8,3.3 l 0.5,1.2 0.4,0.2 c 0.5,-0.2 2.6,-1.5 2.9,-2.1 -0.2,-0.7 -1.5,-2.8 -2.4,-4.3 v -0.2 c 0.7,-0.4 1.7,-1.3 3.3,-2.3 l 1.3,-0.3 1,0.1 0.3,-0.6 c -0.1,-0.1 -0.7,-0.3 -2.3,-1 z m -7.2,5.1 c -0.4,0.1 -1.3,0.3 -2.4,-0.2 -2.1,-0.9 -3,-3.3 -2.3,-5 0.3,-0.7 0.8,-1.3 1.5,-1.6 l 0.1,0.1 c 0.9,2 2.1,4.6 3.1,6.7 z m 0.3,-7.5 -0.1,-0.1 c -0.7,-1.4 -1,-2.8 -0.5,-3.8 0.6,-1.3 1.5,-1.6 2.2,-1.2 1,0.4 1.1,1.7 0.6,2.9 -0.7,1.4 -1.5,1.9 -2.2,2.2 z"
   id="path86"
   inkscape:connector-curvature="0"
   style="fill:#ffffff" />
		<path
   class="st1"
   d="m 599.7,633.5 c -0.9,-2.1 -2.9,-2.5 -5.3,-1.9 l -0.1,-0.1 c 1.6,-1.3 2,-2.9 1.4,-4.2 -1.2,-2.7 -3.9,-2.1 -5.9,-1.3 -0.6,0.3 -2.3,1.1 -4.1,1.9 -1.6,0.7 -2.6,1.1 -3.3,1.4 l 0.3,0.6 1.3,-0.3 c 0.4,0 0.7,0.1 1.1,0.8 0.7,1.2 1.4,2.9 2.4,5.3 1.4,3.2 2.1,4.7 2.3,5.3 0.2,0.7 0.2,1 -0.1,1.3 -0.3,0.3 -0.6,0.5 -1.3,0.9 l 0.3,0.6 c 1.6,-0.7 5.4,-2.3 6.5,-2.7 1.4,-0.6 2.8,-1.5 3.7,-2.5 1.2,-1.6 1.6,-3.2 0.8,-5.1 z m -9.6,-0.3 c -0.7,-1.6 -1.7,-3.9 -2.1,-4.8 V 628 l 0.4,-0.3 c 2.1,-0.9 3.6,0 4.4,1.7 0.4,1 0.4,1.8 0,2.5 -0.2,0.2 -0.7,0.6 -1.3,0.9 l -1.2,0.5 z m 5.4,6.8 c -0.2,0.1 -1.1,0.3 -1.8,0 l -0.7,-0.6 c -0.6,-1.2 -1.6,-3.5 -2.3,-5.2 l 0.1,-0.2 0.8,-0.4 c 2.2,-1 4,-0.2 4.9,1.8 0.8,2.4 0.4,3.9 -1,4.6 z"
   id="path88"
   inkscape:connector-curvature="0"
   style="fill:#ffffff" />
		<path
   class="st1"
   d="m 355.2,690.2 c -1.7,-0.8 -3,-1.3 -4.5,-1.9 -0.9,-0.4 -2.6,-1.2 -3.1,-1.5 l -0.3,0.6 1,0.7 c 0.4,0.3 0.4,0.7 0.2,1.4 -0.5,1.2 -1.1,2.5 -2.1,4.8 -0.6,1.4 -2.2,4.9 -2.6,5.6 -0.4,0.8 -0.7,1 -1.2,0.9 l -1.1,-0.3 -0.3,0.6 c 0.4,0.2 1.4,0.5 3.4,1.4 1.8,0.8 2.8,1.3 3.4,1.6 l 0.3,-0.6 -1.1,-0.7 c -0.5,-0.4 -0.5,-0.7 -0.2,-1.5 0.5,-1.1 1.2,-2.8 1.9,-4.3 l 0.2,-0.1 0.5,0.2 0.5,0.8 c 0.2,1.6 0.4,4.5 0.9,6 l 0.7,1.5 c 0.8,0.9 3,1.9 4.5,2.4 l 0.4,-0.6 c -1.1,-0.6 -1.2,-0.8 -1.6,-1.9 -0.7,-1.7 -1.4,-6.2 -1.4,-7.2 l 0.1,-0.1 c 1.8,0.1 3.5,-0.5 4.4,-2.4 0.8,-2.1 -0.1,-4.1 -2.9,-5.4 z m -0.8,4.8 c -0.7,1.5 -1.4,2 -2.1,2 -0.6,0 -1.7,-0.3 -2.7,-0.9 l -0.1,-0.2 c 1.8,-3.9 2.3,-5.2 2.5,-5.6 l 0.3,-0.3 0.6,0.2 c 2,0.9 2.3,2.9 1.5,4.8 z"
   id="path90"
   inkscape:connector-curvature="0"
   style="fill:#ffffff" />
		<path
   class="st1"
   d="m 507,679.3 c -1.8,0.5 -2,0.4 -3.6,-1.2 -1.7,-1.7 -6.2,-6.6 -8,-8.5 l -0.9,-1.1 -1.1,0.6 -1.1,0.4 0.2,1.6 c 0.2,2 0.7,8.7 0.8,12.3 0,1.7 -0.2,2 -1.7,2.9 l 0.3,0.6 c 0.8,-0.4 1.6,-0.8 2.5,-1.2 1.2,-0.5 2.2,-0.9 2.9,-1.2 l -0.2,-0.7 -1.2,0.3 c -0.7,0.1 -0.9,-0.2 -1,-0.5 -0.2,-0.4 -0.3,-2.5 -0.4,-3.8 l 0.1,-0.3 c 0.3,-0.2 1,-0.5 1.9,-0.9 0.6,-0.3 1.4,-0.6 1.7,-0.7 l 0.3,0.1 c 0.7,0.8 2.1,2.3 2.8,3 v 0.6 l -1,0.8 0.3,0.6 c 0.9,-0.4 1.4,-0.7 3.5,-1.6 1.6,-0.7 2.8,-1.1 3.3,-1.4 z m -9.8,-2.5 c -0.2,0.1 -0.9,0.4 -1.7,0.7 -0.6,0.3 -1.1,0.5 -1.3,0.6 l -0.1,-0.1 c -0.1,-1.2 -0.4,-3.6 -0.5,-5.2 h 0.1 c 1,1.1 2.8,3.1 3.5,3.9 z"
   id="path92"
   inkscape:connector-curvature="0"
   style="fill:#ffffff" />
		<path
   class="st1"
   d="m 214.5,632.8 0.8,0.3 c 0.5,-1.2 1.6,-3 2.2,-3.7 -1,-0.5 -2.5,-1.7 -4.5,-2.7 -2.2,-1 -3.6,-1.2 -5.1,-1.3 -3.1,-0.1 -5.8,1.7 -7.2,4.8 -2.3,5.3 -0.3,9 4.9,11.3 2.1,1 4.8,1.4 5.9,1.5 l 0.3,-0.4 -0.3,-0.8 c 0.1,-0.4 0.7,-1.5 1,-2.4 0.6,-1.3 0.8,-1.4 1.3,-1.3 l 0.7,0.1 0.3,-0.6 c -0.5,-0.2 -1.2,-0.4 -2.9,-1.2 -1.6,-0.7 -3.1,-1.5 -3.8,-1.8 l -0.3,0.7 1.3,0.8 c 0.6,0.5 0.6,0.9 0.2,1.8 -0.3,0.8 -0.9,2.1 -1.2,2.7 l -0.7,0.5 -1,-0.2 c -3,-1.3 -3.8,-5.1 -1.8,-9.5 2.2,-4.8 5.1,-5.2 7.3,-4.3 1.3,0.6 2.3,1.3 2.8,2.4 0.4,0.8 0.3,1.7 -0.2,3.3 z"
   id="path94"
   inkscape:connector-curvature="0"
   style="fill:#ffffff" />
		<path
   class="st1"
   d="m 220.4,648 v 0 c -4.2,-1.8 -4.7,-4.5 -4,-6.9 0.5,-1.8 2,-5 3.6,-8.5 0.3,-0.7 0.2,-1.2 -0.2,-1.6 l -1,-0.7 0.3,-0.6 c 0.7,0.3 1.9,0.9 3.5,1.6 1.7,0.8 2.9,1.2 3.6,1.5 l -0.3,0.6 -1.1,-0.3 c -0.6,-0.1 -1,0.2 -1.4,0.9 -0.8,1.6 -2,4.4 -2.5,5.6 -0.5,1.1 -0.9,2.1 -1.1,3 -0.4,1.8 0.3,3.3 2.6,4.4 1.6,0.7 3.6,0.8 5.2,-2.1 0.9,-1.7 2.7,-5.6 3.2,-7.2 0.4,-1 0.3,-1.5 -0.3,-2 l -1.1,-0.7 0.3,-0.6 c 0.8,0.3 1.6,0.8 2.7,1.3 1.6,0.7 2.1,0.9 2.7,1.1 l -0.3,0.6 -1,-0.2 c -0.7,-0.1 -1,0.1 -1.6,1.3 -0.4,0.8 -2,4.3 -2.8,5.8 -2.3,4.7 -5.4,5.3 -9,3.7 z"
   id="path96"
   inkscape:connector-curvature="0"
   style="fill:#ffffff" />
		<path
   class="st1"
   d="m 272.8,669.6 -0.3,-0.8 c 0.1,-0.4 0.7,-1.6 1,-2.4 0.6,-1.3 0.8,-1.4 1.3,-1.3 l 0.7,0.1 0.3,-0.6 c -0.5,-0.2 -1.2,-0.4 -2.9,-1.2 -1.6,-0.7 -3.1,-1.5 -3.8,-1.8 l -0.3,0.7 1.3,0.8 c 0.6,0.5 0.6,0.9 0.2,1.8 -0.3,0.8 -0.9,2.1 -1.2,2.7 l -0.7,0.5 -1.1,-0.2 c -3,-1.3 -3.8,-5.1 -1.8,-9.5 2.2,-4.8 5.1,-5.2 7.3,-4.3 1.3,0.6 2.3,1.3 2.8,2.4 0.4,0.7 0.3,1.7 -0.2,3.2 l 0.8,0.3 c 0.5,-1.2 1.6,-3 2.2,-3.7 -1,-0.6 -2.5,-1.7 -4.5,-2.7 -2.1,-1 -3.6,-1.2 -5.1,-1.3 -3.1,-0.1 -5.8,1.7 -7.2,4.8 -2.3,5.3 -0.3,9 4.9,11.3 2.1,1 4.8,1.4 5.9,1.5 z"
   id="path98"
   inkscape:connector-curvature="0"
   style="fill:#ffffff" />
		<path
   class="st1"
   d="m 285.6,676.2 c 0.8,-0.6 2.4,-2.7 2.9,-3.4 l -0.6,-0.5 c -1.3,1.1 -2.4,1.9 -3.2,2.1 l -1.4,-0.1 c -2,-0.9 -4,-1.8 -4.3,-2.1 V 672 c 2.3,-1.6 11.4,-8.4 13,-9.5 l 0.1,-0.5 c -0.9,-0.4 -2.7,-1.1 -4,-1.7 l -4.8,-2.1 c -0.7,-0.3 -1.3,-0.6 -1.7,-1 l -0.5,-0.3 c -0.7,1.2 -1.6,2.5 -2.5,3.7 l 0.6,0.5 c 0.8,-0.7 1.4,-1.3 2,-1.7 l 1.6,-0.3 c 1,0.3 4,1.7 4.9,2.1 v 0.1 c -1.5,1.3 -11.2,8.2 -13.4,9.4 l -0.1,0.5 c 0.5,0.2 1.6,0.6 2.3,0.9 2,0.9 5,2.4 7.5,3.5 0.9,0.7 1.3,0.8 1.6,0.6 z"
   id="path100"
   inkscape:connector-curvature="0"
   style="fill:#ffffff" />
		<path
   class="st1"
   d="m 302.4,682.9 c -0.3,-0.3 -0.2,-0.7 0.1,-1.5 0.4,-1.1 1.2,-2.8 1.9,-4.4 1.5,-3.4 1.9,-4.3 2.7,-6 0.3,-0.7 0.6,-0.8 1.1,-0.7 l 1.1,0.2 0.3,-0.6 c -0.6,-0.3 -1.4,-0.5 -3.2,-1.3 -1.8,-0.8 -2.6,-1.3 -3.5,-1.6 l -0.3,0.6 1.1,0.7 0.2,1 c -0.5,1.3 -1.4,3.4 -1.9,4.6 l -0.2,0.1 c -0.4,-0.1 -1.3,-0.5 -2.6,-1.1 -2.7,-1.2 -2.9,-1.3 -3.1,-1.5 l -0.1,-0.2 c 0.6,-1.3 1.3,-2.9 1.8,-4.1 0.4,-0.8 0.7,-1 1.2,-1 l 1.1,0.3 0.3,-0.6 c -0.7,-0.3 -1.6,-0.6 -3.4,-1.4 -1.8,-0.8 -2.9,-1.4 -3.4,-1.6 l -0.3,0.6 1.1,0.7 c 0.4,0.4 0.4,0.7 0.1,1.5 -0.3,0.7 -1.4,3.2 -2.4,5.5 -0.9,2.1 -1.9,4.2 -2.1,4.6 -0.5,1.1 -0.9,1.3 -1.5,1.2 l -1.1,-0.3 -0.3,0.7 c 0.5,0.2 1.7,0.7 3.4,1.4 2,0.9 3.1,1.5 3.5,1.7 l 0.3,-0.6 -1.1,-0.8 c -0.5,-0.4 -0.4,-0.8 -0.1,-1.6 0.5,-1.2 1.3,-3 1.9,-4.4 l 0.2,-0.1 c 0.1,0 0.3,0.1 3.1,1.3 1,0.5 2.2,1 2.7,1.2 l 0.1,0.2 c -0.7,1.5 -1.5,3.4 -2,4.5 -0.4,0.9 -0.8,1.1 -1.3,1 l -1.1,-0.3 -0.3,0.6 c 0.5,0.2 2.2,0.9 3.6,1.5 1.5,0.6 2.7,1.3 3.3,1.6 l 0.4,-0.6 c -0.7,-0.5 -1,-0.7 -1.3,-1 z"
   id="path102"
   inkscape:connector-curvature="0"
   style="fill:#ffffff" />
		<path
   class="st1"
   d="m 337.8,692.5 c 0.7,-1.5 2.4,-5 2.8,-5.8 0.6,-1.1 0.9,-1.3 1.6,-1.2 l 1,0.2 0.3,-0.6 c -0.6,-0.3 -1.2,-0.4 -2.7,-1.1 -1.1,-0.5 -1.9,-0.9 -2.7,-1.3 l -0.3,0.6 1.1,0.7 c 0.7,0.5 0.8,1 0.4,2 -0.6,1.6 -2.3,5.5 -3.2,7.2 -1.6,3 -3.6,2.8 -5.2,2.1 -2.3,-1 -3,-2.6 -2.6,-4.4 0.2,-0.9 0.6,-2 1.1,-3 0.5,-1.2 1.7,-4 2.5,-5.6 0.3,-0.7 0.8,-1 1.4,-0.9 l 1.1,0.3 0.3,-0.6 c -0.8,-0.3 -1.9,-0.8 -3.6,-1.5 -1.6,-0.7 -2.7,-1.3 -3.5,-1.6 l -0.3,0.6 1,0.7 c 0.5,0.4 0.5,0.9 0.2,1.6 -1.5,3.5 -3,6.7 -3.6,8.5 -0.7,2.4 -0.2,5 4,6.9 3.6,1.5 6.7,0.9 8.9,-3.8 z"
   id="path104"
   inkscape:connector-curvature="0"
   style="fill:#ffffff" />
		<path
   class="st1"
   d="m 390.7,706.1 v -0.2 c -0.3,-0.1 -1.1,-0.3 -2.7,-1 l -5.2,-2.3 c -1.7,-0.8 -2.8,-1.3 -3.5,-1.6 l -0.3,0.6 1.1,0.8 c 0.5,0.3 0.6,0.5 0.2,1.4 -0.4,0.9 -1,2.4 -2.2,5.1 -0.6,1.4 -2.2,4.8 -2.5,5.4 -0.3,0.7 -0.6,1 -1.2,0.8 l -1.1,-0.3 -0.3,0.6 c 1.4,0.6 2.4,1 3.7,1.5 1.3,0.6 2.2,1.1 3.5,1.6 l 0.4,-0.6 -1.2,-0.8 c -0.5,-0.3 -0.6,-0.7 -0.2,-1.7 0.6,-1.3 1.1,-2.6 1.8,-4.1 l 0.2,-0.1 c 0.7,0.3 2.8,1.3 3.3,1.6 0.3,0.2 0.6,0.4 0.5,1 l -0.2,1.2 0.7,0.2 c 0.3,-0.7 0.7,-1.6 1,-2.3 0.4,-0.9 0.9,-1.8 1.2,-2.4 l -0.7,-0.3 -0.8,1 c -0.3,0.4 -0.7,0.4 -1.4,0.2 -0.8,-0.3 -2.5,-1 -3.2,-1.3 l -0.1,-0.2 c 0.9,-1.9 1.8,-4 2.3,-5.1 l 0.4,-0.3 c 0.4,0.1 2.7,1.1 3.4,1.5 l 0.7,1 c 0.1,0.6 -0.1,1.3 -0.3,2.3 l 0.7,0.3 c 0.8,-1.7 1.5,-2.9 2,-3.5 z"
   id="path106"
   inkscape:connector-curvature="0"
   style="fill:#ffffff" />
		<path
   class="st1"
   d="m 421.1,712.7 0.7,-0.4 c -0.3,-0.7 -0.7,-1.6 -1.1,-2.3 -0.4,-0.9 -0.8,-1.8 -1,-2.5 l -0.7,0.3 0.2,1.3 c 0,0.5 -0.1,0.8 -0.8,1.1 -0.7,0.4 -2.4,1.1 -3.1,1.4 l -0.2,-0.1 c -0.8,-1.9 -1.8,-4 -2.2,-5.2 l 0.1,-0.5 c 0.4,-0.3 2.7,-1.2 3.3,-1.5 l 1.2,0.1 c 0.5,0.4 1,0.9 1.5,1.8 l 0.7,-0.3 c -0.7,-1.7 -1.1,-3 -1.2,-3.8 l -0.2,-0.1 c -0.3,0.2 -1,0.6 -2.6,1.3 l -5.2,2.3 c -1.7,0.7 -2.9,1.2 -3.5,1.5 l 0.2,0.7 1.3,-0.3 c 0.5,-0.1 0.8,-0.1 1.2,0.8 0.5,0.9 1.1,2.4 2.3,5.1 0.6,1.4 2.1,4.9 2.3,5.4 0.3,0.7 0.3,1.1 -0.2,1.5 l -1,0.6 0.3,0.6 c 1.4,-0.6 2.4,-1.1 3.6,-1.7 1.3,-0.6 2.3,-0.9 3.5,-1.5 l -0.2,-0.7 -1.4,0.4 c -0.6,0.1 -0.9,0 -1.4,-1 -0.6,-1.3 -1.2,-2.6 -1.9,-4.1 l 0.1,-0.2 c 0.7,-0.3 2.8,-1.2 3.4,-1.4 l 1.1,0.3 z"
   id="path108"
   inkscape:connector-curvature="0"
   style="fill:#ffffff" />
		<path
   class="st1"
   d="m 469.4,696.7 c 1.5,-0.7 2.7,-1.1 3.6,-1.5 l -0.2,-0.6 c -0.8,0.2 -1,0.3 -1.5,0.3 l -1.2,-0.8 c -0.8,-1.5 -3.5,-7.8 -5,-11.1 v -0.2 c 0.2,-0.1 1.9,-0.9 2.6,-1.1 l 1.3,0.3 c 0.5,0.4 0.9,1.1 1.4,1.8 l 0.7,-0.3 c -0.6,-1.5 -1.1,-3.3 -1.2,-4.2 l -0.2,-0.1 c -0.6,0.5 -1.2,0.9 -2.4,1.4 l -8.4,3.7 c -0.6,0.3 -1.4,0.6 -2.3,0.6 l -0.1,0.2 c 0.4,1 1.1,3 1.3,4 l 0.8,-0.1 c -0.1,-0.8 -0.1,-1.7 0,-2.4 0.1,-0.6 0.3,-1 0.8,-1.3 l 2.4,-1.1 0.2,0.1 c 1.6,3.6 3.8,8.4 4.7,10.8 0.4,1.1 0.4,1.5 -0.2,1.9 l -1.4,0.9 0.3,0.6 c 0.7,-0.3 1.8,-0.8 4,-1.8 z"
   id="path110"
   inkscape:connector-curvature="0"
   style="fill:#ffffff" />
		<path
   class="st1"
   d="m 518.6,674.6 c 0.1,-1.1 -0.3,-4.1 -0.5,-4.8 l -0.7,0.1 c 0,1.2 -0.2,2.8 -0.4,3.6 -0.2,0.8 -0.6,1 -1,1.3 -1,0.5 -2.4,1 -3,1.2 l -0.8,-0.5 c -0.3,-0.6 -1.7,-3.6 -2.7,-6 -1,-2.3 -1.8,-4.2 -1.9,-4.5 -0.2,-0.7 -0.3,-0.9 0.1,-1.3 l 0.9,-0.7 -0.3,-0.6 c -0.7,0.4 -1.7,0.8 -3.3,1.6 -2,0.9 -2.5,1 -3.4,1.4 l 0.3,0.6 1.2,-0.3 c 0.7,-0.1 0.9,0.3 1.1,0.7 0.5,0.9 1,2.2 2.2,4.9 1.3,2.9 2.3,5.3 2.5,5.9 0.2,0.6 0.2,1 -0.2,1.3 -0.3,0.3 -0.5,0.4 -1.2,0.8 l 0.3,0.6 c 1,-0.5 1.9,-0.9 3.5,-1.6 1.8,-0.8 4.1,-1.7 6,-2.6 1,-0.7 1.3,-0.9 1.3,-1.1 z"
   id="path112"
   inkscape:connector-curvature="0"
   style="fill:#ffffff" />
		<path
   class="st1"
   d="m 532,668.6 c 0.1,-1.1 -0.3,-4.1 -0.5,-4.8 l -0.7,0.1 c 0,1.2 -0.2,2.8 -0.4,3.6 -0.2,0.8 -0.6,1.1 -1,1.2 -1,0.5 -2.4,1 -3,1.2 l -0.8,-0.5 c -0.3,-0.6 -1.7,-3.6 -2.7,-6 -1,-2.3 -1.8,-4.1 -1.9,-4.5 -0.2,-0.7 -0.3,-0.9 0.1,-1.3 l 0.9,-0.7 -0.3,-0.6 c -0.7,0.4 -1.7,0.8 -3.3,1.6 -2,0.9 -2.5,1 -3.4,1.4 l 0.3,0.6 1.2,-0.3 c 0.7,-0.1 0.9,0.2 1.1,0.7 0.5,0.9 1,2.2 2.2,4.9 1.3,2.9 2.3,5.3 2.5,5.9 0.2,0.6 0.2,1 -0.2,1.3 -0.3,0.3 -0.5,0.4 -1.2,0.8 l 0.3,0.6 c 1,-0.5 1.9,-0.9 3.5,-1.6 1.8,-0.8 4.1,-1.7 6,-2.5 1.1,-0.6 1.3,-0.8 1.3,-1.1 z"
   id="path114"
   inkscape:connector-curvature="0"
   style="fill:#ffffff" />
		<path
   class="st1"
   d="m 555.8,658.2 c 0.5,-0.8 0.5,-3.1 0.4,-4.1 l -0.7,-0.1 c -0.1,1.1 -0.3,2.3 -0.7,3.1 -0.5,1 -1.4,1.6 -2.1,1.9 -3.7,1.7 -6.7,-1 -8.3,-4.5 -2,-4.4 -1,-7.2 1.5,-8.3 0.9,-0.4 2,-0.8 3.1,-0.6 1.2,0.1 1.9,1.1 2.6,2.2 l 0.7,-0.4 c -0.5,-1.2 -1.1,-3.3 -1.3,-4 -1.2,0.5 -3.2,1 -4.9,1.7 -2,0.9 -3.4,1.9 -4.4,3.2 -2,2.4 -2.1,5.5 -1,8.1 2.3,5.1 6.5,6.4 11.7,4 1.8,-0.9 2.7,-1.7 3.4,-2.2 z"
   id="path116"
   inkscape:connector-curvature="0"
   style="fill:#ffffff" />
		<path
   class="st1"
   d="m 570,651.7 c 0.2,-1.1 -0.3,-4.1 -0.5,-4.8 l -0.8,0.1 c 0,1.2 -0.2,2.8 -0.4,3.6 -0.2,0.8 -0.6,1.1 -1,1.2 -1,0.5 -2.4,1.1 -3,1.2 l -0.8,-0.5 c -0.3,-0.6 -1.7,-3.6 -2.7,-6 -1,-2.3 -1.8,-4.1 -1.9,-4.5 -0.2,-0.7 -0.3,-0.9 0.1,-1.3 l 1,-0.7 -0.3,-0.6 c -0.7,0.4 -1.7,0.8 -3.4,1.6 -2,0.9 -2.5,1 -3.4,1.4 l 0.3,0.6 1.2,-0.3 c 0.7,-0.1 0.9,0.3 1.1,0.7 0.5,0.9 1,2.2 2.2,4.9 1.3,2.9 2.3,5.3 2.5,5.9 0.2,0.6 0.2,1 -0.2,1.3 -0.3,0.3 -0.5,0.4 -1.2,0.8 l 0.3,0.6 c 1,-0.4 1.9,-0.9 3.5,-1.6 1.8,-0.8 4.1,-1.7 6,-2.5 1.2,-0.6 1.4,-0.8 1.4,-1.1 z"
   id="path118"
   inkscape:connector-curvature="0"
   style="fill:#ffffff" />
		<path
   class="st1"
   d="m 572.1,646.5 c 1.3,2.1 3.6,3.5 7.8,1.6 3.6,-1.6 5.2,-4.3 3.2,-9.1 -0.6,-1.6 -2.1,-5.1 -2.4,-6 -0.4,-1.2 -0.4,-1.6 0.1,-2 l 0.9,-0.6 -0.3,-0.6 c -0.6,0.3 -1.1,0.6 -2.7,1.3 -1.1,0.5 -2,0.8 -2.8,1.1 l 0.3,0.6 1.3,-0.3 c 0.8,-0.2 1.2,0.1 1.7,1.1 0.8,1.5 2.6,5.4 3.2,7.2 1.1,3.2 -0.3,4.6 -1.9,5.3 -2.3,1 -3.9,0.5 -5,-1 -0.5,-0.7 -1,-1.8 -1.5,-2.8 -0.5,-1.2 -1.8,-4 -2.5,-5.6 -0.3,-0.8 -0.2,-1.3 0.3,-1.6 l 0.9,-0.6 -0.3,-0.6 c -0.8,0.3 -1.9,0.9 -3.6,1.7 -1.6,0.7 -2.8,1.2 -3.5,1.5 l 0.3,0.6 1.2,-0.3 c 0.6,-0.1 1,0.2 1.3,0.8 1.6,3.4 3,6.7 4,8.3 z"
   id="path120"
   inkscape:connector-curvature="0"
   style="fill:#ffffff" />
		<polygon
   class="st1"
   points="547.1,690.9 547.1,690.8 "
   id="polygon122"
   style="fill:#ffffff" />
		<polygon
   class="st1"
   points="252.7,690.8 252.7,690.9 "
   id="polygon124"
   style="fill:#ffffff" />
	</g>
	<polygon
   class="st2"
   points="399.9,353.5 185.7,448.4 185.7,459.9 399.9,365.1 614.1,459.9 614.1,448.4 "
   id="polygon128"
   style="fill:#0067ac" />
	<polygon
   class="st2"
   points="399.9,329.5 185.7,424.3 185.7,435.8 399.9,341 614.1,435.9 614.1,424.4 "
   id="polygon130"
   style="fill:#0067ac" />
	<polygon
   class="st2"
   points="399.9,305.5 185.7,400.3 185.7,411.8 399.9,317 614.1,411.9 614.1,400.3 "
   id="polygon132"
   style="fill:#0067ac" />
	<path
   class="st2"
   d="m 626,607.3 v 55.9 l -70.7,31.5 c 0,0 0.3,11 14.3,9.5 14,-1.5 71.6,-18 122.6,13.5 0,0 -7.5,-25.8 -42.5,-54.9 23,-26.1 54.1,-20.1 54.1,-20.1 0,0 -18.9,-30.7 -77.8,-35.4 z"
   id="path134"
   inkscape:connector-curvature="0"
   style="fill:#0067ac" />
	<path
   class="st2"
   d="m 173.6,607.3 v 55.9 l 70.7,31.5 c 0,0 -0.3,11 -14.3,9.5 -14,-1.5 -71.6,-18 -122.6,13.5 0,0 7.5,-25.8 42.5,-54.9 -23,-26.1 -54.1,-20.1 -54.1,-20.1 0,0 18.9,-30.7 77.8,-35.4 z"
   id="path136"
   inkscape:connector-curvature="0"
   style="fill:#0067ac" />
	<path
   class="st2"
   d="m 305.5,199.3 c 0,0 4.8,1.6 5.7,-8.2 h 6.5 l 13.2,-14 2.5,-13 c 0,0 -0.2,-0.3 -0.6,-0.8 -1.9,0.5 -7.6,2 -11.4,2.1 -7.3,0.1 5.4,-2.9 9.5,-3.9 -3.3,-2.6 -9.9,-5.7 -20.1,-1.3 -11,5.5 -11,15.7 -11,17.7 0,2 -19.4,12.8 -24,15.3 -4.7,2.5 -13.5,-3.7 -14.8,-4.3 -1.3,-0.7 -0.2,-1 3.7,-0.5 3.8,0.5 2.7,-4.3 -16.8,-7.8 -9.8,-1.8 -3.9,-4.5 -0.1,-4.3 0,2.3 4.9,3.2 6.5,-1.3 1.6,-4.5 -0.9,-5.8 -3.3,-5.8 -2.4,0 -3.3,2 -3.3,2 h -0.8 l -0.9,-0.2 -0.3,-0.9 h -5.2 c 0,0 -4.7,-9 7.2,-7.4 l 0.9,0.3 -0.4,-1.7 c 0,0 -1.8,-1.6 8.3,-1.2 3.8,-0.1 0.8,-7.6 3.2,-9.8 2.4,-2.3 -1.7,-7.4 -17.9,-11.9 -3.6,-1 -6.4,-4 -10.1,-4.1 -3.3,-0.1 -2.5,-10.4 -15.4,-11.4 -2,-0.2 -3.7,-0.3 -5.4,-0.4 0.9,2.2 2.6,4.8 5.6,5.8 5.8,2 6.7,5.5 7,7 -0.4,0.9 -1.4,0 -1.4,0 0,0 -1.4,-4.3 -6.4,-5.2 -4.7,-0.8 -6.3,-5.1 -7.1,-7.8 -7.9,-0.3 -12.6,0.4 -17.3,4.3 -2.4,1.9 -5.3,-2.6 -5.3,-2.6 0,0 -5.3,5.6 5.4,13.1 2.6,2.3 1.4,2.9 -4.8,-1.9 -4,-3.3 -3.6,-4.5 -8.3,0.9 -4.6,5.4 -6.4,9.3 -6.4,10.4 0,1.1 1.9,2 8.8,-1.9 6.9,-3.9 8.5,-1.8 0.4,2.1 -5.4,2.5 -10.8,6.1 -12,7.6 -1.3,1.5 -2.3,1.9 -2.9,2.1 -0.6,0.2 3.6,3.5 9.6,-2.5 6,-6 2.5,-0.6 -1.6,3.3 -4.1,3.9 -5.1,6.9 -4.3,9.3 0.8,2.4 0.5,-1.9 4.6,-4.1 4.1,-2.3 9.1,-3.8 10.8,-7.4 1.6,-3.6 1.5,-2.8 1.5,-0.8 0,2 -1.9,4.6 -8.3,9 -6.4,4.4 -6.5,8.6 -4.5,13.3 2,4.6 4.1,6 3.6,10.9 -0.5,4.9 -2.6,4.1 -2.6,4.1 0,0 2.5,5.3 8.6,5.5 0,0 1.5,-7.7 -1.2,-13.1 0,0 4.3,-2 3.8,12.8 0,0 5.5,4.8 5.5,15.8 0,0 3.8,1.5 5,-3 1.3,-4.5 0.5,-8.8 -5.3,-18.3 -5.8,-9.5 5.4,5.9 5.4,5.9 0,0 4.6,5.6 2,13 -1.1,4.3 -1.1,7.1 -1.1,7.1 0,0 5,-0.5 4.7,6.2 -0.1,2.7 -0.3,5.7 -0.3,8.3 l 1.4,-1.2 c 0,0 2.3,-0.9 0.8,1.5 -0.5,0.7 -1.2,1.5 -1.9,2.3 0.4,2.5 1.3,4.3 3.2,4.3 4.3,0.2 9.7,-3.7 8.2,-14.2 -1.3,-7.8 -6,-5.5 -7.2,-23 0,0 1.8,13.3 7.8,19.9 4.8,5.7 -1.2,18.2 -6.5,21 l -0.5,5.2 c 0,0 -17.9,14 -21,19.9 -3.2,5.8 -2,12.2 -2,12.2 0,0 -5.8,8.2 -12.8,2.7 -7,-5.5 -1.8,-15 1.3,-18.7 3.2,-3.7 17,-22.2 19.2,-33 2.2,-10.8 -3.3,-28 -19.4,-29.9 -16,-1.8 -20.5,1.8 -23.2,6.5 -2.7,4.7 3.2,6.8 -5.8,12.3 -2.5,1.8 3.7,3 8.7,-4.2 l 1,-1.2 0.3,2 c 0,0 -2.2,5.5 -11.3,7.3 -4.2,1 3.5,6.3 12.8,5.2 9.3,-1.2 18.5,-5.3 17,-21.5 0,0 19.7,2.8 12,24.2 -5.5,15.5 -19,29.5 -21.2,32.5 -2.2,3 -11.3,21.7 4.3,30.4 9.2,4.5 18.4,0 18.4,0 0,0 1.3,8.5 6.5,15.2 2.5,2.8 2,26 -6.5,36.7 -6.7,7.2 -5.3,11.7 -4.7,16.7 0.7,5 4.3,2.3 3.2,10.7 -2,0.2 -2.7,3.7 0.3,5.5 3,1.8 1.8,9.7 3.3,12.5 1.5,2.8 3.1,6.5 3.1,6.5 l 5.1,-2.2 -0.3,-0.9 c 0,0 0.1,-2.6 2.1,0.1 L 221,384.7 c 0,0 -2.8,0.8 -8.5,-4.9 -5.7,-5.7 -8.8,-5.7 -10.5,-5.5 0,0 -1.2,-4.3 -2,-7.3 -0.8,-3 1.4,-9.6 22.5,-28.8 9.4,-9.4 6.1,-23.8 6.1,-23.8 0,0 10.1,-8.6 12.5,-11 2.4,-2.4 6.5,-1.5 6.5,0.7 0,2.2 0.3,19.7 3.5,22.2 0.7,1.8 -7.5,3.3 -7.6,8.2 0,2.8 0.1,5.3 0.1,5.3 0,0 14.6,4.1 16.9,10.5 0,0 20.3,1.1 26.4,5.3 l 18.2,-8.1 c -4.1,-6.8 -12.5,-6.1 -12.5,-6.1 0,0 0.3,-2.8 6.5,-2 4.2,0.6 7.1,4.5 8.5,7 L 313,344 c 0,0 1.6,-13.5 -13,-13.6 -8,0 -10.4,3.1 -10.4,3.1 h -10.1 c 0,0 -18.3,-4.1 -7.3,-25.3 9.5,-21.9 1.1,-34.3 -2.8,-36.4 -3.9,-2.1 -15.4,-4.6 -23.1,1.3 0,0 6.1,-8.3 11.1,-10.8 5,-2.5 7.9,-4.6 9.2,-6.9 0,0 8.2,0.2 18.7,-1.4 -0.9,-1.3 -1.9,-2.8 -2.6,-4.3 -2.1,-4.5 1.3,-1.2 1.3,-1.2 l 3.9,5.1 c 4.5,-0.8 9.2,-1.8 13.9,-3.3 5.3,-2 4.5,-5.2 -5.3,-6.8 -3,-0.8 0.5,-4.1 7.8,0 4.1,2.5 4.6,4.9 4.6,4.9 0,0 5.4,0.3 8.4,-2 3,-2.3 0.3,-26.2 0.3,-26.2 H 313 c 0,0 -6.6,-2.6 -13.1,5.1 -3.1,3.1 -10.9,3.1 -10.9,3.1 0,0 -9.1,1.1 -12.1,2.5 -3,1.4 -0.3,-4.5 1.9,-4.8 2.2,-0.3 1.4,-1.6 0.1,-4 -1.3,-2.4 2.4,1.3 3.6,1 1.2,-0.3 -0.1,-2.6 -2.5,-4.5 -1.1,-0.9 -0.1,-1.1 3.6,-0.4 1.6,0.3 3.9,-3.5 5,-5.8 1.2,-2.3 2.3,0.2 4.8,-1.3 2.5,-1.5 11.8,-5.8 10.5,-14.8 h 0.6 z m 16.5,-28 1.8,-0.9 1.5,-0.8 h 1.2 1.4 l 0.3,0.7 -0.2,0.8 -1.4,0.3 -1.5,0.3 -1.3,0.6 -1.8,0.3 z m -3.2,8.5 0.7,-0.3 h 1 l 1.1,0.6 0.2,0.8 v 0.8 c 0,0 -0.7,0.5 -1,0.5 -0.3,0 -0.9,0.2 -1.3,0.1 -0.3,-0.1 -0.5,-0.8 -0.5,-0.8 l -0.8,-1.1 z M 199.3,141.9 c -4.1,3.4 -7.9,7.4 -5.4,9.8 2.5,2.4 5,2.8 5,2.8 0,0 -13.4,0.6 -6,-10 7.4,-10.6 14.9,-4.9 16.6,-1.6 0.1,-0.1 -6,-4.3 -10.2,-1 z m 9.6,22.3 c 0,0 -1.7,7.8 -2.7,4.8 -6.2,-20.2 11.2,-24.4 11.2,-24.4 -11.8,8.7 -9.7,16.8 -9.7,16.8 l 5.5,-3.8 c -6.2,7.8 6,19.7 6,19.7 -8.1,-3.7 -10.3,-13.1 -10.3,-13.1 z m 38.5,-18.1 c 0,0 1.3,1.1 4.7,1.1 3.4,0 4.4,1.8 4.5,2.5 v 1.3 c 0,0 -1,-0.8 -4.7,-1.3 -3.7,-0.4 -4.6,-2 -5.1,-2.8 -0.4,-0.9 0.6,-0.8 0.6,-0.8 z m -5.1,7.1 h 4.3 v 2 h -4.3 z m -6.5,-4 c -0.7,-1.7 -2.2,-2.3 -4,-2.3 -1.8,0 -6,-3.2 -2,-3 5.2,0.2 1.2,-3.3 1.2,-3.3 6,1.2 3.2,4.3 3.2,4.3 2.8,2 1.6,4.3 1.6,4.3 z m 2,8.8 c -1.5,-1.6 0.7,-1.3 0.7,-1.3 0,0 5.7,2.5 9.5,0.3 3.8,-2.2 0.3,1.8 0.3,1.8 0,0 -6.9,3.6 -10.5,-0.8 z m 76.9,78.4 -6.4,0.3 v -1.3 l 3,-0.9 2.3,-0.4 h 1.1 z m -3,-12.6 h 0.9 l 0.9,0.3 0.4,1.4 -0.5,1 -3.8,0.7 h -1.5 l -0.4,-0.7 z"
   id="path138"
   inkscape:connector-curvature="0"
   style="fill:#0067ac" />
	<path
   class="st2"
   d="m 495.5,196.1 h 0.6 c -1.3,9 8,13.3 10.5,14.8 2.5,1.5 3.7,-1 4.8,1.3 1.2,2.3 3.4,6.1 5,5.8 3.7,-0.6 4.6,-0.4 3.6,0.4 -2.4,1.9 -3.8,4.3 -2.5,4.5 1.3,0.2 4.9,-3.4 3.6,-1 -1.3,2.4 -2,3.8 0.1,4 2.1,0.3 4.9,6.1 1.9,4.8 -3,-1.4 -12.1,-2.5 -12.1,-2.5 0,0 -7.8,0 -10.9,-3.1 C 493.6,217.3 487,220 487,220 h -4.6 c 0,0 -2.8,23.9 0.3,26.2 3.1,2.3 8.4,2 8.4,2 0,0 0.5,-2.4 4.6,-4.9 7.3,-4.1 10.8,-0.8 7.8,0 -9.8,1.6 -10.6,4.9 -5.3,6.8 4.7,1.5 9.5,2.6 13.9,3.3 l 3.9,-5.1 c 0,0 3.3,-3.3 1.3,1.2 -0.7,1.5 -1.6,3 -2.6,4.3 10.5,1.5 18.7,1.4 18.7,1.4 1.3,2.3 4.2,4.4 9.2,6.9 5,2.5 11.1,10.8 11.1,10.8 -7.8,-5.9 -19.3,-3.4 -23.1,-1.3 -3.8,2.1 -12.3,14.5 -2.8,36.4 11,21.1 -7.3,25.3 -7.3,25.3 h -10.1 c 0,0 -2.4,-3.1 -10.4,-3.1 -14.6,0.1 -13,13.6 -13,13.6 l 5.4,2.4 c 1.4,-2.5 4.3,-6.5 8.5,-7 6.2,-0.8 6.5,2 6.5,2 0,0 -8.4,-0.6 -12.5,6.1 l 18.2,8.1 c 6.1,-4.2 26.4,-5.3 26.4,-5.3 2.3,-6.4 16.9,-10.5 16.9,-10.5 0,0 0.1,-2.5 0.1,-5.3 -0.1,-4.9 -8.3,-6.3 -7.6,-8.2 3.2,-2.5 3.5,-20 3.5,-22.2 0,-2.2 4.1,-3.1 6.5,-0.7 2.4,2.4 12.5,11 12.5,11 0,0 -3.3,14.3 6.1,23.8 21.1,19.1 23.3,25.8 22.5,28.8 -0.8,3 -2,7.3 -2,7.3 -1.7,-0.2 -4.8,-0.2 -10.5,5.5 -5.7,5.7 -8.5,4.9 -8.5,4.9 l 23.2,10.3 c 2,-2.7 2.1,-0.1 2.1,-0.1 l -0.3,0.9 5.1,2.2 c 0,0 1.6,-3.7 3.1,-6.5 1.5,-2.8 0.3,-10.7 3.3,-12.5 3,-1.8 2.3,-5.3 0.3,-5.5 -1.2,-8.3 2.5,-5.7 3.2,-10.7 0.7,-5 2,-9.5 -4.7,-16.7 -8.5,-10.7 -9,-33.9 -6.5,-36.7 5.2,-6.7 6.5,-15.2 6.5,-15.2 0,0 9.2,4.5 18.4,0 15.7,-8.7 6.5,-27.4 4.3,-30.4 -2.2,-3 -15.7,-17 -21.2,-32.5 -7.7,-21.4 12,-24.2 12,-24.2 -1.5,16.2 7.7,20.4 17,21.5 9.3,1.2 17,-4.2 12.8,-5.2 -9.2,-1.8 -11.3,-7.3 -11.3,-7.3 l 0.3,-2 1,1.2 c 5,7.2 11.2,6 8.7,4.2 -9,-5.5 -3.2,-7.7 -5.8,-12.3 -2.7,-4.7 -7.2,-8.3 -23.2,-6.5 -16,1.8 -21.5,19 -19.4,29.9 2.2,10.8 16,29.4 19.2,33 3.2,3.7 8.3,13.2 1.3,18.7 -7,5.5 -12.8,-2.7 -12.8,-2.7 0,0 1.2,-6.3 -2,-12.2 -3.2,-5.8 -21,-19.9 -21,-19.9 l -0.5,-5.2 c -5.3,-2.8 -11.3,-15.3 -6.5,-21 6,-6.5 7.8,-19.9 7.8,-19.9 -1.2,17.5 -5.8,15.2 -7.2,23 -1.5,10.5 3.8,14.3 8.2,14.2 2,-0.1 2.9,-1.8 3.2,-4.3 -0.7,-0.7 -1.4,-1.5 -1.9,-2.3 -1.5,-2.4 0.8,-1.5 0.8,-1.5 l 1.4,1.2 c 0.1,-2.6 -0.1,-5.6 -0.3,-8.3 -0.3,-6.7 4.7,-6.2 4.7,-6.2 0,0 0,-2.8 -1.1,-7.1 -2.6,-7.4 2,-13 2,-13 0,0 11.1,-15.4 5.4,-5.9 -5.8,9.5 -6.5,13.8 -5.3,18.3 1.3,4.5 5,3 5,3 0,-11 5.5,-15.8 5.5,-15.8 -0.5,-14.8 3.8,-12.8 3.8,-12.8 -2.8,5.4 -1.2,13.1 -1.2,13.1 6.1,-0.2 8.6,-5.5 8.6,-5.5 0,0 -2.1,0.8 -2.6,-4.1 -0.5,-4.9 1.6,-6.3 3.6,-10.9 2,-4.6 1.9,-8.9 -4.5,-13.3 -6.4,-4.4 -8.3,-7 -8.3,-9 0,-2 -0.1,-2.9 1.5,0.8 1.6,3.6 6.6,5.1 10.8,7.4 4.2,2.3 3.8,6.5 4.6,4.1 0.8,-2.4 -0.1,-5.4 -4.3,-9.3 -4.1,-3.9 -7.6,-9.3 -1.6,-3.3 6,6 10.3,2.8 9.6,2.5 -0.7,-0.3 -1.6,-0.6 -2.9,-2.1 -1.3,-1.5 -6.6,-5.1 -12,-7.6 -8.1,-3.9 -6.5,-6 0.4,-2.1 6.9,3.9 8.8,3 8.8,1.9 0,-1.1 -1.8,-5 -6.4,-10.4 -4.6,-5.4 -4.3,-4.1 -8.3,-0.9 -6.1,4.8 -7.4,4.1 -4.8,1.9 10.8,-7.5 5.4,-13.1 5.4,-13.1 0,0 -2.9,4.5 -5.3,2.6 -4.7,-3.9 -9.4,-4.6 -17.3,-4.3 -0.8,2.7 -2.4,6.9 -7.1,7.8 -5,0.9 -6.4,5.2 -6.4,5.2 0,0 -1.1,0.9 -1.4,0 0.3,-1.5 1.2,-5 7,-7 3,-1 4.7,-3.6 5.6,-5.8 -1.7,0.1 -3.5,0.2 -5.4,0.4 -12.8,1 -12.1,11.3 -15.4,11.4 -3.8,0.1 -6.5,3.1 -10.1,4.1 -16.3,4.5 -20.4,9.7 -17.9,11.9 2.4,2.3 -0.7,9.8 3.2,9.8 10.1,-0.4 8.3,1.2 8.3,1.2 l -0.4,1.7 0.9,-0.3 c 11.9,-1.6 7.2,7.4 7.2,7.4 h -5.2 l -0.3,0.9 -0.7,0.2 h -0.8 c 0,0 -1,-2 -3.3,-2 -2.3,0 -4.9,1.3 -3.3,5.8 1.6,4.5 6.5,3.7 6.5,1.3 3.8,-0.2 9.8,2.4 -0.1,4.3 -19.5,3.5 -20.7,8.3 -16.8,7.8 3.9,-0.5 5,-0.2 3.7,0.5 -1.3,0.7 -10.2,6.8 -14.8,4.3 -4.6,-2.5 -24,-13.3 -24,-15.3 0,-2 0,-12.2 -11,-17.7 -10.2,-4.4 -16.8,-1.3 -20.1,1.3 4,0.9 16.8,4 9.5,3.9 -3.8,-0.1 -9.5,-1.6 -11.4,-2.1 -0.4,0.5 -0.6,0.8 -0.6,0.8 l 2.5,13 13.2,14 h 6.5 c 0.8,9.8 5.7,8.2 5.7,8.2 z m -17.4,-23.6 -1.8,-0.3 -1.3,-0.6 -1.5,-0.3 -1.4,-0.3 -0.2,-0.8 0.3,-0.7 h 1.4 1.2 l 1.5,0.8 1.8,0.9 z m 3.8,7.8 -0.8,1.1 c 0,0 -0.2,0.8 -0.5,0.8 -0.3,0.1 -0.9,-0.1 -1.3,-0.1 -0.3,0 -1,-0.5 -1,-0.5 v -0.8 l 0.2,-0.8 1.1,-0.6 h 1 l 0.7,0.3 z m 108.6,-37.5 c 1.8,-3.3 9.3,-9 16.6,1.6 7.3,10.6 -6,10 -6,10 0,0 2.5,-0.4 5,-2.8 2.5,-2.4 -1.3,-6.4 -5.4,-9.8 -4.1,-3.4 -10.2,1 -10.2,1 z m -9.6,34.6 c 0,0 12.2,-11.8 6,-19.7 l 5.5,3.8 c 0,0 2.2,-8.2 -9.7,-16.8 0,0 17.4,4.2 11.2,24.4 -1,3 -2.7,-4.8 -2.7,-4.8 0,0 -2.2,9.3 -10.3,13.1 z m -27.6,-30.5 c -0.5,0.8 -1.4,2.4 -5.1,2.8 -3.7,0.4 -4.7,1.3 -4.7,1.3 v -1.3 c 0.1,-0.7 1.1,-2.5 4.5,-2.5 3.4,0 4.7,-1.1 4.7,-1.1 0,0 1.1,-0.1 0.6,0.8 z m 4.5,8.3 h -4.3 v -2 h 4.3 z m 8.2,-10.3 c 0,0 -2.8,-3.1 3.2,-4.3 0,0 -4,3.5 1.2,3.3 4,-0.2 -0.2,3 -2,3 -1.8,0 -3.3,0.7 -4,2.3 -0.1,0 -1.3,-2.3 1.6,-4.3 z m -14.2,14 c 0,0 -3.5,-4 0.3,-1.8 3.8,2.2 9.5,-0.3 9.5,-0.3 0,0 2.2,-0.3 0.7,1.3 -3.6,4.3 -10.5,0.8 -10.5,0.8 z m -66.4,75.3 h 1.1 l 2.3,0.4 3,0.9 v 1.3 l -6.4,-0.3 z m 7,-7.8 -0.4,0.7 h -1.5 l -3.8,-0.7 -0.5,-1 0.4,-1.4 0.9,-0.3 h 0.9 z"
   id="path140"
   inkscape:connector-curvature="0"
   style="fill:#0067ac" />
	<path
   class="st0"
   d="m 494.7,74.1 c -36.4,7.2 -40.2,32 -40.2,32 12.6,-1.2 8,13.2 -3.7,10.2 -10.6,-2.7 -9.5,-13.6 -9.2,-15.7 4.5,-0.8 7.9,-4.7 7.9,-9.4 0,-5.3 -4.3,-9.6 -9.6,-9.6 -5.3,0 -9.6,4.3 -9.6,9.6 0,3.6 2,6.7 4.9,8.4 -4.9,14.2 -13.9,13.7 -17.8,13.7 -3.8,0 -13.2,-4.5 -10.2,-11.3 4.2,-6.3 12,-0.8 12,-0.8 -2.3,-35.7 -19.4,-51.9 -19.4,-51.9 0,0 -17,16.2 -19.4,51.9 0,0 7.8,-5.5 12,0.8 3,6.8 -6.3,11.3 -10.2,11.3 -3.8,0 -12.9,0.5 -17.8,-13.7 2.9,-1.6 4.9,-4.8 4.9,-8.4 0,-5.3 -4.3,-9.6 -9.6,-9.6 -5.3,0 -9.6,4.3 -9.6,9.6 0,4.7 3.4,8.6 7.9,9.4 0.3,2.1 1.3,13 -9.2,15.7 -11.7,3 -16.3,-11.4 -3.7,-10.2 0,0 -3.8,-24.9 -40.2,-32 -3.9,-0.8 13.1,15.2 20.8,27.9 7.7,12.7 9,16.7 10.2,19.7 1.2,3 17.2,17.2 28.5,-5.8 0,0 14.8,17.9 35.5,-5.7 20.7,23.5 35.5,5.7 35.5,5.7 11.3,23 27.4,8.8 28.5,5.8 1.2,-3 2.5,-7 10.2,-19.7 7.7,-12.7 24.7,-28.7 20.6,-27.9 z"
   id="path142"
   inkscape:connector-curvature="0"
   style="fill:#f6b800" />
	<g
   id="g148">
		<path
   class="st2"
   d="m 399.9,131 c -48.4,0 -87.6,39.2 -87.6,87.6 0,48.4 39.2,87.6 87.6,87.6 48.4,0 87.6,-39.2 87.6,-87.6 0,-48.4 -39.2,-87.6 -87.6,-87.6 z m -24.4,161.2 14.1,-6.2 -19.4,-28 -31.9,-7.7 v 15.4 c -9.8,-12.8 -15.8,-28.8 -16,-46.1 l 10.2,11 20,-25.7 v -33.4 l -17.2,4.2 c 9.8,-14.7 24.4,-25.9 41.6,-31.2 v 0 l -8.3,13 31.4,12 31.7,-12.5 -8.1,-12.3 c 16.8,5.4 31.2,16.4 40.9,30.8 l -16.3,-4 v 33.4 l 20,25.7 9.4,-10.2 c -0.4,16.7 -6.1,32.1 -15.5,44.6 v -14.8 l -31.9,7.7 -19.4,28 13.9,6.1 c -7.8,2.6 -16.1,4.1 -24.7,4.1 -8.6,0.1 -16.8,-1.3 -24.5,-3.9 z"
   id="path144"
   inkscape:connector-curvature="0"
   style="fill:#0067ac" />
		<polygon
   class="st2"
   points="380.7,244.6 399.9,244.6 419.1,244.6 431.1,208.9 399.9,184.9 368.7,208.9 "
   id="polygon146"
   style="fill:#0067ac" />
	</g>
</g>
</svg>