<?xml version="1.0" encoding="UTF-8" standalone="no"?>
<svg
   xmlns:dc="http://purl.org/dc/elements/1.1/"
   xmlns:cc="http://creativecommons.org/ns#"
   xmlns:rdf="http://www.w3.org/1999/02/22-rdf-syntax-ns#"
   xmlns:svg="http://www.w3.org/2000/svg"
   xmlns="http://www.w3.org/2000/svg"
   viewBox="0 0 793.92706 1122.5195"
   height="376.016276743"
   width="265.945934219"
   xml:space="preserve"
   id="svg2"
   version="1.1"><metadata
     id="metadata8"><rdf:RDF><cc:Work
         rdf:about=""><dc:format>image/svg+xml</dc:format><dc:type
           rdf:resource="http://purl.org/dc/dcmitype/StillImage" /></cc:Work></rdf:RDF></metadata><defs
     id="defs6" /><g
     transform="matrix(1.3333333,0,0,-1.3333333,0,1122.5195)"
     id="g10"><path
       id="path12"
       style="fill:#216845;fill-opacity:1;fill-rule:nonzero;stroke:none"
       d="m 94.26904,173.98047 c 32.47168,0 38.01563,26.92773 38.06934,51.74512 v 20.45703 c 0.0518,12.40527 -5.86182,14.39062 -11.93359,14.39062 H 91.5625 90.62598 v 10.99805 c -0.03467,9.50488 -3.74952,11.70508 -3.74952,11.70508 H 59.95068 c 0,0 2.30371,-2.2002 2.16358,-8.71094 v -34.7168 l -0.01026,-0.3955 c 17.521,0 25.94043,0 41.31397,0 l 0.4082,0.0156 V 217.541 c 0.0518,-17.68848 -9.29346,-22.44043 -18.00342,-22.44043 -6.86621,0 -8.71386,3.03613 -8.71386,3.03613 v -21.15137 c 0,0 2.24365,-2.74023 17.16015,-3.00488 z" /><path
       id="path14"
       style="fill:#216845;fill-opacity:1;fill-rule:nonzero;stroke:none"
       d="m 259.79639,462.18164 c -4.57422,23.58301 -22.87891,86.23877 -22.87891,86.23877 -53.15283,14.43164 -127.42334,36.96045 -127.42334,36.96045 -11.61572,-11.96875 -28.51221,-11.61621 -35.55371,-5.28027 -7.03906,6.33593 -5.63037,19.00781 4.92969,21.47265 10.55957,2.46436 23.58252,-1.40869 23.58252,-1.40869 11.61621,-1.40869 37.3125,-5.63135 37.3125,-5.63135 0,0 55.26269,67.58252 154.87988,70.39893 99.61572,2.81641 195.35889,-68.64014 195.35889,-184.09522 0,-122.49609 -76.03125,-183.04003 -161.91993,-211.19921 v -59.13672 l -40.83105,-46.28809 -34.84814,35.90332 18.31884,21.34375 c 0,0 -171.43896,136.00098 -186.22314,149.20117 -14.78369,13.19922 15.83984,43.29492 30.62451,28.51172 7.03076,-7.03125 50.54932,-50 91.36865,-90.27734 l 53.30274,153.28613 M 425.23535,359.04492 c 28.86524,58.43262 23.94824,126.37158 19.00781,148.896 -17.59961,80.25586 -87.93652,133.59131 -168.25341,132 -71.10498,-1.40869 -116.86377,-48.57617 -116.86377,-48.57617 34.14453,-6.6875 112.63916,-21.47168 112.63916,-21.47168 -1.40869,8.80078 -4.57618,15.13623 -4.57618,15.13623 0,0 -6.33642,-0.35205 -9.5039,1.40722 -3.16846,1.75928 -4.92774,6.68897 -5.63086,16.19287 -0.70361,9.50391 -0.70557,12.67188 -0.70557,12.67188 -1.91357,0.38281 -4.45068,0.86914 -6.36865,1.2334 -1.61133,0.30615 -2.12256,2.30078 -1.74268,3.20605 0.98975,2.37207 2.15528,4.76123 3.13868,6.67871 1.21484,2.36914 3.39697,4.14112 5.66552,4.21924 4.3501,0.1499 12.48047,0.12988 22.89209,-1.25781 15.83985,-2.11182 19.00782,-11.26416 19.36084,-25.34375 0.35254,-14.08008 -2.81787,-17.60059 -2.81787,-17.60059 3.16846,-7.39209 11.96875,-21.11963 11.96875,-21.11963 14.43067,-0.70459 63.36035,-6.33642 63.36035,-6.33642 l -28.16211,33.79199 c -11.26464,-1.40869 -19.35839,3.16797 -20.06445,13.37647 -0.70508,10.208 9.50488,18.30322 20.06445,15.84033 10.56055,-2.46387 11.44043,-18.47998 11.44043,-18.47998 l 73.39258,-63.88867 -92.57617,-9.15235 c 0,0 -13.72754,-28.86377 -18.65527,-39.42334 -4.92676,-10.56006 -18.30371,-26.04834 -18.30371,-26.04834 0,0 15.13672,-1.40771 20.06347,-2.46338 0,0 32.03125,-151.71191 35.55078,-167.55175 0,0 52.39258,16.92089 75.67969,64.06347 m -140.09472,57.55176 -70.14551,-116.0918 c 35.58447,-35.1123 66.91552,-66.01269 66.91552,-66.01269 l 44.06104,51.33594 c 0,0 4.62402,1.07031 12.0293,3.69726 z" /><path
       id="path16"
       style="fill:#216845;fill-opacity:1;fill-rule:nonzero;stroke:none"
       d="m 355.01172,208.38965 c -10.76172,5.66894 -9.03809,15.8457 -6.16016,21.12012 3.16699,5.80761 13.39746,9.02929 13.39746,9.02929 -14.47265,-1.44726 -16.958,-4.10254 -16.958,-4.10254 v 20.417 c 0,0 4.44043,5.45507 39.11328,5.71972 14.95898,0.0879 19.90722,-0.0928 26.76074,-3.78711 8.83789,-5.64941 13.29687,-17.14941 13.32617,-31.32519 0.2168,-24.81543 -0.31348,-51.21582 -42.9043,-51.48047 -32.73535,0.26465 -36.29589,8.18457 -36.29589,8.18457 v 20.94434 c 0,0 4.61621,-8.80079 30.3125,-8.44825 21.47265,0.35059 20.41699,12.84766 20.37597,29.91895 -0.041,13.20019 -4.71094,14.78418 -12.80859,14.87305 -5.63086,-0.0889 -11.56836,-2.36622 -10.03223,-9.76758 1.9375,-9.3291 14.08106,-3.34473 14.08106,-3.34473 v -16.65625 c 0,0 -15.84082,-9.91894 -32.20801,-1.29492 z" /><path
       id="path18"
       style="fill:#216845;fill-opacity:1;fill-rule:nonzero;stroke:none"
       d="m 393.46094,110.17578 c -8.99024,4.99902 -7.54883,13.97461 -5.14844,18.62598 2.64844,5.12304 11.19336,7.96289 11.19336,7.96289 -12.09082,-1.27637 -14.16504,-3.61719 -14.16504,-3.61719 v 18.00781 c 0,0 3.70996,4.81153 32.67188,5.04493 12.49609,0.0781 16.62988,-0.083 22.35546,-3.34082 7.38379,-4.98145 11.10645,-15.125 11.12891,-27.62793 0.18164,-21.88965 -0.26172,-45.17286 -35.83789,-45.40528 -27.34668,0.23242 -30.31836,7.2168 -30.31836,7.2168 v 18.47461 c 0,0 3.85449,-7.7627 25.31836,-7.45117 17.93848,0.30957 17.05566,11.33105 17.02051,26.38672 -0.0322,11.64355 -3.9336,13.04003 -10.69824,13.11816 -4.70508,-0.0781 -9.66309,-2.08496 -8.37793,-8.61524 1.61718,-8.22753 11.75976,-2.94726 11.75976,-2.94726 v -14.69336 c 0,0 -13.23047,-8.74707 -26.90234,-1.13965 z" /><path
       id="path20"
       style="fill:#216845;fill-opacity:1;fill-rule:nonzero;stroke:none"
       d="m 500.21191,173.98047 h -17.07128 v 50.07129 c 0,14.60742 -8.80176,15.3125 -16.01563,15.40137 h -12.93848 c -13.20019,0 -19.88574,-9.41504 -19.88574,-9.41504 v 23.75781 c 0,0 3.43164,6.68848 21.73633,6.77734 h 28.8623 c 19.18555,-0.0889 26.75293,-9.7666 26.75293,-24.72754 v -49.10644 c 0,-5.10254 -2.81738,-12.84766 -11.44043,-12.75879 m -37.39941,11.87988 v 26.40039 c 0.0879,7.56739 5.01563,11.79102 5.01563,11.79102 h -17.07032 c -7.9209,-0.17578 -16.36914,-3.51856 -16.45703,-16.19043 v -33.88086 h 17.5127 c 8.97558,-0.0889 10.91015,3.60742 10.99902,11.87988 z" /><path
       id="path22"
       style="fill:#216845;fill-opacity:1;fill-rule:nonzero;stroke:none"
       d="m 139.77197,260.16895 c 3.0044,-6.39844 6.66553,-16.08204 10.02539,-30.13086 3.41162,-14.27246 5.66993,-26.60059 6.95264,-34.34082 l 0.0513,-0.48926 c -14.50928,0.97168 -18.52734,7.90137 -18.52734,7.90137 v -22.17579 c 0,0 4.30664,-6.86328 34.40283,-6.95312 36.78271,-0.0889 48.04834,19.44824 48.0542,48.66504 v 23.40722 c 0.004,11.0879 -6.51758,14.52051 -6.51758,14.52051 h -28.68945 c 0,0 6.69921,-4.3125 6.69482,-12.23242 v -27.2793 c 0.004,-21.51464 -6.73389,-25.2041 -22.83984,-25.833 0,0 6.44287,6.8955 8.57763,9.99218 3.521,5.10547 4.22412,12.14453 -0.42871,31.44825 -4.45508,18.47265 -9.77832,23.90429 -9.77832,23.90429 h -28.20263 l 0.22509,-0.40429 z" /><path
       id="path24"
       style="fill:#216845;fill-opacity:1;fill-rule:nonzero;stroke:none"
       d="m 291.479,264.35742 h -22.17871 v 71.45508 c 0,11.08789 -5.80761,13.90332 -5.80761,13.90332 h 26.22461 c 0,0 8.97558,-2.46484 8.80078,-14.25488 v -54.91309 c 0,-13.375 -7.03907,-16.19043 -7.03907,-16.19043 z" /><path
       id="path26"
       style="fill:#216845;fill-opacity:1;fill-rule:nonzero;stroke:none"
       d="m 483.30957,79.82617 c 35.57617,0.23242 36.01953,23.51563 35.83789,45.40528 -0.0225,12.50293 -3.74609,22.64648 -11.12988,27.62793 -5.72461,3.25781 -9.8584,3.41894 -22.35547,3.34082 -22.58594,-0.25977 -27.51367,-5.01172 -27.51367,-5.01172 v -19.8877 c 0,0 5.63086,6.33692 19.35937,6.51172 13.72754,0.17578 17.86719,-4.7168 17.82227,-13.35937 0.0342,-15.05567 0.91797,-26.07715 -17.02051,-26.38672 -13.64941,-0.38086 -20.16113,7.36328 -20.16113,7.36328 V 86.24414 c 0,0 4.91406,-6.50098 25.16113,-6.41797 z" /><path
       id="path28"
       style="fill:#216845;fill-opacity:1;fill-rule:nonzero;stroke:none"
       d="m 370.32324,79.82617 h -18.25976 l -0.41602,-0.0049 v 44.63184 c 0.0449,8.64257 -4.10254,13.90136 -17.82129,13.35937 -8.91015,-0.35156 -15.95019,-7.3916 -15.95019,-7.3916 v 19.88867 c 0,0 8.25683,5.97266 24.10547,5.89063 12.49609,0.0781 16.6289,-0.083 22.35449,-3.34082 7.38379,-4.98145 11.10644,-15.125 11.12988,-27.62793 V 90.91014 c 0.006,-8.36231 -5.14258,-11.08399 -5.14258,-11.08399 z" /><path
       id="path30"
       style="fill:#216845;fill-opacity:1;fill-rule:nonzero;stroke:none"
       d="m 180.42139,99.71191 h 9.68164 c 5.63232,-0.08398 7.55468,3.07813 7.55468,3.07813 V 90.91016 c 0.006,-8.36231 -5.1416,-11.08399 -5.1416,-11.08399 h -56.10009 v 14.60742 c -0.004,3.61426 1.76513,5.36329 7.04785,5.27832 h 17.59912 c 5.45264,0.08497 8.55078,5.04786 8.58594,24.74122 0.0454,8.64257 -4.10254,13.90136 -17.82178,13.35937 -8.91016,-0.35156 -15.94971,-7.3916 -15.94971,-7.3916 v 19.88867 c 0,0 8.25635,5.97266 24.10449,5.89063 12.49707,0.0781 16.62989,-0.083 22.35547,-3.34082 7.38379,-4.98145 11.10694,-15.125 11.1294,-27.62793 -0.19825,-11.53125 -2.83789,-15.22754 -7.59034,-19.9795 -3.5371,-3.53711 -5.45507,-5.54004 -5.45507,-5.54004 z" /><path
       id="path32"
       style="fill:#216845;fill-opacity:1;fill-rule:nonzero;stroke:none"
       d="m 81.43408,97.64355 v 23.86329 l 27.53028,-41.68067 h 18.38671 c 0,0 2.91016,5.18653 -2.83789,14.49903 l -12.44726,18.86132 c 0,0 9.56982,6.49707 12.20996,11.60157 2.64014,5.10449 3.52051,6.33789 3.52051,15.48925 0,13.90332 -6.15821,15.92286 -6.15821,15.92286 H 98.75684 c 0,0 4.9497,-4.13379 5.02636,-11.34864 V 125.7373 l -13.09521,19.84473 c -5.13135,8.07129 -9.8833,10.53516 -18.85938,10.53516 -8.97607,0 -13.90332,-4.57617 -13.90332,-4.57617 v -15.32813 c 0,0 2.59473,2.13184 7.91992,1.95215 5.27979,-0.17676 9.5044,-8.27246 9.5044,-8.27246 0,0 -4.92773,-2.81445 -10.91309,-8.62305 -5.98291,-5.80859 -6.16064,-9.32715 -6.16064,-17.95215 0,-8.62597 2.99316,-23.40918 15.31201,-23.40918 12.32178,0 14.34473,0.40039 14.16943,17.64844 z" /><path
       id="path34"
       style="fill:#216845;fill-opacity:1;fill-rule:nonzero;stroke:none"
       d="m 205.94043,111.41309 c -0.17529,18.83203 18.1543,25.35156 18.1543,25.35156 -12.09034,-1.27637 -17.99707,-3.61719 -17.99707,-3.61719 v 18.00781 c 0,0 7.54248,4.81153 36.5039,5.04493 18.60352,-0.083 33.40186,-5.53418 33.48291,-30.96875 0.18116,-21.88965 -0.27002,-44.97071 -35.83593,-45.40528 -27.47071,-0.08301 -34.13038,12.75391 -34.30811,31.58692 m 46.46436,9.15039 c 0,15.66504 -2.2876,16.72168 -7.56739,17.07422 -4.7539,0.31738 -10.9126,0 -10.9126,0 0,0 -2.99072,-0.70606 -2.81542,-4.40137 v -24.99121 c 0,-5.63379 0.70312,-10.38477 8.44824,-10.38477 7.74463,0 12.84717,2.28711 12.84717,22.70313 z" /><path
       id="path36"
       style="fill:#216845;fill-opacity:1;fill-rule:nonzero;stroke:none"
       d="m 145.50537,633.76855 c 9.24609,7.74219 4.40381,16.73145 -1.49512,23.80762 l -4.87793,5.82569 c -2.9414,3.54199 -5.09668,2.69775 -6.8247,1.25195 l -8.21338,-6.875 -0.26563,-0.2251 -2.62353,3.13281 c -2.27735,2.69873 -3.85694,2.43897 -3.85694,2.43897 l -7.6665,-6.41748 c 0,0 1.18018,-0.0767 2.69336,-1.96533 l 8.2749,-9.88379 0.0928,-0.11524 c 4.9873,4.17627 7.38623,6.18311 11.76269,9.84717 l 0.10938,0.10303 5.22851,-6.24512 c 4.23194,-5.02148 2.70362,-8.60254 0.22461,-10.67969 -1.95703,-1.63769 -3.20703,-1.21191 -3.20703,-1.21191 l 5.04248,-6.02149 c 0,0 1.29346,-0.24511 5.60205,3.23291 z" /><path
       id="path38"
       style="fill:#216845;fill-opacity:1;fill-rule:nonzero;stroke:none"
       d="m 394.34473,704.0249 c 0.0273,-2.62451 -0.23828,-6.45898 -1.27539,-11.72168 -1.05469,-5.34521 -2.19629,-9.85693 -2.96289,-12.66845 l -0.0566,-0.17237 c -4.74902,2.57129 -5.03417,5.53272 -5.03417,5.53272 l -3.42872,-7.48584 c 0,0 0.39356,-2.98438 10.53711,-7.67041 12.4043,-5.71729 19.2295,-0.86426 23.75,8.99902 l 3.6211,7.90088 c 1.71191,3.7417 0.042,5.90918 0.042,5.90918 l -9.68555,4.4375 c 0,0 1.59473,-2.49121 0.3711,-5.16455 l -4.21778,-9.20801 c -3.3291,-7.26269 -6.17383,-7.46826 -11.70703,-5.18799 0,0 3.24024,1.33106 4.44043,2.0459 1.97852,1.17725 3.30469,3.44629 4.71777,10.68066 1.3545,6.92676 0.39551,9.58155 0.39551,9.58155 l -9.52051,4.3623 0.0137,-0.17041 z" /><path
       id="path40"
       style="fill:#216845;fill-opacity:1;fill-rule:nonzero;stroke:none"
       d="m 256.71143,685.38818 c 14.74267,2.521 13.34423,12.21289 11.7705,21.27979 -0.85986,5.18408 -3.09765,9.14111 -6.49902,10.70215 -2.59668,0.96338 -4.31885,0.74951 -9.49951,-0.13282 -9.35156,-1.64941 -11.07422,-3.95703 -11.07422,-3.95703 l 1.35352,-8.25 c 0,0 1.90771,3.01221 7.58593,4.01953 5.68799,1.00879 7.74219,-0.73828 8.30762,-4.32666 1.03711,-6.24462 2.15527,-10.75683 -5.26367,-12.10888 -5.63672,-1.08789 -8.86475,1.68164 -8.86475,1.68164 l 1.30811,-7.95996 c 0,0 2.48095,-2.3628 10.87549,-0.94776 z" /><path
       id="path42"
       style="fill:#216845;fill-opacity:1;fill-rule:nonzero;stroke:none"
       d="m 198.05566,666.85449 -6.92382,-3.31347 -0.1587,-0.0791 -8.10156,16.92676 c -1.54883,3.28565 -4.07959,4.52735 -9.18457,1.83154 -3.31201,-1.75146 -4.7041,-5.69873 -4.7041,-5.69873 l -3.61182,7.54248 c 0,0 2.0459,3.76368 8.07276,6.61133 4.7251,2.29737 6.32178,2.98438 9.08545,2.7876 3.70215,-0.54687 6.95898,-3.71875 9.23584,-8.45654 l 6.22851,-13.01514 c 1.52051,-3.17139 0.062,-5.13672 0.062,-5.13672 z" /><path
       id="path44"
       style="fill:#216845;fill-opacity:1;fill-rule:nonzero;stroke:none"
       d="m 299.13086,689.3501 -6.33203,-0.25489 -0.75098,18.57618 c -0.21826,5.41943 -3.4956,5.54931 -6.17529,5.47509 l -4.79883,-0.19335 c -4.89844,-0.19874 -7.23779,-3.79493 -7.23779,-3.79493 l -0.35889,8.81739 c 0,0 1.17578,2.53173 7.96533,2.83886 l 10.70899,0.43409 c 7.11914,0.2539 10.07226,-3.22266 10.29492,-8.77393 l 0.73633,-18.21777 c 0.0772,-1.89258 -0.84961,-4.81104 -4.05176,-4.90674 m -14.05225,3.84668 -0.3955,9.79443 c -0.0825,2.80957 1.68261,4.45117 1.68261,4.45117 l -6.33154,-0.25683 c -2.9375,-0.1836 -6.021,-1.54981 -5.86621,-6.2544 l 0.50781,-12.56787 6.49854,0.26074 c 3.33349,0.10254 3.99511,1.50147 3.90429,4.57276 z" /><path
       id="path46"
       style="fill:#216845;fill-opacity:1;fill-rule:nonzero;stroke:none"
       d="m 322.76465,676.59766 0.17285,-0.0195 7.61914,-0.93848 c 0,0 2.28516,0.87012 2.71387,4.35986 l 4.13769,33.56836 c 0.45508,3.50244 -0.0967,5.63037 -2.42578,5.89795 l -8.77734,1.08154 c 0,0 1.77734,-1.49707 1.10351,-7.06494 l -4.54394,-36.88476 z" /><path
       id="path48"
       style="fill:#216845;fill-opacity:1;fill-rule:nonzero;stroke:none"
       d="m 447.83008,664.50439 -12.00781,-15.375 c -1.91504,-2.40087 -3.32618,-3.0415 -5.9336,-0.96093 l -5.125,4.00097 11.06641,14.17041 9.98437,0.23731 -1.16211,0.90625 c -3.86132,3.01758 -7.97461,1.78955 -7.97461,1.78955 l 5.43165,6.95312 c 0,0 2.53417,1.17188 7.91113,-2.98535 l 11.27637,-8.80761 c 5.59472,-4.40967 5.59472,-8.97217 2.17773,-13.34961 l -8.4375,-10.80127 c -2.78418,-3.56836 -7.44531,-5.9751 -13.11426,-1.5127 -4.38574,3.3916 -4.92676,5.55713 -4.92676,5.55713 l 4.16797,5.33984 c 2.375,-2.96777 4.56836,-4.01464 6.72168,-1.34082 l 4.54981,5.82276 c 3.33789,4.2749 0.92285,6.4917 -1.16504,8.16748 l -3.21778,2.51513 z" /><path
       id="path50"
       style="fill:#216845;fill-opacity:1;fill-rule:nonzero;stroke:none"
       d="m 425.2998,681.12793 -13.09375,-21.52051 0.15333,-0.0894 6.55859,-3.99073 c 0,0 2.44433,-0.14648 4.26758,2.85743 l 11.35547,18.66552 c 1.85644,3.0044 2.22753,5.1709 0.21679,6.37305 l -7.55371,4.59668 c 0,0 1.00195,-2.09668 -1.9043,-6.89209 z" /><path
       id="path52"
       style="fill:#216845;fill-opacity:1;fill-rule:nonzero;stroke:none"
       d="m 344.4043,710.80566 -4.71875,-24.74316 0.16797,-0.0298 7.54589,-1.43994 c 0,0 2.33887,0.71778 2.99414,4.17139 l 4.09668,21.46143 c 0.68457,3.46484 0.27344,5.62353 -2.03125,6.04541 l -8.68847,1.6582 c 0,0 1.67578,-1.61182 0.63379,-7.12354 z" /><path
       id="path54"
       style="fill:#216845;fill-opacity:1;fill-rule:nonzero;stroke:none"
       d="m 195.76465,693.41602 9.33252,-23.39551 0.1626,0.0679 7.13281,2.84424 c 0,0 1.58349,1.86426 0.28027,5.12842 l -8.0957,20.29296 c -1.28711,3.28955 -2.79639,4.88916 -4.96436,4.00342 l -8.21484,-3.27881 c 0,0 2.2793,-0.45556 4.3667,-5.66259 z" /><path
       id="path56"
       style="fill:#216845;fill-opacity:1;fill-rule:nonzero;stroke:none"
       d="m 233.4873,694.9624 2.90235,-9.36474 c 0.87842,-2.94434 0.59814,-4.46778 -2.59863,-5.42188 l -6.21045,-1.9248 -3.72315,12.01709 c -2.19433,6.97949 2.35742,13.0122 2.35742,13.0122 l -9.64209,-2.9873 c -4.68212,-1.45117 -6.01855,-5.52686 -6.01855,-5.52686 l -2.61084,8.42627 c 0,0 0.48242,2.74951 6.96728,4.79346 l 13.16895,4.08057 c 6.00195,1.82519 7.85986,-0.19873 7.85986,-0.19873 l 2.61133,-8.42774 c 0,0 -3.22363,2.66309 -7.54443,1.32422 0,0 0.22265,-2.51416 2.48095,-9.80176 z" /><path
       id="path58"
       style="fill:#216845;fill-opacity:1;fill-rule:nonzero;stroke:none"
       d="m 377.60645,690.93115 -2.85547,-9.37842 c -0.92774,-2.92968 -2.0127,-4.03418 -5.19434,-3.0288 l -6.21875,1.89257 3.66113,12.03467 c 2.10157,7.00928 9.25586,9.44629 9.25586,9.44629 l -9.65625,2.93897 c -4.6914,1.42724 -8.08496,-1.19532 -8.08496,-1.19532 l 2.57031,8.43994 c 0,0 1.94043,2.00489 8.45411,0.0566 l 13.1914,-4.01465 c 5.99121,-1.8584 6.39356,-4.57666 6.39356,-4.57666 l -2.56934,-8.43994 c 0,0 -1.17383,4.01367 -5.50293,5.33154 0,0 -1.22558,-2.20654 -3.44433,-9.50684 z" /><path
       id="path60"
       style="fill:#216845;fill-opacity:1;fill-rule:nonzero;stroke:none"
       d="m 154.78418,649.36475 3.49414,-5.42481 4.85107,3.12402 c 2.50196,1.57129 2.29541,3.07081 0.65772,5.67042 l -1.43945,2.23388 1.35498,2.02149 4.34961,-6.75635 5.32568,3.43164 c 2.71436,1.70557 2.03369,4.69092 1.00635,6.28271 l -9.86914,15.32959 c -3.00879,4.6709 -7.31543,6.17139 -13.32373,2.34229 -7.37549,-4.65088 -8.4458,-8.43164 -8.4458,-8.43164 l 4.77685,-7.41748 c 0,0 0.19385,4.28564 4.3169,6.94043 2.94726,1.99707 4.31054,0.0586 6.14599,-2.84619 l 2.85694,-4.43457 -6.13819,-7.63623 c -0.96289,-1.43897 -1.09131,-2.67188 0.0801,-4.4292 z" /></g></svg>