<?xml version="1.0" encoding="UTF-8" standalone="no"?>
<svg
   xmlns:dc="http://purl.org/dc/elements/1.1/"
   xmlns:cc="http://creativecommons.org/ns#"
   xmlns:rdf="http://www.w3.org/1999/02/22-rdf-syntax-ns#"
   xmlns:svg="http://www.w3.org/2000/svg"
   xmlns="http://www.w3.org/2000/svg"
   xmlns:sodipodi="http://sodipodi.sourceforge.net/DTD/sodipodi-0.dtd"
   xmlns:inkscape="http://www.inkscape.org/namespaces/inkscape"
   width="186.75pt"
   height="292.13pt"
   viewBox="0 0 186.75 292.13"
   version="1.2"
   id="svg62"
   sodipodi:docname="Holmalunds IF logo.svg"
   inkscape:version="0.92.4 (5da689c313, 2019-01-14)">
  <metadata
     id="metadata66">
    <rdf:RDF>
      <cc:Work
         rdf:about="">
        <dc:format>image/svg+xml</dc:format>
        <dc:type
           rdf:resource="http://purl.org/dc/dcmitype/StillImage" />
        <dc:title></dc:title>
      </cc:Work>
    </rdf:RDF>
  </metadata>
  <sodipodi:namedview
     pagecolor="#ffffff"
     bordercolor="#666666"
     borderopacity="1"
     objecttolerance="10"
     gridtolerance="10"
     guidetolerance="10"
     inkscape:pageopacity="0"
     inkscape:pageshadow="2"
     inkscape:window-width="640"
     inkscape:window-height="480"
     id="namedview64"
     showgrid="false"
     inkscape:zoom="0.60589463"
     inkscape:cx="95.61709"
     inkscape:cy="194.75334"
     inkscape:window-x="0"
     inkscape:window-y="0"
     inkscape:window-maximized="0"
     inkscape:current-layer="svg62" />
  <defs
     id="defs5">
    <clipPath
       id="clip1">
      <path
         d="M 0 52 L 186.75 52 L 186.75 292.128906 L 0 292.128906 Z M 0 52 "
         id="path2" />
    </clipPath>
  </defs>
  <g
     id="surface58">
    <path
       style=" stroke:none;fill-rule:nonzero;fill:rgb(48.124695%,42.025757%,26.493835%);fill-opacity:1;"
       d="M 73.882813 16.402344 L 49.28125 0.00390625 L 41.53125 8.753906 L 70.363281 24.523438 C 71.023438 21.570313 72.234375 18.820313 73.882813 16.402344 "
       id="path7" />
    <path
       style=" stroke:none;fill-rule:nonzero;fill:rgb(48.124695%,42.025757%,26.493835%);fill-opacity:1;"
       d="M 145.914063 9.320313 L 138.441406 0.320313 L 113.003906 16.152344 C 114.671875 18.53125 115.914063 21.242188 116.613281 24.152344 L 145.914063 9.320313 "
       id="path9" />
    <path
       style=" stroke:none;fill-rule:nonzero;fill:rgb(48.124695%,42.025757%,26.493835%);fill-opacity:1;"
       d="M 69.78125 29.753906 C 69.78125 28.683594 69.851563 27.621094 69.992188 26.582031 L 34.78125 10.003906 L 25.78125 25.253906 L 70.113281 33.691406 C 69.894531 32.414063 69.78125 31.09375 69.78125 29.753906 "
       id="path11" />
    <path
       style=" stroke:none;fill-rule:nonzero;fill:rgb(48.124695%,42.025757%,26.493835%);fill-opacity:1;"
       d="M 73.261719 31.542969 L 72.609375 31.550781 L 73.261719 31.546875 Z M 73.261719 31.542969 "
       id="path13" />
    <path
       style=" stroke:none;fill-rule:nonzero;fill:rgb(48.124695%,42.025757%,26.493835%);fill-opacity:1;"
       d="M 70.695313 36.242188 L 19.53125 29.503906 L 7.28125 47.753906 L 78.042969 47.753906 C 74.574219 44.773438 71.964844 40.78125 70.695313 36.242188 "
       id="path15" />
    <path
       style=" stroke:none;fill-rule:nonzero;fill:rgb(48.124695%,42.025757%,26.493835%);fill-opacity:1;"
       d="M 114.039063 31.640625 L 114.039063 31.644531 L 114.449219 31.640625 Z M 114.039063 31.640625 "
       id="path17" />
    <path
       style=" stroke:none;fill-rule:nonzero;fill:rgb(48.124695%,42.025757%,26.493835%);fill-opacity:1;"
       d="M 117.28125 29.753906 C 117.28125 31.203125 117.152344 32.621094 116.902344 34.003906 L 161.53125 25.503906 L 152.53125 10.253906 L 117.113281 26.933594 C 117.222656 27.851563 117.28125 28.800781 117.28125 29.753906 "
       id="path19" />
    <path
       style=" stroke:none;fill-rule:nonzero;fill:rgb(48.124695%,42.025757%,26.493835%);fill-opacity:1;"
       d="M 167.78125 29.753906 L 116.292969 36.542969 C 114.941406 41.085938 112.273438 45.050781 108.734375 48.003906 L 180.03125 48.003906 L 167.78125 29.753906 "
       id="path21" />
    <path
       style=" stroke:none;fill-rule:nonzero;fill:rgb(48.124695%,42.025757%,26.493835%);fill-opacity:1;"
       d="M 103.851563 38.070313 L 109.359375 43.542969 L 109.371094 43.542969 C 111.039063 41.621094 112.371094 39.390625 113.269531 36.941406 C 113.671875 35.832031 113.988281 34.671875 114.191406 33.472656 C 114.191406 33.460938 114.390625 32.25 114.449219 31.640625 C 114.390625 32.25 114.300781 32.851563 114.191406 33.441406 L 114.039063 31.644531 L 106.640625 31.671875 C 106.289063 34.070313 105.300781 36.269531 103.851563 38.070313 "
       id="path23" />
    <path
       style=" stroke:none;fill-rule:nonzero;fill:rgb(48.124695%,42.025757%,26.493835%);fill-opacity:1;"
       d="M 102.078125 19.632813 L 107.558594 14.132813 C 104.191406 11.101563 99.839844 9.140625 95.039063 8.800781 L 95.082031 16.589844 C 97.730469 16.902344 100.140625 17.992188 102.078125 19.632813 "
       id="path25" />
    <path
       style=" stroke:none;fill-rule:nonzero;fill:rgb(48.124695%,42.025757%,26.493835%);fill-opacity:1;"
       d="M 106.738281 28.800781 L 113.800781 28.769531 L 114.5 28.769531 C 114.488281 28.570313 114.480469 28.382813 114.460938 28.179688 C 114.398438 27.242188 114.269531 26.320313 114.078125 25.429688 C 113.488281 22.5625 112.300781 19.910156 110.660156 17.609375 C 110.308594 17.121094 109.949219 16.652344 109.550781 16.191406 L 104.058594 21.710938 C 105.589844 23.699219 106.558594 26.140625 106.738281 28.800781 "
       id="path27" />
    <path
       style=" stroke:none;fill-rule:nonzero;fill:rgb(48.124695%,42.025757%,26.493835%);fill-opacity:1;"
       d="M 80.402344 31.511719 L 73.261719 31.546875 L 73.03125 34.25 L 73.019531 34.25 C 73.191406 35.070313 73.417969 35.871094 73.691406 36.640625 C 73.820313 37.011719 73.960938 37.382813 74.109375 37.742188 C 74.210938 38 74.320313 38.25 74.449219 38.5 C 74.53125 38.691406 74.621094 38.882813 74.71875 39.070313 C 74.832031 39.320313 74.960938 39.570313 75.097656 39.8125 C 75.128906 39.871094 75.160156 39.929688 75.199219 39.992188 C 75.308594 40.191406 75.417969 40.390625 75.550781 40.582031 C 75.582031 40.632813 75.609375 40.671875 75.640625 40.722656 C 75.789063 40.992188 75.96875 41.261719 76.152344 41.519531 C 76.160156 41.542969 76.179688 41.5625 76.191406 41.582031 C 76.199219 41.589844 76.210938 41.609375 76.21875 41.621094 C 76.269531 41.699219 76.320313 41.769531 76.378906 41.851563 C 76.449219 41.960938 76.53125 42.070313 76.621094 42.179688 C 76.679688 42.261719 76.738281 42.351563 76.800781 42.429688 C 76.808594 42.441406 76.820313 42.460938 76.832031 42.472656 C 76.839844 42.480469 76.847656 42.492188 76.859375 42.5 C 77.03125 42.730469 77.210938 42.949219 77.402344 43.171875 C 77.628906 43.449219 77.871094 43.722656 78.109375 43.980469 L 78.238281 43.851563 L 83.570313 38.492188 C 81.890625 36.570313 80.75 34.171875 80.402344 31.511719 "
       id="path29" />
    <path
       style=" stroke:none;fill-rule:nonzero;fill:rgb(48.124695%,42.025757%,26.493835%);fill-opacity:1;"
       d="M 85.691406 40.429688 L 80.179688 45.960938 C 83.519531 48.722656 87.730469 50.460938 92.339844 50.710938 L 92.308594 42.941406 C 89.847656 42.722656 87.582031 41.820313 85.691406 40.429688 "
       id="path31" />
    <path
       style=" stroke:none;fill-rule:nonzero;fill:rgb(48.124695%,42.025757%,26.493835%);fill-opacity:1;"
       d="M 92.210938 16.570313 L 92.167969 8.792969 C 87.28125 9.109375 82.859375 11.089844 79.460938 14.171875 L 84.96875 19.632813 C 86.96875 17.941406 89.46875 16.832031 92.210938 16.570313 "
       id="path33" />
    <path
       style=" stroke:none;fill-rule:nonzero;fill:rgb(48.124695%,42.025757%,26.493835%);fill-opacity:1;"
       d="M 95.167969 42.902344 L 95.210938 50.679688 C 99.832031 50.320313 104.039063 48.449219 107.339844 45.5625 L 101.808594 40.089844 C 99.941406 41.589844 97.660156 42.589844 95.167969 42.902344 "
       id="path35" />
    <path
       style=" stroke:none;fill-rule:nonzero;fill:rgb(48.124695%,42.025757%,26.493835%);fill-opacity:1;"
       d="M 72.621094 27.820313 C 72.589844 28.109375 72.570313 28.390625 72.558594 28.679688 L 73.488281 28.671875 L 80.332031 28.640625 C 80.539063 26.050781 81.5 23.671875 82.988281 21.710938 L 77.46875 16.242188 C 77.011719 16.78125 76.582031 17.339844 76.179688 17.929688 C 74.558594 20.28125 73.417969 22.980469 72.890625 25.902344 C 72.769531 26.53125 72.679688 27.171875 72.621094 27.820313 "
       id="path37" />
    <path
       style=" stroke:none;fill-rule:nonzero;fill:rgb(48.124695%,42.025757%,26.493835%);fill-opacity:1;"
       d="M 73.261719 31.546875 L 72.609375 31.550781 C 72.691406 32.472656 72.832031 33.371094 73.019531 34.25 L 73.03125 34.25 L 73.261719 31.546875 "
       id="path39" />
    <path
       style=" stroke:none;fill-rule:nonzero;fill:rgb(48.124695%,42.025757%,26.493835%);fill-opacity:1;"
       d="M 114.449219 31.640625 L 114.039063 31.644531 L 114.191406 33.441406 C 114.300781 32.851563 114.390625 32.25 114.449219 31.640625 "
       id="path41" />
    <path
       style=" stroke:none;fill-rule:nonzero;fill:rgb(48.124695%,42.025757%,26.493835%);fill-opacity:1;"
       d="M 104.46875 29.75 C 104.46875 23.710938 99.570313 18.8125 93.53125 18.8125 C 87.488281 18.8125 82.597656 23.710938 82.597656 29.75 C 82.597656 35.792969 87.488281 40.691406 93.53125 40.691406 C 99.570313 40.691406 104.46875 35.792969 104.46875 29.75 "
       id="path43" />
    <g
       clip-path="url(#clip1)"
       clip-rule="nonzero"
       id="g47">
      <path
         style=" stroke:none;fill-rule:nonzero;fill:rgb(48.124695%,42.025757%,26.493835%);fill-opacity:1;"
         d="M 0.5 52.652344 L 186.75 52.902344 L 186.75 196.378906 L 93.25 292.128906 L 0 196.378906 L 0.5 52.652344 "
         id="path45" />
    </g>
    <path
       style=" stroke:none;fill-rule:nonzero;fill:rgb(100%,100%,100%);fill-opacity:1;"
       d="M 6.5 58.902344 L 180.75 58.902344 L 180.75 194.128906 L 93.5 283.628906 L 6.25 192.378906 L 6.5 58.902344 "
       id="path49" />
    <path
       style=" stroke:none;fill-rule:nonzero;fill:rgb(48.124695%,42.025757%,26.493835%);fill-opacity:1;"
       d="M 155.25 57.902344 L 5.25 193.128906 L 54.5 244.628906 L 182.75 128.128906 L 182.5 57.902344 "
       id="path51" />
    <path
       style=" stroke:none;fill-rule:nonzero;fill:rgb(63.256836%,7.794189%,20.802307%);fill-opacity:1;"
       d="M 160.695313 58.402344 L 181.140625 58.652344 L 181.394531 124.761719 L 51.65625 241.878906 L 7.230469 196.445313 L 160.695313 58.402344 "
       id="path53" />
    <path
       style=" stroke:none;fill-rule:nonzero;fill:rgb(100%,100%,100%);fill-opacity:1;"
       d="M 62.125 162.066406 L 50.25 172.628906 L 50.25 229.378906 L 62.25 218.628906 L 62.3125 196.378906 L 74.25 186.128906 L 74.25 207.691406 L 86.3125 196.941406 L 86.375 140.253906 L 74.3125 150.753906 L 74.25 169.878906 L 62.1875 180.191406 L 62.125 162.066406 "
       id="path55" />
    <path
       style=" stroke:none;fill-rule:nonzero;fill:rgb(100%,100%,100%);fill-opacity:1;"
       d="M 98.625 128.878906 L 110.6875 118.066406 L 110.625 174.753906 L 98.625 185.941406 L 98.625 128.878906 "
       id="path57" />
    <path
       style=" stroke:none;fill-rule:nonzero;fill:rgb(100%,100%,100%);fill-opacity:1;"
       d="M 134.8125 108.878906 L 153.75 92.402344 L 153.6875 79.839844 L 122.75 107.320313 L 122.6875 163.941406 L 134.9375 153.128906 L 134.9375 131.191406 L 153.9375 114.441406 L 153.9375 102.015625 L 134.8125 118.816406 L 134.8125 108.878906 "
       id="path59" />
  </g>
</svg>
