<svg height="377.19547" viewBox="0 0 491.74258 700" width="265.114531" xmlns="http://www.w3.org/2000/svg" xmlns:xlink="http://www.w3.org/1999/xlink"><linearGradient id="a" gradientUnits="userSpaceOnUse" x1="56.934814" x2="477.90732" y1="57.01947" y2="58.02747"><stop offset="0" stop-color="#f2b758" stop-opacity=".917647"/><stop offset=".16001396" stop-color="#eeaf46"/><stop offset=".29287308" stop-color="#d79934"/><stop offset=".49660832" stop-color="#ba8532"/><stop offset=".87157917" stop-color="#986d30"/><stop offset="1" stop-color="#946a2f"/></linearGradient><linearGradient id="b" gradientUnits="userSpaceOnUse" x1="91.979263" x2="443.73779" y1="336.84299" y2="336.84299"><stop offset="0" stop-color="#f7d08e"/><stop offset=".42049471" stop-color="#f7d192"/><stop offset=".46996465" stop-color="#f1b95e"/><stop offset=".52650177" stop-color="#eeaf46"/><stop offset=".94699645" stop-color="#eeaf44"/><stop offset="1" stop-color="#a47849"/></linearGradient><linearGradient id="c" gradientUnits="userSpaceOnUse" x1="36.91412" x2="267.1879" y1="362.10992" y2="363.86774"><stop offset="0" stop-color="#f3bb61"/><stop offset="1" stop-color="#fbe3ba"/></linearGradient><linearGradient id="d" gradientUnits="userSpaceOnUse" x1="53.447407" x2="493.45633" y1="464.86816" y2="344.30075"><stop offset="0" stop-color="#6f718d"/><stop offset="1" stop-color="#040022"/></linearGradient><linearGradient id="e" gradientUnits="userSpaceOnUse" x1="70.848892" x2="259.77927" y1="348.02963" y2="678.65778"><stop offset="0" stop-color="#040022"/><stop offset="1" stop-color="#494967"/></linearGradient><g transform="matrix(1.0277901 0 0 1.0277901 -28.08896 -36.255779)"><g><path d="m27.329649 120.5642v235.39478c-.04479 60.4589 8.339801 140.27622 76.966981 236.33889 34.21198 47.88912 99.9021 97.14292 162.2561 124.0505v-.0577l.002.0577c62.35408-26.90758 128.0442-76.16138 162.25617-124.0505 68.6272-96.06267 77.00968-175.87999 76.96491-236.33889v-235.39478z" fill="#eca834" fill-opacity=".854902"/><path d="m30.554304 122.98269v233.48369c-.04419 59.96805 8.227384 139.13735 75.929496 234.42012 33.75081 47.50032 98.55545 96.35425 160.06893 123.04338v-.0572l.002.0572c61.51357-26.68913 126.3182-75.54306 160.06901-123.04338 67.70212-95.28277 75.97161-174.45207 75.92744-234.42012v-233.48369z" fill="#a47848"/><path d="m30.554304 122.98269v233.48369c-.04419 59.96805 8.227384 139.13735 75.929496 234.42012 33.75081 47.50032 98.55545 96.35425 160.06893 123.04338v-.0572l.002.0572-.002-590.94719z" fill="url(#c)"/><path d="m40.873201 133.94957v225.07366c-.04226 57.80801 7.867646 134.12565 72.609519 225.97637 32.27508 45.78936 94.24617 92.88358 153.07001 118.61138v-.0552l.002.0552c58.82384-25.7278 120.79492-72.82202 153.07-118.61138 64.74188-91.85072 72.64979-168.16836 72.60755-225.97637v-225.07366z" fill="#eca833" fill-opacity=".854902"/><path d="m43.775391 136.5293v223.03515c-.04172 57.28444 7.76647 132.91087 71.675779 223.92969 31.86003 45.37465 93.03418 92.04233 151.10156 117.53711v-.0547l.002.0547c58.06738-25.49478 119.24153-72.16246 151.10156-117.53711 63.90931-91.01882 71.71553-166.64525 71.67383-223.92969v-223.03515z" fill="#040022"/><path d="m51.775391 144.23047v215.33398c-.497759 32.20249 13.76647 132.91087 77.675779 223.92969 26.71781 38.05116 74.06012 76.57145 114.58203 100.96094.90674.32366 1.81397.71153 2.72071.99609 2.20003.69045 4.39957 1.26627 6.59961 1.72656 2.20003.4603 4.39957.80501 6.5996 1.03516 2.20004.23015 4.39958.3457 6.59961.3457 2.20004 0 4.40153-.11555 6.60157-.3457 2.20003-.23015 4.39957-.57486 6.59961-1.03516 2.20003-.46029 4.39957-1.03611 6.59961-1.72656.90538-.28414 1.81141-.67102 2.71679-.99414 40.52297-24.38941 87.86763-62.91102 114.58594-100.96289 63.90931-91.01882 78.17354-191.7272 77.67578-223.92969v-215.33398z" fill="url(#d)"/><path d="m266.55273 254.1582c-16.41881.0929-38.18719.17258-41.73046.3711-7.2293.40504-14.17036 1.02812-20.83399 1.85742-6.66362.8293-13.04999 1.86498-19.17578 3.09766-6.12579 1.23266-11.98969 2.66215-17.60547 4.27734-5.61577 1.61518-10.98359 3.41576-16.11719 5.39258-5.13359 1.97682-10.03364 4.12968-14.71289 6.44726-4.67924 2.31759-9.13789 4.80003-13.39062 7.4375s-8.30026 5.4307-12.1543 8.36719-7.51487 6.01584-10.998046 9.23047c-3.483179 3.21463-6.787583 6.56325-9.927734 10.03516-3.140151 3.4719-6.116454 7.06708-8.941406 10.77539-2.824953 3.7083-5.499525 7.52929-8.03711 11.45312-2.537584 3.92383-4.936797 7.95183-7.214843 12.07031-2.278047 4.11849-4.434131 8.32883-6.480469 12.6211-2.046339 4.29226-3.983711 8.66615-5.826172 13.11132-.385958.93118-.723813 1.89861-1.101562 2.83594 2.984825 41.55252 20.613449 129.44146 77.146482 209.95508 26.71781 38.05116 74.06016 76.57169 114.58203 100.96094.90674.32366 1.81397.71153 2.72071.99609 2.20003.69045 4.39957 1.26627 6.59961 1.72656 2.20003.4603 4.39957.80501 6.5996 1.03516 2.20004.23015 4.39958.3457 6.59961.3457z" fill="url(#e)"/><path d="m86.363619 223.2644v170.51526c-.417601 25.49979 11.548539 105.24548 65.165991 177.31942 26.72934 35.93026 78.16727 72.60674 115.02309 89.90605 36.85583-17.29931 88.29577-53.97579 115.02511-89.90605 53.61745-72.07394 65.58359-151.81963 65.16599-177.31942v-170.51526z" fill="#040022"/><path d="m88.932822 226.38511v168.08401c-.411647 25.1362 11.383878 103.74486 64.236828 174.79115 26.34823 35.41796 77.05275 71.57149 113.38307 88.62415 36.33032-17.05266 87.03682-53.20619 113.38505-88.62415 52.85295-71.04629 64.64847-149.65495 64.23683-174.79115v-168.08401z" fill="#eca833" fill-opacity=".854902"/><path d="m91.056641 228.96484v166.07422c-.406725 24.83565 11.247759 102.50438 63.468749 172.70117 26.03318 34.99446 76.13142 70.7157 112.02734 87.56446 35.89592-16.84876 85.99612-52.57 112.0293-87.56446 52.22099-70.19679 63.87547-147.86552 63.46875-172.70117v-166.07422z" fill="url(#b)"/><g fill="#eca833" fill-opacity=".854902"><path d="m235.40234 458.69141-1.71289 1.74414-33.34961 33.95312v59.83985l35.0625-25.63086z"/><path d="m297.70312 458.69141v2.44531 67.46094l35.0625 25.63086v-59.83985z"/><path d="m264.11914 383.92383c-25.4211-.041-49.15163 11.66631-63.90234 34.41601l-1.72266 2.66016 2.9375-1.1875c7.3234-2.96055 17.63474-7.40685 31.01953-8.20312-6.28524 6.90316-10.34368 14.99734-12.78125 21.98046-2.66398 7.63175-3.52926 13.79573-3.65039 15.6543l-.19336 2.9668 1.94727-2.24805c3.40699-3.93177 9.98213-9.23782 17.35937-13.76562 7.03074-4.31513 14.78463-7.86597 21.23438-9.09571l3.23633 21.84961-4.2461-1.78711 3.19727 32.16992-5.10742-2.08593 5.25585 35.18945-4.98437-1.8125 4.69922 35.94727-54.54102 41.88281.90039.80469c17.20376 15.37907 38.06398 28.88759 61.3086 41.18164l.46679.24609.4668-.24609c23.24462-12.29405 44.10484-25.80257 61.30859-41.18164l.9004-.80469-54.54102-41.88281 4.69922-35.94727-4.98438 1.8125 5.25586-35.19141-5.10547 2.08789 3.19532-32.16992-4.2461 1.78711 3.23828-21.84961c6.4497 1.22974 14.20411 4.78058 21.23438 9.09571 7.37675 4.52779 13.9504 9.83382 17.35742 13.76562l1.94727 2.24805-.19336-2.9668c-.12112-1.85838-.9869-8.02254-3.65039-15.6543-2.43712-6.98313-6.49411-15.07728-12.7793-21.98046 13.38459.79627 23.69413 5.24255 31.01758 8.20312l2.9375 1.1875-1.72266-2.66016c-15.22654-23.48357-40.02042-35.19789-66.36719-34.375h.0625c-.82254-.0257-1.64401-.0397-2.46484-.041z"/><g><path d="m201.33984 255.13672v133.12305l.10743-.0332c.1838-.16888.34215-.37628.52734-.54297 2.40577-2.16545 4.92769-4.14508 7.55078-5.93945s5.34622-3.40168 8.15625-4.82226c2.81004-1.42059 5.70723-2.65513 8.67383-3.69922 2.62459-.92372 5.32215-1.6425 8.04687-2.26954v-115.8164z"/><path d="m202.33984 256.13672h31.0625v114.06055c-2.48308.58943-4.95939 1.23048-7.3789 2.08203-3.00713 1.05835-5.94413 2.30979-8.79297 3.75-2.84893 1.44024-5.60993 3.06932-8.26953 4.88867-2.29983 1.57324-4.4847 3.35267-6.6211 5.20703z"/><path d="m200.33984 254.13672v1 134.47851l1.61719-.5.16602-.15234c.27345-.25125.43217-.45477.52148-.53516 2.37273-2.13571 4.85859-4.08792 7.44531-5.85742 2.58658-1.76939 5.27184-3.35494 8.04297-4.75586 2.77124-1.40097 5.62862-2.61861 8.55469-3.64843 2.57542-.90642 5.23692-1.61635 7.93945-2.23829l.77539-.17773v-117.61328z"/></g><path d="m297.70312 254.13672v117.61328l.7754.17773c2.70253.62194 5.36403 1.33187 7.93945 2.23829 2.92607 1.02982 5.78345 2.24746 8.55469 3.64843 2.77113 1.40092 5.45638 2.98647 8.04296 4.75586 2.58673 1.7695 5.07454 3.72171 7.44727 5.85742.0893.0804.24608.28391.51953.53516l.16602.15234 1.61718.5v-135.47851h-1z"/><path d="m386.80273 254.13672v258.8164l1.9043.42969c6.9478-14.60363 30.11322-66.35499 30.05859-111.125v-148.12109h-1z"/><g><path d="m115.33984 255.13672v147.12305c-.0542 44.42249 23.03906 96.14073 29.96259 110.69336v-257.8164z"/><path d="m116.33984 256.13672h27.96289v252.08594c-8.21707-17.7979-28.01329-64.64951-27.96289-105.96094v-.002z"/><path d="m114.33984 254.13672v1 147.12305c-.054 44.76956 23.11285 96.51961 30.06055 111.12304l1.90234-.42969v-258.8164z"/></g></g><g fill="#040022"><path d="m234.402 461.136v66.95306l-33.062 24.16988v-57.46047z"/><path d="m298.704 461.136v66.95306l33.062 24.16988v-57.46047z"/><path d="m264.11719 384.92383c-25.11402-.0405-48.49052 11.48989-63.06055 33.96094 7.74346-3.13036 18.9336-8.18666 33.79297-8.51368-14.40333 14.2361-17.61315 35.57912-17.83203 38.9375 7.05941-8.14675 26.45845-21.28048 40.17773-23.43164l3.65625 24.68555-4.33203-1.82422 3.19336 32.15039-5.01758-2.05078 5.24414 35.11328-5.01562-1.82422 4.56055 34.88672-54.04102 41.5c17.12118 15.30526 37.91384 28.77488 61.10937 41.04297 23.19553-12.26809 43.9882-25.73771 61.10938-41.04297l-54.04102-41.5 4.56055-34.88672-5.01562 1.82422 5.24414-35.11328-5.01563 2.05078 3.19141-32.15039-4.33203 1.82422 3.6582-24.68555c13.71928 2.15116 33.11637 15.28489 40.17578 23.43164-.21888-3.35838-3.42675-24.7014-17.83008-38.9375 14.85937.32702 26.04756 5.38332 33.79102 8.51368-15.04003-23.19592-39.46387-34.733-65.4961-33.91993-.8135-.0254-1.62541-.0397-2.43554-.041z"/><path d="m201.33984 255.13672v133.12305l.10743-.0332c.1838-.16888.34215-.37628.52734-.54297 2.40577-2.16545 4.92769-4.14508 7.55078-5.93945s5.34622-3.40168 8.15625-4.82226c2.81004-1.42059 5.70723-2.65513 8.67383-3.69922 2.62459-.92372 5.32215-1.6425 8.04687-2.26954v-115.8164z"/><path d="m115.33984 255.13672v147.12305c-.0542 44.42249 23.03906 96.14073 29.96259 110.69336v-257.8164z"/><path d="m331.76616 255.13672v133.12305l-.10743-.0332c-.1838-.16888-.34215-.37628-.52734-.54297-2.40577-2.16545-4.92769-4.14508-7.55078-5.93945s-5.34622-3.40168-8.15625-4.82226c-2.81004-1.42059-5.70723-2.65513-8.67383-3.69922-2.62459-.92372-5.32215-1.6425-8.04687-2.26954v-115.8164z"/><path d="m417.76616 255.13672v147.12305c.0542 44.42249-23.03906 96.14073-29.96259 110.69336v-257.8164z"/></g></g><path d="m129.61133 167.58008c-8.00439 0-14.13477 5.99231-14.13477 14.20508s6.13038 14.20507 14.13477 14.20507c8.03607 0 14.17187-5.99202 14.17187-14.20507s-6.1358-14.20508-14.17187-14.20508zm34.14453 0c-8.00439 0-14.13477 5.99231-14.13477 14.20508s6.13038 14.20507 14.13477 14.20507c8.03607 0 14.17187-5.99202 14.17187-14.20507 0-8.21306-6.1358-14.20508-14.17187-14.20508zm184.04687 0c-7.81032 0-13.92578 5.96091-13.92578 14.20508 0 8.17143 6.03929 14.20507 13.89063 14.20507 4.25051 0 8.71061-1.70743 11.35156-5.54882l.002-.002.83008-1.21289-4.77929-3.42578-.86719 1.25977c-1.417 2.0532-3.78298 3.19922-6.50196 3.19922-2.4174 0-4.36059-.85313-5.74023-2.31446s-2.20898-3.5637-2.20898-6.16015c0-5.2459 3.26141-8.47461 7.94921-8.47461 2.62087 0 4.9463 1.10193 6.35547 3l.88086 1.18359 4.77344-3.41992-.89062-1.21875-.002-.004c-2.15724-2.96896-6.13958-5.27148-11.11719-5.27148zm-256.691402.45508v1 26.5h5.869141v-10.29102h12.320311v-5.6582h-12.320311v-5.85547h13.335941v-1.5-4.19531zm89.933592 0v1 4.69531h8.40039v21.80469h5.8711v-21.80469h8.43359v-5.69531h-1.5zm29.21289 0v1 26.5h13.18946c2.69381 0 5.01796-.85589 6.6582-2.38282 1.6417-1.52828 2.54101-3.69497 2.54101-6.04687 0-1.84073-.5325-3.51152-1.5996-4.78516-.48715-.58143-1.09136-.99471-1.73047-1.34179 1.31388-1.29787 2.24609-2.95334 2.24609-4.96875 0-2.27933-.87334-4.35214-2.47656-5.78516-1.59999-1.43012-3.84462-2.18945-6.44336-2.18945zm37.79883 0-.25586.61718-11.17578 26.88282h6.47656l2.76563-6.82422h9.70508l2.76562 6.82422h1.00977 5.43359l-11.43359-27.5zm22.49219 0v1 26.5h18.88867v-5.69532h-13.01953v-21.80468zm25.46289 0v1 26.5h18.88867v-5.69532h-13.01953v-21.80468zm70.98828 0v1 26.5h18.88867v-5.69532h-13.01953v-21.80468zm23.95117 0v1 13.93945c0 3.55189.60414 6.77414 2.45703 9.20117 1.85987 2.43616 4.93921 3.81445 9.08789 3.81445 4.18996 0 7.26813-1.42192 9.10547-3.87695 1.83003-2.44524 2.4043-5.66081 2.4043-9.13867v-14.93945h-6.00977v14.93945c0 3.00443-.52413 4.8565-1.30664 5.83008-.79436.98833-1.94785 1.45508-4.19336 1.45508-2.28062 0-3.44242-.47596-4.23632-1.4668-.78199-.97596-1.29883-2.82929-1.29883-5.81836v-14.93945zm31.69141 0v1 26.5h13.18945c2.69382 0 5.01797-.85589 6.6582-2.38282 1.64171-1.52828 2.54102-3.69497 2.54102-6.04687 0-1.84073-.53249-3.51151-1.59961-4.78516-.48714-.58144-1.09135-.99471-1.73047-1.34179 1.31389-1.29787 2.2461-2.95334 2.2461-4.96875 0-2.27933-.87335-4.35214-2.47657-5.78516-1.59999-1.43012-3.84462-2.18945-6.44336-2.18945zm-28.69141 3h.01v11.93945c0 .4429.0965.76354.11523 1.17969-.0226-.41556-.125-.73864-.125-1.17969zm17.04492 0h.01v11.93945c0 .62117-.12826 1.1026-.17383 1.67578.0394-.57584.16406-1.04508.16406-1.67578zm-281.38476 2.27539c2.51874 0 4.5116.86038 5.92578 2.31445 1.41367 1.45353 2.26953 3.53529 2.26953 6.16016 0 2.61023-.83858 4.70627-2.25195 6.16406-1.41338 1.45779-3.42361 2.31055-5.94336 2.31055-2.5033 0-4.50231-.84428-5.91016-2.29688-1.40784-1.4526-2.24804-3.54779-2.24805-6.17773.00001-2.61028.84067-4.70422 2.25-6.16211 1.40934-1.4579 3.40823-2.3125 5.90821-2.3125zm34.14453 0c2.51876 0 4.5116.86038 5.92578 2.31445 1.41367 1.45353 2.26953 3.53529 2.26953 6.16016 0 2.61023-.83858 4.70627-2.25195 6.16406s-3.42361 2.31055-5.94336 2.31055c-2.5033 0-4.50231-.84428-5.91016-2.29688-1.40784-1.4526-2.24804-3.54779-2.24804-6.17773 0-2.61028.84066-4.70422 2.25-6.16211 1.40934-1.4579 3.40823-2.3125 5.9082-2.3125zm176.23047.29687c-1.27268 1.33397-2.05086 3.09826-2.55274 5.02149.49049-1.96593 1.26438-3.73442 2.55274-5.02149zm-218.39453.0254c-1.24901 1.30151-2.02253 3.00271-2.53125 4.85547.49908-1.8918 1.26544-3.59896 2.53125-4.85547zm34.14453 0c-1.24901 1.30151-2.02253 3.00271-2.53125 4.85547.49908-1.8918 1.26544-3.59896 2.53125-4.85547zm60.39062.0977h6.51563c1.19114 0 1.9225.29274 2.32226.63672.41365.35593.62305.77101.62305 1.64258 0 1.01595-.25903 1.61368-.64258 2.00195-.3848.38955-.97677.66406-2.05859.66406h-6.75977zm212.38477 0h6.51562c1.19113 0 1.9225.29274 2.32227.63672.41365.35593.62305.77101.62305 1.64258 0 1.01594-.25904 1.61367-.64258 2.00195-.38481.38956-.97679.66406-2.0586.66406h-6.75976zm-177.80274 3 2.56055 6.32031h-5.10547zm-25.45507 4.53711.0254.33594c-.33556-.0664-.67165-.1296-1.0293-.15235.33473-.0651.69579-.069 1.00391-.18359zm212.38476 0 .0254.33594c-.33532-.0663-.67192-.12964-1.02929-.15235.33473-.0651.69579-.069 1.0039-.18359zm-221.51172 3.10156h7.56446c1.21552 0 1.91452.2979 2.32031.67774.41134.38503.66015.92603.66016 1.95312 0 1.04293-.27441 1.64504-.74415 2.08398-.46489.43441-1.22595.75586-2.48046.75586h-7.32032zm212.38477 0h7.56445c1.21554 0 1.91452.2979 2.32031.67774.41134.38503.66016.92603.66016 1.95312 0 1.04294-.2744 1.64504-.74414 2.08398-.46487.4344-1.22596.75586-2.48047.75586h-7.32031zm-288.27734.5293c-.48779 1.97038-1.26248 3.74688-2.57227 5.04297 1.29356-1.34357 2.07388-3.11501 2.57227-5.04297zm34.14453 0c-.48779 1.97038-1.26247 3.74688-2.57227 5.04297 1.29356-1.34357 2.07388-3.11501 2.57227-5.04297zm-55.26953.46094c.52014 1.74377 1.28784 3.33749 2.47265 4.57421-1.203-1.19693-1.96033-2.7994-2.47265-4.57421zm34.14453 0c.52014 1.74377 1.28784 3.33749 2.47265 4.57421-1.203-1.19693-1.96033-2.7994-2.47265-4.57421zm76.15234.084c.006.0176.004.0428.01.0605-.005-.0198-.005-.0408-.01-.0605zm212.38477 0c.006.0176.004.0428.01.0605-.005-.0198-.005-.0408-.01-.0605zm-104.23438.21484c.46889 1.45262 1.16906 2.74457 2.10938 3.84375-.95115-1.06877-1.64601-2.36519-2.10938-3.84375zm86.0869-16.62208v25.5h12.18945c2.48417 0 4.54355-.78121 5.97657-2.11524 1.43302-1.33402 2.22265-3.21306 2.22265-5.31445 0-1.65113-.46958-3.0732-1.36719-4.14453-.65403-.78063-1.58688-1.29044-2.63086-1.6582 1.82825-1.06849 2.91407-2.98097 2.91407-5.29297 0-2.02983-.75964-3.80315-2.14453-5.04102-1.3849-1.23786-3.36943-1.93359-5.77539-1.93359zm1 1h10.38477c2.21404 0 3.93926.6338 5.10937 1.67969 1.17011 1.04588 1.81055 2.50974 1.81055 4.29492 0 2.41883-1.18127 4.20979-3.33203 4.91601l.0703.9668c1.41184.24625 2.48299.83782 3.21289 1.70898.7299.87117 1.13281 2.04004 1.13281 3.50391 0 1.85361-.67731 3.43981-1.90429 4.58203-1.22699 1.14222-3.01909 1.84766-5.29493 1.84766h-11.18944zm1.86914 1.69531v8.94531h8.75977c1.46115 0 2.66248-.43168 3.48047-1.25976.81798-.82809 1.2207-2.01666 1.2207-3.40625 0-1.3003-.45086-2.41398-1.32031-3.16211-.86946-.74814-2.1087-1.11719-3.625-1.11719zm1 1h7.51563c1.35369 0 2.3371.33009 2.97265.87695.63555.54687.97266 1.32264.97266 2.40235 0 1.2004-.33213 2.09621-.93164 2.70312-.59952.60692-1.50069.96289-2.76953.96289h-7.75977zm-1 9.63867v9.47071h9.32031c1.61254 0 2.93261-.43975 3.84571-1.29297.91309-.85322 1.3789-2.09548 1.3789-3.54688 0-1.41028-.42657-2.60124-1.29492-3.41406s-2.13023-1.2168-3.68555-1.2168zm1 1h8.56445c1.38469 0 2.36531.35134 3.00196.94727.63664.59593.97851 1.46887.97851 2.68359 0 1.24361-.37434 2.17142-1.0625 2.81446-.68815.64303-1.72965 1.02539-3.16211 1.02539h-8.32031zm11.26039-1.96906c2.345-.77 3.675-2.8 3.675-5.39 0-3.815-2.8-6.475-7.42-6.475h-10.885v24.5h11.69c4.76 0 7.7-2.975 7.7-6.93 0-3.115-1.75-5.18-4.76-5.705zm-3.745-9.17c2.87 0 4.445 1.4 4.445 3.78 0 2.59-1.47 4.165-4.2 4.165h-8.26v-7.945zm.805 19.11h-8.82v-8.47h9.065c2.94 0 4.48 1.505 4.48 4.13 0 2.695-1.68 4.34-4.725 4.34zm-43.88094-22.30492v13.93945c0 3.43622.5962 6.4275 2.25 8.59375 1.65381 2.16625 4.35892 3.42188 8.29493 3.42188 3.97308 0 6.67012-1.29249 8.30468-3.47657 1.63456-2.18407 2.20508-5.17424 2.20508-8.53906v-13.93945h-4.00976v13.93945c0 3.11409-.51222 5.19207-1.52735 6.45508s-2.56981 1.83008-4.97265 1.83008c-2.43783 0-4.00245-.57486-5.01758-1.8418s-1.51758-3.34614-1.51758-6.44336v-13.93945zm1 1h2.00977v12.93945c0 3.20278.49396 5.5178 1.73633 7.06836s3.19665 2.2168 5.79883 2.2168c2.56716 0 4.50958-.65739 5.75195-2.20313 1.24237-1.54573 1.74805-3.86112 1.74805-7.08203v-12.93945h2.00976v12.93945c0 3.25018-.56917 6.01978-2.00586 7.93945-1.43669 1.91968-3.74199 3.07618-7.5039 3.07618-3.729 0-6.04756-1.12485-7.5-3.02735-1.45245-1.9025-2.04493-4.6695-2.04493-7.98828zm9.54414 24.45492c7.735 0 10.01-4.9 10.01-11.515v-13.44h-3.01v13.44c0 6.335-2.03 8.785-7 8.785-5.04 0-7.035-2.485-7.035-8.785v-13.44h-3.01v13.44c0 6.755 2.38 11.515 10.045 11.515zm-34.49531-25.45492v25.5h16.88867v-3.69531h-13.01953v-21.80469zm1 1h1.86914v21.80469h.5 12.51953v1.69531h-14.88867zm2.36953 21.30492v-21.805h-2.87v24.5h15.89v-2.695zm-23.56679-22.76c-7.31423 0-12.92578 5.44287-12.92578 13.20508 0 7.6913 5.53931 13.20508 12.89062 13.20508 3.98333 0 8.10681-1.59641 10.52734-5.11719l.27735-.4043-3.15625-2.26172-.28906.41993c-1.6155 2.34082-4.31867 3.63281-7.32422 3.63281-5.31762 0-8.94922-3.85117-8.94922-9.47461 0-5.68818 3.77368-9.47461 8.94922-9.47461 2.90323 0 5.54515 1.22967 7.1582 3.40234l.29297.39453 3.15429-2.25976-.29687-.40625c-1.9559-2.69398-5.63855-4.86133-10.30859-4.86133zm0 1c4.12441 0 7.32799 1.83636 9.15234 4.07812l-1.53516 1.10157c-1.83299-2.19906-4.60556-3.44922-7.61718-3.44922-5.67447 0-9.94922 4.33278-9.94922 10.47461 0 6.06656 4.13684 10.47461 9.94922 10.47461 3.1147 0 5.96377-1.32351 7.80273-3.68555l1.5293 1.0957c-2.23297 2.91676-5.81278 4.32032-9.36719 4.32032-6.85869 0-11.89062-4.98639-11.89062-12.20508 0-7.28779 5.1-12.20508 11.92578-12.20508zm-.0351 24.91c3.85 0 7.805-1.54 10.115-4.9l-2.345-1.68c-1.715 2.485-4.585 3.85-7.735 3.85-5.565 0-9.45-4.13-9.45-9.975 0-5.915 4.025-9.975 9.45-9.975 3.045 0 5.845 1.295 7.56 3.605l2.345-1.68c-1.855-2.555-5.39-4.655-9.905-4.655-7.07 0-12.425 5.18-12.425 12.705 0 7.455 5.285 12.705 12.39 12.705zm-50.75594-25.45492v25.5h16.88867v-3.69531h-13.01953v-21.80469zm1 1h1.86914v21.80469h.5 12.51953v1.69531h-14.88867zm2.36953 21.30492v-21.805h-2.87v24.5h15.89v-2.695zm-28.83242-22.30492v25.5h16.88867v-3.69531h-13.01953v-21.80469zm1 1h1.86914v21.80469h.5 12.51953v1.69531h-14.88867zm2.36953 21.30492v-21.805h-2.87v24.5h15.89v-2.695zm-26.1957-22.30492-10.59961 25.5h4.30469l2.76562-6.82422h11.05078l2.76563 6.82422h.33789 3.93359l-10.60156-25.5zm.66797 1h2.62304l9.76953 23.5h-2.0996l-2.76563-6.82422h-12.39844l-2.76367 6.82422h-2.13476zm1.30859 1.34961-5.49805 13.66601h.74024 10.29687zm.004 2.67187 4.05078 9.99414h-8.07227zm8.64358 19.97844h3.185l-10.185-24.5h-3.29l-10.185 24.5h3.22l2.765-6.825h11.725zm-13.405-9.485 4.76-11.83 4.795 11.83zm-34.68399-15.51492v25.5h12.18946c2.48416 0 4.54354-.78121 5.97656-2.11524 1.43302-1.33402 2.22266-3.21306 2.22266-5.31445 0-1.65113-.46959-3.0732-1.36719-4.14453-.65404-.78063-1.58688-1.29044-2.63086-1.6582 1.82824-1.06849 2.91406-2.98097 2.91406-5.29297 0-2.02983-.75964-3.80315-2.14453-5.04102-1.38489-1.23786-3.36943-1.93359-5.77539-1.93359zm1 1h10.38477c2.21404 0 3.93927.6338 5.10938 1.67969 1.1701 1.04588 1.81054 2.50974 1.81054 4.29492 0 2.41883-1.18126 4.20979-3.33203 4.91601l.0703.9668c1.41185.24625 2.483.83782 3.21289 1.70898.7299.87117 1.13282 2.04004 1.13282 3.50391 0 1.85361-.67732 3.43981-1.9043 4.58203s-3.01909 1.84766-5.29492 1.84766h-11.18946zm1.86915 1.69531v8.94531h8.75976c1.46115 0 2.66248-.43168 3.48047-1.25976.81798-.82809 1.2207-2.01666 1.2207-3.40625 0-1.3003-.45086-2.41398-1.32031-3.16211-.86945-.74814-2.1087-1.11719-3.625-1.11719zm1 1h7.51562c1.3537 0 2.33711.33009 2.97266.87695.63554.54687.97265 1.32264.97265 2.40235 0 1.2004-.33212 2.09621-.93164 2.70312-.59951.60692-1.50068.96289-2.76953.96289h-7.75976zm-1 9.63867v9.47071h9.32031c1.61254 0 2.93261-.43975 3.8457-1.29297.9131-.85322 1.37891-2.09548 1.37891-3.54688 0-1.41028-.42657-2.60124-1.29492-3.41406-.86836-.81282-2.13023-1.2168-3.68555-1.2168zm1 1h8.56445c1.38468 0 2.3653.35134 3.00195.94727s.97852 1.46887.97852 2.68359c0 1.24361-.37435 2.17142-1.0625 2.81446-.68816.64303-1.72965 1.02539-3.16211 1.02539h-8.32031zm11.26039-1.96906c2.345-.77 3.675-2.8 3.675-5.39 0-3.815-2.8-6.475-7.42-6.475h-10.885v24.5h11.69c4.76 0 7.7-2.975 7.7-6.93 0-3.115-1.75-5.18-4.76-5.705zm-3.745-9.17c2.87 0 4.445 1.4 4.445 3.78 0 2.59-1.47 4.165-4.2 4.165h-8.26v-7.945zm.805 19.11h-8.82v-8.47h9.065c2.94 0 4.48 1.505 4.48 4.13 0 2.695-1.68 4.34-4.725 4.34zm-41.40243-22.30492v3.69531h8.40039v21.80469h3.8711v-21.80469h8.43359v-3.69531h-.5zm1 1h18.70508v1.69531h-8.43359v21.80469h-1.8711v-21.80469h-8.40039zm19.20571-.50008h-19.705v2.695h8.4v21.805h2.87v-21.805h8.435zm-38.49477-.955c-7.51878 0-13.13476 5.47676-13.13476 13.20508s5.61598 13.20508 13.13476 13.20508c7.55264 0 13.17188-5.47676 13.17188-13.20508s-5.61924-13.20508-13.17188-13.20508zm0 1c7.07736 0 12.17188 4.9534 12.17188 12.20508s-5.09452 12.20508-12.17188 12.20508c-7.04122 0-12.13476-4.9534-12.13476-12.20508s5.09354-12.20508 12.13476-12.20508zm0 1.73047c-5.94426 0-10.1582 4.3704-10.1582 10.47461 0 6.13788 4.21598 10.47461 10.1582 10.47461 5.97781 0 10.19531-4.37041 10.19531-10.47461 0-3.06894-1.03189-5.69976-2.83593-7.55469-1.80405-1.85493-4.37149-2.91992-7.35938-2.91992zm0 1c2.75212 0 5.03413.96337 6.64258 2.61719 1.60845 1.65381 2.55273 4.01136 2.55273 6.85742 0 5.65579-3.69311 9.47461-9.19531 9.47461-5.46778 0-9.1582-3.78249-9.1582-9.47461 0-5.6558 3.69247-9.47461 9.1582-9.47461zm.00094 22.17953c7.315 0 12.67-5.215 12.67-12.705s-5.355-12.705-12.67-12.705c-7.28 0-12.635 5.215-12.635 12.705s5.355 12.705 12.635 12.705zm0-2.73c-5.705 0-9.66-4.06-9.66-9.975 0-5.88 3.955-9.975 9.66-9.975 5.74 0 9.695 4.06 9.695 9.975 0 5.88-3.955 9.975-9.695 9.975zm-34.14547-23.18c-7.51878 0-13.13477 5.47676-13.13477 13.20508s5.61599 13.20508 13.13477 13.20508c7.55264 0 13.17187-5.47676 13.17187-13.20508s-5.61923-13.20508-13.17187-13.20508zm0 1c7.07736 0 12.17187 4.9534 12.17187 12.20508s-5.09451 12.20508-12.17187 12.20508c-7.04122 0-12.13477-4.9534-12.13477-12.20508s5.09355-12.20508 12.13477-12.20508zm0 1.73047c-5.94426 0-10.1582 4.3704-10.1582 10.47461 0 6.13788 4.21598 10.47461 10.1582 10.47461 5.9778 0 10.19531-4.37041 10.19531-10.47461 0-3.06894-1.03189-5.69976-2.83594-7.55469-1.80404-1.85493-4.37148-2.91992-7.35937-2.91992zm0 1c2.75211 0 5.03413.96337 6.64258 2.61719 1.60845 1.65381 2.55273 4.01136 2.55273 6.85742 0 5.65579-3.69311 9.47461-9.19531 9.47461-5.46778 0-9.1582-3.78249-9.1582-9.47461 0-5.6558 3.69246-9.47461 9.1582-9.47461zm.00094 22.17953c7.315 0 12.67-5.215 12.67-12.705s-5.355-12.705-12.67-12.705c-7.28 0-12.635 5.215-12.635 12.705s5.355 12.705 12.635 12.705zm0-2.73c-5.705 0-9.66-4.06-9.66-9.975 0-5.88 3.955-9.975 9.66-9.975 5.74 0 9.695 4.06 9.695 9.975 0 5.88-3.955 9.975-9.695 9.975zm-37.500925-22.72499v25.5h3.869141v-10.29102h12.320314v-3.6582h-12.320314v-7.85547h13.335944v-.5-3.19531zm1 1h15.205085v1.69531h-13.335944v9.85547h12.320314v1.6582h-12.320314v10.29102h-1.869141zm15.704535 2.19492v-2.695h-16.205003v24.5h2.87v-10.29h12.320003v-2.66h-12.320004v-8.855z" fill="#040022"/><g fill="#eba734"><path d="m423.64258 182.875v11.66016h12.18945c2.48417 0 4.54354-.78121 5.97656-2.11524 1.43302-1.33402 2.22266-3.21306 2.22266-5.31445 0-1.246-.34826-2.30155-.86523-3.23438-1.84703-.10465-3.6905-.18178-5.53711-.2832.58963.16131 1.08973.39203 1.44921.72852.63664.59593.97852 1.46887.97852 2.68359 0 1.24361-.37434 2.17141-1.0625 2.81445-.68815.64303-1.72965 1.02539-3.16211 1.02539h-8.32031v-7.4707h5.8164c-3.22953-.17297-6.45727-.3313-9.68554-.49414z"/><path d="m391.95117 181.42578v1.54883c0 3.43622.5962 6.4275 2.25 8.59375 1.65381 2.16625 4.35891 3.42187 8.29492 3.42187 3.97308 0 6.67013-1.29248 8.30469-3.47656 1.63456-2.18407 2.20508-5.17424 2.20508-8.53906v-.64258c-1.33591-.0627-2.67408-.14415-4.00977-.20508v.84766c0 3.11409-.51221 5.19207-1.52734 6.45508s-2.56982 1.83008-4.97266 1.83008c-2.43783 0-4.00244-.57486-5.01757-1.8418s-1.51758-3.34614-1.51758-6.44336v-1.40625c-1.33752-.0551-2.67248-.0894-4.00977-.14258z"/><path d="m368 180.57422v13.96094h16.88867v-3.69532h-13.01953v-10.1289c-1.28923-.0422-2.58013-.0964-3.86914-.13672z"/><path d="m335.06055 179.77539c-.0878.65795-.1836 1.31207-.1836 2.00977 0 7.6913 5.53932 13.20507 12.89063 13.20507 3.98333 0 8.10681-1.5964 10.52734-5.11718l.27735-.4043-3.15625-2.26172-.28907.41992c-1.6155 2.34082-4.31867 3.63282-7.32422 3.63282-5.31762 0-8.94921-3.85117-8.94921-9.47461 0-.70813.22159-1.2861.33398-1.93164-1.37597-.0283-2.75126-.052-4.12695-.0781z"/><path d="m297.01172 179.33398v15.20118h16.88867v-3.69532h-13.01953v-11.5039c-1.29046-.007-2.57893.003-3.86914-.002z"/><path d="m271.54883 179.3125v15.22266h16.88867v-3.69532h-13.01953v-11.52539c-1.28875.007-2.58066-.0108-3.86914-.002z"/><path d="m244.27344 179.73828-6.15039 14.79688h4.30468l2.76563-6.82422h11.05078l2.76563 6.82422h.33789 3.93359l-6.25195-15.03711c-1.36358.0179-2.72463.0577-4.08789.0781l1.81445 4.47461h-8.07227l1.76758-4.39062c-1.39287.0236-2.78519.0519-4.17773.0781z"/><path d="m211.25781 180.58398v13.95118h12.18946c2.48416 0 4.54354-.78121 5.97656-2.11524 1.43302-1.33402 2.22265-3.21306 2.22265-5.31445 0-1.65113-.46958-3.0732-1.36718-4.14453-.65404-.78063-1.58688-1.29045-2.63086-1.65821.53592-.31321.85813-.83028 1.25781-1.27734-2.23433.0577-4.47552.0604-6.70898.125-3.65134.10555-7.29046.30937-10.93946.43359zm3.86914 2.78516h8.56446c1.38468 0 2.3653.35134 3.00195.94727s.97851 1.46887.97852 2.68359c0 1.24361-.37436 2.17141-1.0625 2.81445-.68817.64303-1.72965 1.02539-3.16211 1.02539h-8.32032z"/><path d="m190.44531 181.4082v13.12696h3.8711v-13.28125c-1.28997.0544-2.58144.0975-3.8711.15429z"/><path d="m150.78711 183.57031c.8054 6.75884 6.05197 11.41992 12.96875 11.41992 7.49639 0 13.07338-5.40176 13.15625-13.03906-1.34629.0683-2.68725.17902-4.0332.25-.19206 5.40604-3.76889 9.0586-9.12305 9.0586-4.928 0-8.25658-3.16749-8.89648-7.94141-1.35744.084-2.71519.16508-4.07227.25195z"/><path d="m95.980469 187.83398c-1.288408.12056-2.581079.20676-3.869141.33008v6.3711h3.869141z"/><path d="m142.57227 184.07812c-1.39995.0956-2.80357.1611-4.20313.25977-.97494 4.1711-4.16364 6.92188-8.75781 6.92188-4.09642 0-7.19351-2.12346-8.49024-5.58204-1.32323.1055-2.64391.23154-3.96679.33985 1.65645 5.40206 6.41343 8.97265 12.45703 8.97265 6.77593 0 11.959-4.42464 12.96094-10.91211z"/></g><g fill="#f4c16c"><path d="m423.64258 182.875c3.22827.16284 6.45601.32117 9.68554.49414h2.74805c.60283 0 1.09812.0944 1.55274.21875 1.84661.10142 3.69008.17855 5.53711.2832-.16809-.3033-.28172-.64729-.50196-.91015-.65403-.78063-1.58688-1.29045-2.63086-1.65821 1.82825-1.06849 2.91407-2.98096 2.91407-5.29296 0-2.02983-.75965-3.80315-2.14454-5.04102-1.3849-1.23786-3.36943-1.93359-5.77539-1.93359h-11.38476zm3.86914-10.14453h7.51562c1.35369 0 2.33711.33009 2.97266.87695.63555.54687.97266 1.32264.97266 2.40235 0 1.2004-.33213 2.09621-.93164 2.70312-.59952.60692-1.5007.96289-2.76954.96289h-7.75976z"/><path d="m408.99609 182.12695c1.33569.0609 2.67386.14236 4.00977.20508v-13.29687h-4.00977z"/><path d="m391.95117 181.42578c1.33729.0532 2.67225.0875 4.00977.14258v-12.5332h-4.00977z"/><path d="m368 180.57422c1.28901.0404 2.57991.0945 3.86914.13672v-11.67578h-3.86914z"/><path d="m335.06055 179.77539c1.37569.0262 2.75098.0498 4.12695.0781.79042-4.53994 4.084-7.54297 8.61523-7.54297 2.90323 0 5.54516 1.22967 7.15821 3.40234l.29297.39453 3.15429-2.25976-.29687-.40625c-1.9559-2.69398-5.63856-4.86133-10.3086-4.86133-6.6568 0-11.85283 4.53322-12.74218 11.19531z"/><path d="m297.01172 179.33398c1.29021.005 2.57868-.005 3.86914.002v-10.30078h-3.86914z"/><path d="m271.54883 179.3125c1.28848-.009 2.58039.009 3.86914.002v-10.27929h-3.86914z"/><path d="m244.27344 179.73828c1.39254-.0262 2.78486-.0545 4.17773-.0781l2.25391-5.60352 2.23633 5.51953c1.36326-.0204 2.72431-.0602 4.08789-.0781l-4.34961-10.46289h-3.95703z"/><path d="m211.25781 180.58398c3.649-.12422 7.28812-.32804 10.93946-.43359 2.23346-.0646 4.47465-.0673 6.70898-.125.9638-1.07804 1.65625-2.38135 1.65625-4.01562 0-2.02983-.75964-3.80315-2.14453-5.04102-1.38489-1.23786-3.36943-1.93359-5.77539-1.93359h-11.38477zm3.86914-7.85351h7.51563c1.3537 0 2.3371.33009 2.97265.87695.63554.54687.97266 1.32264.97266 2.40235 0 1.2004-.33212 2.09621-.93164 2.70312-.59951.60692-1.50068.96289-2.76953.96289h-7.75977z"/><path d="m190.44531 181.4082c1.28966-.0568 2.58113-.0999 3.8711-.15429v-8.52344h8.43359v-3.69531h-.5-20.20508v3.69531h8.40039z"/><path d="m150.78711 183.57031c1.35708-.0869 2.71483-.16792 4.07227-.25195-.0701-.5229-.26172-.97128-.26172-1.5332 0-5.6558 3.69247-9.47461 9.1582-9.47461 2.75212 0 5.03413.96336 6.64258 2.61718 1.60845 1.65381 2.55273 4.01137 2.55273 6.85743 0 .15217-.0669.26654-.0723.41601 1.34595-.071 2.68691-.18171 4.0332-.25.00062-.0573.0156-.10846.0156-.16601 0-7.72832-5.61923-13.20508-13.17187-13.20508-7.51878 0-13.13477 5.47676-13.13477 13.20508 0 .61878.0959 1.19689.16602 1.78515z"/><path d="m95.980469 187.83398v-3.58984h12.320311v-3.6582h-12.320311v-7.85547h13.335941v-.5-3.19531h-17.205082v19.1289c1.288062-.12332 2.580733-.20952 3.869141-.33008z"/><path d="m129.61133 168.58008c-7.51878 0-13.13477 5.47676-13.13477 13.20508 0 1.51629.27341 2.91383.67774 4.23242 1.32288-.10831 2.64356-.23435 3.96679-.33985-.4341-1.15783-.66797-2.46495-.66797-3.89257 0-5.6558 3.69247-9.47461 9.15821-9.47461 2.75211 0 5.03413.96336 6.64258 2.61718 1.60845 1.65381 2.55273 4.01137 2.55273 6.85743 0 .93337-.2448 1.72832-.4375 2.55273 1.39956-.0987 2.80318-.16416 4.20313-.25977.11485-.74364.21093-1.49818.21093-2.29296 0-7.72832-5.61923-13.20508-13.17187-13.20508z"/></g><g fill="url(#a)"><path d="m45.126816 36.35547h11.807999v20.664h21.024v-20.664h11.808v53.64h-11.808v-21.888h-21.024v21.888h-11.807999z"/><path d="m99.739315 36.35547h13.391995l12.888 23.328 12.24001-23.328h13.24799l-19.872 34.56v19.08h-11.80799v-19.08z"/><path d="m161.57994 36.35547h40.51517v10.8h-27.48676v10.728h25.10352v10.512h-25.10352v10.8h28.28118v10.8h-41.30959z"/><path d="m229.2092 72.28347v17.712h-11.97301v-53.64q13.65215-.504 19.41963-.504 10.22086 0 16.28037 4.68 6.05951 4.68 6.05951 12.6 0 11.016-10.43988 15.768l15.4773 21.096h-14.01718l-12.11901-17.712zm0-24.912v14.544h7.81165q4.30736 0 6.86258-2.088 2.55521-2.088 2.55521-5.688 0-3.24-2.48221-5.112-2.4092-1.944-6.57055-1.944-4.96441 0-8.17668.288z"/><path d="m367.06381 44.05947-7.56 8.64q-3.456-3.6-6.408-5.112-2.952-1.512-6.264-1.512-3.096 0-5.4 1.224-2.304 1.152-2.304 3.888 0 1.008.36 1.872.36001.864 1.224 1.512.864.648 1.656 1.152.792.432 2.304.936 1.512.504 2.52.792 1.08.288 2.952.792 1.944.432 3.024.72 3.024.864 5.184 1.872 2.16001.936 4.32 2.592 2.232 1.656 3.384 4.32 1.152 2.664 1.152 6.192 0 7.92-5.544 12.528-5.47199 4.608-14.76 4.608-6.624 0-12.6-2.304-5.904-2.376-9.648-6.48l7.128-9q3.24 3.168 7.272 4.968 4.104 1.8 7.92 1.8 3.096 0 5.4-1.224 2.376-1.224 2.376-3.96 0-1.44-.72-2.52-.648-1.08-2.304-1.872-1.656-.864-2.88-1.296-1.224-.432-4.032-1.152-2.808-.792-4.032-1.152-3.096-.936-5.256-1.944-2.088-1.008-4.32-2.664-2.16-1.656-3.312-4.248-1.08-2.664-1.08-6.12 0-7.632 5.328-12.096 5.4-4.536 14.256-4.536 6.48 0 11.952 2.376 5.472 2.304 8.712 6.408z"/><path d="m408.74581 39.52347q5.688-4.248 14.616-4.248 8.928 0 14.544 4.248 5.688 4.248 5.688 10.872 0 3.96-2.232 7.2-2.16 3.24-5.616 4.536 9.936 3.456 9.936 12.816 0 7.272-6.12 11.736-6.048 4.392-16.2 4.392-10.152 0-16.272-4.392-6.048-4.464-6.048-11.736 0-4.608 2.592-7.992 2.592-3.456 7.344-5.112-3.528-1.224-5.688-4.392-2.16-3.168-2.16-7.056 0-6.624 5.616-10.872zm20.592 8.208q-2.376-1.656-5.976-1.656-3.6 0-5.976 1.656-2.376 1.656-2.376 4.176 0 2.448 2.304 4.032 2.376 1.512 6.048 1.512 3.672 0 5.976-1.512 2.376-1.584 2.376-4.032 0-2.52-2.376-4.176zm.936 21.744q-2.592-1.728-6.912-1.728-4.32 0-6.912 1.728-2.59199 1.656-2.59199 4.536 0 2.808 2.59199 4.536 2.592 1.656 6.912 1.656 4.32 0 6.912-1.656 2.592-1.728 2.592-4.536 0-2.88-2.592-4.536z"/><path d="m453.49931 36.35547h37.584v8.064l-13.176 13.608q6.84 0 10.872 4.248 4.032 4.176 4.032 11.16 0 7.992-5.616 12.816-5.616 4.824-15.12 4.824-6.552 0-12.456-2.232-5.832-2.304-9.504-6.408l7.128-9q6.552 6.912 14.328 6.912 4.104 0 6.48-1.728 2.376-1.8 2.376-4.752 0-3.24-2.736-5.112-2.664-1.944-7.56-1.944-4.032 0-7.632.936v-8.064l12.456-12.528h-21.456z"/><path d="m275.57994 36.35547h40.51517v10.8h-27.48676v10.728h25.10352v10.512h-25.10352v10.8h28.28118v10.8h-41.30959z"/></g></g></svg>