<?xml version="1.0" encoding="UTF-8" standalone="no"?>
<!-- Created with Inkscape (http://www.inkscape.org/) -->

<svg
   xmlns:dc="http://purl.org/dc/elements/1.1/"
   xmlns:cc="http://creativecommons.org/ns#"
   xmlns:rdf="http://www.w3.org/1999/02/22-rdf-syntax-ns#"
   xmlns:svg="http://www.w3.org/2000/svg"
   xmlns="http://www.w3.org/2000/svg"
   version="1.1"
   width="300"
   height="285.02982"
   id="svg18047">
  <defs
     id="defs18049" />
  <metadata
     id="metadata18052">
    <rdf:RDF>
      <cc:Work
         rdf:about="">
        <dc:format>image/svg+xml</dc:format>
        <dc:type
           rdf:resource="http://purl.org/dc/dcmitype/StillImage" />
        <dc:title></dc:title>
      </cc:Work>
    </rdf:RDF>
  </metadata>
  <g
     id="g7572">
    <g
       transform="matrix(15.316281,0,0,-15.316281,49.471606,241.53158)"
       id="g8329">
      <path
         d="m 0,0 c -0.047,-0.002 -0.094,-0.004 -0.141,-0.004 -1.707,0 -3.089,1.383 -3.089,3.09 0,1.705 1.382,3.09 3.089,3.09 1.705,0 3.089,-1.385 3.089,-3.09 0,-1.381 -0.904,-2.549 -2.153,-2.945 0,0.045 -0.014,0.435 0.045,0.558 0.937,0.387 1.598,1.311 1.598,2.387 0,1.424 -1.155,2.578 -2.579,2.578 -1.425,0 -2.58,-1.154 -2.58,-2.578 0,-1.424 1.155,-2.58 2.58,-2.58 0.045,0 0.09,0.002 0.136,0.004 C -0.023,0.354 -0.029,0.1 0,0"
         id="path8331"
         style="fill:#066aa6;fill-opacity:1;fill-rule:nonzero;stroke:none" />
    </g>
    <g
       transform="matrix(15.316281,0,0,-15.316281,164.31308,239.37811)"
       id="g8333">
      <path
         d="m 0,0 c 1.25,0.396 2.154,1.564 2.154,2.945 0,1.705 -1.383,3.09 -3.09,3.09 -1.578,0 -2.88,-1.185 -3.066,-2.713 0.106,0.004 0.456,-0.072 0.504,-0.086 0.144,1.287 1.237,2.287 2.562,2.287 1.425,0 2.581,-1.154 2.581,-2.578 C 1.645,1.865 0.981,0.941 0.04,0.557 0.018,0.428 -0.012,0.281 0,0"
         id="path8335"
         style="fill:#231f20;fill-opacity:1;fill-rule:nonzero;stroke:none" />
    </g>
    <g
       transform="matrix(15.316281,0,0,-15.316281,152.13811,241.53158)"
       id="g8337">
      <path
         d="m 0,0 c -0.047,-0.002 -0.093,-0.004 -0.141,-0.004 -1.558,0 -2.845,1.152 -3.058,2.652 0.093,-0.002 0.357,-0.05 0.541,-0.127 0.258,-1.154 1.287,-2.015 2.517,-2.015 0.047,0 0.093,0.002 0.139,0.004 C -0.007,0.416 -0.029,0.27 0,0"
         id="path8339"
         style="fill:#231f20;fill-opacity:1;fill-rule:nonzero;stroke:none" />
    </g>
    <g
       transform="matrix(15.316281,0,0,-15.316281,214.12163,202.91164)"
       id="g8341">
      <path
         d="m 0,0 c 0.258,-1.154 1.287,-2.016 2.518,-2.016 1.423,0 2.58,1.157 2.58,2.58 0,1.424 -1.157,2.579 -2.58,2.579 -1.327,0 -2.42,-1 -2.564,-2.289 -0.091,0.033 -0.392,0.084 -0.503,0.087 0.186,1.528 1.488,2.713 3.067,2.713 1.707,0 3.089,-1.384 3.089,-3.09 0,-1.707 -1.382,-3.089 -3.089,-3.089 -1.56,0 -2.849,1.154 -3.059,2.656 C -0.445,0.125 -0.182,0.074 0,0"
         id="path8343"
         style="fill:#fa142f;fill-opacity:1;fill-rule:nonzero;stroke:none" />
    </g>
    <g
       transform="matrix(15.316281,0,0,-15.316281,145.51229,231.06137)"
       id="g8345">
      <path
         d="m 0,0 c -0.21,1.5 -1.501,2.656 -3.06,2.656 -0.045,0 -0.09,0 -0.135,-0.004 0.01,-0.115 0.014,-0.386 -0.005,-0.511 0.048,0.004 0.093,0.005 0.14,0.005 1.231,0 2.259,-0.861 2.517,-2.013 C -0.416,0.074 -0.099,0 0,0"
         id="path8347"
         style="fill:#ffa814;fill-opacity:1;fill-rule:nonzero;stroke:none" />
    </g>
    <g
       transform="matrix(15.316281,0,0,-15.316281,145.61644,243.44612)"
       id="g8349">
      <path
         d="m 0,0 c -0.185,-1.529 -1.487,-2.715 -3.066,-2.715 -1.707,0 -3.09,1.385 -3.09,3.09 0,1.381 0.906,2.551 2.156,2.945 0.007,-0.127 -0.004,-0.345 -0.042,-0.556 -0.94,-0.385 -1.604,-1.309 -1.604,-2.389 0,-1.424 1.155,-2.58 2.58,-2.58 1.326,0 2.418,1.002 2.562,2.287 C -0.374,0.041 -0.115,0.002 0,0"
         id="path8351"
         style="fill:#ffa814;fill-opacity:1;fill-rule:nonzero;stroke:none" />
    </g>
    <g
       transform="matrix(15.316281,0,0,-15.316281,248.3137,243.44612)"
       id="g8353">
      <path
         d="m 0,0 c -0.186,-1.529 -1.488,-2.715 -3.067,-2.715 -1.706,0 -3.089,1.385 -3.089,3.09 0,1.381 0.905,2.549 2.154,2.945 0.018,-0.14 -0.01,-0.47 -0.039,-0.554 -0.938,-0.387 -1.605,-1.313 -1.605,-2.391 0,-1.424 1.154,-2.58 2.579,-2.58 1.326,0 2.418,1.002 2.563,2.287 C -0.434,0.059 -0.17,0.006 0,0"
         id="path8355"
         style="fill:#018240;fill-opacity:1;fill-rule:nonzero;stroke:none" />
    </g>
    <g
       transform="matrix(15.316281,0,0,-15.316281,199.25405,198.24471)"
       id="g8357">
      <path
         d="m 0,0 c 0.045,0.002 0.09,0.004 0.136,0.004 1.231,0 2.26,-0.863 2.517,-2.016 0.111,-0.047 0.38,-0.117 0.542,-0.131 -0.21,1.5 -1.5,2.657 -3.059,2.657 -0.046,0 -0.093,0 -0.139,-0.004 0.017,-0.125 0.017,-0.379 0,-0.51"
         id="path8359"
         style="fill:#018240;fill-opacity:1;fill-rule:nonzero;stroke:none" />
    </g>
    <path
       d="m 255.42658,0.86538247 -210.905197,0 0,141.49180753 210.905197,0 0,-141.49180753 z"
       id="path8361"
       style="fill:#ffffff;stroke:#231f20;stroke-width:1.73073983;stroke-linecap:butt;stroke-linejoin:miter;stroke-miterlimit:4;stroke-opacity:1;stroke-dasharray:none" />
    <g
       transform="matrix(15.316281,0,0,-15.316281,149.98464,112.57008)"
       id="g8363">
      <path
         d="M 0,0 C 1.477,0 2.674,1.197 2.674,2.674 2.674,4.15 1.477,5.348 0,5.348 -1.477,5.348 -2.673,4.15 -2.673,2.674 -2.673,1.197 -1.477,0 0,0"
         id="path8365"
         style="fill:#fa142f;fill-opacity:1;fill-rule:nonzero;stroke:none" />
    </g>
  </g>
</svg>
