<?xml version="1.0" encoding="UTF-8" standalone="no"?>
<svg
   xmlns:dc="http://purl.org/dc/elements/1.1/"
   xmlns:cc="http://creativecommons.org/ns#"
   xmlns:rdf="http://www.w3.org/1999/02/22-rdf-syntax-ns#"
   xmlns:svg="http://www.w3.org/2000/svg"
   xmlns="http://www.w3.org/2000/svg"
   xmlns:sodipodi="http://sodipodi.sourceforge.net/DTD/sodipodi-0.dtd"
   xmlns:inkscape="http://www.inkscape.org/namespaces/inkscape"
   inkscape:version="1.0 (4035a4f, 2020-05-01)"
   sodipodi:docname="Logo AS Saint-Ouen-l'Aumône.svg"
   viewBox="0 0 527.36456 700"
   id="svg906"
   height="700"
   width="527.36456"
   version="1.1">
  <metadata
     id="metadata912">
    <rdf:RDF>
      <cc:Work
         rdf:about="">
        <dc:format>image/svg+xml</dc:format>
        <dc:type
           rdf:resource="http://purl.org/dc/dcmitype/StillImage" />
        <dc:title></dc:title>
      </cc:Work>
    </rdf:RDF>
  </metadata>
  <defs
     id="defs910" />
  <sodipodi:namedview
     inkscape:current-layer="svg906"
     inkscape:window-maximized="0"
     inkscape:window-y="0"
     inkscape:window-x="0"
     inkscape:cy="256.40532"
     inkscape:cx="203.5341"
     inkscape:zoom="0.99780623"
     showgrid="false"
     id="namedview908"
     inkscape:window-height="900"
     inkscape:window-width="1440"
     inkscape:pageshadow="2"
     inkscape:pageopacity="0"
     guidetolerance="10"
     gridtolerance="10"
     objecttolerance="10"
     borderopacity="1"
     bordercolor="#666666"
     pagecolor="#ffffff" />
  <g
     transform="matrix(1.2347223,0,0,1.2347223,-103.81755,-169.74987)"
     id="g1069">
    <path
       d="m 87.5759,244.0558 c 70.2941,-30.57 140.8273,-49.3546 210.788,-49.3546 69.9608,0 144.7234,20.9515 210.1843,49.3546 -24.3009,46.1947 -27.9046,81.8398 -27.6788,133.9872 0.2364,54.6214 9.8401,116.4181 24.9934,183.4382 L 297.6698,704.4093 90.1263,561.1342 c 14.1742,-67.4161 26.7433,-134.6079 24.9798,-197.9469 -1.1682,-41.9498 -4.8402,-79.6115 -27.5302,-119.1315 z"
       style="fill:#007c3a;fill-rule:evenodd"
       id="path833" />
    <path
       d="m 87.5759,244.0558 c 70.0897,-30.4809 140.4167,-49.2435 210.1772,-49.3522 v 509.6486 l -0.0833,0.0571 L 90.1263,561.1342 c 14.1742,-67.4161 26.7433,-134.6079 24.9798,-197.9469 -1.1682,-41.9498 -4.8402,-79.6115 -27.5302,-119.1315 z"
       style="fill:#007333;fill-rule:evenodd"
       id="path835" />
    <path
       d="m 494.056,249.3812 c -60.9247,-25.3198 -129.9401,-44.7165 -195.6921,-44.7165 -67.603,0 -133.9424,18.6639 -196.013,44.5803 18.2853,36.5672 22.1653,72.2331 23.3184,113.6483 1.7937,64.4195 -10.5916,130.4903 -23.7595,193.5345 L 297.6864,692.7876 493.9878,556.8155 C 481.1052,498.7859 470.5589,437.4358 470.302,378.0889 c -0.2138,-49.3501 3.163,-85.5196 23.754,-128.7077 z"
       style="fill:#005d2f;fill-rule:evenodd"
       id="path837" />
    <path
       d="m 297.7531,204.6675 c -67.3916,0.112 -133.5185,18.7393 -195.4022,44.5775 18.2853,36.5672 22.1653,72.2331 23.3184,113.6483 1.7937,64.4195 -10.5916,130.4903 -23.7595,193.5345 l 195.7766,136.3598 0.0667,-0.0462 z"
       style="fill:#004c2c;fill-rule:evenodd"
       id="path839" />
    <path
       d="m 484.7229,253.0478 c -64.5913,-28.3198 -120.607,-48.3831 -186.359,-48.3831 -67.603,0 -126.3508,22.3812 -187.7547,48.631 18.2852,36.5671 19.9845,72.5238 20.06,111.5975 0.1247,64.4437 -10.9249,126.4904 -24.0928,189.5347 l 191.11,138.3597 192.3015,-138.3054 c -12.8826,-58.0296 -24.7625,-116.0464 -25.0191,-175.3933 -0.2135,-49.3495 -0.837,-82.853 19.7541,-126.0411 z"
       style="fill:#fbfcfb;fill-rule:evenodd"
       id="path841" />
    <path
       d="m 297.7531,204.6678 c -67.346,0.1346 -125.9254,22.4572 -187.1439,48.6279 18.2852,36.5671 19.9845,72.5238 20.06,111.5975 0.1247,64.4437 -10.9249,126.4904 -24.0928,189.5347 l 191.11,138.3597 0.0667,-0.0481 z"
       style="fill:#d9d7d9;fill-rule:evenodd"
       id="path843" />
  </g>
  <g
     transform="matrix(1.2347223,0,0,1.2347223,-103.81755,-169.74987)"
     id="g1061">
    <g
       id="g1024">
      <path
         id="path845"
         style="fill:#006530;fill-rule:evenodd"
         d="m 283.2438,222.9681 c -54.3183,1.3333 -100.1229,18.666 -155.33,41.3325 -3.6898,2.2236 -1.3792,14.1533 0.106,18.611 l 8.7151,4.0799 c 31.422,-10.1043 81.5384,-24.3337 112.682,-27.4372 l -0.3375,27.2524 c -37.2637,7.7399 -78.4579,18.1397 -107.1659,27.1595 3.1696,28.2125 -2.5308,67.9529 -5.8522,89.9045 l 8.0188,4.2601 H 289.577 l 3.118,-179.8663 z m -93.998,119.8308 0.1667,31.666 59.4987,0.5 -0.1667,-44.4991 c -21.4784,2.8055 -41.5758,6.361 -59.4987,12.3331 z" />
      <path
         id="path847"
         style="fill:#007a3a;fill-rule:evenodd"
         d="m 283.425,222.9077 c -54.3183,1.3333 -108.4561,14.4994 -163.6632,37.1659 3.329,7.675 5.7142,14.516 7.9877,22.8576 38.4219,-12.7709 77.7052,-24.0004 113.5154,-27.6039 l -0.3375,27.2525 c -37.2637,7.7398 -78.4579,18.1397 -107.1659,27.1594 3.5902,31.9577 4.3541,63.0959 2.1666,94.1647 H 281.425 Z M 181.2605,338.5719 v 31.666 l 59.4987,0.5 -0.1667,-44.499 c -21.4784,2.8055 -41.4091,6.3609 -59.332,12.333 z" />
    </g>
    <g
       id="g1028">
      <path
         id="path849"
         style="fill:#006530;fill-rule:evenodd"
         d="m 241.4114,413.6452 -2,36.8326 -8.1538,3.9268 -58.3448,-3.0935 -0.5,9.8331 65.832,0.5 c -2.6663,54.7908 -8.7218,108.8171 -17.9997,147.9969 l -9.6465,5.0941 -85.5181,-68.2595 c -1.7062,-6.5418 -2.7412,-24.6598 -0.6301,-34.5823 l 8.9633,-5.0835 64.1653,39.9992 7.3331,-52.3323 -70.3318,-0.1666 c 3.6391,-25.7616 -1.1068,-50.3142 0.7231,-75.7653 l 8.4854,-4.4851 z" />
      <path
         id="path851"
         style="fill:#007a3a;fill-rule:evenodd"
         d="m 233.2594,417.9036 -2,36.4992 -66.4986,0.8333 -0.5,9.8331 65.832,0.5 C 227.4265,520.36 219.8711,575.553 210.5932,614.7327 l -93.6647,-64.3319 c 2.2639,-11.6526 4.7919,-24.6245 7.4999,-38.4992 l 64.9986,38.8325 7.3331,-52.3322 -70.3318,-0.1667 c 3.7674,-26.6694 7.0663,-53.3841 8.8332,-79.665 z" />
    </g>
    <g
       id="g1032">
      <path
         id="path853"
         style="fill:#00883d;fill-rule:evenodd"
         d="m 304.0915,227.8376 0.9997,93.1622 c 39.308,6.7206 76.9726,14.1655 111.8309,22.6662 v 30.9994 l -101.7536,-3.7584 -9.1402,5.0917 0.3334,31.666 h 145.7275 l 8.223,-4.1011 C 459.577,377.12 449.1086,342.4318 452.7547,313.6667 417.7137,304.1255 381.4642,294.9865 343.757,286.3339 l 0.3333,-27.6661 c 34.582,4.5772 76.1931,15.9952 114.6648,28.5825 l 9.0285,-4.0824 -2.0292,-18.5002 C 418.1829,242.4915 365.0292,226.6721 313.6115,222.959 Z" />
      <path
         id="path855"
         style="fill:#119442;fill-rule:evenodd"
         d="m 313.4243,222.9077 1.3333,93.998 c 39.3081,6.7206 75.1394,14.8321 109.9977,23.3329 v 30.666 H 315.0909 l 0.3334,32.666 h 144.9141 c -1.7231,-29.6232 -2.0842,-61.1238 2.0827,-93.9981 -35.0409,-9.5411 -71.2904,-18.6801 -108.9976,-27.3327 l 0.3333,-27.6661 c 34.582,4.5772 75.5258,16.0788 113.9975,28.6661 l 7.6665,-22.6662 C 418.6473,235.8489 369.4717,225.6293 313.4243,222.9077 Z" />
    </g>
    <g
       id="g1042">
      <path
         id="path857"
         style="fill:#00883d;fill-rule:evenodd"
         d="m 250.4788,414.0196 94.4231,0.1667 c 4.6666,80.2205 13.6326,155.3252 26.3545,200.602 l 0.3545,6.4389 -73.6863,43.0601 -73.4277,-42.5964 -0.0707,-7.0693 c 15.9323,-58.0812 20.3459,-117.1068 26.0526,-200.602 z m 35.1128,29.2723 c -3.8227,56.1945 -12.4539,112.5188 -23.8328,162.0473 l 36.1658,22.4995 36.4993,-22.4995 C 323.149,553.1042 314.8105,497.3041 309.7577,443.2919 Z" />
      <path
         id="path859"
         style="fill:#006530;fill-rule:evenodd"
         d="m 250.4788,414.0196 47.2743,0.0833 v 29.189 h -12.1615 c -3.8227,56.1945 -12.4539,112.5188 -23.8328,162.0473 l 35.9943,22.393 v 36.4554 l -73.2562,-42.4967 -0.0707,-7.0693 c 15.9323,-58.0812 20.3459,-117.1068 26.0526,-200.602 z" />
      <path
         id="path861"
         style="fill:#119442;fill-rule:evenodd"
         d="m 252.5923,417.9446 90.498,0.1667 c 4.6666,83.5538 15.2778,158.0099 28.4997,203.1201 l -73.6654,50.0001 -73.4984,-49.6656 c 16.2657,-57.2478 22.4594,-120.126 28.1661,-203.6213 z m 32.9993,32.2916 c -3.8227,56.1945 -12.4539,109.8014 -23.8328,159.33 l 36.1658,22.3328 36.4993,-22.3328 c -11.2749,-52.235 -19.6134,-105.3178 -24.6662,-159.33 z" />
      <path
         id="path863"
         style="fill:#007a3a;fill-rule:evenodd"
         d="m 252.5923,417.9446 45.1608,0.0831 v 32.2085 h -12.1615 c -3.8227,56.1945 -12.4539,109.8014 -23.8328,159.33 l 35.9943,22.2269 v 39.3225 l -73.3269,-49.5497 c 16.2657,-57.2478 22.4594,-120.126 28.1661,-203.6213 z" />
    </g>
    <g
       id="g1036">
      <path
         id="path865"
         style="fill:#00883d;fill-rule:evenodd"
         d="m 354.2085,414.0099 2.6666,36.6659 7.7148,4.2792 62.617,-4.6125 0.3333,10.9998 -69.9985,0.3333 c 2.9927,52.4506 7.5892,103.5458 18.583,147.9957 l 9.0348,4.5829 85.7131,-67.9137 c -9.5034,-39.1323 -14.5024,-84.5224 -18.6662,-131.6639 z m 31.3326,78.9984 c 2.8333,22.2217 4.9441,43.4435 9.6665,65.6652 l 43.999,-29.666 c -2.9999,-11.4442 -5.2221,-23.9995 -7.3331,-36.3326 z" />
      <path
         id="path867"
         style="fill:#119442;fill-rule:evenodd"
         d="m 361.7566,418.2369 2.6666,36.6659 70.3318,-0.3333 0.3334,11.6664 -69.3319,0.6666 c 2.9927,52.4506 8.3392,102.8804 19.3329,147.3303 l 93.3314,-63.6654 c -9.5034,-39.1323 -14.5024,-84.5223 -18.6663,-131.6638 l -7.5007,-4.2349 z m 31.3327,78.9983 c 2.8332,22.2218 4.944,43.4436 9.6664,65.6653 l 43.9991,-30.9993 c -2.9999,-11.4442 -5.2221,-22.6662 -7.3332,-34.9993 z" />
    </g>
  </g>
  <g
     transform="matrix(1.2347223,0,0,1.2347223,-103.81755,-169.74987)"
     id="g1020">
    <path
       id="path870"
       style="fill:#989f9c;fill-rule:evenodd"
       d="m 292.7216,148.7022 0.6772,35.2631 -1.7409,2.1718 -9.8199,0.1878 -0.7192,-37.4008 -12.1935,0.2343 -0.1679,-8.848 1.7412,-2.1684 34.3232,-0.6618 0.17,8.6583 -1.7385,2.3611 z" />
    <path
       id="path872"
       style="fill:#989f9c;fill-rule:evenodd"
       d="m 353.5201,160.5057 c 3.7692,2.1412 5.9485,5.8111 5.7471,10.9094 -0.1597,4.0591 -2.0108,8.4162 -5.1131,11.097 -3.3076,2.8584 -8.0246,4.1962 -12.8472,4.0069 l -17.2681,-0.6799 1.8164,-46.2204 1.349,-2.0787 16.2753,0.6394 c 7.7233,0.3056 14.7669,4.4072 14.4348,12.9578 -0.1274,3.2282 -2.0806,7.0756 -4.3942,9.3685 z m -6.7755,-6.8824 c 0.1231,-3.3626 -1.9281,-4.9504 -5.1621,-5.0772 l -5.0642,-0.2005 -0.3173,8.0822 5.3861,0.2114 c 0.8831,0.0347 1.7113,-0.016 2.46,-0.1709 1.897,-0.3931 2.6304,-0.9556 2.6975,-2.845 z m 0.8828,18.905 c 0.0782,-4.5938 -3.435,-5.7704 -7.4223,-5.9277 l -4.3978,-0.1727 -0.372,9.4796 6.2414,0.2443 c 2.9737,0.1183 5.893,-0.2573 5.9507,-3.6235 z" />
    <path
       id="path874"
       style="fill:#989f9c;fill-rule:evenodd"
       d="m 389.0791,179.3821 -3.958,8.0807 -1.4643,1.9447 -10.3482,-1.3091 22.0185,-43.8403 1.51,-1.9794 11.5115,1.4975 10.225,47.9175 -1.4637,1.9447 -10.5137,-1.3288 -2.1183,-10.9786 z m 13.6875,-8.2556 -3.0458,-15.2892 -6.6204,14.0658 z" />
    <path
       id="path876"
       style="fill:#989f9c;fill-rule:evenodd"
       d="m 449.3553,189.4006 15.3514,3.7182 -1.942,8.0131 -1.157,2.2053 -24.9511,-6.0452 10.8285,-44.9707 1.26,-2.1793 9.5605,2.3158 z" />
    <path
       id="path878"
       style="fill:#989f9c;fill-rule:evenodd"
       d="m 491.9368,204.2816 13.1516,7.931 -0.8632,2.2759 -4.2581,7.0605 -21.9844,-13.2587 1.0045,-2.6331 2.8849,-4.6772 20.8054,-34.6091 8.5161,5.1339 -0.8629,2.2759 z" />
    <path
       id="path880"
       style="fill:#989f9c;fill-rule:evenodd"
       d="m 98.5947,187.7542 6.5249,7.9998 11.7636,-9.597 5.1557,6.309 -1.0763,2.0284 -10.1291,8.2631 11.2238,13.7566 -1.0316,2.0734 -7.7043,6.2845 -29.2397,-35.8404 1.0555,-2.0446 20.2209,-16.4939 5.1663,6.3283 -1.0486,2.0543 z" />
    <path
       id="path882"
       style="fill:#989f9c;fill-rule:evenodd"
       d="m 151.4009,155.5396 c 2.6099,-1.9921 5.899,-3.4368 9.8899,-4.1657 13.9903,-2.5558 23.0484,5.4313 25.456,18.6159 1.5211,8.3283 0.3442,18.3897 -5.9579,24.6232 -2.9912,2.9592 -7.104,5.102 -12.3995,6.0554 -15.2243,2.7421 -22.7136,-5.9588 -25.2039,-19.5883 -1.6555,-9.0629 0.5842,-19.7173 8.2154,-25.5405 z m 24.5813,19.9211 c -1.4405,-7.8836 -4.9256,-15.4058 -14.4456,-13.667 -5.9075,1.0788 -8.3127,4.5729 -8.0216,10.1386 0.0806,1.5414 0.295,3.1663 0.5833,4.8224 1.3702,7.5038 4.9585,15.2162 14.0568,13.5535 1.5769,-0.2881 2.9169,-0.7814 4.0467,-1.4393 4.9664,-2.8937 4.742,-8.1415 3.7804,-13.4082 z" />
    <path
       id="path884"
       style="fill:#989f9c;fill-rule:evenodd"
       d="m 216.4937,145.0938 c 3.1811,-2.4531 7.2233,-3.8969 11.9478,-4.2692 14.1773,-1.1171 22.3742,7.7511 23.4271,21.1119 0.2273,2.8918 0.169,5.8459 -0.3119,8.7099 -1.083,6.4507 -4.9474,12.6326 -10.3775,16.333 -3.1548,2.1494 -6.8984,3.5111 -11.027,3.8363 -15.4072,1.2137 -21.9904,-8.2486 -23.0777,-22.053 -0.2421,-3.0688 -0.0631,-6.2227 0.635,-9.2235 1.2379,-5.3233 4.38,-11.049 8.7842,-14.4454 z m 23.559,27.0487 c 0.352,-1.8001 0.3795,-3.5938 0.2192,-5.63 -0.6295,-7.9884 -3.3299,-15.8282 -12.9783,-15.0676 -5.2067,0.4112 -8.1728,3.1028 -8.633,8.1187 -0.1775,1.9309 -0.1077,3.9036 0.0405,5.7783 0.5987,7.604 3.3843,15.6401 12.6027,14.9145 5.4842,-0.4326 7.7676,-3.101 8.7489,-8.1139 z" />
    <path
       id="path887"
       style="fill:#006c31;fill-rule:evenodd"
       d="m 303.3424,139.0188 0.112,5.8286 -12.313,0.2364 0.7181,37.4002 -6.7999,0.1306 -0.7182,-37.4003 -12.1934,0.2342 -0.1119,-5.8285 z" />
    <path
       id="path889"
       style="fill:#006c31;fill-rule:evenodd"
       d="m 343.4196,139.6888 c 7.199,0.283 13.2766,3.9436 12.9839,11.3888 -0.2146,5.46 -4.2539,8.1738 -7.9597,9.1676 5.7905,1.2021 9.5637,4.795 9.3154,11.1119 -0.3329,8.4679 -7.014,11.8898 -15.1328,11.5706 l -15.7596,-0.6195 1.6984,-43.2033 z m -8.7856,18.1885 6.8934,0.271 c 3.2594,0.1281 7.7837,-0.864 7.9882,-6.5517 0.1424,-3.953 -2.2644,-6.47 -6.6118,-6.6409 l -7.7499,-0.3046 z m -0.7658,19.4797 7.7499,0.3047 c 5.1605,0.2028 8.6899,-1.9712 8.7791,-7.1908 0.0929,-5.4382 -3.9554,-7.2674 -8.8718,-7.4607 l -7.0823,-0.2784 z" />
    <path
       id="path891"
       style="fill:#006c31;fill-rule:evenodd"
       d="m 407.0958,145.1396 9.5567,44.7903 -7.3166,-0.9256 -2.1181,-10.9795 -18.0356,-2.2816 -4.9424,10.0863 -7.1598,-0.9058 20.5809,-40.9777 z m -5.4885,3.1458 -10.7578,22.8548 15.7071,1.9873 z" />
    <path
       id="path893"
       style="fill:#006c31;fill-rule:evenodd"
       d="m 456.4834,153.5696 -8.9502,36.9422 15.3499,3.719 -1.2304,5.0788 -22.0189,-5.3347 10.1216,-42.0353 z" />
    <path
       id="path895"
       style="fill:#006c31;fill-rule:evenodd"
       d="m 509.1203,172.0184 -19.6294,32.5503 13.525,8.1562 -2.6986,4.475 -19.4011,-11.6998 22.276,-37.0566 z" />
    <path
       id="path897"
       style="fill:#006c31;fill-rule:evenodd"
       d="m 105.1423,172.6164 3.265,4.0022 -12.5163,10.2109 9.0134,11.0485 11.7635,-9.5967 3.2266,3.9551 -11.7634,9.5967 11.8263,14.4965 -5.364,4.376 -27.3314,-33.5023 z" />
    <path
       id="path899"
       style="fill:#006c31;fill-rule:evenodd"
       d="m 145.7219,178.1613 c -1.8125,-9.9238 0.8048,-22.5567 15.8402,-25.3028 15.0353,-2.746 21.8524,7.2867 23.6999,17.4023 1.8475,10.1157 0.3509,23.2714 -16.0932,26.2751 -16.444,3.0036 -21.6344,-8.4508 -23.4469,-18.3746 z m 6.8915,-1.1349 c 0.9427,5.1618 4.0838,16.9088 15.8126,14.7666 11.7287,-2.1421 11.0474,-14.0195 10.0919,-19.251 -0.9555,-5.2316 -3.871,-17.1331 -16.2021,-14.881 -12.3311,2.2522 -10.6452,14.2036 -9.7024,19.3654 z" />
    <path
       id="path901"
       style="fill:#006c31;fill-rule:evenodd"
       d="m 210.2245,165.8879 c -0.7924,-10.0568 3.0978,-22.3575 18.3347,-23.5581 15.2368,-1.2005 20.9967,9.4743 21.8044,19.7255 0.8077,10.2513 -2.021,23.1862 -18.6854,24.4995 -16.6645,1.3133 -20.6614,-10.6101 -21.4537,-20.6669 z m 6.9712,-0.4272 c 0.4121,5.2309 2.3406,17.2368 14.2265,16.3003 11.8859,-0.9365 12.4177,-12.8216 12,-18.1232 -0.4177,-5.3017 -2.106,-17.4383 -14.6023,-16.4536 -12.4963,0.9846 -12.0364,13.0455 -11.6242,18.2765 z" />
  </g>
</svg>
