<?xml version="1.0" encoding="UTF-8" standalone="no"?>
<svg
   xmlns:dc="http://purl.org/dc/elements/1.1/"
   xmlns:cc="http://creativecommons.org/ns#"
   xmlns:rdf="http://www.w3.org/1999/02/22-rdf-syntax-ns#"
   xmlns:svg="http://www.w3.org/2000/svg"
   xmlns="http://www.w3.org/2000/svg"
   xmlns:sodipodi="http://sodipodi.sourceforge.net/DTD/sodipodi-0.dtd"
   xmlns:inkscape="http://www.inkscape.org/namespaces/inkscape"
   inkscape:version="1.0 (4035a4f, 2020-05-01)"
   sodipodi:docname="Logo Le Mans Union Club 72 1995.svg"
   viewBox="0 0 484.78644 700.00001"
   height="700"
   width="484.78644"
   xml:space="preserve"
   id="svg833"
   version="1.1">
   <g
     transform="matrix(1.3333333,0,0,-1.3333333,-42.471866,253.98399)"
     inkscape:label="Logo"
     inkscape:groupmode="layer"
     id="g841"><path
       d="M 395.44374,83.347683 349.9049,110.18889 v 43.22093 h -73.34257 l -62.91225,37.07818 -1.04783,-0.61736 -61.86357,-36.46082 H 77.394147 V 110.18608 L 31.855022,83.347683 31.8539,-138.54474 77.394147,-165.38089 V -334.51201 H 349.9049 v 169.13112 l 45.53884,26.83952 V 83.347683"
       style="fill:#231f20;fill-opacity:1;fill-rule:evenodd;stroke:none;stroke-width:0.280619"
       id="path847" /><g
       id="g923"><path
         id="path849"
         style="fill:#ffffff;fill-opacity:1;fill-rule:evenodd;stroke:none;stroke-width:0.280619"
         d="m 263.2189,-252.16567 c 0,-0.45488 0,-67.75416 0,-68.20907 0.42934,0 9.83008,0 10.25943,0 0,0.45491 0.014,43.53649 0.014,43.53649 0,0 14.05339,-43.22079 14.15722,-43.53649 0.3171,0 10.86557,0 11.30053,0 0,0.45491 0,67.75419 0,68.20907 -0.42935,0 -9.90024,0 -10.32959,0 0,-0.45488 0,-40.37181 0,-40.37181 0,0 -13.00107,40.05499 -13.10209,40.37181 -0.31991,0 -11.86177,0 -12.29953,0" /><path
         id="path851"
         style="fill:#ffffff;fill-opacity:1;fill-rule:evenodd;stroke:none;stroke-width:0.280619"
         d="m 109.69395,-252.16567 c -0.43187,0 -10.63181,0 -11.063683,0 0,-0.45488 0,-67.75416 0,-68.20907 0.446184,0 23.887693,0 24.333873,0 0,0.43737 0,12.51154 0,12.94902 -0.44394,0 -13.27019,0 -13.27019,0 0,0 0,54.80517 0,55.26005" /><path
         id="path853"
         style="fill:#ffffff;fill-opacity:1;fill-rule:evenodd;stroke:none;stroke-width:0.280619"
         d="m 327.0092,-291.82723 c -1.10003,2.58029 -3.55825,5.78131 -7.51498,9.78658 -2.91844,2.95099 -4.81261,5.2386 -5.63763,6.79631 -0.8138,1.54341 -1.22631,3.23245 -1.22631,5.01915 0,2.05442 0.55563,3.74234 1.65004,5.01607 1.11125,1.28916 2.55644,1.94132 4.29908,1.94132 0.88676,0 1.93066,-0.22562 3.09804,-0.67292 1.06916,-0.40999 2.55924,-1.15868 4.46465,-2.22307 0,0.71025 0,11.35862 0,11.60528 -1.75387,1.14661 -3.3534,1.96433 -4.86594,2.48376 -1.56024,0.5371 -3.15135,0.80678 -4.73123,0.80678 -4.49271,0 -8.18005,-1.81308 -10.95817,-5.38648 -2.79497,-3.59333 -4.20929,-8.38237 -4.20929,-14.22598 0,-3.74907 0.66226,-7.14063 1.96995,-10.08713 1.30768,-2.93864 3.70136,-6.23704 7.31573,-10.08348 l 1.91944,-1.96882 c 3.09803,-3.05931 4.6695,-5.96091 4.6695,-8.62258 0,-2.15375 -0.59492,-3.88573 -1.7679,-5.14852 -1.17299,-1.26391 -2.79777,-1.904 -4.82384,-1.904 -1.48448,0 -2.96334,0.38782 -4.3945,1.1497 -1.31049,0.70155 -2.64904,1.7606 -3.97637,3.07474 0,-0.95242 0,-13.38193 0,-13.6176 1.38907,-1.05122 2.88477,-1.84596 4.45623,-2.34471 1.65285,-0.52506 3.46565,-0.79143 5.38789,-0.79143 5.08481,0 9.15098,1.7977 12.08345,5.34153 2.95492,3.56919 4.45342,8.50079 4.45342,14.65813 0,3.65226 -0.55843,6.81371 -1.66126,9.39737" /><path
         id="path855"
         style="fill:#ffffff;fill-opacity:1;fill-rule:evenodd;stroke:none;stroke-width:0.280619"
         d="m 201.66457,-252.16567 c -0.0516,-0.39455 -5.07415,-37.84315 -5.07415,-37.84315 0,0 -5.02056,37.4486 -5.07303,37.84315 -0.38473,0 -14.18782,0 -14.59219,0 -0.0328,-0.41644 -5.63988,-67.7158 -5.68141,-68.20907 0.46695,0 9.882,0 10.28412,0 0.0275,0.42643 3.43113,51.82036 3.43113,51.82036 0,0 7.37944,-51.4301 7.43528,-51.82036 0.37266,0 8.0229,0 8.39219,0 0.0558,0.39026 7.4364,51.82036 7.4364,51.82036 0,0 3.40363,-51.39393 3.43113,-51.82036 0.40213,0 9.81717,0 10.283,0 -0.0393,0.49327 -5.64521,67.79263 -5.68029,68.20907 -0.40549,0 -14.20745,0 -14.59218,0" /><path
         id="path857"
         style="fill:#ffffff;fill-opacity:1;fill-rule:evenodd;stroke:none;stroke-width:0.280619"
         d="m 236.40856,-252.16567 c -0.073,-0.36845 -13.39955,-67.66646 -13.50675,-68.20907 0.52251,0 10.78194,0 11.15516,0 0.0561,0.37929 1.80158,12.0415 1.80158,12.0415 h 12.11713 c 0,0 1.89417,-11.66769 1.9531,-12.0415 0.36761,0 10.6551,0 11.17425,0 -0.10102,0.53713 -12.79903,67.83865 -12.86919,68.20907 -0.36199,0 -11.46609,0 -11.82528,0 z m 1.50131,-45.94799 2.09623,16.30986 1.86892,15.63468 0.26939,2.26235 0.18802,-2.26908 c 0.47424,-5.78889 1.03829,-11.37377 1.6781,-16.60703 0.67068,-5.50603 1.37784,-10.43426 2.15515,-15.06559 l 0.0449,-0.26631 -8.30071,10e-4" /><path
         id="path859"
         style="fill:#ffffff;fill-opacity:1;fill-rule:evenodd;stroke:none;stroke-width:0.280619"
         d="m 149.08471,-307.42572 c -0.44169,0 -13.28225,0 -13.28225,0 v 16.54445 c 0,0 11.59966,0 12.04136,0 0,0.43412 0,11.71051 0,12.14435 -0.4417,0 -12.04136,0 -12.04136,0 v 14.33037 c 0,0 12.84056,0 13.28225,0 0,0.43299 0,11.80564 0,12.24088 -0.44394,0 -23.65533,0 -24.09927,0 0,-0.45488 0,-67.75416 0,-68.20907 0.44394,0 23.65533,0 24.09927,0 0,0.43737 0,12.51154 0,12.94902" /></g><g
       id="g950"><path
         id="path933"
         style="fill:#fddd04;fill-opacity:1;fill-rule:evenodd;stroke:none;stroke-width:0.374159"
         d="M 242.39453,6.3867188 5.5039062,146 5.5019531,435.5625 242.39453,575.17188 479.28711,435.5625 V 145.99609 Z"
         sodipodi:nodetypes="ccccccc"
         transform="matrix(0.75000002,0,0,-0.75000002,31.8539,190.488)" /><path
         id="path867"
         style="fill:#e91d24;fill-opacity:1;fill-rule:evenodd;stroke:none;stroke-width:0.280619"
         d="m 93.828035,115.08007 v -285.35552 c 19.188445,-11.31006 40.571325,-23.91182 59.912145,-35.3086 v 355.9716 c -19.34082,-11.39593 -40.7237,-23.99853 -59.912145,-35.30748" /><path
         id="path869"
         style="fill:#e91d24;fill-opacity:1;fill-rule:evenodd;stroke:none;stroke-width:0.280619"
         d="m 391.31864,-136.18333 c 0,2.32044 0,214.853095 0,217.173814 -0.76047,0.446184 -26.33328,15.518228 -57.84679,34.089586 v -285.35552 c 31.51351,18.57136 57.08632,33.64369 57.84679,34.09212" /><path
         id="path871"
         style="fill:#e91d24;fill-opacity:1;fill-rule:evenodd;stroke:none;stroke-width:0.280619"
         d="m 213.65008,185.69783 v -426.58935 c 0.79921,0.47115 27.47007,16.18806 59.91243,35.30747 v 355.97441 c -32.44236,19.11857 -59.11322,34.83603 -59.91243,35.30747" /></g><g
       id="g927"><path
         id="path873"
         style="fill:#231f20;fill-opacity:1;fill-rule:evenodd;stroke:none;stroke-width:0.280619"
         d="m 210.45243,-94.180567 c -9.9311,-0.234598 -17.1548,-0.354983 -21.47268,-0.354983 l -13.68354,0.176509 -14.33991,0.517181 -0.60193,-0.57106 -0.0132,-25.1516 0.57443,-0.57106 h 3.81249 l 0.0932,0.45826 c 0.41981,2.07068 1.27149,5.11792 2.28873,6.8861 1.28159,2.2284 2.50593,4.13577 2.81601,4.47026 0.84859,0.19616 7.23604,0.7891 11.64681,0.75739 0,0 17.42251,-0.13497 19.1862,-0.14816 -0.93278,-1.64948 -35.65152,-63.23019 -35.65152,-63.23019 l 0.59941,-0.8441 2.86989,0.34993 3.34105,0.11814 4.01734,-0.0789 c 10e-4,0 3.31383,-0.31991 3.31383,-0.31991 l 0.15574,0.43945 c 4.78034,14.98449 12.68706,28.92228 20.33168,42.40097 5.2386,9.23825 10.18788,17.96382 14.15471,26.93156 l 0.0494,0.1086 v 7.185245 l -0.60725,0.572463 -2.88084,-0.102145" /><path
         id="path875"
         style="fill:#231f20;fill-opacity:1;fill-rule:evenodd;stroke:none;stroke-width:0.280619"
         d="m 270.05197,-147.8742 h -1.94188 l -1.11406,-2.3412 c -1.61637,-3.40475 -3.83326,-8.07004 -4.49271,-8.41324 -0.63981,-0.13694 -2.2646,-0.25087 -5.3963,-0.37491 l -10.68878,-0.17847 -6.60296,0.0196 c 0,0 -1.80719,0.0404 -3.15416,0.0702 11.60359,10.64163 19.62929,19.20275 23.79087,25.41902 4.3047,6.42562 6.48791,12.80437 6.48791,18.95385 0,6.3215 -2.10744,11.61061 -6.26341,15.71803 -3.92867,3.880399 -9.87498,6.136294 -16.3208,6.186525 -8.19127,0.06595 -15.55751,-3.482481 -19.2252,-9.260425 -2.7352,-4.31339 -4.00668,-10.03634 -3.88293,-17.498 l 0.009,-0.56236 h 3.70305 l 0.0533,0.51298 c 0.61175,5.86886 4.13632,16.97099 13.12174,16.97099 3.88657,0 7.18104,-1.57203 9.79641,-4.67427 2.64343,-3.13367 3.98479,-7.1151 3.98479,-11.83511 0,-6.08943 -2.66869,-12.93485 -7.93591,-20.35048 -5.31492,-7.48467 -13.93834,-16.4468 -25.6337,-26.63916 l -0.19503,-0.17314 v -4.79887 l 0.61484,-0.57106 c 19.93825,1.45894 37.13178,1.45894 51.1066,0 l 0.63139,0.56545 0.11786,22.67766 -0.56965,0.57639" /></g><g
       id="g931"><path
         id="path877"
         style="fill:#ffffff;fill-opacity:1;fill-rule:evenodd;stroke:none;stroke-width:0.280619"
         d="m 213.65008,-70.771895 c -48.0515,0 -87.24303,39.189279 -87.24303,87.242469 0,48.050383 39.19153,87.241626 87.24303,87.241626 48.05347,0 87.24191,-39.191243 87.24191,-87.241626 0,-48.05319 -39.18844,-87.242469 -87.24191,-87.242469" /><path
         id="path879"
         style="fill:#231f20;fill-opacity:1;fill-rule:evenodd;stroke:none;stroke-width:0.280619"
         d="m 274.09849,3.5929697 c 4.96977,7.0407293 10.71404,16.6266733 14.81388,23.9339903 l 11.32578,-0.401285 c -3.10084,25.250094 -17.05602,47.219752 -37.03609,61.076716 -0.20205,-6.210098 -1.09161,-11.850539 -1.93346,-18.638711 -7.83208,0.513533 -18.56576,1.046709 -25.35112,1.220692 -9.91146,10.279073 -18.25539,18.338449 -27.97519,25.230451 v 7.517777 c -1.19796,-0.0898 -2.38975,-0.17959 -3.57452,-0.3171 V 96.056915 C 194.58988,88.701893 184.9293,80.648129 176.35835,71.999452 l -4.80784,-0.202045 c -5.89833,-0.230108 -11.51071,-0.468634 -17.14386,-1.024259 l -1.1323,8.570102 C 139.85375,66.451616 130.53215,49.325441 127.488,30.15636 l 2.03785,1.032678 c 2.79637,-7.871362 6.82241,-16.33483 10.59112,-24.0939437 -0.62718,-11.9599799 -0.65328,-23.9171533 -0.0626,-35.8743273 l -0.57864,-0.580881 c 0.21692,-0.350774 0.43833,-0.704354 0.66086,-1.052321 0,-0.0028 0.002,-0.0056 0.002,-0.0084 0.0988,-0.15434 0.20064,-0.308681 0.30251,-0.463021 0.33534,-0.519145 0.67517,-1.032678 1.02173,-1.540598 l 0.41307,0.41251 c 10.20106,-6.760111 20.39651,-11.690586 30.5942,-14.833518 4.15232,-5.699371 9.2276,-11.454866 15.13378,-17.148625 l -0.87609,-2.510417 c 8.48676,-2.7655 17.53336,-4.267372 26.92202,-4.267372 6.87292,0 13.5626,0.803412 19.98597,2.319596 l -2.20286,4.117241 c 3.83887,3.913232 7.6609,8.644467 11.78319,14.568333 11.71303,5.154971 21.29617,11.019907 29.26294,17.423631 l 9.40916,-5.432783 c 0.74925,0.937268 1.47886,1.894178 2.18882,2.86512 l -10.41657,6.013664 c 1.12809,9.327774 1.26278,20.4430909 0.43776,32.4900627 z M 235.2019,67.226124 c 6.54684,-0.15434 17.85298,-0.690323 26.55778,-1.279622 9.45124,-8.69077 18.01012,-22.034201 24.06027,-36.626387 -4.13913,-7.374666 -9.57753,-16.376922 -14.15162,-22.9574362 -9.86656,-0.067349 -19.88185,0.2834251 -29.74561,1.4536062 -5.25318,10.531629 -11.79722,23.198769 -16.76137,30.741807 3.48529,9.215526 7.02951,18.941779 10.04055,28.668032 z M 222.31868,36.377682 c 5.24477,-8.039733 12.45668,-22.225021 16.53127,-30.4106759 -4.32154,-8.1463683 -10.48393,-17.7463431 -17.74803,-28.4744051 -10.45418,-0.600525 -22.90019,-0.210465 -33.13296,0.308681 -7.42546,12.3332026 -12.56079,20.9482045 -17.56057,32.717364 3.18109,7.312929 8.58189,16.755757 15.19074,26.487623 11.65776,0.474246 23.902,0.03648 36.71955,-0.628587 z m -68.58832,30.736194 c 5.87307,0.625781 11.75513,0.869919 17.95961,1.111251 l 3.91969,0.165566 c 1.778,-9.779571 3.32702,-19.286941 6.47528,-30.197406 -3.55937,-5.303698 -10.7623,-16.520038 -15.04398,-26.44553 -7.74424,-0.799764 -16.3295,-1.523761 -24.51038,-1.439576 -3.77292,7.801207 -7.68616,16.200133 -10.22828,23.807712 5.95557,10.879597 14.01579,23.591636 21.42806,32.997983 z m 37.1402,-129.281152 c -5.64184,5.36824 -10.53528,10.786992 -14.57254,16.152427 3.04415,6.588933 6.44553,14.701627 11.14702,20.263495 10.04869,-0.516339 22.28845,-0.912012 32.7951,-0.378836 7.19984,-7.144559 13.78597,-14.552899 19.07844,-22.960243 -4.1279,-5.811619 -7.94993,-10.382901 -11.81406,-14.112327 l -36.63396,1.035484" /></g></g></svg>
