<svg fill-rule="evenodd" height="333.333333" viewBox="0 0 504 559.99999" width="300" xmlns="http://www.w3.org/2000/svg"><g transform="matrix(.9885135 0 0 .98777435 -42.219789 -135.79711)"><path d="m528.476 206.844c3.315 18 6.135 36.203 8.795 54.309 4.189 28.527 7.841 57.188 10.622 85.888 2.383 24.586 4.216 49.475 4.467 74.181.326 32.135 1.614 77.229-10.188 107.068-8.862 22.402-29.101 42.908-46.757 58.83-29.871 26.938-67.649 50.935-102.576 70.779-28.872 16.403-59.221 31.746-90.006 44.226l-5.636 2.284-5.556-2.472c-45.521-20.256-90.754-43.314-132.661-70.34-28.966-18.68-59.4025-41.085-82.6298-66.719-11.1269-12.28-19.723-25.057-25.1706-40.856-9.2389-26.794-8.5856-64.814-8.3695-93.084.5708-74.613 12.0607-149.609 23.118-223.285l1.0664-7.105 6.3355-3.388c69.481-37.155 147.387-59.991 226.539-59.679 78.627.31 151.597 23.51 221.078 59.229l6.255 3.216z" fill="#6e6f72"/><path d="m528.476 206.844c3.315 18 6.135 36.203 8.795 54.309 4.189 28.527 7.841 57.188 10.622 85.888 2.383 24.586 4.216 49.475 4.467 74.181.326 32.135 1.614 77.229-10.188 107.068-8.862 22.402-29.101 42.908-46.757 58.83-29.871 26.938-67.649 50.935-102.576 70.779-28.872 16.403-59.221 31.746-90.006 44.226l-5.182 2.1v-566.742c.739-.001 1.478-.005 2.218-.002 78.627.31 151.597 23.51 221.078 59.229l6.255 3.216 1.274 6.918z" fill="#adafb2"/><path d="m80.0769 209.776c70.2341-37.557 145.7471-58.28 219.7361-57.988 71.712.283 141.537 20.089 214.593 57.646 4.845 26.313 22.875 135.966 23.647 211.933.323 31.728 1.153 75.524-9.185 101.66-8.063 20.383-28.356 40.231-43.034 53.468-44.191 39.852-126.536 87.301-188.376 112.371-103.708-46.148-174.72-94.1-210.5057-133.595-9.6149-10.611-17.3406-21.682-22.2475-35.913-7.2344-20.981-7.8679-51.737-7.5882-88.311.6207-81.147 16.6712-179.368 22.9603-221.271z" fill="#092331"/><path d="m297.651 151.789c.72-.001 1.442-.004 2.162-.001 71.712.283 141.536 20.089 214.593 57.646 4.844 26.313 22.875 135.966 23.648 211.933.321 31.728 1.152 75.524-9.186 101.66-8.063 20.383-28.356 40.231-43.034 53.468-44.145 39.811-126.364 87.202-188.183 112.292z" fill="#294252"/><path d="m489.707 226.333c-60.889-29.958-121.431-47.717-189.988-47.987-68.805-.272-134.861 17.326-196.032 48.261-5.0733 29.877-9.1441 59.166-12.1824 88.3h98.2314v12.88h-99.509c-3.2281 34.374-5.0055 68.619-5.2716 103.442-.1727 22.542 2.3239 59.094 5.6302 80.356 10.7234 24.856 43.8864 53.495 82.1254 78.362 42 27.312 91.737 51.853 125.119 66.264 53.176-24.768 108.738-53.569 150.103-84.669 24.819-18.66 44.125-36.136 55.542-58.091 5.173-23.255 6.224-66.438 5.966-91.841-.311-30.603-2.141-62.598-5.153-93.823h-98.007v-12.88h96.694c-3.374-31.368-7.911-61.64-13.268-88.574z" fill="#fff"/><path d="m226.363 202.132c-37.373 3.279-82.852 20.589-109.077 36.628-3.757 23.076-7.513 44.543-11.27 67.62 8.022-24.44 22.046-52.237 43.38-68.012 19.717-14.579 49.151-27.117 76.967-36.236z" fill="#dfddde"/><path d="m196.191 604.492c21.613 12.798 44.036 24.607 64.419 34.555v-286.388c-21.876-.983-42.947-3.367-64.419-8.107z" fill="#95bfd2"/><path d="m131.695 327.787h-41.468c-3.2281 34.374-5.0055 68.619-5.2716 103.442-.1727 22.542 2.3239 59.094 5.6302 80.356 6.5836 15.26 21.6274 31.945 41.1094 48.309z" fill="#95bfd2"/><path d="m459.762 562.371c19.148-15.382 34.181-30.589 43.713-48.92 5.173-23.255 6.224-66.438 5.966-91.841-.311-30.603-2.141-62.598-5.153-93.823h-44.526z" fill="#95bfd2"/><path d="m328.291 641.665c21.986-10.786 43.843-22.2 64.419-34.117v-262.996c-21.472 4.74-42.543 7.124-64.419 8.107z" fill="#95bfd2"/><path d="m115.676 535 10.465-12.075 7.245-57.557h10.867l5.233-45.483 11.27-16.1 10.062 12.478-1.207 33.81 10.465-9.258 9.257 8.453-1.207 34.212h18.515l4.83 33.81c17.709-16.099 35.955-23.612 54.74-22.54l-.805-23.345 14.49-4.427c-8.118-35.319-6.643-64.098 8.855-83.318v-18.515h17.71v17.71l14.893 15.295-12.985 28.188c-3.725 8.087-7.338 15.994-7.486 24.441-.091 5.217 1.033 10.593 3.968 16.199h24.15v26.565l37.835 4.427v20.528l35.42 3.622v-51.117c11.204-6.169 11.204-15.695 11.27-31.798l9.66-12.075 12.88 14.893c-2.751 11.875-2.081 21.268 5.635 27.772l.805 23.345c14.893-11.672 27.773-9.793 39.848 2.013l13.282-12.478v35.018l-101.43 75.268-109.48 39.445z" fill="#092331"/><path d="m89.6828 505.249c.2928 2.23.5938 4.35.9028 6.336 10.7234 24.856 43.8864 53.495 82.1254 78.362 42 27.312 91.737 51.853 125.119 66.264 53.176-24.768 108.738-53.569 150.103-84.669 24.819-18.66 44.125-36.136 55.542-58.091.503-2.264.967-4.722 1.395-7.329-72.642 62.788-158.885 85.763-206.863 98.108-77.595-13.427-183.377-66.739-208.3242-98.981z" fill="#fff"/><path d="m299.216 613.086v30.59c59.503-24.653 143.088-66.579 189.981-117.53-63.864 45.766-110.823 67.239-189.981 86.94z" fill="#dfddde"/><path d="m267.974 557.822h14.334v11.87h8.861v-11.87h4.525v-7.127h-4.525v-29.519h-10.251l-12.944 29.351zm14.334-7.267h-5.591l5.43-14.004h.161z" fill="#fff"/><path d="m311.507 520.349c-6.861.152-13.605 3.391-12.978 15.533h10.267c0-1.139 0-2.277 0-3.416 0-4.281 1.25-5.008 3.453-5.139 2.762 0 3.022 2.791 3.022 6.857-.174 3.511-2.456 4.91-6.582 4.593v6.845c5.499.396 7.11 1.776 6.978 11.01 0 3.908-.547 7.481-3.418 7.153-3.411-.389-3.382-3.852-3.453-11.319h-10.267c.264 16.066 6.864 18.663 13.324 18.692 10.71.049 13.564-6.489 13.553-16.243-.005-4.341-.264-8.847-4.743-12.545 2.85-1.561 4.298-4.952 4.479-8.186.643-11.45-5.983-14.004-13.635-13.835z" fill="#fff"/><g fill="#354755"><path d="m275.89453 375.02539-8.16601 43.85156 8.20312 1.02149.9668-9.67383c2.56375.23125 4.17156.46211 6.75781.69336l1.12109 9.94922 8.43555 1.26367-9.23047-47.08008c-3.335-.01-4.75539-.0166-8.08789-.0254zm3.74414 10.16992c.14875.006.32094.0113.49219.0176.4275 3.17625.85375 6.35813 1.28125 9.54688.4275 3.1925.87547 6.39195 1.32422 9.5957-1.965-.14-3.43195-.28469-5.37695-.42969.44875-3.1025.91968-6.20937 1.36718-9.32812.4475-3.12125.44086-6.25735.91211-9.40235z" transform="matrix(.8 0 0 .80000008 0 -.000049)"/><path d="m237.679 300.063c2.085.004 4.171.009 6.273.012v14.867 14.857c0 1.116.272 2.041.873 2.753.614.727 1.419 1.095 2.377 1.171.94.075 1.692-.189 2.256-.801.564-.611.838-1.499.838-2.667 0-5.022 0-10.054 0-15.08 0-5.023 0-10.059 0-15.086 2.069.005 4.155.009 6.24.009v14.762 14.753c0 3.494-.803 6.105-2.428 7.828-1.607 1.705-3.933 2.425-6.975 2.136-3.027-.287-5.362-1.436-6.993-3.394-1.633-1.962-2.461-4.635-2.461-8.05 0-4.679 0-9.358 0-14.035 0-4.678 0-9.357 0-14.035z"/><path d="m260.053 300.102 6.385.013 3.16 29.97 3.84-29.961 6.019.003-6.645 40.562-6.411-.388z"/><path d="m282.769 341.132c0-6.831 0-13.663 0-20.5 0-6.832 0-13.664 0-20.5 4.684.004 9.368.004 14.053.004v5.971c-2.65-.004-5.3-.013-7.933-.017v5.397 5.389c1.847.013 3.693.03 5.557.039v5.961c-1.864-.012-3.71-.034-5.557-.051v6.159 6.148c2.633.043 5.283.082 7.933.095v6.203c-4.685-.052-9.369-.155-14.053-.298z"/><path d="m375.54297 375.16992v25.82031 25.8125c2.54375 0 5.08859-.005 7.65234-.0273v-10.84961-10.84961l3.17578-.0156 5.22266 21.61523c2.62875-.0437 5.27969-.10445 7.92969-.1582l-7.62305-22.61328c2.7875-1 4.95297-4.11469 5.69922-6.11719.7475-2.01375 1.13281-4.59914 1.13281-7.77539 0-8.53125-4.22289-14.8418-13.40039-14.8418h-9.78906zm10.41015 7.45899c1.90126-.004 3.16493.53179 3.88868 1.56054.7075 1.00625 1.08984 2.85414 1.08984 5.58789 0 2.99-.34312 5.04625-1.04687 6.15625-.70625 1.11375-1.92305 1.66969-3.6543 1.67969-1.025.006-2.03016.005-3.03516.01v-7.49024-7.5c.91875-.005 1.83907-.003 2.75781-.004z" transform="matrix(.8 0 0 .80000008 0 -.000049)"/><path d="m322.837 330.587c0-3.498 0-6.999 0-10.498 0-3.498 0-7 0-10.497 0-3.21.857-5.737 2.564-7.578 1.712-1.845 4.452-2.765 7.443-2.765 2.89 0 5.08.882 6.583 2.619 1.505 1.739 2.257 4.299 2.257 7.689v5.599c-1.983.039-3.95.073-5.916.112 0-1.43 0-4.767 0-6.194 0-1.412-.25-2.469-.786-3.157-.54-.69-1.546-1.022-2.588-1.016-1.025.005-2.001.366-2.53 1.072-.53.706-.787 1.767-.787 3.17v11.377 11.373c0 1.408.254 2.457.787 3.161.527.696 1.716 1.016 2.742.973 1.041-.042 1.837-.424 2.376-1.158.536-.73.786-1.8.786-3.205 0-2.106 0-4.213 0-6.323-1.231.039-2.461.073-3.693.107 0-1.723 0-3.445 0-5.173 3.197-.074 6.395-.159 9.609-.25v10.123 10.123c-.992.06-1.967.116-2.941.168-.393-.909-.786-1.818-1.179-2.731-.667 1.288-1.476 2.245-2.446 2.895-.945.633-2.486.995-3.835 1.055-2.752.121-4.826-.773-6.275-2.662-1.457-1.901-2.171-4.704-2.171-8.409z"/><path d="m346.802 339.969v-39.863l5.268.098 8.097 24.817-.684-24.936 5.745-.013v38.191l-4.9.573-7.478-22.025-.355 22.737z"/><path d="m369.944 337.824c0-6.293 0-12.587 0-18.881 0-6.289 0-12.582 0-18.88 4.942-.013 9.882-.026 14.824-.039v5.191c-2.908.065-5.814.129-8.703.185v4.859 4.847c2.103-.108 4.206-.228 6.326-.349v5.233c-2.12.164-4.223.319-6.326.47v5.54 5.531c2.889-.315 5.795-.646 8.703-.991v5.393c-4.942.681-9.882 1.31-14.824 1.891z"/><path d="m153.992 287.683c0-10.604 0-21.207 0-31.812 0-10.603 0-21.207 0-31.811 3.08-1.225 6.188-2.478 9.296-3.666v28.754 29.129c3.696-.216 7.42-.421 11.145-.617v9.864c-6.833.047-13.637.093-20.441.159z"/><path d="m422.134 225.827c0-3.404 0-6.826 0-10.249 8.358 2.478 16.746 5.208 25.134 8.21v9.108c-2.639-.823-5.28-1.655-7.89-2.441v28.138 28.127c-3.137-.037-6.276-.065-9.413-.103 0-9.799 0-19.599 0-29.399s0-19.591 0-29.4c-2.611-.682-5.221-1.356-7.831-1.991z"/><path d="m500.5957 260.86719c-3.85734-.0976-7.0232 1.23906-9.47851 4-3.28625 3.695-4.91211 9.49203-4.91211 17.20703v25.24609 25.23633c0 9 1.53375 15.85289 4.65625 20.52539 3.07375 4.5975 7.55336 6.90242 13.38086 6.91992 5.7925.0175 10.24547-2.2014 13.41797-6.53515 3.1325-4.28 4.72851-10.28625 4.72851-18.09375v-23.08399-23.10937c0-7.10625-1.65484-13.11047-4.83984-18.10547-3.19375-5.01-7.47844-8.31461-12.86719-9.63086-1.43906-.35156-2.80016-.54363-4.08594-.57617zm2.23047 13.47461c.44076-.01.91289.039 1.41602.14648 1.98125.4225 3.48601 1.54102 4.50976 3.35352 1.02875 1.8225 1.53907 4.33515 1.53907 7.59765v26.01953 26.00586c0 3.215-.51282 5.62336-1.53907 7.22461-1.02625 1.6-2.52976 2.36102-4.50976 2.29102-2.015-.07-3.52188-.94602-4.54688-2.66602-1.0275-1.7275-1.53906-4.25375-1.53906-7.5625v-26.77734-26.80273c0-3.3075.50781-5.70782 1.53906-7.16407.76594-1.08093 1.80858-1.63677 3.13086-1.66601z" transform="matrix(.8 0 0 .80000008 0 -.000049)"/><path d="m456.13477 251.81641c-4.27905.022-7.76532 1.7825-10.43946 5.2539-3.3075 4.29375-4.91015 10.62625-4.91015 18.9375v27.1875 27.16407c0 9.68999 1.51539 17.05593 4.61914 22.05468 3.0925 4.9825 7.5514 7.45821 13.3789 7.47071 5.7925.0113 10.30133-2.43032 13.45508-7.25782 3.115-4.76875 4.69336-11.47828 4.69336-20.17578v-25.6914-25.70508c0-7.9-1.62398-14.45094-4.80273-19.64844-3.2-5.22875-7.51305-8.41992-12.9043-9.32617-1.0718-.18047-2.10237-.26875-3.08984-.26367zm1.92968 14.52148c.23253.005.47141.0251.71875.0605 2.0175.2875 3.52813 1.3864 4.54688 3.28515 1.03375 1.92375 1.53906 4.65149 1.53906 8.24024v28.60156 28.58008c0 3.53-.51281 6.18273-1.53906 7.95898-1.025 1.77625-2.53063 2.63149-4.54688 2.58399-1.97875-.0462-3.48406-.9818-4.50781-2.8418-1.02875-1.86875-1.54101-4.59336-1.54101-8.19336v-29.1289-29.13868c-.00001-3.59875.51476-6.24117 1.54101-7.88867.89688-1.44265 2.16138-2.15414 3.78906-2.11914z" transform="matrix(.8 0 0 .80000008 0 -.000049)"/><path d="m327.494 285.954c0-14.569 0-29.138 0-43.717 0-14.568 0-29.147 0-43.715 7.126.617 14.283 1.337 21.438 2.216v11.557c-4.018-.43-8.036-.851-12.053-1.179v24.605c3.108.188 6.217.403 9.355.636v11.229c-3.138-.177-6.247-.346-9.355-.486v19.441 19.45c-3.139-.019-6.277-.028-9.385-.037z"/><path d="m281.187 199.205c3.167-.159 6.336-.253 9.532-.346l5.365 39.053h.558l5.073-39.25c3.167.047 6.364.103 9.56.159l-10.586 56.597v13.376 18.356c-3.139 0-6.277 0-9.386 0 0-5.835 0-11.67 0-17.504 0-5.836 0-10.135 0-15.971z"/><path d="m247.898 201.804c3.198-.355 6.394-.701 9.62-.982v33.449 33.447c0 2.517.417 4.514 1.349 6.014.915 1.473 2.17 2.174 3.637 2.15 1.436-.022 2.61-.767 3.461-2.234.85-1.469 1.29-3.507 1.29-6.125 0-11.25 0-22.508 0-33.757 0-11.25 0-22.508 0-33.757 3.197-.234 6.393-.449 9.59-.617v32.812 32.804c0 7.779-1.246 13.736-3.724 17.86-2.478 4.123-6.042 6.171-10.705 6.171s-8.265-2.042-10.764-6.106c-2.486-4.043-3.754-9.912-3.754-17.636 0-10.585 0-21.161 0-31.737 0-10.585 0-21.171 0-31.756z"/><path d="m289.84375 255.08008c-.97138-.0145-2.04547.0669-3.24805.24804-5.13125.77375-10.22922 1.66157-15.32422 2.53907v50.63476 50.63477c3.9225-.0225 7.84508-.0356 11.76758-.0469v-20.99414-22.91015c1.86875-.11625 2.34555-.24203 4.24805-.36328 4.87625-.3075 8.71851-3.39547 11.50977-9.29297 2.81375-5.94 4.2539-11.98985 4.2539-21.9961 0-10.695-1.44383-18.34406-4.36133-22.85156-2.36336-3.64914-4.63638-5.53882-8.8457-5.60156zm-3.51953 15.31054c2.00242-.0676 2.21601.81094 3.16211 2.56641 1.07875 2 1.57617 6.03141 1.57617 12.00391 0 3.5.11945 15.24453-5.31055 15.70703-.91375.0775-1.83289.16367-2.71289.23242v-14.33984-15.7793c.77-.0937 1.54055-.20219 2.31055-.30469.36641-.0484.68855-.0763.97461-.0859z" transform="matrix(.8 0 0 .80000008 0 -.000049)"/><path d="m178.451 287.496c0-12.025 0-24.05 0-36.076 0-12.025 0-24.05 0-36.076 7.127-2.02 14.283-3.862 21.438-5.564v11.213c-4.017.785-8.035 1.645-12.024 2.506v20.348c2.845-.43 5.719-.86 8.593-1.291v10.332c-2.874.328-5.748.664-8.593.991v11.175 12.326c3.989-.168 8.007-.337 12.024-.496v10.491c-7.155.037-14.311.075-21.438.121z"/></g></g></svg>