<?xml version="1.0" encoding="UTF-8"?>
<svg xmlns="http://www.w3.org/2000/svg" xmlns:xlink="http://www.w3.org/1999/xlink" width="385pt" height="410pt" viewBox="0 0 385 410" version="1.1">
<defs>
<clipPath id="clip1">
  <path d="M 65 105 L 93 105 L 93 365 L 65 365 Z M 65 105 "/>
</clipPath>
<clipPath id="clip2">
  <path d="M 57.859375 232.933594 C 57.859375 137.960938 121.128906 60.972656 199.171875 60.972656 C 277.21875 60.972656 340.484375 137.960938 340.484375 232.933594 C 340.484375 327.902344 277.21875 404.890625 199.171875 404.890625 C 121.128906 404.890625 57.859375 327.902344 57.859375 232.933594 Z M 57.859375 232.933594 "/>
</clipPath>
<clipPath id="clip3">
  <path d="M 126 61 L 155 61 L 155 405 L 126 405 Z M 126 61 "/>
</clipPath>
<clipPath id="clip4">
  <path d="M 57.859375 232.933594 C 57.859375 137.960938 121.128906 60.972656 199.171875 60.972656 C 277.21875 60.972656 340.484375 137.960938 340.484375 232.933594 C 340.484375 327.902344 277.21875 404.890625 199.171875 404.890625 C 121.128906 404.890625 57.859375 327.902344 57.859375 232.933594 Z M 57.859375 232.933594 "/>
</clipPath>
<clipPath id="clip5">
  <path d="M 184 60 L 212 60 L 212 405 L 184 405 Z M 184 60 "/>
</clipPath>
<clipPath id="clip6">
  <path d="M 57.859375 232.933594 C 57.859375 137.960938 121.128906 60.972656 199.171875 60.972656 C 277.21875 60.972656 340.484375 137.960938 340.484375 232.933594 C 340.484375 327.902344 277.21875 404.890625 199.171875 404.890625 C 121.128906 404.890625 57.859375 327.902344 57.859375 232.933594 Z M 57.859375 232.933594 "/>
</clipPath>
<clipPath id="clip7">
  <path d="M 244 62 L 272 62 L 272 405 L 244 405 Z M 244 62 "/>
</clipPath>
<clipPath id="clip8">
  <path d="M 57.859375 232.933594 C 57.859375 137.960938 121.128906 60.972656 199.171875 60.972656 C 277.21875 60.972656 340.484375 137.960938 340.484375 232.933594 C 340.484375 327.902344 277.21875 404.890625 199.171875 404.890625 C 121.128906 404.890625 57.859375 327.902344 57.859375 232.933594 Z M 57.859375 232.933594 "/>
</clipPath>
<clipPath id="clip9">
  <path d="M 303 103 L 332 103 L 332 363 L 303 363 Z M 303 103 "/>
</clipPath>
<clipPath id="clip10">
  <path d="M 57.859375 232.933594 C 57.859375 137.960938 121.128906 60.972656 199.171875 60.972656 C 277.21875 60.972656 340.484375 137.960938 340.484375 232.933594 C 340.484375 327.902344 277.21875 404.890625 199.171875 404.890625 C 121.128906 404.890625 57.859375 327.902344 57.859375 232.933594 Z M 57.859375 232.933594 "/>
</clipPath>
</defs>
<g id="surface1">
<path style=" stroke:none;fill-rule:nonzero;fill:rgb(13.699341%,12.199402%,12.5%);fill-opacity:1;" d="M 52.753906 232.933594 C 52.753906 135.140625 118.308594 55.867188 199.171875 55.867188 C 280.039063 55.867188 345.59375 135.140625 345.59375 232.933594 C 345.59375 330.726563 280.039063 410 199.171875 410 C 118.308594 410 52.753906 330.726563 52.753906 232.933594 "/>
<path style=" stroke:none;fill-rule:nonzero;fill:rgb(12.5%,10.998535%,43.499756%);fill-opacity:1;" d="M 57.859375 232.933594 C 57.859375 137.960938 121.128906 60.972656 199.171875 60.972656 C 277.21875 60.972656 340.484375 137.960938 340.484375 232.933594 C 340.484375 327.902344 277.21875 404.890625 199.171875 404.890625 C 121.128906 404.890625 57.859375 327.902344 57.859375 232.933594 "/>
<g clip-path="url(#clip1)" clip-rule="nonzero">
<g clip-path="url(#clip2)" clip-rule="nonzero">
<path style=" stroke:none;fill-rule:nonzero;fill:rgb(92.89856%,10.998535%,14.099121%);fill-opacity:1;" d="M 65.523438 105.242188 L 92.761719 105.242188 L 92.761719 364.03125 L 65.523438 364.03125 L 65.523438 105.242188 "/>
</g>
</g>
<g clip-path="url(#clip3)" clip-rule="nonzero">
<g clip-path="url(#clip4)" clip-rule="nonzero">
<path style=" stroke:none;fill-rule:nonzero;fill:rgb(92.89856%,10.998535%,14.099121%);fill-opacity:1;" d="M 126.8125 61.824219 L 154.054688 61.824219 L 154.054688 404.039063 L 126.8125 404.039063 L 126.8125 61.824219 "/>
</g>
</g>
<g clip-path="url(#clip5)" clip-rule="nonzero">
<g clip-path="url(#clip6)" clip-rule="nonzero">
<path style=" stroke:none;fill-rule:nonzero;fill:rgb(92.89856%,10.998535%,14.099121%);fill-opacity:1;" d="M 184.703125 51.609375 L 211.941406 51.609375 L 211.941406 410.851563 L 184.703125 410.851563 L 184.703125 51.609375 "/>
</g>
</g>
<g clip-path="url(#clip7)" clip-rule="nonzero">
<g clip-path="url(#clip8)" clip-rule="nonzero">
<path style=" stroke:none;fill-rule:nonzero;fill:rgb(92.89856%,10.998535%,14.099121%);fill-opacity:1;" d="M 244.289063 62.675781 L 271.53125 62.675781 L 271.53125 404.890625 L 244.289063 404.890625 L 244.289063 62.675781 "/>
</g>
</g>
<g clip-path="url(#clip9)" clip-rule="nonzero">
<g clip-path="url(#clip10)" clip-rule="nonzero">
<path style=" stroke:none;fill-rule:nonzero;fill:rgb(92.89856%,10.998535%,14.099121%);fill-opacity:1;" d="M 303.882813 103.539063 L 331.121094 103.539063 L 331.121094 362.328125 L 303.882813 362.328125 L 303.882813 103.539063 "/>
</g>
</g>
<path style=" stroke:none;fill-rule:nonzero;fill:rgb(100%,81.199646%,0%);fill-opacity:1;" d="M 129.550781 183.3125 C 129.550781 150.488281 160.300781 123.882813 198.234375 123.882813 C 236.167969 123.882813 266.921875 150.488281 266.921875 183.3125 C 266.921875 216.132813 236.167969 242.738281 198.234375 242.738281 C 160.300781 242.738281 129.550781 216.132813 129.550781 183.3125 "/>
<path style=" stroke:none;fill-rule:evenodd;fill:rgb(12.5%,10.998535%,43.499756%);fill-opacity:1;" d="M 167.269531 134.59375 C 221.75 104.789063 300.5625 164.742188 245.496094 222.71875 C 282.285156 168.234375 233.625 117.246094 167.269531 134.59375 "/>
<path style=" stroke:none;fill-rule:evenodd;fill:rgb(12.5%,10.998535%,43.499756%);fill-opacity:1;" d="M 139.445313 160.671875 C 117.09375 194.3125 151.902344 242.738281 199.164063 236.921875 C 156.792969 234.011719 131.414063 203.703125 139.445313 160.671875 "/>
<path style=" stroke:none;fill-rule:nonzero;fill:rgb(12.5%,10.998535%,43.499756%);fill-opacity:1;" d="M 185.019531 171.765625 L 206.410156 171.640625 L 206.410156 168.234375 L 184.910156 168.347656 L 185.019531 171.765625 "/>
<path style=" stroke:none;fill-rule:nonzero;fill:rgb(12.5%,10.998535%,43.499756%);fill-opacity:1;" d="M 146.695313 150.203125 L 168.085938 150.082031 L 168.085938 146.675781 L 146.585938 146.785156 L 146.695313 150.203125 "/>
<path style=" stroke:none;fill-rule:nonzero;fill:rgb(12.5%,10.998535%,43.499756%);fill-opacity:1;" d="M 146.03125 192.71875 L 167.421875 192.597656 L 167.421875 189.191406 L 145.921875 189.300781 L 146.03125 192.71875 "/>
<path style=" stroke:none;fill-rule:nonzero;fill:rgb(12.5%,10.998535%,43.499756%);fill-opacity:1;" d="M 190.148438 133.105469 L 211.539063 132.984375 L 211.539063 129.578125 L 190.039063 129.6875 L 190.148438 133.105469 "/>
<path style=" stroke:none;fill-rule:nonzero;fill:rgb(12.5%,10.998535%,43.499756%);fill-opacity:1;" d="M 173.625 147.558594 L 188.925781 132.613281 L 186.5625 130.164063 L 171.171875 145.175781 L 173.625 147.558594 "/>
<path style=" stroke:none;fill-rule:nonzero;fill:rgb(12.5%,10.998535%,43.499756%);fill-opacity:1;" d="M 212.0625 170.171875 L 227.363281 155.222656 L 224.996094 152.773438 L 209.609375 167.785156 L 212.0625 170.171875 "/>
<path style=" stroke:none;fill-rule:nonzero;fill:rgb(12.5%,10.998535%,43.499756%);fill-opacity:1;" d="M 171.179688 190.710938 L 182.410156 172.503906 L 179.523438 170.699219 L 168.222656 188.992188 L 171.179688 190.710938 "/>
<path style=" stroke:none;fill-rule:nonzero;fill:rgb(12.5%,10.998535%,43.499756%);fill-opacity:1;" d="M 241.855469 203.578125 L 253.421875 192.222656 L 251.097656 189.730469 L 239.441406 201.15625 L 241.855469 203.578125 "/>
<path style=" stroke:none;fill-rule:nonzero;fill:rgb(12.5%,10.998535%,43.499756%);fill-opacity:1;" d="M 168.609375 151.789063 L 181.285156 169.019531 L 184.039063 167.019531 L 171.3125 149.6875 L 168.609375 151.789063 "/>
<path style=" stroke:none;fill-rule:nonzero;fill:rgb(12.5%,10.998535%,43.499756%);fill-opacity:1;" d="M 213.730469 134.976563 L 226.402344 152.207031 L 229.15625 150.207031 L 216.429688 132.878906 L 213.730469 134.976563 "/>
<path style=" stroke:none;fill-rule:nonzero;fill:rgb(12.5%,10.998535%,43.499756%);fill-opacity:1;" d="M 228.355469 156.800781 L 248.234375 164.699219 L 249.511719 161.542969 L 229.535156 153.589844 L 228.355469 156.800781 "/>
<path style=" stroke:none;fill-rule:nonzero;fill:rgb(12.5%,10.998535%,43.499756%);fill-opacity:1;" d="M 214.785156 196.890625 L 235.277344 203.027344 L 236.273438 199.769531 L 215.679688 193.589844 L 214.785156 196.890625 "/>
<path style=" stroke:none;fill-rule:nonzero;fill:rgb(12.5%,10.998535%,43.499756%);fill-opacity:1;" d="M 191.890625 227.757813 L 211.328125 236.6875 L 212.765625 233.601563 L 193.234375 224.613281 L 191.890625 227.757813 "/>
<path style=" stroke:none;fill-rule:nonzero;fill:rgb(12.5%,10.998535%,43.499756%);fill-opacity:1;" d="M 218.097656 235.410156 L 235.96875 223.660156 L 234.113281 220.804688 L 216.144531 232.605469 L 218.097656 235.410156 "/>
<path style=" stroke:none;fill-rule:nonzero;fill:rgb(12.5%,10.998535%,43.499756%);fill-opacity:1;" d="M 237.722656 203.996094 L 235.921875 219.6875 L 239.300781 220.101563 L 241.125 204.335938 L 237.722656 203.996094 "/>
<path style=" stroke:none;fill-rule:nonzero;fill:rgb(12.5%,10.998535%,43.499756%);fill-opacity:1;" d="M 256.121094 189.015625 L 254.878906 163.761719 L 251.480469 163.972656 L 252.714844 189.355469 L 256.121094 189.015625 "/>
<path style="fill:none;stroke-width:4.256;stroke-linecap:butt;stroke-linejoin:miter;stroke:rgb(13.699341%,12.199402%,12.5%);stroke-opacity:1;stroke-miterlimit:3.86369;" d="M 1676.015625 1823.515625 L 1889.84375 1817.265625 L 1891.015625 1851.289063 L 1676.09375 1857.695313 Z M 1676.015625 1823.515625 " transform="matrix(0.1,0,0,-0.1,0,410)"/>
<path style=" stroke:none;fill-rule:nonzero;fill:rgb(12.5%,10.998535%,43.499756%);fill-opacity:1;" d="M 167.601563 227.648438 L 188.984375 228.273438 L 189.101563 224.871094 L 167.609375 224.230469 L 167.601563 227.648438 "/>
<path style=" stroke:none;fill-rule:nonzero;fill:rgb(12.5%,10.998535%,43.499756%);fill-opacity:1;" d="M 188.261719 207.792969 L 187.558594 223.566406 L 190.957031 223.746094 L 191.679688 207.890625 L 188.261719 207.792969 "/>
<path style=" stroke:none;fill-rule:nonzero;fill:rgb(12.5%,10.998535%,43.499756%);fill-opacity:1;" d="M 208.691406 172.890625 L 207.988281 188.664063 L 211.386719 188.84375 L 212.109375 172.988281 L 208.691406 172.890625 "/>
<path style="fill:none;stroke-width:34.05;stroke-linecap:butt;stroke-linejoin:miter;stroke:rgb(100%,100%,100%);stroke-opacity:1;stroke-miterlimit:3.86369;" d="M 1012.773438 1770.664063 C 1012.773438 2431.25 1451.054688 2966.71875 1991.71875 2966.71875 C 2532.421875 2966.71875 2970.703125 2431.25 2970.703125 1770.664063 C 2970.703125 1110.117188 2532.421875 574.609375 1991.71875 574.609375 C 1451.054688 574.609375 1012.773438 1110.117188 1012.773438 1770.664063 Z M 1012.773438 1770.664063 " transform="matrix(0.1,0,0,-0.1,0,410)"/>
<path style=" stroke:none;fill-rule:nonzero;fill:rgb(13.699341%,12.199402%,12.5%);fill-opacity:1;" d="M 276.082031 273.777344 C 288.332031 275.429688 300.339844 277.464844 311.976563 279.886719 C 309.777344 262.308594 308.683594 242.933594 308.691406 221.753906 C 303.910156 225.875 296.816406 227.621094 287.414063 226.992188 C 284.699219 244.246094 280.921875 259.84375 276.082031 273.777344 Z M 121.164063 272.855469 C 120.015625 262.253906 119.597656 251.148438 119.9375 239.40625 C 111.394531 244.40625 103.660156 245.078125 95.113281 243.03125 C 92.503906 256.261719 88.941406 268.160156 84.429688 278.734375 C 96.257813 276.367188 108.554688 274.40625 121.164063 272.855469 Z M 216.785156 268.839844 C 213.894531 247.109375 212.480469 223.136719 212.542969 196.933594 C 206.777344 202.53125 198.746094 204.679688 188.445313 203.378906 C 184.332031 229.109375 178.976563 250.933594 172.378906 268.855469 C 187.097656 268.332031 201.96875 268.328125 216.785156 268.839844 Z M 150.402344 309.121094 C 154.71875 299.035156 158.476563 288.546875 161.675781 277.652344 C 151.632813 278.125 141.648438 278.804688 131.753906 279.691406 C 135.378906 295.609375 140.652344 308.882813 147.582031 319.515625 L 135.171875 328.300781 C 129 313.28125 124.609375 297.585938 122.144531 280.621094 C 108.179688 282.074219 94.421875 283.945313 80.960938 286.230469 C 77.355469 293.984375 72.460938 300.792969 66.886719 305.332031 C 66.738281 294.722656 68.105469 297.53125 71.886719 287.835938 L 74.421875 280.859375 C 79.242188 266.578125 81.464844 253.027344 81.09375 240.210938 C 86.121094 239.851563 91.605469 237.699219 97.53125 233.761719 L 97.53125 237.390625 C 104.222656 237.265625 109.972656 234.472656 114.78125 229.007813 L 125.984375 230.21875 C 126.460938 245.535156 127.84375 259.40625 130.136719 271.824219 C 141.25 270.640625 152.578125 269.765625 164.023438 269.207031 C 169.855469 247.003906 173.453125 223.183594 174.824219 197.738281 C 178.5625 197.933594 183.910156 195.140625 190.863281 189.355469 L 190.863281 194.917969 C 199.738281 192.101563 205.890625 187.5625 209.316406 181.296875 L 219.3125 183.714844 C 220.21875 217.984375 222.832031 246.507813 227.148438 269.28125 C 240.921875 269.988281 254.601563 271.144531 268.03125 272.753906 C 271.972656 256.25 274.566406 239.519531 275.808594 222.5625 C 280.367188 220.914063 284.773438 218.386719 289.027344 214.984375 L 290.636719 219.738281 C 296.78125 218.738281 301.726563 215.003906 305.46875 208.535156 L 314.65625 211.359375 C 315.617188 239.171875 321.839844 282.058594 321.839844 282.058594 L 323.179688 288.390625 C 323.179688 288.390625 326.410156 301.203125 329.460938 308.609375 L 320.429688 326.015625 C 316.230469 313.242188 315.179688 302.414063 312.878906 286.550781 C 299.878906 284.335938 286.691406 282.507813 273.398438 281.054688 C 268.078125 294.660156 261.65625 306.539063 254.128906 316.695313 C 258.878906 304.691406 262.878906 292.558594 266.128906 280.300781 C 253.769531 279.085938 241.324219 278.191406 228.863281 277.621094 C 232.089844 292.121094 236.105469 303.964844 240.910156 313.148438 L 229.707031 326.769531 C 224.710938 311.902344 220.804688 295.378906 217.992188 277.203125 C 201.632813 276.703125 185.269531 276.753906 169.035156 277.347656 C 163.578125 290.304688 157.367188 300.898438 150.402344 309.121094 "/>
<path style=" stroke:none;fill-rule:nonzero;fill:rgb(100%,100%,100%);fill-opacity:1;" d="M 271.3125 270.710938 C 283.5625 272.359375 295.570313 274.394531 307.207031 276.820313 C 305.007813 259.242188 303.910156 239.863281 303.921875 218.6875 C 299.140625 222.808594 292.046875 224.554688 282.644531 223.925781 C 279.929688 241.179688 276.152344 256.773438 271.3125 270.710938 Z M 116.394531 269.785156 C 115.246094 259.1875 114.828125 248.082031 115.167969 236.339844 C 106.625 241.339844 98.890625 242.011719 90.34375 239.964844 C 87.734375 253.191406 84.171875 265.09375 79.660156 275.667969 C 91.488281 273.300781 103.785156 271.339844 116.394531 269.785156 Z M 212.015625 265.773438 C 209.125 244.039063 207.710938 220.070313 207.773438 193.863281 C 202.007813 199.464844 193.976563 201.613281 183.675781 200.3125 C 179.5625 226.042969 174.207031 247.867188 167.605469 265.785156 C 182.328125 265.265625 197.199219 265.257813 212.015625 265.773438 Z M 145.632813 306.050781 C 149.949219 295.96875 153.707031 285.480469 156.90625 274.585938 C 146.863281 275.058594 136.878906 275.738281 126.984375 276.625 C 130.605469 292.539063 135.882813 305.816406 142.8125 316.449219 L 130.402344 325.234375 C 124.230469 310.214844 119.839844 294.519531 117.375 277.554688 C 103.410156 279.007813 89.652344 280.878906 76.191406 283.160156 C 69.796875 295.910156 61.835938 306.46875 52.304688 314.835938 C 58.398438 304.488281 63.335938 294.464844 67.113281 284.769531 C 44.113281 289.035156 22.0625 294.523438 1.449219 301.214844 C 20.570313 291.414063 43.851563 283.59375 69.65625 277.789063 C 74.472656 263.507813 76.695313 249.960938 76.320313 237.144531 C 81.351563 236.78125 86.835938 234.632813 92.761719 230.695313 L 92.761719 234.324219 C 99.453125 234.199219 105.203125 231.402344 110.011719 225.941406 L 121.214844 227.148438 C 121.691406 242.46875 123.074219 256.335938 125.367188 268.757813 C 136.480469 267.574219 147.8125 266.699219 159.253906 266.140625 C 165.085938 243.9375 168.683594 220.113281 170.054688 194.671875 C 173.792969 194.863281 179.140625 192.070313 186.09375 186.289063 L 186.09375 191.851563 C 194.96875 189.035156 201.121094 184.492188 204.546875 178.230469 L 214.542969 180.648438 C 215.449219 214.917969 218.0625 243.441406 222.378906 266.214844 C 236.148438 266.921875 249.832031 268.074219 263.261719 269.6875 C 267.203125 253.183594 269.796875 236.453125 271.039063 219.492188 C 275.597656 217.847656 280.003906 215.320313 284.257813 211.917969 L 285.867188 216.671875 C 292.011719 215.671875 296.953125 211.9375 300.699219 205.46875 L 309.886719 208.289063 C 310.847656 236.105469 313.242188 259.671875 317.070313 278.988281 C 341.730469 284.703125 364.484375 292.238281 384.03125 301.617188 C 363.0625 294.988281 341.050781 289.5625 318.410156 285.324219 C 320.636719 295.175781 323.273438 303.804688 326.328125 311.210938 L 317.863281 326.441406 C 313.660156 313.667969 310.410156 299.347656 308.105469 283.480469 C 295.105469 281.269531 281.921875 279.4375 268.628906 277.988281 C 263.308594 291.59375 256.886719 303.472656 249.359375 313.628906 C 254.109375 301.625 258.109375 289.492188 261.359375 277.234375 C 248.996094 276.015625 236.554688 275.125 224.09375 274.554688 C 227.320313 289.054688 231.335938 300.898438 236.140625 310.082031 L 224.9375 323.703125 C 219.941406 308.835938 216.035156 292.3125 213.222656 274.136719 C 196.863281 273.636719 180.496094 273.683594 164.265625 274.277344 C 158.808594 287.238281 152.597656 297.828125 145.632813 306.050781 "/>
<path style="fill:none;stroke-width:17.025;stroke-linecap:butt;stroke-linejoin:miter;stroke:rgb(12.5%,10.998535%,43.499756%);stroke-opacity:1;stroke-miterlimit:3.86371;" d="M 2713.125 1392.890625 C 2835.625 1376.40625 2955.703125 1356.054688 3072.070313 1331.796875 C 3050.078125 1507.578125 3039.101563 1701.367188 3039.21875 1913.125 C 2991.40625 1871.914063 2920.46875 1854.453125 2826.445313 1860.742188 C 2799.296875 1688.203125 2761.523438 1532.265625 2713.125 1392.890625 Z M 2713.125 1392.890625 " transform="matrix(0.1,0,0,-0.1,0,410)"/>
<path style="fill:none;stroke-width:17.025;stroke-linecap:butt;stroke-linejoin:miter;stroke:rgb(12.5%,10.998535%,43.499756%);stroke-opacity:1;stroke-miterlimit:3.86371;" d="M 1163.945313 1402.148438 C 1152.460938 1508.125 1148.28125 1619.179688 1151.679688 1736.601563 C 1066.25 1686.601563 988.90625 1679.882813 903.4375 1700.351563 C 877.34375 1568.085938 841.71875 1449.0625 796.601563 1343.320313 C 914.882813 1366.992188 1037.851563 1386.601563 1163.945313 1402.148438 Z M 1163.945313 1402.148438 " transform="matrix(0.1,0,0,-0.1,0,410)"/>
<path style="fill:none;stroke-width:17.025;stroke-linecap:butt;stroke-linejoin:miter;stroke:rgb(12.5%,10.998535%,43.499756%);stroke-opacity:1;stroke-miterlimit:3.86371;" d="M 2120.15625 1442.265625 C 2091.25 1659.609375 2077.109375 1899.296875 2077.734375 2161.367188 C 2020.078125 2105.351563 1939.765625 2083.867188 1836.757813 2096.875 C 1795.625 1839.570313 1742.070313 1621.328125 1676.054688 1442.148438 C 1823.28125 1447.34375 1971.992188 1447.421875 2120.15625 1442.265625 Z M 2120.15625 1442.265625 " transform="matrix(0.1,0,0,-0.1,0,410)"/>
<path style="fill:none;stroke-width:17.025;stroke-linecap:butt;stroke-linejoin:miter;stroke:rgb(12.5%,10.998535%,43.499756%);stroke-opacity:1;stroke-miterlimit:3.86371;" d="M 1456.328125 1039.492188 C 1499.492188 1140.3125 1537.070313 1245.195313 1569.0625 1354.140625 C 1468.632813 1349.414063 1368.789063 1342.617188 1269.84375 1333.75 C 1306.054688 1174.609375 1358.828125 1041.835938 1428.125 935.507813 L 1304.023438 847.65625 C 1242.304688 997.851563 1198.398438 1154.804688 1173.75 1324.453125 C 1034.101563 1309.921875 896.523438 1291.210938 761.914063 1268.398438 C 697.96875 1140.898438 618.359375 1035.3125 523.046875 951.640625 C 583.984375 1055.117188 633.359375 1155.351563 671.132813 1252.304688 C 441.132813 1209.648438 220.625 1154.765625 14.492188 1087.851563 C 205.703125 1185.859375 438.515625 1264.0625 696.5625 1322.109375 C 744.726563 1464.921875 766.953125 1600.390625 763.203125 1728.554688 C 813.515625 1732.1875 868.359375 1753.671875 927.617188 1793.046875 L 927.617188 1756.757813 C 994.53125 1758.007813 1052.03125 1785.976563 1100.117188 1840.585938 L 1212.148438 1828.515625 C 1216.914063 1675.3125 1230.742188 1536.640625 1253.671875 1412.421875 C 1364.804688 1424.257813 1478.125 1433.007813 1592.539063 1438.59375 C 1650.859375 1660.625 1686.835938 1898.867188 1700.546875 2153.28125 C 1737.929688 2151.367188 1791.40625 2179.296875 1860.9375 2237.109375 L 1860.9375 2181.484375 C 1949.6875 2209.648438 2011.210938 2255.078125 2045.46875 2317.695313 L 2145.429688 2293.515625 C 2154.492188 1950.820313 2180.625 1665.585938 2223.789063 1437.851563 C 2361.484375 1430.78125 2498.320313 1419.257813 2632.617188 1403.125 C 2672.03125 1568.164063 2697.96875 1735.46875 2710.390625 1905.078125 C 2755.976563 1921.523438 2800.039063 1946.796875 2842.578125 1980.820313 L 2858.671875 1933.28125 C 2920.117188 1943.28125 2969.53125 1980.625 3006.992188 2045.3125 L 3098.867188 2017.109375 C 3108.476563 1738.945313 3132.421875 1503.28125 3170.703125 1310.117188 C 3417.304688 1252.96875 3644.84375 1177.617188 3840.3125 1083.828125 C 3630.625 1150.117188 3410.507813 1204.375 3184.101563 1246.757813 C 3206.367188 1148.242188 3232.734375 1061.953125 3263.28125 987.890625 L 3178.632813 835.585938 C 3136.601563 963.320313 3104.101563 1106.523438 3081.054688 1265.195313 C 2951.054688 1287.304688 2819.21875 1305.625 2686.289063 1320.117188 C 2633.085938 1184.0625 2568.867188 1065.273438 2493.59375 963.710938 C 2541.09375 1083.75 2581.09375 1205.078125 2613.59375 1327.65625 C 2489.960938 1339.84375 2365.546875 1348.75 2240.9375 1354.453125 C 2273.203125 1209.453125 2313.359375 1091.015625 2361.40625 999.179688 L 2249.375 862.96875 C 2199.414063 1011.640625 2160.351563 1176.875 2132.226563 1358.632813 C 1968.632813 1363.632813 1804.960938 1363.164063 1642.65625 1357.226563 C 1588.085938 1227.617188 1525.976563 1121.71875 1456.328125 1039.492188 Z M 1456.328125 1039.492188 " transform="matrix(0.1,0,0,-0.1,0,410)"/>
<path style=" stroke:none;fill-rule:nonzero;fill:rgb(100%,100%,100%);fill-opacity:1;" d="M 68.046875 182.964844 L 69.621094 178.109375 L 82.585938 182.339844 C 84.644531 183.011719 86 183.386719 86.648438 183.464844 C 87.695313 183.578125 88.644531 183.34375 89.492188 182.761719 C 90.335938 182.164063 90.976563 181.191406 91.414063 179.835938 C 91.859375 178.460938 91.917969 177.332031 91.589844 176.449219 C 91.25 175.566406 90.695313 174.921875 89.925781 174.511719 C 89.152344 174.105469 87.820313 173.589844 85.925781 172.972656 L 72.679688 168.652344 L 74.253906 163.800781 L 86.828125 167.902344 C 89.703125 168.839844 91.691406 169.632813 92.792969 170.28125 C 93.894531 170.933594 94.738281 171.746094 95.324219 172.722656 C 95.914063 173.6875 96.265625 174.839844 96.371094 176.179688 C 96.46875 177.515625 96.210938 179.136719 95.59375 181.035156 C 94.851563 183.332031 94.027344 184.988281 93.117188 186.007813 C 92.203125 187.015625 91.214844 187.726563 90.152344 188.140625 C 89.082031 188.554688 88.046875 188.71875 87.050781 188.632813 C 85.574219 188.503906 83.5 188 80.820313 187.128906 L 68.046875 182.964844 "/>
<path style=" stroke:none;fill-rule:nonzero;fill:rgb(100%,100%,100%);fill-opacity:1;" d="M 100.796875 165.285156 L 78.777344 153.035156 L 81.175781 148.695313 L 100.875 147.828125 L 86.171875 139.648438 L 88.460938 135.503906 L 110.480469 147.753906 L 108.007813 152.230469 L 88.726563 153.152344 L 103.085938 161.140625 L 100.796875 165.285156 "/>
<path style=" stroke:none;fill-rule:nonzero;fill:rgb(100%,100%,100%);fill-opacity:1;" d="M 114.101563 142.679688 L 93.996094 127.472656 L 97.054688 123.398438 L 117.160156 138.605469 L 114.101563 142.679688 "/>
<path style=" stroke:none;fill-rule:evenodd;fill:rgb(100%,100%,100%);fill-opacity:1;" d="M 110.917969 125.617188 C 109.105469 123.796875 107.855469 121.996094 107.164063 120.21875 C 106.664063 118.902344 106.398438 117.53125 106.375 116.109375 C 106.359375 114.679688 106.59375 113.371094 107.078125 112.1875 C 107.71875 110.601563 108.765625 109.085938 110.214844 107.628906 C 112.835938 104.996094 115.746094 103.710938 118.945313 103.765625 C 122.148438 103.816406 125.203125 105.292969 128.101563 108.203125 C 130.972656 111.085938 132.441406 114.128906 132.507813 117.328125 C 132.566406 120.523438 131.285156 123.429688 128.671875 126.054688 C 126.023438 128.710938 123.113281 130.015625 119.941406 129.96875 C 116.757813 129.910156 113.75 128.460938 110.917969 125.617188 Z M 114.5 121.777344 C 116.515625 123.800781 118.511719 124.867188 120.484375 124.980469 C 122.453125 125.089844 124.152344 124.421875 125.585938 122.984375 C 127.019531 121.546875 127.679688 119.851563 127.566406 117.902344 C 127.453125 115.9375 126.363281 113.917969 124.300781 111.847656 C 122.257813 109.796875 120.289063 108.722656 118.386719 108.617188 C 116.492188 108.503906 114.804688 109.1875 113.320313 110.675781 C 111.839844 112.160156 111.15625 113.871094 111.269531 115.804688 C 111.375 117.730469 112.453125 119.722656 114.5 121.777344 "/>
<path style=" stroke:none;fill-rule:nonzero;fill:rgb(100%,100%,100%);fill-opacity:1;" d="M 141.78125 113.578125 L 129.195313 91.699219 L 133.476563 89.21875 L 150.808594 98.65625 L 142.402344 84.046875 L 146.492188 81.675781 L 159.078125 103.558594 L 154.660156 106.117188 L 137.664063 96.941406 L 145.871094 111.210938 L 141.78125 113.578125 "/>
<path style=" stroke:none;fill-rule:evenodd;fill:rgb(100%,100%,100%);fill-opacity:1;" d="M 197.179688 94.539063 L 191.703125 95.3125 L 188.730469 89.933594 L 178.765625 91.339844 L 177.503906 97.3125 L 172.164063 98.066406 L 178.371094 71.679688 L 183.691406 70.929688 Z M 186.523438 85.949219 L 181.789063 77.148438 L 179.722656 86.90625 Z M 186.523438 85.949219 "/>
<path style=" stroke:none;fill-rule:nonzero;fill:rgb(100%,100%,100%);fill-opacity:1;" d="M 204.734375 95.457031 L 206.921875 74.578125 L 199.492188 73.796875 L 199.9375 69.546875 L 219.835938 71.644531 L 219.390625 75.894531 L 211.976563 75.113281 L 209.789063 95.988281 L 204.734375 95.457031 "/>
<path style=" stroke:none;fill-rule:nonzero;fill:rgb(100%,100%,100%);fill-opacity:1;" d="M 222.230469 98.234375 L 230.769531 74.6875 L 235.546875 76.433594 L 228.460938 95.980469 L 240.335938 100.320313 L 238.886719 104.316406 L 222.230469 98.234375 "/>
<path style=" stroke:none;fill-rule:nonzero;fill:rgb(100%,100%,100%);fill-opacity:1;" d="M 243.453125 107.046875 L 257.167969 85.855469 L 272.820313 96.058594 L 270.503906 99.644531 L 259.109375 92.21875 L 256.070313 96.914063 L 266.671875 103.824219 L 264.359375 107.394531 L 253.761719 100.484375 L 250.027344 106.253906 L 261.824219 113.941406 L 259.515625 117.511719 L 243.453125 107.046875 "/>
<path style=" stroke:none;fill-rule:nonzero;fill:rgb(100%,100%,100%);fill-opacity:1;" d="M 267.726563 126.03125 L 283.023438 111.714844 L 277.929688 106.234375 L 281.042969 103.316406 L 294.6875 118.003906 L 291.574219 120.917969 L 286.488281 115.445313 L 271.191406 129.761719 L 267.726563 126.03125 "/>
<path style=" stroke:none;fill-rule:nonzero;fill:rgb(100%,100%,100%);fill-opacity:1;" d="M 278.511719 138.414063 L 298.617188 123.210938 L 301.675781 127.285156 L 281.570313 142.488281 L 278.511719 138.414063 "/>
<path style=" stroke:none;fill-rule:nonzero;fill:rgb(100%,100%,100%);fill-opacity:1;" d="M 300.902344 156.882813 L 301.925781 161.96875 C 299.15625 162.644531 296.757813 162.53125 294.734375 161.636719 C 292.722656 160.746094 291.0625 159.113281 289.753906 156.742188 C 288.132813 153.808594 287.796875 150.84375 288.746094 147.84375 C 289.703125 144.839844 291.914063 142.378906 295.378906 140.449219 C 299.046875 138.410156 302.414063 137.777344 305.484375 138.550781 C 308.566406 139.320313 310.960938 141.253906 312.671875 144.347656 C 314.164063 147.050781 314.582031 149.6875 313.921875 152.261719 C 313.535156 153.792969 312.601563 155.296875 311.113281 156.78125 L 307.625 152.949219 C 308.621094 152.050781 309.21875 151.003906 309.421875 149.800781 C 309.628906 148.609375 309.402344 147.421875 308.746094 146.234375 C 307.84375 144.597656 306.519531 143.589844 304.785156 143.21875 C 303.050781 142.855469 300.871094 143.402344 298.25 144.863281 C 295.464844 146.410156 293.761719 148.015625 293.136719 149.679688 C 292.507813 151.339844 292.640625 152.976563 293.527344 154.585938 C 294.183594 155.769531 295.121094 156.578125 296.34375 157.015625 C 297.566406 157.453125 299.085938 157.410156 300.902344 156.882813 "/>
<path style=" stroke:none;fill-rule:evenodd;fill:rgb(100%,100%,100%);fill-opacity:1;" d="M 308.847656 166.257813 C 311.285156 165.464844 313.449219 165.160156 315.34375 165.355469 C 316.738281 165.503906 318.074219 165.890625 319.347656 166.511719 C 320.625 167.148438 321.679688 167.949219 322.511719 168.925781 C 323.628906 170.214844 324.503906 171.839844 325.136719 173.796875 C 326.28125 177.335938 326.105469 180.519531 324.601563 183.355469 C 323.105469 186.199219 320.40625 188.257813 316.507813 189.527344 C 312.640625 190.789063 309.273438 190.722656 306.402344 189.324219 C 303.542969 187.925781 301.539063 185.464844 300.398438 181.933594 C 299.242188 178.359375 299.402344 175.164063 300.886719 172.351563 C 302.382813 169.53125 305.035156 167.5 308.847656 166.257813 Z M 310.628906 171.203125 C 307.917969 172.089844 306.0625 173.386719 305.066406 175.101563 C 304.078125 176.8125 303.898438 178.636719 304.523438 180.570313 C 305.152344 182.503906 306.355469 183.863281 308.136719 184.648438 C 309.933594 185.4375 312.222656 185.382813 314.996094 184.476563 C 317.742188 183.582031 319.59375 182.308594 320.550781 180.652344 C 321.511719 179.011719 321.667969 177.191406 321.019531 175.191406 C 320.371094 173.191406 319.164063 171.804688 317.398438 171.027344 C 315.640625 170.246094 313.382813 170.304688 310.628906 171.203125 "/>
<path style=" stroke:none;fill-rule:nonzero;fill:rgb(100%,100%,100%);fill-opacity:1;" d="M 87.90625 328.839844 L 109.035156 314.617188 L 113.503906 320.746094 L 101.769531 334.125 L 118.832031 328.0625 L 123.308594 334.207031 L 102.175781 348.425781 L 99.40625 344.621094 L 116.039063 333.425781 L 96.472656 340.597656 L 93.601563 336.652344 L 107.3125 321.449219 L 90.675781 332.644531 L 87.90625 328.839844 "/>
<path style=" stroke:none;fill-rule:evenodd;fill:rgb(100%,100%,100%);fill-opacity:1;" d="M 127.984375 371.789063 L 123.710938 368.222656 L 125.859375 362.554688 L 118.085938 356.066406 L 112.632813 358.976563 L 108.46875 355.496094 L 132.972656 343.117188 L 137.125 346.585938 Z M 127.449219 358.351563 L 131.054688 349.175781 L 122.144531 353.921875 Z M 127.449219 358.351563 "/>
<path style=" stroke:none;fill-rule:evenodd;fill:rgb(100%,100%,100%);fill-opacity:1;" d="M 135.707031 376.886719 L 147.828125 355.011719 L 157.5 359.945313 C 159.929688 361.1875 161.585938 362.285156 162.460938 363.242188 C 163.355469 364.195313 163.851563 365.34375 163.960938 366.6875 C 164.066406 368.03125 163.757813 369.347656 163.042969 370.640625 C 162.132813 372.28125 160.878906 373.382813 159.28125 373.945313 C 157.6875 374.5 155.8125 374.40625 153.664063 373.664063 C 154.347656 374.726563 154.824219 375.757813 155.097656 376.75 C 155.382813 377.75 155.597656 379.378906 155.753906 381.640625 L 156.167969 387.328125 L 150.671875 384.523438 L 149.988281 378.066406 C 149.75 375.765625 149.535156 374.28125 149.34375 373.625 C 149.15625 372.953125 148.863281 372.414063 148.46875 372.007813 C 148.074219 371.589844 147.351563 371.113281 146.292969 370.574219 L 145.363281 370.097656 L 140.304688 379.230469 Z M 147.296875 366.609375 L 150.695313 368.34375 C 152.902344 369.46875 154.328125 370.078125 154.976563 370.179688 C 155.621094 370.28125 156.222656 370.191406 156.777344 369.914063 C 157.328125 369.632813 157.785156 369.164063 158.152344 368.507813 C 158.558594 367.773438 158.679688 367.074219 158.515625 366.417969 C 158.363281 365.753906 157.949219 365.171875 157.269531 364.671875 C 156.925781 364.433594 155.820313 363.835938 153.960938 362.886719 L 150.371094 361.054688 L 147.296875 366.609375 "/>
<path style=" stroke:none;fill-rule:evenodd;fill:rgb(100%,100%,100%);fill-opacity:1;" d="M 189.992188 394.84375 L 184.433594 393.808594 L 183.347656 387.875 L 173.230469 385.992188 L 170.019531 391.128906 L 164.601563 390.121094 L 179.394531 367.640625 L 184.796875 368.644531 Z M 182.539063 383.472656 L 180.882813 373.800781 L 175.632813 382.1875 Z M 182.539063 383.472656 "/>
<path style=" stroke:none;fill-rule:nonzero;fill:rgb(100%,100%,100%);fill-opacity:1;" d="M 216.867188 383.980469 L 222.054688 384.996094 C 221.574219 387.765625 220.511719 389.894531 218.855469 391.386719 C 217.214844 392.867188 215.015625 393.746094 212.265625 394.027344 C 208.859375 394.375 205.9375 393.542969 203.503906 391.539063 C 201.066406 389.519531 199.640625 386.574219 199.21875 382.699219 C 198.769531 378.597656 199.527344 375.308594 201.484375 372.820313 C 203.441406 370.324219 206.21875 368.890625 209.808594 368.527344 C 212.945313 368.207031 215.589844 368.839844 217.742188 370.421875 C 219.023438 371.355469 220.0625 372.777344 220.859375 374.691406 L 215.863281 376.386719 C 215.421875 375.140625 214.675781 374.199219 213.628906 373.554688 C 212.589844 372.914063 211.386719 372.664063 210.007813 372.804688 C 208.105469 372.996094 206.632813 373.808594 205.585938 375.238281 C 204.550781 376.671875 204.191406 378.851563 204.511719 381.785156 C 204.851563 384.902344 205.675781 387.058594 206.984375 388.261719 C 208.296875 389.464844 209.882813 389.972656 211.75 389.78125 C 213.125 389.640625 214.261719 389.101563 215.164063 388.160156 C 216.0625 387.21875 216.628906 385.828125 216.867188 383.980469 "/>
<path style=" stroke:none;fill-rule:evenodd;fill:rgb(100%,100%,100%);fill-opacity:1;" d="M 256.925781 380.417969 L 251.714844 382.546875 L 247.355469 378.214844 L 237.863281 382.089844 L 238.191406 388.066406 L 233.105469 390.144531 L 232.292969 363.578125 L 237.363281 361.507813 Z M 244.121094 375.003906 L 237.117188 367.882813 L 237.644531 377.648438 Z M 244.121094 375.003906 "/>
<path style=" stroke:none;fill-rule:nonzero;fill:rgb(100%,100%,100%);fill-opacity:1;" d="M 263.585938 375.722656 L 249.183594 355.203125 L 253.5 352.402344 L 267.90625 372.925781 L 263.585938 375.722656 "/>
<path style=" stroke:none;fill-rule:evenodd;fill:rgb(100%,100%,100%);fill-opacity:1;" d="M 258.074219 349.460938 L 265.617188 342.707031 C 267.113281 341.367188 268.28125 340.433594 269.132813 339.90625 C 269.980469 339.359375 270.878906 339.019531 271.820313 338.882813 C 272.769531 338.738281 273.746094 338.808594 274.75 339.097656 C 275.742188 339.375 276.617188 339.90625 277.378906 340.691406 C 278.203125 341.539063 278.714844 342.53125 278.921875 343.667969 C 279.136719 344.800781 279.011719 345.90625 278.539063 346.992188 C 280 346.28125 281.414063 346.039063 282.785156 346.257813 C 284.152344 346.476563 285.34375 347.109375 286.359375 348.15625 C 287.160156 348.980469 287.734375 349.964844 288.09375 351.105469 C 288.449219 352.234375 288.507813 353.34375 288.265625 354.433594 C 288.027344 355.511719 287.453125 356.554688 286.546875 357.570313 C 285.976563 358.203125 284.484375 359.617188 282.070313 361.808594 L 275.648438 367.5625 Z M 264.8125 349.0625 L 268.875 353.246094 L 271.371094 351.011719 C 272.855469 349.679688 273.757813 348.835938 274.078125 348.46875 C 274.65625 347.8125 274.960938 347.140625 274.988281 346.457031 C 275.011719 345.757813 274.742188 345.113281 274.175781 344.527344 C 273.632813 343.96875 273.027344 343.664063 272.367188 343.609375 C 271.707031 343.539063 271.023438 343.753906 270.316406 344.246094 C 269.898438 344.542969 268.792969 345.496094 266.996094 347.101563 Z M 271.800781 356.261719 L 276.496094 361.101563 L 280.023438 357.941406 C 281.398438 356.710938 282.230469 355.894531 282.527344 355.488281 C 283 354.882813 283.226563 354.234375 283.210938 353.539063 C 283.195313 352.832031 282.878906 352.15625 282.253906 351.511719 C 281.726563 350.96875 281.140625 350.632813 280.5 350.496094 C 279.855469 350.367188 279.191406 350.449219 278.5 350.742188 C 277.816406 351.03125 276.609375 351.953125 274.875 353.503906 L 271.800781 356.261719 "/>
<path style=" stroke:none;fill-rule:evenodd;fill:rgb(100%,100%,100%);fill-opacity:1;" d="M 287.394531 338.910156 C 285.195313 337.539063 283.558594 336.070313 282.496094 334.503906 C 281.714844 333.347656 281.160156 332.089844 280.835938 330.730469 C 280.515625 329.363281 280.476563 328.0625 280.710938 326.824219 C 281.015625 325.171875 281.742188 323.503906 282.886719 321.8125 C 284.957031 318.75 287.601563 316.917969 290.816406 316.316406 C 294.039063 315.703125 297.410156 316.496094 300.929688 318.691406 C 304.417969 320.863281 306.53125 323.480469 307.273438 326.535156 C 308.007813 329.585938 307.339844 332.636719 305.277344 335.6875 C 303.1875 338.777344 300.546875 340.625 297.355469 341.230469 C 294.15625 341.828125 290.835938 341.054688 287.394531 338.910156 Z M 290.171875 334.496094 C 292.621094 336.019531 294.847656 336.636719 296.847656 336.339844 C 298.84375 336.035156 300.40625 335.050781 301.535156 333.375 C 302.667969 331.703125 302.972656 329.945313 302.445313 328.097656 C 301.914063 326.238281 300.398438 324.527344 297.890625 322.960938 C 295.414063 321.417969 293.210938 320.792969 291.28125 321.082031 C 289.359375 321.359375 287.816406 322.363281 286.644531 324.09375 C 285.476563 325.824219 285.152344 327.601563 285.675781 329.433594 C 286.1875 331.257813 287.6875 332.945313 290.171875 334.496094 "/>
<path style=" stroke:none;fill-rule:nonzero;fill:rgb(12.5%,10.998535%,43.499756%);fill-opacity:1;" d="M 142.644531 193.433594 L 141.941406 209.207031 L 145.34375 209.386719 L 146.0625 193.53125 L 142.644531 193.433594 "/>
<path style=" stroke:none;fill-rule:nonzero;fill:rgb(12.5%,10.998535%,43.499756%);fill-opacity:1;" d="M 136.300781 177.171875 L 143.378906 189.289063 L 146.132813 187.289063 L 139 175.074219 L 136.300781 177.171875 "/>
<path style=" stroke:none;fill-rule:nonzero;fill:rgb(100%,81.199646%,0%);fill-opacity:1;" d="M 205.945313 41.078125 L 192.742188 31.484375 L 179.535156 41.078125 L 184.578125 25.554688 L 171.371094 15.960938 L 187.695313 15.960938 L 192.742188 0.433594 L 197.785156 15.960938 L 214.109375 15.960938 L 200.902344 25.554688 L 205.945313 41.078125 "/>
</g>
</svg>
