<svg xmlns="http://www.w3.org/2000/svg" width="400" height="257.667" fill-rule="evenodd" xmlns:v="https://vecta.io/nano"><g fill="#1369af"><path d="M42.268.799l-4.105.29c-.202.039 4.089.071 9.536.071 9.301 0 9.866-.142 1.786-.448a91.27 91.27 0 0 0-7.217.087m-7.216.747c-.884.186-.887.191-.129.209.425.011 1.237-.077 1.804-.194l1.031-.213-.902.004c-.496.003-1.308.09-1.804.194m23.582.001c1.027.227 3.404.345 3.2.16-.059-.054-1.035-.163-2.169-.242-1.514-.107-1.788-.085-1.031.082m-26.933.515c-.51.163-.537.206-.129.206.284 0 .806-.093 1.16-.206.51-.164.537-.206.129-.206-.284 0-.806.092-1.16.206m31.572.015c.567.117 1.379.206 1.804.198.673-.013.639-.042-.257-.228-.567-.117-1.379-.207-1.805-.198-.672.012-.639.042.258.228m-34.149.5l-.645.207.645.007a3.42 3.42 0 0 0 1.16-.214l.515-.221-.515.007c-.284.005-.806.101-1.16.214m38.015.015c1.377.285 2.322.275 1.418-.015-.355-.113-1.051-.204-1.547-.202l-.902.004 1.031.213m-41.366.896c-2.227.785-1.671.796.773.015 1.064-.339 1.701-.614 1.418-.611s-1.269.272-2.191.596m47.165.11l4.51.894c.53.123.652.103.387-.065-.469-.297-7.143-1.602-8.013-1.567-.342.014 1.061.346 3.116.738M20.276 5.41c-1.6.778-2.258 1.228-1.198.819 1.543-.596 3.44-1.548 3.087-1.549-.213-.001-1.063.328-1.889.73m59.105-.663c0 .154 6.747 1.737 6.872 1.612.096-.096-6.238-1.73-6.678-1.723-.107.002-.194.052-.194.111M16.287 7.455c-.894.533-1.822 1.178-2.062 1.433s.086.115.723-.311a26.44 26.44 0 0 1 2.256-1.33c.602-.306 1.095-.612 1.095-.68 0-.247-.416-.063-2.012.888m70.59-.91c.176.166 5.87 1.704 6.224 1.681.18-.011-1.065-.416-2.766-.899-2.958-.839-3.695-1.006-3.458-.782m6.68 1.813c0 .172 2.875.966 3.01.831.067-.067-.515-.305-1.291-.531-1.503-.437-1.719-.475-1.719-.3m-83.333 3.82c-2.655 2.633-5.585 6.579-5.585 7.522 0 .145.51-.604 1.133-1.664 1.453-2.473 4.088-5.548 6.216-7.253l1.672-1.422c0-.426-.958.358-3.436 2.817m88.487-2.239c1.063.345 2.049.586 2.191.535.293-.105-3.216-1.204-3.765-1.179-.197.009.511.298 1.574.644m2.599.735c.238.237 6.51 2.211 6.633 2.087.073-.072.084-.133.025-.134s-1.49-.465-3.18-1.031c-2.843-.952-3.75-1.193-3.478-.922m8.451 2.87c.903.347 1.773.623 1.933.613.407-.025-2.715-1.244-3.189-1.245-.212 0 .353.284 1.256.632m2.997 1.007c1.295.559 2.131.687 1.031.158-.567-.272-1.205-.495-1.418-.494s-.039.152.387.336m-48.454.9c-.425.102.735.131 2.577.065l3.458-.215c.196-.173-5.247-.037-6.035.15m7.539-.063a3.64 3.64 0 0 0 1.16 0c.319-.061.058-.112-.58-.112s-.899.051-.58.112m5.09.07l6.186.248c-.993-.119-3.486-.266-5.542-.327-3.712-.109-3.716-.108-.644.079m38.038-.143c.179.178 8.84 3.485 8.92 3.405.106-.105-1.903-.96-5.472-2.326-2.843-1.089-3.737-1.369-3.448-1.079m-53.563.592c.392.059.972.057 1.289-.004s-.004-.11-.712-.108-.969.052-.577.112m-4.063.33l-1.031.185.902.006c.497.003 1.25-.083 1.676-.191 1.048-.267-.056-.267-1.547 0m30.993.182c.319.061.84.061 1.159 0s.058-.112-.579-.112-.899.051-.58.112m-34.214.346c-.435.148-.225.171.644.07.709-.081 1.337-.192 1.396-.244.203-.181-1.396-.045-2.04.174m37.371.001c1.574.28 2.79.27 1.675-.013-.425-.109-1.237-.196-1.804-.195l-1.031.001 1.16.207m-40.593.639c-.85.188-1.836.469-2.191.625l-.644.284.644-.142 2.434-.529 1.912-.511c.185-.185-.451-.105-2.155.273m43.814-.252c.618.245 9.235 1.663 9.357 1.54.075-.075.088-.136.029-.137s-2.119-.348-4.578-.773l-4.808-.63m-48.067 1.404c-.512.331.132.331.903 0l.515-.222-.515-.014c-.284-.008-.69.098-.903.236m59.15.456c.142.141 1.475.513 2.964.826l5.283 1.149c.543.125.658.104.387-.072-.213-.138-.967-.368-1.675-.512l-6.612-1.465c-.401-.121-.518-.096-.347.074m18.686-.094c0 .058.898.469 1.997.913l5.959 2.511c.762.34 1.446.557 1.522.481s-.316-.32-.869-.543l-1.78-.742-3.221-1.318-2.694-1.194c-.25-.218-.914-.296-.914-.108m-81.057.682l-1.776.762c-.694.29-1.198.589-1.121.666s.355.014.617-.14 1.172-.564 2.022-.909 1.373-.625 1.16-.622-.619.113-.902.243M3.48 22.229c-.493 1.222-1.168 3.66-1.146 4.137.008.17.34-.735.737-2.01l.915-2.771c.106-.248.135-.451.064-.451s-.327.493-.57 1.095m35.19-.549c-1.489.66-2.907 1.54-2.745 1.702.07.07.462-.11.87-.401s1.372-.815 2.141-1.167 1.283-.639 1.141-.641-.775.227-1.407.507m76.923-.285l5.98 1.448c.13-.13-1.814-.72-4.305-1.307-1.712-.403-3.074-.518-1.675-.141m6.572 1.801c.213.137.619.243.902.236l.515-.015-.515-.221c-.771-.331-1.414-.331-.902 0m-87.242.569c-3.084 1.769-8.216 6.747-10.353 10.043-1.679 2.588-1.341 2.445.447-.19 1.868-2.752 5.258-6.248 7.754-7.996 2.715-1.901 3.682-2.735 2.152-1.857m90.077.104l2.795.9c.899.29 1.69.471 1.758.403s-.725-.377-1.763-.687-2.154-.669-2.48-.797-.789-.225-1.031-.214.083.189.721.395m12.242.499c.993.478 1.92.869 2.062.868s-.554-.398-1.546-.884-1.92-.877-2.062-.869.554.406 1.546.885m-6.958 1.14c1.138.476 7.945 2.586 8.039 2.492.118-.118-7.915-2.759-8.297-2.728-.142.011-.026.118.258.236m10.438.382c0 .192 2.389 1.188 2.524 1.053.069-.069-.422-.361-1.092-.648-1.285-.551-1.432-.592-1.432-.405M1.959 27.861c-.095.591-.122 1.124-.06 1.186s.193-.368.292-.954.126-1.12.06-1.186-.198.363-.292.954m141.727-.541c.087.141.261.257.386.257.225 0 3.347 1.413 6.299 2.851.842.41 1.572.705 1.622.655.09-.09-1.851-1.062-6.047-3.027-2.261-1.06-2.511-1.141-2.26-.736m-4.232 1.136c.144.14 3.064 1.197 3.716 1.345.284.064-.296-.23-1.289-.653-1.58-.675-2.749-1.008-2.427-.692M1.655 35.052c0 2.905.038 4.094.084 2.641a101.14 101.14 0 0 0 0-5.283c-.046-1.453-.084-.264-.084 2.642m144.186-4.243c.477.207.941.372 1.031.367.336-.018-1.14-.745-1.511-.744-.213 0 .003.17.48.377m6.479.487c0 .178 1.619.933 1.741.812.061-.061-.242-.294-.674-.517-.804-.416-1.067-.489-1.067-.295m-1.805 1.307c.355.203.819.372 1.031.376s.055-.166-.351-.377c-.941-.491-1.538-.49-.68.001m7.592 1.634c1.694.862 3.119 1.531 3.165 1.484s-.869-.568-2.035-1.159-2.242-1.178-2.393-1.303-.622-.31-1.046-.41.614.525 2.309 1.388m-2.823.207a28.67 28.67 0 0 1 1.61.675c.319.152.641.215.717.139s-.243-.278-.708-.451-1.048-.42-1.294-.55-.652-.23-.902-.223.009.192.577.41m2.706.964c0 .054 1.015.53 2.255 1.058l3.028 1.297 3.093 1.297c1.276.529 2.43 1.061 2.564 1.183.319.287.658.283.658-.008 0-.127-.493-.473-1.096-.771s-1.591-.832-2.197-1.188c-1.196-.702-1.464-.788-1.218-.389.265.428-.083.314-3.524-1.16-3.28-1.405-3.563-1.51-3.563-1.319m3.68.577c.078.124.588.442 1.131.706l1.466.728c.325.168.424.162.311-.022-.091-.148-.712-.527-1.38-.843l-1.443-.685c-.126-.061-.164-.009-.085.116m-138.693.437c-.372.448-1.88 4.09-1.749 4.222.055.055.297-.399.539-1.007.734-1.845 1.259-2.901 1.537-3.089.145-.099.196-.247.114-.329s-.28.01-.441.203M1.849 41.366c-.008.283.081.979.198 1.546.179.867.213.908.212.258-.001-.903-.385-2.597-.41-1.804m18.946-.03c-.097.252-.169.652-.16.889.011.284.1.22.265-.193.137-.342.209-.742.16-.889s-.168-.06-.265.193m-.52 2.092c-.567 2.554-.939 5.048-.904 6.057.035.985.054 1.024.127.257.18-1.89.647-4.801.899-5.608.145-.462.215-.983.156-1.159s-.184.028-.278.453M2.371 44.716c0 .284.093.806.206 1.16.164.51.207.537.207.129 0-.283-.093-.805-.207-1.16-.163-.51-.206-.537-.206-.129m.48 2.26c-.019.546.987 4.377 1.198 4.566.19.17-.043-.933-.68-3.217-.277-.993-.51-1.599-.518-1.349m368.412.202c-.347.158-.094.183.773.078.709-.087 1.337-.2 1.396-.253.226-.202-1.679-.048-2.169.175m7.216.002c1.377.285 2.323.275 1.418-.015-.354-.114-1.05-.205-1.546-.202l-.903.003 1.031.214m-10.309.8c-1.453.49-2.414.982-1.289.66 2.303-.658 3.78-1.178 3.351-1.179-.284-.001-1.211.233-2.062.519m13.531-.157c.638.201 1.276.358 1.418.349.451-.027-1.525-.71-2.062-.712-.284-.002.006.162.644.363m-17.139 1.736c-3.727 2.016-7.562 5.609-9.043 8.473-.592 1.146-.277.859.68-.616 1.937-2.991 5.455-6.133 8.713-7.784.729-.37 1.325-.728 1.325-.796 0-.183.003-.184-1.675.723m20.232-.726c0 .071.435.328.966.57 1.515.691 1.508.689 1.225.385-.3-.322-2.191-1.146-2.191-.955M19.166 53.222c.001 1.417.044 1.964.096 1.215s.052-1.909-.001-2.577-.095-.056-.095 1.362m371.021-1.075c.656.723.798.812.784.495-.004-.107-.323-.416-.708-.688l-.701-.495.625.688M4.132 52.062c0 .212.112.56.249.773.223.344.25.344.25 0 0-.213-.112-.561-.25-.773-.222-.344-.249-.344-.249 0m388.007 1.804c.554.567 1.065 1.031 1.136 1.031s-.324-.464-.878-1.031-1.065-1.031-1.136-1.031.325.464.878 1.031M4.653 53.629c-.008.224.271 1.094.62 1.933.818 1.972.832 1.508.02-.665-.345-.921-.633-1.492-.64-1.268m14.722 3.635c-.078 2.081 1.782 11.613 2.187 11.208.059-.059-.125-.977-.41-2.039-.567-2.116-1.507-7.381-1.645-9.217l-.087-1.159-.045 1.207m375.779.471c.441.71.854 1.24.916 1.178.116-.116-1.421-2.47-1.613-2.47-.058 0 .255.581.697 1.292m-389.21-.5c-.014.128.477 1.37 2.489 6.296.657 1.608 5.184 10.499 5.502 10.807.157.152-.753-1.754-2.022-4.235s-2.963-6.076-3.765-7.99c-1.61-3.841-2.179-5.1-2.204-4.878m348.15 3.485c-.424.935-.735 1.79-.693 1.9s.442-.654.886-1.699c1.003-2.359.855-2.513-.193-.201m-1.217 3.512l-.561 2.198-.274 1.096h-6.981-6.982l-3.253 3.132-6.753 6.572c-1.925 1.892-3.566 3.44-3.647 3.44s-.56.413-1.065.917c-1.09 1.09-1.59.963-2.621-.67-.354-.561-.816-1.02-1.027-1.02s-.383-.093-.383-.206-.611-.839-1.357-1.611-1.624-1.782-1.951-2.242-.759-.838-.962-.838-.369-.137-.369-.304c0-.332-4.09-4.335-4.43-4.335-.115 0-.209-.093-.209-.205 0-.244-.678-1.175-1.471-2.023l-.568-.607h-16.266c-10.719 0-16.435.091-16.764.267-.618.33-.805 79.993-.189 80.609.533.534 31.287.437 31.493-.098.086-.225.156-9.503.156-20.619l.254-20.211c.285 0 .918.623 6.167 6.069 6.506 6.751 8.109 8.364 8.311 8.364.335 0 2.755-2.172 2.775-2.491.011-.166.131-.34.267-.387.248-.085 1.642-1.407 9.379-8.891 2.247-2.174 4.19-3.952 4.317-3.952.135 0 .231 8.823.231 21.129v21.129l.58.14c.319.078 7.017.109 14.884.07l14.304-.072.129-27.813.482-27.931c.194-.065-.262-.334-1.012-.599-10.82-3.81-17.349-15.788-14.653-26.881.273-1.121.453-2.082.401-2.134s-.224.402-.382 1.008m45.183-.186a101.02 101.02 0 0 0 .418 2.191c.156.78.373 2.403.481 3.608.166 1.855.201 1.974.231.774.039-1.583-.582-5.783-.995-6.731-.249-.572-.259-.561-.135.158m-193.62 3.696c-.277.176-.439 41.379-.317 80.647.001.46 30.933.473 31.392.013.233-.232.31-3.465.31-12.964s.077-12.732.309-12.964 2.434-.309 8.325-.309h8.015l.289-.838c.159-.46.421-1.533.583-2.384s.456-2.068.656-2.706c.327-1.045 2.655-9.978 3.253-12.479.43-1.799 1.061-1.696-10.417-1.696-7.741 0-10.474-.079-10.704-.309-.327-.328-.469-15.212-.153-16.036.14-.364 1.528-.408 13.021-.408h12.865l.219-.58c.494-1.308.801-2.453.801-2.995 0-.317.289-1.584.643-2.817 2.518-8.777 2.961-10.815 2.423-11.155-.453-.287-61.062-.307-61.513-.02m-72.29.321c-.556.324-.709 79.638-.155 80.306.407.49 57.509.511 57.869.02.13-.177.681-2.178 1.224-4.446s1.089-4.234 1.213-4.368.225-.673.225-1.195.173-1.282.385-1.688.386-1.029.386-1.384.234-1.456.517-2.447.516-2.179.516-2.639v-.836l-14.626-.067-14.627-.066-.065-30.265-.491-30.734c-.498-.551-31.441-.733-32.371-.191M21.661 69.107c-.006.232.158.812.365 1.289.487 1.121.499.656.018-.68-.205-.567-.377-.841-.383-.609m.798 2.542c0 .213.1.619.221.903.14.324.222.372.222.128 0-.212-.1-.618-.222-.902-.139-.325-.221-.372-.221-.129m376.133 1.943c-.099.798-.127 1.505-.062 1.57s.201-.534.3-1.332.128-1.504.063-1.57-.201.534-.301 1.332M14.181 74.936c.003.106.242.483.531.837l.525.645-.409-.838c-.388-.796-.66-1.066-.647-.644m9.424.193c.403 1.306.71 2.081.915 2.307.397.436.215-.197-.441-1.534-.348-.709-.561-1.057-.474-.773m374.48 1.049c-.094.378-.122.737-.061.797s.188-.198.282-.576.123-.736.062-.797-.188.198-.283.576m-382.879.442c0 .259 3.098 5.312 3.353 5.469.128.079-.507-1.088-1.411-2.593-1.64-2.731-1.942-3.178-1.942-2.876m9.536 1.332c0 .08.223.638.494 1.239l1.034 2.357c.297.695.601 1.203.674 1.13s-.042-.469-.257-.878c-.59-1.121-1.429-3.13-1.429-3.42 0-.141-.116-.328-.258-.416s-.258-.093-.258-.012m371.586 2.792c-.518 1.022-1.204 2.265-1.526 2.761s-.409.762-.194.591c.438-.347 2.926-4.947 2.764-5.109-.057-.056-.526.734-1.044 1.757M18.844 82.629c.172.491 4.2 6.527 4.293 6.434.08-.081-3.925-6.283-4.254-6.589-.077-.071-.094-.001-.039.155m8.218.451c0 .27.761 1.714.903 1.714s-.41-1.329-.694-1.663c-.115-.134-.209-.157-.209-.051m364.948 3.622c-1.295 1.37-1.59 1.776-.894 1.23.995-.779 3.108-3.114 2.918-3.223-.05-.029-.961.868-2.024 1.993M28.109 85.18c0 .142.286.722.635 1.289s.635.915.635.773-.286-.721-.635-1.288-.635-.915-.635-.774m1.788 3.533c0 .261 1.329 2.519 1.571 2.668.132.082-.122-.468-.564-1.222-.846-1.442-1.007-1.673-1.007-1.446m358.732.861c-.219.219-1.427.915-2.685 1.546s-2.128 1.148-1.933 1.148 1.349-.533 2.566-1.185c2.162-1.159 3.225-1.908 2.709-1.908-.142 0-.437.18-.657.399m-365.115.127c.164.466 3.805 5.402 3.985 5.402.135 0-1.812-2.796-3.231-4.639-.491-.638-.83-.981-.754-.763m8.187 2.144c0 .106.29.619.644 1.141s.645.828.645.681-.29-.661-.645-1.141-.644-.787-.644-.681m337.887 1.184a1.87 1.87 0 0 0 .88.266c.66.005.454-.142-.494-.354-.564-.127-.669-.103-.386.088m11.211.012c-.325.14-.373.222-.129.222.213 0 .619-.1.902-.222.325-.139.373-.221.129-.221-.213 0-.619.099-.902.221m-8.736.565c.552.098 2.106.179 3.452.179s2.901-.081 3.453-.179-1.001-.178-3.453-.178-4.004.08-3.452.178M33.539 95.039c1.904 3.109 3.893 6.017 4.025 5.885.084-.084-.078-.413-.361-.732-.733-.826-3.698-5.509-3.698-5.842a.28.28 0 0 0-.279-.278c-.153 0-.012.435.313.967m-5.386 1.196c.705 1.056 4.039 5.393 4.976 6.471 1.158 1.334.361.094-1.409-2.191l-2.822-3.672c-1.242-1.636-1.656-1.973-.745-.608m10.363 6.353l2.029 2.885c.559.812 1.194 1.624 1.411 1.804s-.263-.602-1.069-1.736l-2.093-3.006c-.346-.52-.778-1.037-.96-1.15s.124.428.682 1.203m-4.495 1.183c0 .199 7.305 8.913 7.854 9.368s.495-.048-.058-.539c-.584-.518-1.93-2.024-3.546-3.966l-1.425-1.675c-.077-.071-.703-.854-1.391-1.74-1.219-1.567-1.434-1.785-1.434-1.448m8.934 4.943c.26.469.754 1.107 1.098 1.417l.626.565-.554-.773c-.305-.426-.799-1.063-1.098-1.418l-.544-.644.472.853m2.046 2.612c.452.637 2.653 3.375 3.845 4.782l2.696 3.222c1.855 2.235 6.705 7.543 6.705 7.339 0-.076-1.232-1.498-2.738-3.159s-4.26-4.869-6.121-7.129c-3.059-3.715-5.127-6.098-4.387-5.055m-.536 4.782c1.237 1.347 2.306 2.449 2.377 2.449.152 0-.329-.6-1.224-1.525-.354-.366-1.184-1.275-1.843-2.019s-1.28-1.353-1.378-1.353.832 1.102 2.068 2.448m3.877 4.278c.841.936 1.582 1.656 1.646 1.602s-.624-.82-1.529-1.701l-1.646-1.601 1.529 1.7m1.916 2.039c0 .246 14.795 15.134 17.161 17.268l10.88 9.979c.327.355.65.589.719.52s-.893-1.039-2.139-2.156c-8.124-7.287-16.19-15.047-23.593-22.696-1.666-1.721-3.028-3.033-3.028-2.915m8.256 4.603c.017.294 6.903 7.382 7.04 7.246.073-.073-1.483-1.769-3.458-3.77s-3.587-3.565-3.582-3.476m10.415 10.734c4.304 4.15 4.543 4.148.401-.004-1.768-1.772-3.332-3.22-3.476-3.218s1.24 1.452 3.075 3.222m3.751 3.344c0 .117.551.724 1.225 1.349 3.422 3.174 5.322 4.861 5.701 5.062.231.122-.392-.513-1.384-1.411a219.37 219.37 0 0 1-3.673-3.424c-1.028-.984-1.869-1.694-1.869-1.576m7.475 6.904c0 .059.522.582 1.159 1.162s1.16.96 1.16.844-.522-.639-1.16-1.162-1.159-.902-1.159-.844m.386 3.449a57.26 57.26 0 0 0 2.676 2.41l1.675 1.416c1.468 1.318 4.149 3.554 6.603 5.507 1.63 1.297 3.283 2.667 3.673 3.043s.773.619.852.54-1.168-1.209-2.771-2.511l-8.326-6.879c-1.573-1.448-5.464-4.579-4.382-3.526m2.609-.745l3.608 3.028c3.525 2.973 6.264 5.165 5.104 4.084-.436-.406-1.306-1.164-1.933-1.684l-4.025-3.415c-1.587-1.358-2.979-2.467-3.093-2.464s.038.207.339.451m48.412 6.307c-.074.193-.102 1.91-.062 3.817l.072 3.466 2.9.073 2.899.073v-.906c0-.99-.195-1.1-2.191-1.233l-1.031-.069-.128-2.706-.129-2.706-1.098-.079c-.746-.054-1.141.032-1.232.27m7.407-.011c-.325.326-.454 6.231-.153 7.015.264.687 2.065.55 2.259-.172.203-.758.208-6.217.006-6.744-.187-.488-1.654-.556-2.112-.099m5.299.223c-3.886 2.051-1.911 7.156 2.781 7.188 2.894.019 3.237-.245 3.151-2.436l-.071-1.805-1.006-.082c-1.965-.161-2.903.609-1.829 1.5.752.624.472 1.112-.543.947-1.23-.199-1.66-.806-1.582-2.234.089-1.632 1.69-2.34 3.853-1.703.915.269 1.378-.977.58-1.56-.757-.554-4.158-.436-5.334.185m7.708-.36c-.095.094-.171 1.283-.17 2.642.002 3.677 1.024 4.913 4.063 4.916 3.24.004 4.284-1.362 4.134-5.41l-.08-2.191h-1.031-1.031l-.129 2.374c-.142 2.617-.456 3.143-1.887 3.159-1.198.013-1.464-.493-1.464-2.787 0-2.674-.089-2.875-1.273-2.875-.528 0-1.038.077-1.132.172m9.782.227c-.267.694-.179 6.301.107 6.834.305.57 5.205.77 5.541.227.542-.878-.127-1.532-1.568-1.532-1.031 0-1.462-.107-1.571-.39-.249-.651.414-1.2 1.232-1.02 1.072.235 1.769-.068 1.769-.771 0-.715-.426-.912-1.972-.912-1.908 0-1.545-1.088.395-1.184 1.519-.076 1.931-.316 1.791-1.044-.13-.681-5.468-.875-5.724-.208m10.548.078c-.176.555.054 6.687.263 7.026.245.397 4.647.267 5.712-.168 2.831-1.157 2.876-5.368.074-6.858-1.32-.701-5.826-.701-6.049 0m9.362.868c-.054.749-.04 2.463.032 3.81l.13 2.448 2.75.073c2.593.069 2.761.042 2.921-.463.279-.88-.302-1.285-1.845-1.285-1.056 0-1.433-.103-1.556-.424-.242-.628.632-1.157 1.608-.974 1.478.277 2.173-1.235.733-1.596-.338-.085-.76-.099-.938-.032-.495.188-1.539-.284-1.42-.641.058-.175.851-.436 1.762-.581 1.523-.242 1.655-.314 1.655-.907 0-.644 0-.644-2.867-.717l-2.867-.072-.098 1.361m10.858 2.512v3.875h1.022c1.204 0 1.555-.461 1.555-2.045 0-.812.102-1.056.451-1.084l1.916-.177c1.63-.166.611-1.581-1.143-1.587-1.041-.003-1.224-.079-1.224-.508 0-.497 1.611-1.064 1.979-.696.328.328 1.143-.395 1.065-.944-.076-.533-.225-.566-2.851-.635l-2.77-.073v3.874m8.634-3.377c-3.677 2.271-1.959 7.268 2.49 7.243 4.514-.025 6.035-5.406 2.101-7.433-.921-.475-3.701-.36-4.591.19m9.794-.052c-1.691.863-2.469 3.459-1.562 5.213 2.168 4.192 9.506 1.858 8.368-2.662-.655-2.601-4.146-3.909-6.806-2.551m7.299.016c-.236.986.046 1.33 1.158 1.411l1.079.078.129 2.63c.142 2.912.31 3.245 1.578 3.123l.87-.083.074-2.563c.087-2.968.234-3.236 1.778-3.236 1.136 0 1.144-.006 1.064-.837l-.081-.838-3.77-.071c-3.432-.065-3.779-.03-3.879.386m9.051-.251c-.594 7.175-.455 7.539 2.88 7.539 3.592 0 5.273-1.676 3.536-3.525-.478-.509-.515-.687-.257-1.253.947-2.078-.142-2.954-3.67-2.954-1.361 0-2.481.087-2.489.193m10.657.129c-.135.177-.401.728-.592 1.224s-.789 1.83-1.332 2.963c-1.297 2.712-1.299 3.223-.01 3.223.802 0 1.053-.132 1.415-.745.759-1.284 3.276-1.281 3.94.004.324.625.542.741 1.393.741 1.414 0 1.468-.291.44-2.398-.498-1.02-1.255-2.637-1.683-3.594l-.778-1.74h-1.273c-.716 0-1.381.141-1.52.322m7.255.013c-.071.185-.096 1.895-.056 3.802l.072 3.466 2.751.073c2.555.068 2.762.037 2.913-.441.33-1.039-.272-1.565-1.791-1.565h-1.393l-.175-1.168c-.097-.643-.109-1.5-.028-1.906.342-1.71-.053-2.596-1.159-2.596-.587 0-1.059.139-1.134.335m7.217 0c-.071.185-.097 1.895-.057 3.802l.072 3.466h2.836 2.835l.085-.745c.108-.948-.269-1.179-1.934-1.184-1.548-.005-1.571-.051-1.613-3.32-.014-1.045-.088-2.001-.165-2.127-.22-.355-1.916-.267-2.059.108m10.567 0c-.071.185-.097 1.895-.057 3.802l.072 3.466 2.189.076c3.931.136 5.412-.931 5.414-3.902.001-1.837-.567-2.762-2.063-3.361-1.319-.528-5.361-.586-5.555-.081m9.321.494c-.167 1.105-.16 5.285.01 6.194l.133.709h2.525c3.67 0 4.627-1.509 1.145-1.804-2.34-.198-2.406-1.178-.097-1.439 1.003-.113 1.636-.314 1.725-.547.286-.746-.342-.979-2.955-1.093-.177-.008-.322-.241-.322-.518 0-.507.476-.672 2.448-.845.635-.056.773-.184.773-.713 0-.64-.016-.645-2.628-.717l-2.629-.074-.128.847m10.802-.578c-.143.231-.222 3.323-.159 6.272l.026 1.239 1.095-.08 1.095-.079.079-1.546c.101-1.979.32-2.168 1.299-1.121l.796.852.858-.832c1.14-1.105 1.221-1.067 1.221.564 0 1.981.137 2.212 1.316 2.212.61 0 1.019-.126 1.044-.322.179-1.444.1-6.83-.105-7.088-.596-.749-1.796-.367-3.025.963-1.162 1.258-2.323 1.375-2.323.234 0-.926-2.756-2.014-3.217-1.268m13.088.071c-.243.321-1.519 2.982-2.644 5.515-.881 1.985.865 2.982 1.964 1.122.427-.724.556-.773 2.021-.773s1.593.049 2.02.773c.369.623.631.773 1.353.773 1.262 0 1.336-.502.375-2.522-.966-2.029-1.14-2.42-1.685-3.783-.56-1.404-2.662-2.085-3.404-1.105m6.995.013c-.071.185-.096 1.895-.057 3.802l.073 3.466.87.083c1.092.105 1.376-.178 1.56-1.556.221-1.65.842-1.593 1.835.168.766 1.357.864 1.434 1.816 1.434 1.311 0 1.318-1.339.014-2.899-.332-.398-.326-.507.05-.923.755-.834.573-2.74-.322-3.377-.912-.65-5.605-.809-5.839-.198m7.533-.163c-.747.747-.144 1.607 1.181 1.683l1.353.078.065 2.32c.093 3.377.133 3.479 1.353 3.479s1.259-.102 1.353-3.479l.064-2.32 1.197-.077c1.243-.081 1.845-.902 1.162-1.585-.298-.297-7.438-.389-7.728-.099m9.163.045c-.248.157-.312 1.1-.258 3.798l.072 3.588h1.16 1.16l.075-3.222c.1-4.362-.402-5.31-2.209-4.164m3.775.234c-.416 5.438-.051 7.37 1.365 7.235l.86-.083.129-1.784c.136-1.89.523-2.403 1.045-1.389.718 1.394 3.155 3.317 4.11 3.243l.902-.07v-3.737-3.737l-1.005-.082c-1.233-.101-1.435.172-1.44 1.95-.005 1.918-.357 1.753-3.3-1.546-.266-.298-.78-.451-1.517-.451-.877 0-1.122.096-1.149.451m10.199-.116c-.071.185-.096 1.895-.057 3.802l.073 3.466 1.062.078c1.314.096 1.378-.078 1.383-3.734.004-3.372-.202-3.947-1.416-3.947-.514 0-.973.147-1.045.335m5.237.349c-.531.404-1.033 1.024-1.116 1.378s-.277.905-.432 1.224a1.17 1.17 0 0 0 .004 1.16c.157.319.367.87.467 1.224.187.66.536.985 2.149 1.997 2.517 1.58 4.678 2.185 5.53 1.547.677-.507.348-1.482-.5-1.482-.805 0-.792-.083.194-1.31 1.348-1.678 1.358-3.613.026-5.114l-1.009-1.138-2.175-.109c-2.072-.105-2.219-.076-3.138.623m8.494-.524c-.521.521-.185 4.746.459 5.766 1.423 2.254 4.824 2.593 6.745.671l1.135-1.135-.073-2.667-.074-2.666-1.005-.082c-1.303-.107-1.435.138-1.44 2.684-.004 2.347-.347 2.939-1.701 2.939-1.112 0-1.502-.791-1.653-3.35l-.129-2.191-1.04-.077c-.572-.042-1.123.007-1.224.108m9.984.166c-.073.19-.1 1.904-.06 3.811l.072 3.466 2.684.074c2.889.08 3.272-.058 3.014-1.086-.156-.62-.267-.663-1.708-.663-1.472 0-1.541-.029-1.541-.644 0-.588.097-.645 1.11-.645 1.479 0 2.156-.482 1.748-1.244-.245-.459-.529-.56-1.579-.56-1.114 0-2.118-.967-1.086-1.046 2.838-.217 3.215-.347 3.111-1.079-.101-.711-5.502-1.071-5.765-.384m-126.534 1.868c0 .649-.101.77-.645.77-.733 0-1.079-1.062-.473-1.453.639-.412 1.118-.12 1.118.683m-53.904-.016c1.499 1.39.61 3.861-1.33 3.7l-.952-.079-.076-1.873c-.07-1.746-.036-1.888.516-2.11.901-.361 1.104-.321 1.842.362m90.001-.374c.426 0 1.145 1.295 1.145 2.062 0 1.701-2.65 3.073-3.194 1.654-.703-1.831.134-4.207 1.346-3.824.189.059.505.108.703.108m-174.08.43c.351.426 4.636 3.659 5.38 4.058.786.423-1.22-1.194-3.044-2.451-1.036-.715-1.947-1.465-2.025-1.668s-.259-.369-.403-.369-.102.194.092.43m111.149-.183c2.053.78 1.436 3.589-.793 3.611-1.627.016-2.269-2.304-.917-3.313.826-.616.859-.622 1.71-.298m10.472.44c.945.796.931 1.927-.034 2.728-1.634 1.357-4.324-.852-2.87-2.357 1.158-1.197 1.821-1.282 2.904-.371m92.521-.073c0 .601-.832 1.086-1.333.776-.61-.377-.202-1.39.56-1.39.643 0 .773.104.773.614m35.549-.237c1.766.913 1.2 3.489-.766 3.489-1.804 0-2.571-1.839-1.297-3.112.861-.861 1.057-.897 2.063-.377m-102.826 1.153c.457.852.323 1.305-.385 1.305-.776 0-1.044-.527-.647-1.268.358-.669.688-.681 1.032-.037m58.263.162c.382 1.003.318 1.143-.522 1.143-.677 0-.773-.09-.773-.73 0-1.25.872-1.527 1.295-.413m-66.537 1.487c.382.459-.141 1.137-.964 1.248-.701.095-1.227-.532-.982-1.17.197-.515 1.539-.569 1.946-.078m-132.696 1.988c1.148.779 1.449.871.927.283-.27-.304-.676-.551-.902-.549-.361.003-.364.036-.025.266m-2.577.847c0 .082.841.821 1.868 1.643s2.042 1.658 2.255 1.86 1.244 1.014 2.293 1.804l6.999 5.286c3.932 2.977 7.106 5.28 12.487 9.061l4.381 3.09c2.627 1.91 7.679 5.273 7.775 5.177.066-.066-.702-.683-1.707-1.371l-12.992-9.029-3.866-2.769c-2.717-1.925-7.002-5.165-7.079-5.352-.047-.114-.192-.208-.32-.208s-.496-.221-.817-.492-2.437-1.909-4.705-3.642l-4.897-3.838c-1.08-.962-1.675-1.395-1.675-1.22m4.123.098c0 .144.493.589 1.096.987s1.791 1.261 2.642 1.917c1.714 1.323 2.19 1.641 2.19 1.46 0-.142-3.692-3.001-4.405-3.411-.268-.154-.721-.491-1.005-.749s-.518-.349-.518-.204m6.403 4.78c.467.58 5.711 4.201 5.711 3.943 0-.07-.609-.532-1.353-1.024a98.78 98.78 0 0 1-3.029-2.123c-.921-.675-1.519-1.033-1.329-.796m217.05 1.157c0 .248.252.973.56 1.611l.818 1.739c.141.319.316.52.389.447s-.005-.27-.172-.438-.301-.601-.296-.962l.009-.657.644.773c.354.425 1.014 1.44 1.468 2.255s.905 1.482 1.003 1.482c.229 0-1.061-2.134-2.843-4.703-1.489-2.147-1.579-2.235-1.58-1.547m-210.433 3.683l4.44 3.075c3.806 2.644 7.9 5.394 8.571 5.758.819.444-1.135-1.073-2.456-1.908-.766-.483-2.932-1.955-4.816-3.272-4.191-2.929-6.081-4.179-6.324-4.179-.102 0 .161.237.585.526m212.797 1.995c.047.111.421 1.099.831 2.197s.793 1.948.852 1.889c.132-.131-1.456-4.287-1.638-4.287-.072 0-.093.09-.045.201m2.276 1.053c0 .122.215.499.477.837s1.026 1.572 1.698 2.741c1.206 2.1 1.849 2.914 1.019 1.289-1.198-2.343-3.194-5.386-3.194-4.867m-.507 3.643c0 .212.112.56.25.773.222.344.249.344.249 0 0-.213-.112-.561-.249-.773-.223-.344-.25-.344-.25 0m.507 1.615c0 .227.126.74.279 1.139s.551 1.711.883 2.916.613 2.004.623 1.776c.019-.416-1.496-5.935-1.684-6.136-.055-.059-.101.078-.101.305m-201.288.903c0 .242 6.988 4.496 7.139 4.346.059-.059-.566-.49-1.39-.958s-1.535-.944-1.583-1.059-.191-.208-.319-.208-1.047-.521-2.041-1.158-1.806-1.07-1.806-.963m205.683 1.374c.436.865.844 1.522.905 1.461.121-.121-1.401-3.034-1.586-3.034-.062 0 .244.708.681 1.573m1.24 2.229c.133.248.606 1.248 1.052 2.222s.864 1.718.929 1.653c.14-.14-1.872-4.326-2.08-4.326-.078 0-.033.203.099.451m-199.449.922c0 .056.725.566 1.611 1.134 4.066 2.606 5.608 3.493 5.599 3.223-.003-.104-.838-.653-1.855-1.22s-2.378-1.389-3.023-1.826c-1.316-.894-2.332-1.465-2.332-1.311m195.618 1.206c0 .189.197 1.34.438 2.555.467 2.358.646 11.739.284 14.84-.171 1.458-.164 1.487.12.516.509-1.739.396-12.634-.16-15.59-.43-2.279-.682-3.138-.682-2.321m5.981 2.253a157.34 157.34 0 0 1 .831 1.811c.405.89.78 1.573.834 1.519.136-.136-1.401-3.523-1.6-3.523-.088 0-.118.087-.065.193m-201.599 1.226c0 .072.841.67 1.868 1.329l4.833 3.133c3.376 2.206 8.982 5.732 11.082 6.971l2.835 1.714c.78.483 1.528.882 1.663.888.382.016-.117-.371-1.405-1.087-2.102-1.168-5.282-3.152-5.369-3.349-.048-.106-.197-.193-.333-.193s-.561-.217-.945-.483-2.322-1.503-4.307-2.75l-6.629-4.285c-2.925-1.955-3.293-2.166-3.293-1.888m7.474-.011c0 .129 3.311 2.114 5.799 3.476l3.737 2.069 7.088 3.833c.825.289-2.05-1.455-4.423-2.683-1.536-.794-2.933-1.561-3.105-1.704s-1.181-.712-2.24-1.263a92.29 92.29 0 0 1-4.271-2.425c-2.309-1.4-2.585-1.539-2.585-1.303m195.876 2.87c0 .142.101.368.224.503.203.222 2.092 5.042 2.897 7.39.181.528.371.918.423.866.135-.135-.727-2.669-1.98-5.82-1-2.515-1.564-3.574-1.564-2.939m-177.835 7.222c.638.369 4.581 2.349 8.763 4.401l8.051 3.967c.653.344.819.288.454-.151-.176-.213-.49-.387-.697-.387-.403 0-13.803-6.569-15.873-7.782-.68-.398-1.376-.722-1.547-.72s.211.304.849.672m181.444 1.984c0 .377.836 2.776.934 2.678.132-.132-.663-2.76-.835-2.76-.055 0-.099.037-.099.082m-184.012 2.348c.659.642 7.2 4.365 7.37 4.195.053-.053-1.499-1.004-3.448-2.113s-3.583-2.114-3.63-2.233-.217-.217-.378-.217c-.176 0-.143.145.086.368m172.8 1.952c-.098.445-.124.863-.058.929s.193-.251.284-.704c.215-1.074.006-1.282-.226-.225m12.388 0c.44 1.874.574 2.226.59 1.546.008-.354-.156-.992-.363-1.418-.322-.657-.356-.676-.227-.128m-12.744 1.589c-.017.237-.097.643-.179.902-.14.448-.133.449.147.013.162-.252.242-.658.178-.902-.105-.399-.12-.4-.146-.013m-164.721.841c0 .101 4.874 2.9 8.118 4.663l2.707 1.474c5.151 2.813 15.27 7.95 15.4 7.819.06-.059-1.091-.71-2.556-1.446-6.977-3.504-20.005-10.477-22.404-11.992-.983-.62-1.265-.736-1.265-.518m13.015.147c.088.142.278.258.423.258s1.072.406 2.061.902 1.936.9 2.105.897-.765-.525-2.078-1.16c-2.523-1.222-2.764-1.308-2.511-.897m165.194.515c.547 3.042.869 4.422.89 3.819.028-.775-.682-4.355-.907-4.577-.08-.079-.072.262.017.758m-14.515 1.323c-.305.735-.498 1.392-.429 1.461s.203-.094.298-.363.331-.882.525-1.365.309-.92.256-.972-.345.505-.65 1.239m-145.653.362c0 .076.522.366 1.16.644l2.32 1.013c.637.278 1.159.447 1.159.376s-.783-.474-1.739-.893-1.941-.878-2.188-1.02c-.501-.289-.712-.325-.712-.12m6.443 2.85c1.944.925 2.579 1.155 2.573.936-.004-.193-2.561-1.294-3.475-1.496-.283-.063.123.189.902.56m137.401.82c-.822 1.612-2.929 4.329-5.377 6.935-1.193 1.27-1.038 1.41.218.198 1.944-1.874 6.391-8.106 5.784-8.106-.07 0-.352.438-.625.973m17.367 5.212c0 3.332.079 5.535.175 4.897.22-1.464.215-7.659-.007-9.536-.092-.779-.168 1.308-.168 4.639m-151.932-4.802c0 .052.898.414 1.997.804s2.617.995 3.374 1.343 1.441.568 1.518.491-.193-.267-.6-.422a36.95 36.95 0 0 1-1.518-.627c-2.094-.93-4.771-1.821-4.771-1.589m7.989 3.16c.496.219 1.656.667 2.578.994l4.252 1.533c3.665 1.335 5.494 1.953 5.726 1.934.305-.025-.768-.453-4.18-1.668l-7.942-2.92c-1.093-.441-1.47-.331-.434.127m13.789 4.847c1.406.681 10.716 3.562 10.904 3.374.068-.068-.038-.172-.236-.231l-2.292-.669c-1.063-.31-3.325-1.025-5.026-1.59-3.547-1.179-4.45-1.418-3.35-.884m104.346 1.129c-1.012.806-2.388 1.79-3.059 2.186s-1.164.777-1.096.846c.17.169 3.662-2.22 5.092-3.484 1.673-1.477 1.199-1.249-.937.452m-124.23-.052c.971.499 1.816.857 1.876.797.116-.117-3.152-1.737-3.46-1.715-.1.007.613.42 1.584.918m2.229.96c0 .178 4.408 2.293 4.528 2.172.069-.069-.874-.606-2.097-1.192-2.199-1.056-2.431-1.149-2.431-.98m146.883 3.848c-.368 1.451-.752 2.869-.854 3.153s-.003.202.22-.182c.426-.733 1.517-4.977 1.382-5.375-.044-.128-.38.954-.748 2.404m-117.115-1.995c.567.205 1.147.364 1.289.355.457-.03-1.271-.725-1.804-.726-.284 0-.052.167.515.371m-24.608.592c.002.096.901.573 1.997 1.061l4.789 2.143c1.539.691 2.863 1.191 2.943 1.111s.084-.146.009-.146-2.298-.977-4.94-2.171-4.801-2.093-4.798-1.998m26.799-.093c0 .125 1.396.523 2.706.772.425.081.135-.083-.644-.365-1.404-.507-2.062-.637-2.062-.407m82.474 1.32c-1.488.757-2.599 1.381-2.467 1.386.318.013 5.56-2.527 5.56-2.695 0-.235-.351-.086-3.093 1.309m-77.191.103c2.528.715 3.659.878 1.805.261-.851-.283-2.011-.573-2.578-.643-.681-.084-.419.045.773.382m3.995 1.035c.994.318 1.524.318 1.031 0-.212-.137-.676-.24-1.031-.228l-.644.022.644.206m1.564.346c.198.218 5.052 1.208 5.746 1.171.303-.016-.493-.247-1.768-.513-3.478-.726-4.138-.835-3.978-.658m67.251.407c-1.684.62-2.038.817-1.16.646.781-.152 3.054-1.109 2.577-1.085-.141.007-.779.205-1.417.439m-60.567 1.051c.212.137.618.244.902.236l.515-.014-.515-.222c-.771-.331-1.415-.331-.902 0m-32.963.967c1.582.776 1.978.946 4.959 2.132 1.112.442 2.068.758 2.123.702s-.854-.483-2.022-.949-2.819-1.166-3.669-1.555c-2.084-.953-3.206-1.219-1.391-.33m35.927-.456c1.119.367 9.31 1.609 9.851 1.494.252-.054-.528-.235-1.733-.403l-4.51-.684c-3.889-.636-4.526-.708-3.608-.407m52.512.013c-.319.128-1.815.492-3.324.809s-2.626.614-2.485.661c.312.104 5.869-1.081 6.776-1.445.537-.216.559-.259.129-.259a3.54 3.54 0 0 0-1.096.234m39.633 3.146c-2.04 3.933-4.233 6.576-7.805 9.409-.817.647-1.43 1.232-1.362 1.3.207.207 4.383-3.437 5.608-4.893 1.805-2.146 5.082-7.527 4.772-7.837-.06-.06-.606.849-1.213 2.021m-80.547-1.338c.708.11 1.694.197 2.19.193l.902-.007-1.031-.213c-.567-.117-1.552-.205-2.19-.194l-1.16.02 1.289.201m31.958-.002c-.487.13-.153.154.902.064.922-.079 1.724-.185 1.783-.237.196-.173-1.897-.038-2.685.173m-27.19.52c3.36.462 19.428.562 23.067.143l3.35-.385-2.706.178c-3.457.227-17.951.231-22.165.006-2.337-.126-2.762-.11-1.546.058m-44.588 1.248c.213.155 1.025.522 1.804.817s1.766.69 2.191.878c1.098.485 2.515.927 2.624.818.075-.075-5.166-2.186-6.619-2.666-.344-.113-.344-.096 0 .153m7.013 2.744c.177.176 3.505 1.419 4.198 1.567s-.332-.309-2.447-1.09c-1.75-.646-1.983-.709-1.751-.477m4.843 1.761c0 .175 3.106 1.263 3.236 1.133.07-.069-.555-.375-1.388-.679-1.521-.554-1.848-.635-1.848-.454m3.866 1.413c.541.337 7.749 2.682 7.87 2.56.095-.094-7.052-2.571-7.87-2.727-.344-.066-.344-.047 0 .167m8.634 2.872c1.097.478 4.835 1.566 5.089 1.481.147-.049-.942-.461-2.42-.915-2.575-.79-3.764-1.042-2.669-.566m6.056 1.803c.213.137.561.25.774.25.343 0 .343-.028 0-.25-.213-.138-.561-.25-.774-.25-.343 0-.343.028 0 .25m79.783.094l-1.804 1.089c-.717.439-2.513 1.309-3.991 1.933-1.619.684-2.494 1.174-2.201 1.23.268.052.531-.035.583-.193s.244-.287.425-.287c.62 0 6.699-3.022 7.596-3.776.3-.252-.174-.249-.608.004m-78.472.265c.221.209 5.983 1.72 6.237 1.635.146-.048-1.13-.459-2.835-.912-3.022-.804-3.623-.931-3.402-.723m6.705 1.814c.061.062 1.617.471 3.458.909l4.422 1.076c.591.154 1.229.225 1.417.16s-.354-.263-1.204-.438-2.927-.656-4.613-1.068c-3.002-.735-3.705-.864-3.48-.639m10.94 2.434c.796.353 4.702 1.111 5.212 1.011.411-.08-3.179-.906-4.967-1.142-.636-.084-.679-.061-.245.131m51.078-.071c-.085.086-1.351.483-2.813.884s-2.45.737-2.194.747c.553.022 5.026-1.212 5.588-1.541.344-.202.342-.23-.018-.237-.224-.004-.477.062-.563.147m-44.518 1.392c.354.113 1.05.204 1.546.202l.902-.004-1.031-.213c-1.376-.285-2.322-.275-1.417.015m2.577.329c.246.268 8.914 1.203 13.918 1.5 7.3.433 15.059.025 20.232-1.065 2.433-.513 1.584-.455-2.32.157-6.646 1.042-17.832 1.029-25.902-.031-4.122-.542-6.079-.727-5.928-.561"/><path d="M40.335 1.179C17.362 3.333 5.558 11.585 2.204 27.835c-.473 2.29-.559 11.645-.129 14.068.614 3.464 1.095 5.755 1.592 7.582 4.38 16.106 14.437 33.941 30.593 54.252l2.592 3.222c.073.071.712.825 1.419 1.675 1.616 1.942 2.962 3.448 3.546 3.966.248.221.451.491.451.602s.203.409.451.665 1.263 1.38 2.255 2.499c9.72 10.963 25.584 26.443 36.856 35.967l3.093 2.652c.699.643 4.72 3.952 8.634 7.105l4.252 3.454c.567.473 2.887 2.283 5.155 4.022l4.705 3.653c.321.271.688.492.817.492s.273.094.32.208c.077.186 4.311 3.388 7.077 5.352l3.737 2.686 4.926 3.479 5.999 4.126 4.183 2.835c.238.142 1.772 1.137 3.407 2.211l6.581 4.221 4.307 2.75c.384.266.809.483.945.483s.285.089.333.198c.103.238 6.207 3.953 7.173 4.367.213.091.445.241.516.334.148.194 7.427 4.379 7.616 4.379.069 0 .574.283 1.123.629 1.449.915 11.06 6.147 16.003 8.711 7.708 3.999 11.148 5.694 18.686 9.207 3.588 1.672 11.401 5.165 11.555 5.165.082 0 .878.34 1.771.755 2.575 1.199 14.977 6.071 18.117 7.116l5.154 1.788c3.674 1.286 11.332 3.725 13.403 4.268l4.51 1.227c6.024 1.65 11.778 3.018 14.304 3.401.85.129 2.358.415 3.35.636 2.095.466 4.412.855 6.959 1.169l4.897.617c12.071 1.542 25.081.947 33.809-1.549l3.047-.856c1.345-.359 5.876-2.388 7.216-3.231.709-.446 1.468-.878 1.688-.96.51-.192 3.964-2.951 5.142-4.109 7.62-7.489 10.279-19.45 7.326-32.953l-.862-3.995c-.378-1.818-2.889-8.966-4.247-12.088l-1.017-2.361c-1.112-2.594-4.87-9.854-6.633-12.815l-2.041-3.48c-.213-.384-.455-.757-.538-.828s-.484-.709-.891-1.417c-.965-1.682-2.502-3.758-2.663-3.597-.069.069.011.263.179.431s.305.548.305.846.096.651.213.786c.993 1.139 4.17 10.675 5.179 15.543 7.668 37.004-23.692 55.619-77.944 46.266-9.664-1.667-10.254-1.795-20.747-4.51l-3.866-.987c-.496-.121-1.714-.473-2.706-.781l-3.866-1.157c-2.208-.638-5.281-1.64-6.959-2.269-.567-.212-1.785-.625-2.706-.918a137.38 137.38 0 0 1-4.253-1.47l-3.995-1.448c-1.963-.704-5.861-2.24-6.391-2.517-.241-.126-1.019-.43-1.727-.674-2.07-.715-10.43-4.264-13.918-5.908-1.451-.684-3.606-1.634-4.381-1.932-.936-.36-18.522-9.113-20.232-10.07l-4.511-2.49-4.381-2.401c-.851-.466-2.59-1.481-3.866-2.254l-3.174-1.899c-1.103-.635-1.523-.898-4.233-2.641-1.239-.797-2.303-1.449-2.365-1.449-.262 0-6.989-4.194-7.066-4.406-.048-.128-.204-.234-.348-.234-.284 0-5.525-3.491-11.036-7.351l-4.768-3.327a131.32 131.32 0 0 1-2.706-1.935l-2.062-1.497c-1.291-.905-5.041-3.703-5.635-4.203-.335-.283-.819-.627-1.075-.764s-.667-.453-.912-.702-1.46-1.206-2.7-2.128c-2.246-1.67-7.372-5.833-11.104-9.017l-2.449-2.074c-.388-.319-3.735-3.287-5.804-5.146-8.221-7.388-20.948-20.468-26.081-26.804-.862-1.063-1.638-1.991-1.726-2.062-.284-.23-5.525-6.796-6.377-7.99l-2.235-3.092c-3.023-4.153-8.644-12.834-8.644-13.351 0-.077-.165-.323-.366-.547-.381-.424-5.162-9.795-5.797-11.364-.2-.494-.624-1.478-.943-2.187-4.978-11.059-6.673-24.909-4.23-34.539.515-2.027 2.127-6.172 2.646-6.802.187-.226.565-.852.842-1.39 1.326-2.581 5.245-6.87 8.608-9.421 1.836-1.392 5.861-3.905 6.257-3.905.104 0 1.032-.394 2.062-.875 3.766-1.76 9.531-3.4 15.426-4.389 5.865-.984 19.195-1.499 24.464-.944l4.253.391c3.784.261 8.009.838 14.69 2.009l5.671.987c1.329.227 4.761.972 7.474 1.624l4.252 1.024c1.489.358 3.633.95 4.765 1.314s2.258.664 2.501.664.708.104 1.034.231 1.984.662 3.685 1.189c3.994 1.236 11.094 3.58 13.402 4.424l3.866 1.455c.567.222 1.321.48 1.675.575s.992.32 1.418.5l3.479 1.422c.496.186 1.012.435 1.147.554s.455.217.712.217.669.106.915.237c.738.391 8.654 3.656 9.211 3.798.439.113.42.054-.129-.399-.355-.293-.792-.535-.972-.538s-.76-.277-1.289-.608c-.951-.596-13.421-6.796-15.909-7.91l-6.186-2.816-3.479-1.559-3.093-1.348-3.995-1.691c-7.138-2.98-15.523-6.128-22.68-8.514-7.115-2.371-11.046-3.57-17.14-5.228-3.564-.97-9.99-2.527-11.597-2.81l-6.83-1.226c-3.119-.562-6.888-1.158-8.377-1.325l-4.51-.575c-1.752-.263-16.227-.525-18.299-.33m331.057 46.235c-21.568 4.629-26.214 32.194-7.291 43.258 6.572 3.842 16.144 3.807 22.845-.085l2.232-1.27c2.839-1.488 7.444-8.035 8.711-12.384 4.848-16.647-9.903-33.081-26.497-29.519m2.528 2.715c.842 2.57.808 2.679-1.418 4.468l-2.443 1.97c-1.189.972-1.295.997-7.403 1.755l-2.678.332-.478-.783c-.692-1.135-.628-1.327.944-2.862 4.714-4.602 12.628-7.468 13.476-4.88m2.117 3.791c.351.049.754.156.896.238s1.591.475 3.222.872 3.002.82 3.049.939.338.218.645.221c.946.006 1.097.291 1.698 3.217 1.099 5.346 1.288 4.755-2.428 7.576-.567.43-1.263.992-1.547 1.247-1.806 1.629-2.747 1.867-4.548 1.147-.375-.149-.759-.196-.852-.103s-.25.057-.348-.08c-.306-.427-1.153-.802-2.583-1.143-.978-.234-1.435-.486-1.59-.878-.405-1.024-.595-1.579-.671-1.967-.39-1.969-1.52-6.075-1.691-6.142-.66-.262.059-1.165 2.397-3.008 1.437-1.134 2.742-2.194 2.899-2.357s.403-.202.55-.081.552.254.902.302m15.252 1.743c2.093 2.294 3.636 4.874 4.601 7.698l.763 2.232-1.613 1.478c-1.911 1.751-2.016 1.767-3.399.519l-2.905-2.595c-1.798-1.596-1.837-1.658-2.011-3.157-.098-.841-.282-1.594-.41-1.673s-.233-.485-.233-.902-.088-.758-.197-.758c-.958 0-.136-2.019 1.333-3.278 2.008-1.72 2.114-1.709 4.071.436m-32.016 3.499c.003.291-.107.641-.245.779s-.294.48-.348.76-.169.684-.257.897c-.132.321-.63 2.107-1.402 5.026-.075.283-.223.631-.327.773s-.272.634-.37 1.093c-.166.778-1.713 2.386-2.295 2.386-1.266 0 1.317-9.149 3.466-12.272l.826-1.2.473.615c.26.338.475.853.479 1.143m37.774 9.283c.517 4.82-1.033 10.476-4.004 14.614-1.286 1.791-1.377 1.756-1.934-.745-.4-1.802-.403-2.088-.036-3.416a45.06 45.06 0 0 0 .532-2.094c.143-.705.559-2.267.926-3.479.129-.426.417-1.469.641-2.32.345-1.314.624-1.75 1.855-2.899 1.815-1.696 1.802-1.698 2.02.339m-24.665.019c.377.09.801.246.943.346.247.174 3.193 1.045 3.995 1.181 1.363.23 1.541.425 2.067 2.268l.956 3.256c.52 1.711.556 1.878.723 3.351l.132 1.16-2.734 2.448-3.341 3.048c-.579.571-.647.581-1.46.204-.906-.42-3.219-1.223-3.746-1.301a1.02 1.02 0 0 1-.494-.225c-.098-.099-.335-.179-.525-.179-.304 0-2.094-.716-3.159-1.263-.203-.104-.493-.414-.644-.688s-.333-.556-.404-.627-.168-.361-.215-.644-.192-.626-.322-.76-.238-.483-.241-.774-.392-1.307-.865-2.259l-.862-1.732 2.434-2.005 3.507-2.84c.591-.458 1.331-1.067 1.645-1.353s.691-.519.837-.519.267-.129.267-.286.185-.214.411-.127.719.231 1.095.32m-13.066 4.41c1.979 2.005 2.777 2.997 2.885 3.589.172.943 1.207 3.264 1.511 3.391.113.047.206.361.206.697a3.82 3.82 0 0 0 .316 1.304c.304.669.247.757-1.611 2.464l-1.927 1.77-1.115-1.21c-2.793-3.03-4.561-6.649-5.313-10.877-.373-2.093-.408-2.002 1.284-3.319.982-.764.666-.948 3.764 2.191m30.91 8.822c.188.848.424 1.41.523 1.249s.168-.013.152.327a5.14 5.14 0 0 0 .152 1.304c.532 2.006-7.456 6.65-12.22 7.104l-1.45.138-.456-1.386c-.251-.762-.742-2.015-1.091-2.785l-.636-1.399 2.155-2.029c4.18-3.933 3.898-3.776 6.955-3.872l4.124-.138 1.45-.054.342 1.541"/></g><path d="M370.213 49.47c-3.654.97-7.077 2.911-9.769 5.539-1.572 1.535-1.636 1.727-.944 2.862l.478.783 2.678-.332c6.108-.758 6.214-.783 7.403-1.755l2.441-1.969 2.011-1.616-.173-1.04c-.516-3.105-.892-3.331-4.125-2.472m4.372 4.229c-.157.163-1.462 1.223-2.899 2.357-2.331 1.838-3.053 2.741-2.405 3.008.114.047.649 1.825 1.189 3.951 1.203 4.744 1.146 4.636 2.653 5.005.678.166 1.606.474 2.062.685 3.066 1.418 4.378 1.322 6.387-.469.284-.253 1.482-1.233 2.664-2.178l2.149-1.717-.128-1.05c-.261-2.147-1.302-6.725-1.571-6.908-.153-.104-.53-.191-.837-.193s-.597-.102-.645-.221-1.419-.541-3.049-.939-3.08-.789-3.222-.872-.545-.189-.896-.238-.756-.184-.902-.302-.39-.085-.55.081m13.43.856l-1.604 1.396-.832.724.27 1.495c.149.822.367 1.679.486 1.904s.297 1.06.396 1.855l.181 1.445 2.917 2.591c3.423 3.041 3.16 2.985 5.211 1.106l1.613-1.478-.763-2.232c-.965-2.824-2.508-5.404-4.601-7.698-1.808-1.982-2.14-2.094-3.274-1.108m-30.52 4.049c-2.149 3.123-4.732 12.272-3.466 12.272.582 0 2.129-1.608 2.295-2.386.098-.459.265-.951.37-1.093s.252-.49.327-.773l1.402-5.026c.088-.213.203-.616.257-.897s.21-.622.348-.76c.39-.39.285-1.246-.234-1.922l-.473-.615-.826 1.2m37.532 9.502c-1.231 1.149-1.51 1.585-1.855 2.899l-.63 2.32c-.123.425-.59 2.198-1.037 3.94l-.814 3.167.428 1.924c.546 2.455.641 2.49 1.924.703 2.971-4.138 4.521-9.794 4.004-14.614-.218-2.037-.205-2.035-2.02-.339m-24.151.165c0 .157-.12.286-.267.286s-.523.236-.837.525-1.673 1.405-3.019 2.479c-5.027 4.012-4.658 3.56-3.965 4.857.227.425.742 1.671 1.143 2.768.945 2.584 1.317 3.326 1.791 3.565.987.5 2.385 1.033 4.639 1.77 1.346.44 2.829.979 3.295 1.197.847.397.847.397 2.062-.736l3.277-3.045c2.558-2.371 2.53-2.23 1.288-6.55l-.891-3.113-.521-1.824-2.644-.727c-1.455-.401-2.761-.811-2.902-.912s-.566-.257-.943-.347-.869-.234-1.095-.32-.411-.03-.411.127m-15.324 2.412c-1.692 1.317-1.657 1.226-1.284 3.319.752 4.228 2.52 7.847 5.313 10.877l1.115 1.21 1.9-1.745 1.899-1.746-.427-1.26a34.6 34.6 0 0 0-1.025-2.575c-.329-.723-.743-1.778-.92-2.345-.283-.902-5.155-6.315-5.684-6.315-.078 0-.477.261-.887.58m28.658 9.716l-2.775.142-2.849 2.573c-3.709 3.349-3.469 2.95-2.738 4.561a33 33 0 0 1 1.079 2.757l.456 1.386 1.45-.138c3.508-.334 8.182-2.521 10.993-5.145l1.452-1.355-.381-1.159c-.209-.638-.53-1.769-.713-2.513l-.333-1.353-1.433.051-4.208.193" fill="#fff"/></svg>