<?xml version="1.0" encoding="UTF-8" standalone="no"?><svg width="630.856" height="877.219" viewBox="0 0 473.142 657.914" xmlns="http://www.w3.org/2000/svg"><defs><clipPath id="a"><path d="M26 26h214v263H26Zm0 0"/></clipPath><clipPath id="b"><path d="M24.328 26.016v171.218s-.43 95.313 107.82 137.145c108.25-41.832 107.817-137.145 107.817-137.145V26.016Zm0 0"/></clipPath><clipPath id="c"><path d="M24 26h216v285H24Zm0 0"/></clipPath><clipPath id="d"><path d="M24.328 26.016v171.218s-.43 95.313 107.82 137.145c108.25-41.832 107.817-137.145 107.817-137.145V26.016Zm0 0"/></clipPath></defs><path style="fill:#ba9751;fill-opacity:1;fill-rule:nonzero;stroke:none" d="M132.715 351.918c118.601-48.04 121.484-149.145 121.484-149.145V10.922H10.094v191.851s2.883 101.106 121.484 149.145" transform="translate(-15.435 -17.014) scale(1.90702)"/><path style="fill:none;stroke:#211e1e;stroke-width:40;stroke-linecap:butt;stroke-linejoin:miter;stroke-miterlimit:4;stroke-opacity:1" d="M1327.148 114.02c1186.016 480.39 1214.844 1491.446 1214.844 1491.446V3523.98H100.937V1605.466S129.767 594.41 1315.782 114.02zm0 0" transform="matrix(.1907 0 0 -.1907 -15.435 675.844)"/><path style="fill:#fff;fill-opacity:1;fill-rule:nonzero;stroke:none" d="M132.148 334.379c108.25-41.832 107.817-137.145 107.817-137.145V26.016H24.328v171.218s-.43 95.313 107.82 137.145" transform="translate(-15.435 -17.014) scale(1.90702)"/><g clip-path="url(#a)" transform="translate(-15.435 -17.014) scale(1.90702)"><g clip-path="url(#b)"><path style="fill:#054ca1;fill-opacity:1;fill-rule:nonzero;stroke:none" d="m26.195 229.754 182-206 43-7-.5 49.5-196 222s-22.5-23.5-28.5-58.5"/></g></g><g clip-path="url(#c)" transform="translate(-15.435 -17.014) scale(1.90702)"><g clip-path="url(#d)"><path style="fill:none;stroke:#211e1e;stroke-width:40;stroke-linecap:butt;stroke-linejoin:miter;stroke-miterlimit:4;stroke-opacity:1" d="m261.953 1335.66 1820 2060 430 70-5-495-1960-2220s-225 235-285 585zm0 0" transform="matrix(.1 0 0 -.1 0 363.32)"/></g></g><path style="fill:none;stroke:#211e1e;stroke-width:40;stroke-linecap:butt;stroke-linejoin:miter;stroke-miterlimit:4;stroke-opacity:1" d="M1321.484 289.41c1082.5 418.321 1078.164 1371.446 1078.164 1371.446v1712.188H243.281V1660.856s-4.297-953.125 1078.203-1371.445zm0 0" transform="matrix(.1907 0 0 -.1907 -15.435 675.844)"/><path style="fill:#ba9751;fill-opacity:1;fill-rule:nonzero;stroke:none" d="M127.684 83.152c0-24.218-20.028-43.847-44.73-43.847-24.708 0-44.735 19.629-44.735 43.847 0 24.22 20.027 43.852 44.734 43.852 24.703 0 44.73-19.633 44.73-43.852" transform="translate(-15.435 -17.014) scale(1.90702)"/><path style="fill:none;stroke:#211e1e;stroke-width:30;stroke-linecap:round;stroke-linejoin:round;stroke-miterlimit:4;stroke-opacity:1" d="M1276.836 2801.677c0 242.187-200.273 438.476-447.305 438.476-247.07 0-447.343-196.289-447.343-438.476 0-242.188 200.273-438.516 447.343-438.516 247.032 0 447.305 196.328 447.305 438.516zm0 0" transform="matrix(.1907 0 0 -.1907 -15.435 675.844)"/><path style="fill:none;stroke:#211e1e;stroke-width:30;stroke-linecap:round;stroke-linejoin:round;stroke-miterlimit:4;stroke-opacity:1" d="M822.89 2376.403s-237.968 13.203-257.773 242.383c0 81.523 35.977 134.453 85.899 193.906 46.289 55.117 44.101 156.445-33.047 202.735" transform="matrix(.1907 0 0 -.1907 -15.435 675.844)"/><path style="fill:none;stroke:#211e1e;stroke-width:30;stroke-linecap:round;stroke-linejoin:round;stroke-miterlimit:4;stroke-opacity:1" d="M811.875 2374.216s-356.953 12.773-356.953 372.382c0 52.891 17.617 165.235 171.875 288.633 19.844 13.242 63.906 81.563-17.617 145.43" transform="matrix(.1907 0 0 -.1907 -15.435 675.844)"/><path style="fill:none;stroke:#211e1e;stroke-width:30;stroke-linecap:round;stroke-linejoin:round;stroke-miterlimit:4;stroke-opacity:1" d="M569.492 2631.99s233.594-160.86 506.836-13.204M651.016 2812.692s156.445-114.57 345.976-8.828M829.531 2759.802v469.375M827.305 2858.981s11.015 105.742-85.938 165.235c19.844 22.07 55.117 70.547 13.242 132.226 22.032 17.617 22.032 59.492 17.618 68.32" transform="matrix(.1907 0 0 -.1907 -15.435 675.844)"/><path style="fill:none;stroke:#211e1e;stroke-width:30;stroke-linecap:round;stroke-linejoin:round;stroke-miterlimit:4;stroke-opacity:1" d="M836.133 2376.403s237.969 13.203 257.812 242.383c0 81.523-36.015 134.453-85.937 193.906-46.29 55.117-44.063 156.445 33.047 202.735" transform="matrix(.1907 0 0 -.1907 -15.435 675.844)"/><path style="fill:none;stroke:#211e1e;stroke-width:30;stroke-linecap:round;stroke-linejoin:round;stroke-miterlimit:4;stroke-opacity:1" d="M847.148 2374.216s356.954 12.773 356.954 372.382c0 52.891-17.618 165.235-171.836 288.633-19.844 13.242-63.946 81.563 17.578 145.43M831.719 2858.981s-11.016 105.742 85.937 165.235c-19.843 22.07-55.078 70.547-13.203 132.226-22.07 17.617-22.07 59.492-17.656 68.32M794.766 3166.95h66.132M794.766 3132.184h66.132M794.766 3081.52h66.132M794.766 3037.458h66.132" transform="matrix(.1907 0 0 -.1907 -15.435 675.844)"/><path style="fill:#fff;fill-opacity:1;fill-rule:nonzero;stroke:none" d="m41.668 225.66 7.605-8.594 22.274 7.551-9.867-21.586 7.675-8.683 34.899 21.804-7.723 8.73-19.664-13.023-.078.09 10.371 23.535-3.074 3.473-24.313-7.766-.082.09 15.02 18.281-7.68 8.684" transform="translate(-15.435 -17.014) scale(1.90702)"/><path style="fill:none;stroke:#211e1e;stroke-width:20;stroke-linecap:butt;stroke-linejoin:miter;stroke-miterlimit:4;stroke-opacity:1" d="m416.68 1376.598 76.054 85.938 222.735-75.508-98.672 215.86 76.758 86.835 348.984-218.046-77.227-87.305-196.64 130.234-.781-.898 103.71-235.352-30.742-34.726-243.125 77.656-.82-.898 150.195-182.813-76.796-86.836zm0 0" transform="matrix(.1907 0 0 -.1907 -15.435 675.844)"/><path style="fill:#fff;fill-opacity:1;fill-rule:nonzero;stroke:none" d="m99.473 179.223-.078.09 6.484 12.164 6.422-7.258zM109.8 199.23l3.234 6.989-8.191 9.261-18.98-39.796 8.425-9.536 41.59 14.23-8.23 9.313-7.212-2.488" transform="translate(-15.435 -17.014) scale(1.90702)"/><path style="fill:none;stroke:#211e1e;stroke-width:20;stroke-linecap:butt;stroke-linejoin:miter;stroke-miterlimit:4;stroke-opacity:1" d="m994.727 1840.973-.782-.898 64.844-121.64 64.219 72.578zm103.28-200.078 32.345-69.882-81.915-92.618-189.804 397.97 84.258 95.35 415.898-142.304-82.305-93.125-72.109 24.883zm0 0" transform="matrix(.1907 0 0 -.1907 -15.435 675.844)"/><path style="fill:#fff;fill-opacity:1;fill-rule:nonzero;stroke:none" d="m147.742 166.965-7.719 8.73-23.71-20.965-6.38 7.215-6.695-5.918 20.485-23.164 6.691 5.918-6.379 7.219" transform="translate(-15.435 -17.014) scale(1.90702)"/><path style="fill:none;stroke:#211e1e;stroke-width:20;stroke-linecap:butt;stroke-linejoin:miter;stroke-miterlimit:4;stroke-opacity:1" d="m1477.422 1963.552-77.188-87.305-237.109 209.648-63.79-72.148-66.952 59.18 204.844 231.64 66.914-59.18-63.79-72.187zm0 0" transform="matrix(.1907 0 0 -.1907 -15.435 675.844)"/><path style="fill:#ba9751;fill-opacity:1;fill-rule:nonzero;stroke:none" d="m140.93 126.89 5.082 4.493 8.703-9.848 6.695 5.918-8.707 9.848 5.242 4.633 9.18-10.38 6.691 5.919-16.894 19.109-30.402-26.883 16.894-19.105 6.691 5.918" transform="translate(-15.435 -17.014) scale(1.90702)"/><path style="fill:#fff;fill-opacity:1;stroke:#211e1e;stroke-width:20;stroke-linecap:butt;stroke-linejoin:miter;stroke-miterlimit:4;stroke-opacity:1" d="m1409.297 2364.294 50.82-44.922 87.031 98.476 66.954-59.18-87.07-98.476 52.421-46.328 91.797 103.79 66.914-59.18-168.945-191.094-304.024 268.828 168.946 191.055 66.914-59.18zm0 0" transform="matrix(.1907 0 0 -.1907 -15.435 675.844)"/><path style="fill:#fff;fill-opacity:1;fill-rule:nonzero;stroke:none" d="m169.527 108.52.75-.844c2.524-2.852 4.871-6.488 1.567-9.414-3.309-2.922-6.625-.14-9.149 2.71l-.746.844zm33.75-4.368-9.609 10.871-18.977-2.101-.082.09 11.692 10.34-7.719 8.734-30.402-26.887 11.539-13.05c5.867-6.633 13.183-9.137 19.672-3.399 4.199 3.707 5.539 9.5 2.093 14.945" transform="translate(-15.435 -17.014) scale(1.90702)"/><path style="fill:none;stroke:#211e1e;stroke-width:20;stroke-linecap:butt;stroke-linejoin:miter;stroke-miterlimit:4;stroke-opacity:1" d="m1695.273 2548.005 7.5 8.437c25.235 28.516 48.711 64.883 15.665 94.14-33.086 29.22-66.25 1.407-91.485-27.109l-7.46-8.437zm337.5 43.672-96.093-108.711-189.766 21.015-.82-.898 116.914-103.399-77.188-87.343-304.023 268.867 115.39 130.508c58.672 66.328 131.836 91.367 196.72 33.984 41.991-37.07 55.39-95 20.937-149.453zm0 0" transform="matrix(.1907 0 0 -.1907 -15.435 675.844)"/><path style="fill:#ba9751;fill-opacity:1;fill-rule:nonzero;stroke:none" d="m197.316 68.563-.078.085 6.485 12.165 6.422-7.258zm10.329 20.007 3.234 6.985-8.191 9.265-18.985-39.8 8.434-9.532 41.586 14.23-8.23 9.31-7.212-2.485" transform="translate(-15.435 -17.014) scale(1.90702)"/><path style="fill:#fff;fill-opacity:1;stroke:#211e1e;stroke-width:20;stroke-linecap:butt;stroke-linejoin:miter;stroke-miterlimit:4;stroke-opacity:1" d="m1973.164 2947.575-.781-.86 64.844-121.64 64.218 72.578zm103.281-200.078 32.344-69.844-81.914-92.656-189.844 398.008 84.336 95.312 415.86-142.305-82.305-93.085-72.11 24.843zm0 0" transform="matrix(.1907 0 0 -.1907 -15.435 675.844)"/><path style="fill:#ba9751;fill-opacity:1;fill-rule:nonzero;stroke:none" d="M178.477 195.281h-17.649c-.613 0-1.16.301-1.527.766-.395.36-.645.867-.645 1.433v58.696c0 1.101.946 2 2.114 2h4.953c1.168 0 2.117-.899 2.117-2v-26.14h5.722c1.106 0 2-.946 2-2.11v-3.676c0-1.164-.894-2.113-2-2.113h-5.722V203.18h10.637c1.101 0 2-.946 2-2.114v-3.671c0-1.165-.899-2.114-2-2.114M174.203 249.387c0-1.102.95-2 2.113-2h1.989c1.168 0 2.113.898 2.113 2v6.863c0 1.105-.945 2-2.113 2h-1.989c-1.164 0-2.113-.895-2.113-2M211.031 249.387c0-1.102.946-2 2.114-2h1.988c1.164 0 2.11.898 2.11 2v6.863c0 1.105-.946 2-2.11 2h-1.988c-1.168 0-2.114-.895-2.114-2M202.344 245.254v-9.887c0-1.101.945-2 2.113-2h1.984c1.168 0 2.114.899 2.114 2v9.887s.59 13.055-11.008 13.055c-13.012 0-12.27-13.055-12.27-13.055v-37.926s.407-12 12.27-12c11.598 0 11.008 12 11.008 12v6.863c0 1.106-.946 2-2.114 2h-1.984c-1.168 0-2.113-.894-2.113-2v-6.863s.36-4.988-4.797-4.988c-4.852 0-4.414 4.988-4.414 4.988v37.926s-.746 6.086 4.37 6.086c4.852 0 4.84-6.086 4.84-6.086" transform="translate(-15.435 -17.014) scale(1.90702)"/></svg>