<?xml version="1.0" encoding="UTF-8" standalone="no"?>
<svg
   xmlns:dc="http://purl.org/dc/elements/1.1/"
   xmlns:cc="http://creativecommons.org/ns#"
   xmlns:rdf="http://www.w3.org/1999/02/22-rdf-syntax-ns#"
   xmlns:svg="http://www.w3.org/2000/svg"
   xmlns="http://www.w3.org/2000/svg"
   xmlns:sodipodi="http://sodipodi.sourceforge.net/DTD/sodipodi-0.dtd"
   xmlns:inkscape="http://www.inkscape.org/namespaces/inkscape"
   viewBox="0 0 554.11115 700.00003"
   height="700"
   width="554.11115"
   xml:space="preserve"
   id="svg833"
   version="1.1"
   sodipodi:docname="Logo AS Melfi.svg"
   inkscape:version="1.0 (4035a4f, 2020-05-01)"><sodipodi:namedview
     inkscape:document-rotation="0"
     pagecolor="#ffffff"
     bordercolor="#666666"
     borderopacity="1"
     objecttolerance="10"
     gridtolerance="10"
     guidetolerance="10"
     inkscape:pageopacity="0"
     inkscape:pageshadow="2"
     inkscape:window-width="1440"
     inkscape:window-height="780"
     id="namedview1065"
     showgrid="false"
     inkscape:zoom="0.74250001"
     inkscape:cx="70.966615"
     inkscape:cy="307.32637"
     inkscape:window-x="0"
     inkscape:window-y="23"
     inkscape:window-maximized="0"
     inkscape:current-layer="svg833" /><metadata
     id="metadata839"><rdf:RDF><cc:Work
         rdf:about=""><dc:format>image/svg+xml</dc:format><dc:type
           rdf:resource="http://purl.org/dc/dcmitype/StillImage" /><dc:title /></cc:Work></rdf:RDF></metadata><defs
     id="defs837" /><g
     id="g1065"><path
       d="M 277.05555,700.00001 C 188.75777,633.45524 133.04318,569.22709 81.266833,478.6127 22.390063,375.59283 -2.0925e-5,255.93966 -2.0925e-5,165.08202 -2.0925e-5,100.32105 3.1505755,63.046716 17.918996,3.8525e-5 67.946297,13.216327 96.81132,18.892034 148.12434,25.587051 c 49.98097,6.509688 78.54483,8.432479 128.93121,8.640974 50.38638,-0.208495 78.96182,-2.131286 128.93121,-8.640974 C 457.31136,18.892034 486.1648,13.216327 536.1921,3.8525e-5 550.97211,63.046716 554.11112,100.32105 554.11112,165.08202 c 0,90.85764 -22.39008,210.51081 -81.25527,313.53068 -51.78793,90.61439 -107.50252,154.84254 -195.8003,221.38731"
       style="fill:#267e47;fill-opacity:1;fill-rule:nonzero;stroke:none;stroke-width:11.5831"
       id="path4909" /><path
       d="m 92.282341,472.31151 c -57.5563,-100.738 -79.587308,-218.13247 -79.587308,-307.22948 0,-59.49067 2.664107,-95.027549 14.698922,-149.491167 43.17012,11.073419 71.641319,16.401634 119.097175,22.586996 50.58329,6.59077 79.55256,8.536726 130.56442,8.745222 51.01187,-0.208496 79.99272,-2.154452 130.57601,-8.745222 47.44427,-6.185362 75.92705,-11.513577 119.09718,-22.586996 12.03481,54.463618 14.68733,90.000497 14.68733,149.491167 0,89.09701 -22.01942,206.49148 -79.5873,307.22948 C 412.41537,558.79075 359.57338,620.59804 277.05555,684.03854 194.54931,620.59804 141.70732,558.79075 92.282341,472.31151"
       style="fill:#231f20;fill-opacity:1;fill-rule:nonzero;stroke:none;stroke-width:11.5831"
       id="path4913" /><path
       d="m 25.390199,165.08203 c 0,-53.61805 2.177618,-87.417467 11.67574,-133.969845 36.91526,9.092713 64.575641,14.01552 107.780511,19.656478 51.19719,6.671851 80.58345,8.629391 132.20922,8.849469 51.63735,-0.220078 81.02361,-2.177618 132.20922,-8.849469 43.20487,-5.640958 70.87683,-10.563765 107.79209,-19.656478 9.49813,46.552378 11.66416,80.351795 11.66416,133.969845 0,87.34797 -21.64877,202.47215 -77.91935,300.92829 C 403.77451,548.33123 353.79354,607.65974 277.05567,667.96123 200.3178,607.65974 150.34841,548.33123 103.30954,466.01032 47.038966,367.55418 25.390199,252.43 25.390199,165.08203"
       style="fill:#efe01d;fill-opacity:1;fill-rule:nonzero;stroke:none;stroke-width:11.5831"
       id="path4917" /><path
       d="m 277.07872,166.37933 c 51.62577,-0.22008 81.00044,-2.1892 132.18605,-8.86105 42.5678,-5.5483 70.06602,-10.41319 106.17047,-19.25107 0.17374,8.33981 0.59073,17.40936 0.59073,26.81482 0,85.58734 -21.2781,198.44124 -76.25138,294.62709 -44.62959,78.11626 -91.73795,134.91966 -162.71904,192.0358 0,0 21.98468,-72.57955 14.72209,-159.69585 -7.67958,-92.14336 -39.75311,-135.91581 -41.59482,-225.2329 -1.27414,-62.06211 26.8959,-100.43684 26.8959,-100.43684"
       style="fill:#267e47;fill-opacity:1;fill-rule:nonzero;stroke:none;stroke-width:11.5831"
       id="path4921" /><path
       d="m 38.791701,125.58363 c 36.069696,8.8263 63.509999,13.69119 106.054639,19.23949 51.19719,6.67185 80.58345,8.64097 132.20921,8.86105 51.63735,-0.22008 81.02361,-2.1892 132.20922,-8.86105 42.5678,-5.5483 70.06602,-10.41319 106.17047,-19.25107 -0.94981,-27.996295 -3.2896,-51.544687 -8.32823,-79.019741 -31.29747,7.297338 -57.63738,11.779988 -96.19744,16.807042 -51.8111,6.752933 -81.60276,8.733639 -133.85402,8.9653 -52.25125,-0.231661 -82.04292,-2.212367 -133.85401,-8.9653 -38.56006,-5.027054 -64.89997,-9.509704 -96.197439,-16.807042 -5.003888,27.359223 -7.251005,51.197192 -8.2124,79.031321"
       style="fill:#231f20;fill-opacity:1;fill-rule:nonzero;stroke:none;stroke-width:11.5831"
       id="path4925" /><g
       id="g1035"><path
         id="path4981"
         style="fill:#231f20;fill-opacity:1;fill-rule:nonzero;stroke:none;stroke-width:11.5831"
         d="m 222.83518,241.067 c -20.95378,-1.12356 -39.19713,9.75295 -54.06979,-3.99616 -10.39002,-9.61395 -4.48265,-23.52523 -6.55602,-33.75308 -1.06565,-5.23555 -3.52126,-7.93441 -6.40545,-12.63714 4.01933,0.98457 6.3012,2.24712 9.27805,5.11972 3.30117,3.17377 4.76064,5.75679 5.75679,10.22786 2.44403,0.53282 4.01932,0.45174 6.40544,-0.31274 2.23553,-0.72974 3.4865,-1.5058 5.11972,-3.20852 -0.52124,4.16991 -2.57145,6.93827 -6.40544,8.64098 -2.51353,1.12356 -4.35524,1.2973 -7.03093,0.64865 -0.17375,9.49812 1.05406,18.23176 9.59079,22.39008 12.47497,6.08112 24.79936,-0.63707 39.50986,0.63707 10.01936,0.86873 15.84565,4.32049 22.87658,9.91511 -6.99618,-1.65637 -10.88809,-3.28959 -18.0696,-3.67183" /><path
         id="path4985"
         style="fill:#231f20;fill-opacity:1;fill-rule:nonzero;stroke:none;stroke-width:11.5831"
         d="m 206.67667,251.78134 c -1.15831,2.13129 -1.48263,3.66025 -1.28572,6.08111 0.28958,3.39385 3.61392,4.32049 4.15832,7.67958 0.42858,2.59461 0.26641,4.23941 -0.63707,6.71819 7.65642,-3.59076 12.1159,-5.36297 20.15455,-8.00391 2.84944,-0.92664 4.47107,-1.42472 7.36684,-2.23553 2.96527,-0.63707 5.42088,0.22008 7.35525,2.55986 2.54828,3.0811 2.27028,7.49425 -0.63707,10.23944 6.20853,-3.12743 7.77225,-12.6603 2.87261,-17.59469 -2.6062,-2.64095 -5.25872,-2.97686 -8.95372,-3.20852 -4.84173,-0.28957 -6.9846,3.72975 -11.8379,3.84558 -2.2587,0.0463 -3.56759,-0.0927 -5.75679,-0.63706 v -5.44405 l -9.27805,5.75679 -3.52125,-5.75679" /><path
         id="path4989"
         style="fill:#231f20;fill-opacity:1;fill-rule:nonzero;stroke:none;stroke-width:11.5831"
         d="m 231.30241,210.4761 c -0.26641,-3.03477 6.89193,-1.20464 11.10817,-2.62936 2.90735,-0.97298 4.5174,-1.63321 7.26259,-2.97685 -0.54441,1.65638 -0.76449,2.62936 -0.9614,4.35524 -0.25483,2.10812 -0.24324,3.33592 0.0232,5.44404 -3.10427,-2.02703 -5.15447,-2.88418 -8.76839,-3.695 -3.30118,-0.74131 -5.30505,-0.85715 -8.66414,-0.49807" /><path
         id="path4993"
         style="fill:#231f20;fill-opacity:1;fill-rule:nonzero;stroke:none;stroke-width:11.5831"
         d="m 192.44119,204.42973 c -1.96912,4.18149 -2.10812,7.51742 -0.48649,11.8379 1.37839,3.64867 3.99616,4.61007 6.40544,7.67958 1.92279,2.45561 2.97685,3.85717 4.79539,6.39386 0.59074,-1.08881 0.81082,-1.79538 0.9614,-3.03477 0.18533,-1.56371 0.0695,-2.52511 -0.48649,-3.99616 2.03862,-0.12741 3.27801,0.11583 5.11972,0.9614 2.09654,0.96139 3.22009,1.9112 4.48265,3.834 0.31274,-1.27414 0.38224,-2.03863 0.32433,-3.3591 -0.0579,-1.13514 -0.16217,-1.78379 -0.48649,-2.8726 10.20469,-0.0695 16.45955,1.59847 25.27427,6.7066 8.62939,5.01547 13.07729,9.46337 18.08118,18.08118 -2.59461,-13.93444 -9.49813,-22.76074 -22.40167,-28.63336 -9.94986,-4.52898 -16.6333,-4.15832 -27.98471,-1.76063 -4.05408,0.85715 -12.63713,-0.96139 -13.59853,-11.8379" /><path
         id="path4997"
         style="fill:#231f20;fill-opacity:1;fill-rule:nonzero;stroke:none;stroke-width:11.5831"
         d="m 256.90112,188.43351 c -0.70657,4.22782 -0.28958,7.03093 1.59846,10.87651 2.05021,4.15832 6.22012,4.28574 8.47882,8.31665 2.7336,4.86489 3.37067,8.59464 2.39769,14.08501 -1.34363,-4.41315 -2.76835,-6.86876 -5.91895,-10.23943 -2.67569,-2.87261 -5.83787,-2.74519 -8.15448,-5.91896 -1.67955,-2.30503 -2.36295,-3.91507 -2.87261,-6.71818 -3.695,2.49036 -6.61393,3.25485 -11.03867,2.8726 -2.52511,-0.20849 -3.71816,-1.72587 -6.24327,-1.74904 -2.10812,-0.0232 -3.86875,-0.44016 -5.28189,1.11197 -1.38997,1.54055 -1.62163,3.45176 -0.63707,5.28189 -3.16218,-0.35908 -4.94597,-0.71815 -7.99232,-1.59847 -2.29345,-0.67182 -3.50967,-1.2973 -5.76837,-2.08495 -6.53285,-2.27028 -12.63713,0.32433 -16.95762,-5.2703 -4.06566,-5.29347 -0.47491,-14.39776 6.40544,-15.19699 -2.1892,1.89962 -2.96527,4.19307 -2.3977,7.03092 0.45174,2.3282 1.52897,3.67184 3.52126,4.95756 2.52511,1.63321 4.71431,0.10425 7.66799,0.64865 3.53284,0.64865 5.21239,2.79152 8.80314,2.71044 4.43632,-0.0811 6.06953,-3.64867 10.4016,-4.63323 5.65254,-1.2973 9.30121,2.09654 14.87267,0.47491 3.89191,-1.12356 6.05795,-2.30504 9.11588,-4.95756" /><path
         id="path5001"
         style="fill:#231f20;fill-opacity:1;fill-rule:nonzero;stroke:none;stroke-width:11.5831"
         d="m 144.45251,263.45697 c 7.33209,3.57917 11.16608,8.74522 12.47497,16.79546 0.62549,3.89191 -0.64865,6.13903 -0.63707,10.07727 0,3.88033 0.139,6.08112 0.63707,9.9267 -1.32047,-2.24712 -2.51353,-3.40542 -4.79539,-4.64481 -2.62936,-1.42472 -4.56373,-1.79538 -7.51742,-1.43631 6.46336,5.52513 9.25488,10.87651 10.07728,19.35532 0.7529,7.83016 -0.6139,13.06571 -5.11972,19.51748 3.04635,-2.0502 5.15447,-2.86101 8.79155,-3.35909 2.90735,-0.4054 4.6564,-0.33591 7.51742,0.31275 -3.77608,2.54827 -6.01162,3.85716 -10.07728,5.91895 -2.81468,1.4363 -4.20465,3.17376 -7.35525,3.35909 -4.59848,0.27799 -6.38227,-3.34751 -10.4016,-5.59463 -2.95368,-1.65638 -4.59848,-2.60619 -7.51742,-4.32048 17.91902,3.35909 18.63717,-7.65642 18.08118,-17.43253 -0.6139,-10.6796 -13.8186,-18.59084 -23.51364,-14.08502 2.91894,-5.62937 6.52127,-8.53673 12.63714,-10.23944 5.24713,-1.44788 8.9653,-1.14672 13.91127,1.12356 1.13514,-5.37455 0.97298,-8.8263 -0.63707,-14.07344 -1.48263,-4.84172 -3.06951,-7.54058 -6.55602,-11.20083" /><path
         id="path5005"
         style="fill:#231f20;fill-opacity:1;fill-rule:nonzero;stroke:none;stroke-width:11.5831"
         d="m 220.11316,363.75505 c 6.13903,27.11598 16.95762,45.10449 41.59482,57.90379 15.75298,8.18924 33.59092,6.08112 45.41724,-3.03476 13.92286,-10.72593 15.99623,-33.08127 3.04635,-44.95392 -11.51358,-10.55218 -33.11601,-5.28188 -33.11601,12.7993 2.09653,-7.67958 8.69889,-12.37072 16.63329,-11.8379 8.54831,0.57915 13.72595,7.54058 15.04642,15.99622 1.61004,10.43635 -5.59463,18.9615 -15.68349,22.07734 -23.35148,7.19309 -47.82651,-11.38616 -59.50225,-35.83803 -15.35916,-32.14303 -7.67958,-71.50232 7.84174,-93.73024 -5.07339,4.48265 -7.99232,7.251 -11.363,13.11204 -4.32048,7.51741 -7.50583,13.42478 -9.4402,22.87657 -13.51745,5.51355 -25.07736,4.3784 -37.26276,-3.68342 -17.74527,-11.72207 -7.51741,-43.34386 -12.96146,-52.94623 -3.11584,-5.49038 -8.80313,-5.59463 -15.52132,-4.63323 4.95756,1.59846 7.04251,3.67183 8.47881,8.15448 3.39384,10.55218 -2.39769,24.00013 1.76063,36.63727 4.40157,13.36687 11.69891,22.05417 25.27427,25.74918 11.363,3.09268 20.08505,1.59846 29.75692,-5.11972 -3.48651,15.3939 -3.48651,25.07735 0,40.47126" /><path
         id="path5009"
         style="fill:#231f20;fill-opacity:1;fill-rule:nonzero;stroke:none;stroke-width:11.5831"
         d="m 215.63051,351.91703 c 0.32433,5.44405 -2.20078,8.84947 -3.35909,14.55993 -7.51742,37.27433 -18.86883,35.98861 -30.39399,50.7107 -6.60235,8.43248 -3.52126,24.15071 5.44404,33.7415 -13.12362,-9.26646 -17.59469,-18.23176 -14.39776,-31.34381 3.47492,-14.25876 17.76844,-20.55995 26.71057,-35.35154 7.27417,-12.03482 10.84176,-19.23949 15.99623,-32.31678" /><path
         id="path5013"
         style="fill:#231f20;fill-opacity:1;fill-rule:nonzero;stroke:none;stroke-width:11.5831"
         d="m 216.5919,387.5929 c -0.8919,3.70658 -1.00773,5.97687 -0.47491,9.75295 0.68341,4.93439 4.15833,6.90351 4.7954,11.8379 0.37066,2.90735 0.33591,4.63323 -0.16217,7.51742 -1.86487,-3.1506 -3.38225,-4.78381 -6.39385,-6.88035 -2.89577,-2.00387 -4.86489,-2.83785 -8.31665,-3.52125 -4.57532,5.77995 -6.32436,10.25102 -6.88035,17.60627 -0.53282,6.98459 0.39383,11.39775 3.67184,17.59469 -3.57917,-1.34364 -5.53671,-2.65252 -8.15449,-5.44404 -2.65252,-2.82627 -3.85716,-4.91123 -4.95755,-8.6294 -0.15058,8.81472 2.72202,14.94217 9.60237,20.4673 6.15061,4.94597 11.67573,6.48652 19.50589,5.44404 -6.81084,-5.91895 -9.86878,-11.1545 -11.67574,-20.00397 -1.52896,-7.47108 -1.16989,-12.33597 1.44789,-19.5059 3.92666,2.20079 5.98845,4.03091 8.62939,7.668 3.1506,4.34365 4.36682,7.48267 4.95756,12.7993 5.25871,-6.0927 7.62166,-11.74524 6.24327,-19.66806 -1.51738,-8.72206 -4.95755,-9.91512 -8.95371,-17.28195 -1.81855,-3.33593 -2.01546,-5.8842 -2.88419,-9.75295" /><path
         id="path5017"
         style="fill:#231f20;fill-opacity:1;fill-rule:nonzero;stroke:none;stroke-width:11.5831"
         d="m 296.88578,515.72487 c 0.81082,-7.51742 11.25875,-21.50977 6.72977,-32.64111 -6.72977,-16.47113 -43.35545,-12.63713 -46.87671,-33.26659 -1.49421,-8.76838 1.63322,-14.57151 6.88035,-21.75301 -12.00007,6.67185 -18.59084,18.81091 -14.71051,31.99245 4.7954,16.30897 21.42869,17.1082 36.15078,23.02715 3.63709,1.47106 4.93439,4.25099 6.06953,8.00391 2.24712,7.35525 -8.57147,15.5329 -6.39386,25.5986 4.48265,20.62945 26.56,26.87273 45.1045,28.78394 -14.07344,-5.59463 -34.47123,-15.42866 -32.95385,-29.74534" /><path
         id="path5021"
         style="fill:#231f20;fill-opacity:1;fill-rule:nonzero;stroke:none;stroke-width:11.5831"
         d="m 310.0094,526.91412 c 2.58303,-6.15061 3.6255,-9.86878 4.64481,-16.47113 0.63707,-4.20466 0.81082,-6.62552 0.79924,-10.87651 4.45948,12.98463 7.83015,20.13138 15.03483,31.83029 5.7452,9.33596 9.48654,14.3746 16.79546,22.55225 -10.16994,-5.80312 -15.46341,-10.6101 -22.23951,-20.15455 -3.89191,-5.4788 -5.73362,-8.91897 -8.15448,-15.197 -0.24325,2.00387 -0.71815,3.18535 -1.92279,4.7954 -1.42472,1.89962 -2.69886,2.81468 -4.95756,3.52125" /><path
         id="path5025"
         style="fill:#231f20;fill-opacity:1;fill-rule:nonzero;stroke:none;stroke-width:11.5831"
         d="m 282.81246,360.23379 c 22.85341,-0.39382 36.99634,3.35909 56.62965,15.03483 12.61397,7.51742 19.22791,13.22787 28.4712,24.6372 -2.13128,-5.76837 -1.54055,-10.58693 1.92279,-15.6719 2.73361,-4.00774 5.52513,-5.93053 10.23944,-7.04251 -4.5174,-1.48263 -7.83016,-1.30889 -12.16223,0.63707 -3.46334,1.56372 -5.32821,3.18535 -7.35525,6.40544 -10.25102,-12.26648 -18.72983,-18.02326 -33.91524,-23.03873 -16.22789,-5.36297 -27.37081,-5.60621 -43.83036,-0.9614" /><path
         id="path5029"
         style="fill:#231f20;fill-opacity:1;fill-rule:nonzero;stroke:none;stroke-width:11.5831"
         d="m 280.41476,349.03273 c 24.4982,-2.1197 38.65272,-1.79538 63.02351,1.44788 16.81863,2.23554 26.27042,4.21624 42.55622,8.95372 -5.06181,-5.94212 -6.24328,-12.30122 -3.68342,-19.66806 2.22395,-6.38227 5.8147,-10.01936 12.16223,-12.32439 -7.44792,-0.0348 -12.63714,2.53669 -17.11979,8.47881 -3.74133,4.95756 -4.88805,9.19696 -4.15832,15.35916 -17.89585,-6.68344 -29.05035,-8.75681 -48.15084,-8.95372 -17.59469,-0.18533 -27.8573,1.35522 -44.62959,6.7066" /><path
         id="path5033"
         style="fill:#231f20;fill-opacity:1;fill-rule:nonzero;stroke:none;stroke-width:11.5831"
         d="m 264.61545,337.51938 c 27.84571,0.16216 45.7184,-1.4363 73.87685,-6.71818 23.25882,-4.36682 37.67975,-11.2935 59.50226,-23.35148 -6.32436,-1.80696 -10.12361,-5.76837 -11.67574,-12.16223 -1.23939,-5.03864 -0.60232,-8.76839 2.23553,-13.11204 -5.2008,2.82627 -7.81857,6.61393 -8.64097,12.47497 -0.91506,6.54444 1.16989,11.64099 6.40544,15.68348 0,0 -28.32062,11.02709 -55.99259,15.99623 -16.63329,2.97685 -24.25495,4.62165 -39.83419,7.19309 -10.07728,1.65638 -25.87659,3.99616 -25.87659,3.99616" /><path
         id="path5037"
         style="fill:#231f20;fill-opacity:1;fill-rule:nonzero;stroke:none;stroke-width:11.5831"
         d="m 368.56196,209.54945 c -2.40928,12.53289 -1.04248,21.13911 5.11972,32.31678 4.55215,8.27031 8.62939,12.57922 16.63329,17.59469 -14.33984,20.57154 -25.19318,31.50596 -47.02728,43.83036 -22.40167,12.63713 -45.42882,19.03099 -66.23202,21.11594 25.10052,-7.05409 39.03496,-13.04254 61.43663,-26.39783 17.7916,-10.61009 27.33605,-17.75685 42.53305,-31.83029 -10.73751,-7.77224 -15.69507,-15.98464 -17.58311,-29.10826 -1.55213,-10.80701 -0.22008,-18.0001 5.11972,-27.52139" /><path
         id="path5041"
         style="fill:#231f20;fill-opacity:1;fill-rule:nonzero;stroke:none;stroke-width:11.5831"
         d="m 324.56933,204.11687 c -4.4479,5.3398 -7.56375,8.76839 -14.2356,10.71434 -7.67958,2.23554 -14.31668,-1.14672 -22.07734,2.72203 -8.33981,4.14674 -12.7298,8.93055 -16.15839,17.59469 l 22.07734,0.31274 c -9.32437,4.07724 -14.37459,9.89195 -17.11978,19.67965 -3.84558,13.73752 0.0116,28.85344 13.2742,34.0774 13.44795,5.2703 28.80711,-1.07722 38.39789,-13.76069 17.43253,-23.03874 26.23567,-49.74931 25.27427,-72.46372 -2.72202,14.39776 -6.39385,28.4712 -14.2356,41.2705 -11.82632,19.2974 -28.30903,43.19328 -48.63733,31.66812 -10.37843,-5.8842 -10.76067,-22.71441 -1.74904,-30.54456 5.2703,-4.5869 10.71434,-4.80698 17.43253,-4.15833 -1.36681,-4.9923 -3.57917,-7.89965 -8.00391,-10.56376 -4.84172,-2.91894 -9.59078,-2.3977 -14.39776,-1.76063 4.40157,-2.54828 7.12359,-3.70658 12.00006,-5.11972 4.92281,-1.41313 8.25874,-0.0463 12.96147,-2.07337 8.31664,-3.60234 12.84563,-8.83789 15.19699,-17.59469" /></g></g><g
     id="g1017"><path
       d="m 96.440549,100.41384 11.108171,1.76063 c 0.0579,-5.559879 -0.0579,-11.142921 -0.32433,-16.749129 -3.89191,5.015471 -7.482665,10.01936 -10.783841,14.988499 z m 6.613931,-22.11209 1.12356,-3.324343 c 0.74132,0.254828 1.74905,0.521239 3.03477,0.787649 1.27414,0.277994 2.96527,0.579154 5.03864,0.915063 2.07337,0.324326 3.7645,0.555988 5.07338,0.694985 1.30889,0.138997 2.35137,0.196912 3.12743,0.173746 -0.33591,6.000033 -0.49807,11.351413 -0.4749,16.065725 0.0116,4.702728 0.11583,8.675725 0.27799,11.907405 0.11583,2.72202 0.24325,5.30504 0.35908,7.72591 0.11583,2.43244 0.27799,4.50581 0.48649,6.22011 0.20849,1.71429 0.50965,2.8726 0.90348,3.45175 l 2.39769,1.5753 -0.90348,2.80311 c -0.74131,-0.25483 -1.83012,-0.53282 -3.25484,-0.8224 -1.4363,-0.30116 -3.50967,-0.67182 -6.24328,-1.10039 -1.79538,-0.278 -3.18534,-0.47491 -4.14674,-0.59074 l -2.09654,-0.17375 -0.98456,0.0463 0.85715,-18.8225 -13.297371,-2.09654 c -0.509655,0.71815 -1.135141,1.70271 -1.899624,2.91894 -0.7529,1.2278 -1.5058,2.51352 -2.270283,3.85716 -0.7529,1.34364 -1.401552,2.54828 -1.911207,3.6255 l -0.7529,2.20079 0.613903,1.80696 c 0.544405,0.42857 1.517383,0.78765 2.907352,1.06564 l -0.90348,2.8031 c -0.729734,-0.25482 -1.737461,-0.52123 -3.000016,-0.78764 -1.262556,-0.278 -2.930518,-0.57916 -5.003889,-0.90348 -2.050204,-0.32433 -3.718167,-0.55599 -4.992305,-0.68341 -1.285721,-0.13899 -2.305032,-0.18532 -3.081098,-0.17374 l 0.776066,-2.82627 c 1.389969,0.17374 2.733606,-0.25483 4.054076,-1.30889 1.308888,-1.04248 2.826271,-2.66411 4.552149,-4.85331 1.725878,-2.20078 3.891913,-4.93439 6.509688,-8.2124 1.92279,-2.362945 4.007744,-4.899639 6.25486,-7.621661 2.247117,-2.722023 4.308909,-5.258716 6.173779,-7.598498 1.87646,-2.351364 3.20851,-4.158323 4.00774,-5.409296 l -0.98456,-2.131285 c -0.45174,-0.579154 -1.2278,-0.984562 -2.3282,-1.20464"
       style="fill:#efe01d;fill-opacity:1;fill-rule:nonzero;stroke:none;stroke-width:11.5831"
       id="path4929" /><path
       d="m 131.64163,121.41372 c 2.84944,-1.5058 5.59463,-3.19693 8.23557,-5.07339 0.52123,1.42472 1.11197,2.87261 1.79537,4.33207 0.6834,1.47105 1.49422,2.77994 2.44403,3.96141 -2.44403,1.34364 -5.15447,2.97686 -8.1429,4.87648 -0.67182,-1.42472 -1.34364,-2.81469 -2.00387,-4.15832 -0.67182,-1.34364 -1.44789,-2.66411 -2.3282,-3.93825"
       style="fill:#efe01d;fill-opacity:1;fill-rule:nonzero;stroke:none;stroke-width:11.5831"
       id="path4933" /><path
       d="m 196.4143,101.27087 -3.38226,-0.34749 c 0.278,-1.204642 0.48649,-2.420865 0.64865,-3.625505 0.16217,-1.934373 -0.12741,-3.521255 -0.88031,-4.795393 -0.76448,-1.262555 -1.80696,-2.247116 -3.13901,-2.918935 -1.33206,-0.683401 -2.76836,-1.100392 -4.30891,-1.250972 -2.45561,-0.243244 -4.52898,0.243245 -6.22011,1.471051 -1.69113,1.227806 -2.69885,3.150596 -3.02318,5.779954 -0.15058,1.945957 0.41699,3.532838 1.69113,4.74906 1.27414,1.21622 2.89577,2.29345 4.87647,3.23168 1.96913,0.94981 3.93825,1.9807 5.89579,3.11585 1.95754,1.13514 3.54442,2.58302 4.76064,4.36682 1.20464,1.77221 1.69113,4.11199 1.44789,6.99617 -0.39383,3.42859 -1.4363,6.24328 -3.10427,8.44406 -1.66796,2.21237 -3.75291,3.89192 -6.24328,5.06181 -2.49036,1.18147 -5.16605,1.93437 -8.03865,2.27028 -2.86102,0.33591 -5.68729,0.34749 -8.46723,0.0463 -1.94595,-0.23166 -3.88033,-0.59073 -5.8147,-1.08881 -1.93437,-0.48649 -3.66025,-0.96139 -5.16605,-1.41313 -1.51738,-0.45174 -2.59461,-0.71815 -3.26643,-0.81082 l -2.13129,0.33591 c 1.22781,-2.46719 2.23554,-5.03863 3.00002,-7.72591 0.77607,-2.67569 1.37839,-5.39771 1.81854,-8.15448 l 3.38226,0.35907 -0.50965,2.31662 c -0.23166,2.53669 0.16216,4.69114 1.16989,6.47494 1.00772,1.79537 2.42086,3.19692 4.22782,4.21624 1.81854,1.01931 3.834,1.64479 6.03478,1.87645 1.33206,0.11583 2.68728,-0.0811 4.06566,-0.62548 1.37839,-0.54441 2.57144,-1.36681 3.56759,-2.44403 0.99614,-1.08881 1.58688,-2.38611 1.77221,-3.89191 0.19691,-2.40928 -0.35908,-4.30891 -1.66796,-5.69888 -1.30889,-1.38997 -2.98844,-2.57144 -5.03864,-3.53284 -2.05021,-0.94981 -4.10041,-1.9807 -6.13903,-3.08109 -2.03862,-1.1004 -3.68342,-2.55986 -4.94597,-4.38999 -1.26256,-1.81854 -1.76063,-4.29732 -1.49422,-7.413167 0.53282,-4.29732 2.00387,-7.540581 4.41315,-9.718199 2.42086,-2.166036 5.35138,-3.567588 8.79155,-4.169907 3.44018,-0.60232 6.96143,-0.694985 10.56377,-0.277994 2.75677,0.335909 5.18922,0.7529 7.29734,1.250972 2.09653,0.509655 3.92666,0.86873 5.47879,1.065643 l 2.59461,-0.277994 c -1.06564,2.22395 -1.95754,4.540565 -2.66411,6.938262 -0.69498,2.397696 -1.32047,4.830142 -1.85329,7.285754"
       style="fill:#efe01d;fill-opacity:1;fill-rule:nonzero;stroke:none;stroke-width:11.5831"
       id="path4937" /><path
       d="m 202.59955,129.45237 c 2.73361,-1.69113 5.36296,-3.56759 7.86491,-5.62937 0.6139,1.38996 1.32047,2.79152 2.09653,4.20465 0.77607,1.41314 1.67955,2.66411 2.71044,3.77608 -2.33978,1.51739 -4.93439,3.32435 -7.78382,5.43247 -0.76449,-1.37839 -1.52897,-2.71044 -2.28187,-4.00775 -0.76448,-1.2973 -1.63321,-2.55986 -2.60619,-3.77608"
       style="fill:#efe01d;fill-opacity:1;fill-rule:nonzero;stroke:none;stroke-width:11.5831"
       id="path4941" /><path
       d="m 263.78135,136.39063 -0.52124,2.90735 c -0.76448,-0.139 -1.79538,-0.24324 -3.11585,-0.31274 -1.30888,-0.0695 -3.0116,-0.10425 -5.11971,-0.10425 -2.13129,0 -3.85717,0.0348 -5.17764,0.10425 -1.32047,0.0695 -2.36295,0.17374 -3.12743,0.31274 l 0.52124,-2.90735 c 1.2973,0.0116 2.31661,-0.40541 3.06951,-1.25097 0.7529,-0.84557 1.49422,-2.23554 2.23554,-4.15833 0.34749,-0.89189 0.8224,-2.46719 1.42472,-4.73747 0.60232,-2.27029 1.23938,-4.89964 1.92279,-7.88808 0.69498,-2.97685 1.34363,-5.98845 1.96912,-9.01163 0.6139,-3.02318 1.12356,-5.73362 1.51738,-8.13132 0.39383,-2.397695 0.60232,-4.135157 0.6139,-5.235549 l -0.72973,-1.888041 c -0.50965,-0.347492 -1.41313,-0.521238 -2.7336,-0.544404 l 0.71815,-2.907352 c 1.93437,0.138997 3.72975,0.243244 5.39771,0.312743 1.65638,0.0695 3.52125,0.104247 5.58304,0.104247 2.01546,-0.01158 3.50967,-0.09266 4.5174,-0.254827 l 2.35136,-0.579154 c 0.16217,1.818543 0.61391,4.528982 1.34364,8.119736 0.71815,3.590751 1.62163,7.575331 2.72202,11.953731 1.07723,4.3784 2.2587,8.62939 3.50968,12.78772 2.35136,-3.50967 4.71431,-7.25101 7.06567,-11.24717 2.36295,-3.99616 4.5869,-7.87649 6.68344,-11.66416 2.09653,-3.776078 3.94982,-7.088837 5.53671,-9.949857 l 2.20078,0.579154 c 0.99614,0.162163 2.40928,0.243244 4.27415,0.254827 2.33979,0 4.33207,-0.03475 6.00004,-0.104247 1.66796,-0.0695 3.10426,-0.173746 4.33207,-0.312743 l -0.53282,2.907352 c -1.08881,-0.03475 -1.99229,0.231661 -2.67569,0.787649 -0.70657,0.555987 -1.29731,1.598464 -1.7838,3.150596 -0.4749,1.552132 -0.94981,3.799249 -1.41313,6.741349 -0.48649,2.9421 -0.98456,5.98845 -1.49422,9.15063 -0.52124,3.16218 -0.99614,6.17378 -1.44788,9.02322 -0.44016,2.83785 -0.79924,5.25871 -1.07723,7.26258 -0.27799,1.99229 -0.41699,3.2896 -0.42857,3.88033 l 0.6834,2.02704 c 0.48649,0.52124 1.48263,0.79923 2.97685,0.8224 l -0.52124,2.90735 c -0.99615,-0.139 -2.33978,-0.24324 -4.03091,-0.31274 -1.70271,-0.0695 -3.9035,-0.10425 -6.62552,-0.10425 -2.74519,0 -4.98072,0.0348 -6.68343,0.10425 -1.70272,0.0695 -3.05794,0.17374 -4.0425,0.31274 l 0.39383,-2.90735 c 1.41313,-0.0347 2.51352,-0.28958 3.28959,-0.77607 0.76448,-0.48649 1.37839,-1.44788 1.80696,-2.90735 0.55599,-1.86487 1.12356,-4.5869 1.7143,-8.15448 0.60232,-3.57917 1.18147,-7.44792 1.76062,-11.62941 0.57916,-4.18149 1.12356,-8.11974 1.62163,-11.81474 l -0.12741,-0.13899 c -1.22781,2.06178 -2.79152,4.65639 -4.67956,7.80699 -1.87646,3.13901 -3.89192,6.52127 -6.00004,10.13519 -2.13128,3.61392 -4.14674,7.15834 -6.06953,10.64485 -1.92279,3.4865 -3.53283,6.59077 -4.81856,9.32437 h -5.23555 c -0.98456,-3.72975 -2.03862,-7.84174 -3.16218,-12.30122 -1.11197,-4.47107 -2.2587,-8.91897 -3.44017,-13.35529 -1.16989,-4.43632 -2.31661,-8.47881 -3.46334,-12.1159 h -0.12741 c -0.11583,1.23939 -0.38224,3.23168 -0.79923,5.96529 -0.417,2.7336 -0.88032,5.71045 -1.37839,8.94213 -0.49807,3.23168 -0.92665,6.22011 -1.2973,8.9653 -0.37066,2.73361 -0.55599,4.73748 -0.57916,6.00003 -0.0463,2.16604 0.24325,3.62551 0.88032,4.36682 0.63706,0.74132 1.9112,1.08881 3.82241,1.04248"
       style="fill:#efe01d;fill-opacity:1;fill-rule:nonzero;stroke:none;stroke-width:11.5831"
       id="path4945" /><path
       d="m 321.56931,138.57995 0.32433,-2.9421 c 1.78379,-0.139 3.0116,-0.57915 3.67183,-1.28572 0.64865,-0.71815 1.14673,-2.05021 1.45947,-4.00775 0.25483,-1.41313 0.52124,-3.40542 0.76448,-5.98845 0.25483,-2.5946 0.48649,-5.40929 0.69499,-8.46722 0.22007,-3.04635 0.4054,-5.97687 0.57915,-8.77997 0.15058,-2.81469 0.27799,-5.14289 0.37066,-7.00777 0.0811,-1.853287 0.11583,-2.884181 0.11583,-3.081093 -0.0463,-1.413135 -0.35908,-2.444029 -0.91506,-3.104264 -0.56757,-0.660235 -1.67955,-0.961395 -3.37068,-0.90348 l 0.31274,-3.069515 11.42092,-0.810815 c 3.59075,-0.266411 7.01934,-0.567571 10.29735,-0.926646 3.27801,-0.347492 6.54444,-0.648652 9.81086,-0.891897 2.4672,-0.162163 4.05408,-0.185329 4.77223,-0.04633 l 0.98456,0.694984 c -0.0232,0.312743 -0.20849,1.250972 -0.56757,2.803104 -0.38224,1.540549 -0.7529,3.31276 -1.13514,5.293466 -0.39382,1.980705 -0.62549,3.787665 -0.69498,5.409296 l -2.87261,0.19691 c 0.33591,-1.10039 0.48649,-2.084952 0.44016,-2.953682 -0.17375,-2.455612 -1.51738,-4.216239 -4.01933,-5.281882 -2.50194,-1.065643 -6.06953,-1.447885 -10.70276,-1.111976 -0.37066,3.023183 -0.6834,6.069532 -0.91506,9.1043 -0.25483,3.04634 -0.46332,5.97686 -0.66024,8.79155 1.86488,0.0116 3.78767,0 5.76837,-0.0232 1.98071,-0.0348 3.63709,-0.0927 4.96914,-0.17374 0.77607,-0.0579 1.69113,-0.15058 2.75678,-0.278 1.06564,-0.12741 2.08495,-0.26641 3.09268,-0.41699 l -1.87646,4.03091 -2.55986,-0.0116 c -1.04248,0.0116 -2.37453,0.0811 -3.98458,0.18533 -1.44788,0.11583 -2.90735,0.26641 -4.36682,0.48649 -1.45947,0.20849 -2.86102,0.42857 -4.20465,0.67182 l -1.30889,18.71825 1.30889,0.0463 c 2.21236,-0.12742 4.62164,-0.53282 7.251,-1.21623 2.62936,-0.6834 5.02706,-1.80695 7.16992,-3.38225 2.15446,-1.56372 3.62551,-3.74134 4.40157,-6.52127 l 2.64094,0.37065 -3.78766,12.35915 -0.94981,0.85714 c -0.53283,0.12742 -1.49422,0.23166 -2.89577,0.31275 -0.72974,0.0463 -1.69113,0.0811 -2.88419,0.0927 -1.20464,0.0232 -3.10426,0.0811 -5.68729,0.19691 -2.60619,0.11583 -6.35911,0.34749 -11.28191,0.6834 -3.06952,0.2085 -5.46721,0.39383 -7.21626,0.55599 -1.74904,0.15058 -3.10426,0.28958 -4.05408,0.41699 l -2.46719,0.40541"
       style="fill:#efe01d;fill-opacity:1;fill-rule:nonzero;stroke:none;stroke-width:11.5831"
       id="path4949" /><path
       d="m 369.56957,135.03553 0.10425,-2.9421 c 1.14672,-0.23166 2.07337,-0.54441 2.79152,-0.93823 0.70657,-0.39382 1.20464,-1.13514 1.49422,-2.24712 0.23166,-0.97297 0.45174,-2.68727 0.64865,-5.14288 0.19691,-2.45561 0.38224,-5.28188 0.52124,-8.47881 0.16216,-3.18535 0.27799,-6.37069 0.35907,-9.55604 0.0927,-3.17376 0.12742,-5.965283 0.12742,-8.374563 0,-2.40928 -0.0463,-4.054076 -0.15058,-4.945973 -0.12742,-1.401552 -0.55599,-2.386113 -1.27414,-2.953684 -0.71815,-0.579154 -1.94596,-0.787649 -3.70659,-0.625486 l 0.17375,-2.953684 c 1.11197,0 2.61777,-0.08108 4.49423,-0.243245 1.88804,-0.162163 4.34366,-0.428574 7.35525,-0.799232 2.98844,-0.359075 5.42088,-0.694985 7.27418,-0.996145 1.86487,-0.289576 3.32434,-0.579153 4.42473,-0.857147 l -0.17375,2.953684 c -1.35522,0.115831 -2.44402,0.428574 -3.25484,0.949812 -0.81081,0.509656 -1.42472,1.586882 -1.84171,3.220095 -0.41699,1.621631 -0.72973,4.169907 -0.93823,7.621663 -0.19691,3.451755 -0.37066,8.177655 -0.52124,14.154515 l -0.42857,16.40164 c 0.66024,0.0811 1.61005,0.0579 2.82627,-0.0695 3.54442,-0.48649 6.46336,-1.98071 8.71047,-4.47107 2.2587,-2.50194 3.60234,-5.64096 4.00775,-9.45179 l 3.11584,0.17375 c -0.67181,2.74519 -1.2278,5.51354 -1.70271,8.30506 -0.46332,2.77994 -0.92664,5.52513 -1.41313,8.2124 -0.42858,-0.0348 -1.21623,-0.0232 -2.35137,0.0579 -1.14672,0.0811 -2.81468,0.23166 -4.9923,0.47491 -2.1892,0.23166 -5.07339,0.57915 -8.66414,1.01931 -3.93825,0.4749 -7.0541,0.88031 -9.35913,1.20464 -2.30503,0.32432 -4.03091,0.59073 -5.18922,0.79923 -1.14672,0.19691 -1.96912,0.37066 -2.46719,0.49807"
       style="fill:#efe01d;fill-opacity:1;fill-rule:nonzero;stroke:none;stroke-width:11.5831"
       id="path4953" /><path
       d="m 447.19946,89.583428 -2.97685,0.416991 0.0348,-1.65638 -0.0927,-1.621631 c -0.37065,-2.050204 -1.51738,-3.463339 -3.46334,-4.239405 -1.94595,-0.776066 -4.2394,-0.984561 -6.86876,-0.613903 l -3.17376,0.45174 -0.79923,18.72983 c 1.21622,0.0463 2.76835,0.0232 4.65639,-0.0811 1.89963,-0.10425 4.05408,-0.31274 6.47494,-0.64865 3.10427,-0.498074 5.37455,-1.100394 6.79927,-1.795378 l -1.26256,4.100408 c -2.76835,0.84556 -5.42088,1.61005 -7.94599,2.29345 -2.52511,0.69498 -5.40929,1.41313 -8.66414,2.14287 -0.0695,2.57144 -0.16216,5.05022 -0.27799,7.44792 -0.10425,2.39769 -0.0695,4.42473 0.139,6.08111 0.15058,1.6448 0.55598,2.67569 1.23938,3.10426 0.67182,0.42858 2.14287,0.45174 4.42474,0.0927 l -0.11583,2.95368 c -1.08881,0.0116 -2.55986,0.11583 -4.40157,0.30116 -1.85329,0.18533 -4.27416,0.49807 -7.25101,0.91507 -2.97685,0.41699 -5.37454,0.78764 -7.20467,1.11197 -1.83012,0.33591 -3.26643,0.63707 -4.32048,0.92665 l 0.11583,-2.95369 c 1.32047,-0.20849 2.28186,-0.4749 2.89576,-0.79923 l 1.21623,-1.58688 c 0.22008,-0.74132 0.40541,-1.84171 0.56757,-3.31276 0.18533,-1.5753 0.38224,-3.89191 0.56757,-6.96143 0.19691,-3.05793 0.35907,-6.40544 0.4749,-10.03094 0.11584,-3.6255 0.16217,-7.054094 0.12742,-10.308938 -0.0347,-3.254844 -0.17375,-5.849453 -0.42858,-7.806993 -0.12741,-1.088809 -0.4749,-1.841709 -1.06564,-2.270282 -0.59073,-0.428574 -1.61005,-0.544405 -3.06951,-0.359076 l 0.11583,-2.965267 c 1.72588,-0.09266 3.70658,-0.277994 5.9537,-0.521238 2.22395,-0.243245 5.14288,-0.613903 8.73364,-1.123559 4.27415,-0.602319 7.76066,-1.146724 10.44793,-1.633213 2.68727,-0.486489 4.81856,-0.938229 6.37069,-1.343637 1.55213,-0.416991 2.77994,-0.799232 3.66025,-1.158307 -0.48649,2.409279 -0.90348,4.841725 -1.25097,7.297337 -0.34749,2.444029 -0.4749,4.922807 -0.38224,7.424751"
       style="fill:#efe01d;fill-opacity:1;fill-rule:nonzero;stroke:none;stroke-width:11.5831"
       id="path4957" /><path
       d="m 455.14533,77.120155 -0.0579,-2.942101 c 1.05406,-0.04633 2.4672,-0.185329 4.25099,-0.428574 1.77221,-0.243244 4.08883,-0.625486 6.96143,-1.123558 2.82627,-0.498072 5.1313,-0.938229 6.86876,-1.320471 1.73747,-0.382241 3.11585,-0.729733 4.13516,-1.042476 l -0.0116,2.953684 c -1.66796,0.208495 -2.76836,0.764483 -3.28959,1.667963 -0.52124,0.915062 -0.86873,2.745188 -1.0309,5.50196 -0.13899,1.795377 -0.22008,4.204656 -0.23166,7.216256 -0.0232,3.011599 0.0116,6.208528 0.10425,9.590786 0.0927,3.382256 0.23166,6.521276 0.41699,9.428626 0.18533,2.90735 0.41699,5.15447 0.6834,6.74135 0.23166,1.47105 0.6834,2.42086 1.34364,2.83785 0.66023,0.42857 1.72588,0.53282 3.19693,0.30116 l -0.0116,2.96527 c -1.05406,0.0463 -2.47878,0.18533 -4.2394,0.42857 -1.76063,0.24325 -4.06566,0.6139 -6.90352,1.11198 -2.83785,0.49807 -5.1313,0.93823 -6.86876,1.30888 -1.74904,0.38225 -3.12743,0.72974 -4.13516,1.05406 l 0.0116,-2.96526 c 1.1583,-0.16217 2.03862,-0.54441 2.64094,-1.14673 0.60232,-0.60232 1.03089,-1.64479 1.27414,-3.15059 0.25482,-1.49422 0.42857,-3.68342 0.53282,-6.54444 0.0579,-1.55213 0.0579,-3.7645 0.0116,-6.6371 -0.0463,-2.87261 -0.12741,-5.930538 -0.25483,-9.13905 -0.11583,-3.220095 -0.25482,-6.127447 -0.41699,-8.722056 -0.16216,-2.583025 -0.31274,-4.378402 -0.4749,-5.362963 -0.2085,-1.320471 -0.64866,-2.142869 -1.32047,-2.455612 -0.66024,-0.312743 -1.72588,-0.359076 -3.18535,-0.127414"
       style="fill:#efe01d;fill-opacity:1;fill-rule:nonzero;stroke:none;stroke-width:11.5831"
       id="path4961" /></g><g
     id="g1041"><path
       d="m 242.1905,599.20409 0.25483,-1.49422 2.02704,-0.32432 1.21622,-1.38997 c 0.25483,-0.57916 0.52124,-1.55213 0.79923,-2.93052 0.26641,-1.37839 0.53282,-2.95368 0.78765,-4.72589 0.24324,-1.76063 0.47491,-3.52126 0.6834,-5.28189 0.19691,-1.74904 0.35908,-3.30117 0.48649,-4.63323 0.11583,-1.33205 0.17375,-2.2587 0.17375,-2.76835 l -0.28958,-1.80696 -1.2973,-0.69499 -1.77222,0.26642 0.18533,-1.58689 c 3.13902,-0.30116 6.24328,-1.00772 9.32438,-2.14287 -0.19691,0.9614 -0.42857,2.35137 -0.70657,4.14675 -0.26641,1.79537 -0.55599,3.77608 -0.84556,5.9537 -0.30116,2.17761 -0.56757,4.3089 -0.83398,6.40544 -0.25483,2.09653 -0.46333,3.93824 -0.62549,5.50196 -0.15058,1.5753 -0.24324,2.65252 -0.24324,3.24326 -0.0116,1.10039 0.20849,1.84171 0.64865,2.22395 l 2.09653,0.5444 -0.25482,1.49422 c -1.96913,-0.0579 -3.94983,-0.11583 -5.93054,-0.17375 -1.95754,0.0579 -3.92666,0.11583 -5.8842,0.17375"
       style="fill:#231f20;fill-opacity:1;fill-rule:nonzero;stroke:none;stroke-width:11.5831"
       id="path4965" /><path
       d="m 275.72362,570.77934 c -1.08881,0.0463 -2.00387,0.48649 -2.72202,1.34364 -0.71815,0.86873 -1.26256,1.9112 -1.62163,3.13901 -0.3475,1.23939 -0.53282,2.44403 -0.53282,3.60234 0,1.64479 0.3359,3.03476 0.99614,4.14674 0.67182,1.11197 1.70271,1.69113 3.09268,1.73746 l 2.3977,-0.48649 0.99614,-0.69499 c 0.22008,-0.49807 0.46332,-1.2973 0.72974,-2.39769 0.26641,-1.08881 0.4054,-2.54828 0.42857,-4.36682 0.0232,-1.59847 -0.23166,-2.97685 -0.76448,-4.15832 -0.54441,-1.18148 -1.54055,-1.80696 -3.00002,-1.86488 z m -8.67572,29.0851 -0.49808,-1.54055 c 2.5367,-1.21622 4.7954,-2.97685 6.75294,-5.28188 1.95754,-2.29345 3.53284,-4.91122 4.73747,-7.85332 l -0.0695,-0.0811 c -0.8919,0.69499 -1.87646,1.27414 -2.93052,1.73747 -1.05406,0.46332 -2.14287,0.70656 -3.25485,0.71815 -1.76062,-0.0116 -3.22009,-0.61391 -4.38998,-1.79538 -1.16989,-1.18147 -1.78379,-2.8726 -1.81854,-5.05022 0.0348,-2.5367 0.60232,-4.67956 1.70271,-6.41703 1.11197,-1.72587 2.53669,-3.04634 4.27415,-3.93824 1.74905,-0.8919 3.59076,-1.33205 5.5483,-1.33205 2.23553,-0.0348 4.05407,0.5444 5.47879,1.74904 1.40155,1.20464 2.13129,3.24326 2.17762,6.10428 -0.0232,2.66411 -0.59074,5.22397 -1.67955,7.67958 -1.10039,2.45561 -2.52511,4.70273 -4.29732,6.76452 -1.77221,2.0502 -3.67183,3.81083 -5.73362,5.28188 -2.0502,1.47105 -4.04249,2.55986 -6.00003,3.25484"
       style="fill:#231f20;fill-opacity:1;fill-rule:nonzero;stroke:none;stroke-width:11.5831"
       id="path4969" /><path
       d="m 310.35689,591.02633 1.14672,0.40541 c -0.46332,1.27414 -0.83398,2.53669 -1.11197,3.78766 -0.28958,1.25098 -0.60232,2.31662 -0.93823,3.19693 l -1.01931,0.69499 -2.53669,-0.12742 c -0.94982,-0.0811 -2.09654,-0.11583 -3.46334,-0.12741 -1.20464,-0.0116 -2.47878,0 -3.82242,0 -1.34363,0.0116 -2.60619,0.0232 -3.78766,0.0463 -1.19306,0.0232 -2.14287,0.0695 -2.86102,0.12741 l 9.68345,-10.98075 c 1.25097,-1.3668 2.3282,-2.84944 3.22009,-4.43632 0.8919,-1.59846 1.35522,-3.24326 1.40155,-4.96914 0,-1.34363 -0.30116,-2.38611 -0.91506,-3.11584 -0.60232,-0.72974 -1.45947,-1.08881 -2.59461,-1.1004 l -2.69885,0.81082 -2.43245,1.73746 -0.71815,-1.3668 2.76835,-2.67569 c 1.01932,-0.8919 2.09654,-1.63322 3.2201,-2.23554 1.13514,-0.59073 2.28187,-0.90348 3.44017,-0.92664 1.65638,0.0116 2.96527,0.55598 3.93825,1.64479 0.97298,1.07723 1.45947,2.62936 1.49422,4.63323 -0.0348,1.69113 -0.40541,3.25485 -1.11198,4.70273 -0.70657,1.44789 -1.58688,2.76836 -2.62936,3.973 -1.05406,1.20464 -2.09653,2.28186 -3.12743,3.23168 l -6.28961,5.93053 v 0.0927 c 2.35137,0.0927 4.7259,0.16217 7.07726,0.22008 1.18147,0.0463 2.14287,-0.11583 2.88419,-0.49807 0.72973,-0.38224 1.32047,-1.26255 1.78379,-2.67569"
       style="fill:#231f20;fill-opacity:1;fill-rule:nonzero;stroke:none;stroke-width:11.5831"
       id="path4973" /><path
       d="m 329.10989,570.77934 c -1.08881,0.0463 -2.00387,0.48649 -2.73361,1.34364 -0.71815,0.86873 -1.25097,1.9112 -1.61004,3.13901 -0.35908,1.23939 -0.54441,2.44403 -0.53282,3.60234 -0.0116,1.64479 0.32432,3.03476 0.99614,4.14674 0.67182,1.11197 1.69113,1.69113 3.09268,1.73746 l 2.3977,-0.48649 0.99614,-0.69499 c 0.22008,-0.49807 0.46332,-1.2973 0.72974,-2.39769 0.25482,-1.08881 0.4054,-2.54828 0.42857,-4.36682 0.0232,-1.59847 -0.23166,-2.97685 -0.77607,-4.15832 -0.53282,-1.18148 -1.52896,-1.80696 -2.98843,-1.86488 z m -8.67572,29.0851 -0.49808,-1.54055 c 2.5367,-1.21622 4.78381,-2.97685 6.74135,-5.28188 1.95754,-2.29345 3.54443,-4.91122 4.74907,-7.85332 l -0.0695,-0.0811 c -0.90348,0.69499 -1.87646,1.27414 -2.9421,1.73747 -1.04248,0.46332 -2.13129,0.70656 -3.24327,0.71815 -1.76062,-0.0116 -3.23167,-0.61391 -4.40156,-1.79538 -1.15831,-1.18147 -1.77221,-2.8726 -1.81855,-5.05022 0.0348,-2.5367 0.60232,-4.67956 1.7143,-6.41703 1.10039,-1.72587 2.53669,-3.04634 4.27415,-3.93824 1.74905,-0.8919 3.60234,-1.33205 5.53671,-1.33205 2.23554,-0.0348 4.06566,0.5444 5.4788,1.74904 1.41313,1.20464 2.15445,3.24326 2.20078,6.10428 -0.0463,2.66411 -0.60232,5.22397 -1.70271,7.67958 -1.08881,2.45561 -2.51353,4.70273 -4.28574,6.76452 -1.77221,2.0502 -3.68342,3.81083 -5.73362,5.28188 -2.0502,1.47105 -4.05408,2.55986 -6.00003,3.25484"
       style="fill:#231f20;fill-opacity:1;fill-rule:nonzero;stroke:none;stroke-width:11.5831"
       id="path4977" /></g></svg>
