<?xml version="1.0" encoding="UTF-8" standalone="no"?>
<svg
   xmlns:dc="http://purl.org/dc/elements/1.1/"
   xmlns:cc="http://creativecommons.org/ns#"
   xmlns:rdf="http://www.w3.org/1999/02/22-rdf-syntax-ns#"
   xmlns:svg="http://www.w3.org/2000/svg"
   xmlns="http://www.w3.org/2000/svg"
   xmlns:xlink="http://www.w3.org/1999/xlink"
   xmlns:sodipodi="http://sodipodi.sourceforge.net/DTD/sodipodi-0.dtd"
   xmlns:inkscape="http://www.inkscape.org/namespaces/inkscape"
   inkscape:version="1.0 (4035a4f, 2020-05-01)"
   sodipodi:docname="Logo Montluçon Football.svg"
   viewBox="0 0 627.16412 700"
   id="svg912"
   height="700"
   width="627.16412"
   version="1.1">
  <metadata
     id="metadata918">
    <rdf:RDF>
      <cc:Work
         rdf:about="">
        <dc:format>image/svg+xml</dc:format>
        <dc:type
           rdf:resource="http://purl.org/dc/dcmitype/StillImage" />
      </cc:Work>
    </rdf:RDF>
  </metadata>
  <defs
     id="defs916">
    <defs
       id="defs839">
      <linearGradient
         id="grad1">
        <stop
           offset="0%"
           stop-color="#f1dc15"
           stop-opacity="1.0000"
           id="stop833" />
        <stop
           offset="100%"
           stop-color="#eed700"
           stop-opacity="1.0000"
           id="stop835" />
      </linearGradient>
      <linearGradient
         xlink:href="#grad1"
         id="grad2"
         x1="46.134472"
         y1="130.12964"
         x2="46.134472"
         y2="666.75616"
         gradientTransform="scale(0.94654569,1.056473)"
         gradientUnits="userSpaceOnUse" />
    </defs>
  </defs>
  <sodipodi:namedview
     inkscape:current-layer="svg912"
     inkscape:window-maximized="0"
     inkscape:window-y="0"
     inkscape:window-x="0"
     inkscape:cy="244.49006"
     inkscape:cx="225.62294"
     inkscape:zoom="0.70555555"
     showgrid="false"
     id="namedview914"
     inkscape:window-height="900"
     inkscape:window-width="1440"
     inkscape:pageshadow="2"
     inkscape:pageopacity="0"
     guidetolerance="10"
     gridtolerance="10"
     objecttolerance="10"
     borderopacity="1"
     bordercolor="#666666"
     pagecolor="#ffffff" />
  <g
     transform="matrix(1.2347171,0,0,1.2347171,-53.918104,-169.74699)"
     id="g1135">
    <path
       id="path841"
       style="fill:url(#grad2)"
       d="m 289.325,700.715 c -5.9494,-3.8017 -12.6262,-7.264 -18.7485,-10.5014 -10.7136,-5.6648 -21.5442,-11.1284 -32.3503,-16.6147 -21.5893,-10.961 -43.8607,-21.945 -64.743,-34.1651 C 146.6499,623.7305 120.9874,605.6794 98.8535,583.7442 87.8731,572.8629 78.3971,560.0663 71.0641,546.4603 61.737,529.1538 55.3324,510.0084 51.5483,490.743 43.8799,451.6989 42.6778,412.8318 44.2968,373.1634 c 1.1301,-27.6847 3.5605,-55.3741 6.5266,-82.9174 3.9205,-36.4074 8.8192,-72.7442 14.0739,-108.9809 1.112,-5.3628 3.5003,-7.7255 8.1483,-8.5124 36.3839,-6.9107 72.5416,-14.9179 108.9813,-21.5806 39.9421,-7.3032 81.5724,-13.5782 122.2357,-13.6917 75.1561,-0.2097 146.0477,16.525 218.1443,35.7346 5.159,1.1552 6.6962,3.9577 7.4202,8.287 5.6501,37.3571 10.87,74.8389 14.9196,112.4061 3.2607,30.249 5.8018,60.7175 6.6031,91.139 1.1662,44.2714 -1.1758,91.485 -15.5637,133.7267 -8.5766,25.1815 -18.2227,42.3623 -37.1709,61.7581 -15.3661,15.7285 -32.45,29.6117 -50.6768,41.8917 -19.52,13.1509 -40.3262,25.3847 -61.1879,36.2628 -3.1311,1.6327 -6.272,3.2472 -9.419,4.8491 -13.6036,6.9251 -27.3319,13.6012 -40.9364,20.523 -10.5417,5.3634 -21.3132,10.9336 -31.3789,17.2101 -7.4273,4.6322 -8.7491,3.8826 -15.6912,-0.5536 z" />
    <path
       id="path843"
       style="fill:#1c3650;fill-rule:evenodd"
       d="m 74.9389,182.7211 c 71.2959,-13.5418 157.1558,-34.8929 229.3521,-35.0941 75.8362,-0.2115 146.0521,16.8875 215.5035,35.3925 25.0098,165.3531 29.9605,263.2724 6.387,332.4829 -6.832,20.0587 -14.3017,36.9318 -34.824,57.9389 -12.8083,13.1103 -28.771,26.8786 -49.0884,40.5672 -15.0456,10.1365 -37.064,23.6117 -60.2099,35.6808 -30.7215,16.0191 -63.4421,30.8239 -84.5121,44.2959 -9.6384,-6.5789 -31.393,-17.5868 -54.7275,-29.4338 -23.3347,-11.8471 -48.2527,-24.536 -64.2115,-33.875 -31.4162,-18.385 -54.495,-36.1845 -72.6123,-54.1392 C 96.0372,566.6684 87.0115,554.6635 79.9961,541.6463 70.976,524.9098 64.9827,506.495 61.5048,488.7874 48.7687,423.9429 50.9099,348.4269 74.9389,182.7211 Z" />
  </g>
  <g
     transform="matrix(1.2347171,0,0,1.2347171,-53.918104,-169.74699)"
     id="g1172">
    <g
       id="g1129"
       transform="translate(4,4)"
       style="fill:#000000">
      <path
         d="m 262.7186,181.6378 v 46.6854 c 0,1.6372 -1.4331,2.8237 -3.1857,3.0013 -1.7441,0.1766 -3.1852,-0.8756 -3.1852,-2.5053 v -46.9638 l -13.7244,0.4691 c -1.4006,0.0475 -2.1392,-0.8747 -2.1314,-2.1182 l 0.0298,-4.6815 c 0.008,-1.2895 0.9222,-2.2141 2.1016,-2.2543 l 33.8272,-1.1562 c 1.2373,-0.0423 2.0642,0.8473 2.0628,2.121 l -0.005,4.3048 c -0.002,1.4755 -0.8774,2.5883 -2.0583,2.6283 z"
         style="fill:#000000;fill-rule:evenodd"
         id="path1109" />
      <path
         d="m 159.067,181.7984 15.4347,-2.2236 c 7.655,-1.1027 12.7811,4.2771 12.7811,11.1379 v 27.7838 c 0,3.7924 -1.5861,14.0178 -14.4424,14.3476 l -12.7373,0.3271 c -11.8226,0.3032 -14.951,-7.0197 -14.951,-11.7098 v -24.6479 c 0,-9.9165 8.3581,-14.2144 13.9149,-15.0151 z m 16.0659,5.8975 -16.0597,1.3683 c -5.0479,0.4298 -7.8179,3.0085 -7.8179,7.4223 v 23.1631 c 0,4.6794 2.9846,5.5836 5.9334,5.5225 l 15.1282,-0.314 c 5.2145,-0.108 8.8628,-2.0556 8.8628,-7.6448 v -23.9209 c 0,-2.2433 -1.6136,-5.974 -6.0468,-5.5965 z"
         style="fill:#000000;fill-rule:evenodd"
         id="path1111" />
      <path
         d="m 449.5639,184.1989 -13.9426,-2.4053 c -7.609,-1.3128 -14.2733,3.5024 -14.2733,11.15 v 26.7719 c 0,3.5915 2.2896,13.1495 15.9347,13.5937 l 11.2451,0.3099 c 11.8217,0.2873 14.951,-6.6508 14.951,-11.0945 v -23.8008 c 0,-9.3955 -8.3921,-13.572 -13.9149,-14.5249 z m -13.3201,5.2962 13.3139,1.8865 c 5.004,0.7089 7.8179,2.8558 7.8179,7.0323 v 22.3941 c 0,4.4324 -2.9855,5.3194 -5.9334,5.2323 l -15.1282,-0.4467 c -5.213,-0.1539 -8.8628,-1.7983 -8.8628,-7.094 v -22.5148 c 0,-5.3737 3.6432,-7.2186 8.7926,-6.4897 z"
         style="fill:#000000;fill-rule:evenodd"
         id="path1113" />
      <path
         d="m 411.3978,178.3852 -22.6299,-2.26 c -7.6923,-0.7684 -14.2732,4.406 -14.2732,12.044 v 30.6511 c 0,3.5892 2.2895,13.1494 15.9346,13.5937 l 3.3475,0.1221 v -2.411 c 0,-3.9482 6.7874,-3.7172 6.7874,0 v 2.6581 l 10.6599,0.3883 c 2.1034,0.0764 2.8282,-0.4423 2.8282,-2.4848 v -4.0109 c 0,-2.1722 -0.6941,-2.2895 -2.8503,-2.3683 l -21.8906,-0.8013 c -7.2987,-0.2671 -8.4151,-2.1158 -8.4151,-8.8496 v -23.4461 c 0,-5.3738 2.701,-7.1503 7.8713,-6.6212 l 22.7484,2.3298 c 1.271,0.1301 2.2379,-0.5604 2.2379,-1.9457 v -3.9393 c 0,-2.0899 -0.4264,-2.4555 -2.3561,-2.6489 z m -23.544,61.3639 -0.0662,2.6701 c -0.0582,2.3516 0.2805,3.4164 2.6369,3.5573 l 3.6379,0.2178 c 4.0717,0.2435 5.8143,-5.1709 5.8143,-8.1972 v -3.1383 c 0,-3.0852 -5.6332,-3.2771 -5.6332,0 v 0.8959 c 0,1.0636 -0.6204,1.8243 -1.8216,1.7219 l -2.046,-0.1746 c -1.7339,-0.148 -2.4806,0.7589 -2.5221,2.4471 z"
         style="fill:#000000;fill-rule:evenodd"
         id="path1115" />
      <path
         d="m 298.126,222.4271 20.711,-0.0125 c 1.114,-6e-4 2.0195,0.7962 1.9962,2.132 l -0.0847,4.7832 c -0.0257,1.4575 -0.9479,2.1385 -1.9115,2.1388 l -20.7975,0.0123 c -3.5665,0.002 -9.0496,-1.1108 -12.5525,-4.5666 -2.2451,-2.2149 -3.8035,-6.1429 -3.8035,-10.6121 v -41.5614 c 0,-1.6378 1.6378,-2.9771 3.2752,-2.9771 1.6301,0 2.9772,1.3474 2.9772,2.9771 v 39.2026 c 0,2.6999 0.4434,4.8465 1.43,6.1067 1.8843,2.4063 5.3598,2.3791 8.7601,2.377 z"
         style="fill:#000000;fill-rule:evenodd"
         id="path1117" />
      <path
         d="m 348.2944,231.4776 -5.3413,0.003 c -4.6075,-0.1284 -8.9013,-1.1114 -12.4033,-4.5666 -2.2445,-2.2141 -3.9527,-6.1429 -3.9527,-10.6121 v -41.5614 c 0,-1.6378 1.3393,-2.5295 2.9768,-2.5295 1.63,0 3.2756,0.9019 3.2756,2.5295 v 39.2026 c 0,2.6617 0.6443,4.523 1.613,5.8056 1.5061,1.995 3.5164,2.6002 7.1673,2.6707 l 12.897,0.3058 c 4.1717,0.0988 5.9208,-0.6917 7.5326,-2.8273 0.9657,-1.2799 1.613,-3.297 1.613,-5.9548 v -37.5612 c 0,-1.625 1.3471,-2.0819 2.9772,-2.0819 1.6374,0 3.2752,0.8917 3.2752,2.5295 v 39.4724 c 0,4.4692 -1.7097,8.3995 -3.9527,10.6121 -3.5006,3.4537 -7.7958,4.4382 -12.4033,4.5666 z"
         style="fill:#000000;fill-rule:evenodd"
         id="path1119" />
      <path
         d="m 196.5568,176.5547 c 1.5492,0 2.8363,1.7118 3.7194,2.9019 l 28.0577,37.8154 c 0.4539,0.6115 1.5073,0.8237 1.5073,-0.658 v -39.4857 c 0,-1.6378 1.2066,-2.7351 2.8599,-2.982 1.6458,-0.2459 3.1589,0.5978 3.1589,2.2263 v 50.6464 c 0,1.0872 -0.203,2.9679 -1.0729,3.611 -1.3101,0.9681 -3.5465,0.656 -4.6579,-0.8565 l -29.4645,-40.0862 c -0.6231,-0.8481 -1.5115,-0.4586 -1.5115,0.5375 v 39.7881 c 0,1.6372 -1.3394,2.9771 -2.9772,2.9771 -1.63,0 -2.9768,-1.1982 -2.9768,-2.8279 V 179.946 c 0,-1.9147 1.143,-3.3913 3.3576,-3.3913 z"
         style="fill:#000000;fill-rule:evenodd"
         id="path1121" />
      <path
         d="m 472.9023,187.8917 c 1.5491,0.1232 2.8864,1.6558 3.7193,2.7592 8.8654,11.7428 18.2355,23.4857 28.5054,35.2285 0.4718,0.5394 1.5073,0.819 1.5073,-0.4388 v -28.4467 c 0,-1.3904 0.4635,-2.2288 2.1138,-2.3046 1.6429,-0.0756 3.4573,1.0602 3.4573,2.4394 v 35.8321 c 0,0.9201 -0.2053,2.5054 -1.0728,2.9801 -1.3075,0.7159 -3.4794,0.2342 -4.6579,-1.0973 -8.6037,-9.7199 -20.2037,-23.5031 -29.4645,-35.3275 -0.607,-0.7754 -1.5116,-0.5071 -1.5116,0.3361 v 32.583 c 0,1.3873 -1.3393,2.4209 -2.9771,2.2907 -1.63,-0.1296 -2.9768,-1.2538 -2.9768,-2.6373 v -41.5848 c 0,-1.6254 1.1429,-2.7881 3.3576,-2.6121 z"
         style="fill:#000000;fill-rule:evenodd"
         id="path1123" />
      <path
         d="m 139.0197,188.3193 -0.1492,42.7381 c -0.005,1.6357 -1.3427,2.8312 -2.9772,2.9771 -1.6198,0.1448 -3.1338,-0.8998 -3.126,-2.5295 l 0.1492,-31.4586 c 0.007,-1.3719 -1.12,-0.8944 -1.4659,-0.2632 -5.9533,10.8589 -12.1377,21.9495 -18.5312,33.2495 -1.3292,2.3498 -4.3535,2.8467 -5.9937,0.3853 -6.2879,-9.4355 -12.7543,-18.6868 -19.4704,-27.6886 -0.373,-0.4999 -1.2642,-0.5849 -1.2576,0.5924 l 0.1492,26.8246 c 0.009,1.6339 -1.3405,2.8288 -2.9771,2.9771 -1.6223,0.1468 -2.9768,-0.8997 -2.9768,-2.5295 v -34.5312 c 0,-2.0347 1.0719,-3.069 2.5921,-3.5057 1.5202,-0.4366 3.5021,-0.2823 4.6836,1.2758 7.4389,9.8112 14.6528,19.5901 21.4708,29.3729 0.3545,0.5085 1.083,0.5223 1.3814,0.0224 7.5914,-12.7077 14.9972,-25.815 22.3759,-38.9611 0.9031,-1.6091 2.9184,-2.9273 4.8423,-1.847 0.8855,0.4969 1.2836,1.9476 1.2806,2.8992 z"
         style="fill:#000000;fill-rule:evenodd"
         id="path1125" />
      <path
         id="path1127"
         style="fill:#000000;fill-rule:evenodd"
         d="m 387.8538,239.7491 -0.0662,2.6701 c -0.0582,2.3516 0.2805,3.4164 2.6369,3.5573 l 3.6379,0.2178 c 4.0717,0.2435 5.8143,-5.1709 5.8143,-8.1972 v -3.1383 c 0,-3.0852 -5.6332,-3.2771 -5.6332,0 v 0.8959 c 0,1.0636 -0.6204,1.8243 -1.8216,1.7219 l -2.046,-0.1746 c -1.7339,-0.148 -2.4806,0.7589 -2.5221,2.4471 z" />
    </g>
    <path
       id="path847"
       style="fill:#f8e64a;fill-rule:evenodd"
       d="m 106.0958,486.3071 c 0.3154,8.405 -0.4456,16.6789 -2.4779,24.8195 -1.5933,6.3828 -3.6889,12.2165 -7.4759,17.7371 1.7165,4.1813 5.8969,7.6571 7.1712,9.6903 0.1197,0.7867 0.0236,1.4874 -0.0501,2.8909 l 2.3206,-0.0122 c 0.2605,-0.9344 0.3927,-1.9151 0.6744,-2.3866 0.4766,-0.798 1.0051,-0.1582 2.0222,0.342 0.4443,-0.4351 2.2764,-1.9678 2.9297,-1.696 0.6547,0.2722 2.3268,2.4406 2.5611,1.7602 0.6512,-1.893 0.9182,-2.5614 2.1248,-3.7232 1.2865,-1.2385 3.0216,-1.596 5.2831,-2.2997 l -1.5739,-2.2723 c -0.1048,-0.7977 0.9648,-3.3078 1.8117,-4.4576 0.3125,-0.5721 2.0717,-1.5921 3.3756,-2.4232 2.3507,-1.4985 2.0532,-1.7285 1.3444,-3.6313 -0.6061,-1.6265 -1.0976,-3.5716 -0.1609,-5.204 0.3937,-0.6861 0.9299,-1.4367 1.5355,-1.9903 1.4351,-1.3125 3.417,-1.3886 4.696,-3.2555 -0.4518,-0.9478 -0.6064,-2.4779 -0.0665,-3.6 0.7529,-1.5655 2.8837,-2.2824 4.2093,-3.3922 0.5581,-0.4671 2.0774,-1.6745 2.4713,-2.2737 0.1865,-0.5602 -0.0403,-4.3434 -0.142,-4.9158 -1.7196,-3.539 -0.6046,-5.4884 2.0627,-7.9555 0.9905,-0.9159 0.6619,-0.8553 -0.2429,-1.8109 -1.9798,-0.8827 -2.6071,-2.6658 -3.1147,-3.953 z m 302.9426,6.2972 -0.9182,11.9879 0.858,1.0349 -0.0197,4.1661 c 2.7354,-1.4668 4.8435,-0.9317 6.3389,0.299 1.6661,1.3713 1.052,3.4403 0.7174,5.2756 0.8655,0.3603 1.2355,0.2657 1.9249,1.297 1.5357,2.2982 0.3423,3.5913 -1.428,4.2977 0.0475,0.4969 -0.3602,1.0451 -0.2584,1.5578 0.0441,0.2217 1.8983,2.2012 2.0394,2.1926 0.3784,-0.0239 2.1508,-0.8073 2.4773,-1.006 1.8616,-1.1341 3.9246,-2.6471 6.2342,-1.9064 0.5583,0.179 1.0642,0.4784 1.4939,0.8768 1.0409,0.9657 1.605,2.1564 2.2027,3.4107 0.1415,0.2973 0.3349,0.7213 0.5473,1.0624 2.2406,-0.7359 9.2155,-3.5185 11.9235,-1.9753 2.1158,1.2054 2.6512,2.8745 3.4528,6.3998 2.0398,-1.368 2.9595,-1.4879 4.6537,0.1692 2.8097,2.7477 0.6184,6.4828 -1.1901,9.5719 -1.1087,1.8971 0.8672,1.1095 2.2069,0.444 1.7744,-0.9245 3.1937,-2.6306 3.7232,-4.2791 0.362,-1.1281 -0.2227,-2.2299 0.7096,-3.0363 0.0221,-0.02 0.0457,-0.04 0.0702,-0.0594 l -9.5125,-20.2144 c -0.7079,-11.5721 -1.2582,-23.1375 -1.9135,-34.6676 -1.4008,-24.6437 -2.6847,-49.128 -3.3821,-73.176 -0.114,-3.9345 -0.0636,-7.8585 -0.1441,-11.7688 -0.0902,-4.3792 -0.308,-8.7431 -0.3513,-13.0885 -4.8334,0.2494 -10.7011,0.9555 -17.1609,1.9284 -6.7069,1.0102 -13.7576,2.6104 -21.2532,3.9897 -9.3707,1.7243 -19.1929,3.3564 -28.1323,4.8587 l 1.0436,2.2717 1.2146,120.5835 -5.7991,13.5398 c -7.8317,-7.3936 -17.2435,-13.2267 -27.5462,-17.4077 2.4412,-0.1447 5.5236,-0.6792 7.7538,-0.0937 1.3498,0.3542 1.8831,3.5728 3.3952,3.7486 2.1991,0.2557 5.6081,-1.3101 7.8075,-0.1513 0.4056,0.2136 0.3665,0.8508 0.7706,1.6933 0.4548,0.9487 1.7255,1.2751 2.2582,2.4545 0.5554,1.2305 -0.1474,2.3708 -0.0782,3.5692 0.1149,1.984 1.1495,1.6483 1.7813,0.0839 l 3.4621,-7.7565 -0.3563,-62.1022 -61.871,7.5336 0.174,8.4019 0.7735,0.7434 0.1496,1.7837 -0.8703,0.009 0.0257,1.8192 0.6395,0.4229 -0.1056,1.2042 -0.915,0.1921 -1.5351,28.7492 c -1.9034,-0.0653 -3.8101,-0.0815 -5.7173,-0.0498 l 1.1603,-29.307 0.1972,-2.1946 1.029,-1.2373 -0.4614,-1.0672 -0.0719,-5.6182 -1.5441,-2.1424 0.4453,-1.8404 -1.1087,-2.2165 2.3937,-4.5516 3.1016,-0.0725 0.4345,-3.8689 -13.4305,-2.4548 -1.9186,-2.2803 -0.8935,1.5043 1.0565,0.7604 -0.2412,1.1657 -0.9925,0.268 -0.1451,2.4006 1.2868,0.1841 -0.1086,1.7195 -1.3077,0.2388 -2.0129,33.3545 -1.2501,2.796 -0.5387,15.7096 c -2.1015,0.3181 -4.1908,0.6971 -6.2652,1.1316 0.3718,-5.4015 0.5825,-11.9634 1.3561,-17.1399 l 0.6099,-0.2251 -0.5115,-1.0919 0.1504,-5.7218 1.2045,-0.8052 -0.0806,-1.2271 -1.3426,-0.8845 0.4587,-2.0407 1.211,-0.3307 1.8485,-31.9372 -18.1985,2.1057 -7.8953,56.9158 0.0391,0.0292 c 1.5477,0.1651 3.7089,0.1919 5.7218,0.1851 0.755,-0.002 1.6387,0.0113 2.3119,0.1247 2.6077,0.4402 2.548,2.6524 2.5782,4.7895 -2.4102,0.7559 -4.7863,1.5942 -7.1232,2.5089 l -0.4462,-2.4122 c -0.7529,0.0597 -1.2967,0.8451 -2.0783,0.9893 -1.1952,-0.4763 -2.4563,-0.8344 -3.1973,-0.9493 -1.4719,-0.228 -1.3701,-0.06 -2.4149,-0.3289 -0.0764,-0.2023 -0.2483,-1.6849 -0.4557,-1.8386 -1.8634,1.285 -4.2228,2.3623 -6.3873,2.9505 -1.0215,-0.1247 -2.9109,-1.6455 -3.4239,-2.4793 -0.1516,0.1737 -0.2832,0.3271 -0.3778,0.4345 -0.4664,0.5291 -0.6374,1.2078 -1.1406,1.7025 -1.3713,1.3486 -3.5737,2.1392 -5.4977,2.335 -0.669,-0.0893 -1.6598,-0.2767 -2.7562,-0.5882 -0.3955,1.6353 0.4628,3.5656 0.6863,5.2517 -0.3151,0.6052 -0.6526,0.7344 -1.0113,1.2758 -0.3584,0.5413 -0.741,1.4978 -1.1439,1.9646 -0.4838,0.5601 -1.0015,1.0639 -1.5515,1.4987 -0.1925,0.1522 -0.6691,-0.0714 -0.9601,0.228 0.3823,0.9332 1.4826,3.8384 2.0093,5.3854 -0.8275,0.8141 -2.2627,2.4844 -3.1033,3.5269 -1.1815,0.456 -2.4233,0.8544 -3.6158,0.8078 -2.2687,-0.0883 -4.3281,-0.0594 -5.3297,-0.2355 -0.6255,-1.353 -2.034,-3.7187 -2.6855,-5.4588 -0.0478,-1.8019 0.6786,-2.3263 1.4038,-3.3973 -0.1862,-1.559 0.2778,-4.706 0.3835,-6.4372 -0.2286,-0.0892 -0.5038,-0.1722 -0.6551,-0.2211 -2.1991,-0.7109 -4.4663,-0.7616 -4.8608,-3.3236 -0.5294,-1.5736 1.9762,-5.7167 3.5618,-8.02 -2.97,-0.7088 -5.6812,-1.587 -6.7496,-3.3508 -0.8305,-1.3715 -0.7509,-3.1922 1.4939,-5.6567 -2.2266,-1.5533 -3.636,-2.8106 -4.7262,-4.4481 0.0421,-2.3772 1.505,-5.8414 0.3933,-4.9082 -1.3599,1.1418 -2.545,2.0093 -3.5513,2.4531 -1.5282,0.6735 -2.5718,-1.508 -4.0541,-1.9625 -0.7595,-0.2331 -1.1191,0.7311 -1.0081,0.9326 0.353,0.6401 1.1039,1.0257 1.5005,1.4017 0.749,0.7109 1.5097,1.4235 2.2251,2.1684 1.1796,1.2283 2.2991,2.7488 1.2435,4.5567 -0.5986,1.0251 -1.4008,1.3785 -2.3641,1.7876 -0.5462,0.2322 -0.2051,0.7771 0.256,1.2242 0.5563,0.5398 1.2463,1.1241 1.4017,1.6989 0.2841,1.0517 0.1486,2.1454 -0.7183,3.1717 -1.2241,1.4734 -2.756,3.4776 -4.013,4.1246 l -2.2698,0.0621 c -0.416,0.8096 -0.8329,1.9457 -1.1367,2.345 -1.9407,0.8461 -4.649,2.6647 -5.7564,2.6525 -0.8613,-0.009 -0.7073,-0.525 -1.6945,-0.453 -1.0687,0.0778 -2.7647,1.0036 -3.463,1.7723 -0.2722,0.2999 -0.2107,0.6476 -0.4005,1.0326 -0.829,1.6837 -3.2549,2.5414 -5.0551,2.6894 -1.1537,0.6512 -1.0874,0.8356 -2.3958,1.169 -1.6885,0.4303 -3.2713,-0.1101 -4.7707,-0.8681 -1.6431,-0.8303 -3.0809,-2.631 -3.0156,-4.6314 0.0895,-2.7419 2.4155,-3.9246 5.6179,-5.1541 0.7978,-0.4835 0.1197,-0.6784 -0.3616,-0.7748 -1.7136,-0.3435 -3.2473,-0.6765 -3.9336,-2.5954 -0.6357,-1.7765 0.305,-3.3776 1.6201,-4.512 0.7921,-0.6828 1.7038,-0.8197 2.5758,-1.3966 1.4867,-0.9818 1.2056,-1.958 0.2047,-3.1645 -1.7751,-2.1395 -3.4,-3.8862 -4.1902,-6.3721 -0.7002,-2.5701 1.9517,-5.3658 3.4671,-7.1927 0.405,-0.488 1.3823,-1.6193 1.9407,-2.4463 -0.5241,-0.5524 -1.3033,-1.188 -1.6438,-1.4685 -1.1916,-0.981 -2.545,-2.0189 -3.4447,-3.2807 -0.3925,-0.5503 -0.3068,-0.3996 -0.5369,-1.003 -0.6604,-1.733 -0.1564,-3.448 0.4372,-5.1043 0.0952,-0.2659 0.3095,-0.8108 0.4238,-1.2275 -1.5486,-1.4557 -4.5257,-3.2827 -6.1877,-4.1693 -1.5682,-0.6139 -3.0374,-0.755 -3.9756,-2.0893 -0.582,-0.8282 -0.1439,-2.1842 0.1516,-3.1526 -0.3188,-0.8508 -1.3092,-1.9201 -1.9909,-2.6886 -0.934,-1.0531 -1.6849,-1.544 -2.9284,-0.1414 -0.5077,0.573 -1.5611,2.263 -2.3439,3.2418 -0.274,0.3423 -0.539,0.6921 -0.7926,1.0493 -0.1681,0.3226 -0.3256,1.2922 -0.4041,1.6581 -0.2534,1.1832 -0.5876,2.2997 -1.3161,3.2901 -0.8717,1.1842 -2.0487,2.3117 -3.0637,3.3854 -0.5425,0.5742 -1.3984,1.4567 -1.9033,2.206 0.4363,0.858 1.2602,2.3528 1.6676,3.8295 0.2856,1.0355 0.0534,1.0057 -0.3286,1.7028 -0.9526,1.188 -2.727,2.5346 -4.0467,3.7775 -1.4172,1.3349 -0.2713,1.2471 1.026,2.9464 1.8106,1.9144 3.6617,4.2114 2.3591,6.9859 -0.547,1.1648 -1.4575,2.0258 -2.3853,2.884 -0.257,0.2376 -0.9285,0.8237 -1.0872,1.1168 -0.1098,0.3023 -0.0526,1.2307 0.037,2.089 0.1065,1.0242 0.6732,1.7535 0.7586,2.3146 0.1758,1.1525 0.1707,4.2786 -0.4136,5.4418 -1.0078,2.0064 -3.284,4.0781 -4.994,5.6675 -0.1769,0.2495 0.0812,1.7252 -1.2044,3.5758 -1.5342,2.2084 -4.1726,4.4976 -5.8188,6.127 -0.9338,0.9246 -0.7076,0.8825 -0.1859,1.901 0.9526,1.8595 1.6327,3.6403 0.4897,5.7018 -0.7219,1.4343 -2.2755,2.5784 -5.6839,3.483 -1.1997,0.3181 -0.9027,0.9776 -0.0964,2.0093 0.3981,1.6455 0.6879,3.5785 -0.185,5.1339 -1.6709,1.4232 -4.369,2.2266 -6.2825,3.6005 -0.2698,0.1934 -1.1197,0.7583 -1.5545,1.6751 -0.2089,0.4408 -0.002,1.1743 -0.2633,1.5712 -0.5753,0.8741 -1.712,1.2791 -2.4408,1.5116 -2.1741,0.6944 -5.2691,-0.2456 -6.4425,-0.3125 -0.7082,1.554 -2.5441,3.9611 -3.8441,4.5773 -3.2895,0.1197 -3.887,-1.1653 -4.0914,-1.627 -0.693,0.1382 -1.4865,0.7455 -1.9631,0.7201 -1.0782,-0.5198 -0.1704,-1.8789 -0.4993,-2.9159 -1.6166,-0.0961 -1.1877,-2.7354 -1.2399,-4.629 -0.1642,-0.5413 -1.0186,-2.2788 -1.6715,-2.3877 -0.7449,-0.1244 -1.5229,0.7455 -2.0523,0.6679 -0.4116,-0.0603 -1.5271,-0.7849 -1.9368,-1.8661 l 0.6287,-2.2164 c -0.0543,-0.0528 -0.1104,-0.1024 -0.1495,-0.1361 -0.9624,-0.8359 -2.4781,-1.9977 -3.1254,-2.3764 l 0.2322,-3.8864 c 3.9867,-5.159 7.039,-12.2825 8.604,-18.5513 2.1075,-8.442 2.7464,-17.3981 2.183,-26.0693 l -0.1045,-1.6091 -0.4616,0.2187 -4.1595,4.1249 c -0.8371,-0.6165 -1.2525,-0.9138 -2.0604,-1.5685 l -3.7751,3.0105 -6.4437,-0.4458 c -1.9968,2.505 -5.29,5.4448 -8.1122,6.3139 -1.3865,0.4267 -2.9201,0.6052 -4.1252,-0.4644 -1.4271,-1.2668 -1.0257,-2.8178 -0.47,-4.3774 -0.4307,-0.6329 -1.1269,-1.6004 -1.3525,-1.8505 -1.7691,-1.9622 0.1131,-5.1354 2.6512,-4.1052 0.864,0.3506 1.9148,0.9296 2.7754,1.5873 0.7595,0.5802 1.576,1.6823 1.9273,2.4334 0.496,-0.4142 0.4079,-1.6016 0.8362,-2.0896 l 2.7055,-3.0833 8.2355,0.3061 c 0.0337,-0.1286 1.0102,-0.7953 1.029,-0.8794 0.1525,-1.5748 -0.1418,-2.9766 1.3286,-3.9309 0.9827,-0.4933 1.5611,-0.7007 2.6303,-0.3116 0.8792,0.3199 1.3131,0.8159 1.7984,1.4444 l 0.3823,-0.2256 0.105,-3.8077 1.6497,-0.9845 c 0.2092,-0.2107 0.6467,-1.3381 1.192,-1.3546 1.6422,-0.0501 3.3943,-0.225 5.2174,0.4283 6.6997,-6.9686 12.6716,-13.908 18.6799,-21.4797 l -0.1158,-3.2294 0.9433,-1.8475 0.1806,-4.3705 0.7246,-1.471 0.7541,-7.7747 3.9154,-2.223 c 2.1245,-0.5064 3.3964,-0.5344 5.2631,0.5626 l 7.3882,4.3412 -0.177,4.0736 37.2034,-9.3955 c 0.0976,-0.986 -1.1039,-0.5664 -1.0314,-0.9836 l 0.2456,-1.4104 c 0.2964,-1.7013 0.2236,-3.3543 2.1956,-3.4128 l 2.0854,-0.0618 0.9636,-0.8726 1.9485,-0.1653 c 2.3746,-0.3301 3.3531,-0.2322 4.4895,1.1484 0.5163,0.627 1.6599,1.7583 1.9413,2.8183 l 0.0931,0.4739 c 1.0063,0.3561 2.0264,-0.9961 3.047,-1.3921 0.9684,-0.3761 2.6966,0.3581 3.711,0.1536 -0.0681,-1.3041 0.5909,-1.3563 1.3877,-1.7279 -1.3149,-2.7646 -2.1123,-3.1147 -3.1685,-4.6722 -0.9615,-1.8037 -0.2127,-3.6408 0.5545,-4.2257 l 11.9109,-7.8693 0.1176,-5.1557 1.257,-0.7195 c 0.191,-1.9466 0.2089,-4.6599 -0.2635,-6.364 -0.6076,-2.191 -2.0299,-3.2054 -4.9444,-3.9351 l 0.7276,-3.6933 3.5981,-2.2499 11.169,-9.2922 -0.2814,-2.6724 1.1129,-1.4414 1.9171,-5.2288 4.6602,-0.0358 c 2.2147,0.2832 3.4702,1.1233 2.9569,3.3021 l -0.3844,1.6527 3.7322,9.1433 0.6613,1.9025 3.6775,5.426 c 0.8049,0.9314 1.226,1.3988 2.4824,2.8223 1.0809,1.3038 0.7935,3.4579 -0.1895,4.3388 l -2.9408,2.525 -0.2975,11.4376 1.1466,0.5978 -1.5802,1.4539 4.2657,6.2614 c 1.5429,-0.2785 3.0864,-0.7136 4.6287,-0.3877 0.5106,0.1077 1.0301,-0.6339 1.5428,-0.7261 0.9392,-0.1686 1.8796,0.1084 2.8184,-0.0606 1.593,-0.287 3.1869,-0.8412 4.7808,-1.2513 -0.0191,-0.1328 -0.0462,-0.2548 -0.0835,-0.3637 -0.43,-1.2508 -1.2609,-0.7676 -1.6903,-2.018 -0.718,-2.0893 -0.3113,-3.1574 1.6945,-4.079 l 3.9249,-1.8034 c 2.5402,-1.1671 2.5062,-1.7658 4.7212,-0.0516 l 3.9434,3.0523 5.0476,-1.7544 c 2.3263,-0.912 3.7564,-0.0663 4.8453,-0.032 3.2332,-2.2665 6.1614,-4.3522 10.5955,-6.352 3.0714,1.7288 4.9691,3.4009 6.971,5.4236 2.1361,-1.4682 4.0571,-2.707 7.3485,-3.5408 1.8043,-0.5766 5.1154,-1.2701 6.4222,0.5643 l 1.2611,1.77 5.0904,-0.4092 c 7.3992,-1.8899 14.8871,-3.3701 22.3777,-4.8441 9.3142,-1.8326 18.7351,-3.0639 28.0586,-4.8369 2.9497,-0.5611 3.8455,-2.4579 3.6357,-3.6474 l -1.9018,-4.6898 -2.2812,-2.8497 c -0.8004,-0.8329 -1.6826,-1.7527 -2.4191,-2.5343 -1.1618,-1.2331 -1.7219,-2.0663 -1.2871,-3.9007 0.2444,-1.0308 0.6541,-3.7328 1.1776,-4.3124 0.8747,-0.9678 2.3235,-0.436 3.585,-0.0868 l 0.1361,-6.5989 c -0.3402,-0.7878 -0.6831,-1.0528 -0.8052,-1.9027 -0.122,-0.85 -0.0233,-2.2845 0.5202,-3.0243 0.8717,-1.1869 2.7309,-1.5256 4.0771,-1.8455 l 10.6187,-2.9079 c 1.2528,-0.299 2.8548,-0.6894 4.1378,-0.0179 1.6374,0.8568 2.1627,3.7644 2.7494,5.4356 l 0.4294,0.0516 c 0.1967,-1.975 0.1349,-3.2764 -0.4443,-5.5102 0.5497,-0.405 1.1,-0.9597 1.6494,-1.3644 1.1086,-0.8171 1.6763,-0.7899 3.0628,-0.9111 1.1513,-0.1006 2.3038,-0.0531 3.4558,-0.1543 l 22.1267,-4.332 c 0.8392,-0.1644 1.6951,-0.0552 2.4507,0.3536 2.2627,1.2239 2.2397,4.0805 2.252,6.3011 6e-4,0.1355 -9e-4,0.3148 -0.002,0.516 l 4.4463,-1.271 -2.4689,-2.1884 c 0.1292,-1.4668 0.8287,-3.0395 1.7031,-4.3371 0.9317,-1.3829 2.2594,-0.0761 3.79,-0.3715 1.2185,-0.234 2.4451,-0.1707 3.674,-0.4017 2.0747,-0.3904 4.1628,-1.3182 6.2458,-1.7664 1.6199,-0.3486 3.2389,-0.3814 4.8477,-0.4892 l 7.376,6.2396 c 1.7536,1.4832 1.2988,2.8196 1.0711,3.5895 l -1.7438,5.8943 6.0916,7.1315 5.2598,14.6484 -3.8429,5.6633 c -0.3244,1.1302 -0.8156,2.294 -1.2474,3.4138 -0.2444,0.6329 -0.8691,1.2543 -0.9022,1.8448 -0.0641,1.149 0.7536,1.5307 1.391,2.5501 0.3823,0.6112 0.7016,1.8374 0.7249,2.5265 0.0325,0.9672 0.9594,1.9443 0.9764,2.9139 0.0335,1.8917 -0.2262,3.7876 -0.1939,5.6785 0.0209,1.24 -1.2973,1.2071 -1.2743,4.1744 0.01,1.2427 1.3913,2.0419 1.4115,3.2789 0.0329,1.995 -0.8206,4.8894 -0.7854,6.8841 0.0209,1.1961 0.9403,1.5005 0.9624,2.6984 l 0.0794,4.3138 0.4951,2.2851 -0.3393,6.1673 0.0847,4.5955 15.8857,10.4009 c 1.4647,0.9591 1.8682,1.017 2.2782,2.7002 l 6.515,26.1821 -0.801,1.088 c 0.6467,0.7285 1.3743,1.511 2.2953,2.2006 3.2893,2.6838 7.1327,6.8374 10.1364,10.3842 1.1573,1.3668 2.2997,2.747 3.4254,4.1401 0.6843,0.8466 2.884,1.4912 4.7969,1.7604 -0.202,-0.4046 -0.3894,-0.7648 -0.5142,-1.0066 -1.0862,-2.1075 -2.2707,-4.178 -3.4495,-6.2354 -1.305,-2.2776 -2.6351,-4.548 -3.8906,-6.8534 -0.7318,-1.3438 -2.0634,-3.7032 -2.1965,-5.2165 -0.1701,-1.9338 0.1233,-4.6964 -0.1038,-6.8597 -0.0522,-0.4987 0.008,-0.9669 -0.131,-1.3844 -0.2,-0.599 -0.2865,-0.7121 -0.3975,-1.4838 -0.0708,-0.4933 -0.0675,-2.2033 -0.0451,-3.4934 0.005,-0.2976 0.0113,-0.5736 0.0179,-0.8061 0.066,-2.3358 2.5743,-2.3131 4.1891,-2.2594 3.4958,0.1167 5.6659,0.4656 9.1623,0.5873 2.4415,0.0851 4.8319,0.2886 7.2772,0.4712 2.8718,0.2146 1.6008,-1.2501 1.0642,-1.3772 -7.5276,-1.7864 -12.9267,-4.8996 -12.5671,-9.9705 0.1337,-2.6566 3.3125,-4.3571 6.0199,-5.7755 1.459,-0.7646 1.4853,-1.3853 1.1492,-2.2224 -0.2014,-0.502 -0.7338,-0.7506 -0.9654,-1.4871 -0.5115,-1.627 -0.4172,-3.3615 0.9669,-4.6928 1.8312,-1.7607 7.6285,-0.8699 7.313,0.6267 2.5116,0.7252 1.5704,-0.5984 2.9363,-1.1108 1.7637,-0.005 3.5325,-0.1718 5.2055,0.8586 0.6249,0.385 1.0621,0.5291 1.4501,0.5074 0.6467,-0.0362 1.1588,-0.5342 2.1821,-1.1475 0.9233,-0.222 1.6103,-0.003 2.1967,0.4679 0.3516,0.282 0.3718,0.8073 0.6816,1.2311 0.2925,0.3996 0.9756,0.7034 1.1418,1.1758 0.1662,0.473 0.1197,0.9708 0.1477,1.4629 0.0952,1.6548 -0.8275,1.0528 -1.453,1.864 -0.2077,0.2697 -0.0167,0.6687 -0.3328,0.8582 -0.8654,0.5187 -3.0604,-0.6771 -3.8234,-0.5019 -1.217,0.279 -1.7835,1.6557 -2.451,1.168 -1.6689,-1.2185 -2.7363,-1.5052 -3.7644,-2.0284 -0.3373,0.4727 -0.6503,0.693 -1.4304,1.04 -1.7948,-0.2372 -3.1562,-0.3211 -4.298,-0.501 -0.2921,0.5428 1.3892,1.1298 1.3018,1.7452 -0.146,1.0257 -1.2012,2.4671 -1.0281,3.5916 -0.8479,0.5673 -3.5334,1.1835 -6.0399,2.6852 -0.7222,0.4328 -1.3131,-0.102 -1.7363,0.5083 0.6503,0.7926 2.0771,1.9475 4.3234,2.7989 3.514,1.3319 7.6263,1.9449 10.9801,3.7322 2.6718,1.4241 3.7169,4.765 1.8696,7.5968 -0.2659,0.408 -0.2322,0.3698 -0.5947,0.7147 -0.9762,0.9285 -3.537,0.7273 -5.1844,0.858 -0.8624,0.0684 -0.9633,0.6166 -1.6339,0.6345 -3.0672,0.0821 -6.7042,-0.3411 -9.7705,-0.448 -2.8512,-0.0993 -5.8707,-0.5076 -8.7058,-0.5655 -0.4888,-0.01 -0.3981,0.9496 -0.351,1.2889 0.08,0.5748 0.8076,0.6202 0.8783,1.1958 0.0549,0.4477 0.1077,1.6963 0.154,2.146 0.0376,0.3614 0.0713,0.7234 0.1009,1.086 0.0856,1.0562 0,2.0478 -0.131,3.0932 -0.0573,0.4581 -0.3507,0.9667 -0.3298,1.4432 1.5118,3.3081 3.5623,6.9529 5.2673,9.9291 1.3313,2.3239 2.9756,4.6713 4.178,7.0644 0.4524,0.9007 1.0594,2.098 1.4518,3.2964 0.8001,2.4442 0.847,5.079 -2.1925,5.4902 -1.9646,0.2657 -4.1765,-0.5085 -5.5072,-0.7311 -0.6998,-0.1173 -2.6581,0.1426 -3.5376,-0.0448 -1.6578,-0.5512 -3.0034,-1.7455 -4.4568,-3.5432 -1.0985,-1.3597 -2.0135,-2.3737 -3.143,-3.7077 -1.6059,-1.8965 -3.2356,-4.1458 -4.928,-6.0038 -1.8016,-1.9777 -3.6757,-3.557 -5.6689,-5.3082 -0.0782,0.4704 -0.1313,0.91 -0.157,1.2364 -0.1597,2.0428 0.1316,4.1548 1.1248,5.9698 0.6213,1.1352 1.5178,2.1935 2.4077,3.127 1.1952,1.254 2.4928,2.3814 3.7766,3.5316 0.2961,0.2653 1.7897,0.7986 2.0834,1.0683 1.6189,1.4889 2.9338,3.5427 2.0173,5.9856 -0.3739,0.998 -0.8624,1.6888 -1.6479,2.577 -0.4811,0.5452 -0.4014,1.4503 -0.1423,2.146 0.2127,0.5709 0.7416,0.9773 0.8747,1.5963 0.2823,1.3137 0.2841,2.6888 -0.4301,3.9204 -0.5392,0.9299 -1.3164,0.9646 -3.8223,0.7094 -0.9337,-0.0952 -0.5368,1.2943 -1.2931,1.3364 -1.5193,0.0844 -2.277,0.0307 -3.7981,-0.0105 -0.8287,-0.0227 -2.81,-0.1241 -4.1571,-0.0525 0.0439,0.4229 0.114,0.8657 0.1483,1.1015 0.1531,1.0543 0.7109,3.0198 0.1257,3.9351 -1.3812,2.16 -2.163,2.5304 -3.4147,3.3406 -0.812,0.5255 -2.4683,0.8428 -3.4098,0.9126 -0.3736,0.0278 -1.2361,0.0713 -1.8518,0.1692 -0.002,0.3969 0.0278,0.8517 0.0388,1.1009 0.08,1.8079 0.6336,2.3839 -0.6449,3.8456 -0.9221,1.2331 -2.3474,2.8312 -3.656,3.3886 -1.1899,0.3411 -3.3929,-1.4223 -4.925,-1.6712 -0.296,1.5008 -1.052,3.1228 -1.5366,3.828 -1.4077,2.0484 -3.0401,3.8235 -5.2992,4.9458 -1.0842,0.5387 -2.4468,0.9228 -3.6352,1.1356 -0.5395,0.0967 -1.308,-0.4313 -1.881,-0.4083 -0.6983,0.0278 -1.2044,0.5834 -1.8708,0.4289 -0.5483,-0.1269 -1.0049,-0.53 -1.477,-0.8309 -0.367,-0.2336 -0.7705,-0.3279 -1.0648,-0.6914 -0.5583,-0.6894 -0.8585,-1.5244 -0.9006,-2.408 -0.0988,-2.0658 1.9162,-5.3327 2.9368,-7.0767 0.1224,-0.2089 0.157,-0.5891 -0.3521,-0.7013 -1.2021,-0.265 -2.2869,2.1021 -3.4612,1.4441 -1.0063,-0.564 -1.776,-1.4268 -1.827,-2.3701 -0.0979,-1.8017 1.2337,-3.9029 0.2125,-4.7949 -1.5512,-0.8007 -3.8235,0.3119 -6.4491,1.2176 -1.0862,0.3748 -2.2886,0.8717 -3.2328,0.9245 -1.0072,0.0561 -1.0872,-0.8147 -2.0144,-1.0782 -0.5697,-0.162 -1.3773,0.3331 -1.8655,0.0104 -0.3713,-0.245 -0.4232,-0.8224 -0.7416,-1.1701 -0.496,-0.5416 -0.8574,0.2044 -1.3761,-0.5387 -0.5186,-0.743 -0.5297,-2.1761 -0.8574,-2.8168 -0.7702,0.783 -0.9514,0.9621 -1.5897,1.4336 -1.0642,0.7855 -2.5719,1.4611 -4.1246,1.5581 -2.0836,0.1809 -4.8751,0.3038 -6.9155,-2.1337 -0.9738,-1.1627 -0.5619,-2.4305 -0.8633,-3.5854 -0.3877,-1.4844 -1.3045,-2.0296 -0.9744,-3.1839 0.2295,-0.8028 1.7643,-2.0016 1.5664,-2.6399 -0.1987,-0.641 -0.3115,-0.3898 -0.5816,-1.0505 -0.1361,-0.3327 0.2566,-0.9129 0.2904,-1.3396 0.0432,-0.5488 -0.887,-0.958 -1.4,-0.6658 -1.5422,0.8782 -3.5856,2.4605 -5.3979,2.5312 -0.5456,0.0212 -1.0878,-0.0453 -1.6128,-0.1951 -1.5757,-0.4507 -2.69,-1.5301 -3.7438,-2.7196 -0.8254,2.6396 -1.9997,4.6964 -3.1746,5.486 -1.7068,1.1475 -4.5803,2.2427 -5.8997,0.8299 -1.4074,-1.5076 -1.6602,-0.55 -1.7279,0.9258 -0.2519,5.4791 -1.9461,7.6672 -5.6367,8.649 -1.4089,0.3746 -2.0481,1.2654 -2.0237,2.942 0.0239,1.5951 0.7112,3.4116 0.3429,4.4576 -0.082,0.2334 -0.1871,0.45 -0.3103,0.6544 -1.7638,-2.4313 -3.6719,-4.7462 -5.7126,-6.9396 0.1833,-0.8132 0.4214,-1.6226 0.935,-2.4967 1.6781,-2.8545 6.5684,-3.7569 6.7412,-7.5282 0.0872,-1.9027 -0.0364,-4.4206 1.4247,-5.8384 1.7061,-1.6554 4.5546,-0.5706 6.931,-0.5864 2.3233,-0.0156 2.172,-0.1522 2.6062,-2.0583 l 0.0224,-0.0991 c -1.2573,-0.7672 -3.26,-2.2084 -3.2762,-3.5617 l -0.0719,-6.0229 -0.7544,-1.2173 0.0445,-3.8068 c -2.1541,-1.1474 -0.6861,-5.2273 0.0919,-5.081 l 6.3726,-0.2695 c 0.491,-0.0848 1.0254,-0.7082 1.5596,-0.7282 0.5342,-0.02 1.0684,0.5637 1.559,0.4796 0.5518,-0.0946 1.2445,-0.7574 1.7593,-0.9078 0.6622,-0.1937 1.1456,0.119 1.8559,-0.003 1.4384,-2.2836 4.6018,-1.2036 6.2989,0.1352 z m -0.9967,17.7419 c -0.2349,-0.1334 -0.468,-0.2125 -0.6998,-0.2489 -0.5948,-0.0931 -1.0087,0.6124 -1.5919,0.8914 -0.5571,0.2668 -1.1689,0.447 -1.7747,0.5703 1.2009,1.3182 1.2101,0.6539 2.7834,-0.2444 0.4408,-0.3704 0.8685,-0.6915 1.283,-0.9684 z m -4.2643,-12.5672 -0.7762,8.8834 c -0.6565,0.0802 -1.4856,-0.3564 -2.1418,-0.2764 -0.8434,0.103 -1.3432,0.7243 -2.1872,0.8276 l -3.9506,0.4837 c -0.0627,-1.4214 0.305,-2.6706 0.2426,-4.0914 -0.0803,-1.8267 -1.7142,-2.8784 -0.6738,-4.7057 l 4.6486,0.0508 0.7368,-0.9284 z m 5.2933,-57.1486 c 0.0235,0.5489 -0.7148,0.8243 -0.787,1.3651 -0.0645,0.4804 -0.1077,0.9621 -0.1077,1.4432 0,0.2748 0.6899,0.5497 0.6899,0.8245 0,3.6656 0,7.8487 0,11.514 0.9461,1.0487 1.1618,1.3125 0.8894,1.9135 -0.2997,0.6617 -1.7954,3.3496 -2.956,3.6952 -1.1606,0.3459 -2.5056,-0.9592 -3.1081,-1.9001 -0.9046,0.3584 -3.7716,1.4471 -5.7117,1.9287 -1.3274,0.3295 -1.8087,0.3758 -2.5679,-0.29 -1.9944,1.7464 -3.2508,2.6032 -4.05,2.3185 -1.3328,-0.4745 -2.8461,-2.8575 -3.0222,-3.181 -0.0839,-1.5121 0.2629,-3.887 0.1793,-5.3986 -0.0361,-0.6529 -0.7732,-1.4587 -0.8269,-2.0752 -0.145,-1.6677 0.2584,-2.1526 0.245,-3.6946 -0.007,-0.7708 -0.3563,-1.5703 -0.6297,-2.397 -0.2733,-0.8266 -0.04,-1.5945 -0.0889,-2.4763 -1.0923,-0.0863 -1.3224,-3.7086 0.2587,-4.3123 2.0299,-0.2862 3.9032,-0.1907 5.7588,-0.5304 2.1036,-0.3846 4.1864,-1.2071 6.4524,-1.5357 0.6971,-0.1011 1.6652,0.1382 2.388,0.0293 0.4348,-0.0657 1.3904,-0.7333 1.8288,-0.7933 1.2948,-0.1772 2.5784,-0.1832 3.8398,-0.3611 0.4629,0.716 1.2394,1.9231 1.326,3.9136 z m -5.7245,1.8649 -0.1358,5.6938 0.3921,1.8019 0.5199,5.2687 -4.4752,-0.0737 -0.7986,0.7807 -4.6445,0.2417 c -0.2477,-1.6685 -0.4097,-3.5098 -0.6574,-5.1777 -0.2477,-1.6682 -0.5823,-3.1642 -0.8303,-4.8328 0.4677,-1.2414 0.0911,-1.2841 1.035,-1.6004 0.9057,-0.3032 2.3242,-0.2068 3.343,-0.4259 0.4202,-0.0904 1.3492,-0.8786 1.7521,-0.9809 0.5464,-0.1385 1.1152,-0.2194 1.5706,-0.2761 1.0021,-0.1253 1.9616,-1.3468 2.9291,-0.4193 z m -15.2014,-41.2712 c -0.0155,2.5671 -0.0328,5.6337 -0.0465,8.0829 -0.005,0.8938 0.4357,1.6396 0.4306,2.5331 -0.0161,2.6817 -0.4817,5.5275 -0.499,8.3417 0.1218,0.063 0.6321,0.3205 0.889,0.6885 0.2567,0.3679 0.2624,0.8484 0.5668,1.3566 0.5046,0.8416 1.4646,1.7649 2.0373,2.3895 5.0686,-1.5798 9.6724,-3.0762 14.5255,-4.6307 0.7929,-0.2539 1.6034,-0.2125 2.4328,-0.4709 1.1671,-1.1875 1.8765,-2.4895 2.2979,-3.6767 -0.0964,-1.8902 0.2912,-3.7816 0.2599,-5.6713 -0.008,-0.4909 -0.613,-0.9887 -0.6174,-1.4769 -0.0242,-2.6575 -0.248,-4.2604 -0.2274,-6.917 0.003,-0.4038 1.1217,-0.4462 1.1964,-1.2725 0.048,-0.5312 -0.9073,-1.0481 -1.1278,-1.4949 -0.2208,-0.447 0.2898,-0.8284 0.2865,-1.091 0.268,-0.9956 -4.0598,-2.451 -4.366,-1.6085 -1.9953,0.7899 -4.6952,2.168 -6.9164,2.7249 -1.3701,0.3432 -2.1344,-0.1796 -3.5976,-0.0892 -0.4867,0.0298 -0.9785,0.7935 -1.4656,0.7944 -1.5184,0.003 -3.0278,-0.2489 -4.4505,0.1092 -0.5362,0.4596 -1.0725,0.9192 -1.6085,1.3788 z m 16.8896,1.9756 0.1492,11.5701 -10.1451,2.6769 -1.7234,-1.0341 0.6852,-7.9295 -0.5703,-2.411 z m -62.8763,46.1091 -3.5827,0.4312 v 1.3567 c 1.1212,-0.0233 1.944,-0.0466 3.0652,-0.5175 l 0.4757,-0.533 z m -1.254,-9.1421 0.4312,-10.6945 -3.1049,-1.4662 -1.0116,-4.4848 -1.5292,0.1958 c -0.5461,2.1275 -2.1272,2.593 -1.6387,6.5314 l -2.1164,1.2937 v 4.7996 l -1.1212,0.3751 1.4963,1.38 -0.0233,3.7948 c 2.363,-0.2883 3.9262,-1.6975 4.6501,-0.8642 1.4089,-0.2298 2.4731,-1.3785 3.9677,-0.8607 z m 115.5398,-56.1095 0.1934,-0.285 -3.9342,-10.9568 -4.8924,-5.7274 -0.7721,-3.3559 -0.8636,-1.5676 1.4867,-6.1659 -2.3734,-2.5775 c -2.0615,0.2307 -4.1234,0.0143 -6.1843,0.2444 -2.6498,0.2958 -5.301,1.0406 -7.9514,1.337 -0.034,0.006 -0.0701,0.0131 -0.1077,0.02 -0.011,0.3291 -0.0167,0.6661 -0.0355,0.9731 l 0.3709,4.2049 -2.6145,2.5737 -6.8988,1.2196 c -0.889,0.2462 -1.8183,0.1785 -2.6417,-0.2509 -2.3071,-1.2039 -2.2257,-4.1124 -2.2382,-6.3354 -9e-4,-0.177 0.002,-0.4354 -9e-4,-0.7186 l -23.1912,4.5403 -0.0308,2.699 c -0.0209,1.8714 0.3283,4.0634 -3.4295,4.3481 l -1.6644,0.1262 -1.2954,0.6288 c -1.4567,0.7067 -4.3753,0.2379 -5.0351,-2.1839 l -0.8944,-3.2809 -9.8777,2.3609 c 6e-4,0.0289 10e-4,0.057 0.002,0.0841 l 0.3026,11.4415 -1.6978,0.2152 c -0.1113,0.4166 -0.0409,0.8001 0.1074,1.1358 3.7761,-0.5805 7.5527,-1.1782 11.3281,-1.8279 4.6507,-0.8001 9.3032,-1.7401 13.9534,-2.4438 16.0504,-2.4289 32.1023,-4.4132 48.1536,-6.8436 z m 6.0951,149.2113 c 0.5447,0.0902 1.0836,0.2364 1.6414,0.3984 0.8299,0.2412 1.2671,-0.4276 1.2343,-1.1812 -0.0827,-1.8929 -1.0669,-3.4343 -0.1453,-4.5531 1.0674,-1.2656 2.4551,-1.8359 3.9476,-2.1925 1.3358,-0.3194 2.3128,-0.0935 3.7053,-0.34 -0.1594,-1.9818 -0.4396,-5.6904 0.3966,-6.8313 1.0734,-1.3379 3.4272,-2.8694 5.0211,-2.9392 1.1367,-0.0496 4.9733,0.4431 8.0161,0.6592 -0.8129,-2.1812 -1.1934,-3.9393 -0.7189,-5.894 0.5362,-2.2092 0.6073,-2.1066 -1.0532,-3.8067 -1.2964,-1.3274 -2.2866,-2.1037 -3.4391,-3.4761 -1.2418,-1.3027 -2.411,-2.7339 -3.2773,-4.3174 -1.4095,-2.5758 -1.9619,-5.4845 -1.847,-8.3924 0.0116,-0.3003 1.1624,-0.402 1.1883,-0.7025 0.3814,-1.9583 -0.9982,-1.4036 -0.8768,-2.0693 0.2677,-1.4653 0.7184,-3.0458 1.3686,-4.1228 0.2832,-0.4686 0.7476,-0.9673 1.2302,-1.3597 l -6.0292,-23.2372 -19.1887,-12.9336 c -0.1603,-4.0634 0.778,-8.0827 0.7034,-12.0783 -0.017,-0.9204 -1.0797,-1.8446 -1.0932,-2.7635 -0.0104,-0.6992 -0.0232,-1.4023 -0.0325,-2.1015 -0.008,-0.6231 0.8759,-1.2486 0.8684,-1.8715 -0.007,-0.6222 -0.9129,-1.2489 -0.92,-1.8699 -0.026,-2.18 0.091,-3.9142 0.0656,-6.0945 -0.007,-0.6103 0.428,-1.2317 0.4187,-1.8413 -0.0229,-1.4823 -1.5243,-1.8417 -1.5243,-5.0539 0,-3.677 1.8201,-5.4885 1.9478,-7.4512 0.123,-1.893 -1.5139,-2.0726 -1.8347,-3.9829 -0.1066,-0.6353 0.8538,-1.2754 0.8287,-1.9144 -0.0316,-0.7983 -1.8121,-0.9964 -1.8774,-2.3946 -0.1042,-2.2289 1.2304,-2.6608 1.1779,-3.9912 -0.0552,-1.3963 -0.1101,-2.7927 -0.165,-4.189 l -5.4034,-7.1674 c 0.1262,2.9079 0.2486,5.8158 0.368,8.7234 0.0453,1.1072 0.5389,2.2164 0.5834,3.323 0.0471,1.1681 0.2041,2.3367 0.2092,3.5048 0.005,1.168 -0.1409,2.337 -0.1024,3.5044 0.4712,14.2778 0.83,28.557 1.4817,42.8338 1.0603,23.225 2.4227,46.4529 3.4848,69.6794 z m -90.0441,-146.3607 69.7641,-11.8166 -0.9717,-1.2889 c -14.9155,2.3081 -29.8319,4.0199 -44.7468,6.3267 -8.3661,1.294 -16.7344,3.186 -25.1015,4.4806 z m -1.8774,59.2388 -0.2603,-45.4045 c -10.5038,1.9792 -21.1016,3.4191 -31.5896,5.4827 -7.4634,1.4689 -14.9283,2.9417 -22.2989,4.8334 l -0.2355,0.0603 -8.7798,0.439 c -1.3011,-1.8261 -1.3041,-3.8778 -3.8372,-2.7888 -0.5177,0.2226 -1.0743,0.5112 -1.6324,0.8275 -0.969,0.5494 -1.3196,1.9878 -1.222,3.528 5.0735,5.9018 9.2283,12.2604 13.1798,19.363 1.2229,2.1985 3.4095,5.4529 4.4454,7.6335 1.8246,3.8402 1.1982,4.4269 -3.0162,6.6231 l -2.3937,1.1952 -0.9207,5.3714 13.4836,-1.6073 c 0.0875,-1.4982 0.003,-2.7918 0.0699,-4.3813 0.0155,-0.3658 -1.4152,-0.8729 -1.3976,-1.2405 0.0358,-0.7476 0.7443,-0.6721 0.9102,-1.4197 0.2134,-0.9615 0.1704,-2.1272 0.1874,-3.0696 0.008,-0.4677 -0.8609,-1.5566 -0.8648,-2.0165 -0.004,-0.4849 -0.0194,-0.9669 -0.0448,-1.4405 -0.034,-0.633 1.0899,-0.6801 1.1096,-1.3149 0.0257,-0.8174 -0.9878,-1.1934 -0.961,-2.0105 0.0636,-1.9404 0.1328,-4.3323 0.1976,-6.2739 0.0239,-0.7144 0.1862,-1.5679 1.4513,-1.8691 -1.0845,-0.7627 -1.3409,-1.3885 -1.3224,-1.9445 0.0594,-1.773 0.12,-3.548 0.1794,-5.3222 0.0257,-0.7634 0.7941,-0.4644 1.0278,-0.7443 0.2336,-0.2799 -0.0651,-1.1439 0.8045,-1.2546 0.5736,-0.0728 1.183,-0.0307 1.7405,0.1158 0.5577,0.1468 0.2399,1.3307 1.4387,1.1967 0.9729,-0.1086 0.6043,2.5495 0.7685,4.4618 0.1945,-1.0857 1.0848,-1.2391 1.031,-2.3382 -0.0916,-1.8768 0.063,-2.5506 -0.0265,-4.6361 0.9636,-3.5972 4.6847,-2.3576 6.7513,-0.4401 l 0.1128,2.422 c 0.2027,0.1435 0.7431,0.0627 1.2702,0.5249 0.4649,0.408 0.9218,1.3406 1.1292,1.8142 -0.1537,-3.3185 0.2955,-4.053 1.1069,-4.2461 2.2063,-0.5249 2.1902,1.0974 3.4856,2.0497 0.4951,0.364 0.2009,3.0654 0.2692,5.0434 0.0278,0.8013 1.1003,1.6115 1.1236,2.4125 0.1107,3.7916 -0.2486,7.5846 -0.5563,11.3761 -0.0567,0.7019 -0.2569,1.4047 -0.2945,2.1066 -0.0328,0.6124 1.1949,1.2349 1.1379,1.8443 l -0.2817,2.9975 c -0.1042,1.1119 -0.7724,1.5163 -1.5703,2.3489 1.5458,0.005 0.8615,1.815 0.8735,2.6477 z m -105.0035,-30.307 -4.2658,-4.3884 -2.0884,1.1388 0.5306,4.6896 1.1531,1.4739 -0.8159,0.547 -0.1211,5.5747 z m -11.3854,17.0493 -0.0603,-0.004 0.8359,-11.6593 c -0.6855,0.0558 -1.3713,0.1283 -2.0568,0.245 -2.1722,0.3704 -4.3457,1.1892 -6.5186,1.5602 l -1.8857,-0.2313 -0.4035,0.8365 c -1.8965,0.1731 -3.7928,0.3462 -5.689,0.0713 l -6.8116,-10.998 c 0.1889,-1.297 0.2289,-2.2955 0.2689,-3.5925 l 0.4025,-13.0733 3.5182,-3.1188 -2.203,-2.3403 -0.2823,-1.1839 -3.5552,-4.0846 -0.0916,-1.7189 -3.7145,-7.0069 -0.6351,-0.541 -0.177,2.8249 -13.4755,10.7748 c 2.4131,1.109 3.5471,2.357 3.9052,3.9378 0.2379,1.0478 0.0134,2.0209 -0.3754,2.9926 -0.0991,0.248 -0.3662,1.0976 -0.2412,1.4006 0.4593,1.1137 1.1914,1.5613 1.8608,2.5641 l -2.0231,2.6843 -0.2208,6.6395 c -4.3049,3.5373 -8.1442,5.7707 -12.6352,8.6559 0.8597,1.4757 2.1305,3.8265 3.3451,5.0966 l -1.5038,1.277 c -0.0537,1.1107 0.2581,2.4092 -0.3167,3.5005 -0.6819,1.2955 -1.7893,3.0631 -3.1979,3.3472 -0.6983,0.1409 -2.4206,-0.5383 -3.1186,-0.3975 -0.698,0.1409 -1.3961,0.7294 -2.0941,0.8702 -0.7431,0.1498 -1.4862,10e-4 -2.2293,0.151 -0.9224,0.186 -1.8845,0.7897 -2.8323,0.8932 -0.9479,0.1036 -1.8819,0.006 -2.7483,-0.6126 -1.1477,-0.8195 -1.2226,-2.0816 -1.234,-3.4236 l -0.007,-0.8664 -3.2273,0.6444 -0.0617,6.0491 -43.434,10.6107 c -3.0037,0.7031 -3.7205,-0.9553 -3.6704,-3.5642 l -0.0633,-4.1377 -2.7697,-1.5456 c -1.3468,-0.7517 -1.2489,-0.6213 -2.5516,0.2167 l -0.3029,4.0336 -0.6111,2.1003 -0.975,9.9529 c -1.3659,1.7273 -3.0628,3.3233 -4.4869,5.0724 -6.1733,7.5807 -12.5522,15.2554 -19.2923,22.0193 l -0.3479,0.3492 -0.8974,0.4255 36.3672,-4.648 2.2236,-2.428 -1.7032,-4.9584 7.1137,-9.1227 c 0.1522,-1.1403 -0.1033,-1.9813 0.7094,-3.129 1.4154,-1.9992 3.844,-5.2067 6.1954,-6.9364 1.2196,-0.8971 2.7327,-1.4277 3.8172,-1.6372 l 2.3626,1.2573 c 2.3066,1.8762 3.8065,4.4815 6.0725,8.0797 2.214,0.9651 4.3734,2.5724 5.8023,3.6787 1.3271,1.0272 3.4218,2.4668 4.2965,3.4394 0.4238,0.4715 0.4471,2.0526 0.265,3.1568 -0.2381,1.4444 -0.972,2.6491 -1.2728,4.0547 l 0.1024,0.1104 0.9463,-0.1101 c 9.2053,-1.0713 18.3024,-2.1573 27.4623,-3.6002 8.955,-1.4107 17.8569,-3.1795 26.7736,-4.8107 9.519,-1.7416 19.0446,-3.3239 28.6633,-4.4057 l 2.0251,-14.598 -7.4897,-9.7476 z m 36.2606,-22.7143 c -0.558,4.7271 -1.3748,6.8403 -1.9505,11.3325 -0.1486,1.1588 -0.1895,3.0165 -0.2337,4.7626 l 19.4373,6.9543 c -5.0217,-8.6153 -10.0923,-16.3327 -17.2531,-23.0494 z m -6.843,15.5359 1.209,-15.761 -7.3727,5.3524 -3.7587,-2.5746 -1.1749,0.2227 -0.4387,3.1749 -8.072,13.0062 z m 1.5957,5.4774 -23.7331,4.1404 4.685,5.62 22.5275,-2.6062 20.2923,5.7131 c 1.5163,-0.6825 2.6447,-1.448 3.3645,-2.9685 z m -26.513,33.1883 c -9,1.06 -17.9228,2.5518 -26.8383,4.183 -8.9631,1.6399 -17.9103,3.4162 -26.9118,4.834 -8.273,1.3032 -16.4951,2.3188 -24.7905,3.2926 0.6679,1.217 1.2507,2.4593 1.5966,3.2624 -1.4922,3.0526 -3.0965,4.8736 -5.6839,7.983 1.1573,2.8413 4.5699,5.1714 5.5812,8.3106 0.8732,2.7124 -1.542,4.5991 -3.5674,5.9641 1.9243,0.7246 3.1219,1.3731 3.129,2.5895 0.003,1.0138 -0.248,2.7488 -1.0749,4.0742 -0.496,0.7947 -1.3916,1.4435 -2.0299,1.7004 0.1211,-0.007 1.6243,0.1955 1.7544,0.1913 3.1356,-1.5402 4.1745,-3.9816 5.1667,-4.4502 0.9338,-0.1608 2.7486,0.0212 3.6928,0.0218 0.2134,0 0.5551,-0.0206 0.8523,0.002 1.0884,0.0847 0.4909,-3.5961 2.3051,-4.7692 0.6923,-0.4479 2.2997,-0.9028 3.1248,-0.903 1.6208,-0.003 2.466,-0.4098 1.2499,-1.6059 -1.0726,-1.0552 -2.8596,-2.8777 -1.7957,-5.4329 0.3722,-0.8941 1.8727,-1.0033 2.5975,-1.3647 -0.6562,-0.6216 -1.7634,-1.3964 -2.3898,-2.0457 -1.1009,-1.1418 -2.1609,-2.5292 -1.4306,-4.247 0.541,-1.2719 1.3936,-2.0994 2.4438,-3.158 0.9863,-0.9946 2.1499,-2.3975 3.3946,-2.8333 0.593,-0.2074 1.2287,-0.2548 1.8449,-0.1295 1.2588,0.2567 2.0637,1.1263 2.7044,2.004 0.2348,-0.2516 0.456,-0.5136 0.5768,-0.6569 1.3982,-1.6583 2.779,-3.8222 5.2443,-3.6298 1.0096,0.0785 1.7456,1.0317 2.451,1.7506 0.907,0.9246 1.6695,1.7584 1.8721,2.9455 0.3187,1.8655 -0.3116,3.8468 -0.1089,7.4387 0.504,1.2104 4.3021,0.9057 4.8512,3.3671 0.4169,1.8685 -1.4906,3.2947 -1.2707,4.5932 0.2,1.1817 1.6575,1.071 2.9912,1.6115 1.0373,0.4202 2.0018,1.4136 2.243,2.5778 0.672,2.1389 -0.4483,5.0011 -1.9115,7.6109 1.2791,1.382 3.58,2.6652 4.2058,3.9703 0.755,1.5751 0.279,3.5187 -0.1066,5.1732 -0.287,1.2299 -0.2336,2.5722 -0.541,3.8829 -0.0803,0.3426 -0.3059,0.9296 -0.5097,1.4963 -0.51,1.4187 0.4205,1.3692 0.5959,1.6071 0.411,0.0704 1.2606,-0.0944 1.861,-0.4402 0.063,-1.1409 -0.9827,-2.2782 -1.4008,-3.509 -0.2187,-0.6443 -0.1579,-1.3151 0.0916,-2.0254 0.2277,-0.6494 0.5548,-0.9093 0.9398,-1.385 0.4948,-0.6112 1.0881,-1.3862 1.693,-1.7434 0.8362,-0.4942 1.6989,-0.647 2.3632,-1.3827 l -1.3921,-1.4011 -0.1484,-5.0175 c 0.2922,-0.5213 1.1135,-1.3274 2.0529,-2.26 1.2081,-1.1994 2.6137,-2.5119 3.3454,-2.6691 1.2821,1.3542 1.7208,2.1042 3.4699,1.926 1.0728,-0.1089 2.2036,-0.974 2.8655,-1.7332 0.7505,-0.8604 0.9878,-1.6733 1.4131,-2.6501 0.8218,-0.5855 0.8347,-0.3053 1.8807,-0.3524 0.5873,-0.0266 1.7881,-1.4271 3.0075,-0.8273 0.9356,0.8285 1.0287,1.5883 1.9807,2.4919 0.9257,0.009 2.6265,-0.1823 2.676,-1.1874 0.6431,-0.2531 1.7855,-0.4728 2.7253,-0.5148 z" />
    <path
       id="path851"
       style="fill:#f8e64a;fill-rule:evenodd"
       d="m 300.6272,510.9147 c 46.2431,-1.3274 83.7449,30.9919 83.7449,72.1727 0,41.1805 -37.5018,75.6527 -83.7449,76.9801 -46.2434,1.3274 -83.7449,-30.9919 -83.7449,-72.1727 0,-41.1806 37.5015,-75.6527 83.7449,-76.9801 z m 0.0513,1.79 c -3.6382,0.1044 -7.2611,0.4208 -10.8485,0.946 -7.5894,2.2949 -14.9743,5.1968 -21.669,9.5402 -0.3861,0.2504 -0.7693,0.5049 -1.1501,0.7631 4.8892,3.3307 9.2164,7.3488 13.3902,12.4635 6.5049,-0.3939 13.2354,-0.1125 19.6895,0.4119 6.3159,0.513 12.731,1.2993 19.009,2.4253 5.5872,-4.1407 11.5779,-8.6858 17.8846,-12.8071 -3.5242,-3.1559 -7.259,-6.0715 -11.2472,-8.6004 -2.294,-1.4545 -4.5922,-2.7166 -6.9367,-3.8647 -5.9742,-1.0289 -12.058,-1.4521 -18.1218,-1.2778 z m -24.0039,3.8637 c -8.4685,2.5423 -16.561,6.313 -23.9608,11.2756 -13.0695,8.7645 -23.7013,21.1109 -29.4487,35.8401 -3.0178,7.7335 -4.5923,15.906 -4.5923,24.2107 0,0.8726 0.0179,1.7434 0.0526,2.6115 l 1.1734,0.6706 c 1.7118,-10.9437 5.7003,-18.2516 12.2406,-27.4555 -0.2494,-7.5753 1.8987,-15.0333 5.6938,-22.6236 8.7293,-7.1468 16.8069,-12.5442 25.068,-16.4014 1.394,-1.0504 2.8196,-2.0567 4.2852,-3.0075 3.0425,-1.9738 6.2186,-3.6555 9.4882,-5.1205 z m -36.7841,119.5588 c 4.7134,4.4791 10.0255,8.345 15.747,11.5221 7.0701,3.9261 14.6898,6.7555 22.5567,8.5094 4.2145,0.0474 7.8228,-0.0552 11.5012,-0.4462 -1.0451,-4.5388 -1.5166,-8.9776 -1.3555,-13.6003 -10.9544,-5.4138 -19.7572,-12.0485 -26.9935,-19.9389 -8.7308,2.3256 -18.6426,1.7616 -26.8288,-1.3868 0.5178,5.4675 2.5307,9.9964 5.3729,15.3407 z m 59.9963,22.1676 0.689,-0.0173 c 17.049,-0.4891 33.7789,-5.6263 47.9648,-15.1396 0.615,-0.4124 1.2247,-0.8332 1.8284,-1.2612 -0.5016,-0.1414 -0.997,-0.2862 -1.4837,-0.4351 1.6506,-4.6489 2.1424,-9.3133 2.0812,-14.3666 -5.9593,1.3614 -12.3398,1.8842 -18.0681,1.5625 -4.5296,-0.2545 -9.1403,-1.0492 -13.4245,-2.6354 -3.3048,3.1935 -7.6727,5.7979 -12.6901,8.3062 -5.0474,2.5229 -10.4397,3.8557 -16.6452,7.618 -0.1937,4.8566 0.3357,9.4921 1.5112,14.2667 2.2824,0.804 4.959,1.5133 8.237,2.1018 z m 79.9838,-56.4992 c 1.7876,-6.0665 2.7109,-12.3487 2.7109,-18.7082 0,-10.4549 -2.4937,-20.6095 -7.3178,-29.8829 -0.2414,-0.4641 -0.4885,-0.9245 -0.7404,-1.3817 -2.5089,-1.5835 -5.0894,-2.7077 -7.8726,-3.5337 -0.4679,5.6624 -1.5622,14.6036 -3.0105,21.2532 3.6823,6.1464 6.2786,13.8895 7.6374,20.3549 0.635,3.0219 1.0982,6.1617 1.2973,9.3075 z m -7.1274,-53.0153 c -6.6284,-10.6769 -16.1197,-19.3355 -27.126,-25.4474 -6.5001,-3.6095 -13.4649,-6.2915 -20.6582,-8.0635 0.5795,0.3441 1.1585,0.6989 1.7368,1.0657 5.3959,3.4214 10.3355,7.5317 14.9206,11.9902 8.3348,5.7499 16.8825,11.2362 23.5759,17.727 2.9333,0.7231 5.3908,1.6441 7.5509,2.728 z m -10.431,22.0315 c -9.2642,-0.9448 -18.4107,-1.7718 -27.6722,-2.7139 -3.7849,5.3831 -7.82,10.5736 -12.101,15.5816 -3.5534,4.1565 -7.2551,8.1528 -11.0457,12.0819 3.5904,7.5496 6.7492,17.4082 8.3685,28.4737 4.1813,1.5829 8.707,2.3656 13.1372,2.6145 6.2562,0.3513 13.3427,-0.3372 19.7282,-2.0573 7.3083,-6.7777 13.7146,-15.2148 18.1314,-24.0707 -0.1292,-3.5269 -0.6219,-7.071 -1.3334,-10.4561 -1.2886,-6.1327 -3.7459,-13.5412 -7.213,-19.4537 z m -89.4387,23.2787 c -8.3831,-9.0445 -13.215,-17.8321 -15.2879,-30.4586 -7.968,0.8672 -16.268,1.4886 -24.2327,1.4722 -6.7386,9.5198 -10.6462,16.9746 -12.0473,29.0237 2.9088,10.0914 6.6636,16.9331 12.2403,24.3208 8.1245,3.5957 18.4385,4.3827 27.4042,1.9782 2.1451,-8.3217 6.5096,-17.1978 11.9234,-26.3363 z m -13.603,-31.2557 c 2.0359,12.9748 6.9851,21.7185 15.769,30.948 11.8131,0.5721 23.1668,0.5566 35.0067,0.8995 3.8208,-3.956 7.5523,-7.9791 11.1317,-12.1661 4.1664,-4.8739 8.097,-9.9219 11.7894,-15.1536 -4.7808,-8.8147 -9.9502,-17.6291 -14.7349,-26.4435 -6.0453,-1.0633 -12.2132,-1.8115 -18.2869,-2.3051 -6.3747,-0.5181 -13.0303,-0.7986 -19.4557,-0.4083 -6.2047,5.7099 -16.5047,16.9466 -21.2193,24.6291 z" />
    <g
       id="g996">
      <path
         id="path855"
         style="fill:#eed700;fill-rule:evenodd"
         d="m 262.7186,181.6378 v 46.6854 c 0,1.6372 -1.4331,2.8237 -3.1857,3.0013 -1.7441,0.1766 -3.1852,-0.8756 -3.1852,-2.5053 v -46.9638 l -13.7244,0.4691 c -1.4006,0.0475 -2.1392,-0.8747 -2.1314,-2.1182 l 0.0298,-4.6815 c 0.008,-1.2895 0.9222,-2.2141 2.1016,-2.2543 l 33.8272,-1.1562 c 1.2373,-0.0423 2.0642,0.8473 2.0628,2.121 l -0.005,4.3048 c -0.002,1.4755 -0.8774,2.5883 -2.0583,2.6283 z" />
      <path
         id="path857"
         style="fill:#eed700;fill-rule:evenodd"
         d="m 159.067,181.7984 15.4347,-2.2236 c 7.655,-1.1027 12.7811,4.2771 12.7811,11.1379 v 27.7838 c 0,3.7924 -1.5861,14.0178 -14.4424,14.3476 l -12.7373,0.3271 c -11.8226,0.3032 -14.951,-7.0197 -14.951,-11.7098 v -24.6479 c 0,-9.9165 8.3581,-14.2144 13.9149,-15.0151 z m 16.0659,5.8975 -16.0597,1.3683 c -5.0479,0.4298 -7.8179,3.0085 -7.8179,7.4223 v 23.1631 c 0,4.6794 2.9846,5.5836 5.9334,5.5225 l 15.1282,-0.314 c 5.2145,-0.108 8.8628,-2.0556 8.8628,-7.6448 v -23.9209 c 0,-2.2433 -1.6136,-5.974 -6.0468,-5.5965 z" />
      <path
         id="path859"
         style="fill:#eed700;fill-rule:evenodd"
         d="m 449.5639,184.1989 -13.9426,-2.4053 c -7.609,-1.3128 -14.2733,3.5024 -14.2733,11.15 v 26.7719 c 0,3.5915 2.2896,13.1495 15.9347,13.5937 l 11.2451,0.3099 c 11.8217,0.2873 14.951,-6.6508 14.951,-11.0945 v -23.8008 c 0,-9.3955 -8.3921,-13.572 -13.9149,-14.5249 z m -13.3201,5.2962 13.3139,1.8865 c 5.004,0.7089 7.8179,2.8558 7.8179,7.0323 v 22.3941 c 0,4.4324 -2.9855,5.3194 -5.9334,5.2323 l -15.1282,-0.4467 c -5.213,-0.1539 -8.8628,-1.7983 -8.8628,-7.094 v -22.5148 c 0,-5.3737 3.6432,-7.2186 8.7926,-6.4897 z" />
      <path
         id="path861"
         style="fill:#eed700;fill-rule:evenodd"
         d="m 411.3978,178.3852 -22.6299,-2.26 c -7.6923,-0.7684 -14.2732,4.406 -14.2732,12.044 v 30.6511 c 0,3.5892 2.2895,13.1494 15.9346,13.5937 l 3.3475,0.1221 v -2.411 c 0,-3.9482 6.7874,-3.7172 6.7874,0 v 2.6581 l 10.6599,0.3883 c 2.1034,0.0764 2.8282,-0.4423 2.8282,-2.4848 v -4.0109 c 0,-2.1722 -0.6941,-2.2895 -2.8503,-2.3683 l -21.8906,-0.8013 c -7.2987,-0.2671 -8.4151,-2.1158 -8.4151,-8.8496 v -23.4461 c 0,-5.3738 2.701,-7.1503 7.8713,-6.6212 l 22.7484,2.3298 c 1.271,0.1301 2.2379,-0.5604 2.2379,-1.9457 v -3.9393 c 0,-2.0899 -0.4264,-2.4555 -2.3561,-2.6489 z m -23.544,61.3639 -0.0662,2.6701 c -0.0582,2.3516 0.2805,3.4164 2.6369,3.5573 l 3.6379,0.2178 c 4.0717,0.2435 5.8143,-5.1709 5.8143,-8.1972 v -3.1383 c 0,-3.0852 -5.6332,-3.2771 -5.6332,0 v 0.8959 c 0,1.0636 -0.6204,1.8243 -1.8216,1.7219 l -2.046,-0.1746 c -1.7339,-0.148 -2.4806,0.7589 -2.5221,2.4471 z" />
      <path
         id="path863"
         style="fill:#eed700;fill-rule:evenodd"
         d="m 298.126,222.4271 20.711,-0.0125 c 1.114,-6e-4 2.0195,0.7962 1.9962,2.132 l -0.0847,4.7832 c -0.0257,1.4575 -0.9479,2.1385 -1.9115,2.1388 l -20.7975,0.0123 c -3.5665,0.002 -9.0496,-1.1108 -12.5525,-4.5666 -2.2451,-2.2149 -3.8035,-6.1429 -3.8035,-10.6121 v -41.5614 c 0,-1.6378 1.6378,-2.9771 3.2752,-2.9771 1.6301,0 2.9772,1.3474 2.9772,2.9771 v 39.2026 c 0,2.6999 0.4434,4.8465 1.43,6.1067 1.8843,2.4063 5.3598,2.3791 8.7601,2.377 z" />
      <path
         id="path865"
         style="fill:#eed700;fill-rule:evenodd"
         d="m 348.2944,231.4776 -5.3413,0.003 c -4.6075,-0.1284 -8.9013,-1.1114 -12.4033,-4.5666 -2.2445,-2.2141 -3.9527,-6.1429 -3.9527,-10.6121 v -41.5614 c 0,-1.6378 1.3393,-2.5295 2.9768,-2.5295 1.63,0 3.2756,0.9019 3.2756,2.5295 v 39.2026 c 0,2.6617 0.6443,4.523 1.613,5.8056 1.5061,1.995 3.5164,2.6002 7.1673,2.6707 l 12.897,0.3058 c 4.1717,0.0988 5.9208,-0.6917 7.5326,-2.8273 0.9657,-1.2799 1.613,-3.297 1.613,-5.9548 v -37.5612 c 0,-1.625 1.3471,-2.0819 2.9772,-2.0819 1.6374,0 3.2752,0.8917 3.2752,2.5295 v 39.4724 c 0,4.4692 -1.7097,8.3995 -3.9527,10.6121 -3.5006,3.4537 -7.7958,4.4382 -12.4033,4.5666 z" />
      <path
         id="path867"
         style="fill:#eed700;fill-rule:evenodd"
         d="m 196.5568,176.5547 c 1.5492,0 2.8363,1.7118 3.7194,2.9019 l 28.0577,37.8154 c 0.4539,0.6115 1.5073,0.8237 1.5073,-0.658 v -39.4857 c 0,-1.6378 1.2066,-2.7351 2.8599,-2.982 1.6458,-0.2459 3.1589,0.5978 3.1589,2.2263 v 50.6464 c 0,1.0872 -0.203,2.9679 -1.0729,3.611 -1.3101,0.9681 -3.5465,0.656 -4.6579,-0.8565 l -29.4645,-40.0862 c -0.6231,-0.8481 -1.5115,-0.4586 -1.5115,0.5375 v 39.7881 c 0,1.6372 -1.3394,2.9771 -2.9772,2.9771 -1.63,0 -2.9768,-1.1982 -2.9768,-2.8279 V 179.946 c 0,-1.9147 1.143,-3.3913 3.3576,-3.3913 z" />
      <path
         id="path869"
         style="fill:#eed700;fill-rule:evenodd"
         d="m 472.9023,187.8917 c 1.5491,0.1232 2.8864,1.6558 3.7193,2.7592 8.8654,11.7428 18.2355,23.4857 28.5054,35.2285 0.4718,0.5394 1.5073,0.819 1.5073,-0.4388 v -28.4467 c 0,-1.3904 0.4635,-2.2288 2.1138,-2.3046 1.6429,-0.0756 3.4573,1.0602 3.4573,2.4394 v 35.8321 c 0,0.9201 -0.2053,2.5054 -1.0728,2.9801 -1.3075,0.7159 -3.4794,0.2342 -4.6579,-1.0973 -8.6037,-9.7199 -20.2037,-23.5031 -29.4645,-35.3275 -0.607,-0.7754 -1.5116,-0.5071 -1.5116,0.3361 v 32.583 c 0,1.3873 -1.3393,2.4209 -2.9771,2.2907 -1.63,-0.1296 -2.9768,-1.2538 -2.9768,-2.6373 v -41.5848 c 0,-1.6254 1.1429,-2.7881 3.3576,-2.6121 z" />
      <path
         id="path871"
         style="fill:#eed700;fill-rule:evenodd"
         d="m 139.0197,188.3193 -0.1492,42.7381 c -0.005,1.6357 -1.3427,2.8312 -2.9772,2.9771 -1.6198,0.1448 -3.1338,-0.8998 -3.126,-2.5295 l 0.1492,-31.4586 c 0.007,-1.3719 -1.12,-0.8944 -1.4659,-0.2632 -5.9533,10.8589 -12.1377,21.9495 -18.5312,33.2495 -1.3292,2.3498 -4.3535,2.8467 -5.9937,0.3853 -6.2879,-9.4355 -12.7543,-18.6868 -19.4704,-27.6886 -0.373,-0.4999 -1.2642,-0.5849 -1.2576,0.5924 l 0.1492,26.8246 c 0.009,1.6339 -1.3405,2.8288 -2.9771,2.9771 -1.6223,0.1468 -2.9768,-0.8997 -2.9768,-2.5295 v -34.5312 c 0,-2.0347 1.0719,-3.069 2.5921,-3.5057 1.5202,-0.4366 3.5021,-0.2823 4.6836,1.2758 7.4389,9.8112 14.6528,19.5901 21.4708,29.3729 0.3545,0.5085 1.083,0.5223 1.3814,0.0224 7.5914,-12.7077 14.9972,-25.815 22.3759,-38.9611 0.9031,-1.6091 2.9184,-2.9273 4.8423,-1.847 0.8855,0.4969 1.2836,1.9476 1.2806,2.8992 z" />
      <path
         d="m 387.8538,239.7491 -0.0662,2.6701 c -0.0582,2.3516 0.2805,3.4164 2.6369,3.5573 l 3.6379,0.2178 c 4.0717,0.2435 5.8143,-5.1709 5.8143,-8.1972 v -3.1383 c 0,-3.0852 -5.6332,-3.2771 -5.6332,0 v 0.8959 c 0,1.0636 -0.6204,1.8243 -1.8216,1.7219 l -2.046,-0.1746 c -1.7339,-0.148 -2.4806,0.7589 -2.5221,2.4471 z"
         style="fill:#eed700;fill-rule:evenodd"
         id="path874" />
    </g>
    <g
       id="g1041">
      <path
         d="m 229.13086,247.8125 c -1.12876,-0.005 -2.25701,0.0222 -3.38086,0.0781 -8.8908,0.4416 -18.60252,2.70493 -25.26172,8.98633 -2.42326,2.28537 -4.24934,4.82687 -5.60351,7.56446 -1.39994,-2.87652 -3.28208,-5.48797 -5.7168,-7.61133 -6.8176,-5.9465 -16.08582,-7.062 -24.79492,-6.6582 -8.6198,0.3993 -18.28086,2.42454 -24.93946,8.27734 -2.23406,1.96367 -3.96271,4.14322 -5.28906,6.49414 v -11.14453 l -55.380858,3.08398 v 47.32813 l 27.794918,1.4082 v -11.54883 l 26.5586,0.72461 c 1.29455,2.57427 3.14826,4.99132 5.74804,7.38086 6.8504,6.296 17.20612,9.25781 26.38672,9.25781 8.4148,0 18.23405,-2.26555 24.65235,-8.00195 2.09735,-1.87427 3.69495,-4.04373 4.90234,-6.40039 1.24022,2.28069 2.90282,4.46835 5.10938,6.64453 6.8292,6.7344 17.26227,10.04688 26.73437,10.04688 8.6819,0 18.57132,-2.53765 24.98242,-8.68555 6.7639,-6.4867 8.29102,-16.18107 8.29102,-25.13477 0,-1.17054 -0.0488,-2.36285 -0.14063,-3.5625 h 6.1875 v 36.26563 h 28.34375 v -36.26563 h 9.82227 v 35.68164 h 37.63672 c 6.07272,0 12.825,0.16803 18.2832,-2.90039 l -0.53711,2.09571 h 27.77149 l 1.77734,-7.64649 12.16602,-0.40625 1.52929,7.11914 20.92774,-0.78515 v 0.11914 l 45.0625,-2.30664 v 0.0977 l 47.98242,-2.99609 v -19.53906 l -20.47852,-0.0117 v -29.25781 l -27.5039,-1.68164 v 31.64062 l -17.41016,0.12695 v -32.59961 l -27.65234,-1.61328 v 32.94141 l -8.53321,-33.21875 -39.93359,-1.21289 -9.27734,36.17187 c -1.40421,-2.38254 -3.46228,-4.24869 -5.96094,-5.56054 5.1957,-2.787 8.74002,-8.02023 8.39062,-14.61133 -0.2606,-4.9187 -1.88413,-9.47123 -5.86523,-12.58203 -4.3547,-3.4024 -10.28507,-4.07314 -15.63477,-4.11524 l -42.74023,-0.32422 v 0.41993 h -51.67383 v 7.38476 c -0.49892,-0.57156 -1.01514,-1.12707 -1.57227,-1.64844 -5.97091,-5.58862 -13.85847,-7.27403 -21.75976,-7.30859 z m 102.20898,21.35742 h 6.06055 c 0.7711,0 2.4835,0.10806 3.0332,0.78516 0.2513,0.3095 0.29688,0.85101 0.29688,1.22851 0,0.3676 -0.0427,0.97084 -0.30078,1.26953 -0.4936,0.5709 -2.03448,0.66211 -2.70508,0.66211 h -6.38477 z m -105.65625,2.79688 c 0.9043,-0.0247 1.9008,0.081 2.6875,0.56445 2.4569,1.51 2.69727,6.78726 2.69727,9.25586 0,3.2824 -0.69843,10.06161 -5.39063,9.75781 -0.8162,-0.0528 -1.66838,-0.21231 -2.39648,-0.59961 -2.6283,-1.3991 -2.9806,-5.92237 -3.0293,-8.48047 -0.054,-2.8324 0.23541,-8.12911 3.00391,-9.84961 0.7306,-0.4539 1.57693,-0.62483 2.42773,-0.64843 z m -61.39257,0.55078 c 0.9132,-0.0235 1.89534,0.0974 2.68164,0.59765 2.3332,1.485 2.61328,6.1876 2.61328,8.5918 0,3.3758 -0.7921,8.989 -5.3086,8.7168 -0.8953,-0.054 -1.85557,-0.22594 -2.64257,-0.67774 -2.2919,-1.3158 -2.62829,-5.11378 -2.67579,-7.42578 -0.0764,-3.7434 0.44044,-9.67673 5.33204,-9.80273 z m 230.91796,2.10937 1.91602,9.16602 h -3.87891 z m -264.37695,0.61719 c -0.0222,0.16513 -0.0444,0.33004 -0.0644,0.49609 l -24.20899,0.13086 v -0.36328 z m 200.50781,13.9043 h 6.73828 c 1.8279,0 3.54688,0.40649 3.54688,2.49609 0,2.0726 -2.11169,2.36328 -3.80469,2.36328 h -6.48047 z"
         style="fill:#eed700;fill-rule:evenodd"
         id="path878" />
      <g
         id="g1029">
        <path
           d="m 82.345,300.8064 v -40.5357 l 48.2175,-2.6864 v 14.0822 l -27.5853,0.2985 v 7.5072 l 27.3175,-0.1493 v 11.8138 l -27.3175,-0.7464 v 11.461 z"
           style="fill:#ffffff;fill-rule:evenodd"
           id="path880" />
        <path
           d="m 134.0499,280.2334 c 0.1403,-8.3017 2.4952,-14.4768 7.7482,-19.0941 5.2663,-4.6292 13.3579,-6.9549 22.74,-7.3894 9.6339,-0.4464 17.0636,1.232 22.2765,5.7788 5.1998,4.5349 7.8162,12.2535 7.8162,20.4394 0,8.9359 -1.8954,16.1307 -7.1122,20.7931 -5.2168,4.6623 -13.7549,7.0907 -22.2664,7.0907 -8.9839,0 -18.2024,-3.0184 -23.9639,-8.3134 -4.9258,-4.5275 -7.4094,-9.1964 -7.2384,-19.3051 z m 21.3288,2.1604 c 0.1725,8.4279 3.7342,11.3071 8.6837,11.6056 4.9494,0.2984 9.1042,-3.5066 9.1042,-12.2929 0,-8.7864 -3.1697,-12.9175 -8.9675,-12.7683 -5.7979,0.1492 -8.9929,5.0276 -8.8204,13.4556 z"
           style="fill:#ffffff;fill-rule:evenodd"
           id="path884" />
        <path
           d="m 198.2188,280.362 c 0.0621,-3.9388 -0.3098,-6.7464 -1.5757,-10.7165 1.2554,-3.9954 3.3157,-7.3468 6.3018,-10.1635 5.3227,-5.02 13.5008,-7.5425 22.9831,-8.0137 9.7369,-0.4842 17.246,1.336 22.5147,6.267 5.2555,4.9181 7.8998,13.2889 7.8998,22.1665 0,9.6909 -1.9156,17.4936 -7.1882,22.5499 -5.2727,5.0563 -13.902,7.6898 -22.5045,7.6898 -9.08,0 -18.397,-3.2733 -24.2201,-9.0157 -2.6449,-2.6086 -4.5934,-5.2603 -5.8125,-8.8168 0.9941,-2.9652 1.5204,-6.8082 1.6016,-11.947 z m 18.4519,2.1703 c 0.1743,9.1401 3.7742,12.2626 8.7765,12.5863 5.0024,0.3236 9.2016,-3.8029 9.2016,-13.3316 0,-9.5288 -3.2036,-13.5614 -9.0634,-13.3996 -5.8599,0.1619 -9.089,5.0049 -8.9147,14.1449 z"
           style="fill:#ffffff;fill-rule:evenodd"
           id="path888" />
        <path
           d="m 256.0445,261.81 v -8.8443 h 47.8985 v 19.792 H 290.7336 V 309.024 H 269.5524 V 272.7577 H 259.434 c -0.8314,-3.6495 -1.6627,-7.2982 -3.3895,-10.9477 z"
           style="fill:#ffffff;fill-rule:evenodd"
           id="path892" />
        <path
           d="m 472.3355,303.5963 -4e-4,-45.8673 20.3407,1.2434 5e-4,29.4675 20.4796,0.0126 v 12.5941 z"
           style="fill:#ffffff;fill-rule:evenodd"
           id="path900" />
        <path
           d="m 405.634,306.5914 -1.5279,-7.1059 -17.9027,0.5969 -1.7557,7.5535 h -20.3124 l 13.8462,-53.9834 34.3775,1.0444 13.1388,51.1484 z m -4.1017,-19.2176 -4.971,-23.9129 -2.6084,-0.0678 -5.1364,23.9807 z"
           style="fill:#ffffff;fill-rule:evenodd"
           id="path904" />
        <path
           d="m 427.2727,297.9643 v -42.6911 l 20.4903,1.1947 v 32.8294 l 20.3301,-0.1493 v 14.6087 l -38.9099,1.9928 z"
           style="fill:#ffffff;fill-rule:evenodd"
           id="path906" />
        <path
           d="m 327.7583,285.5678 v 12.0212 h 10.0615 c 4.6259,0 7.3861,-2.285 7.3861,-5.944 0,-3.6589 -2.5897,-6.0772 -7.1286,-6.0772 z m -20.0411,22.872 v -55.8671 l 39.1313,0.2983 c 9.1152,0.0715 17.3596,2.1187 17.9523,13.3052 0.4217,7.9572 -6.3613,13.0137 -13.7021,13.0517 v 2.6981 c 6.9063,0.3441 12.5567,3.8784 13.2419,10.7551 l -2.7351,10.5831 c -4.5648,5.6083 -13.7024,5.1756 -19.8315,5.1756 z m 20.0411,-42.8507 v 11.1064 h 9.9669 c 4.192,0 6.5866,-1.8109 6.5866,-5.5128 0,-3.7019 -2.5157,-5.5936 -6.9116,-5.5936 z"
           style="fill:#ffffff;fill-rule:evenodd"
           id="path908" />
      </g>
    </g>
  </g>
</svg>
