<?xml version="1.0" encoding="UTF-8"?>
<svg width="218" height="400" version="1.2" viewBox="0 0 207.58 380.89" xmlns="http://www.w3.org/2000/svg" xmlns:cc="http://creativecommons.org/ns#" xmlns:dc="http://purl.org/dc/elements/1.1/" xmlns:rdf="http://www.w3.org/1999/02/22-rdf-syntax-ns#">
 <metadata>
  <rdf:RDF>
   <cc:Work rdf:about="">
    <dc:format>image/svg+xml</dc:format>
    <dc:type rdf:resource="http://purl.org/dc/dcmitype/StillImage"/>
    <dc:title>royal-excel-mouscron-logo-svg</dc:title>
   </cc:Work>
  </rdf:RDF>
 </metadata>
 <title>royal-excel-mouscron-logo-svg</title>
 <defs>
  <linearGradient id="grd1" x1="428.41" x2="428.61" y1="416.81" y2="362.89" gradientUnits="userSpaceOnUse">
   <stop stop-color="#f4f4f4" offset="0"/>
   <stop stop-color="#c8caca" offset=".49"/>
   <stop stop-color="#fff" offset="1"/>
  </linearGradient>
  <linearGradient id="grd2" x1="425.25" x2="425.5" y1="302.22" y2="224.07" gradientUnits="userSpaceOnUse">
   <stop stop-color="#5d676c" offset="0"/>
   <stop stop-color="#000001" offset=".49"/>
   <stop stop-color="#5f696e" offset="1"/>
  </linearGradient>
  <linearGradient id="grd3" x1="428.96" x2="428.96" y1="774.77" y2="736.76" gradientUnits="userSpaceOnUse">
   <stop stop-color="#555f63" offset="0"/>
   <stop stop-color="#000001" offset=".49"/>
   <stop stop-color="#5a6367" offset="1"/>
  </linearGradient>
  <linearGradient id="grd4" x1="460.01" x2="495.82" y1="676.37" y2="676.37" gradientUnits="userSpaceOnUse">
   <stop stop-color="#c9cdcd" offset="0"/>
   <stop stop-color="#fff" offset="1"/>
  </linearGradient>
  <linearGradient id="grd5" x1="512.82" x2="542.52" y1="565.72" y2="565.77" gradientUnits="userSpaceOnUse">
   <stop stop-color="#ced0d1" offset="0"/>
   <stop stop-color="#fff" offset="1"/>
  </linearGradient>
  <linearGradient id="grd6" x1="424.61" x2="450.3" y1="676.6" y2="676.6" gradientUnits="userSpaceOnUse">
   <stop stop-color="#ced0d1" offset="0"/>
   <stop stop-color="#fff" offset="1"/>
  </linearGradient>
  <linearGradient id="grd7" x1="301.87" x2="375.14" y1="624.05" y2="624.05" gradientUnits="userSpaceOnUse">
   <stop stop-color="#f4f4f4" offset="0"/>
   <stop stop-color="#d8d9da" offset=".08"/>
   <stop stop-color="#fff" offset="1"/>
  </linearGradient>
  <linearGradient id="grd8" x1="348.26" x2="377.54" y1="520.05" y2="520.05" gradientUnits="userSpaceOnUse">
   <stop stop-color="#d3d4d4" offset="0"/>
   <stop stop-color="#fff" offset="1"/>
  </linearGradient>
  <linearGradient id="grd9" x1="407.8" x2="449.66" y1="573.83" y2="573.83" gradientUnits="userSpaceOnUse">
   <stop stop-color="#d7d9da" offset="0"/>
   <stop stop-color="#f4f4f4" offset=".5"/>
   <stop stop-color="#e2e3e4" offset=".69"/>
   <stop stop-color="#fff" offset="1"/>
  </linearGradient>
  <linearGradient id="grd10" x1="327.11" x2="554.43" y1="587.05" y2="586.94" gradientUnits="userSpaceOnUse">
   <stop stop-color="#ced0d1" offset="0"/>
   <stop stop-color="#f4f4f4" offset=".4"/>
   <stop stop-color="#fff" offset="1"/>
  </linearGradient>
  <linearGradient id="grd11" x1="183.14" x2="683.54" y1="532.62" y2="532.62" gradientUnits="userSpaceOnUse">
   <stop stop-color="#821517" offset="0"/>
   <stop stop-color="#dc1e25" offset=".5"/>
   <stop stop-color="#821517" offset="1"/>
  </linearGradient>
  <linearGradient id="grd12" x1="208.66" x2="652.13" y1="576.33" y2="576.33" gradientUnits="userSpaceOnUse">
   <stop stop-color="#03060c" offset="0"/>
   <stop stop-color="#6e797f" offset=".49"/>
   <stop stop-color="#000001" offset=".54"/>
   <stop stop-color="#6a767b" offset="1"/>
  </linearGradient>
  <linearGradient id="grd13" x1="324.74" x2="524.85" y1="132.03" y2="132.86" gradientUnits="userSpaceOnUse">
   <stop stop-color="#02060c" offset="0"/>
   <stop stop-color="#6a767b" offset=".5"/>
   <stop stop-color="#000001" offset="1"/>
  </linearGradient>
  <radialGradient id="grd14" cx="425.83" cy="20.755" r="15.997" gradientUnits="userSpaceOnUse">
   <stop stop-color="#717c82" offset="0"/>
   <stop stop-color="#636c73" offset=".5"/>
   <stop stop-color="#000001" offset="1"/>
  </radialGradient>
 </defs>
 <style>tspan { white-space:pre }
		.shp0 { fill: #550e0c } 
		.shp1 { fill: url(#grd1) } 
		.shp2 { fill: #000001;stroke: #000001;stroke-width: 0.567 } 
		.shp3 { fill: url(#grd2);stroke: #231f20;stroke-width: 0.567 } 
		.shp4 { fill: #020205 } 
		.shp5 { fill: none;stroke: #231f20;stroke-width: 0.567 } 
		.shp6 { fill: #42474a;stroke: #231f20;stroke-width: 0.567 } 
		.shp7 { fill: url(#grd3);stroke: #231f20;stroke-width: 0.567 } 
		.shp8 { fill: url(#grd4) } 
		.shp9 { fill: #e11e25 } 
		.shp10 { fill: url(#grd5) } 
		.shp11 { fill: url(#grd6) } 
		.shp12 { fill: url(#grd7) } 
		.shp13 { fill: url(#grd8) } 
		.shp14 { fill: url(#grd9) } 
		.shp15 { fill: url(#grd10) } 
		.shp16 { fill: #4d110f } 
		.shp17 { fill: url(#grd11) } 
		.shp18 { fill: #ffffff } 
		.shp19 { fill: url(#grd12) } 
		.shp20 { fill: url(#grd13) } 
		.shp21 { fill: url(#grd14) }</style>
 <g transform="matrix(.4367 0 0 .4367 -84.161 3.3637)">
  <g fill-rule="evenodd">
   <path id="Layer" class="shp0" d="m573.28 433.54-4.86-47.57-7.31 45.72-9.05-1.56 10.26-63.03 12.49 2.08 3.96 39.44 6.11-37.9 8.76 1.56-10 62.9zm-54.53-54.44c1.38-12.26 7.31-17.16 17.49-15.88 10.67 1.34 14.15 8.6 13.05 18.22l-3.65 31.88c-1.28 11.25-7.24 15.53-16.31 14.81-11.32-0.91-15.13-8.63-14.08-18.01zm20.7-0.33c0.19-1.64 0.26-5.94-4.29-6.43-5.22-0.57-5.81 3.41-5.96 4.68l-3.9 34.29c-0.13 1.1-1.15 7.2 4.47 7.72 4.73 0.43 5.55-4.13 5.69-5.41zm-79.81 0.84 0.11-7.51c0.02-1.84-0.42-5.67-5.15-5.66-4.82 0-5.16 3.88-5.24 6.52l-1.06 34.46c-0.12 3.65 2.18 5.86 4.85 5.91 5.12 0.1 5.47-4.48 5.51-5.54l0.36-9.52 9.63 0.25-0.36 9.33c-0.45 11.66-9.01 14.83-15.13 14.71-10.9-0.21-15.13-6.55-14.86-16.82l0.76-28.95c0.36-13.96 4.51-19.43 15.4-19.44 11.57-0.02 15.02 8.59 14.82 14.94l-0.23 7.68zm-49.4 22.57 0.03 4.22c0.01 1.47-0.13 6.4 5.09 6.45 4.99 0.04 5.26-4.12 5.29-5.66 0.12-7.03-5.13-11.05-8.38-14.01-9.36-8.54-11.28-12.34-11.56-19.6-0.39-9.7 4.13-16.9 15.02-16.77 11.55 0.13 14.68 8.49 14.6 17.98l-9.5 0.05-0.13-3.17c-0.05-1.26-0.24-5.67-5.02-5.68-5.25-0.02-4.94 5.35-4.94 5.61 0.02 5.33 2.56 9.02 5.69 11.73 12.81 11.1 14.3 15.2 14.3 24.61 0 5.91-3.46 14.05-14.51 14.14-12.53 0.11-15.83-7.66-15.51-19.85zm-39.59-43.12 2.29 48.48c0.28 5.93 2.85 6.59 5.47 6.52 2.38-0.07 5.31-1.16 5-7.15l-2.52-48.43 9.47-0.26 2.48 48.77c0.53 10.37-5.37 15.74-13.29 16.23-11.48 0.71-16.16-5.45-16.65-15.58l-2.3-48.16zm-49.53 20.79c-1.09-12.29 3.74-18.27 13.97-19.05 10.73-0.82 15.58 5.6 16.42 15.25l2.8 31.96c0.98 11.29-4 16.67-13.03 17.77-11.28 1.37-16.55-5.44-17.39-14.84zm20.22-4.46c-0.14-1.64-0.93-5.86-5.49-5.44-5.22 0.48-5.01 4.5-4.9 5.77l3.02 34.38c0.1 1.11 0.31 7.28 5.92 6.67 4.72-0.52 4.61-5.15 4.5-6.43zm-33.85 53.21-6.26-45.29-0.5 46.3-9.5 1.27-13.51-43.5 6.29 44.46-8.81 1.21-8.85-63.02 13.99-2.2 13.43 44.04 0.53-45.84 13.88-1.95 8.81 63.28zm189.29-4.4c-1.49-3.42 0.6-14.54 0.35-21.06-0.21-5.55-5.57-5.56-9.33-5.63l-1.84 25.86-10.15-0.67 4.66-63.71 17.07 1.35c7.52 0.59 12.5 5.97 11.88 14.48l-0.56 7.58c-0.36 4.97-3.45 9.75-7.68 10.81 6.34 2.35 6.57 10.71 5.64 19.39-1.09 10.21-0.35 10.65 0.31 12.34zm1.96-41.33 0.54-8.32c0.11-1.79-0.52-4.3-3.06-5.06-1.41-0.42-3.64-0.53-6.38-0.6l-1.31 19.39c3.94 0.74 6.54 0.43 8.04-0.64 1.8-1.28 2.09-3.53 2.17-4.77z"/>
   <path class="shp1" d="m571.88 431.66-4.87-47.57-7.31 45.72-9.05-1.56 10.26-63.03 12.49 2.08 3.96 39.44 6.11-37.9 8.76 1.56-10 62.91zm-54.54-54.44c1.38-12.26 7.3-17.16 17.49-15.88 10.67 1.34 14.15 8.6 13.05 18.22l-3.65 31.88c-1.28 11.25-7.24 15.53-16.31 14.81-11.32-0.91-15.13-8.63-14.07-18.01zm20.7-0.33c0.19-1.64 0.26-5.93-4.29-6.43-5.22-0.57-5.81 3.41-5.96 4.68l-3.9 34.29c-0.13 1.1-1.14 7.2 4.47 7.72 4.73 0.43 5.55-4.13 5.69-5.4zm-79.81 0.84 0.11-7.51c0.02-1.84-0.42-5.67-5.15-5.66-4.82 0-5.17 3.88-5.25 6.52l-1.06 34.46c-0.11 3.65 2.19 5.85 4.86 5.91 5.12 0.1 5.47-4.48 5.51-5.54l0.36-9.52 9.63 0.25-0.36 9.32c-0.45 11.67-9.01 14.84-15.13 14.72-10.9-0.21-15.13-6.55-14.86-16.83l0.76-28.94c0.36-13.96 4.5-19.43 15.4-19.45 11.57-0.02 15.02 8.59 14.82 14.94l-0.23 7.69zm-49.4 22.57 0.03 4.22c0.01 1.47-0.13 6.4 5.09 6.45 5 0.04 5.26-4.12 5.29-5.66 0.13-7.03-5.13-11.05-8.38-14.01-9.36-8.54-11.28-12.34-11.56-19.6-0.39-9.7 4.13-16.9 15.02-16.77 11.55 0.13 14.68 8.49 14.6 17.98l-9.5 0.05-0.13-3.17c-0.05-1.26-0.24-5.67-5.01-5.68-5.26-0.02-4.94 5.35-4.94 5.61 0.01 5.33 2.55 9.02 5.68 11.72 12.81 11.11 14.3 15.21 14.3 24.62 0 5.91-3.45 14.04-14.51 14.14-12.53 0.11-15.83-7.66-15.51-19.85zm-39.59-43.12 2.3 48.48c0.28 5.94 2.84 6.59 5.46 6.52 2.38-0.07 5.31-1.16 5-7.15l-2.52-48.43 9.47-0.26 2.48 48.77c0.53 10.37-5.37 15.74-13.29 16.23-11.48 0.71-16.16-5.44-16.65-15.58l-2.3-48.16zm-49.53 20.79c-1.09-12.29 3.74-18.27 13.97-19.05 10.73-0.82 15.58 5.6 16.43 15.25l2.79 31.96c0.98 11.29-4 16.67-13.03 17.77-11.28 1.37-16.55-5.44-17.39-14.84zm20.22-4.46c-0.14-1.64-0.93-5.86-5.48-5.44-5.23 0.48-5.02 4.5-4.9 5.78l3.01 34.37c0.1 1.11 0.32 7.29 5.92 6.67 4.72-0.51 4.61-5.15 4.5-6.43zm-33.85 53.21-6.26-45.29-0.5 46.3-9.49 1.27-13.52-43.5 6.29 44.46-8.81 1.21-8.85-63.02 13.99-2.2 13.43 44.05 0.53-45.84 13.88-1.95 8.81 63.27zm189.29-4.4c-1.49-3.42 0.6-14.54 0.35-21.06-0.21-5.55-5.57-5.55-9.33-5.63l-1.84 25.86-10.15-0.67 4.66-63.71 17.07 1.35c7.52 0.59 12.5 5.97 11.88 14.48l-0.56 7.58c-0.36 4.97-3.45 9.75-7.68 10.81 6.34 2.35 6.57 10.71 5.64 19.39-1.09 10.21-0.35 10.65 0.32 12.34zm1.96-41.33 0.54-8.31c0.11-1.8-0.52-4.3-3.06-5.07-1.41-0.42-3.64-0.52-6.38-0.6l-1.31 19.4c3.95 0.74 6.54 0.43 8.04-0.64 1.8-1.28 2.09-3.54 2.17-4.78z" fill="url(#grd1)"/>
   <path class="shp2" d="m603.63 234.21 10.78 2.04-10.68 58.67 17.75 3.26-1.64 9.72-28.48-5.2zm-8.41-1.27-1.53 9.73-18.52-2.71-2.9 19.22 14.85 2.22-1.27 9.93-15-2.05-2.93 19.93 18.54 2.69-1.27 9.87-29.66-4.16 10.18-69.13zm-76.21 42.18 3.77-34.42c1-9.09 5.91-17.32 17.8-15.78 12.31 1.59 15.67 10.11 14.87 18.41l-0.72 7.49-10.45-1.31 0.93-9.87c0.2-2.07-1.85-4.6-4.53-4.96-5.62-0.77-6.35 3.63-6.49 4.77l-4.64 39.89c-0.13 1.14 0.22 5.51 4.72 6.34 3.85 0.72 6.21-1.77 6.52-4.59l1.27-11.5 10.49 1.2-1.69 11.84c-1 7-5.95 14.2-17.47 13.07-9.73-0.96-15.92-6.47-14.38-20.58zm-38.24-54.47 11.35 0.83 6.38 26.4 10.03-25.36 10.18 0.78-13.66 32.98 9.77 36.62-11.6-0.83-6.48-27.72-11.24 26.38-10.46-0.81 14.91-34.78zm-37.08-1.17 29.71 0.87-0.25 9.81-18.95-0.52-0.62 19.57 14.98 0.44-0.05 9.7-15.19-0.19-0.44 20.47 18.86 0.45-0.25 9.9-29.78-0.88zm-51.56 0.8 10.26-0.12 1.33 59.54 17.98-0.19 0.14 9.06-28.23 0.66zm-16.59 57-13.88 1.04-1.25 12.82-9.34 0.71 6.85-69.63 15.3-0.84 15.33 67.95-10.15 0.63zm-9.22-43.35-0.07-0.32-0.85 0.02-3.14 35.89 11.52-0.64zm-38.08 37.61-18.4-44.93 10.65-0.85 11.97 31.91 5.28-33.9 9.5-0.82-8.28 49.29-0.01 0.05 1.65 20.48-10.12 1.05zm-53.27-23.09c-0.68-4.83-0.19-9.6 2.23-13.23 2.03-3.05 5.44-5.32 10.67-6.18 7.49-1.23 12.11 0.83 15.03 4.39 2.95 3.59 4.21 8.72 4.94 13.56l4.65 30.87 0.13 0.96c0.79 6.48-0.54 11.13-3.14 14.3-2.59 3.17-6.46 4.89-10.73 5.54l-0.7 0.09c-5.29 0.65-9.28-0.61-12.17-3.05-3.37-2.86-5.27-7.36-5.98-12.36zm22.11 41.21 0.36-0.06c2.39-0.48 3.75-1.47 4.42-3.08 0.64-1.56 0.59-3.67 0.2-6.45l-5.09-36.02c-0.47-3.29-1.86-4.89-3.35-5.63s-3.07-0.62-3.93-0.5l-0.04 0.01c-0.91 0.13-2.33 0.56-3.42 1.81-1.07 1.22-1.8 3.23-1.34 6.49l5.54 37.82 0.07 0.36c0.24 1.23 0.86 2.68 1.92 3.76 1.08 1.09 2.61 1.79 4.66 1.49zm-52.3 17.71-13.31-67.48 17.88-3.4c2.02-0.39 4.02-0.39 5.79-0.13 1.91 0.29 3.55 0.89 4.69 1.69 1.91 1.35 3.29 3.11 4.28 5.06 0.99 1.96 1.6 4.11 1.98 6.2l1.59 8.8c0.42 2.34 0.03 4.51-0.79 6.34-1 2.25-2.63 3.96-4.16 4.8l-1.01 0.55 1.14 0.17c2.36 0.37 4.34 1.56 5.89 3.27 1.69 1.87 2.87 4.38 3.46 7.15l1.91 8.88 0.42 1.95c0.9 4.31 1.63 7.75 3.03 9.78l-9.99 1.97c-1.57-1.5-2.5-6.6-3.17-10.25l-0.29-1.58-1.47-7.61c-0.24-1.25-0.58-2.41-1.13-3.44-0.55-1.04-1.32-1.95-2.4-2.69-2.08-1.43-5.44-0.66-8.5 0.04l-1.23 0.27 5.7 27.63zm12.48-43.08c0.33-0.7 0.52-1.67 0.56-2.84 0.03-1.08-0.07-2.33-0.35-3.68l-1.54-7.69c-0.17-0.86-0.63-1.76-1.21-2.52-0.6-0.79-1.35-1.44-2.04-1.74-0.99-0.43-2.53-0.37-4.2-0.11-1.63 0.26-3.38 0.71-4.83 1.08l-0.36 0.09 4.45 21.63 0.37-0.06c3.27-0.55 5.28-1.03 6.6-1.65 1.38-0.64 2.02-1.42 2.55-2.51z"/>
   <path class="shp3" d="m602.52 232.24 10.78 2.03-10.69 58.67 17.76 3.26-1.65 9.73-28.48-5.2zm-8.42-1.28-1.53 9.74-18.52-2.71-2.89 19.22 14.84 2.21-1.27 9.93-14.99-2.05-2.94 19.93 18.55 2.69-1.28 9.88-29.66-4.17 10.18-69.13zm-76.21 42.19 3.77-34.43c1-9.09 5.91-17.32 17.8-15.78 12.31 1.59 15.67 10.11 14.87 18.41l-0.72 7.49-10.45-1.31 0.93-9.86c0.2-2.08-1.85-4.61-4.53-4.97-5.62-0.77-6.35 3.63-6.48 4.77l-4.65 39.89c-0.13 1.14 0.22 5.51 4.72 6.35 3.85 0.71 6.21-1.78 6.52-4.6l1.27-11.5 10.49 1.2-1.69 11.85c-0.99 6.99-5.95 14.19-17.47 13.06-9.73-0.96-15.92-6.47-14.38-20.57zm-38.23-54.48 11.35 0.83 6.37 26.4 10.03-25.36 10.18 0.79-13.66 32.98 9.78 36.61-11.61-0.83-6.48-27.72-11.24 26.38-10.46-0.81 14.91-34.77zm-37.09-1.17 29.72 0.87-0.26 9.81-18.95-0.52-0.61 19.57 14.97 0.44-0.05 9.7-15.19-0.19-0.44 20.47 18.86 0.45-0.25 9.91-29.77-0.89zm-51.55 0.8 10.26-0.12 1.33 59.55 17.97-0.2 0.15 9.06-28.23 0.66zm-16.59 57.01-13.89 1.03-1.25 12.82-9.34 0.72 6.85-69.63 15.31-0.85 15.32 67.95-10.15 0.63zm-9.22-43.36-0.07-0.32-0.86 0.02-3.14 35.89 11.52-0.64zm-38.09 37.62-18.4-44.94 10.66-0.85 11.96 31.91 5.28-33.9 9.5-0.82-8.27 49.29-0.01 0.05 1.65 20.49-10.13 1.05zm-53.27-23.1c-0.68-4.83-0.19-9.6 2.24-13.23 2.03-3.05 5.43-5.32 10.66-6.18 7.49-1.22 12.11 0.84 15.04 4.39 2.95 3.59 4.21 8.72 4.93 13.56l4.65 30.87 0.13 0.96c0.8 6.49-0.54 11.13-3.14 14.3-2.59 3.17-6.46 4.9-10.73 5.54l-0.7 0.09c-5.29 0.65-9.28-0.6-12.17-3.05-3.37-2.86-5.26-7.36-5.97-12.36zm22.11 41.21 0.36-0.06c2.4-0.48 3.75-1.47 4.42-3.08 0.64-1.56 0.59-3.67 0.2-6.45l-5.09-36.02c-0.47-3.29-1.86-4.89-3.35-5.63s-3.06-0.62-3.93-0.5l-0.03 0.01c-0.92 0.13-2.34 0.56-3.43 1.81-1.07 1.23-1.8 3.23-1.34 6.5l5.55 37.81 0.06 0.36c0.25 1.23 0.87 2.68 1.92 3.76 1.08 1.09 2.61 1.79 4.66 1.49zm-52.29 17.71-13.31-67.48 17.88-3.4c2.02-0.39 4.01-0.4 5.79-0.13 1.9 0.29 3.54 0.89 4.68 1.69 1.92 1.34 3.29 3.11 4.28 5.06 1 1.96 1.6 4.11 1.98 6.2l1.59 8.8c0.42 2.33 0.03 4.51-0.78 6.34-1 2.24-2.63 3.96-4.17 4.8l-1.01 0.55 1.14 0.17c2.37 0.37 4.35 1.56 5.89 3.27 1.69 1.87 2.87 4.38 3.47 7.15l1.9 8.88 0.42 1.95c0.9 4.3 1.63 7.75 3.03 9.78l-9.99 1.97c-1.56-1.5-2.5-6.6-3.17-10.25l-0.29-1.58-1.47-7.61c-0.24-1.25-0.58-2.41-1.13-3.44-0.55-1.04-1.32-1.95-2.39-2.69-2.09-1.42-5.45-0.66-8.5 0.04l-1.24 0.28 5.7 27.62zm12.47-43.08c0.33-0.7 0.53-1.67 0.56-2.84 0.04-1.08-0.07-2.33-0.34-3.67l-1.55-7.7c-0.17-0.86-0.63-1.76-1.2-2.51-0.61-0.8-1.35-1.45-2.05-1.75-0.98-0.43-2.53-0.37-4.2-0.11-1.63 0.26-3.38 0.71-4.83 1.08l-0.36 0.09 4.45 21.63 0.37-0.06c3.28-0.54 5.28-1.03 6.6-1.64 1.38-0.65 2.03-1.42 2.55-2.52z" fill="url(#grd2)"/>
   <path class="shp4" d="m396.64 775.8h-6.64l-0.04-30.1h-4.67v-5.15l0.4 0.01c2.07 0.06 3.5-0.53 4.5-1.43s1.58-2.12 1.91-3.28l0.08-0.29h4.78c0.02 13.41 0.04 26.83 0.07 40.24zm-5.86-0.78h5.47l-0.07-38.68h-3.41c-0.38 1.2-1.01 2.43-2.06 3.37-1.06 0.96-2.55 1.61-4.64 1.63v3.58h4.67z"/>
   <path class="shp4" d="m405.15 764.52h6.46l0.01 0.39c0 1.96 0.04 3.24 0.43 3.99 0.35 0.67 1.05 0.94 2.41 0.97 0.71 0.02 1.45-0.15 2-0.73 0.58-0.61 0.98-1.67 0.98-3.45l0.01-6.05c-0.83 1.01-2.33 2.35-5.7 2.35l-0.01 0.01c-2.52 0-4.26-1.28-5.37-2.91-1.09-1.6-1.56-3.56-1.56-4.98v-9.04c0-2.8 0.74-5.5 2.6-7.38 1.56-1.6 3.9-2.6 7.21-2.6 1.53 0 2.83 0.24 3.98 0.64s2.15 0.96 3.08 1.6c0.9 0.6 1.52 1.51 1.92 2.54 0.48 1.22 0.66 2.62 0.67 3.93l0.08 21.71c-0.01 2.6-0.59 5.27-2.02 7.31-1.46 2.06-3.78 3.47-7.26 3.48h-0.11c-4.93-0.03-7.49-2.02-8.82-4.45-1.32-2.4-1.4-5.2-1.38-6.94l0.01-0.38h0.38zm0.39 0.78c0 1.67 0.15 4.11 1.28 6.18 1.21 2.2 3.56 4.01 8.13 4.04h0.12c3.18-0.02 5.3-1.29 6.61-3.15 1.34-1.9 1.88-4.41 1.89-6.86l-0.09-21.71c0-1.22-0.17-2.52-0.61-3.65-0.35-0.89-0.87-1.67-1.62-2.18-0.89-0.6-1.83-1.13-2.91-1.5-1.06-0.37-2.28-0.6-3.72-0.6-3.09 0-5.24 0.92-6.66 2.36-1.69 1.73-2.37 4.22-2.37 6.84v9.04c0 1.29 0.43 3.08 1.43 4.54 0.98 1.44 2.51 2.56 4.72 2.56h0.01c3.59 0 4.81-1.66 5.46-2.53 0.13-0.18 0.23-0.32 0.34-0.44l0.68-0.72-0.01 8.17c0 2.01-0.48 3.25-1.19 3.99-0.73 0.77-1.68 0.99-2.58 0.97-1.69-0.03-2.59-0.42-3.09-1.39-0.44-0.85-0.51-2.1-0.52-3.96zm12.67-12.34c0.01 0.8-0.3 1.82-1.08 2.55-0.58 0.55-1.43 0.94-2.6 0.95h-0.05c-1.39 0-2.27-0.69-2.8-1.5-0.51-0.78-0.69-1.69-0.69-2.18-0.01-0.02-0.01-7.74 0-8.5 0.01-0.5 0.12-1.39 0.63-2.15 0.52-0.78 1.43-1.43 3.02-1.43h0.11c1.17 0.02 1.95 0.48 2.48 1.1 0.82 0.96 0.97 2.3 0.97 2.88zm-0.79-8.28c0-0.48-0.12-1.59-0.79-2.37-0.39-0.46-0.99-0.81-1.89-0.83h-0.1c-1.27 0-1.98 0.49-2.37 1.08-0.41 0.61-0.5 1.32-0.5 1.73-0.03 2.82 0 5.66 0 8.49 0 0.38 0.15 1.11 0.57 1.76 0.4 0.62 1.07 1.14 2.14 1.14h0.04c0.95-0.01 1.62-0.31 2.08-0.74 0.6-0.57 0.83-1.35 0.83-1.98z"/>
   <path class="shp4" d="m429.49 775.83-0.02-5.56c-0.01-2.33 0.34-4.2 1.55-6.4 1.18-2.15 3.2-4.61 6.53-8.14 0.83-0.88 1.87-2.08 2.69-3.75 0.82-1.66 1.43-3.8 1.41-6.56-0.01-1.58-0.28-2.61-0.75-3.23-0.44-0.58-1.1-0.8-1.91-0.8h-0.02c-0.92 0-1.63 0.36-2.11 0.87-0.47 0.52-0.72 1.19-0.72 1.83 0 1.84 0.01 3.68 0.02 5.52l-6.68 0.01c-0.01-1.67-0.01-3.33-0.03-4.99 0.02-2.61 0.72-4.96 2.26-6.68s3.91-2.79 7.24-2.81h0.15c3.33 0.02 5.74 0.97 7.31 2.79 1.57 1.8 2.29 4.43 2.26 7.79 0 1.14-0.22 2.85-0.83 4.78-0.46 1.45-1.14 3.02-2.13 4.58-1.63 2.58-3.47 4.66-5.1 6.5-2.58 2.92-4.61 5.21-4.26 7.84h11.86v6.43h-0.39zm0.78-0.78 17.16 0.02 0.01-4.87h-11.73l-0.07-0.32c-0.64-3.13 1.56-5.61 4.39-8.82 1.6-1.81 3.42-3.87 5.02-6.4 0.95-1.5 1.6-3.01 2.05-4.39 0.58-1.86 0.79-3.48 0.79-4.55 0.03-3.17-0.63-5.63-2.07-7.28-1.42-1.64-3.63-2.5-6.72-2.52h-0.15c-3.08 0.02-5.26 0.99-6.66 2.55-1.4 1.57-2.05 3.74-2.06 6.16l0.03 4.21h5.11l-0.02-4.75c0-0.82 0.33-1.69 0.94-2.36 0.61-0.66 1.52-1.12 2.67-1.12h0.03c1.05 0 1.92 0.31 2.53 1.1 0.58 0.76 0.9 1.94 0.91 3.7 0.02 2.91-0.62 5.16-1.49 6.92s-1.95 3.01-2.82 3.94c-3.29 3.47-5.27 5.89-6.42 7.98-1.13 2.06-1.46 3.82-1.45 6.02z"/>
   <path class="shp4" d="m453.44 775.83-0.02-5.56c-0.01-2.33 0.34-4.2 1.55-6.4 1.18-2.15 3.2-4.61 6.53-8.14 0.84-0.88 1.87-2.08 2.69-3.75 0.82-1.66 1.43-3.8 1.42-6.56-0.02-1.58-0.28-2.61-0.76-3.23-0.44-0.58-1.1-0.8-1.91-0.8h-0.02c-0.92 0-1.63 0.36-2.1 0.87-0.48 0.52-0.73 1.19-0.73 1.83 0 1.84 0.01 3.68 0.02 5.52l-6.67 0.01c-0.01-1.67-0.02-3.33-0.03-4.99 0.01-2.61 0.71-4.96 2.25-6.68 1.55-1.72 3.91-2.79 7.24-2.81h0.15c3.34 0.02 5.74 0.97 7.32 2.79 1.56 1.8 2.28 4.43 2.26 7.79-0.01 1.14-0.23 2.85-0.84 4.78-0.46 1.45-1.14 3.02-2.13 4.58-1.63 2.58-3.47 4.66-5.09 6.5-2.59 2.92-4.62 5.21-4.26 7.84h11.86l-0.01 6.43h-0.39zm0.78-0.78 17.16 0.02 0.01-4.87h-11.73l-0.06-0.32c-0.65-3.13 1.55-5.61 4.38-8.82 1.61-1.81 3.43-3.87 5.02-6.4 0.95-1.5 1.61-3.01 2.05-4.39 0.59-1.86 0.79-3.48 0.8-4.55 0.02-3.17-0.64-5.63-2.07-7.28-1.42-1.64-3.63-2.5-6.73-2.52h-0.15c-3.08 0.02-5.26 0.99-6.66 2.55-1.4 1.57-2.04 3.74-2.05 6.16l0.02 4.21h5.12l-0.02-4.75c0-0.82 0.32-1.69 0.93-2.36 0.62-0.66 1.52-1.12 2.68-1.12h0.02c1.06 0 1.92 0.31 2.53 1.1 0.58 0.76 0.9 1.94 0.92 3.7 0.01 2.91-0.63 5.16-1.5 6.92-0.86 1.76-1.95 3.01-2.82 3.94-3.28 3.47-5.27 5.89-6.42 7.98-1.13 2.06-1.46 3.82-1.45 6.02z"/>
  </g>
  <path class="shp5" d="m396.25 775.02-0.07-38.68h-3.41c-0.38 1.2-1.01 2.43-2.06 3.37-1.06 0.96-2.55 1.61-4.64 1.63v3.58h4.67l0.04 30.1z"/>
  <path class="shp5" d="m405.54 765.3c0 1.67 0.15 4.11 1.28 6.18 1.21 2.2 3.56 4.01 8.13 4.04h0.12c3.18-0.02 5.3-1.29 6.61-3.15 1.34-1.9 1.88-4.41 1.89-6.86l-0.09-21.71c0-1.22-0.17-2.52-0.61-3.65-0.35-0.89-0.87-1.67-1.62-2.18-0.89-0.6-1.83-1.13-2.91-1.5-1.06-0.37-2.28-0.6-3.72-0.6-3.09 0-5.24 0.92-6.66 2.36-1.69 1.73-2.37 4.22-2.37 6.84v9.04c0 1.29 0.43 3.08 1.43 4.54 0.98 1.44 2.51 2.56 4.72 2.56h0.01c3.59 0 4.81-1.66 5.46-2.54 0.13-0.17 0.23-0.31 0.34-0.43l0.68-0.72-0.01 8.17c0 2.01-0.48 3.25-1.19 3.99-0.73 0.77-1.68 0.99-2.58 0.97-1.69-0.03-2.59-0.42-3.09-1.39-0.44-0.85-0.51-2.1-0.52-3.96zm11.59-9.79c-0.58 0.55-1.43 0.94-2.6 0.95h-0.05c-1.39 0-2.27-0.69-2.8-1.5-0.51-0.78-0.69-1.69-0.69-2.18-0.01-0.02-0.01-7.74 0-8.5 0.01-0.5 0.12-1.39 0.63-2.15 0.52-0.78 1.43-1.43 3.02-1.43h0.11c1.17 0.02 1.95 0.48 2.48 1.1 0.82 0.96 0.97 2.3 0.97 2.88l0.02 8.28c0 0.8-0.31 1.82-1.09 2.55z"/>
  <path class="shp5" d="m430.25 770.27 0.02 4.78 17.16 0.02 0.01-4.87h-11.73l-0.07-0.32c-0.64-3.13 1.56-5.61 4.39-8.82 1.6-1.81 3.42-3.87 5.02-6.4 0.95-1.5 1.61-3.01 2.05-4.39 0.58-1.86 0.79-3.48 0.8-4.55 0.02-3.17-0.64-5.63-2.08-7.28-1.42-1.64-3.63-2.5-6.72-2.52h-0.15c-3.08 0.02-5.26 0.99-6.66 2.55-1.4 1.57-2.04 3.74-2.05 6.16l0.02 4.21h5.12l-0.03-4.75c0-0.82 0.33-1.69 0.94-2.36 0.62-0.66 1.52-1.12 2.68-1.12l0.02-0.01c1.05 0.01 1.92 0.32 2.53 1.11 0.58 0.75 0.9 1.94 0.91 3.7 0.02 2.91-0.62 5.16-1.49 6.92s-1.95 3.01-2.82 3.94c-3.29 3.47-5.27 5.88-6.42 7.98-1.13 2.06-1.46 3.82-1.45 6.02z"/>
  <path class="shp5" d="m454.2 770.27 0.02 4.78 17.17 0.02v-4.87h-11.73l-0.06-0.32c-0.65-3.13 1.55-5.61 4.39-8.82 1.6-1.81 3.42-3.87 5.02-6.4 0.94-1.5 1.6-3.01 2.04-4.39 0.59-1.86 0.79-3.48 0.8-4.55 0.02-3.17-0.64-5.63-2.07-7.28-1.42-1.64-3.63-2.5-6.72-2.52h-0.16c-3.08 0.02-5.25 0.99-6.65 2.55-1.41 1.57-2.05 3.74-2.06 6.16l0.02 4.21h5.12l-0.02-4.75c0-0.82 0.32-1.69 0.94-2.36 0.61-0.66 1.51-1.12 2.67-1.12l0.02-0.01c1.06 0.01 1.92 0.32 2.53 1.11 0.58 0.75 0.9 1.94 0.92 3.7 0.02 2.91-0.63 5.16-1.5 6.92-0.86 1.76-1.95 3.01-2.82 3.94-3.28 3.47-5.27 5.88-6.42 7.98-1.13 2.06-1.46 3.82-1.45 6.02z"/>
  <g fill-rule="evenodd">
   <path class="shp6" d="m396.25 775.02-0.07-38.68h-3.41c-0.38 1.2-1.01 2.43-2.06 3.37-1.06 0.96-2.55 1.61-4.64 1.63v3.58h4.67l0.04 30.1z"/>
   <path class="shp7" d="m455.65 764.25c1.15-2.1 3.14-4.51 6.42-7.98 0.87-0.93 1.96-2.18 2.82-3.94 0.87-1.76 1.52-4.01 1.5-6.92-0.02-1.76-0.34-2.95-0.92-3.7-0.61-0.79-1.47-1.1-2.53-1.11l-0.02 0.01c-1.16 0-2.06 0.46-2.67 1.12-0.62 0.67-0.94 1.54-0.94 2.36l0.02 4.75h-5.12l-0.02-4.21c0.01-2.42 0.65-4.59 2.06-6.16 1.4-1.56 3.57-2.53 6.65-2.55h0.16c3.09 0.02 5.3 0.88 6.72 2.52 1.43 1.65 2.09 4.11 2.07 7.28-0.01 1.07-0.21 2.69-0.8 4.55-0.44 1.38-1.1 2.89-2.04 4.39-1.6 2.53-3.42 4.59-5.02 6.4-2.84 3.21-5.04 5.69-4.39 8.82l0.06 0.32h11.73v4.87l-17.17-0.02-0.02-4.78c-0.01-2.2 0.32-3.96 1.45-6.02zm-23.95 0c1.15-2.1 3.13-4.51 6.42-7.98 0.87-0.93 1.95-2.18 2.82-3.94s1.51-4.01 1.49-6.92c-0.01-1.76-0.33-2.95-0.91-3.7-0.61-0.79-1.48-1.1-2.53-1.11l-0.02 0.01c-1.16 0-2.06 0.46-2.68 1.12-0.61 0.67-0.94 1.54-0.94 2.36l0.03 4.75h-5.12l-0.02-4.21c0.01-2.42 0.65-4.59 2.05-6.16 1.4-1.56 3.58-2.53 6.66-2.55h0.15c3.09 0.02 5.3 0.88 6.72 2.52 1.44 1.65 2.1 4.11 2.08 7.28-0.01 1.07-0.22 2.69-0.8 4.55-0.44 1.38-1.1 2.89-2.05 4.39-1.6 2.53-3.42 4.59-5.02 6.4-2.83 3.21-5.03 5.69-4.39 8.82l0.07 0.32h11.73l-0.01 4.87-17.16-0.02-0.02-4.78c-0.01-2.2 0.32-3.96 1.45-6.02zm-26.16 1.05h5.3c0.01 1.86 0.08 3.11 0.52 3.96 0.5 0.97 1.4 1.36 3.09 1.39 0.9 0.02 1.85-0.2 2.58-0.97 0.71-0.74 1.19-1.98 1.19-3.99l0.01-8.17-0.68 0.72c-0.11 0.12-0.21 0.26-0.34 0.43-0.65 0.88-1.87 2.54-5.46 2.54h-0.01c-2.21 0-3.74-1.12-4.72-2.56-1-1.46-1.43-3.25-1.43-4.54v-9.04c0-2.62 0.68-5.11 2.37-6.84 1.42-1.44 3.57-2.36 6.66-2.36 1.44 0 2.66 0.23 3.72 0.6 1.08 0.37 2.02 0.9 2.91 1.5 0.75 0.51 1.27 1.29 1.62 2.18 0.44 1.13 0.61 2.43 0.61 3.65l0.09 21.71c-0.01 2.45-0.55 4.96-1.89 6.86-1.31 1.86-3.43 3.13-6.61 3.15h-0.12c-4.57-0.03-6.92-1.84-8.13-4.04-1.13-2.07-1.28-4.51-1.28-6.18zm11.59-9.79c0.78-0.73 1.09-1.75 1.09-2.55l-0.02-8.28c0-0.58-0.15-1.92-0.97-2.88-0.53-0.62-1.31-1.08-2.48-1.1h-0.11c-1.59 0-2.5 0.65-3.02 1.43-0.51 0.76-0.62 1.65-0.63 2.15-0.01 0.76-0.01 8.48 0 8.5 0 0.49 0.18 1.4 0.69 2.18 0.53 0.81 1.41 1.5 2.8 1.5h0.05c1.17-0.01 2.02-0.4 2.6-0.95zm-26.35 19.51-0.04-30.1h-4.67v-3.58c2.09-0.02 3.58-0.67 4.64-1.63 1.05-0.94 1.68-2.17 2.06-3.37h3.41l0.07 38.68z" fill="url(#grd3)"/>
   <path class="shp0" d="m386.83 561.19 6.7-2.82c-1.47-4.3-3.24-4.94-2.02-17.61 0.61-3.65 1.32-7.42 2.33-10.95 0.27-0.94 0.07-2.14-0.1-2.81-0.52-2.09-2.51-4.72-6.78-7.75-2.85-2.01-5.54-5.24-6.14-8.27-1.15-5.9 1.11-11.77 5.9-14.37 2.92-1.59 5.42-2.47 11.01-1.58 7.09 1.38 13.56 3.4 20.35 5.13l-1.63 16.18 4.63 2.09 7.95-14.29c-0.94-8.05-3.61-21.45-3.14-22.53l-0.93-0.42c-1.35 3.97-2.76 7.87-4.05 11.85-0.46 1.41-1.6 2.05-2.69 1.63-0.97-0.36-1.51-1.25-1.04-2.64l3.31-9.84c-26.42-8.97-52.87-17.87-79.27-26.91-0.57-0.19-1.1-0.49-1.63-0.79-3.91-2.18-7.75-4.4-10.64-7.31-0.6-0.61-0.03-0.88 0.69-0.94 3.51-0.35 7.09-0.01 10.66 0.43 1.83 0.23 3.63 0.62 5.39 1.22l77.51 26.34 2.94-8.52c0.53-1.53 1.21-2.63 2.8-2.11 1.08 0.35 1.55 1.28 1.11 2.56l-3.93 11.43 1.57 0.57c1.24-1.08 2.52-2.03 4.76-1.91 3.48 0.2 5.73 2.31 6.29 5.65l7.04 2.36c1.04 0.34 1.45 1.34 1.05 2.42-0.43 1.16-1.48 1.44-2.98 0.93l-4.85-1.66-2.7 4.07c-0.2 0.3-0.24 0.63-0.15 0.99l4.21 17.26c0.28 1.16 0.15 2.13-0.2 3.11-0.15 0.44-0.47 0.83-0.61 1.28l-6.22 20.35c3.45-2.28 6.84-4.66 10.35-6.84 0.68-0.42 1.23-0.94 2-1.63 2.48 2.65 4.85 5.24 6.78 7.61-1.15-16.39-0.93-32.51 9.12-46.18 8.6-11.71 24.12-18.04 40.73-18.44l-0.43 13.36c4.37 3.48 8.17 7.15 10.91 10.97 1.33 1.86 2.16 4.3 2.53 7.55 0.21 1.93 0.23 4.06 0.71 5.78 0.32 1.13 0.64 2.06 1.37 2.83 2.43 2.52 4.48 5.05 6 7.29 1.74 2.59 3.28 5.07 3.87 7.53 0.21 0.91 0.1 1.74-0.18 2.5-0.46 1.23-1.31 2.13-2.18 2.97-2.26 2.16-5.09 3.85-7.73 3.77-1.72-0.04-2.76-1.2-3.54-3.08-0.81-1.95-4.54-3.58-8.5-4.15-4.38-0.63-7.4-0.41-11.05-1.55-6.58-2.07-10.31-5.23-12.26-9.78-0.49-1.14-0.39-1.74-0.7-2.35-0.4-0.79-1.36-1.51-2.55-1.15-1.43 0.43-1.95 1.62-1.5 3.08 0.25 0.8 0.53 1.6 0.8 2.4 3.62 8.2 11.42 12.03 21.8 13.18l3.01 5.03c-9.49 9.32-22.39 15.02-38.77 17.03l2.33 6.25c15.32-2.32 28.88-7.51 39.51-17.56 1.56 2.94 3.04 5.95 4.26 9.17 2.27 5.75 3.17 11.27 3.17 15.82 0 3.94-0.75 7.84-1.84 12.24 3.19-1.18 6.37-2.41 9.58-3.54 1.82-0.64 4.02-1.48 5.08-1.38 2.36 0.18 4.37 0.89 5.95 2.26 1.87 1.61 2.7 3.51 2.23 5.7-0.79 4.16-1.73 8.28-2.36 12.46-0.41 2.73-0.56 5.23-0.85 7.84-0.18 2.36-0.47 4.6-0.98 6.58-1.38 6.22-3.22 12.18-5.04 18.15-0.06 0.22-0.24 0.21-0.49 0.09-2.12-1.02-6.6-4.69-8.77-8.38-0.78-1.32-1.37-2.88-1.3-4.2 0.18-3.04 2.59-5.11 5.88-6.76 2.12-6.05 3.65-11.91 3.7-17.27 0.02-1.97-0.03-3.86-0.88-4.87-0.25-0.3-0.47-0.38-0.86-0.14-3.39 2.14-6.61 4.6-9.89 6.92l-5.71 4.27c-1.24 0.88-2.37 1.75-3.75 2.59-12.07 20.06-44.2 39.68-67.73 51.42 0.02 3.38-0.3 6.51-1.18 9.2-1.26 4.03-3.29 7.14-5.94 9.52-3.23 2.9-6.48 5.7-9.7 8.71-1.72 1.69-3.51 3.32-5.17 5.08-0.69 0.72-1.2 1.4-1.69 2.25-1.02 1.92-1.85 3.81-2.69 5.77-0.31 0.72-0.4 1.53-0.41 2.3-0.03 1.79 0.73 3.01 1.5 3.81 3.14 3.27 6.58 6.41 9.86 9.61 2.35 2.27 5.35 4.36 8.62 6.39 2.36 1.45 5.1 2.66 8.11 3.69 1.68 0.58 3.13 1.44 4.37 2.56 2.56 2.31 4.77 5.06 6.67 8.19l-21.72-0.46c-0.61-1.37-1.4-2.68-2.59-4.14-6.19-7.58-12.94-14.46-19.96-21.31-2.68-2.61-5.65-5-9.23-7.25-0.71-0.45-1.42-0.96-1.93-1.63-0.9-1.19-1.12-3.1-0.26-4.84 1.54-3.13 3.63-7.08 5.59-10.95 1.35-2.67 2.13-5.19 2.14-7.04 0.02-2.88-2.61-5.64-6.21-8.71-1.81-1.52-3.7-2.89-4.98-4.84-4.33-6.58-6.94-14.75-6.8-25.73 1.07-14.23 7.25-26.4 19.92-35.93-0.07 3.66 0.12 6.3 0.54 8.03 0.98 6.26 3.88 11.03 8.44 14.53 3.62 2.79 5.61 6.7 6.55 11.13 1.21 5.68 0.78 11.08-0.38 16.26 5.29-4.59 9.33-9.32 12.12-14.2 0.75-1.3 1.19-2.66 1.14-4.1-0.01-0.47 0.01-0.92 0.33-1 0.14-0.03 0.35 0.09 0.52 0.32 2.25 3.28 3.72 7.14 5.25 11.12 5.81-5.37 10.92-12.18 10.55-17.37-0.04-0.59 0.04-1.21-0.13-1.78-0.16-0.57-0.32-1.3-0.27-2.35 0.04-0.76 0.63-0.68 1-0.31 3.21 3.21 6.03 9.38 6.28 11.94 0.03 0.5 0.61 0.58 0.8 0.37 5.32-5.93 8.67-19.63 8.39-27.11-1.46 2.83-3.75 6.07-6.14 9.35-33.66 6.94-59.1-14.4-69.64-46.29zm14.71 5.66c3.95 9.1 9.78 16.56 17.37 22.42 8.54 6.59 18.77 9.15 30.68 7.53 4.45-6.81 7.75-14.34 7.48-23.64-0.34-11.73-4.94-22.62-13.18-32.69-6.17 5.3-15.22 10.26-24.57 7.8-1.8 8.49-8.89 14.75-17.78 18.58zm11.03-61.01-13.78 5.59 0.26 2.13 12.53 0.82z"/>
   <path class="shp0" d="m359.67 622.5c-2.32-5.16-4.13-10.52-6.97-15.49-3.46-6.08-9.42-10.6-17.83-10.53-7.97 0.07-17.67 5.32-24.55 13.41-1.4 1.65-4.17 5.84-4.76 7.72-0.67 2.11-1.31 4.21-1.97 6.32 5.9-2.4 11.78-4.66 15.87-4.67 5.64 0 9.3 3.46 12.69 7.56 3.46 4.2 6.66 8.61 10.15 12.79 4.85 5.83 11.72 9.5 19.15 9.53 6.23 0.03 11.12-2.16 15.41-5.09-0.87-2.37-1.39-4.71-1.61-7.21-1.77 1.41-3.59 2.51-5.74 2.36-2.23-0.16-3.9-2.12-5.31-4.87-1.44-2.79-2.98-7.35-4.53-11.83z"/>
   <path class="shp0" d="m438.88 650.72c-0.08 7.83-3.4 14.89-8 21.54-1.1 1.6-2.3 3.12-3.57 4.59-0.71 0.83-1.03 1.69-0.98 2.66 0.08 1.71 1.35 2.84 3 3.83 2.11 1.27 4.07 2.43 5.78 3.99 6.83 6.22 13.73 12.41 19.93 19.27 0.67 0.73 1.32 1.52 1.9 2.31 0.49 0.67 0.73 1.47 1.23 2.14 1.5 2.03 3.29 2.64 5.56 2.44 1.08-0.09 2.16-0.39 3.2-0.48 4.05-0.33 7.67-0.85 10.79-1.79-1.61-2.66-3.56-5.18-5.99-7.22-1.62-1.35-3.6-2.28-6.06-2.9-2.26-0.56-4.38-1.82-6.37-2.89-3.73-2.02-7.1-4.71-10.22-7.59-2.5-2.3-6.18-5.55-6.92-6.91-0.63-1.17-0.69-2.4-0.31-3.74 0.49-1.7 1.19-3.42 1.99-4.91 0.62-1.15 1.36-2.24 2.22-3.22 3.74-4.27 8.14-8.19 12.27-12.23 4.12-4.04 5.68-9.27 5.82-15.2 0-2.4-0.15-4.8-0.85-7.23z"/>
   <path class="shp0" d="m480.33 657.24c9.88 0.39 17.58 8.71 17.19 18.59s-8.71 17.57-18.59 17.19c-9.88-0.39-17.57-8.71-17.19-18.59 0.39-9.88 8.71-17.58 18.59-17.19zm-6.76 20.04 5.99 4.58 6.22-3.96-2.33-7.33-7.35-0.64zm1.31-10.83 3.22-4.16-2.8-1.27c-2.41 0.8-4.38 2.09-6.06 3.73l0.08 3.15zm-7.8 6.35-1.87 2.22c0.05 2.97 0.85 5.25 1.96 7.25l3.11 0.55 0.1-5.76zm7.62 13.87 1.78 2.45c2.28 0.6 4.67 0.48 7.13 0.01l1.55-2.48-5.06-1.8zm14.15-3.19 3.44-0.95c1.1-1.88 1.86-3.95 2.06-6.31l-2.2-2.69-3.32 4.29zm2.62-14.52v-2.82c-1.33-1.82-3.1-3.4-5.68-4.53l-2.94 0.78 3.3 5.05z"/>
   <path class="shp0" d="m418.58 581.71 15.38-10.47c-3.66-5.42-7.32-10.85-11.01-16.26-1.59 5.48-5.91 10.28-13.43 14.11 2.34 4.84 5.61 8.82 9.06 12.62z"/>
   <path class="shp0" d="m433.96 571.24c4.27 6.32 8.54 12.65 12.84 18.96 5.18-9.1 6.07-18.8 2.13-29.15z"/>
   <path class="shp0" d="m374.88 529.54c0.15-3.52-0.54-7.16-1.6-11-0.25-0.91-0.4-1.86-0.37-2.79 0.07-2.03 1.14-3.49 3.07-4.26-0.78-4.53 0.06-8.88 3.28-12.99-1.62-1.54-3.57-2.5-6.01-2.3-6.51 0.53-10.88 4.27-13.51 10.41-1.79 4.16-1.78 9.98-0.62 12.5 1.23 2.7 2.2 5.14 2.13 8.01-0.06 2.61-2.89 4.81-5.58 4.81-1.47-0.01-3.1-0.35-4.13-0.39-0.82-0.04-1.55 0.35-1.56 1.27-0.01 0.73 0.87 2.32 1.73 3.23 3.18 3.37 6.77 5.3 10.67 5.41 1.36 0.04 2.55-0.33 3.59-0.77 5.48-2.34 8.69-5.89 8.91-11.14z"/>
   <path class="shp0" d="m519.22 547.05c-1.6 1.27-3.09 2.74-4.69 3.92 1.78 4.81 2.63 9.53 2.41 14.13 2.27-4.49 4.89-7.68 8.33-7.66 2.36 0.01 4.26 1.34 5.88 3.26 3.45 4.08 6.6 8.41 9.01 13.25-0.83 2.11-1.04 4.34-0.41 6.34 1.1 3.53 4.4 4.68 8.18 4.66 3.43-0.02 6.83-0.16 9.35-1.17 0.25-0.1 0.33-0.28 0.19-0.5-3.2-5.11-5.91-10.43-9.58-15.32-1.68-2.24-3.29-4.3-5.05-6.32-2.43-2.47-4.57-5.08-6.67-7.87-1.74-2.32-3.52-4.58-5.2-7-1.06-1.52-2.58-2.59-4.84-2.68-2.36-0.11-4.68 1.2-6.91 2.96z"/>
   <path class="shp0" d="m475.3 661.02c-2.41 0.8-4.38 2.09-6.06 3.73l0.08 3.15 5.56-1.45 3.21-4.16z"/>
   <path class="shp0" d="m482.85 662.39 3.3 5.05 5.32 1.52v-2.82c-1.33-1.82-3.1-3.4-5.68-4.52z"/>
  </g>
  <path class="shp0" d="m483.45 670.58-7.35-0.65-2.53 7.35 5.99 4.58 6.22-3.96z"/>
  <g fill-rule="evenodd">
   <path class="shp0" d="m470.28 682.82 0.1-5.76-3.3-4.26-1.87 2.22c0.05 2.97 0.85 5.25 1.96 7.25z"/>
   <path class="shp0" d="m480.1 684.85-5.4 1.82 1.78 2.45c2.28 0.59 4.67 0.48 7.13 0.01l1.55-2.48z"/>
   <path class="shp0" d="m488.83 677.82 0.02 5.67 3.44-0.96c1.11-1.88 1.86-3.95 2.06-6.31l-2.2-2.69z"/>
  </g>
  <path class="shp8" d="m477.91 694.27c-9.9 0-17.9-8-17.9-17.9s8-17.9 17.9-17.9 17.91 8 17.91 17.9-8.01 17.9-17.91 17.9z" fill="url(#grd4)"/>
  <g fill-rule="evenodd">
   <path class="shp9" d="m468.66 678.3-3.3-4.26-1.87 2.22c0.05 2.97 0.85 5.25 1.96 7.25l3.11 0.55z"/>
   <path class="shp9" d="m478.38 686.09-5.4 1.82 1.78 2.45c2.28 0.6 4.68 0.48 7.13 0.01l1.55-2.48z"/>
   <path class="shp9" d="m487.11 679.06 0.02 5.67 3.44-0.96c1.11-1.88 1.86-3.95 2.06-6.31l-2.2-2.69z"/>
   <path class="shp9" d="m467.6 669.14 5.56-1.45 3.21-4.16-2.79-1.27c-2.41 0.8-4.38 2.09-6.06 3.73z"/>
   <path class="shp9" d="m481.13 663.63 3.31 5.06 5.32 1.51v-2.82c-1.34-1.82-3.11-3.4-5.69-4.52z"/>
  </g>
  <path class="shp9" d="m481.73 671.82-7.35-0.65-2.53 7.35 5.99 4.58 6.22-3.96z"/>
  <g fill-rule="evenodd">
   <path class="shp10" d="m512.81 552.21c1.78 4.81 2.63 9.53 2.41 14.14 2.27-4.5 4.89-7.68 8.33-7.67 2.36 0.01 4.26 1.34 5.88 3.26 3.45 4.08 6.6 8.42 9.01 13.25-0.83 2.11-1.04 4.34-0.41 6.34 1.1 3.53 4.4 4.68 8.18 4.66 3.44-0.02 6.83-0.16 9.35-1.17 0.25-0.1 0.33-0.28 0.19-0.5-3.2-5.11-5.91-10.43-9.58-15.32-1.68-2.24-3.29-4.3-5.05-6.32-2.43-2.47-4.57-5.08-6.67-7.87-1.74-2.32-3.52-4.58-5.2-7-1.06-1.52-2.58-2.59-4.84-2.68-2.36-0.11-4.68 1.2-6.91 2.96-1.6 1.26-3.09 2.74-4.69 3.92z" fill="url(#grd5)"/>
   <path class="shp11" d="m461.58 638.42c0.7 2.44 0.85 4.83 0.86 7.23-0.15 5.93-1.71 11.16-5.83 15.2s-8.53 7.96-12.27 12.23c-0.86 0.98-1.6 2.07-2.21 3.22-0.8 1.49-1.51 3.21-2 4.91-0.38 1.34-0.31 2.57 0.31 3.74 0.74 1.36 4.42 4.61 6.92 6.91 3.12 2.88 6.49 5.57 10.22 7.59 1.99 1.07 4.11 2.33 6.37 2.9 2.47 0.62 4.44 1.54 6.06 2.9 2.43 2.03 4.38 4.55 5.99 7.21-3.12 0.94-6.74 1.46-10.79 1.8-1.04 0.08-2.12 0.38-3.2 0.47-2.26 0.2-4.06-0.41-5.56-2.43-0.49-0.68-0.74-1.48-1.23-2.15-0.58-0.79-1.23-1.57-1.89-2.31-6.21-6.86-13.11-13.05-19.94-19.27-1.71-1.56-3.67-2.72-5.77-3.98-1.65-1-2.93-2.13-3.01-3.84-0.04-0.97 0.27-1.83 0.99-2.66 1.26-1.47 2.47-2.99 3.57-4.59 4.6-6.65 7.91-13.71 8-21.53 8.13-4.52 16.27-9.03 24.41-13.55z" fill="url(#grd6)"/>
   <path class="shp12" d="m301.87 625.16c0.66-2.1 1.3-4.2 1.97-6.31 0.59-1.88 3.36-6.07 4.76-7.72 6.88-8.09 16.58-13.34 24.55-13.41 8.41-0.07 14.37 4.45 17.83 10.52 2.84 4.98 4.65 10.33 6.97 15.5 1.55 4.48 3.1 9.04 4.53 11.83 1.41 2.76 3.08 4.72 5.31 4.87 2.15 0.15 3.98-0.95 5.74-2.36 0.22 2.5 0.74 4.85 1.61 7.21-4.29 2.93-9.18 5.11-15.4 5.09-7.44-0.03-14.31-3.7-19.16-9.53-3.49-4.18-6.69-8.59-10.15-12.79-3.39-4.1-7.04-7.56-12.69-7.56-4.09 0.01-9.97 2.27-15.87 4.66z" fill="url(#grd7)"/>
   <path class="shp13" d="m377.54 499.75c-1.62-1.55-3.57-2.51-6.01-2.31-6.51 0.53-10.88 4.27-13.51 10.41-1.79 4.16-1.78 9.98-0.62 12.5 1.23 2.7 2.2 5.14 2.13 8.01-0.06 2.61-2.89 4.81-5.58 4.81-1.47 0-3.1-0.35-4.13-0.39-0.81-0.04-1.55 0.35-1.56 1.27-0.01 0.73 0.87 2.32 1.73 3.23 3.19 3.37 6.77 5.3 10.67 5.41 1.37 0.04 2.55-0.33 3.6-0.77 5.47-2.34 8.68-5.88 8.9-11.14 0.15-3.52-0.54-7.16-1.6-11-0.25-0.91-0.4-1.86-0.37-2.8 0.07-2.02 1.14-3.48 3.07-4.26-0.78-4.52 0.06-8.87 3.28-12.97z" fill="url(#grd8)"/>
   <path class="shp14" d="m421.23 556.22c8 11.73 15.85 23.5 23.85 35.22 5.18-9.1 6.07-18.8 2.12-29.15-10.11 6.89-20.22 13.78-30.34 20.66-3.45-3.8-6.72-7.78-9.06-12.62 7.52-3.82 11.84-8.62 13.43-14.11z" fill="url(#grd9)"/>
   <path class="shp15" d="m414.91 643.84c5.3-4.59 9.33-9.32 12.13-14.19 0.74-1.31 1.19-2.67 1.14-4.11-0.02-0.47 0-0.91 0.32-0.99 0.14-0.04 0.36 0.08 0.52 0.32 2.26 3.27 3.72 7.14 5.26 11.12 5.8-5.38 10.91-12.19 10.55-17.37-0.05-0.6 0.03-1.22-0.13-1.79-0.17-0.57-0.33-1.3-0.28-2.34 0.04-0.77 0.63-0.68 1-0.31 3.22 3.2 6.03 9.38 6.28 11.94 0.04 0.49 0.61 0.57 0.8 0.36 5.33-5.93 8.68-19.62 8.39-27.11-1.45 2.83-3.75 6.07-6.14 9.35-33.65 6.95-59.09-14.4-69.64-46.29l6.71-2.82c-1.48-4.29-3.25-4.94-2.03-17.61 0.61-3.65 1.32-7.42 2.33-10.95 0.27-0.94 0.07-2.14-0.1-2.81-0.52-2.09-2.51-4.72-6.78-7.75-2.85-2.01-5.54-5.24-6.14-8.27-1.15-5.9 1.11-11.77 5.9-14.37 2.92-1.58 5.42-2.47 11.01-1.58 7.09 1.39 13.56 3.41 20.35 5.13l-1.63 16.18 4.63 2.1 7.95-14.3c-0.94-8.05-3.61-21.45-3.14-22.53l-0.93-0.41c-1.34 3.96-2.76 7.86-4.05 11.85-0.45 1.4-1.6 2.04-2.69 1.63-0.97-0.37-1.51-1.26-1.04-2.64l3.32-9.84c-26.43-8.97-52.88-17.88-79.28-26.91-0.57-0.2-1.1-0.5-1.63-0.79-3.91-2.18-7.74-4.41-10.64-7.32-0.6-0.61-0.03-0.87 0.69-0.94 3.52-0.34 7.09-0.01 10.66 0.43 1.83 0.23 3.63 0.62 5.39 1.22l77.52 26.35 2.93-8.52c0.53-1.54 1.21-2.64 2.8-2.12 1.09 0.36 1.55 1.28 1.11 2.56l-3.93 11.43 1.57 0.57c1.25-1.08 2.52-2.03 4.76-1.9 3.48 0.19 5.74 2.3 6.29 5.64l7.04 2.36c1.04 0.35 1.45 1.35 1.05 2.42-0.43 1.16-1.48 1.44-2.98 0.93l-4.85-1.65-2.69 4.06c-0.2 0.3-0.25 0.63-0.16 1l4.21 17.25c0.28 1.16 0.15 2.14-0.19 3.11-0.16 0.44-0.47 0.83-0.61 1.28l-6.23 20.35c3.45-2.28 6.84-4.66 10.36-6.83 0.68-0.42 1.22-0.95 1.99-1.64 2.48 2.65 4.85 5.24 6.78 7.62-1.14-16.4-0.93-32.51 9.12-46.19 8.6-11.71 24.12-18.03 40.73-18.43l-0.42 13.35c4.36 3.49 8.16 7.15 10.9 10.97 1.33 1.86 2.17 4.3 2.53 7.55 0.22 1.93 0.23 4.06 0.71 5.79 0.32 1.12 0.64 2.05 1.37 2.82 2.43 2.52 4.49 5.05 6 7.29 1.75 2.59 3.28 5.07 3.87 7.53 0.21 0.91 0.1 1.74-0.18 2.5-0.46 1.23-1.3 2.13-2.18 2.97-2.25 2.16-5.09 3.85-7.72 3.78-1.73-0.05-2.77-1.21-3.55-3.08-0.81-1.96-4.53-3.59-8.49-4.16-4.38-0.63-7.41-0.41-11.06-1.55-6.57-2.07-10.31-5.23-12.25-9.78-0.49-1.14-0.4-1.74-0.71-2.34-0.4-0.8-1.36-1.52-2.55-1.16-1.43 0.43-1.95 1.62-1.5 3.08 0.25 0.81 0.54 1.6 0.81 2.41 3.61 8.19 11.42 12.02 21.8 13.18l3 5.02c-9.49 9.32-22.38 15.03-38.77 17.03l2.33 6.25c15.32-2.31 28.88-7.51 39.51-17.56 1.56 2.95 3.04 5.95 4.26 9.17 2.28 5.75 3.17 11.27 3.17 15.82 0 3.95-0.74 7.84-1.84 12.24 3.2-1.18 6.37-2.41 9.58-3.54 1.82-0.64 4.02-1.48 5.08-1.37 2.36 0.17 4.37 0.88 5.95 2.25 1.87 1.61 2.7 3.51 2.23 5.71-0.78 4.15-1.72 8.27-2.35 12.45-0.41 2.73-0.57 5.23-0.86 7.84-0.18 2.36-0.47 4.6-0.98 6.58-1.38 6.22-3.21 12.19-5.03 18.15-0.07 0.22-0.24 0.21-0.5 0.09-2.12-1.02-6.6-4.69-8.77-8.38-0.78-1.32-1.37-2.88-1.3-4.2 0.18-3.04 2.59-5.11 5.88-6.76 2.12-6.05 3.65-11.91 3.7-17.27 0.02-1.97-0.03-3.85-0.88-4.87-0.25-0.3-0.47-0.38-0.86-0.14-3.39 2.14-6.61 4.6-9.89 6.92l-5.71 4.27c-1.24 0.88-2.36 1.75-3.75 2.59-12.07 20.06-44.2 39.68-67.73 51.42 0.02 3.38-0.3 6.51-1.18 9.2-1.26 4.03-3.29 7.14-5.94 9.52-3.23 2.9-6.47 5.7-9.69 8.71-1.73 1.69-3.52 3.32-5.18 5.08-0.69 0.72-1.2 1.4-1.69 2.25-1.01 1.92-1.85 3.81-2.69 5.77-0.31 0.72-0.4 1.53-0.41 2.31-0.03 1.78 0.73 3 1.5 3.8 3.14 3.27 6.58 6.41 9.86 9.61 2.35 2.27 5.35 4.36 8.63 6.39 2.35 1.45 5.09 2.66 8.1 3.69 1.69 0.58 3.13 1.44 4.37 2.57 2.56 2.3 4.77 5.05 6.67 8.18l-21.72-0.46c-0.6-1.37-1.4-2.68-2.59-4.14-6.19-7.58-12.94-14.46-19.96-21.31-2.68-2.61-5.64-5-9.22-7.25-0.72-0.45-1.43-0.96-1.94-1.63-0.9-1.19-1.12-3.1-0.26-4.84 1.54-3.13 3.64-7.08 5.59-10.95 1.35-2.67 2.13-5.19 2.14-7.04 0.02-2.88-2.61-5.64-6.21-8.7-1.8-1.53-3.7-2.9-4.97-4.85-4.34-6.58-6.95-14.75-6.81-25.73 1.07-14.23 7.25-26.4 19.92-35.93-0.07 3.66 0.12 6.3 0.54 8.03 0.98 6.26 3.89 11.03 8.44 14.53 3.63 2.78 5.61 6.7 6.55 11.13 1.21 5.68 0.78 11.08-0.38 16.26zm2.28-53.33c8.54 6.59 18.77 9.15 30.68 7.53 4.45-6.81 7.75-14.34 7.48-23.63-0.34-11.74-4.94-22.63-13.18-32.7-6.17 5.3-15.22 10.26-24.57 7.8-1.8 8.49-8.89 14.75-17.78 18.58 3.95 9.1 9.78 16.56 17.37 22.42zm-6.34-83.43-13.78 5.59 0.26 2.13 12.53 0.83z" fill="url(#grd10)"/>
   <path class="shp16" d="m280.73 632.95c-20.27-36.64-31.66-88.5-34.15-122.47-3.99-45.05-0.85-97.23 7.31-154.43 73.47-18.39 258.43-21.67 352.45 0.01 5.61 36.61 8.96 76.77 9 120.55 0.03 35.88-8.44 96.26-29.57 143.53-17.01 38.04-47.43 71.4-78.03 104.08l-61.09-0.1c0.29 0.44 0.58 0.89 0.86 1.35l-2.54-0.05c0.28 0.42 0.55 0.85 0.82 1.29 0.52-0.21 1.27-0.37 1.77-0.54l61.43 0.1c35.95-37.65 65.65-73.75 79.58-106.51 17.15-40.31 26.39-84.58 28.58-131.52 2.09-44.66-5.89-121.76-8.8-132.4-0.28-1.06-0.78-1.71-1.91-1.97-48.78-11.43-110.91-14.64-177.66-15.01-70.44 0.56-131.34 4.68-175.8 15.28-0.55 0.13-0.84 0.63-0.98 1.22-6.59 34.24-9.62 78.36-9.37 123.5 0.22 41.39 8.95 95.18 28.63 139.65 15.96 38.06 47.46 73.02 80.11 107.75h72.7c-0.3-0.68-0.65-1.35-1.07-2.03l-70.86-0.03c-28.16-28.94-53.4-58.7-71.41-91.25z"/>
   <path class="shp17" d="m430.04 466.15c0.44-1.28-0.02-2.2-1.1-2.55-1.21-0.4-1.9 0.15-2.39 1.11-1.12-0.04-1.68 0.94-2.13 2.24l-2.37 6.89-76.36-25.95c-1.76-0.6-3.56-0.99-5.39-1.22-3.57-0.45-7.14-0.78-10.66-0.44-0.72 0.07-1.29 0.34-0.69 0.95 0.07 0.06 0.14 0.13 0.21 0.2-0.42 0.02-0.83 0.05-1.24 0.09-0.72 0.07-1.29 0.34-0.69 0.95 2.9 2.9 6.73 5.13 10.64 7.31 0.53 0.3 1.06 0.6 1.63 0.79 26.4 9.04 52.85 17.94 79.28 26.91l-3.32 9.84c-0.47 1.39 0.07 2.28 1.04 2.64 0.95 0.36 1.94-0.07 2.48-1.12 0.82-0.04 1.58-0.67 1.93-1.75 1.02-3.16 2.13-6.27 3.21-9.41 0.15 3.2 2.35 14.59 3.19 21.75l-7.05 12.68-3.81-1.72 1.63-16.19c-6.79-1.72-13.26-3.74-20.35-5.12-5.59-0.89-8.09-0.01-11.01 1.58-0.73 0.39-1.4 0.86-2.01 1.4-4.59 2.68-6.74 8.43-5.61 14.2 0.6 3.04 3.29 6.26 6.14 8.28 4.27 3.03 6.26 5.66 6.78 7.75 0.17 0.67 0.37 1.87 0.1 2.81-1.01 3.53-1.72 7.3-2.33 10.95-1.18 12.21 0.42 13.25 1.86 17.16l-4.82 2.03 0.15 0.45-1.87 0.79c10.54 31.89 35.99 53.23 69.64 46.29 0.26-0.35 0.51-0.7 0.77-1.05 0.31-0.06 0.63-0.13 0.95-0.19 1.59-2.19 3.14-4.35 4.42-6.39-0.2 7.16-3 18.15-7.34 24.09-0.07-0.07-0.12-0.17-0.13-0.31-0.25-2.55-3.07-8.73-6.28-11.94-0.37-0.37-0.96-0.45-1 0.32-0.04 0.78 0.04 1.39 0.16 1.88-0.29-0.34-0.58-0.66-0.88-0.95-0.37-0.38-0.96-0.46-1 0.31-0.05 1.04 0.11 1.77 0.27 2.34 0.17 0.57 0.09 1.19 0.13 1.79 0.34 4.7-3.83 10.73-8.94 15.83-1.5-3.88-2.94-7.63-5.14-10.82-0.17-0.24-0.38-0.36-0.52-0.33-0.32 0.08-0.34 0.53-0.32 1 0.02 0.57-0.04 1.12-0.16 1.67-0.23-0.38-0.47-0.74-0.72-1.1-0.17-0.24-0.38-0.36-0.52-0.33-0.32 0.08-0.34 0.53-0.32 1 0.04 1.44-0.4 2.8-1.14 4.1-2.47 4.31-5.91 8.5-10.33 12.59 1.1-5.07 1.48-10.34 0.3-15.89-0.94-4.43-2.92-8.34-6.55-11.13-4.55-3.5-7.46-8.27-8.44-14.53-0.42-1.73-0.61-4.37-0.54-8.03-0.59 0.44-1.16 0.89-1.72 1.34v-0.1c-12.67 9.53-18.85 21.7-19.92 35.93-0.13 10.98 2.47 19.15 6.81 25.74 1.28 1.94 3.17 3.31 4.97 4.84 3.61 3.06 6.23 5.82 6.21 8.7-0.01 1.85-0.79 4.37-2.14 7.04-1.95 3.87-4.05 7.82-5.59 10.95-0.86 1.74-0.64 3.65 0.26 4.84 0.51 0.67 1.22 1.18 1.94 1.63 3.58 2.25 6.54 4.64 9.22 7.25 7.02 6.85 13.77 13.73 19.96 21.31 0.6 0.73 1.1 1.43 1.52 2.12l-70.86-0.04c-28.15-28.93-53.4-58.69-71.41-91.25-20.27-36.64-31.66-88.49-34.14-122.47-3.99-45.05-0.86-97.23 7.3-154.43 73.47-18.39 258.43-21.67 352.45 0.01 5.61 36.61 8.97 76.77 9 120.55 0.03 35.88-8.44 96.26-29.57 143.53-17 38.04-47.43 71.4-78.03 104.09l-61.09-0.11c-1.7-2.57-3.63-4.85-5.81-6.83-1.24-1.12-2.68-1.98-4.37-2.56-3.01-1.03-5.75-2.24-8.1-3.69-3.28-2.03-6.28-4.12-8.63-6.39-3.28-3.2-6.72-6.34-9.86-9.61-0.77-0.8-1.53-2.02-1.5-3.8 0.01-0.79 0.1-1.59 0.41-2.31 0.84-1.96 1.67-3.85 2.69-5.77 0.49-0.85 1-1.53 1.69-2.25 1.66-1.76 3.45-3.39 5.18-5.08 3.21-3 6.46-5.81 9.69-8.71 2.65-2.37 4.68-5.49 5.94-9.52 0.85-2.59 1.18-5.58 1.18-8.83 12.02-6.08 26.04-14.11 38.42-23.14 0 0 0.01 0 0.01-0.01 12.29-8.77 23.17-18.55 29.18-28.45 0.73-0.51 1.42-1.02 2.15-1.54l0.13-0.09c0.53-0.38 1.05-0.76 1.59-1.15l5.27-3.94c0.6-0.43 1.2-0.86 1.8-1.3 0.46-0.33 0.93-0.66 1.39-1 1.78-1.28 3.58-2.54 5.42-3.71 0.39-0.24 0.61-0.16 0.86 0.14 0.85 1.02 0.91 2.9 0.89 4.87-0.06 5.25-1.53 10.98-3.58 16.91-0.65 0.39-1.25 0.82-1.77 1.27-2.42 1.49-4.09 3.34-4.24 5.85-0.07 1.31 0.52 2.88 1.3 4.2 2.17 3.69 6.65 7.36 8.77 8.38 0.26 0.12 0.43 0.13 0.5-0.09 0.16-0.52 0.31-1.04 0.47-1.56 0.28 0.16 0.53 0.3 0.75 0.41 0.26 0.12 0.43 0.13 0.5-0.09 1.82-5.97 3.65-11.93 5.03-18.15 0.51-1.98 0.8-4.22 0.98-6.58 0.29-2.61 0.44-5.12 0.86-7.84 0.62-4.18 1.56-8.3 2.35-12.46 0.47-2.19-0.36-4.09-2.23-5.7-1.58-1.37-3.59-2.09-5.95-2.26-1.06-0.1-3.26 0.73-5.08 1.38-3.21 1.12-6.39 2.36-9.58 3.54 1.1-4.4 1.84-8.3 1.84-12.24 0-4.55-0.9-10.07-3.17-15.82-1.22-3.22-2.7-6.23-4.26-9.17-0.53 0.5-1.07 0.99-1.61 1.46-0.04-0.07-0.07-0.15-0.11-0.22-1.62 1.53-3.31 2.95-5.06 4.26-9.39 6.53-20.5 10.21-32.73 12.06l-1.97-5.29c12.55-1.81 22.98-5.87 31.32-12.14 2.55-1.76 4.91-3.71 7.09-5.85l-3.01-5.03c-10.38-1.15-18.19-4.98-21.8-13.18-0.27-0.8-0.55-1.6-0.8-2.41-0.22-0.71-0.21-1.37 0.03-1.9 1.07-0.19 1.93 0.48 2.3 1.22 0.31 0.61 0.21 1.21 0.7 2.35 1.95 4.54 5.68 7.71 12.26 9.78 3.65 1.14 6.67 0.91 11.06 1.55 3.95 0.57 7.68 2.2 8.49 4.15 0.78 1.88 1.82 3.04 3.54 3.09 2.23 0.06 4.6-1.14 6.64-2.82 1-0.61 1.95-1.38 2.81-2.21 0.87-0.84 1.72-1.73 2.18-2.96 0.28-0.77 0.39-1.6 0.18-2.5-0.59-2.46-2.13-4.95-3.87-7.53-1.52-2.25-3.57-4.77-6-7.29-0.73-0.77-1.05-1.7-1.37-2.83-0.48-1.72-0.5-3.85-0.71-5.78-0.37-3.25-1.2-5.69-2.53-7.55-2.74-3.82-6.54-7.49-10.91-10.97l0.43-13.36c-12.37 0.3-24.14 3.88-32.9 10.54-3.71 2.54-6.95 5.59-9.55 9.13-9.33 12.69-10.18 27.49-9.34 42.65-1.49-1.71-3.14-3.5-4.84-5.31-0.62 0.55-1.09 0.99-1.6 1.37-0.04-0.05-0.08-0.09-0.12-0.13-0.3 0.27-0.56 0.5-0.82 0.72-3.32 2.09-6.54 4.34-9.81 6.5l6.22-20.35c0.14-0.45 0.45-0.83 0.61-1.28 0.34-0.97 0.48-1.94 0.2-3.1l-4.21-17.26c-0.09-0.37-0.05-0.69 0.15-1l1.71-2.57 4.12 1.41c1.5 0.51 2.55 0.22 2.98-0.94 0.01-0.02 0.01-0.04 0.02-0.06 0.82 0 1.4-0.38 1.7-1.18 0.39-1.07-0.01-2.07-1.05-2.42l-7.04-2.36c-0.56-3.34-2.81-5.44-6.29-5.64-2.21-0.12-3.48 0.8-4.71 1.86-0.02 0.01-0.05 0.02-0.07 0.04l-1.55-0.57zm-56.79 30.05c-3.42 0.28-6.25 1.44-8.55 3.38-2.91 1.78-5.11 4.59-6.68 8.27-1.79 4.16-1.78 9.98-0.62 12.5 1.23 2.7 2.2 5.14 2.13 8.02-0.03 1.1-0.55 2.13-1.35 2.95-0.79 0.39-1.65 0.61-2.51 0.61-1.48-0.01-3.1-0.35-4.13-0.39-0.81-0.04-1.54 0.35-1.56 1.25-0.06-0.01-0.11-0.01-0.16-0.01-0.82-0.04-1.55 0.35-1.56 1.27-0.01 0.73 0.86 2.32 1.73 3.23 3.19 3.37 6.77 5.3 10.67 5.41 1.37 0.04 2.55-0.33 3.59-0.77 1.86-0.8 3.45-1.73 4.75-2.81 3.62-2.27 5.7-5.37 5.88-9.57 0.15-3.52-0.54-7.16-1.61-11-0.24-0.91-0.39-1.86-0.36-2.79 0.04-1.17 0.41-2.14 1.08-2.91 0.09-0.04 0.18-0.08 0.27-0.11-0.01-0.05-0.02-0.1-0.02-0.15 0.46-0.45 1.05-0.82 1.74-1.09-0.78-4.53 0.06-8.88 3.28-12.99-1.62-1.54-3.57-2.5-6.01-2.3zm141.97 70.14c0.56-1.1 1.14-2.13 1.75-3.05 0.01 0.6-0.01 1.21-0.03 1.81 1.2-2.38 2.5-4.39 3.97-5.76 0.83-0.43 1.71-0.66 2.64-0.66 2.36 0.01 4.26 1.34 5.89 3.26 3.44 4.08 6.6 8.42 9 13.25-0.83 2.11-1.04 4.34-0.41 6.34 1.1 3.53 4.41 4.68 8.18 4.66 3.44-0.02 6.83-0.16 9.35-1.17 0.25-0.1 0.33-0.28 0.19-0.5-0.04-0.08-0.09-0.15-0.13-0.22 0.58-0.14 1.14-0.31 1.66-0.52 0.25-0.1 0.33-0.28 0.19-0.5-3.2-5.11-5.91-10.43-9.58-15.32-1.68-2.24-3.29-4.31-5.05-6.32-2.43-2.48-4.57-5.08-6.67-7.87-1.74-2.33-3.52-4.58-5.2-7-1.06-1.53-2.58-2.59-4.84-2.68-2.36-0.11-4.67 1.19-6.9 2.95 0 0 0 0.01-0.01 0.01-0.58 0.37-1.15 0.79-1.72 1.24-1.6 1.27-3.09 2.74-4.69 3.92 1.78 4.81 2.63 9.53 2.41 14.13zm-76.34 84.38v0.29l-1.71 0.95c-0.09 7.83-3.4 14.89-8 21.54-1.1 1.6-2.31 3.12-3.58 4.59-0.71 0.83-1.02 1.69-0.98 2.66 0.08 1.71 1.36 2.84 3 3.84 2.1 1.26 4.07 2.42 5.78 3.98 6.83 6.22 13.73 12.41 19.93 19.27 0.67 0.73 1.32 1.52 1.9 2.31 0.49 0.67 0.73 1.47 1.23 2.14 1.5 2.03 3.29 2.64 5.56 2.44 1.08-0.09 2.16-0.39 3.2-0.48 4.05-0.33 7.67-0.85 10.79-1.79-0.14-0.23-0.27-0.46-0.42-0.68 0.74-0.17 1.45-0.36 2.14-0.56-1.61-2.66-3.56-5.18-5.99-7.22-1.62-1.35-3.6-2.28-6.06-2.9-2.26-0.56-4.38-1.82-6.37-2.89-3.73-2.03-7.11-4.71-10.23-7.59-2.49-2.3-6.18-5.55-6.91-6.91-0.63-1.17-0.69-2.4-0.31-3.74 0.49-1.7 1.19-3.42 1.99-4.91 0.62-1.15 1.36-2.24 2.22-3.22 3.74-4.27 8.14-8.19 12.27-12.23 4.12-4.04 5.68-9.27 5.82-15.2 0-2.4-0.15-4.8-0.85-7.23zm134.4-217.18 10.36 1.65 10-62.91-1.66-0.3 0.25-1.58-8.76-1.56-5.36 33.24-3.3-32.9-1.24-0.21-0.17-1.67-12.49-2.08-10.26 63.03 1.67 0.28-0.26 1.6 9.05 1.56 6.57-41.08 4.2 41.05 1.23 0.2zm-87.32-10.17 1.84-25.85c2.44 0.04 5.55 0.06 7.5 1.58 0.24 0.61 0.39 1.32 0.42 2.16 0.25 6.53-1.84 17.64-0.35 21.06l0.98 0.07c0.09 0.73 0.23 1.34 0.43 1.81l10.36 0.74c-0.67-1.69-1.41-2.13-0.32-12.34 0.77-7.13 0.75-14.06-2.81-17.6-0.46-0.82-1.02-1.55-1.71-2.17 3.65-1.55 6.23-5.91 6.56-10.43l0.56-7.58c0.33-4.48-0.89-8.08-3.22-10.59-2.03-3.38-5.6-5.42-10.06-5.77l-17.08-1.34-4.66 63.7 1.54 0.1-0.13 1.78zm27.89-15.13c-0.6 5.33 0.37 10.13 3.39 13.44 2.18 3.56 6.07 5.96 12.09 6.45 9.07 0.72 15.03-3.56 16.31-14.81l3.65-31.88c0.64-5.65-0.29-10.48-3.33-13.79-2.03-3.35-5.62-5.62-11.13-6.31-10.19-1.28-16.11 3.62-17.49 15.88zm-45.56-0.4 0.35-9.32-1.47-0.04 0.06-1.84-9.62-0.25-0.36 9.52c-0.04 1.06-0.39 5.64-5.51 5.54-1.08-0.02-2.09-0.39-2.91-1.07-0.37-0.83-0.57-1.83-0.54-2.96l1.06-34.46c0.08-2.64 0.43-6.52 5.25-6.52 1.46 0 2.51 0.36 3.27 0.92 0.41 1.02 0.48 2.11 0.47 2.86l-0.11 7.51 1.44 0.06-0.03 1.82 9.41 0.36 0.23-7.68c0.11-3.45-0.86-7.57-3.62-10.6-2.16-3.52-6.1-6.24-12.61-6.23-10.9 0.02-15.04 5.49-15.4 19.45l-0.76 28.95c-0.14 5.43 0.98 9.77 3.67 12.67 2.27 3.76 6.33 5.91 12.6 6.03 6.12 0.12 14.68-3.05 15.13-14.72zm-37.56 0.1c0-6.26-0.66-10.17-4.87-15.35-2.12-3.09-5.49-6.51-10.84-11.14-0.71-0.62-1.39-1.28-2.02-2-1.36-2.14-2.25-4.71-2.26-7.85 0-0.26-0.31-5.63 4.94-5.61 1.36 0 2.34 0.36 3.06 0.9 0.48 1.14 0.53 2.34 0.55 2.91l0.13 3.16h1.33l0.07 1.88 9.51-0.05c0.05-5.47-0.97-10.56-4.05-13.92-2.18-3.55-5.91-5.87-11.96-5.94-10.89-0.13-15.41 7.07-15.03 16.77 0.2 4.92 1.14 8.25 4.63 12.54 1.74 2.54 4.37 5.31 8.34 8.94 1.41 1.28 3.19 2.76 4.76 4.6 1.34 2.06 2.27 4.52 2.22 7.53-0.03 1.54-0.3 5.7-5.29 5.66-1.39-0.02-2.4-0.37-3.13-0.92-0.57-1.4-0.54-2.94-0.55-3.65l-0.03-4.22-1.39 0.01-0.02-1.89-9.53 0.05c-0.18 6.93 0.8 12.43 3.99 15.87 2.3 3.8 6.34 5.92 12.93 5.86 11.05-0.09 14.51-8.23 14.51-14.14zm-40.37-49.72-1.31 0.04-0.1-1.92-9.47 0.26 2.52 48.43c0.31 5.99-2.62 7.08-5 7.15-1.19 0.03-2.37-0.08-3.32-0.78-0.4-0.93-0.66-2.18-0.74-3.86l-2.29-48.48-1.32 0.06-0.09-1.94-10.05 0.42 2.3 48.16c0.24 4.91 1.45 8.88 3.95 11.59 2.51 4.13 7.01 6.31 14.11 5.87 7.92-0.49 13.82-5.86 13.29-16.23zm-36.05 49.79-2.8-31.96c-0.4-4.62-1.72-8.5-4.16-11.2-2.58-4.14-6.98-6.45-13.67-5.93-10.23 0.78-15.06 6.76-13.97 19.05l2.77 31.09c0.39 4.32 1.71 8.1 4.13 10.79 2.71 4.34 7.46 6.8 14.67 5.93 9.03-1.1 14.01-6.48 13.03-17.77zm-46.13-43.93-1.13 0.16-0.28-2.04-13.88 1.95-0.5 43.2-12.05-39.52-0.8 0.13-0.61-2.01-13.99 2.2 8.85 63.02 1.13-0.15 0.28 2.03 8.81-1.21-5.6-39.58 11.41 36.74 0.8-0.11 0.61 1.99 9.5-1.27 0.41-38.59 4.94 35.69 1.13-0.14 0.28 2.02 9.49-1.23zm8.9 239.41c-3.06 2.09-5.96 4.68-8.48 7.64-1.4 1.65-4.17 5.84-4.76 7.72-0.67 2.11-1.31 4.21-1.97 6.31 5.9-2.39 11.78-4.66 15.87-4.66 5.64 0 9.3 3.46 12.69 7.56 3.46 4.2 6.66 8.61 10.15 12.79 4.85 5.83 11.72 9.5 19.16 9.53 6.22 0.02 11.11-2.16 15.4-5.1-0.01-0.03-0.02-0.07-0.04-0.1 0.6-0.36 1.19-0.74 1.76-1.14-0.87-2.36-1.39-4.7-1.61-7.2-1.77 1.41-3.59 2.51-5.74 2.36-2.23-0.16-3.9-2.12-5.31-4.87-1.43-2.79-2.98-7.35-4.53-11.83-2.32-5.17-4.13-10.52-6.97-15.5-3.46-6.07-9.42-10.59-17.83-10.52-5.61 0.05-12.06 2.66-17.79 7.01zm142.94 72.18c-0.38 9.88 7.31 18.2 17.19 18.59 4.54 0.18 8.75-1.35 12.01-4.01 4.8-3.05 8.06-8.32 8.3-14.42 0.39-9.88-7.31-18.2-17.19-18.59-4.54-0.18-8.74 1.35-12.01 4.01-4.79 3.04-8.06 8.32-8.3 14.42zm-19.98-132.24c0.76-0.52 1.5-1.06 2.21-1.62 8.19 10.05 12.76 20.9 13.1 32.6 0.25 8.79-2.69 16-6.77 22.52-11.48 1.34-21.37-1.25-29.67-7.66-7.49-5.78-13.26-13.12-17.21-22.04 2.44-1.18 4.71-2.56 6.74-4.12 5.05-3.41 8.88-7.86 10.49-13.29 7.85 1.49 15.4-2.05 21.11-6.39zm-7.8 29.05c4.27 6.32 8.54 12.65 12.84 18.96 0.4-0.7 0.78-1.41 1.12-2.11l0.6 0.87c5.18-9.1 6.06-18.8 2.12-29.15l-14.96 10.19c-3.66-5.42-7.32-10.85-11.02-16.26-0.23 0.83-0.54 1.64-0.9 2.44-0.27-0.4-0.54-0.8-0.81-1.2-1.12 3.85-3.58 7.36-7.55 10.44-1.26 0.85-2.64 1.66-4.16 2.43 0.04 0.08 0.08 0.17 0.12 0.25-0.59 0.34-1.2 0.67-1.84 0.99 2.34 4.84 5.61 8.82 9.06 12.62zm-33.38-60.53 11.99-4.87-0.83 7.2-10.97-0.72zm136.3-139.61c1.07 0.12 1.89 0.44 2.51 0.9 0.53 1.34 0.47 2.83 0.37 3.65l-3.99 34.85c-0.14 1.28-0.96 5.84-5.69 5.41-1.17-0.11-2.06-0.46-2.72-0.96-0.78-1.94-0.41-4.24-0.34-4.88l3.9-34.29c0.15-1.27 0.74-5.25 5.96-4.68zm-46.52 14.31 1.19-17.76c2.75 0.08 4.98 0.18 6.39 0.6 0.49 0.15 0.91 0.36 1.27 0.63 0.33 0.85 0.43 1.77 0.38 2.56l-0.54 8.31c-0.08 1.24-0.37 3.5-2.17 4.78-1.3 0.92-3.41 1.28-6.52 0.88zm-145.66 21.81c0.11 1.28 0.22 5.92-4.5 6.43-1.63 0.18-2.81-0.22-3.66-0.9-0.72-1.58-0.8-3.34-0.85-3.89l-3.02-34.38c-0.11-1.27-0.32-5.29 4.9-5.77 1.52-0.14 2.62 0.23 3.42 0.86 0.45 1.01 0.61 2.06 0.66 2.7z" fill="url(#grd11)"/>
   <path class="shp4" d="m232.82 402.87c1.65-20.76 4.11-40.49 7.47-58.71l0.09-0.5 0.49-0.12c49.3-12.11 119.63-17.47 188.36-17.46 75.14 0.01 148.4 6.44 190.19 17.5l0.5 0.13 0.08 0.5c4.01 25.36 6.46 47.34 7.93 67.24 1.48 19.88 1.98 37.72 2.12 54.77 0.49 31.97-2.4 67.09-10.35 101.82-6.83 29.81-17.4 59.35-32.76 86.36-12.81 22.51-37.45 52.94-65.93 83.03-28.98 30.64-61.94 60.95-90.43 82.25l-0.45 0.34-0.46-0.32c-14.91-10.23-31.7-24.69-49.34-41.45-17.63-16.75-36.11-35.81-54.43-55.27-8.89-9.44-14.61-16.4-22.26-25.71-1.41-1.71-2.89-3.51-4.46-5.42-2.96-3.59-5.91-7.29-8.93-11.37s-6.1-8.54-9.32-13.63c-13.76-21.73-26.55-48.18-35.85-80.36-9.31-32.15-15.13-70.02-14.96-114.61 0.1-23.81 0.95-47.01 2.7-69.01zm1.56 0.12c-1.75 22.01-2.61 45.16-2.7 68.89-0.17 44.43 5.63 82.16 14.9 114.18 9.26 32.02 21.98 58.34 35.67 79.96 3.2 5.06 6.26 9.49 9.26 13.54 3 4.06 5.94 7.74 8.87 11.3 1.58 1.91 3.06 3.71 4.47 5.42 7.62 9.28 13.32 16.21 22.19 25.64 18.3 19.44 36.76 38.47 54.37 55.2 17.4 16.54 33.96 30.81 48.69 40.98 28.33-21.25 61.02-51.33 89.78-81.73 28.39-30.01 52.95-60.32 65.7-82.73 15.28-26.87 25.8-56.27 32.59-85.94 7.93-34.61 10.81-69.61 10.32-101.46-0.13-16.99-0.64-34.78-2.12-54.67-1.46-19.75-3.88-41.53-7.83-66.6-41.77-10.96-114.59-17.32-189.31-17.33-68.39-0.01-138.34 5.31-187.5 17.3-3.3 18-5.72 37.51-7.35 58.05z"/>
   <path class="shp18" d="m241.73 344.94c49.16-11.99 119.11-17.31 187.5-17.3 74.72 0.01 147.54 6.37 189.31 17.33 3.95 25.07 6.37 46.85 7.83 66.6 1.48 19.89 1.99 37.68 2.12 54.67 0.49 31.85-2.39 66.85-10.32 101.46-6.79 29.67-17.31 59.07-32.59 85.94-12.75 22.41-37.31 52.72-65.7 82.73-28.76 30.4-61.45 60.48-89.78 81.73-14.73-10.17-31.29-24.44-48.69-40.98-17.61-16.73-36.07-35.76-54.37-55.2-8.87-9.43-14.57-16.36-22.19-25.64l-4.47-5.42c-2.93-3.56-5.87-7.24-8.87-11.3-3-4.05-6.06-8.48-9.26-13.54-13.69-21.62-26.41-47.94-35.67-79.96-9.27-32.02-15.07-69.75-14.9-114.18 0.09-23.73 0.95-46.88 2.7-68.89 1.63-20.54 4.05-40.05 7.35-58.05zm267.26 381.33c35.95-37.65 65.65-73.75 79.58-106.51 17.15-40.31 26.4-84.58 28.59-131.52 2.08-44.66-5.9-121.76-8.81-132.4-0.28-1.06-0.78-1.71-1.91-1.97-48.78-11.43-110.91-14.64-177.66-15.02-70.44 0.57-131.34 4.69-175.8 15.29-0.55 0.13-0.84 0.63-0.98 1.22-6.59 34.24-9.62 78.36-9.37 123.49 0.22 41.4 8.96 95.19 28.63 139.65 15.96 38.07 47.47 73.03 80.11 107.76h72.7l21.72 0.45c0.53-0.21 1.28-0.37 1.77-0.54zm-37.2 24.23c0.62-1.93 0.83-3.64 0.84-4.77 0.02-3.37-0.7-6-2.26-7.8-1.58-1.82-3.99-2.77-7.32-2.79h-0.15c-3.33 0.02-5.69 1.09-7.24 2.81-1.54 1.72-2.24 4.07-2.25 6.68 0.01 1.66 0.01 3.32 0.03 4.99l6.67-0.01c-0.01-1.83-0.02-3.68-0.02-5.52 0-0.64 0.25-1.31 0.73-1.82 0.47-0.52 1.18-0.88 2.1-0.88h0.02c0.81 0 1.47 0.22 1.91 0.8 0.48 0.62 0.74 1.65 0.75 3.23 0.02 2.76-0.59 4.9-1.41 6.57-0.82 1.66-1.86 2.86-2.69 3.74-3.33 3.53-5.35 5.99-6.53 8.14-1.21 2.2-1.56 4.07-1.55 6.4l0.02 5.56 18.33 0.02h0.39l0.01-6.43h-11.86c-0.35-2.62 1.67-4.92 4.26-7.84 1.62-1.84 3.46-3.92 5.1-6.5 0.98-1.56 1.66-3.13 2.12-4.58zm-25.38-12.57c-1.57-1.82-3.98-2.77-7.31-2.79h-0.16c-3.32 0.02-5.69 1.09-7.23 2.81s-2.25 4.07-2.26 6.68c0.02 1.66 0.02 3.32 0.03 4.99l6.68-0.01c-0.01-1.84-0.03-3.68-0.03-5.52 0-0.64 0.25-1.31 0.73-1.83 0.48-0.51 1.19-0.87 2.1-0.87h0.02c0.82 0 1.47 0.22 1.92 0.8 0.47 0.62 0.74 1.65 0.75 3.23 0.02 2.76-0.59 4.9-1.41 6.56-0.82 1.67-1.86 2.87-2.69 3.75-3.33 3.53-5.35 5.99-6.54 8.14-1.2 2.2-1.55 4.07-1.54 6.4l0.02 5.56 18.33 0.02h0.39l0.01-6.43h-11.87c-0.35-2.62 1.68-4.92 4.26-7.84 1.63-1.84 3.47-3.92 5.1-6.5 0.99-1.56 1.67-3.13 2.13-4.58 0.61-1.93 0.83-3.64 0.84-4.77 0.02-3.37-0.7-6-2.27-7.8zm-22.06 27.58-0.08-21.71c-0.01-1.31-0.19-2.71-0.67-3.93-0.4-1.03-1.02-1.94-1.91-2.54-0.94-0.64-1.94-1.2-3.09-1.6s-2.45-0.64-3.97-0.64c-3.32 0-5.66 1.01-7.22 2.6-1.86 1.88-2.6 4.58-2.6 7.38v9.04c0 1.42 0.48 3.38 1.57 4.98 1.1 1.63 2.84 2.91 5.36 2.91l0.01-0.01c3.37 0 4.88-1.34 5.7-2.35l-0.01 6.05c0 1.78-0.4 2.84-0.97 3.45-0.55 0.58-1.29 0.75-2.01 0.73-1.36-0.02-2.06-0.3-2.41-0.97-0.39-0.75-0.43-2.03-0.43-3.99v-0.39h-6.85l-0.01 0.39c-0.02 1.74 0.06 4.54 1.37 6.94 1.33 2.43 3.9 4.42 8.82 4.45h0.12c3.48-0.01 5.8-1.42 7.25-3.48 1.44-2.04 2.02-4.71 2.03-7.31zm-32.17-29.95-0.08 0.28c-0.33 1.17-0.91 2.39-1.91 3.29s-2.43 1.49-4.5 1.43l-0.4-0.01v5.15h4.67l0.04 30.1h7.03c-0.03-13.41-0.05-26.83-0.07-40.24z"/>
   <path class="shp4" d="m471.73 820.93c-15.41 13.73-29.1 24.8-40.3 32.21-0.78 0.57-1.86 0.62-2.71 0.05-10.56-7.14-22.77-16.42-40.36-32.2-17.53-15.72-40.38-37.87-72.23-70.74l-3.22-3.65c-25.32-28.66-51.67-58.48-68.45-92.9-7.66-15.71-14.18-31.82-19.61-48.28-5.51-16.73-9.9-33.85-13.21-51.27-2.33-12.27-4.35-28.73-5.73-46.32-1.32-16.77-2.06-34.66-1.91-51.01 0.2-23.65 1.34-47.08 3.56-69.68 2.09-21.31 5.15-41.89 9.31-61.21 0.17-0.77 0.71-1.43 1.5-1.72 22.75-8.28 52.26-14.12 85.7-18.01 37.77-4.4 80.66-6.33 124.57-6.52 39.12-0.64 82.41 1.5 121.38 5.97 36.71 4.21 69.66 10.51 91.82 18.52 0.77 0.25 1.39 0.87 1.58 1.71 4.79 20.92 8.64 49.13 10.96 78.63 2.26 28.75 3.07 58.78 1.89 84.54l-0.01 0.13c-1.89 31.45-6.06 60.82-12.64 87.86-6.44 26.44-15.19 50.65-26.39 72.39-11.38 22.9-25.21 43.78-40.46 63.23-15.23 19.42-31.86 37.39-48.86 54.5-20.17 20.32-39.25 38.68-56.18 53.77zm-3.11-3.5c16.91-15.08 35.91-33.38 55.97-53.57 16.9-17.01 33.41-34.85 48.49-54.08 15.07-19.21 28.73-39.83 39.96-62.44l0.02-0.04c11.04-21.41 19.66-45.28 26.01-71.36 6.51-26.75 10.63-55.85 12.52-87.03v-0.06c1.18-25.52 0.37-55.36-1.88-83.97-2.26-28.72-5.97-56.16-10.58-76.7-21.78-7.69-53.87-13.76-89.64-17.87-38.83-4.46-81.9-6.59-120.77-5.95h-0.07c-43.67 0.19-86.38 2.11-124.04 6.5-32.52 3.78-61.21 9.4-83.42 17.31-3.99 18.83-6.94 38.79-8.97 59.42-2.21 22.49-3.34 45.77-3.54 69.27-0.15 16.1 0.59 33.86 1.91 50.6 1.37 17.48 3.37 33.76 5.66 45.83 3.26 17.17 7.6 34.08 13.06 50.66 5.36 16.26 11.8 32.18 19.37 47.69 16.52 33.9 42.64 63.45 67.73 91.86l3.09 3.49c31.81 32.84 54.57 54.9 71.97 70.51 16.64 14.92 28.42 23.97 38.58 30.92 10.77-7.26 23.85-17.89 38.57-30.99z"/>
   <path class="shp19" d="m430.05 848.42c-10.16-6.95-21.94-16-38.58-30.92-17.4-15.61-40.16-37.67-71.97-70.51l-3.09-3.49c-25.09-28.41-51.21-57.96-67.73-91.86-7.57-15.51-14.01-31.43-19.37-47.69-5.46-16.58-9.8-33.49-13.06-50.66-2.29-12.07-4.29-28.35-5.66-45.83-1.32-16.74-2.06-34.5-1.91-50.6 0.2-23.5 1.33-46.78 3.54-69.27 2.03-20.63 4.98-40.59 8.97-59.42 22.21-7.91 50.9-13.53 83.42-17.31 37.66-4.39 80.37-6.31 124.04-6.5h0.07c38.87-0.64 81.94 1.49 120.77 5.95 35.77 4.11 67.86 10.18 89.64 17.87 4.61 20.54 8.32 47.98 10.58 76.7 2.25 28.61 3.06 58.45 1.88 83.97v0.06c-1.89 31.18-6.01 60.28-12.52 87.03-6.35 26.08-14.97 49.95-26.01 71.36l-0.02 0.04c-11.23 22.61-24.89 43.23-39.96 62.44-15.08 19.23-31.59 37.07-48.49 54.08-20.06 20.19-39.06 38.49-55.97 53.57-14.72 13.1-27.8 23.73-38.57 30.99zm200-382.2c-0.14-17.05-0.64-34.89-2.12-54.77-1.47-19.9-3.92-41.88-7.94-67.23l-0.08-0.51-0.49-0.13c-41.79-11.06-115.05-17.49-190.2-17.5-68.73-0.01-139.05 5.35-188.35 17.46l-0.49 0.12-0.09 0.5c-3.37 18.22-5.82 37.95-7.47 58.71-1.75 22-2.61 45.2-2.7 69.01-0.17 44.59 5.65 82.46 14.96 114.62 9.3 32.17 22.09 58.62 35.85 80.35 3.22 5.1 6.3 9.55 9.32 13.64 3.02 4.07 5.97 7.78 8.93 11.36l4.46 5.42c7.65 9.32 13.37 16.27 22.26 25.72 18.32 19.46 36.8 38.51 54.43 55.26 17.64 16.76 34.43 31.22 49.34 41.45l0.46 0.32 0.45-0.33c28.49-21.31 61.45-51.62 90.43-82.25 28.48-30.1 53.12-60.52 65.93-83.04 15.36-27.01 25.93-56.54 32.76-86.36 7.95-34.73 10.84-69.85 10.35-101.82z" fill="url(#grd12)"/>
   <path class="shp4" d="m450.41 72.35c5.95 2.35 11.15 5.81 15.38 9.88 4.39 4.23 7.72 9.01 9.96 14.46 2.25 5.43 3.41 11.51 3.48 18.36 0.16 15.62-3.25 22.92-9.87 37.07l-0.07 0.16c-1.03 2.2-4.89 10.21-12.1 17.6-7.24 7.42-17.85 14.22-32.37 13.97-11.6-0.21-20.34-4.21-27.24-10.28-6.85-6.03-11.87-14.09-16.09-22.49-2.79-5.57-5.11-11.37-6.7-17.57-1.59-6.22-2.44-12.84-2.29-20.02 0.17-6.57 1.47-12.64 4.01-18.19 2.55-5.56 6.32-10.57 11.44-14.98 4.02-3.47 8.79-6.16 13.58-8.03 5.33-2.08 10.71-3.15 15.14-3.17l15.79-0.05c6.49-0.08 12.53 1.14 17.95 3.28zm-0.57 1.46c-5.25-2.07-11.1-3.25-17.37-3.18l-15.8 0.05c-4.24 0.02-9.41 1.05-14.57 3.06-4.64 1.82-9.25 4.41-13.13 7.76-4.94 4.26-8.59 9.1-11.04 14.44-2.45 5.36-3.7 11.23-3.87 17.58-0.15 7.02 0.69 13.51 2.24 19.6 1.57 6.1 3.85 11.8 6.59 17.26 4.13 8.24 9.04 16.14 15.73 22.02 6.64 5.84 15.05 9.69 26.22 9.89 13.99 0.25 24.23-6.33 31.23-13.5 7.04-7.21 10.8-15.02 11.81-17.17l0.07-0.16c6.52-13.94 9.88-21.13 9.72-36.4-0.07-6.64-1.19-12.53-3.36-17.78-2.16-5.23-5.36-9.84-9.6-13.92-4.09-3.93-9.12-7.28-14.87-9.55z"/>
   <path class="shp4" d="m346.72 100.53c1.77 0.4 3.36 0.99 4.68 1.67l0.46 0.23-0.03 0.52c-0.76 10.98 0.45 22.35 3.34 33.79 3.01 11.93 7.85 23.93 14.19 35.63l0.22 0.4-0.24 0.39c-2.06 3.34-4.77 5.94-7.83 7.81-3.28 2-6.96 3.17-10.68 3.5-3.15 0.29-6.15 0.1-9-0.54-2.93-0.65-5.69-1.77-8.27-3.32-3.61-2.15-6.93-5.1-10.05-8.65-3.1-3.53-6-7.65-8.79-12.19-3.12-4.93-5.84-10.56-7.75-16.33-1.78-5.35-2.87-10.82-2.95-15.96-0.06-2.95 0.32-5.7 0.96-8.15 0.73-2.79 1.81-5.2 3.02-7.05 2.36-3.6 5.2-6.59 8.68-8.74s7.58-3.46 12.43-3.7c2.69-0.14 5.39-0.07 8.09 0.01 1.47 0.04 2.93 0.08 4.38 0.09 1.83 0.01 3.56 0.23 5.14 0.59zm-0.34 1.52c-1.49-0.34-3.11-0.54-4.81-0.55-1.49-0.01-2.95-0.05-4.42-0.09-2.65-0.07-5.32-0.15-7.97-0.02-4.57 0.23-8.42 1.46-11.68 3.48s-5.95 4.84-8.19 8.26c-1.13 1.73-2.14 3.98-2.82 6.6-0.61 2.32-0.97 4.93-0.92 7.72 0.09 4.98 1.15 10.3 2.87 15.5 1.87 5.63 4.53 11.14 7.6 15.98l0.01 0.01c2.74 4.48 5.59 8.54 8.63 11.99 3.01 3.44 6.21 6.28 9.68 8.34 2.44 1.46 5.05 2.52 7.8 3.14 2.7 0.6 5.54 0.78 8.53 0.51 3.49-0.31 6.93-1.41 10.01-3.28 2.74-1.68 5.18-3.98 7.07-6.92-6.3-11.69-11.11-23.68-14.12-35.61-2.88-11.4-4.11-22.76-3.42-33.74-1.12-0.53-2.42-0.99-3.85-1.32z"/>
   <path class="shp4" d="m504.91 100.53c1.58-0.36 3.31-0.58 5.15-0.59 1.44-0.01 2.91-0.05 4.38-0.09 2.69-0.07 5.39-0.15 8.08-0.01 4.86 0.24 8.95 1.55 12.43 3.7 3.48 2.16 6.32 5.14 8.68 8.74 1.21 1.85 2.29 4.26 3.03 7.06 0.64 2.44 1.01 5.19 0.96 8.14-0.09 5.14-1.17 10.61-2.95 15.96-1.92 5.77-4.63 11.4-7.76 16.33-2.78 4.54-5.68 8.66-8.78 12.19-3.12 3.55-6.44 6.5-10.05 8.65-2.59 1.55-5.35 2.67-8.28 3.32-2.84 0.64-5.84 0.83-9 0.55-3.72-0.34-7.4-1.5-10.68-3.51-3.05-1.87-5.76-4.47-7.83-7.81l-0.23-0.39 0.21-0.4c6.35-11.7 11.19-23.7 14.2-35.63 2.88-11.44 4.09-22.81 3.34-33.79l-0.04-0.52 0.46-0.23c1.33-0.68 2.91-1.27 4.68-1.67zm0.35 1.52c-1.43 0.33-2.73 0.79-3.86 1.32 0.69 10.98-0.54 22.34-3.41 33.74-3.01 11.93-7.83 23.92-14.13 35.61 1.9 2.94 4.34 5.24 7.08 6.92 3.07 1.87 6.52 2.96 10 3.28 2.99 0.27 5.84 0.09 8.53-0.51 2.76-0.62 5.36-1.68 7.81-3.14 3.46-2.06 6.66-4.9 9.67-8.34 3.04-3.45 5.89-7.51 8.64-11.99v-0.01c3.07-4.83 5.73-10.34 7.6-15.98 1.73-5.2 2.79-10.52 2.87-15.5 0.05-2.79-0.31-5.4-0.91-7.72-0.69-2.62-1.7-4.87-2.83-6.6-2.23-3.41-4.92-6.24-8.19-8.26-3.25-2.02-7.1-3.24-11.68-3.48-2.65-0.13-5.31-0.05-7.97 0.02-1.46 0.04-2.93 0.08-4.41 0.09-1.71 0.01-3.33 0.21-4.81 0.55z"/>
   <path class="shp4" d="m304.76 186.9c-1.26 1.22-2.65 2.09-4.28 2.86-2.21 1.04-4.48 1.5-6.92 1.38-2.42-0.13-4.99-0.82-7.85-2.08-3.02-1.35-5.52-3.61-7.78-6.44-2.22-2.78-4.21-6.1-6.28-9.63-1.67-2.84-2.79-5.79-3.54-8.52-1.05-3.86-1.34-7.28-1.31-9.27 0.04-2.53 0.74-4.86 1.85-6.89 1.25-2.27 3.02-4.18 4.97-5.59 1.32-0.94 2.68-1.79 4.67-2.34 1.96-0.55 4.51-0.82 8.22-0.6l0.56 0.03 0.15 0.54c2.12 7.59 4.99 14.84 8.45 21.58 3.58 7 7.78 13.45 12.42 19.19l0.31 0.38-0.22 0.45c-1.06 2.16-2.17 3.73-3.42 4.95zm-1.09-1.12c1.04-1.02 1.97-2.31 2.89-4.08-4.58-5.7-8.73-12.12-12.28-19.06-3.42-6.68-6.28-13.84-8.41-21.33-3.22-0.15-5.45 0.09-7.16 0.57-1.77 0.5-2.99 1.26-4.17 2.11-1.78 1.27-3.38 3-4.52 5.07-1 1.83-1.62 3.91-1.66 6.16-0.03 1.88 0.25 5.14 1.26 8.84 0.71 2.61 1.78 5.43 3.37 8.14 2.05 3.49 4.01 6.76 6.16 9.45 2.11 2.64 4.42 4.74 7.19 5.97 2.69 1.19 5.08 1.84 7.3 1.96 2.18 0.11 4.2-0.3 6.17-1.23 1.49-0.7 2.74-1.48 3.86-2.57z"/>
   <path class="shp4" d="m546.95 186.9c-1.26-1.22-2.36-2.79-3.43-4.95l-0.22-0.45 0.32-0.38c4.63-5.74 8.84-12.19 12.42-19.19 3.45-6.74 6.32-13.99 8.45-21.58l0.15-0.54 0.55-0.03c3.71-0.22 6.27 0.05 8.22 0.6 2 0.55 3.36 1.4 4.67 2.34 1.96 1.41 3.73 3.32 4.97 5.59 1.12 2.03 1.81 4.37 1.85 6.89 0.03 1.98-0.26 5.41-1.31 9.27-0.74 2.73-1.87 5.68-3.53 8.52-2.07 3.53-4.07 6.85-6.29 9.63-2.26 2.83-4.75 5.09-7.78 6.44-2.85 1.26-5.43 1.95-7.84 2.08-2.45 0.12-4.72-0.34-6.92-1.38-1.64-0.77-3.03-1.64-4.28-2.86zm1.08-1.12c1.12 1.09 2.38 1.87 3.86 2.57 1.97 0.93 3.99 1.34 6.18 1.23 2.21-0.12 4.61-0.77 7.29-1.96 2.77-1.23 5.08-3.33 7.19-5.97 2.15-2.69 4.12-5.96 6.16-9.45 1.59-2.71 2.66-5.53 3.38-8.14 1-3.7 1.28-6.96 1.25-8.84-0.03-2.25-0.66-4.33-1.66-6.16-1.13-2.06-2.74-3.8-4.51-5.07-1.19-0.85-2.41-1.61-4.18-2.11-1.71-0.48-3.94-0.72-7.16-0.57-2.13 7.49-4.99 14.65-8.41 21.33-3.54 6.94-7.7 13.36-12.27 19.06 0.91 1.77 1.85 3.06 2.88 4.08z"/>
   <path class="shp4" d="m280 218.96c-0.87-0.04-1.61-0.37-2.22-1.26-0.26-0.37-0.45-0.92-0.56-1.56-0.12-0.63-0.17-1.37-0.16-2.08 0.03-1.73 0.22-3.52 0.41-5.3 0.12-1.09 0.24-2.19 0.31-3.24-6.25-4.34-12.76-11.61-18.07-19.82-5.26-8.12-9.37-17.19-10.94-25.29-0.55-2.89-0.97-6.13-0.93-9.45 0.04-3.34 0.53-6.75 1.79-9.96 2.38-6.06 6.58-11.06 12.56-14.25 5.28-2.81 11.93-4.21 19.9-3.68-0.23-6.11 0.63-11.82 2.81-17.16 2.29-5.6 6.02-10.78 11.45-15.59 6.41-5.68 15.95-8.77 26.06-9.84 11.45-1.22 23.68 0.13 32.93 3.2 6.46-12.9 15.52-22.49 27.16-28.85 11.79-6.45 26.21-9.58 43.25-9.5 16 0.08 30.37 2.67 42.41 8.79 11.89 6.05 21.5 15.53 28.14 29.45 8.14-3.07 25.95-5.83 41.91-1.75 10.85 2.77 20.85 8.69 26.46 19.79 1.77 3.5 3.02 7.1 3.83 10.8 0.75 3.42 1.14 6.92 1.23 10.52 7.56-0.63 15.37 1.01 21.6 4.96 5.78 3.67 10.2 9.3 11.82 16.92 0.84 3.92 0.86 8.39 0.24 12.86-0.65 4.73-2.01 9.48-3.87 13.61-3.81 8.47-7.98 15.51-12.33 21.22-4.59 6-9.38 10.54-14.16 13.69 0.1 2.51 0.46 6.06 0.34 8.44-0.04 0.59-0.11 1.15-0.24 1.67-0.14 0.56-0.35 1.07-0.65 1.52-0.27 0.4-0.61 0.67-1.02 0.83-0.4 0.15-0.84 0.19-1.31 0.12h-0.06l-0.04-0.01c-23.88-6.39-48.06-10.95-72.52-13.83-24.47-2.88-49.2-4.08-74.19-3.7-23.54 0.37-47.09 1.39-70.61 3.97-23.49 2.57-46.95 6.71-70.33 13.33-0.89 0.25-1.66 0.46-2.4 0.43zm0.06-1.56c0.5 0.02 1.16-0.16 1.91-0.38 23.47-6.64 47.02-10.79 70.59-13.38 23.56-2.58 47.15-3.6 70.76-3.97 25.07-0.38 49.87 0.82 74.39 3.7 24.52 2.89 48.76 7.47 72.7 13.86 0.19 0.02 0.35 0.01 0.49-0.04 0.11-0.04 0.21-0.12 0.29-0.25 0.19-0.28 0.33-0.62 0.43-1.01 0.1-0.42 0.15-0.88 0.18-1.36l-0.36-9.21 0.38-0.24c4.75-3.07 9.54-7.56 14.13-13.57 4.28-5.62 8.4-12.56 12.15-20.91 1.79-3.99 3.11-8.59 3.74-13.18 0.6-4.3 0.58-8.59-0.21-12.32-1.53-7.17-5.7-12.48-11.14-15.93-6.16-3.9-13.96-5.45-21.44-4.65l-0.85 0.09-0.01-0.86c-0.05-3.79-0.43-7.46-1.21-11.04-0.79-3.57-1.99-7.05-3.71-10.44-5.36-10.62-14.99-16.3-25.45-18.97-16.07-4.11-34.03-1.14-41.62 1.95l-0.69 0.28-0.31-0.68c-6.49-13.93-15.98-23.39-27.75-29.38-11.81-6-25.95-8.54-41.71-8.62-16.76-0.08-30.94 2.99-42.5 9.31-11.52 6.31-20.47 15.86-26.8 28.78l-0.3 0.62-0.65-0.22c-9.13-3.16-21.41-4.57-32.91-3.35-9.82 1.04-19.05 4.01-25.2 9.46-5.24 4.64-8.84 9.63-11.03 15.01-2.2 5.37-3 11.15-2.66 17.37l0.05 0.9-0.89-0.08c-8.06-0.67-14.71 0.66-19.92 3.44-5.63 3.01-9.6 7.72-11.84 13.44-1.19 3.02-1.65 6.24-1.69 9.41-0.03 3.18 0.37 6.32 0.91 9.14 1.52 7.9 5.55 16.77 10.71 24.73 5.31 8.21 11.82 15.44 18.01 19.63l0.37 0.25-0.03 0.45c-0.07 1.22-0.21 2.48-0.34 3.75-0.19 1.75-0.39 3.52-0.41 5.15-0.01 0.62 0.04 1.25 0.13 1.79 0.08 0.42 0.18 0.76 0.31 0.94 0.29 0.41 0.62 0.57 1 0.59z"/>
   <path class="shp20" d="m281.97 217.02c-0.75 0.22-1.41 0.4-1.91 0.38-0.38-0.02-0.71-0.18-1-0.59-0.13-0.18-0.23-0.52-0.31-0.94-0.09-0.54-0.14-1.17-0.13-1.79 0.02-1.63 0.22-3.4 0.41-5.15 0.13-1.27 0.27-2.53 0.34-3.75l0.03-0.45-0.37-0.25c-6.19-4.19-12.7-11.42-18.01-19.63-5.16-7.96-9.19-16.83-10.71-24.73-0.54-2.82-0.94-5.96-0.91-9.14 0.04-3.17 0.5-6.39 1.69-9.41 2.24-5.72 6.21-10.43 11.84-13.44 5.21-2.78 11.86-4.11 19.92-3.44l0.89 0.08-0.05-0.9c-0.34-6.22 0.46-12 2.66-17.37 2.19-5.38 5.79-10.37 11.03-15.01 6.15-5.45 15.38-8.42 25.2-9.46 11.5-1.22 23.78 0.19 32.91 3.35l0.65 0.22 0.3-0.62c6.33-12.92 15.28-22.47 26.8-28.78 11.56-6.32 25.74-9.39 42.5-9.31 15.76 0.08 29.9 2.62 41.71 8.62 11.77 5.99 21.26 15.45 27.75 29.38l0.31 0.68 0.69-0.28c7.59-3.09 25.55-6.06 41.62-1.95 10.46 2.67 20.09 8.35 25.45 18.97 1.72 3.39 2.92 6.87 3.71 10.44 0.78 3.58 1.16 7.25 1.21 11.04l0.01 0.86 0.85-0.09c7.48-0.8 15.28 0.75 21.44 4.65 5.44 3.45 9.61 8.76 11.14 15.93 0.79 3.73 0.81 8.02 0.21 12.32-0.63 4.59-1.95 9.19-3.74 13.18-3.75 8.35-7.87 15.29-12.15 20.91-4.59 6.01-9.38 10.5-14.13 13.57l-0.38 0.24 0.36 9.21c-0.03 0.48-0.08 0.94-0.18 1.36-0.1 0.39-0.24 0.73-0.43 1.01-0.08 0.13-0.18 0.21-0.29 0.25-0.14 0.05-0.3 0.06-0.49 0.04-23.94-6.39-48.18-10.97-72.7-13.86-24.52-2.88-49.32-4.08-74.39-3.7-23.61 0.37-47.2 1.39-70.76 3.97-23.57 2.59-47.12 6.74-70.59 13.38zm26.43-35.52-0.31-0.38c-4.64-5.74-8.84-12.19-12.42-19.19-3.46-6.74-6.33-13.99-8.45-21.58l-0.15-0.54-0.56-0.03c-3.71-0.22-6.26 0.05-8.22 0.6-1.99 0.55-3.35 1.4-4.66 2.34-1.96 1.41-3.73 3.32-4.98 5.59-1.11 2.03-1.81 4.37-1.85 6.89-0.03 1.98 0.26 5.41 1.31 9.27 0.75 2.73 1.87 5.68 3.54 8.52 2.07 3.53 4.06 6.85 6.28 9.63 2.27 2.83 4.76 5.09 7.78 6.44 2.86 1.26 5.43 1.95 7.85 2.08 2.44 0.12 4.71-0.34 6.92-1.38 1.63-0.77 3.02-1.64 4.28-2.86 1.25-1.22 2.36-2.79 3.42-4.95zm43.43-78.55 0.03-0.52-0.46-0.23c-1.32-0.68-2.91-1.27-4.67-1.67-1.58-0.36-3.32-0.58-5.15-0.59-1.45-0.01-2.91-0.05-4.38-0.09-2.7-0.08-5.4-0.15-8.09-0.01-4.85 0.24-8.95 1.55-12.43 3.7s-6.32 5.14-8.68 8.74c-1.21 1.85-2.29 4.26-3.02 7.05-0.64 2.45-1.02 5.2-0.97 8.15 0.09 5.14 1.18 10.61 2.96 15.96 1.91 5.77 4.63 11.4 7.75 16.33 2.79 4.54 5.69 8.66 8.79 12.19 3.12 3.55 6.44 6.5 10.05 8.65 2.58 1.55 5.34 2.67 8.27 3.32 2.85 0.64 5.85 0.83 9 0.54 3.72-0.33 7.4-1.5 10.68-3.5 3.06-1.87 5.77-4.47 7.83-7.81l0.24-0.39-0.22-0.4c-6.34-11.7-11.18-23.7-14.19-35.63-2.89-11.44-4.1-22.81-3.34-33.79zm80.63-33.88-15.79 0.05c-4.43 0.02-9.81 1.09-15.14 3.17-4.79 1.87-9.56 4.56-13.58 8.03-5.12 4.41-8.89 9.42-11.44 14.98-2.54 5.55-3.84 11.62-4.01 18.19-0.15 7.18 0.7 13.8 2.29 20.02 1.59 6.2 3.91 12 6.7 17.57 4.22 8.4 9.24 16.46 16.09 22.49 6.9 6.07 15.64 10.07 27.24 10.28 14.52 0.25 25.13-6.55 32.37-13.97 7.21-7.39 11.07-15.4 12.1-17.6l0.07-0.16c6.62-14.15 10.03-21.45 9.87-37.07-0.07-6.85-1.23-12.93-3.48-18.36-2.24-5.45-5.57-10.23-9.96-14.46-4.23-4.07-9.43-7.53-15.38-9.88-5.42-2.14-11.46-3.36-17.95-3.28zm67.77 33.13-0.46 0.23 0.04 0.52c0.75 10.98-0.46 22.35-3.34 33.79-3.01 11.93-7.85 23.93-14.2 35.63l-0.21 0.4 0.23 0.39c2.07 3.34 4.78 5.94 7.83 7.81 3.28 2.01 6.96 3.17 10.68 3.51 3.16 0.28 6.16 0.09 9-0.55 2.93-0.65 5.69-1.77 8.28-3.32 3.61-2.15 6.93-5.1 10.05-8.65 3.1-3.53 6-7.65 8.78-12.19 3.13-4.93 5.84-10.56 7.76-16.33 1.78-5.35 2.86-10.82 2.95-15.96 0.05-2.95-0.32-5.7-0.96-8.14-0.74-2.8-1.82-5.21-3.03-7.06-2.36-3.6-5.2-6.58-8.68-8.74-3.48-2.15-7.57-3.46-12.43-3.7-2.69-0.14-5.39-0.06-8.08 0.01-1.47 0.04-2.94 0.08-4.38 0.09-1.84 0.01-3.57 0.23-5.15 0.59-1.77 0.4-3.35 0.99-4.68 1.67zm43.3 79.75c1.06 2.16 2.16 3.73 3.42 4.95 1.25 1.22 2.64 2.09 4.28 2.86 2.2 1.04 4.47 1.5 6.92 1.38 2.41-0.13 4.99-0.82 7.84-2.08 3.03-1.35 5.52-3.61 7.78-6.44 2.22-2.78 4.22-6.1 6.29-9.63 1.66-2.84 2.79-5.79 3.53-8.52 1.05-3.86 1.34-7.29 1.31-9.27-0.04-2.52-0.73-4.86-1.85-6.89-1.24-2.27-3.01-4.18-4.97-5.59-1.31-0.94-2.67-1.79-4.67-2.34-1.95-0.55-4.51-0.82-8.22-0.6l-0.55 0.03-0.15 0.54c-2.13 7.59-5 14.84-8.45 21.58-3.58 7-7.79 13.45-12.42 19.19l-0.32 0.38z" fill="url(#grd13)"/>
   <path class="shp4" d="m413.44 8.32c3.18-3.17 7.57-5.13 12.42-5.12s9.24 1.98 12.41 5.16 5.13 7.57 5.12 12.42-1.98 9.24-5.16 12.41-7.57 5.13-12.42 5.12-9.24-1.98-12.41-5.16-5.13-7.57-5.12-12.42h-0.01c0.02-4.85 1.99-9.24 5.17-12.41zm1.1 1.11c-2.9 2.89-4.7 6.88-4.7 11.3-0.01 4.42 1.78 8.42 4.67 11.32s6.88 4.69 11.3 4.7 8.42-1.78 11.32-4.67 4.7-6.88 4.7-11.3c0.01-4.42-1.78-8.42-4.67-11.32s-6.89-4.7-11.3-4.7c-4.42-0.01-8.42 1.78-11.32 4.67z"/>
   <path class="shp21" d="m437.13 32.08c2.9-2.89 4.7-6.88 4.7-11.3 0.01-4.42-1.78-8.42-4.67-11.32s-6.88-4.7-11.3-4.7c-4.42-0.01-8.42 1.78-11.32 4.67s-4.7 6.88-4.7 11.3c-0.01 4.42 1.78 8.42 4.67 11.32s6.88 4.7 11.3 4.7c4.42 0.01 8.42-1.78 11.32-4.67z" fill="url(#grd14)"/>
   <path class="shp18" d="m306.55 181.7c-4.57-5.7-8.72-12.12-12.27-19.06-3.42-6.68-6.28-13.84-8.41-21.33-3.22-0.15-5.45 0.09-7.16 0.57-1.77 0.5-2.99 1.26-4.17 2.11-1.78 1.27-3.39 3-4.52 5.07-1 1.83-1.63 3.91-1.66 6.16-0.03 1.88 0.25 5.14 1.26 8.84 0.71 2.61 1.78 5.43 3.37 8.14 2.05 3.49 4.01 6.76 6.16 9.45 2.11 2.64 4.42 4.74 7.19 5.97 2.69 1.19 5.08 1.84 7.3 1.96 2.18 0.11 4.2-0.3 6.17-1.23 1.49-0.7 2.74-1.48 3.86-2.57 1.04-1.02 1.97-2.31 2.88-4.08z"/>
   <path class="shp18" d="m308.44 142.96c1.87 5.63 4.53 11.14 7.6 15.97l0.01 0.01c2.74 4.48 5.6 8.54 8.63 11.99 3.02 3.44 6.22 6.28 9.68 8.34 2.44 1.46 5.05 2.52 7.81 3.14 2.69 0.6 5.53 0.78 8.52 0.51 3.49-0.31 6.94-1.4 10.01-3.28 2.74-1.68 5.18-3.98 7.07-6.92-6.3-11.69-11.11-23.68-14.12-35.61-2.88-11.4-4.11-22.76-3.42-33.74-1.12-0.53-2.42-0.99-3.85-1.32-1.49-0.34-3.11-0.54-4.81-0.55-1.49-0.01-2.95-0.05-4.42-0.09-2.65-0.07-5.32-0.15-7.97-0.01-4.57 0.23-8.42 1.45-11.68 3.47s-5.95 4.85-8.19 8.26c-1.13 1.73-2.14 3.98-2.82 6.6-0.61 2.32-0.96 4.93-0.92 7.72 0.09 4.98 1.15 10.3 2.87 15.51z"/>
   <path class="shp18" d="m376.3 133.12c1.57 6.1 3.85 11.8 6.59 17.26 4.13 8.24 9.04 16.14 15.73 22.02 6.64 5.84 15.05 9.69 26.22 9.89 13.99 0.24 24.23-6.33 31.23-13.5 7.03-7.21 10.8-15.02 11.81-17.17l0.07-0.16c6.52-13.94 9.88-21.13 9.72-36.4-0.07-6.64-1.19-12.53-3.36-17.78-2.16-5.24-5.37-9.84-9.6-13.92-4.09-3.93-9.12-7.28-14.87-9.55-5.25-2.07-11.1-3.25-17.36-3.18l-15.8 0.05c-4.25 0.02-9.42 1.05-14.57 3.06-4.65 1.82-9.26 4.41-13.14 7.76-4.94 4.26-8.59 9.1-11.04 14.44-2.45 5.36-3.7 11.23-3.87 17.58-0.15 7.02 0.68 13.51 2.24 19.6z"/>
   <path class="shp18" d="m497.99 137.11c-3.02 11.93-7.83 23.92-14.13 35.61 1.9 2.94 4.34 5.24 7.08 6.92 3.07 1.88 6.52 2.97 10 3.28 2.99 0.27 5.84 0.09 8.53-0.51 2.75-0.62 5.36-1.67 7.81-3.14 3.46-2.06 6.66-4.9 9.67-8.34 3.04-3.45 5.89-7.51 8.64-11.99v-0.01c3.07-4.83 5.73-10.34 7.6-15.97 1.73-5.21 2.79-10.53 2.87-15.51 0.05-2.79-0.31-5.4-0.91-7.72-0.69-2.62-1.7-4.87-2.83-6.6-2.24-3.41-4.92-6.24-8.19-8.26-3.26-2.02-7.11-3.24-11.68-3.47-2.65-0.14-5.31-0.06-7.97 0.01-1.46 0.04-2.93 0.08-4.41 0.09-1.71 0.01-3.33 0.21-4.81 0.55-1.44 0.33-2.74 0.79-3.86 1.32 0.69 10.98-0.54 22.34-3.41 33.74z"/>
   <path class="shp18" d="m557.43 162.64c-3.55 6.94-7.71 13.36-12.28 19.06 0.91 1.77 1.85 3.07 2.89 4.08 1.11 1.09 2.37 1.87 3.85 2.57 1.97 0.93 4 1.34 6.18 1.23 2.21-0.12 4.61-0.77 7.29-1.96 2.77-1.23 5.08-3.33 7.19-5.97 2.15-2.69 4.12-5.96 6.16-9.45 1.59-2.7 2.67-5.53 3.38-8.14 1-3.7 1.28-6.96 1.25-8.84-0.03-2.25-0.66-4.33-1.66-6.16-1.13-2.06-2.74-3.8-4.51-5.07-1.19-0.85-2.41-1.61-4.18-2.11-1.71-0.48-3.94-0.72-7.15-0.57-2.14 7.49-5 14.65-8.41 21.33z"/>
  </g>
 </g>
</svg>
