<?xml version="1.0" encoding="UTF-8" standalone="no"?>
<!-- Created with Inkscape (http://www.inkscape.org/) -->

<svg
   xmlns:dc="http://purl.org/dc/elements/1.1/"
   xmlns:cc="http://creativecommons.org/ns#"
   xmlns:rdf="http://www.w3.org/1999/02/22-rdf-syntax-ns#"
   xmlns:svg="http://www.w3.org/2000/svg"
   xmlns="http://www.w3.org/2000/svg"
   xmlns:sodipodi="http://sodipodi.sourceforge.net/DTD/sodipodi-0.dtd"
   xmlns:inkscape="http://www.inkscape.org/namespaces/inkscape"
   id="svg2"
   version="1.1"
   inkscape:version="0.48.3.1 r9886"
   width="279.008304995"
   height="358.412270207" viewBox="0 0 632.04773 811.92444"
   xml:space="preserve"
   sodipodi:docname="nea_salamis_salamina_famagusta_logo.svg"><metadata
     id="metadata8"><rdf:RDF><cc:Work
         rdf:about=""><dc:format>image/svg+xml</dc:format><dc:type
           rdf:resource="http://purl.org/dc/dcmitype/StillImage" /><dc:title /></cc:Work></rdf:RDF></metadata><defs
     id="defs6" /><sodipodi:namedview
     pagecolor="#ffffff"
     bordercolor="#666666"
     borderopacity="1"
     objecttolerance="10"
     gridtolerance="10"
     guidetolerance="10"
     inkscape:pageopacity="0"
     inkscape:pageshadow="2"
     inkscape:window-width="1920"
     inkscape:window-height="1020"
     id="namedview4"
     showgrid="false"
     fit-margin-top="5"
     fit-margin-bottom="5"
     fit-margin-left="5"
     fit-margin-right="5"
     inkscape:zoom="0.76061738"
     inkscape:cx="139.20326"
     inkscape:cy="399.65445"
     inkscape:window-x="0"
     inkscape:window-y="32"
     inkscape:window-maximized="1"
     inkscape:current-layer="g10" /><g
     id="g10"
     inkscape:groupmode="layer"
     inkscape:label="nea_salamis_famagusta"
     transform="matrix(1.25,0,0,-1.25,-57.726438,969.10523)"><path
       d="m 453.38916,316.42627 c 71.10693,114.4668 90.18506,228.93213 94.43018,371.11621 0,0 -45.77637,1.25 -93.36719,14.43848 C 374.56006,724.1189 299,771.28418 299,771.28418 c 0,0 -75.56006,-47.16528 -155.45215,-69.30322 C 95.95508,688.79248 50.18115,687.54248 50.18115,687.54248 54.42529,545.3584 73.50317,430.89307 144.60986,316.42627 214.4165,204.05469 299,129.74463 299,129.74463 c 0,0 84.58203,74.31006 154.38916,186.68164 z"
       style="fill:#e02520;fill-opacity:1;fill-rule:nonzero;stroke:none"
       id="path12"
       inkscape:connector-curvature="0" /><path
       d="m 352.01709,506.34863 c 3.15869,0.58789 6.41309,0.89551 9.73828,0.89551 1.4292,0 2.84473,-0.0566 4.24512,-0.16748 l -0.0186,0.1333 c -0.0493,0.93457 -0.0737,1.875 -0.0737,2.82178 0,29.30566 23.84034,53.14648 53.14551,53.14648 29.30469,0 53.14697,-23.84082 53.14697,-53.14648 0,-29.30518 -23.84228,-53.14551 -53.14697,-53.14551 -1.41406,0 -2.81641,0.0562 -4.20215,0.16553 l -0.022,-0.16211 c 0.0464,-0.92481 0.0713,-1.85547 0.0713,-2.79199 0,-29.30469 -23.83984,-53.14698 -53.14551,-53.14698 -9.5332,0 -18.48974,2.52344 -26.23389,6.93653 l -0.0874,-0.10791 c -3.20215,-2.55127 -6.67578,-4.77344 -10.37207,-6.61621 l -0.0732,-0.0693 0,-122.1543 -1.71484,-10e-4 -49.27051,0 -0.99268,10e-4 0,122.18457 -0.0625,0.0332 c -3.74804,1.86767 -7.26611,4.125 -10.50342,6.71972 l -0.0688,-0.0454 c -7.72071,-4.37793 -16.63916,-6.88086 -26.13135,-6.88086 -29.30567,0 -53.14697,23.84229 -53.14697,53.14698 0,0.95703 0.0259,1.9082 0.0757,2.85351 l 0.0288,0.10205 c -1.40381,-0.11084 -2.82373,-0.16699 -4.25733,-0.16699 -29.30419,0 -53.1455,23.84033 -53.1455,53.14551 0,29.30566 23.84131,53.14648 53.1455,53.14648 29.30567,0 53.14698,-23.84082 53.14698,-53.14648 0,-0.99512 -0.0274,-1.98438 -0.0825,-2.9668 l 0.11328,0.0205 c 1.36084,0.10498 2.73486,0.15869 4.12207,0.15869 3.32422,0 6.57959,-0.30615 9.73682,-0.89453 l -0.0108,0.14258 c -0.0781,1.16992 -0.1167,2.35058 -0.1167,3.53955 0,29.30566 23.84082,53.14648 53.146,53.14648 29.30518,0 53.14502,-23.84082 53.14502,-53.14648 0,-1.17871 -0.0371,-2.34863 -0.11426,-3.50879 l -0.0137,-0.17432 z"
       style="fill:#ffffff;fill-opacity:1;fill-rule:nonzero;stroke:none"
       id="path14"
       inkscape:connector-curvature="0" /><path
       d="m 246.8833,499.60547 c -3.41894,0.79883 -6.98047,1.2207 -10.63867,1.2207 -1.64893,0 -3.27832,-0.085 -4.88281,-0.25244 l -0.11914,-0.0361 c -3.8545,-21.28369 -20.42725,-38.19776 -41.5337,-42.55567 l -0.0415,-0.0996 c -0.1001,-1.24902 -0.15185,-2.51025 -0.15185,-3.78466 0,-25.76514 20.96289,-46.72657 46.729,-46.72657 7.56592,0 14.7168,1.80664 21.04541,5.01172 l 0.0918,0.0586 c -10.43604,10.56543 -16.87842,25.08447 -16.87842,41.10937 0,12.47705 3.90429,24.03906 10.56054,33.53516 l -0.0659,0.14306 c -1.83741,3.85254 -3.2251,7.96045 -4.09229,12.2544 l -0.0225,0.12207 z"
       style="fill:#e02520;fill-opacity:1;fill-rule:nonzero;stroke:none"
       id="path16"
       inkscape:connector-curvature="0" /><path
       d="m 414.07031,463.5708 c 1.63721,-0.1748 3.3003,-0.26514 4.9834,-0.26514 25.7666,0 46.72803,20.96094 46.72803,46.72608 0,25.76611 -20.96143,46.729 -46.72803,46.729 -25.76514,0 -46.729,-20.96289 -46.729,-46.729 0,-1.26221 0.0508,-2.51367 0.15039,-3.75147 l 0.0244,-0.12793 c 21.04492,-4.33642 37.58643,-21.15527 41.51416,-42.34814 l 0.0566,-0.2334 z"
       style="fill:#e02520;fill-opacity:1;fill-rule:nonzero;stroke:none"
       id="path18"
       inkscape:connector-curvature="0" /><path
       d="m 225.36816,506.125 c -21.01269,-4.38574 -37.50781,-21.21924 -41.39892,-42.40723 l -0.0396,-0.14892 c -1.63819,-0.17285 -3.30078,-0.26319 -4.98487,-0.26319 -25.76611,0 -46.72851,20.96094 -46.72851,46.72608 0,25.76611 20.9624,46.729 46.72851,46.729 25.76612,0 46.72901,-20.96289 46.72901,-46.729 0,-1.30274 -0.0532,-2.59278 -0.15869,-3.86914 l -0.14698,-0.0376 z"
       style="fill:#e02520;fill-opacity:1;fill-rule:nonzero;stroke:none"
       id="path20"
       inkscape:connector-curvature="0" /><path
       d="m 346.92822,487.09814 c 6.65869,-9.49853 10.5669,-21.0664 10.5669,-33.54736 0,-15.9873 -6.41407,-30.47998 -16.80713,-41.04004 l -0.0767,-0.0772 c 6.35254,-3.2373 13.5376,-5.0625 21.14404,-5.0625 25.76514,0 46.72852,20.96143 46.72852,46.72657 0,1.26367 -0.0503,2.51513 -0.15039,3.75439 l -0.0108,0.12256 c -21.08252,4.33838 -37.64697,21.2041 -41.54394,42.44189 l -0.0562,0.14795 c -1.63233,0.17285 -3.29004,0.26172 -4.96729,0.26172 -3.61914,0 -7.1416,-0.41308 -10.52392,-1.1958 l -0.11817,-0.0547 c -0.86474,-4.31689 -2.25439,-8.44629 -4.09863,-12.31884 l -0.0864,-0.1587 z"
       style="fill:#e02520;fill-opacity:1;fill-rule:nonzero;stroke:none"
       id="path22"
       inkscape:connector-curvature="0" /><path
       d="m 407.24951,464.79443 c -3.95215,16.81348 -17.01074,30.1543 -33.66357,34.51465 l 0.0244,-0.18262 c 4.00635,-16.68945 16.99121,-29.92285 33.54151,-34.28271 l 0.0976,-0.0493 z"
       style="fill:#e02520;fill-opacity:1;fill-rule:nonzero;stroke:none"
       id="path24"
       inkscape:connector-curvature="0" /><path
       d="m 224.39941,499.16309 c -4.00244,-16.7378 -17.03808,-30.00684 -33.64599,-34.34717 l 0.021,0.0791 c 3.98096,16.76758 17.02295,30.06738 33.64747,34.41748 l -0.0225,-0.14941 z"
       style="fill:#e02520;fill-opacity:1;fill-rule:nonzero;stroke:none"
       id="path34"
       inkscape:connector-curvature="0" /><path
       d="m 334.75684,499.8623 c 3.33496,1.97461 6.90527,3.5962 10.65625,4.81104 l 0.0293,0.16992 c 0.18848,1.70362 0.28614,3.43506 0.28614,5.18848 0,25.76611 -20.96338,46.729 -46.72852,46.729 -25.76611,0 -46.729,-20.96289 -46.729,-46.729 0,-1.76611 0.0986,-3.50879 0.29052,-5.22461 l 0.0405,-0.13818 c 3.70264,-1.2002 7.22803,-2.79688 10.52588,-4.73975 l 0.14893,-0.0508 c 2.99267,2.31103 6.2163,4.33887 9.6289,6.04248 l 0.10498,0.0586 0,39.31494 0.15186,0.13672 c 7.25097,5.30567 16.18457,8.4419 25.8374,8.4419 9.68408,0 18.64648,-3.15674 25.91016,-8.49463 l 0.0786,-0.0518 0,-39.375 0.0679,-0.0127 c 3.39307,-1.69042 6.59863,-3.70263 9.57813,-5.99414 l 0.12207,-0.0825 z"
       style="fill:#e02520;fill-opacity:1;fill-rule:nonzero;stroke:none"
       id="path54"
       inkscape:connector-curvature="0" /><path
       d="m 254.05469,497.22705 c 0.42138,-1.47949 0.91455,-2.92871 1.47656,-4.3457 l 0.0464,-0.13379 c 0.79345,0.87988 1.61425,1.73486 2.45996,2.56494 l 0.0581,0.084 c -1.31982,0.69971 -2.67529,1.33887 -4.06591,1.91309 l 0.0249,-0.0825 z"
       style="fill:#e02520;fill-opacity:1;fill-rule:nonzero;stroke:none"
       id="path56"
       inkscape:connector-curvature="0" /><g
       id="g3073"><path
         inkscape:connector-curvature="0"
         id="path26"
         style="fill:#ffffff;fill-opacity:1;fill-rule:nonzero;stroke:none"
         d="m 195.646,265.46289 206.67773,0 -0.0435,-0.0796 C 358.92578,207.0459 316.81641,165.00537 299,148.09961 281.18506,165.00537 239.08008,207.04004 195.72656,265.37207 l -0.0806,0.0908 z" /><path
         inkscape:connector-curvature="0"
         id="path28"
         style="fill:#ffffff;fill-opacity:1;fill-rule:nonzero;stroke:none"
         d="m 531.39502,627.53711 -464.8208,0 0.01123,0.1167 c -1.07007,15.45654 -1.86524,31.17749 -2.45483,47.19751 17.51831,1.34155 49.656,4.89966 83.01538,14.1438 67.53759,18.71484 130.95752,54.22021 151.854,66.55493 20.89551,-12.33472 84.31543,-47.84009 151.85352,-66.55493 33.35839,-9.24536 65.49658,-12.80274 83.01611,-14.1438 -0.59033,-16.01807 -1.38574,-31.73657 -2.45557,-47.19312 l -0.019,-0.12109 z" /><g
         id="g3056"><path
           d="m 480.92188,614.05762 0,-216.09229 0.0898,0.21045 c 29.58008,68.73047 43.1626,139.05225 49.36816,215.67188 l 0.0234,0.21386 -48.45898,0 -1.02246,-0.004 z"
           style="fill:#ffffff;fill-opacity:1;fill-rule:nonzero;stroke:none"
           id="path30"
           inkscape:connector-curvature="0" /><path
           d="m 117.07813,397.96533 0,216.09229 -0.84131,0.004 -48.6399,0 0.01734,-0.1289 c 6.20361,-76.6709 19.79101,-147.03467 49.39502,-215.80371 l 0.0688,-0.16358 z"
           style="fill:#ffffff;fill-opacity:1;fill-rule:nonzero;stroke:none"
           id="path32"
           inkscape:connector-curvature="0" /><path
           d="m 273.01074,559.70264 0,54.35498 0.81299,0.004 49.7207,0 1.44434,-0.004 0,-54.38379 -0.0864,0.0371 c -7.75097,4.05859 -16.56347,6.35449 -25.90234,6.35449 -9.31982,0 -18.11621,-2.28662 -25.85596,-6.32959 l -0.1333,-0.0332 z"
           style="fill:#ffffff;fill-opacity:1;fill-rule:nonzero;stroke:none"
           id="path36"
           inkscape:connector-curvature="0" /><g
           id="g3042"><path
             inkscape:connector-curvature="0"
             id="path38"
             style="fill:#ffffff;fill-opacity:1;fill-rule:nonzero;stroke:none"
             d="m 220.97412,547.05322 c -10.27637,11.65137 -25.30908,19.01221 -42.0293,19.01221 -3.31884,0 -6.57128,-0.29053 -9.73291,-0.84668 l -0.15625,-0.042 0,48.88086 0.75245,0.004 50.44433,0 0.78125,-0.004 0,-67.04834 -0.0596,0.0439 z" /><path
             inkscape:connector-curvature="0"
             id="path40"
             style="fill:#ffffff;fill-opacity:1;fill-rule:nonzero;stroke:none"
             d="m 221.03369,473.104 0,-60.1289 -0.0835,0.0337 c -16.65528,6.22119 -28.54688,22.29297 -28.54688,41.08887 0,0.47216 0.007,0.94189 0.0225,1.40966 l 0.0234,0.13623 c 11.20654,2.78223 21.0918,8.94874 28.50439,17.34424 l 0.0801,0.11621 z" /><path
             inkscape:connector-curvature="0"
             id="path42"
             style="fill:#ffffff;fill-opacity:1;fill-rule:nonzero;stroke:none"
             d="m 220.91797,508.00098 c -19.60449,-5.58203 -34.85889,-21.59571 -39.35303,-41.62891 l -0.0122,-0.10156 c -0.86279,-0.0503 -1.73242,-0.0767 -2.60791,-0.0767 -3.35009,0 -6.61425,0.37793 -9.75097,1.09179 l -0.13819,0.0435 0,85.42578 0.0908,0.0142 c 3.15137,0.72266 6.43067,1.10401 9.79834,1.10401 19.86622,0 36.68848,-13.28174 42.05323,-31.43116 l 0.0356,-0.0967 0,-14.31835 -0.11572,-0.0259 z" /><path
             inkscape:connector-curvature="0"
             id="path44"
             style="fill:#ffffff;fill-opacity:1;fill-rule:nonzero;stroke:none"
             d="m 221.03369,400.16064 0,-121.22119 -1.05322,-0.001 -34.14014,0 -0.0542,0.0732 c -5.58349,7.8169 -11.15918,15.89356 -16.67724,24.20898 l -0.0532,0.0845 0,151.57177 0.14014,-0.0288 c 3.16699,-0.55762 6.42481,-0.84961 9.74902,-0.84961 0.41895,0 0.83594,0.003 1.25147,0.0132 l 0.0142,-0.0972 c 0.083,-25.50976 17.29785,-47.06054 40.71924,-53.72265 l 0.104,-0.0308 z" /><path
             inkscape:connector-curvature="0"
             id="path58"
             style="fill:#ffffff;fill-opacity:1;fill-rule:nonzero;stroke:none"
             d="m 220.06494,494.81885 c -4.31494,-11.625 -13.42822,-20.93994 -24.92139,-25.5249 l 0.004,0.0806 c 4.30518,11.54297 13.34131,20.79883 24.73779,25.39844 l 0.1792,0.0459 z" /></g><g
           id="g3049"><path
             inkscape:connector-curvature="0"
             id="path46"
             style="fill:#ffffff;fill-opacity:1;fill-rule:nonzero;stroke:none"
             d="m 428.96143,565.18848 c -3.2168,0.57617 -6.52832,0.87695 -9.90772,0.87695 -16.70361,0 -31.72461,-7.34717 -41.99902,-18.97949 l -0.0884,-0.10596 0,67.07764 1.14307,0.004 49.45117,0 1.38379,-0.004 0,-48.72901 0.0171,-0.14013 z" /><path
             inkscape:connector-curvature="0"
             id="path48"
             style="fill:#ffffff;fill-opacity:1;fill-rule:nonzero;stroke:none"
             d="m 416.45508,466.27783 c -4.47022,20.09375 -19.76221,36.15821 -39.41895,41.73682 l -0.0698,-0.0186 0,14.34717 0.0532,0.15625 c 5.38184,18.12061 22.19043,31.37354 42.03418,31.37354 3.36328,0 6.64014,-0.38086 9.78662,-1.10059 l 0.10401,-0.0181 0,-85.42529 -0.0977,-0.0317 c -3.14941,-0.72265 -6.42773,-1.10351 -9.79297,-1.10351 -0.82568,0 -1.64697,0.0225 -2.46094,0.0674 l -0.13769,0.0166 z" /><path
             inkscape:connector-curvature="0"
             id="path50"
             style="fill:#ffffff;fill-opacity:1;fill-rule:nonzero;stroke:none"
             d="m 417.79199,454.01123 c 0.41944,-0.01 0.84033,-0.0132 1.26172,-0.0132 3.32568,0 6.58545,0.29199 9.75293,0.84961 l 0.1377,0.0288 0,-151.57177 -0.0679,-0.10352 c -5.51562,-8.31152 -11.08837,-16.38183 -16.66992,-24.1958 l -0.0469,-0.0674 -34.47168,0 -0.72168,10e-4 0,121.1919 0.0679,0.0483 c 23.42822,6.64746 40.65625,28.19238 40.75391,53.70361 l 0.004,0.12793 z" /><path
             inkscape:connector-curvature="0"
             id="path52"
             style="fill:#ffffff;fill-opacity:1;fill-rule:nonzero;stroke:none"
             d="m 405.56982,455.62988 c 0.0176,-0.50732 0.0269,-1.01904 0.0269,-1.53222 0,-18.79395 -11.88965,-34.86377 -28.54004,-41.08496 l -0.0903,-0.0376 0,60.06885 0.0806,-0.0581 c 7.36962,-8.34717 17.18359,-14.48926 28.30908,-17.29395 l 0.21386,-0.062 z" /><path
             inkscape:connector-curvature="0"
             id="path60"
             style="fill:#ffffff;fill-opacity:1;fill-rule:nonzero;stroke:none"
             d="m 377.93652,494.84473 c 11.51123,-4.58741 20.63672,-13.917 24.94922,-25.5625 l -0.17529,0.0718 c -11.35449,4.57715 -20.36768,13.77539 -24.69629,25.25196 l -0.0776,0.23877 z" /></g></g></g><path
       d="m 342.46533,492.87305 c 0.57471,1.45166 1.07862,2.93896 1.50928,4.45654 l -0.14893,-0.0796 c -1.31396,-0.54785 -2.59765,-1.1543 -3.84814,-1.81641 l -0.11279,-0.0268 c 0.88623,-0.86426 1.74072,-1.75488 2.56982,-2.67236 l 0.0308,0.13867 z"
       style="fill:#e02520;fill-opacity:1;fill-rule:nonzero;stroke:none"
       id="path62"
       inkscape:connector-curvature="0" /><g
       id="g3128"><path
         inkscape:connector-curvature="0"
         id="path64"
         style="fill:#e02520;fill-opacity:1;fill-rule:nonzero;stroke:none"
         d="m 317.78809,427.43896 c 0.66601,-0.0205 1.32568,0.0156 1.96337,0.13477 2.56006,0.4751 6.2793,0.6084 9.11377,-2.26758 1.08643,-1.10205 1.63184,-2.63769 1.63184,-4.58008 0,-0.45312 -0.0298,-0.92871 -0.0884,-1.42431 -0.48681,-4.05908 -4.49707,-10.78565 -11.21777,-15.79444 l -4.09326,-2.82177 c -0.41651,-0.26319 -0.66504,-0.44922 -0.81543,-0.57471 1.44091,-1.62646 2.72607,-3.40674 2.72607,-5.46924 0,-0.30859 -0.0293,-0.62402 -0.0903,-0.94775 -0.54151,-2.84229 -3.71045,-6.12451 -8.26074,-8.73438 1.85058,-0.72168 3.95459,-2.16162 3.95459,-5.43261 0,-3.32618 -2.38575,-6.89454 -6.54493,-9.79102 -0.31054,-0.21631 -0.49853,-0.34766 -0.51367,-1.33105 l 0,-24.49268 c 0,-9.44531 -1.58838,-12.49414 -6.53808,-12.54688 l -0.0303,0 c -4.9497,0.0527 -6.53857,3.10157 -6.53857,12.54688 l 0,24.49268 c -0.0156,0.98339 -0.20313,1.11474 -0.51318,1.33105 -4.15967,2.89648 -6.54541,6.46484 -6.54541,9.79102 0,3.27099 2.10351,4.71093 3.95459,5.43261 -4.54981,2.60987 -7.71924,5.89209 -8.26026,8.73438 -0.0615,0.32373 -0.0903,0.63916 -0.0903,0.94775 0,2.0625 1.28516,3.84278 2.72607,5.46924 -0.15039,0.12549 -0.39892,0.31152 -0.81543,0.57471 l -4.09423,2.82177 c -6.7212,5.00879 -10.72998,11.73536 -11.21729,15.79444 -0.0591,0.4956 -0.0889,0.97119 -0.0889,1.42431 0,1.94239 0.54541,3.47803 1.63184,4.58008 2.83447,2.87598 6.55469,2.74268 9.11475,2.26758 1.60009,-0.29736 3.34277,-0.0737 4.94726,0.24121 l -0.0474,0.10596 c -1.39551,3.66601 -3.33252,11.08008 -3.53565,24.27832 -0.14355,9.32226 3.40381,15.83105 5.08057,18.38037 0.51611,0.78418 1.65283,0.56201 2.04102,0.25928 1.7041,-1.32569 3.24316,-2.47803 4.34082,-3.28809 1.04785,-0.77246 1.83691,-0.48486 1.99658,0.87012 0.24902,2.13965 0.53369,5.79492 0.33691,10.41015 -0.19043,4.48584 0.2417,6.792 0.68262,7.96534 0.37793,1.00683 1.78467,0.51611 2.28223,0.17138 16.60839,-11.51123 21.90869,-32.86767 22.22167,-44.39453 0.18604,-6.83886 -0.32714,-11.9414 -0.75927,-14.89306 l -0.0478,-0.24122 z" /><g
         id="g3118"><path
           d="m 302.34326,428.52246 c -1.17969,-0.24267 -2.23144,-0.53564 -3.34326,-0.57568 l 0,0 c -1.25732,0.0439 -2.4375,0.41211 -3.81152,0.66601 l -0.0527,0.18262 c -0.25293,1.57666 -0.44238,3.3916 -0.44238,5.27686 0,3.60742 1.87842,4.83154 3.22168,5.24462 0.74707,0.2295 1.21289,0.72999 1.11621,1.63233 -0.21289,1.97607 -0.33398,5.78271 1.05469,9.96728 0.73633,2.22217 1.49511,3.42579 2.06933,4.07276 0.57471,0.64795 1.32276,0.56933 1.89161,0.10498 1.70751,-1.39111 5.31005,-5.42188 6.82617,-15.4082 0.71924,-4.73584 0.71679,-8.44874 0.51709,-11.04102 l -0.0107,-0.12647 c -1.28515,0.20752 -2.50585,0.28809 -3.67236,0.32032 l -0.0181,0.16845 c 0.0742,1.95166 0.0435,4.40674 -0.32324,6.82813 -0.50342,3.32959 -1.45215,5.32617 -2.08642,6.35107 -0.37549,0.60303 -0.88037,0.49952 -1.19043,-0.14892 -0.58252,-1.21826 -1.41358,-3.4253 -1.375,-6.04004 0.0449,-3.02881 -0.0884,-5.39404 -0.30225,-7.23047 l -0.0684,-0.24463 z"
           style="fill:#ffffff;fill-opacity:1;fill-rule:nonzero;stroke:none"
           id="path66"
           inkscape:connector-curvature="0" /><path
           d="m 299,409.72461 c 0,0 0.17627,0.0581 0.53223,0.55664 0.47802,0.66895 0.99609,1.88916 1.28173,3.53223 0.4419,2.53222 0.57227,5.77002 0.70508,8.34521 0.0967,1.88379 0.98633,2.20703 1.73145,2.40674 1.02881,0.17822 2.60205,0.38135 4.42871,0.38135 2.15674,0 3.98828,-0.28565 4.97803,-0.47754 0.75634,-0.14453 1.26025,-0.46778 1.229,-1.54883 -0.0542,-1.8916 -0.34473,-4.35205 -1.11377,-7.29785 -0.67383,-2.5835 -2.19482,-4.7583 -3.27978,-6.06348 -0.6958,-0.83642 -0.70557,-1.19336 0.0698,-0.89306 1.40723,0.54541 3.69775,1.67871 5.45557,3.74707 1.60644,1.88916 2.73291,4.82421 3.56933,9.46142 0.36084,2.00244 1.04346,2.57031 1.87598,2.70557 1.54785,0.30517 4.50439,0.56543 6.34521,-1.30127 0.69385,-0.69727 0.93799,-1.92481 0.7334,-3.63526 -0.32178,-2.67919 -3.34277,-8.80224 -10.07568,-13.81982 l -3.91065,-2.69775 c -1.02343,-0.64649 -3.04931,-2.15284 -3.0791,-2.48389 -0.0356,-0.39063 0.9585,-1.70313 1.61035,-2.41797 1.12647,-1.23291 2.24512,-2.67285 1.99414,-3.98877 -0.24316,-1.27881 -1.71582,-3.27832 -4.4414,-5.26611 -0.32178,-0.23438 -0.66016,-0.46973 -1.01611,-0.70264 -1.54639,-1.00928 -3.92237,-2.69433 -4.1626,-3.92334 -0.0688,-0.35547 2.40576,-1.35742 3.98877,-2.47998 0.97412,-0.69238 1.2749,-1.36084 1.2749,-2.33642 0,-2.33301 -1.98438,-5.1084 -5.31006,-7.42237 -1.50195,-1.04931 -1.729,-2.37646 -1.74853,-3.67773 l 0,-24.51465 c 0,-9.61963 -1.70606,-9.63818 -3.68116,-9.65918 l 0.0303,0 c -1.9751,0.021 -3.68116,0.0396 -3.68116,9.65918 l 0,24.51465 c -0.02,1.30127 -0.24658,2.62842 -1.74951,3.67773 -3.3247,2.31397 -5.30908,5.08936 -5.30908,7.42237 0,0.97558 0.30029,1.64404 1.2749,2.33642 1.58301,1.12256 4.05762,2.12451 3.9878,2.47998 -0.23926,1.22901 -2.61524,2.91406 -4.16163,3.92334 -0.35693,0.23291 -0.69482,0.46826 -1.0166,0.70264 -2.72509,1.98779 -4.19775,3.9873 -4.44091,5.26611 -0.25098,1.31592 0.86718,2.75586 1.99365,3.98877 0.65234,0.71484 1.64648,2.02734 1.61084,2.41797 -0.0303,0.33105 -2.05567,1.8374 -3.0791,2.48389 l -3.91016,2.69775 c -6.73438,5.01758 -9.75439,11.14063 -10.07617,13.81982 -0.20459,1.71045 0.0386,2.93799 0.73193,3.63526 1.84082,1.8667 4.79883,1.60644 6.3457,1.30127 0.83301,-0.13526 1.51612,-0.70313 1.87647,-2.70557 0.83643,-4.63721 1.96289,-7.57226 3.56934,-9.46142 1.7583,-2.06836 4.04834,-3.20166 5.45556,-3.74707 0.77539,-0.3003 0.76563,0.0566 0.0698,0.89306 -1.08496,1.30518 -2.60547,3.47998 -3.27979,6.06348 -0.76904,2.9458 -1.05957,5.40625 -1.11377,7.29785 -0.0312,1.08105 0.47266,1.4043 1.22949,1.54883 0.98975,0.19189 2.8208,0.47754 4.97803,0.47754 1.82617,0 3.3999,-0.20313 4.42871,-0.38135 0.74512,-0.19971 1.63428,-0.52295 1.73145,-2.40674 0.13232,-2.57519 0.26318,-5.81299 0.70459,-8.34521 0.28564,-1.64307 0.8042,-2.86328 1.28174,-3.53223 C 298.82422,409.78271 299,409.72461 299,409.72461 l 0,0 z"
           style="fill:#ffffff;fill-opacity:1;fill-rule:nonzero;stroke:none"
           id="path68"
           inkscape:connector-curvature="0" /></g><g
         id="g3099"><path
           d="m 299,493.05566 c 2.39453,0.73975 2.97949,4.15479 2.74365,7.37793 C 301.44043,504.54883 299,505.01025 299,505.01025 l 0,0 c 0,0 -2.44043,-0.46142 -2.74268,-4.57666 -0.2373,-3.22314 0.3462,-6.63818 2.74268,-7.37793 l 0,0 z"
           style="fill:#e02520;fill-opacity:1;fill-rule:nonzero;stroke:none"
           id="path70"
           inkscape:connector-curvature="0" /><path
           d="m 289.45508,491.72852 c 2.11621,1.36621 1.78613,4.81689 0.71387,7.85839 -1.36817,3.88184 -3.83985,3.66163 -3.83985,3.66163 l 0,0 c 0,0 -2.23047,-1.11182 -1.44629,-5.15967 0.61524,-3.1709 2.06885,-6.30323 4.57227,-6.36035 l 0,0 z"
           style="fill:#e02520;fill-opacity:1;fill-rule:nonzero;stroke:none"
           id="path72"
           inkscape:connector-curvature="0" /><path
           d="m 280.60498,487.84131 c 1.68018,1.89502 0.46045,5.13037 -1.3667,7.76855 -2.33447,3.36768 -4.65723,2.47901 -4.65723,2.47901 l 0,0 c 0,0 -1.85791,-1.67823 -0.0454,-5.36524 1.42237,-2.88818 3.64258,-5.50976 6.06934,-4.88232 l 0,0 z"
           style="fill:#e02520;fill-opacity:1;fill-rule:nonzero;stroke:none"
           id="path74"
           inkscape:connector-curvature="0" /><path
           d="m 273.09229,481.67969 c 1.12353,2.28564 -0.89698,5.06885 -3.34668,7.1123 -3.13086,2.60742 -5.13868,1.1167 -5.13868,1.1167 l 0,0 c 0,0 -1.35156,-2.12549 1.36084,-5.18164 2.12354,-2.39551 4.95069,-4.31396 7.12452,-3.04736 l 0,0 z"
           style="fill:#e02520;fill-opacity:1;fill-rule:nonzero;stroke:none"
           id="path76"
           inkscape:connector-curvature="0" /><path
           d="m 267.46436,473.69141 c 0.48535,2.50732 -2.19092,4.63916 -5.08594,5.93652 -3.69922,1.66016 -5.24219,-0.32324 -5.24219,-0.32324 l 0,0 c 0,0 -0.74609,-2.41895 2.66455,-4.62354 2.67383,-1.729 5.8999,-2.8042 7.66358,-0.98974 l 0,0 z"
           style="fill:#e02520;fill-opacity:1;fill-rule:nonzero;stroke:none"
           id="path78"
           inkscape:connector-curvature="0" /><path
           d="m 264.13086,464.45215 c -0.18848,2.55371 -3.32373,3.875 -6.4541,4.33594 -3.99951,0.58642 -4.96631,-1.74512 -4.96631,-1.74512 l 0,0 c 0,0 -0.0879,-2.53223 3.77734,-3.72559 3.02881,-0.93652 6.417,-1.09277 7.64307,1.13477 l 0,0 z"
           style="fill:#e02520;fill-opacity:1;fill-rule:nonzero;stroke:none"
           id="path80"
           inkscape:connector-curvature="0" /><path
           d="m 263.3335,454.64258 c -0.84912,2.40625 -4.21778,2.82617 -7.35205,2.41406 -4.00635,-0.52441 -4.32959,-3.0376 -4.32959,-3.0376 l 0,0 c 0,0 0.57812,-2.46484 4.61425,-2.55908 3.1626,-0.0752 6.46973,0.69971 7.06739,3.18262 l 0,0 z"
           style="fill:#e02520;fill-opacity:1;fill-rule:nonzero;stroke:none"
           id="path82"
           inkscape:connector-curvature="0" /><path
           d="m 265.13135,444.97217 c -1.44776,2.08691 -4.80274,1.57226 -7.71436,0.31787 -3.72607,-1.59961 -3.38037,-4.10986 -3.38037,-4.10986 l 0,0 c 0,0 1.20117,-2.21631 5.11524,-1.20508 3.06738,0.78955 6.05175,2.44043 5.97949,4.99707 l 0,0 z"
           style="fill:#e02520;fill-opacity:1;fill-rule:nonzero;stroke:none"
           id="path84"
           inkscape:connector-curvature="0" /><path
           d="m 269.39209,436.14355 c -1.94092,1.6167 -5.03955,0.20118 -7.51807,-1.80029 -3.17138,-2.55859 -2.18213,-4.88281 -2.18213,-4.88281 l 0,0 c 0,0 1.73731,-1.81006 5.24561,0.23291 2.74951,1.6001 5.19238,4.00635 4.45459,6.45019 l 0,0 z"
           style="fill:#e02520;fill-opacity:1;fill-rule:nonzero;stroke:none"
           id="path86"
           inkscape:connector-curvature="0" /><path
           d="m 308.54443,491.72852 c -2.11621,1.36621 -1.78515,4.81689 -0.71338,7.85839 1.36768,3.88184 3.84034,3.66163 3.84034,3.66163 l 0,0 c 0,0 2.229,-1.11182 1.4458,-5.15967 -0.61524,-3.1709 -2.06934,-6.30323 -4.57276,-6.36035 l 0,0 z"
           style="fill:#e02520;fill-opacity:1;fill-rule:nonzero;stroke:none"
           id="path88"
           inkscape:connector-curvature="0" /><path
           d="m 317.39502,487.84131 c -1.68018,1.89502 -0.46094,5.13037 1.36572,7.76855 2.33447,3.36768 4.65821,2.47901 4.65821,2.47901 l 0,0 c 0,0 1.85693,-1.67823 0.0449,-5.36524 -1.42139,-2.88818 -3.64307,-5.50976 -6.06885,-4.88232 l 0,0 z"
           style="fill:#e02520;fill-opacity:1;fill-rule:nonzero;stroke:none"
           id="path90"
           inkscape:connector-curvature="0" /><path
           d="m 324.90771,481.67969 c -1.12402,2.28564 0.89698,5.06885 3.34668,7.1123 3.13135,2.60742 5.1377,1.1167 5.1377,1.1167 l 0,0 c 0,0 1.35156,-2.12549 -1.35889,-5.18164 -2.12451,-2.39551 -4.95215,-4.31396 -7.12549,-3.04736 l 0,0 z"
           style="fill:#e02520;fill-opacity:1;fill-rule:nonzero;stroke:none"
           id="path92"
           inkscape:connector-curvature="0" /><path
           d="m 330.53467,473.69141 c -0.48535,2.50732 2.19189,4.63916 5.08545,5.93652 3.6997,1.66016 5.24365,-0.32324 5.24365,-0.32324 l 0,0 c 0,0 0.74561,-2.41895 -2.6665,-4.62354 -2.67286,-1.729 -5.89942,-2.8042 -7.6626,-0.98974 l 0,0 z"
           style="fill:#e02520;fill-opacity:1;fill-rule:nonzero;stroke:none"
           id="path94"
           inkscape:connector-curvature="0" /><path
           d="m 333.86719,464.45215 c 0.19043,2.55371 3.32422,3.875 6.45508,4.33594 4.00048,0.58642 4.9663,-1.74512 4.9663,-1.74512 l 0,0 c 0,0 0.0889,-2.53223 -3.77685,-3.72559 -3.02832,-0.93652 -6.41748,-1.09277 -7.64453,1.13477 l 0,0 z"
           style="fill:#e02520;fill-opacity:1;fill-rule:nonzero;stroke:none"
           id="path96"
           inkscape:connector-curvature="0" /><path
           d="m 334.66553,454.64258 c 0.84912,2.40625 4.21777,2.82617 7.35205,2.41406 4.00635,-0.52441 4.32959,-3.0376 4.32959,-3.0376 l 0,0 c 0,0 -0.57715,-2.46484 -4.61328,-2.55908 -3.16407,-0.0752 -6.47119,0.69971 -7.06836,3.18262 l 0,0 z"
           style="fill:#e02520;fill-opacity:1;fill-rule:nonzero;stroke:none"
           id="path98"
           inkscape:connector-curvature="0" /><path
           d="m 332.86768,444.97217 c 1.44726,2.08691 4.80371,1.57226 7.71533,0.31787 3.72461,-1.59961 3.37988,-4.10986 3.37988,-4.10986 l 0,0 c 0,0 -1.20068,-2.21631 -5.11523,-1.20508 -3.06787,0.78955 -6.05176,2.44043 -5.97998,4.99707 l 0,0 z"
           style="fill:#e02520;fill-opacity:1;fill-rule:nonzero;stroke:none"
           id="path100"
           inkscape:connector-curvature="0" /><path
           d="m 328.60791,436.14355 c 1.94189,1.6167 5.03857,0.20118 7.51807,-1.80029 3.1709,-2.55859 2.18066,-4.88281 2.18066,-4.88281 l 0,0 c 0,0 -1.73535,-1.81006 -5.24512,0.23291 -2.74902,1.6001 -5.19336,4.00635 -4.45361,6.45019 l 0,0 z"
           style="fill:#e02520;fill-opacity:1;fill-rule:nonzero;stroke:none"
           id="path102"
           inkscape:connector-curvature="0" /></g></g><g
       id="g3093"><path
         inkscape:connector-curvature="0"
         id="path104"
         style="fill:#e02520;fill-opacity:1;fill-rule:nonzero;stroke:none"
         d="m 247.12646,248.49951 6.7378,0 0,-30.68164 -6.7378,0 0,30.68164 z" /><path
         inkscape:connector-curvature="0"
         id="path106"
         style="fill:#e02520;fill-opacity:1;fill-rule:nonzero;stroke:none"
         d="m 267.77881,230.75195 c -3.62158,0 -6.30225,0.68897 -8.04346,2.06104 -1.74072,1.37597 -2.60889,3.52637 -2.60889,6.45947 0,6.43213 4.53956,9.64795 13.62208,9.64795 5.28466,0 9.16699,-1.25 11.65039,-3.74853 2.48144,-2.50098 3.72363,-6.396 3.72363,-11.6875 0,-5.43116 -1.31738,-9.39991 -3.95313,-11.90674 -2.63574,-2.50733 -6.76953,-3.75977 -12.40283,-3.75977 l -10.9707,0 0,5.23438 11.15381,0 c 2.90967,0 5.07177,0.61865 6.48584,1.85693 1.41308,1.2373 2.17529,3.18506 2.28808,5.84277 l -10.94482,0 m 0.36963,5.17383 10.57519,0 c -0.0698,2.84668 -0.75049,4.85254 -2.03808,6.01611 -1.28955,1.16163 -3.44629,1.74415 -6.46924,1.74415 -3.91406,0 -5.8711,-1.36036 -5.8711,-4.08106 0,-2.45312 1.26709,-3.6792 3.80323,-3.6792 z" /><path
         inkscape:connector-curvature="0"
         id="path108"
         style="fill:#e02520;fill-opacity:1;fill-rule:nonzero;stroke:none"
         d="m 308.47168,223.41309 -19.73291,0 0,5.94775 18.02246,19.19873 8.14697,0 0,-19.91309 4.23389,0 0,-5.23339 -4.23389,0 0,-5.59522 -6.43652,0 0,5.59522 m 0,18.54785 -12.3667,-13.31446 12.3667,0 0,13.31446 z" /><path
         inkscape:connector-curvature="0"
         id="path110"
         style="fill:#e02520;fill-opacity:1;fill-rule:nonzero;stroke:none"
         d="m 325.97412,233.2002 c -2.72217,1.93408 -4.08349,4.39013 -4.08349,7.36718 0,5.28907 3.35742,7.93213 10.0747,7.93213 l 8.28369,0 c 6.72998,0 10.09668,-2.6167 10.09668,-7.84717 0,-3.07617 -1.35742,-5.56054 -4.06787,-7.45214 2.95166,-1.26758 4.42871,-3.67383 4.42871,-7.2212 0,-2.58886 -0.81201,-4.59619 -2.43554,-6.02148 -1.62354,-1.42725 -3.9668,-2.13965 -7.03418,-2.13965 l -10.13623,0 c -3.08155,0 -5.43702,0.7124 -7.0669,2.13965 -1.62988,1.42529 -2.44238,3.44775 -2.44238,6.06299 0,3.49072 1.45947,5.88623 4.38281,7.17969 m 7.89942,10.06543 c -3.33741,0 -5.0044,-1.2544 -5.0044,-3.76172 0,-2.46485 1.66699,-3.69825 5.0044,-3.69825 l 4.65087,0 c 3.30909,0 4.96338,1.2334 4.96338,3.69825 0,2.50732 -1.65429,3.76172 -4.96338,3.76172 l -4.65087,0 m -0.0693,-12.69336 c -3.29004,0 -4.93506,-1.25391 -4.93506,-3.75977 0,-2.50879 1.64502,-3.76025 4.93506,-3.76025 l 4.70703,0 c 3.31641,0 4.97656,1.25146 4.97656,3.76025 0,2.50586 -1.66015,3.75977 -4.97656,3.75977 l -4.70703,0 z" /></g><path
       d="m 257.854,718.04321 7.34278,0 11.30664,-19.83032 -0.26319,19.83032 5.91748,0 0,-27.61328 -6.73388,0 -11.85498,20.90528 0.24463,-20.90528 -5.95948,0 0,27.61328 z"
       style="fill:#e02520;fill-opacity:1;fill-rule:nonzero;stroke:none"
       id="path112"
       inkscape:connector-curvature="0" /><path
       d="m 299.6582,713.23047 c -4.14746,0 -6.33398,-2.12622 -6.55957,-6.37695 l 16.13379,0 0,-4.81275 -16.13379,0 c 0.0122,-2.46753 0.53174,-4.21777 1.56006,-5.25 1.0293,-1.03198 2.70215,-1.54834 5.02149,-1.54834 l 9.55224,0 0,-4.8125 -9.83203,0 c -1.89307,0 -3.39746,0.13159 -4.51221,0.39478 -1.4917,0.36328 -2.85742,1.03882 -4.09863,2.02832 -2.83252,2.25439 -4.24853,5.88574 -4.24853,10.89502 0,4.88427 1.0581,8.48706 3.17724,10.81054 2.11768,2.32251 5.40088,3.48462 9.85108,3.48462 l 9.66308,0 0,-4.81274 -9.57422,0 z"
       style="fill:#e02520;fill-opacity:1;fill-rule:nonzero;stroke:none"
       id="path114"
       inkscape:connector-curvature="0" /><path
       d="m 322.63477,718.04321 6.16845,0 11.79102,-27.61328 -6.46875,0 -2.54004,6.55762 -12.01465,0 -2.46582,-6.55762 -6.16699,0 11.69678,27.61328 m 2.85205,-5.46728 -4.04151,-10.65528 8.23389,0 -4.19238,10.65528 z"
       style="fill:#e02520;fill-opacity:1;fill-rule:nonzero;stroke:none"
       id="path116"
       inkscape:connector-curvature="0" /><path
       d="m 239.69336,671.84106 6.16846,0 11.7915,-27.61303 -6.46973,0 -2.53906,6.55688 -12.01709,0 -2.46435,-6.55688 -6.16846,0 11.69873,27.61303 m 2.85303,-5.46704 -4.042,-10.65625 8.23389,0 -4.19189,10.65625 z"
       style="fill:#e02520;fill-opacity:1;fill-rule:nonzero;stroke:none"
       id="path118"
       inkscape:connector-curvature="0" /><path
       d="m 275.49902,666.37402 -8.38281,-22.14599 -6.16846,0 11.69873,27.61303 6.16797,0 11.79248,-27.61303 -6.47021,0 -8.6377,22.14599 z"
       style="fill:#e02520;fill-opacity:1;fill-rule:nonzero;stroke:none"
       id="path120"
       inkscape:connector-curvature="0" /><path
       d="m 305.57129,671.84106 6.16846,0 11.79394,-27.61303 -6.47314,0 -2.53809,6.55688 -12.01709,0 -2.46387,-6.55688 -6.16845,0 11.69824,27.61303 m 2.85303,-5.46704 -4.04248,-10.65625 8.23486,0 -4.19238,10.65625 z"
       style="fill:#e02520;fill-opacity:1;fill-rule:nonzero;stroke:none"
       id="path122"
       inkscape:connector-curvature="0" /><path
       d="m 327.04736,671.84106 8.54248,0 7.05713,-21.18359 7.05616,21.18359 8.50634,0 0,-27.61303 -5.72558,0 0.49218,21.52563 -7.11181,-21.52563 -6.18506,0 -7.33789,21.75097 0.62793,-21.75097 -5.92188,0 0,27.61303 z"
       style="fill:#e02520;fill-opacity:1;fill-rule:nonzero;stroke:none"
       id="path124"
       inkscape:connector-curvature="0" /><path
       d="m 368.93896,644.22803 -6.07617,0 0,27.61303 6.07617,0 0,-27.61303 z"
       style="fill:#e02520;fill-opacity:1;fill-rule:nonzero;stroke:none"
       id="path126"
       inkscape:connector-curvature="0" /><path
       d="m 210.65674,666.91113 14.46924,0.008 0,4.92187 -22.07813,0 0,-3.00805 0,-1.9253 7.81885,-8.90332 -7.81885,-8.84472 0,-4.93164 22.07813,0 0,4.87256 -14.33106,0 7.76612,8.87744 -7.9043,8.9331 z"
       style="fill:#e02520;fill-opacity:1;fill-rule:nonzero;stroke:none"
       id="path128"
       inkscape:connector-curvature="0" /><path
       d="m 381.46143,666.91113 14.47021,0.008 0,4.92187 -22.0791,0 0,-3.00805 0,-1.9253 7.81934,-8.90332 -7.81934,-8.84472 0,-4.93164 22.0791,0 0,4.87256 -14.33105,0 7.7666,8.87744 -7.90576,8.9331 z"
       style="fill:#e02520;fill-opacity:1;fill-rule:nonzero;stroke:none"
       id="path130"
       inkscape:connector-curvature="0" /></g></svg>