<?xml version="1.0" encoding="UTF-8" standalone="no"?>
<svg
   xmlns:dc="http://purl.org/dc/elements/1.1/"
   xmlns:cc="http://creativecommons.org/ns#"
   xmlns:rdf="http://www.w3.org/1999/02/22-rdf-syntax-ns#"
   xmlns:svg="http://www.w3.org/2000/svg"
   xmlns="http://www.w3.org/2000/svg"
   xmlns:sodipodi="http://sodipodi.sourceforge.net/DTD/sodipodi-0.dtd"
   xmlns:inkscape="http://www.inkscape.org/namespaces/inkscape"
   inkscape:version="1.0 (4035a4f, 2020-05-01)"
   sodipodi:docname="Canet_Roussillon_FC_(logo).svg"
   id="svg874"
   version="1.1"
   viewBox="0 0 560 567"
   height="567pt"
   width="560pt">
  <metadata
     id="metadata880">
    <rdf:RDF>
      <cc:Work
         rdf:about="">
        <dc:format>image/svg+xml</dc:format>
        <dc:type
           rdf:resource="http://purl.org/dc/dcmitype/StillImage" />
      </cc:Work>
    </rdf:RDF>
  </metadata>
  <defs
     id="defs878" />
  <sodipodi:namedview
     inkscape:current-layer="svg874"
     inkscape:window-maximized="0"
     inkscape:window-y="0"
     inkscape:window-x="0"
     inkscape:cy="390.75297"
     inkscape:cx="137.40334"
     inkscape:zoom="0.55446429"
     showgrid="false"
     id="namedview876"
     inkscape:window-height="900"
     inkscape:window-width="1440"
     inkscape:pageshadow="2"
     inkscape:pageopacity="0"
     guidetolerance="10"
     gridtolerance="10"
     objecttolerance="10"
     borderopacity="1"
     bordercolor="#666666"
     pagecolor="#ffffff" />
  <path
     style="fill:#0c337d;fill-opacity:1;fill-rule:evenodd;stroke:none"
     d="m 24.628906,51.175781 24.25,-32.972656 c 24.234375,10.085938 52.148434,11.371094 74.992184,8.984375 25.88672,-2.703125 50.02344,-11.988281 69.48438,-27.2070313 29.44531,22.6171873 57.57422,31.0039063 85.5,31.3632813 29.73437,0.382813 58.82422,-10.339844 87.35547,-31.09375 20.625,15.074219 42.52343,23.113281 65.40234,26.523438 24.75391,3.6875 52.32813,1.25 78.64844,-8.597657 l 24.88281,34.066407 c -30.15625,34.117187 -39.54297,74.503902 -35.39062,112.640622 4.14843,38.13672 24.32031,80.73828 60.29687,116.51172 l -27.76562,28.16016 c 1.21875,58.09765 -7.83594,95.77734 -29.08985,130.07031 -27.32422,44.09375 -75.15625,73.85547 -139.63281,87.99219 l -48.54688,39.29297 -17.67578,-13.9961 -17.53125,13.91016 -17.5664,-13.46094 -17.07032,13.375 -48.51171,-39.82812 C 146.96875,517.64062 106.75391,497.76172 78.039063,467.15625 44.460938,431.35937 22.695313,379.82031 27.691406,309.46094 L 0.0234375,281.57422 C 38.078125,244.87891 57.761719,199.27344 60.617188,157.16016 62.980469,122.27344 53.769531,88.441406 24.628906,51.175781 Z m 0,0"
     id="path833" />
  <path
     style="fill:#fdcc00;fill-opacity:1;fill-rule:evenodd;stroke:none"
     d="m 361.91406,24.300781 c -26.57422,18.660157 -53.92187,27.035157 -80.89453,27.367188 -27.83203,0.339844 -53.875,-6.828125 -83.37891,-27.554688 -34.25,25.519532 -96.03124,30.488282 -133.152339,16.957032 L 50.4375,58.972656 C 79.554688,96.03125 85.144531,134.57422 81.367188,169.3125 77.46875,205.15625 59.773438,244.62109 28.972656,277.87109 l 22.628907,23.3711 c -5.386719,54.61718 6.199218,106.75 45.195312,148.3164 27.585935,29.40625 65.582035,44.79688 104.582035,52.07032 18.24218,12.16406 31.90625,26.65625 43.52343,41.66015 l 17.16407,-17.13672 18.53125,17.28907 16.73046,-18.375 17.86719,18.125 c 12.51563,-15.19922 23.35156,-27.20313 42.96094,-41.33985 48.42969,-10.61719 96.22266,-32.26562 123.18359,-75.77344 24.29688,-39.21093 29.29297,-73.67578 26.9336,-125.5625 l 21.88281,-22.49218 c -32.26953,-36.05078 -47.98438,-73.4336 -52.03516,-110.67578 -3.92187,-36.09375 4.39453,-74.164066 30.49219,-108.50391 L 495.38672,40.894531 c -20.03125,7.34375 -46.39844,9.273438 -70.89063,6.324219 -23.00781,-2.765625 -44.17968,-9.769531 -62.58203,-22.917969 z m 0,0"
     id="path835" />
  <path
     style="fill:#0c337d;fill-opacity:1;fill-rule:evenodd;stroke:none"
     d="m 95.800781,66.214844 c 25.171879,1.871094 56.519529,-0.363281 81.738279,-10.390625 6.95703,-2.765625 13.08985,-5.929688 19.47656,-9.792969 3.78907,2.246094 7.57813,4.476563 11.48047,6.523438 22.73047,11.933593 46.44141,18.078125 72.75782,17.757812 24.71484,-0.304687 48.38281,-6.773437 70.16015,-17.976562 3.71875,-1.910157 7.33985,-3.988282 10.95703,-6.085938 5.32422,2.996094 10.67578,5.859375 16.3086,8.253906 10.5625,4.492188 21.42187,7.46875 33.1875,9.429688 16.60547,2.773437 34.64453,3.949219 51.47265,2.421875 7.01172,-0.632813 13.08985,-1.617188 20.0586,-2.957031 -3.50391,5.757812 -6.83594,11.46875 -9.69532,17.398437 -12.80078,26.542965 -17.58593,58.656245 -14.4375,87.632815 1.98047,18.24218 6.58204,36.03906 13.46875,53.03515 l 3.39844,8.40235 H 82.925781 l 3.5625,-8.47657 C 93.351563,205.0625 98.304688,187.71484 100.22266,170.07812 103.52734,139.68359 99.058594,110.71875 86.792969,83.28125 85.40625,80.183594 83.960938,77.082031 82.339844,74.035156 L 76.738281,63.523438 c 6.21875,1.039062 12.84375,2.226562 19.0625,2.691406 z M 70.042969,302.18359 H 489.24609 l 0.3711,5.71485 c 2.53906,39.19922 -2.13282,73.01562 -23.80469,106.97265 -19.00781,29.78125 -49.55859,48.57813 -82.37891,59.9336 -32.80078,11.34765 -70.6875,14.30078 -105.24609,13.65625 -14.54688,-0.26953 -29.01172,-0.50391 -43.51172,-1.86328 -21.59766,-2.02344 -43.6875,-6.14063 -64.08984,-13.61329 C 147.75391,464.625 125.79688,452.52734 109.01953,434.65234 75.113281,398.50781 66.570313,356.1875 69.675781,307.89844 Z m 0,0"
     id="path837" />
  <path
     style="fill:#ffffff;fill-opacity:1;fill-rule:evenodd;stroke:none"
     d="m 362.41406,53.285156 c -24.63672,14.273438 -52.0625,22.457032 -81.08594,22.8125 -31.24218,0.382813 -58.47265,-7.648437 -84.28125,-22.945312 -28.625,18.199219 -73.30859,22.230469 -109.289057,18.074219 15.792967,30.499997 22.437497,63.640627 18.539067,99.511717 -1.95704,17.94531 -6.976567,35.87891 -14.175786,53.01953 H 467.07031 c -7.01172,-17.3164 -11.80859,-35.60547 -13.8789,-54.66797 -3.72657,-34.3125 3.78906,-70.488277 18.90625,-97.867184 C 454.91406,74 430.00781,72.992188 409.89844,69.636719 393.12109,66.839844 378.61719,62.40625 362.41406,53.285156 Z m 0,0"
     id="path839" />
  <path
     style="fill:#fdcc00;fill-opacity:1;fill-rule:evenodd;stroke:none"
     d="m 75.769531,308.29297 c -3.0625,47.70703 5.484375,87.82812 37.707029,122.17969 15.92969,16.98437 36.96875,28.63281 59.20313,36.77734 19.85547,7.26953 41.68359,11.3125 62.5625,13.26562 15.23828,1.42579 29.97265,1.59375 43.0625,1.83985 30.60547,0.57031 69.66015,-1.74219 103.13281,-13.32422 31.60937,-10.93359 61.03125,-28.9375 79.22656,-57.44531 22.14063,-34.69141 25.11328,-68.48438 22.85938,-103.29297 z m 0,0"
     id="path841" />
  <path
     style="fill:#e31c1c;fill-opacity:1;fill-rule:evenodd;stroke:none"
     d="m 116.16406,433.24219 c 13.26563,13.19531 29.69922,23.0039 47.25781,30.375 V 308.29297 H 116.16406 Z M 209.39062,477 c 8.64454,1.57031 17.32813,2.71875 25.85157,3.51562 7.29297,0.6836 14.47265,1.07813 21.40625,1.32813 V 308.29297 h -47.25782 z m 93.22657,5.14453 c 15.18359,-0.57031 31.35547,-2.03516 47.26172,-4.96484 V 308.29297 h -47.26172 z m 93.87109,-18.95703 c 17.49609,-7.58594 33.80859,-17.65234 47.25781,-30.83594 V 308.29297 h -47.25781 z m 0,0"
     id="path843" />
  <path
     style="fill:#e31c1c;fill-opacity:1;fill-rule:evenodd;stroke:none"
     d="m 363.4375,81.972656 c 34.85156,0 63.11328,28.261724 63.11328,63.113284 0,34.84765 -28.26172,63.10937 -63.11328,63.10937 -34.84766,0 -63.10938,-28.26172 -63.10938,-63.10937 0,-34.85156 28.26172,-63.113284 63.10938,-63.113284 z m 0,0"
     id="path845" />
  <path
     style="fill:#fdcc00;fill-opacity:1;fill-rule:evenodd;stroke:none"
     d="m 363.4375,85.832031 c 32.72266,0 59.25391,26.535159 59.25391,59.253909 0,32.71875 -26.53125,59.2539 -59.25391,59.2539 -14.35938,0 -27.52734,-5.11328 -37.78516,-13.61718 l 37.96485,-5.4961 0.1875,-24.47656 -3.71485,-0.0469 0.21094,-13.09375 h 4.38281 v 5.28907 l 9.07032,-0.0195 v -4.33985 l 9.93359,0.91016 v 5.83984 l 8.57812,0.0234 v -4.77344 l 15.39844,1.61719 -0.0351,14.51172 -6.66407,10.66797 v 2.5039 h 2.04688 v -1.53125 l 7.91015,-12.78906 0.0234,-15.56641 -10.90625,-1.48828 0.14453,-16.75 0.0859,-0.92968 0.75781,-3.71485 2.11328,-3.53125 V 117.625 l -17.41015,-2.31641 -1.90625,-1.5 1.34765,-1.20703 c 3.71875,-0.54297 8.64063,0.67969 12.26563,0.32032 0.22656,-5.37891 -3.74219,-10.11719 -9.21094,-11.40625 v -3.750005 c 0,-0.386719 -3,-0.46875 -3,-0.449219 l 0.1875,4.222654 c -2.73437,0.52735 -5.375,2.46485 -6.82422,4.3125 -2,2.53516 -2.48828,6.01563 -1.82812,9.91407 l -7.57031,1.30078 v 5.73047 l 3.08593,4.85546 -0.66797,17.76172 h -0.92968 l -0.0859,5.17188 h -3.20703 v -5.91407 l -11.66797,0.25 0.0234,7.79297 -2.55469,0.21094 -0.008,-7.38281 -10.00782,0.93359 0.0391,7.38672 -2.2461,0.25391 -0.0312,-7.39063 -13.35547,1.46875 0.0117,6.9961 -1.80468,0.21484 0.0547,-6.96484 -10.76953,1.16015 0.0274,17.6875 4.80468,7.53516 0.46094,10.9414 c -10.02344,-10.61328 -16.17578,-24.92968 -16.17578,-40.67968 0,-32.71875 26.53125,-59.253909 59.25,-59.253909 z m -40.26563,82.765629 3.24219,6.13281 c 0.78125,1.48047 -2.91797,1.23047 -3.16015,0.79687 l -3.75,-6.54297 c -0.32813,-0.58203 0.0117,-1.80859 0.5,-2.14062 0.80468,-0.5625 2.29296,0.0898 3.16796,1.75391 z m 6.50391,-1.39454 3.25391,5.57422 c 0.47265,0.8125 -0.25782,1.69922 -1.08985,1.74219 -0.65234,0.0312 -1.49218,-0.66016 -1.59765,-0.84766 l -2.50391,-4.49218 c -1.33203,-2.38672 0.41797,-4.57422 1.9375,-1.97657 z m 6.875,-0.51953 2.50781,5.91016 c 0.65625,1.53516 -1.92187,2.06641 -2.55468,0.75 l -3.26172,-6.76563 c -0.77344,-1.60156 2.13672,-2.65625 3.30859,0.10547 z m 6.54688,-1.82031 2.21484,7.07813 c 0.49609,1.57812 -2.25781,2.14453 -2.81641,0.70703 l -2.96875,-7.625 c -0.46875,-1.19922 3.41797,-0.65235 3.57032,-0.16016 z m 6.58593,0.49609 1.73828,6.32813 c 0.4375,1.59375 -2.48828,1.17578 -2.67578,0.71875 L 345.72656,165 c -0.66406,-1.62891 3.16797,-2.50391 3.95703,0.35937 z m 6.78125,-1.40625 0.375,8.08204 c 0.0195,0.49218 -1.82031,0.34765 -1.95312,-0.12891 l -2.13281,-7.57031 c -0.33985,-1.19141 3.65625,-1.6211 3.71093,-0.38282 z m 44.78907,2.65235 -3.47657,7.89062 c -0.67187,1.52735 2.01953,1.35547 2.28516,0.9375 l 5.22266,-8.12109 c 0.36328,-0.55859 0.3164,-1.01953 -0.16797,-1.35156 -0.8086,-0.5586 -3.11328,-1.07422 -3.86328,0.64453 z m -6,-0.83985 -3.52735,8.02735 c -0.77734,1.76172 3.46875,0.99609 3.57031,0.80078 l 4.62891,-9.21094 c 0.16797,-0.33203 -4.08594,-0.94531 -4.67187,0.38281 z m -6.96485,-0.42578 -2.41797,7.80469 c -0.49218,1.58984 3.15235,2.17578 3.6211,0.79688 l 2.70703,-7.92188 c 0.57031,-1.67578 -3.28906,-2.69141 -3.91016,-0.67969 z m -7.19922,-1.21875 -0.91797,8.375 c -0.17968,1.64063 3.17579,1.33985 3.41797,0.37891 l 2,-7.85156 c 0.1875,-0.74219 -1.46093,-1.33594 -2.80468,-1.39844 -0.91797,-0.043 -1.67188,0.28516 -1.69532,0.49609 z m -7.23047,0.125 -0.16406,8.17969 c -0.0312,1.65234 3.89844,1.21094 3.92578,0.71875 l 0.38282,-7.68359 c 0,-0.043 -0.082,-1.35547 -0.58985,-1.80078 -1.19922,-1.05079 -3.51172,-1.50391 -3.55469,0.58593 z m -6.59765,-1.54687 -0.1875,9.24219 c -0.008,0.48828 3.74219,0.41015 3.76172,-0.0859 l 0.28125,-8.76953 c 0.0391,-1.23828 -3.82813,-1.625 -3.85547,-0.38672 z m 3.90234,-43.47266 0.81641,1.80469 h 14.92578 l -0.12891,31.85937 2.85547,0.008 v -5.64453 l 7.95703,0.8164 0.15625,-16.26172 -2.35547,-1.30078 v -3.53125 l -0.90234,-0.0937 -0.1875,3.53125 -1.69922,0.38672 -1.76172,-0.57422 -0.0937,-3.52734 -2.09765,-1.30078 -0.0117,-4.36719 11.16015,1.02734 0.47657,-1.86328 -13.0586,-2.04297 z m 20.60547,16.66797 h 2.41406 v 3.71875 h -2.41406 z m -15.84766,17.375 h 2.75 v 4.46094 h -2.75 z m 0,0"
     id="path847" />
  <path
     style="fill:#fdcc00;fill-opacity:1;fill-rule:evenodd;stroke:none"
     d="m 262.54687,151.74219 c 1.9336,-0.35157 3.89063,-0.58985 4.83204,-0.54297 3.83203,0.19531 7.51953,-1.625 10.5,-4.79688 -2.57032,1.16016 -4.79297,1.80078 -6.91016,0.9961 -2.47266,-0.94141 -2.08594,-4.50782 -4.50781,-4.81641 -2.35938,-0.29687 -5.90625,2.76953 -7.67578,1.62109 -1.73047,-1.125 -1.95704,-3.58984 -4.17579,-5.67187 8.32813,-3.03516 6.44532,-7.38281 9.86719,-10.03906 1.71485,-1.33203 3.48438,-0.89844 5.25,-1.0625 2.27735,-0.21094 4.82031,-1.77344 6.74219,-5.67188 -2.11719,1.85547 -4.05859,3.1211 -6.31641,2.96485 -2.63672,-0.17969 -4.96093,-2.53125 -7.375,-2.11328 -2.34375,0.40234 -4.83984,4.36718 -6.86718,3.78125 -2.3086,-0.66797 -1.72657,-2.72657 -5.66797,-3.84766 -0.15235,-0.043 -0.30469,-0.0859 -0.45703,-0.12891 6.94921,-4.49218 3.6914,-8.85547 6.0664,-12.24609 1.2461,-1.78125 2.09766,-1.89063 3.73828,-2.57031 2.10938,-0.8711 4.40235,-3.11719 5.08985,-7.41016 -1.47657,2.39844 -3.27735,4.17969 -5.48047,4.69922 -2.57031,0.60547 -5.47656,-0.60156 -7.67188,0.47656 -2.41797,1.19141 -2.99609,5.50391 -5.91797,5.96875 -2.55468,0.40625 -3.51171,-0.875 -7.21484,-1.07031 3.52734,-5.38672 -0.15234,-8.11719 0.98438,-11.76172 0.64453,-2.074219 1.42187,-2.4375 2.77734,-3.585937 1.74609,-1.472657 3.24609,-4.308594 2.59766,-8.605469 -0.67969,2.730469 -1.85547,5.300781 -3.78907,6.464844 -2.27343,1.359375 -5.72656,1.417968 -7.48828,3.113281 -1.9414,1.867187 -0.85937,5.507811 -3.5,6.839841 -2.33984,1.17969 -3.63672,0.21485 -7.32422,1.21094 1.82032,-6.558594 -2.86718,-6.679687 -3.32422,-10.632812 -0.24218,-2.160157 0.31641,-2.808594 1.09375,-4.402344 0.90235,-1.859375 1.17188,-4.664063 -0.52343,-7.902344 l -0.32032,1.332031 c 0.0937,1.945313 -0.1875,3.769532 -1.11718,5.09375 -0.0469,0.06641 -0.0977,0.128907 -0.14453,0.191407 l -15.01172,62.843752 c 1.83984,-0.0508 3.61718,0.3125 5.37109,1.16015 1.54688,0.7461 2.73438,1.7461 4.17578,2.58985 0.65235,0.3789 1.25391,0.64062 2.01953,0.64843 0.6211,0.008 1.15625,-0.10156 1.73438,-0.32421 0.76172,-0.28516 1.51172,-0.71094 2.23437,-1.09375 1.13672,-0.60938 2.26563,-1.17579 3.47657,-1.64454 4.39843,-1.69921 9.51953,-2.03515 13.58593,0.70313 2.32813,1.56641 3.71485,2.47656 6.65625,2.48047 1.78907,0.004 4.53125,-1.6211 6.1211,-2.41406 2.83203,-1.41797 5.64453,-2.4961 8.87109,-2.20313 1.9375,0.17578 3.48438,0.6875 4.99609,1.37891 z m -72.64062,54.79687 c 32.15625,-1.38281 54.09766,-18.21484 65.00391,-32.66797 -1.35157,-0.75 -1.94532,-1.08984 -3.63672,-0.94531 -0.38672,0.0312 -0.76563,0.11719 -1.13282,0.22656 -1.67968,0.51563 -3.46875,1.64063 -5.08984,2.39453 -2.76953,1.28907 -5.44141,1.95704 -8.51953,1.73438 -1.99609,-0.14063 -3.71875,-0.78125 -5.44141,-1.75781 -1.96875,-1.11719 -3.71093,-2.67188 -6.08593,-2.67188 -5.28907,0 -7.78125,3.25781 -12.375,4.04688 -0.8711,0.15234 -1.75,0.18359 -2.63282,0.0937 -1.9375,-0.20703 -3.49218,-0.82813 -5.13672,-1.82813 -0.95703,-0.58203 -1.88281,-1.26172 -2.95312,-1.62109 -1.24219,-0.41797 -2.69531,-0.4336 -4.04297,-0.31641 z m 0,0"
     id="path849" />
  <path
     style="fill:#0c337d;fill-opacity:1;fill-rule:evenodd;stroke:none"
     d="m 198.72266,169.63672 c 6.64062,-0.19141 7.17578,3.36719 11.64453,3.83594 4.375,0.46093 7.34765,-4.15625 14.63672,-4.15625 5.25,0 7.19531,4.11328 11.77734,4.4375 6.27344,0.44921 9.49609,-3.94922 14.1875,-4.35157 2.75781,-0.23437 3.98437,0.45313 5.88281,1.5 3.07422,-4.07031 6.91016,-11.73437 7.79688,-14.08593 -2.9336,-1.54688 -4.63282,-2.67969 -7.41797,-2.92969 -5.39063,-0.48828 -9.84766,4.63672 -14.67188,4.6289 -4.27343,-0.004 -6.53125,-1.67187 -8.6289,-3.08203 -3.05078,-2.05468 -7.04297,-1.60937 -10.33594,-0.33593 -3.60547,1.39453 -5.39063,3.33203 -8.75391,3.30078 -4.91015,-0.0508 -6.45312,-5.10157 -12.39843,-4.32422 z m 0,0"
     id="path851" />
  <path
     style="fill:#0c337d;fill-opacity:1;fill-rule:evenodd;stroke:none"
     d="m 185.32422,206.88281 c -36.1211,-0.76172 -58.72266,-27.59765 -49.78516,-59.51953 8.60547,-30.74219 36.82813,-55.64453 77.88281,-58.089842 l -3.99609,16.718752 c -29.125,2.19922 -49.12109,19.54687 -55.28906,41.22656 -3.21094,11.28906 -1,21.76953 5.30859,29.55469 6.3086,7.78515 15.28906,12.8789 29.8711,13.39843 z m 0,0"
     id="path853" />
  <path
     style="fill:#fdcc00;fill-opacity:1;fill-rule:evenodd;stroke:none"
     d="m 188.21875,139.95703 c -2.12891,2.65625 -3.00391,5.02734 -2.77734,7.14063 0.38671,3.52734 5.1914,8.10546 9.9375,8.9375 1.58593,-1.08594 -0.98438,-3.44141 -2.72657,-5.87891 -1.11718,-1.5625 -2.02343,-3.01172 -1.85156,-4.89844 0.21094,-2.33203 1.97266,-4.25 5.26953,-6.125 0.83985,-2.09765 2.11328,-4.04687 3.81641,-4.91015 1.16015,0.66015 1.33984,1.32421 2.12109,1.71093 0.78906,0.38672 2.17188,-0.0625 2.95703,0.32422 -0.76953,2.70313 -3.45703,4.20703 -5.52343,4.47656 -0.8086,0.10157 -2.58594,-0.54296 -3.33594,-0.0625 -1.64063,1.05469 -2.91016,2.72657 -3.0586,4.33594 -0.35546,3.85547 5.58985,6.53906 5.25782,10.19922 -0.082,0.89063 -0.94532,2.75781 -3,4.07813 -1.67188,1.07421 -2.9375,1.68359 -3.79297,2.80078 -0.63281,0.83593 -1.28516,2.01172 -1.10156,3.22265 0.16796,1.12891 1.1289,1.20313 0.21093,2.13672 -0.65625,0.67188 -1.39453,1.3086 -1.64062,2.04688 -0.22656,0.67578 -0.29297,1.40234 -0.22656,2.21484 0.0469,0.19141 -0.39063,0.40234 -0.92969,0.71094 -0.54297,0.30859 -1.1875,0.72265 -1.55469,0.68359 -0.83594,-0.0898 -1.39062,-0.97265 -2.22266,-0.94922 -0.59375,0.0117 -0.76953,0.49219 -1.26562,0.69922 -0.60156,0.25391 -0.94531,0.38281 -1.51953,0.60547 -0.50391,0.19922 -0.98828,0.86719 -1.27735,0.92188 -1.37109,-0.5 -0.80078,-0.78907 -1.18359,-1.125 -0.23047,-0.19922 -0.54687,-0.2461 -0.65234,-0.45313 -0.13282,-0.27344 0.004,-0.55078 0.0508,-0.82031 0.0625,-0.36328 -0.25781,-0.625 -0.19531,-1.00781 0.125,-0.72266 -0.35938,-1.03125 1.2539,-1.375 0.91406,-0.19532 2.09375,-0.25391 2.62891,-0.22266 1.53906,0.0937 2.54297,0.51172 4.02734,-0.75781 -1.50781,-3.03516 -3.51172,-3.76172 -4.98828,-3.89453 -0.92187,-0.082 -2.08594,0.3789 -2.79687,1.27343 -0.625,0.78907 -0.80079,2.05469 -0.5625,3.61328 -0.33204,0.44532 -1.60157,0.25 -1.95313,0.64454 -0.58203,0.66015 -0.47656,0.96875 -0.42969,2.73046 -0.5625,0.0156 -1.58984,-0.85156 -2.15234,-0.83593 -0.5625,0.0156 -0.89063,0.26172 -1.59375,0.83203 -1.30078,-0.92578 -0.78906,-1.89063 -1.57031,-2.71875 -0.46875,-0.49219 -1.57032,-0.6211 -1.94532,-1.08985 -0.5,-0.6289 -0.45703,-1.38281 -0.97656,-1.66406 -0.51172,-0.27734 -1.03125,-0.32031 -1.55469,0.004 -0.33984,-1.26172 0.0586,-2.32422 0.52344,-3.06641 0.20703,-0.33594 0.30469,-0.60937 0.57031,-0.80469 0.28516,-0.20703 0.58594,-0.0391 0.85938,-0.15234 0.57812,-0.23047 0.55859,-0.73047 0.91406,-0.64062 0.69531,0.17187 1.875,0.95703 2.46094,1.9375 0.85547,1.42968 1.50781,4.42187 3.12109,3.5664 0.54297,-0.98047 -0.043,-2.33594 -0.78515,-3.08203 -0.57813,-0.58203 -1.38282,-0.53906 -1.00782,-1.30078 1.10547,-2.26953 5.33204,-5.21484 8.83594,-7.82422 -3.26953,-1.48828 -4.3125,-2.88281 -5.35156,-4.46094 -2.73438,1.60938 -4.76563,3.44922 -5.97656,4.99219 -0.82813,1.05859 -0.83985,2.01563 -1.58203,2.77344 -0.3086,-0.5625 -1.08204,-1.44922 -2.03907,-1.69141 -0.35547,0.53516 -1.21875,0.60938 -1.57812,0.72656 0.52344,-1.46093 -0.17969,-3.05468 -0.71485,-4 -0.46875,-0.83593 -1.24609,-0.98437 -1.58593,-1.90625 -0.2461,-0.65625 0.14062,-1.6875 -0.15625,-2.34375 -0.1875,-0.42578 -0.60938,-0.85937 -1.30469,-1.19531 0.21484,-0.36328 0.71875,-0.45312 0.95312,-0.67578 0.17969,-0.17969 0.375,-0.40625 0.56641,-0.65234 0.11719,-0.14453 0.79297,-0.375 0.91406,-0.47266 0.39453,-0.30859 0.2461,-0.75781 0.67188,-0.89062 0.32812,-0.10157 1.1289,0.125 1.48047,0.1289 0.76562,0.004 1.49609,-0.42187 1.99609,0.51172 -0.19922,2.25 -1.10937,3.24219 -1.05469,4.25391 0.0625,1.14453 1.00782,1.78125 1.50782,1.93359 1.21484,0.36719 3.85156,-1.28906 6.83593,-5.69531 -2.625,-2.97656 -7.13672,-0.0781 -8.28125,-2.1875 -0.1914,-0.35547 -0.5,-0.89453 -1.07422,-1.35938 -0.26171,-0.21484 -0.625,-0.38672 -0.96875,-0.50781 -0.0391,-0.35937 0.66407,-0.75391 0.79297,-1.16797 -0.008,-0.23047 -0.20312,-0.93359 -0.34375,-1.51172 0.41407,-0.20703 0.56641,-0.29297 0.92188,-0.70703 0.0234,-0.33594 -0.0352,-0.67969 -0.008,-1.29297 0.74218,-0.4375 1.29687,-1.16797 1.58593,-1.72656 -0.40234,-0.71094 -0.33203,-1.77344 -0.6914,-2.50781 -0.35157,-0.71094 -0.61719,-0.91406 -1.51953,-1.25391 0.3125,-0.57031 0.85546,-0.39453 1.43359,-0.59375 0.26172,-0.18359 0.16016,-0.33203 0.36719,-0.47656 0.20312,-0.14453 0.71875,-0.28516 0.92578,-0.44922 0.19922,-0.15234 0.28515,-0.77344 0.52734,-0.92578 0.26563,-0.16797 0.8711,-0.0117 1.16406,-0.0977 0.875,-0.2539 1.14063,-0.59765 2.29688,-0.10156 1.43359,2.87891 -1.32813,5.74609 -2.04688,7.9375 -0.38671,1.15234 0.96875,2.70313 1.92969,3.17188 0.86328,0.42578 2.38281,0.6875 3.6211,0.52734 1.11328,-0.14063 0.5625,-0.85156 1.57421,-1.44141 0.48047,-0.27734 2.08204,-0.28906 2.86329,-0.53515 0.35156,-0.10938 0.80468,-0.7461 0.75,-1.85157 -0.6211,-0.58593 -1.73438,-0.15234 -2.1875,-0.33984 -0.57813,-0.24219 -0.5625,-0.99219 -0.91407,-2.01562 -0.96484,-0.39844 -1.42578,0.55468 -2.27343,1.02343 -0.75,0.41797 -1.94532,0.41797 -2.01172,-0.625 1.36718,0.3125 2.45703,-1.5 3.73437,-1.55078 -0.60547,-1.15625 -0.44531,-1.67969 0.0703,-1.91797 0.51563,-0.23828 1.39063,-0.19531 1.85157,-0.59765 0.69922,-0.61328 1.10156,-1.07032 1.76953,-1.72266 0.5625,-0.54687 1.4414,-0.89062 1.96484,-1.57812 0.58985,-0.78125 0.83985,-1.89844 1.80078,-2.33203 0.17969,0.55859 0.19922,1.01953 1.21485,1.67187 1.60156,-0.35547 1.16797,-1.12891 3.18359,-1.80859 0.37891,0.5664 0.34766,1.03906 0.86328,1.375 0.75781,0.17578 1.14453,-0.48047 2.45703,0.48437 -0.10547,0.55859 -0.85937,0.74609 -0.3164,1.67578 0.73047,0.3125 1.6914,0.625 2.75,2.23047 -1.07032,0.0234 -1.95313,0.28125 -1.95703,1.55469 0,1.03906 1.4375,0.96484 1.2539,3.11328 -1.1914,-0.12891 -2.3789,-0.58203 -2.45312,0.58984 0.004,1.07032 0.51562,2.1875 -0.0352,3.26172 -0.96094,-0.48828 -1.31641,-0.79297 -2.83203,-0.95703 z m 0,0"
     id="path855" />
  <path
     style="fill:#0c337d;fill-opacity:1;fill-rule:evenodd;stroke:none"
     d="m 279.74219,268.47266 c 34.78125,0 62.98828,28.20703 62.98828,62.98828 0,34.78125 -28.20703,62.98828 -62.98828,62.98828 -34.77735,0 -62.98828,-28.20703 -62.98828,-62.98828 0,-34.78125 28.21093,-62.98828 62.98828,-62.98828 z m 0,0"
     id="path857" />
  <path
     style="fill:#ffffff;fill-opacity:1;fill-rule:evenodd;stroke:none"
     d="m 280.37891,309.03516 20.82421,15.12109 17.19141,-5.34375 1.14063,-22.60156 -16.85157,-13.82813 -22.30468,7.6875 z m 20.29687,-32.65235 c 10.85938,4.05469 20.20703,11.19922 26.98438,20.36328 l -5.48829,-1.39453 -18.89453,-15.55469 z m 38.5,58.64453 c -0.71484,14.17188 -6.41797,27.03125 -15.375,36.8711 l 1.26953,-9.16797 9.00391,-21.85547 z m -46.15625,54.8125 c -4.21094,0.94922 -8.58984,1.45313 -13.08984,1.45313 -4.94922,0 -9.75391,-0.61328 -14.35157,-1.75391 l 2.89844,-0.96094 h 20.80078 z m -59.71875,-21.20703 c -6.90234,-8.76172 -11.37891,-19.51953 -12.44141,-31.25781 l 2.79297,3.18359 8.8711,21.51953 z m -0.0859,-73.21484 c 6.23438,-7.95703 14.46094,-14.28125 23.92578,-18.22656 l -2.04296,2.70703 -18.46485,14.99609 z m 70.78125,72.33984 -10.90234,-16.98047 8.99219,-24.11328 17.05078,-5.30078 12.38281,19.78906 -7.91406,19.32422 z m -13.60156,-16.27344 11.52734,17.94922 -13.02343,17.13282 h -20.0586 l -13.89453,-17.5625 11.71485,-17.51954 z m -37.57422,15.92188 11.49219,-17.1875 -8.57031,-24.06641 -16.67578,-4.70703 -12.97266,19.125 7.80469,19.05078 z m 4.0586,-43.69141 20.83984,-15.05078 v -18.76562 l -21.59766,-7.76563 -17.60547,14.2461 1.58204,22.59765 z m 0,0"
     id="path859" />
  <path
     style="fill:#0c337d;fill-opacity:1;fill-rule:evenodd;stroke:none"
     d="m 489.25781,256.46875 v -3.46484 c 0,-2.74219 -0.58203,-5.05079 -1.26172,-6.95704 -0.67968,-1.90234 -1.60547,-3.44921 -2.78125,-4.66406 -1.1875,-1.21484 -2.61328,-2.17578 -4.28125,-2.85156 -1.65234,-0.67969 -3.5625,-1.16406 -5.69922,-1.46875 -2.13671,-0.29688 -4.48046,-0.47656 -7.07812,-0.55078 -2.58984,-0.0664 -5.40234,-0.0898 -8.43359,-0.0781 -4.29297,-0.0117 -8.09375,0.17969 -11.41797,0.57422 -3.32032,0.39844 -6.1836,1.08985 -8.59375,2.0586 -2.41407,0.97265 -4.39453,2.3164 -5.94532,4.02734 -1.53906,1.71484 -2.6914,3.86328 -3.42968,6.46875 -0.7461,2.60937 -1.1211,5.75391 -1.1211,9.42187 v 13.19532 c 0.0312,3.34765 0.30469,6.3125 0.82422,8.88281 0.50781,2.57031 1.39063,4.76953 2.65625,6.58594 1.2461,1.82422 3.01563,3.29687 5.29297,4.41015 2.26953,1.125 5.18359,1.90235 8.74609,2.36328 3.54688,0.46094 7.88672,0.61329 12.98829,0.46094 3.01171,-0.0898 5.86328,-0.1914 8.54687,-0.29297 2.67188,-0.10547 5.13672,-0.32031 7.40234,-0.6289 2.26563,-0.30469 3.98047,-0.80078 5.76563,-1.48438 1.79687,-0.68359 3.32422,-1.63281 4.56641,-2.86328 1.25,-1.23437 2.1875,-2.83594 2.82031,-4.80469 0.6289,-1.96875 0.89062,-4.38672 0.89062,-7.26172 v -3.75781 H 474.4375 v 1.85938 c 0,2.02734 -0.32031,3.63672 -0.95703,4.79297 -0.63672,1.16406 -1.65235,2.01562 -2.97656,2.54296 -1.32422,0.52735 -3.03516,0.86719 -5.08204,1 -2.05859,0.12891 -2.88671,0.17969 -5.69921,0.17579 -2.91016,0 -3.4375,-0.0977 -5.41016,-0.31641 -1.97266,-0.22266 -3.57813,-0.63281 -4.79297,-1.20313 -1.21094,-0.57421 -2.12109,-1.37109 -2.75,-2.40234 -0.62891,-1.03516 -1.07031,-2.35547 -1.29687,-3.96484 -0.21875,-1.59375 -0.33985,-2.26563 -0.33985,-4.55469 V 258.9844 c 0,-2.80078 0.17969,-3.6289 0.59766,-5.36718 0.42187,-1.73828 1.22265,-3.05469 2.38281,-3.97657 1.14844,-0.91015 2.83594,-1.53515 5.01953,-1.86328 2.1836,-0.32812 3.09766,-0.46093 6.58985,-0.46093 3.03906,0 3.98046,0.0469 5.98828,0.17968 2.01562,0.12891 3.61328,0.42188 4.77343,0.87891 1.14844,0.45312 1.98438,1.17969 2.46094,2.13672 0.48438,0.96484 0.71485,2.29687 0.71485,3.9375 v 2.01953 z m 0,0"
     id="path863" />
  <path
     style="fill:#0c337d;fill-opacity:1;fill-rule:evenodd;stroke:none"
     d="m 133.71094,294.42187 h 13.05859 v -11.3125 h -13.05859 z m 0,0"
     id="path865" />
  <path
     style="fill:#0c337d;fill-opacity:1;fill-rule:evenodd;stroke:none"
     d="m 406.96094,294.42187 h 13.05859 v -11.3125 h -13.05859 z m 0,0"
     id="path867" />
  <path
     style="fill:#0c337d;fill-opacity:1;fill-rule:evenodd;stroke:none"
     d="m 191.49609,277.16797 c 2.19532,0 3.97266,0.41797 5.3125,1.11328 1.33594,0.6875 2.32032,1.66797 2.91407,2.88672 0.59765,1.22656 0.89453,2.66797 0.89453,4.28515 v 8.96875 h 16.07812 v -10.41796 c 0,-2.03125 -0.16406,-3.17969 -0.53125,-4.72657 -0.36328,-1.54297 -0.98828,-2.86718 -1.88672,-3.9375 -0.91015,-1.08593 -2.14843,-1.92187 -3.74218,-2.54297 -1.58594,-0.61718 -3.60157,-1.02343 -6.03125,-1.1875 v -0.30859 c 2.42968,-0.29297 4.42968,-0.77344 6.01562,-1.42969 1.57813,-0.65625 2.99219,-1.47265 3.90234,-2.4414 0.92579,-0.98438 1.60157,-2.10157 2.03125,-3.36328 0.42969,-1.25391 0.69922,-2.63672 0.81641,-4.14063 0.12109,-1.49609 0.16016,-3.42969 0.16016,-5.12891 0,-3.25 -0.375,-6.61718 -1.1836,-8.80078 -0.80859,-2.1875 -2.23828,-3.9414 -3.96875,-5.2539 -1.72265,-1.3086 -3.98047,-2.26172 -6.7539,-2.85157 -2.76563,-0.60156 -6.10938,-0.93359 -10.04688,-0.99609 h -36.77344 v 57.52734 h 15.11329 v -17.2539 z m -17.67968,-10.39844 v -19.15625 h 16.14843 c 2.46094,0 4.46485,0.11328 6,0.35938 1.54688,0.24609 2.73828,0.70312 3.56641,1.3789 0.83203,0.67578 1.40234,1.65235 1.71484,2.91797 0.3086,1.25781 0.42969,2.91406 0.42969,4.93359 0,2.09766 -0.16406,3.32813 -0.54297,4.64454 -0.3789,1.32812 -1.04297,2.35156 -1.96875,3.05468 -0.9414,0.71485 -2.23828,1.21485 -3.88672,1.48438 -1.64843,0.26562 -3.75,0.38281 -6.27343,0.38281 z m 0,0"
     id="path869" />
  <path
     style="fill:#0c337d;fill-opacity:1;fill-rule:evenodd;stroke:none"
     d="m 372.83984,247.61328 h 32.51172 v -10.71875 h -47.9414 v 57.52734 h 15.42968 v -22.49218 h 30.46094 v -10.33594 h -30.46094 z m 0,0"
     id="path871" />
  <path
     sodipodi:nodetypes="cccccccsccccccscccscccscc"
     d="m 75.968261,236.89453 v 57.52734 h 15.114258 v -17.25412 h 25.107311 c 8.23011,-0.0997 15.27591,-4.7735 17.52843,-13.10184 0.42969,-1.25391 0.7002,-2.63574 0.81738,-4.13964 0.12109,-1.4961 0.15967,-3.43067 0.15967,-5.12988 0,-3.25001 -0.37499,-6.61719 -1.1836,-8.80079 -0.80859,-2.1875 -2.23779,-3.94043 -3.96825,-5.25293 -1.72266,-1.3086 -3.98097,-2.2622 -6.7544,-2.85205 -2.76563,-0.60156 -6.10986,-0.93359 -10.04736,-0.99609 z m 15.114258,10.71826 h 16.148441 c 2.46093,0 4.46484,0.11425 6,0.36035 1.54688,0.24609 2.73729,0.70264 3.56543,1.37842 0.83203,0.67578 1.40283,1.65235 1.71532,2.91797 0.30861,1.25781 0.42921,2.91406 0.42921,4.93359 0,2.09766 -0.16308,3.32861 -0.542,4.64502 -0.3789,1.32812 -1.04296,2.35108 -1.96875,3.0542 -0.9414,0.71485 -2.23925,1.21436 -3.88769,1.48389 -1.64843,0.26562 -3.74903,0.38379 -6.27246,0.38379 H 91.082519 Z"
     style="fill:#0c337d;fill-opacity:1;fill-rule:evenodd;stroke:none;stroke-width:0.999997"
     id="path906" />
</svg>
