<svg xmlns="http://www.w3.org/2000/svg" width="1927" height="1920" viewBox="0 0 1927 1920" version="1.1"><path d="M 1184.993 605.083 C 1184.989 605.862, 1182.949 620.450, 1180.460 637.500 C 1177.971 654.550, 1175.510 671.650, 1174.992 675.500 C 1174.212 681.305, 1165.127 743.843, 1159.449 782.500 C 1158.642 788, 1157.552 795.650, 1157.028 799.500 C 1156.505 803.350, 1152.869 828.550, 1148.950 855.500 C 1145.031 882.450, 1141.432 907.425, 1140.953 911 C 1140.473 914.575, 1138.477 928.300, 1136.517 941.500 C 1134.557 954.700, 1132.530 968.650, 1132.014 972.500 C 1130.644 982.704, 1121.113 1048.936, 1120.471 1052.710 L 1119.925 1055.919 1129.212 1051.579 C 1134.321 1049.192, 1143.900 1044.658, 1150.500 1041.502 C 1157.100 1038.347, 1167 1033.623, 1172.500 1031.006 C 1190.904 1022.246, 1203.394 1016.282, 1217.500 1009.515 C 1244.593 996.519, 1265.263 986.930, 1265.556 987.223 C 1265.719 987.386, 1262.650 990.890, 1258.736 995.010 C 1244.366 1010.136, 1205.051 1050.938, 1189.380 1066.989 C 1180.513 1076.070, 1170.838 1086.148, 1167.880 1089.384 C 1136.525 1123.679, 1110.032 1172.733, 1098.686 1217.500 C 1095.141 1231.485, 1094.207 1236.953, 1087.497 1283 C 1085.534 1296.475, 1081.937 1321, 1079.505 1337.500 C 1072.924 1382.148, 1066.413 1426.503, 1062.478 1453.500 C 1060.553 1466.700, 1058.565 1479.975, 1058.059 1483 C 1056.273 1493.676, 1054.783 1506.117, 1055.237 1506.570 C 1055.489 1506.822, 1056.510 1503.985, 1057.506 1500.264 C 1058.501 1496.544, 1060.098 1491.025, 1061.055 1488 C 1062.011 1484.975, 1064.837 1475.525, 1067.336 1467 C 1099.673 1356.647, 1101.205 1352.047, 1115.545 1322.233 C 1147.195 1256.432, 1200.984 1198.071, 1266.500 1158.448 C 1274.684 1153.499, 1299.200 1141.433, 1338.844 1122.843 C 1345.112 1119.903, 1347.041 1118.548, 1346.598 1117.394 C 1346.274 1116.549, 1344.020 1109.478, 1341.589 1101.679 C 1339.159 1093.881, 1332.372 1072.200, 1326.507 1053.500 C 1320.642 1034.800, 1312.691 1009.375, 1308.839 997 C 1304.986 984.625, 1298.904 965.275, 1295.324 954 C 1291.743 942.725, 1284.392 919.325, 1278.986 902 C 1273.581 884.675, 1265.481 858.800, 1260.985 844.500 C 1256.490 830.200, 1250.864 812.200, 1248.482 804.500 C 1246.101 796.800, 1241.381 781.725, 1237.994 771 C 1234.607 760.275, 1228.686 741.375, 1224.835 729 C 1220.984 716.625, 1214.905 697.275, 1211.326 686 C 1207.748 674.725, 1200.547 651.775, 1195.326 635 C 1190.105 618.225, 1185.645 604.313, 1185.416 604.083 C 1185.187 603.854, 1184.997 604.304, 1184.993 605.083" stroke="none" fill="#ffd700" fill-rule="evenodd"/><path d="M 927 366.075 C 903.830 367.665, 869.863 372.066, 850.058 376.044 C 831.472 379.778, 801.763 387.454, 801.308 388.639 C 801.055 389.300, 804.292 400.789, 808.503 414.170 C 812.713 427.552, 820.198 451.325, 825.136 467 C 830.073 482.675, 836.369 502.700, 839.127 511.500 C 841.884 520.300, 845.875 532.900, 847.994 539.500 C 850.114 546.100, 855.075 561.850, 859.020 574.500 C 862.964 587.150, 869.115 606.725, 872.687 618 C 876.259 629.275, 881.464 645.815, 884.252 654.756 L 889.322 671.012 964.867 670.756 L 1040.412 670.500 1041.599 666.500 C 1042.251 664.300, 1045.350 654.400, 1048.486 644.500 C 1051.621 634.600, 1060.034 607.825, 1067.182 585 C 1074.329 562.175, 1082.576 535.850, 1085.507 526.500 C 1088.438 517.150, 1099.019 483.400, 1109.021 451.500 C 1119.022 419.600, 1127.571 392.284, 1128.019 390.797 C 1128.799 388.207, 1128.616 388.030, 1123.667 386.595 C 1088.822 376.492, 1049.260 369.669, 1007 366.476 C 986.527 364.929, 946.619 364.729, 927 366.075 M 658.489 450.375 C 609.147 480.131, 561.991 519.170, 523.055 562.500 C 433.068 662.641, 380.455 787.855, 371.896 922.244 C 370.449 944.965, 371.307 998.079, 373.436 1017.500 C 377.604 1055.534, 383.997 1089.183, 393.100 1121 C 396.999 1134.628, 406.052 1162.281, 406.936 1163.261 C 407.314 1163.680, 408.794 1160.755, 410.226 1156.761 C 416.555 1139.105, 422.313 1123.325, 446.445 1057.500 C 460.559 1019, 475.651 977.825, 479.981 966 C 489.999 938.646, 505.886 895.289, 524.319 845 C 539.787 802.801, 555.012 761.201, 572.995 712 C 583.671 682.792, 597.591 644.789, 620.979 581 C 658.797 477.852, 671.140 443.807, 670.830 443.496 C 670.637 443.303, 665.083 446.399, 658.489 450.375 M 1260.281 445.750 C 1260.564 446.712, 1272.792 480.350, 1287.454 520.500 C 1302.116 560.650, 1315.163 596.425, 1316.448 600 C 1317.732 603.575, 1328.464 633.050, 1340.296 665.500 C 1352.128 697.950, 1366.141 736.425, 1371.437 751 C 1376.732 765.575, 1381.927 779.750, 1382.981 782.500 C 1384.036 785.250, 1388.724 798.075, 1393.401 811 C 1398.077 823.925, 1408.631 852.950, 1416.853 875.500 C 1431.423 915.455, 1487.678 1069.868, 1509.936 1131 C 1516.044 1147.775, 1521.288 1162.175, 1521.588 1163 C 1522.328 1165.030, 1523.424 1163.013, 1526.638 1153.705 C 1541.286 1111.287, 1551.178 1066.741, 1556.218 1020.500 C 1559.178 993.348, 1559.437 927.703, 1556.686 902 C 1545.810 800.385, 1514.151 712.074, 1458.881 629.177 C 1421.203 572.666, 1369.758 519.114, 1314.500 478.881 C 1297.448 466.465, 1262.660 444, 1260.485 444 C 1260.090 444, 1259.998 444.788, 1260.281 445.750 M 1489.500 1223.543 C 1484.550 1225.873, 1461.375 1236.771, 1438 1247.761 C 1372.415 1278.594, 1366.400 1281.476, 1337 1296.162 C 1298.276 1315.507, 1279.352 1328.655, 1254.485 1353.497 C 1226.982 1380.971, 1209.408 1406.520, 1194.599 1440.557 C 1184.017 1464.879, 1165.808 1516.141, 1167.242 1517.575 C 1168.470 1518.803, 1206.829 1502.582, 1229.500 1491.248 C 1338.493 1436.761, 1427.559 1350.969, 1486.705 1243.500 C 1494.043 1230.167, 1499.243 1219.885, 1498.815 1219.552 C 1498.642 1219.416, 1494.450 1221.212, 1489.500 1223.543 M 437.798 1233.250 C 449.922 1256.289, 462.725 1277.475, 476.322 1297 C 533.788 1379.515, 610.787 1446.320, 699.823 1490.909 C 720.603 1501.316, 761.627 1518.706, 762.750 1517.584 C 763.311 1517.022, 750.684 1479.880, 744.194 1463 C 724.856 1412.704, 709.315 1388.267, 674.530 1353.458 C 652.378 1331.291, 634.359 1317.687, 609.863 1304.638 C 599.533 1299.134, 548.883 1274.628, 515 1258.739 C 511.425 1257.063, 491.417 1247.661, 470.537 1237.845 C 449.658 1228.030, 432.181 1220, 431.700 1220 C 431.219 1220, 433.963 1225.963, 437.798 1233.250" stroke="none" fill="#ffffff" fill-rule="evenodd"/><path d="M 938 6.610 C 922.543 6.984, 896.931 8.586, 874.500 10.583 C 780.367 18.962, 682.205 43.652, 593.500 81.259 C 551.675 98.992, 506.704 121.961, 470 144.337 C 334.643 226.858, 221.887 341.037, 141.979 476.500 C 132.321 492.872, 113.354 528.009, 107.972 539.500 C 105.911 543.900, 101.883 552.450, 99.020 558.500 C 73.976 611.431, 51.420 675.582, 37.487 733.500 C 31.430 758.683, 31.142 759.989, 28.028 776.500 C 26.368 785.300, 24.573 794.750, 24.040 797.500 C 22.917 803.298, 19.581 825.659, 18 838 C 7.760 917.884, 7.760 1004.116, 18 1084 C 19.581 1096.341, 22.917 1118.702, 24.040 1124.500 C 24.573 1127.250, 26.368 1136.700, 28.028 1145.500 C 31.174 1162.178, 31.832 1165.158, 37.636 1189 C 75.274 1343.617, 152.740 1488.020, 261.676 1606.626 C 318.149 1668.112, 383.722 1722.979, 453.945 1767.503 C 481.629 1785.056, 505.171 1798.424, 534.128 1813.037 C 622.752 1857.760, 715.154 1887.784, 812.218 1903.396 C 825.856 1905.589, 835.274 1906.857, 861 1909.962 C 869.156 1910.947, 887.843 1912.596, 906 1913.935 C 920.683 1915.017, 1008.993 1915.019, 1023.500 1913.938 C 1041.913 1912.566, 1060.073 1910.967, 1068.500 1909.977 C 1085.875 1907.936, 1108.806 1904.927, 1114.500 1903.940 C 1117.800 1903.368, 1122.975 1902.495, 1126 1902 C 1136.854 1900.224, 1142.697 1899.128, 1155.500 1896.468 C 1162.650 1894.983, 1170.300 1893.404, 1172.500 1892.961 C 1202.814 1886.846, 1258.057 1870.584, 1294.500 1857.048 C 1380.268 1825.191, 1453.712 1785.679, 1529.500 1730.624 C 1567.078 1703.325, 1602.475 1672.731, 1640.030 1635.092 C 1669.146 1605.910, 1685.884 1587.452, 1707.671 1560.500 C 1783.489 1466.709, 1840.446 1360.182, 1876.361 1245 C 1897.431 1177.424, 1910.451 1109.581, 1916.565 1035.500 C 1918.673 1009.952, 1919.538 942.463, 1918.122 914 C 1916.522 881.834, 1913.468 848.945, 1909.951 826 C 1903.675 785.050, 1898.797 760.202, 1890.516 727 C 1869.477 642.644, 1835.148 558.481, 1790.176 481 C 1773.385 452.071, 1748.473 414.526, 1728.136 387.500 C 1700.531 350.816, 1677.045 323.981, 1640.539 287.414 C 1590.069 236.859, 1548.284 202.405, 1492.276 165.165 C 1445.559 134.102, 1388.814 103.494, 1340 83.028 C 1329.275 78.531, 1319.600 74.444, 1318.500 73.945 C 1307.096 68.768, 1254.841 50.812, 1233 44.563 C 1226.125 42.597, 1219.150 40.571, 1217.500 40.061 C 1211.277 38.140, 1178.010 30.089, 1166 27.598 C 1159.125 26.172, 1151.475 24.549, 1149 23.991 C 1143.202 22.683, 1110.601 17.190, 1101.500 15.988 C 1097.650 15.479, 1090.900 14.585, 1086.500 14.001 C 1046.194 8.647, 983.296 5.516, 938 6.610 M 908.294 38.050 C 672.377 52.571, 449.671 157.506, 289.741 329.500 C 272.850 347.665, 271.787 348.857, 258.941 364 C 174.224 463.871, 110.701 583.093, 75.122 709 C 43.514 820.851, 33.476 936.031, 45.052 1054 C 66.034 1267.811, 163.392 1470.323, 317.636 1621 C 331.792 1634.829, 343.435 1645.517, 365.500 1664.936 C 367.150 1666.388, 375.475 1673.225, 384 1680.129 C 520.005 1790.273, 684.555 1859.320, 859 1879.443 C 901.765 1884.377, 973.090 1886.506, 1014.650 1884.090 C 1102.560 1878.980, 1182.750 1863.484, 1263.268 1836.048 C 1516.243 1749.849, 1721.264 1556.128, 1821.469 1308.611 C 1858.726 1216.583, 1878.595 1130.874, 1887.215 1025 C 1889.239 1000.141, 1888.907 916.615, 1886.678 890 C 1877.997 786.335, 1854.942 691.519, 1816.283 600.500 C 1730.345 398.164, 1574.734 232.315, 1379 134.448 C 1271.112 80.504, 1165.404 50.863, 1040 39.393 C 1019.575 37.524, 931.431 36.625, 908.294 38.050 M 912.500 72.040 C 839.347 76.908, 773.265 88.634, 708 108.329 C 509.252 168.304, 338.694 294.992, 223.106 468.500 C 146.890 582.906, 98.445 713.169, 81.598 849 C 76.138 893.015, 75.500 904.740, 75.500 961 C 75.500 1015.996, 76.121 1028.043, 81.065 1069 C 94.757 1182.435, 130.467 1292.354, 186.489 1393.505 C 271.675 1547.316, 405.070 1675.726, 561.892 1754.880 C 670.698 1809.798, 779.751 1839.949, 903 1849.188 C 926.315 1850.936, 1003.876 1850.935, 1026.500 1849.186 C 1122.725 1841.749, 1205.637 1823.008, 1290.500 1789.512 C 1351.766 1765.330, 1402.672 1738.808, 1457.500 1702.508 C 1507.062 1669.694, 1547.907 1636.081, 1593.586 1590.519 C 1620.873 1563.302, 1640.768 1541.216, 1661.820 1514.771 C 1760.078 1391.340, 1823.803 1243.720, 1845.951 1088.229 C 1852.525 1042.076, 1854.404 1014.173, 1854.453 962 C 1854.504 908.344, 1852.311 876.287, 1845.391 829.500 C 1824.070 685.349, 1766.412 546.494, 1679.618 430.282 C 1652.797 394.369, 1631.314 369.406, 1599.027 336.635 C 1519.345 255.759, 1430.370 193.772, 1328.841 148.403 C 1235.074 106.503, 1141.225 82.435, 1036.500 73.432 C 1014.541 71.544, 933.607 70.636, 912.500 72.040 M 931 101.048 C 810.541 105.325, 689.165 136.385, 580.500 190.742 C 476.889 242.570, 382.800 316.470, 308.298 404.536 C 235.691 490.362, 181.540 587.155, 146.638 693.500 C 114.815 790.460, 100.088 898.365, 105.011 998.500 C 109.146 1082.618, 122.674 1155.742, 148.485 1233.500 C 197.153 1380.116, 286.043 1512.364, 404 1613.648 C 473.345 1673.192, 551.987 1721.649, 635.276 1756.156 C 778.275 1815.401, 934.826 1834.799, 1089.728 1812.467 C 1268.767 1786.655, 1436.211 1703.588, 1566.379 1576.004 C 1713.815 1431.496, 1803.498 1242.715, 1821.965 1038 C 1826.338 989.518, 1826.136 929.105, 1821.432 879 C 1806.330 718.114, 1746.398 565.967, 1647.128 436.500 C 1598.807 373.481, 1535.974 312.149, 1472.422 265.969 C 1330.777 163.043, 1169.152 107.248, 994.500 100.985 C 966.081 99.966, 961.337 99.971, 931 101.048 M 945.250 144.732 L 941 145.115 941 211.307 L 941 277.500 964.500 277.500 L 988 277.500 988 211.392 L 988 145.285 981.853 144.642 C 975.576 143.986, 952.914 144.042, 945.250 144.732 M 1100.500 156.410 C 1091.149 158.232, 1081.143 162.134, 1074.479 166.558 C 1062.135 174.751, 1050.727 191.031, 1046.421 206.598 C 1043.975 215.439, 1043.451 232.998, 1045.386 241.243 C 1050.109 261.371, 1065.502 278.757, 1088 289.376 C 1114.220 301.752, 1149.092 306.774, 1169.455 301.107 C 1186.665 296.318, 1201.085 285.465, 1206.967 272.874 C 1212.321 261.412, 1213.561 262.653, 1189.500 255.403 C 1177.950 251.923, 1168.197 249.058, 1167.828 249.038 C 1167.458 249.017, 1166.648 250.537, 1166.028 252.416 C 1164.331 257.556, 1157.602 264.558, 1151.480 267.554 C 1141.281 272.543, 1124.396 271.814, 1112.765 265.880 C 1102.755 260.774, 1094.758 248.691, 1093.505 236.781 C 1092.183 224.214, 1097.322 208.850, 1105.925 199.650 C 1114.923 190.028, 1127.527 186.409, 1142.064 189.273 C 1160.029 192.813, 1171.092 201.664, 1173.792 214.660 L 1174.559 218.352 1195.348 224.774 C 1206.782 228.307, 1216.443 230.887, 1216.818 230.508 C 1217.825 229.490, 1217.283 216.698, 1215.957 210.170 C 1211.661 189.026, 1194.611 173.810, 1163.660 163.500 C 1141.793 156.215, 1116.230 153.346, 1100.500 156.410 M 788.201 163.990 C 774.286 167.166, 762.684 169.983, 762.418 170.249 C 762.151 170.516, 757.869 192.281, 752.902 218.617 C 747.935 244.953, 741.696 277.975, 739.039 292 C 736.381 306.025, 734.300 317.602, 734.414 317.727 C 734.527 317.852, 740.668 315.748, 748.060 313.053 C 755.452 310.357, 766.450 306.706, 772.500 304.940 C 778.550 303.174, 783.977 301.355, 784.560 300.899 C 785.143 300.443, 786.206 294.542, 786.921 287.785 C 789.534 263.125, 796.792 201.875, 797.141 201.547 C 797.338 201.361, 807.850 218.085, 820.500 238.713 C 833.150 259.340, 845.139 278.810, 847.142 281.978 L 850.785 287.740 863.642 285.488 C 870.714 284.250, 882.693 282.445, 890.262 281.478 L 904.024 279.720 901.673 276.610 C 900.380 274.900, 891.615 262.925, 882.195 250 C 867.133 229.333, 852.018 208.647, 823.429 169.572 C 819.032 163.562, 814.999 158.548, 814.467 158.429 C 813.935 158.311, 802.115 160.813, 788.201 163.990 M 612.178 226.507 C 587.923 230.901, 557.865 246.688, 541 263.889 C 531.815 273.258, 527.209 280.195, 523.163 290.758 C 520.841 296.820, 520.577 298.911, 520.541 311.500 C 520.505 323.669, 520.810 326.415, 522.874 332.500 C 532.372 360.507, 551.395 377.559, 577.216 381.211 C 597.745 384.114, 626.418 375.109, 653.600 357.222 C 685.578 336.179, 698.422 304.069, 687.438 272.630 C 680.478 252.708, 663.970 235.407, 645.843 229.036 C 634.448 225.031, 624.465 224.281, 612.178 226.507 M 1299.202 230.958 C 1279.982 236.161, 1264.330 249.773, 1254.883 269.500 C 1249.771 280.174, 1247.918 287.731, 1247.843 298.210 C 1247.769 308.698, 1249.152 315.095, 1253.602 324.840 C 1262.391 344.090, 1278.683 359.523, 1304.706 373.251 C 1327.853 385.462, 1350.378 389.848, 1367.540 385.485 C 1375.265 383.521, 1386.543 377.903, 1391.069 373.764 C 1394.695 370.449, 1401 362.315, 1401 360.954 C 1401 360.235, 1367.295 338.434, 1364.563 337.386 C 1363.822 337.101, 1361.036 339.059, 1358.327 341.769 C 1352.339 347.756, 1346.383 350, 1336.478 350 C 1324.318 350, 1313.091 345.019, 1304.301 335.725 C 1297.404 328.432, 1295.500 322.963, 1295.500 310.446 C 1295.500 300.764, 1295.645 300.097, 1299.425 292.446 C 1311.510 267.983, 1334.227 260.573, 1357.516 273.498 C 1371.403 281.204, 1378.318 290.835, 1378.586 302.842 L 1378.729 309.258 1394.615 319.424 C 1403.352 325.015, 1411.714 330.393, 1413.198 331.376 L 1415.897 333.162 1417.698 327.331 C 1419.045 322.974, 1419.500 318.195, 1419.500 308.425 L 1419.500 295.349 1415.300 286.925 C 1410.088 276.470, 1401.943 267.334, 1389.699 258.207 C 1373.267 245.957, 1356.590 237.227, 1340.500 232.453 C 1328.009 228.746, 1309.806 228.088, 1299.202 230.958 M 595.500 263.345 C 578.219 269.089, 566.929 281.559, 565.403 296.586 C 563.714 313.229, 575.022 333.862, 590.046 341.550 C 601.375 347.348, 617.109 345.681, 629.652 337.355 C 640.561 330.114, 645.129 322.446, 645.798 310.250 C 646.166 303.542, 645.826 300.677, 643.975 294.922 C 639.820 281.999, 629.988 270.074, 619.280 264.970 C 613.419 262.177, 601.472 261.360, 595.500 263.345 M 932 322.705 C 822.643 328.079, 710.771 364.498, 618.500 424.760 C 466.103 524.290, 363.957 681.266, 335.611 859.500 C 325.679 921.949, 325.326 989.159, 334.599 1052.215 C 351.719 1168.645, 399.680 1275.379, 476.496 1368 C 491.879 1386.548, 534.326 1429.308, 552.596 1444.661 C 616.543 1498.401, 688.035 1538.785, 763.196 1563.626 C 774.652 1567.411, 778.023 1568.926, 778.482 1570.491 C 781.463 1580.666, 795.981 1639.725, 800.362 1659.500 C 804.821 1679.628, 815 1729.745, 815 1731.570 C 815 1731.807, 882.388 1731.996, 964.750 1731.991 L 1114.500 1731.981 1119.408 1706.741 C 1127.041 1667.490, 1142.409 1601.274, 1150.768 1571.618 C 1151.535 1568.897, 1152.749 1568.336, 1172.540 1561.546 C 1244.555 1536.842, 1312.307 1498.710, 1371.500 1449.567 C 1388.547 1435.414, 1390.821 1433.292, 1417.044 1407.056 C 1453.222 1370.859, 1479.143 1338.481, 1505.227 1296.907 C 1553.649 1219.731, 1585.732 1130.346, 1596.899 1041.500 C 1601.088 1008.176, 1601.492 1001.019, 1601.496 960 C 1601.500 918.671, 1600.831 906.536, 1596.890 876.500 C 1574.659 707.041, 1485.381 554.225, 1347.861 450.239 C 1315.965 426.121, 1283.557 406.252, 1245.500 387.482 C 1222.885 376.328, 1185.402 360.264, 1184.379 361.288 C 1184.154 361.513, 1201.334 409.353, 1222.558 467.598 C 1243.782 525.844, 1277.133 617.375, 1296.672 671 C 1316.211 724.625, 1338.184 784.925, 1345.500 805 C 1352.817 825.075, 1373.070 880.650, 1390.506 928.500 C 1407.943 976.350, 1429.178 1034.625, 1437.697 1058 C 1446.215 1081.375, 1459.410 1117.600, 1467.018 1138.500 C 1474.627 1159.400, 1481.132 1177.217, 1481.473 1178.094 C 1481.973 1179.378, 1474.067 1183.442, 1440.797 1199.007 C 1301.644 1264.107, 1281.275 1274.782, 1252 1297.951 C 1237.981 1309.046, 1206.660 1340.725, 1195.590 1355.006 C 1166.841 1392.091, 1148.565 1431.289, 1125.128 1506.131 C 1110.937 1551.447, 1088.605 1639.483, 1080.517 1682 C 1080.150 1683.925, 1079.629 1686.287, 1079.358 1687.250 C 1078.892 1688.904, 1072.573 1689, 964.678 1689 L 850.492 1689 847.672 1675.250 C 846.121 1667.688, 841.741 1648, 837.940 1631.500 C 814.217 1528.524, 786.452 1443.283, 761.232 1396 C 740.655 1357.423, 701.867 1314.604, 661.986 1286.440 C 641.278 1271.817, 623.625 1262.561, 551.500 1228.510 C 504.320 1206.235, 486.641 1197.939, 461.500 1186.274 C 454.900 1183.212, 449.088 1180.338, 448.584 1179.887 C 448.044 1179.404, 449.147 1175.054, 451.273 1169.284 C 453.256 1163.903, 468.210 1123.050, 484.504 1078.500 C 500.798 1033.950, 520.816 979.275, 528.988 957 C 537.160 934.725, 549.765 900.300, 556.999 880.500 C 564.233 860.700, 571.652 840.450, 573.485 835.500 C 576.871 826.360, 590.544 788.990, 637.152 661.500 C 651.428 622.450, 664.207 587.575, 665.549 584 C 667.973 577.546, 681.051 541.850, 724.075 424.250 C 736.400 390.563, 746.719 363, 747.006 363 C 747.294 363, 751.233 374.813, 755.759 389.250 C 782.120 473.331, 830.478 627.090, 841.699 662.500 C 846.927 679, 852.657 697.225, 854.431 703 L 857.657 713.500 964.829 713.755 C 1023.773 713.894, 1072 713.782, 1072 713.504 C 1072 713.225, 1075.633 701.411, 1080.073 687.249 C 1084.513 673.087, 1093.998 642.825, 1101.152 620 C 1108.305 597.175, 1118.885 563.425, 1124.663 545 C 1130.441 526.575, 1141.010 492.825, 1148.150 470 C 1163.202 421.876, 1175.979 381.237, 1179.980 368.759 L 1182.783 360.019 1164.580 354.079 C 1110.699 336.498, 1059.278 326.703, 1001.517 323.019 C 986.966 322.091, 948.064 321.915, 932 322.705 M 422.470 352.339 C 403.334 369.760, 384.134 388.421, 371.888 401.500 C 358.183 416.136, 337 439.963, 337 440.741 C 337 441.922, 429.373 534.006, 430.504 533.953 C 431.720 533.895, 460.382 500.469, 460.793 498.629 C 460.954 497.908, 445.483 481.985, 426.413 463.245 L 391.741 429.172 393.892 426.152 C 395.074 424.491, 403.549 415.896, 412.725 407.051 L 429.407 390.971 464.014 425.485 C 483.048 444.468, 498.933 460, 499.315 460 C 500.315 460, 535 429.795, 535 428.924 C 535 428.129, 442.429 336.664, 441.195 336.240 C 440.779 336.097, 432.353 343.341, 422.470 352.339 M 1479.402 349.486 C 1466.339 352.328, 1454.183 361.754, 1448.436 373.500 C 1445.815 378.856, 1445.500 380.520, 1445.500 389 C 1445.500 397.245, 1445.859 399.266, 1448.215 404.295 C 1450.125 408.370, 1450.570 410.211, 1449.715 410.498 C 1449.047 410.722, 1434.812 413.403, 1418.081 416.455 C 1401.351 419.507, 1387.510 422.157, 1387.324 422.343 C 1387.138 422.529, 1395.426 429.925, 1405.743 438.779 C 1416.059 447.634, 1426.044 456.273, 1427.931 457.979 C 1430.515 460.314, 1431.996 460.945, 1433.931 460.535 C 1438.691 459.527, 1519.327 445, 1519.917 445.044 C 1520.237 445.069, 1508.575 456.751, 1494 471.006 C 1473.228 491.321, 1467.716 497.235, 1468.500 498.365 C 1469.050 499.158, 1474.903 506.038, 1481.506 513.654 C 1488.109 521.269, 1494.732 529.073, 1496.223 530.996 L 1498.935 534.491 1516.718 516.957 C 1526.498 507.313, 1547.868 486.329, 1564.207 470.326 L 1593.914 441.229 1584.787 431.364 C 1579.767 425.939, 1569.998 415.439, 1563.080 408.030 C 1556.161 400.622, 1546.928 390.722, 1542.562 386.030 C 1523.678 365.736, 1514.378 357.295, 1506.813 353.585 C 1500.205 350.343, 1491.356 347.870, 1487.114 348.079 C 1486.226 348.123, 1482.756 348.756, 1479.402 349.486 M 927 366.075 C 903.830 367.665, 869.863 372.066, 850.058 376.044 C 831.472 379.778, 801.763 387.454, 801.308 388.639 C 801.055 389.300, 804.292 400.789, 808.503 414.170 C 812.713 427.552, 820.198 451.325, 825.136 467 C 830.073 482.675, 836.369 502.700, 839.127 511.500 C 841.884 520.300, 845.875 532.900, 847.994 539.500 C 850.114 546.100, 855.075 561.850, 859.020 574.500 C 862.964 587.150, 869.115 606.725, 872.687 618 C 876.259 629.275, 881.464 645.815, 884.252 654.756 L 889.322 671.012 964.867 670.756 L 1040.412 670.500 1041.599 666.500 C 1042.251 664.300, 1045.350 654.400, 1048.486 644.500 C 1051.621 634.600, 1060.034 607.825, 1067.182 585 C 1074.329 562.175, 1082.576 535.850, 1085.507 526.500 C 1088.438 517.150, 1099.019 483.400, 1109.021 451.500 C 1119.022 419.600, 1127.571 392.284, 1128.019 390.797 C 1128.799 388.207, 1128.616 388.030, 1123.667 386.595 C 1088.822 376.492, 1049.260 369.669, 1007 366.476 C 986.527 364.929, 946.619 364.729, 927 366.075 M 1496.395 393.155 C 1492.435 394.210, 1488.308 398.322, 1487.495 402.024 C 1486.328 407.338, 1489.974 412.718, 1505.781 429 L 1520.829 444.500 1529.420 436.017 C 1534.145 431.351, 1537.896 427.227, 1537.756 426.853 C 1537.475 426.107, 1511.841 399.879, 1507.822 396.226 C 1504.575 393.275, 1500.280 392.120, 1496.395 393.155 M 658.489 450.375 C 609.147 480.131, 561.991 519.170, 523.055 562.500 C 433.068 662.641, 380.455 787.855, 371.896 922.244 C 370.449 944.965, 371.307 998.079, 373.436 1017.500 C 377.604 1055.534, 383.997 1089.183, 393.100 1121 C 396.999 1134.628, 406.052 1162.281, 406.936 1163.261 C 407.314 1163.680, 408.794 1160.755, 410.226 1156.761 C 416.555 1139.105, 422.313 1123.325, 446.445 1057.500 C 460.559 1019, 475.651 977.825, 479.981 966 C 489.999 938.646, 505.886 895.289, 524.319 845 C 539.787 802.801, 555.012 761.201, 572.995 712 C 583.671 682.792, 597.591 644.789, 620.979 581 C 658.797 477.852, 671.140 443.807, 670.830 443.496 C 670.637 443.303, 665.083 446.399, 658.489 450.375 M 1260.281 445.750 C 1260.564 446.712, 1272.792 480.350, 1287.454 520.500 C 1302.116 560.650, 1315.163 596.425, 1316.448 600 C 1317.732 603.575, 1328.464 633.050, 1340.296 665.500 C 1352.128 697.950, 1366.141 736.425, 1371.437 751 C 1376.732 765.575, 1381.927 779.750, 1382.981 782.500 C 1384.036 785.250, 1388.724 798.075, 1393.401 811 C 1398.077 823.925, 1408.631 852.950, 1416.853 875.500 C 1431.423 915.455, 1487.678 1069.868, 1509.936 1131 C 1516.044 1147.775, 1521.288 1162.175, 1521.588 1163 C 1522.328 1165.030, 1523.424 1163.013, 1526.638 1153.705 C 1541.286 1111.287, 1551.178 1066.741, 1556.218 1020.500 C 1559.178 993.348, 1559.437 927.703, 1556.686 902 C 1545.810 800.385, 1514.151 712.074, 1458.881 629.177 C 1421.203 572.666, 1369.758 519.114, 1314.500 478.881 C 1297.448 466.465, 1262.660 444, 1260.485 444 C 1260.090 444, 1259.998 444.788, 1260.281 445.750 M 743.663 605 C 743.350 605.825, 737.188 625.400, 729.970 648.500 C 715.563 694.608, 701.401 739.825, 685.495 790.500 C 679.798 808.650, 666.750 850.275, 656.499 883 C 640.077 935.427, 608.534 1036.086, 589.330 1097.348 C 585.702 1108.922, 583.176 1118.576, 583.652 1119.052 C 584.123 1119.523, 597.332 1126.012, 613.004 1133.471 C 628.677 1140.930, 645.550 1149.115, 650.500 1151.659 C 679.151 1166.387, 712.888 1191.860, 741 1219.993 C 787.818 1266.845, 818.380 1318.956, 838.358 1386 C 843.557 1403.446, 846.528 1413.591, 867.124 1484.228 C 871.731 1500.029, 875.628 1512.383, 875.784 1511.681 C 875.941 1510.980, 866.812 1447.652, 855.498 1370.953 C 834.327 1227.435, 832.854 1218.980, 825.140 1196.758 C 810.707 1155.174, 789.042 1118.772, 760.163 1087.577 C 754.299 1081.241, 733.944 1059.957, 714.930 1040.279 C 671.569 995.401, 664.103 987.563, 664.417 987.250 C 664.555 987.112, 677.005 992.895, 692.084 1000.101 C 707.163 1007.307, 723.100 1014.908, 727.500 1016.991 C 731.900 1019.074, 752.102 1028.714, 772.393 1038.413 C 792.684 1048.112, 809.432 1055.902, 809.610 1055.723 C 809.788 1055.545, 808.129 1043.047, 805.924 1027.950 C 803.718 1012.852, 798.572 977.325, 794.488 949 C 790.404 920.675, 781.891 861.725, 775.572 818 C 769.253 774.275, 759.772 708.575, 754.503 672 C 749.235 635.425, 744.769 605.050, 744.579 604.500 C 744.389 603.950, 743.976 604.175, 743.663 605 M 238.389 922.488 C 226.010 925.181, 218.261 931.574, 216.012 940.950 C 213.110 953.046, 218.005 963.347, 229 968.284 C 235.155 971.048, 255.445 971.806, 265.489 969.647 C 269.333 968.820, 272.640 968.307, 272.838 968.505 C 273.770 969.436, 270.652 975.959, 268.113 978.392 C 263.419 982.889, 257.619 984, 238.841 984 L 222 984 222 992.500 L 222 1001 240.451 1001 C 260.777 1001, 266.759 1000.127, 275.087 995.943 C 285.253 990.835, 290.327 982.815, 292.041 969.145 C 294.075 952.927, 290.201 936.712, 282.806 930.491 C 272.661 921.954, 255.258 918.819, 238.389 922.488 M 1741.270 922.054 C 1726.039 925.060, 1717.980 933.608, 1718.022 946.710 C 1718.058 957.942, 1722.095 964.028, 1732.500 968.537 C 1738.343 971.068, 1757.258 971.656, 1766.932 969.606 C 1771.020 968.740, 1774.562 968.228, 1774.803 968.469 C 1776.006 969.672, 1773.414 974.867, 1769.982 978.132 C 1764.849 983.015, 1759.809 984, 1739.951 984 L 1724 984 1724 992.500 L 1724 1001 1741.750 1000.983 C 1767.937 1000.957, 1778.357 998.081, 1786.729 988.570 C 1792.694 981.794, 1794.502 975.140, 1794.492 960 C 1794.482 944.956, 1792.764 938.869, 1786.658 932.244 C 1779.309 924.272, 1769.905 920.968, 1755 921.121 C 1749.775 921.175, 1743.596 921.595, 1741.270 922.054 M 166.500 923.509 C 165.950 923.701, 160.662 924.850, 154.750 926.060 L 144 928.261 144 937.130 C 144 942.009, 144.400 946, 144.890 946 C 145.379 946, 150.154 945.100, 155.500 944 C 160.846 942.900, 165.846 942, 166.610 942 C 167.753 942, 168 945.739, 168 963 L 168 984 156 984 L 144 984 144 992.500 L 144 1001 175.500 1001 L 207 1001 207 992.500 L 207 984 198 984 L 189 984 189 953.500 L 189 923 178.250 923.079 C 172.338 923.122, 167.050 923.316, 166.500 923.509 M 1640.565 924.250 C 1639.949 926.319, 1636.023 968.356, 1636.410 968.743 C 1636.607 968.940, 1642.108 968.343, 1648.634 967.416 C 1655.160 966.490, 1665.598 965.679, 1671.829 965.616 C 1683.062 965.501, 1683.178 965.524, 1685.579 968.306 C 1689.675 973.053, 1688.496 978.590, 1682.720 981.730 C 1680.016 983.200, 1676.174 983.536, 1658.750 983.828 L 1638 984.175 1638 992.587 L 1638 1001 1657.542 1001 C 1671.487 1001, 1679.283 1000.546, 1684.760 999.415 C 1700.905 996.080, 1708.126 988.216, 1708.160 973.929 C 1708.200 957.699, 1699.386 950.111, 1679.500 949.256 C 1671.352 948.906, 1668.304 949.206, 1663.043 950.873 C 1659.492 951.998, 1656.438 952.771, 1656.257 952.590 C 1656.076 952.409, 1656.282 949.390, 1656.715 945.881 L 1657.501 939.500 1680.251 939.231 L 1703 938.962 1703 930.981 L 1703 923 1671.969 923 C 1648.009 923, 1640.852 923.285, 1640.565 924.250 M 244.905 937.953 C 239.108 939.009, 236.360 940.717, 234.939 944.148 C 233.401 947.859, 235.468 951.983, 240.001 954.248 C 244.054 956.274, 259.981 956.716, 264.685 954.933 C 273.558 951.571, 274.574 942.809, 266.482 939.428 C 262.208 937.642, 250.864 936.867, 244.905 937.953 M 1747.500 937.427 C 1746.950 937.646, 1745.366 938.072, 1743.980 938.374 C 1737.335 939.821, 1734.695 947.486, 1739.340 951.850 C 1742.497 954.816, 1747.117 956.001, 1755.493 955.994 C 1768.050 955.984, 1774.029 952.992, 1773.968 946.750 C 1773.904 940.170, 1769.786 937.818, 1757.534 937.364 C 1752.565 937.179, 1748.050 937.208, 1747.500 937.427 M 1489.500 1223.543 C 1484.550 1225.873, 1461.375 1236.771, 1438 1247.761 C 1372.415 1278.594, 1366.400 1281.476, 1337 1296.162 C 1298.276 1315.507, 1279.352 1328.655, 1254.485 1353.497 C 1226.982 1380.971, 1209.408 1406.520, 1194.599 1440.557 C 1184.017 1464.879, 1165.808 1516.141, 1167.242 1517.575 C 1168.470 1518.803, 1206.829 1502.582, 1229.500 1491.248 C 1338.493 1436.761, 1427.559 1350.969, 1486.705 1243.500 C 1494.043 1230.167, 1499.243 1219.885, 1498.815 1219.552 C 1498.642 1219.416, 1494.450 1221.212, 1489.500 1223.543 M 437.798 1233.250 C 449.922 1256.289, 462.725 1277.475, 476.322 1297 C 533.788 1379.515, 610.787 1446.320, 699.823 1490.909 C 720.603 1501.316, 761.627 1518.706, 762.750 1517.584 C 763.311 1517.022, 750.684 1479.880, 744.194 1463 C 724.856 1412.704, 709.315 1388.267, 674.530 1353.458 C 652.378 1331.291, 634.359 1317.687, 609.863 1304.638 C 599.533 1299.134, 548.883 1274.628, 515 1258.739 C 511.425 1257.063, 491.417 1247.661, 470.537 1237.845 C 449.658 1228.030, 432.181 1220, 431.700 1220 C 431.219 1220, 433.963 1225.963, 437.798 1233.250" stroke="none" fill="#43c33b" fill-rule="evenodd"/><path d="M 908.294 38.050 C 672.377 52.571, 449.671 157.506, 289.741 329.500 C 272.850 347.665, 271.787 348.857, 258.941 364 C 174.224 463.871, 110.701 583.093, 75.122 709 C 43.514 820.851, 33.476 936.031, 45.052 1054 C 66.034 1267.811, 163.392 1470.323, 317.636 1621 C 331.792 1634.829, 343.435 1645.517, 365.500 1664.936 C 367.150 1666.388, 375.475 1673.225, 384 1680.129 C 520.005 1790.273, 684.555 1859.320, 859 1879.443 C 901.765 1884.377, 973.090 1886.506, 1014.650 1884.090 C 1102.560 1878.980, 1182.750 1863.484, 1263.268 1836.048 C 1516.243 1749.849, 1721.264 1556.128, 1821.469 1308.611 C 1858.726 1216.583, 1878.595 1130.874, 1887.215 1025 C 1889.239 1000.141, 1888.907 916.615, 1886.678 890 C 1877.997 786.335, 1854.942 691.519, 1816.283 600.500 C 1730.345 398.164, 1574.734 232.315, 1379 134.448 C 1271.112 80.504, 1165.404 50.863, 1040 39.393 C 1019.575 37.524, 931.431 36.625, 908.294 38.050 M 912.500 72.040 C 839.347 76.908, 773.265 88.634, 708 108.329 C 509.252 168.304, 338.694 294.992, 223.106 468.500 C 146.890 582.906, 98.445 713.169, 81.598 849 C 76.138 893.015, 75.500 904.740, 75.500 961 C 75.500 1015.996, 76.121 1028.043, 81.065 1069 C 94.757 1182.435, 130.467 1292.354, 186.489 1393.505 C 271.675 1547.316, 405.070 1675.726, 561.892 1754.880 C 670.698 1809.798, 779.751 1839.949, 903 1849.188 C 926.315 1850.936, 1003.876 1850.935, 1026.500 1849.186 C 1122.725 1841.749, 1205.637 1823.008, 1290.500 1789.512 C 1351.766 1765.330, 1402.672 1738.808, 1457.500 1702.508 C 1507.062 1669.694, 1547.907 1636.081, 1593.586 1590.519 C 1620.873 1563.302, 1640.768 1541.216, 1661.820 1514.771 C 1760.078 1391.340, 1823.803 1243.720, 1845.951 1088.229 C 1852.525 1042.076, 1854.404 1014.173, 1854.453 962 C 1854.504 908.344, 1852.311 876.287, 1845.391 829.500 C 1824.070 685.349, 1766.412 546.494, 1679.618 430.282 C 1652.797 394.369, 1631.314 369.406, 1599.027 336.635 C 1519.345 255.759, 1430.370 193.772, 1328.841 148.403 C 1235.074 106.503, 1141.225 82.435, 1036.500 73.432 C 1014.541 71.544, 933.607 70.636, 912.500 72.040 M 931 101.048 C 810.541 105.325, 689.165 136.385, 580.500 190.742 C 476.889 242.570, 382.800 316.470, 308.298 404.536 C 235.691 490.362, 181.540 587.155, 146.638 693.500 C 114.815 790.460, 100.088 898.365, 105.011 998.500 C 109.146 1082.618, 122.674 1155.742, 148.485 1233.500 C 197.153 1380.116, 286.043 1512.364, 404 1613.648 C 473.345 1673.192, 551.987 1721.649, 635.276 1756.156 C 778.275 1815.401, 934.826 1834.799, 1089.728 1812.467 C 1268.767 1786.655, 1436.211 1703.588, 1566.379 1576.004 C 1713.815 1431.496, 1803.498 1242.715, 1821.965 1038 C 1826.338 989.518, 1826.136 929.105, 1821.432 879 C 1806.330 718.114, 1746.398 565.967, 1647.128 436.500 C 1598.807 373.481, 1535.974 312.149, 1472.422 265.969 C 1330.777 163.043, 1169.152 107.248, 994.500 100.985 C 966.081 99.966, 961.337 99.971, 931 101.048 M 945.250 144.732 L 941 145.115 941 211.307 L 941 277.500 964.500 277.500 L 988 277.500 988 211.392 L 988 145.285 981.853 144.642 C 975.576 143.986, 952.914 144.042, 945.250 144.732 M 1100.500 156.410 C 1091.149 158.232, 1081.143 162.134, 1074.479 166.558 C 1062.135 174.751, 1050.727 191.031, 1046.421 206.598 C 1043.975 215.439, 1043.451 232.998, 1045.386 241.243 C 1050.109 261.371, 1065.502 278.757, 1088 289.376 C 1114.220 301.752, 1149.092 306.774, 1169.455 301.107 C 1186.665 296.318, 1201.085 285.465, 1206.967 272.874 C 1212.321 261.412, 1213.561 262.653, 1189.500 255.403 C 1177.950 251.923, 1168.197 249.058, 1167.828 249.038 C 1167.458 249.017, 1166.648 250.537, 1166.028 252.416 C 1164.331 257.556, 1157.602 264.558, 1151.480 267.554 C 1141.281 272.543, 1124.396 271.814, 1112.765 265.880 C 1102.755 260.774, 1094.758 248.691, 1093.505 236.781 C 1092.183 224.214, 1097.322 208.850, 1105.925 199.650 C 1114.923 190.028, 1127.527 186.409, 1142.064 189.273 C 1160.029 192.813, 1171.092 201.664, 1173.792 214.660 L 1174.559 218.352 1195.348 224.774 C 1206.782 228.307, 1216.443 230.887, 1216.818 230.508 C 1217.825 229.490, 1217.283 216.698, 1215.957 210.170 C 1211.661 189.026, 1194.611 173.810, 1163.660 163.500 C 1141.793 156.215, 1116.230 153.346, 1100.500 156.410 M 788.201 163.990 C 774.286 167.166, 762.684 169.983, 762.418 170.249 C 762.151 170.516, 757.869 192.281, 752.902 218.617 C 747.935 244.953, 741.696 277.975, 739.039 292 C 736.381 306.025, 734.300 317.602, 734.414 317.727 C 734.527 317.852, 740.668 315.748, 748.060 313.053 C 755.452 310.357, 766.450 306.706, 772.500 304.940 C 778.550 303.174, 783.977 301.355, 784.560 300.899 C 785.143 300.443, 786.206 294.542, 786.921 287.785 C 789.534 263.125, 796.792 201.875, 797.141 201.547 C 797.338 201.361, 807.850 218.085, 820.500 238.713 C 833.150 259.340, 845.139 278.810, 847.142 281.978 L 850.785 287.740 863.642 285.488 C 870.714 284.250, 882.693 282.445, 890.262 281.478 L 904.024 279.720 901.673 276.610 C 900.380 274.900, 891.615 262.925, 882.195 250 C 867.133 229.333, 852.018 208.647, 823.429 169.572 C 819.032 163.562, 814.999 158.548, 814.467 158.429 C 813.935 158.311, 802.115 160.813, 788.201 163.990 M 612.178 226.507 C 587.923 230.901, 557.865 246.688, 541 263.889 C 531.815 273.258, 527.209 280.195, 523.163 290.758 C 520.841 296.820, 520.577 298.911, 520.541 311.500 C 520.505 323.669, 520.810 326.415, 522.874 332.500 C 532.372 360.507, 551.395 377.559, 577.216 381.211 C 597.745 384.114, 626.418 375.109, 653.600 357.222 C 685.578 336.179, 698.422 304.069, 687.438 272.630 C 680.478 252.708, 663.970 235.407, 645.843 229.036 C 634.448 225.031, 624.465 224.281, 612.178 226.507 M 1299.202 230.958 C 1279.982 236.161, 1264.330 249.773, 1254.883 269.500 C 1249.771 280.174, 1247.918 287.731, 1247.843 298.210 C 1247.769 308.698, 1249.152 315.095, 1253.602 324.840 C 1262.391 344.090, 1278.683 359.523, 1304.706 373.251 C 1327.853 385.462, 1350.378 389.848, 1367.540 385.485 C 1375.265 383.521, 1386.543 377.903, 1391.069 373.764 C 1394.695 370.449, 1401 362.315, 1401 360.954 C 1401 360.235, 1367.295 338.434, 1364.563 337.386 C 1363.822 337.101, 1361.036 339.059, 1358.327 341.769 C 1352.339 347.756, 1346.383 350, 1336.478 350 C 1324.318 350, 1313.091 345.019, 1304.301 335.725 C 1297.404 328.432, 1295.500 322.963, 1295.500 310.446 C 1295.500 300.764, 1295.645 300.097, 1299.425 292.446 C 1311.510 267.983, 1334.227 260.573, 1357.516 273.498 C 1371.403 281.204, 1378.318 290.835, 1378.586 302.842 L 1378.729 309.258 1394.615 319.424 C 1403.352 325.015, 1411.714 330.393, 1413.198 331.376 L 1415.897 333.162 1417.698 327.331 C 1419.045 322.974, 1419.500 318.195, 1419.500 308.425 L 1419.500 295.349 1415.300 286.925 C 1410.088 276.470, 1401.943 267.334, 1389.699 258.207 C 1373.267 245.957, 1356.590 237.227, 1340.500 232.453 C 1328.009 228.746, 1309.806 228.088, 1299.202 230.958 M 595.500 263.345 C 578.219 269.089, 566.929 281.559, 565.403 296.586 C 563.714 313.229, 575.022 333.862, 590.046 341.550 C 601.375 347.348, 617.109 345.681, 629.652 337.355 C 640.561 330.114, 645.129 322.446, 645.798 310.250 C 646.166 303.542, 645.826 300.677, 643.975 294.922 C 639.820 281.999, 629.988 270.074, 619.280 264.970 C 613.419 262.177, 601.472 261.360, 595.500 263.345 M 932 322.705 C 822.643 328.079, 710.771 364.498, 618.500 424.760 C 466.103 524.290, 363.957 681.266, 335.611 859.500 C 325.679 921.949, 325.326 989.159, 334.599 1052.215 C 351.719 1168.645, 399.680 1275.379, 476.496 1368 C 491.879 1386.548, 534.326 1429.308, 552.596 1444.661 C 616.543 1498.401, 688.035 1538.785, 763.196 1563.626 C 774.652 1567.411, 778.023 1568.926, 778.482 1570.491 C 781.463 1580.666, 795.981 1639.725, 800.362 1659.500 C 804.821 1679.628, 815 1729.745, 815 1731.570 C 815 1731.807, 882.388 1731.996, 964.750 1731.991 L 1114.500 1731.981 1119.408 1706.741 C 1127.041 1667.490, 1142.409 1601.274, 1150.768 1571.618 C 1151.535 1568.897, 1152.749 1568.336, 1172.540 1561.546 C 1244.555 1536.842, 1312.307 1498.710, 1371.500 1449.567 C 1388.547 1435.414, 1390.821 1433.292, 1417.044 1407.056 C 1453.222 1370.859, 1479.143 1338.481, 1505.227 1296.907 C 1553.649 1219.731, 1585.732 1130.346, 1596.899 1041.500 C 1601.088 1008.176, 1601.492 1001.019, 1601.496 960 C 1601.500 918.671, 1600.831 906.536, 1596.890 876.500 C 1574.659 707.041, 1485.381 554.225, 1347.861 450.239 C 1315.965 426.121, 1283.557 406.252, 1245.500 387.482 C 1222.885 376.328, 1185.402 360.264, 1184.379 361.288 C 1184.154 361.513, 1201.334 409.353, 1222.558 467.598 C 1243.782 525.844, 1277.133 617.375, 1296.672 671 C 1316.211 724.625, 1338.184 784.925, 1345.500 805 C 1352.817 825.075, 1373.070 880.650, 1390.506 928.500 C 1407.943 976.350, 1429.178 1034.625, 1437.697 1058 C 1446.215 1081.375, 1459.410 1117.600, 1467.018 1138.500 C 1474.627 1159.400, 1481.132 1177.217, 1481.473 1178.094 C 1481.973 1179.378, 1474.067 1183.442, 1440.797 1199.007 C 1301.644 1264.107, 1281.275 1274.782, 1252 1297.951 C 1237.981 1309.046, 1206.660 1340.725, 1195.590 1355.006 C 1166.841 1392.091, 1148.565 1431.289, 1125.128 1506.131 C 1110.937 1551.447, 1088.605 1639.483, 1080.517 1682 C 1080.150 1683.925, 1079.629 1686.287, 1079.358 1687.250 C 1078.892 1688.904, 1072.573 1689, 964.678 1689 L 850.492 1689 847.672 1675.250 C 846.121 1667.688, 841.741 1648, 837.940 1631.500 C 814.217 1528.524, 786.452 1443.283, 761.232 1396 C 740.655 1357.423, 701.867 1314.604, 661.986 1286.440 C 641.278 1271.817, 623.625 1262.561, 551.500 1228.510 C 504.320 1206.235, 486.641 1197.939, 461.500 1186.274 C 454.900 1183.212, 449.088 1180.338, 448.584 1179.887 C 448.044 1179.404, 449.147 1175.054, 451.273 1169.284 C 453.256 1163.903, 468.210 1123.050, 484.504 1078.500 C 500.798 1033.950, 520.816 979.275, 528.988 957 C 537.160 934.725, 549.765 900.300, 556.999 880.500 C 564.233 860.700, 571.652 840.450, 573.485 835.500 C 576.871 826.360, 590.544 788.990, 637.152 661.500 C 651.428 622.450, 664.207 587.575, 665.549 584 C 667.973 577.546, 681.051 541.850, 724.075 424.250 C 736.400 390.563, 746.719 363, 747.006 363 C 747.294 363, 751.233 374.813, 755.759 389.250 C 782.120 473.331, 830.478 627.090, 841.699 662.500 C 846.927 679, 852.657 697.225, 854.431 703 L 857.657 713.500 964.829 713.755 C 1023.773 713.894, 1072 713.782, 1072 713.504 C 1072 713.225, 1075.633 701.411, 1080.073 687.249 C 1084.513 673.087, 1093.998 642.825, 1101.152 620 C 1108.305 597.175, 1118.885 563.425, 1124.663 545 C 1130.441 526.575, 1141.010 492.825, 1148.150 470 C 1163.202 421.876, 1175.979 381.237, 1179.980 368.759 L 1182.783 360.019 1164.580 354.079 C 1110.699 336.498, 1059.278 326.703, 1001.517 323.019 C 986.966 322.091, 948.064 321.915, 932 322.705 M 422.470 352.339 C 403.334 369.760, 384.134 388.421, 371.888 401.500 C 358.183 416.136, 337 439.963, 337 440.741 C 337 441.922, 429.373 534.006, 430.504 533.953 C 431.720 533.895, 460.382 500.469, 460.793 498.629 C 460.954 497.908, 445.483 481.985, 426.413 463.245 L 391.741 429.172 393.892 426.152 C 395.074 424.491, 403.549 415.896, 412.725 407.051 L 429.407 390.971 464.014 425.485 C 483.048 444.468, 498.933 460, 499.315 460 C 500.315 460, 535 429.795, 535 428.924 C 535 428.129, 442.429 336.664, 441.195 336.240 C 440.779 336.097, 432.353 343.341, 422.470 352.339 M 1479.402 349.486 C 1466.339 352.328, 1454.183 361.754, 1448.436 373.500 C 1445.815 378.856, 1445.500 380.520, 1445.500 389 C 1445.500 397.245, 1445.859 399.266, 1448.215 404.295 C 1450.125 408.370, 1450.570 410.211, 1449.715 410.498 C 1449.047 410.722, 1434.812 413.403, 1418.081 416.455 C 1401.351 419.507, 1387.510 422.157, 1387.324 422.343 C 1387.138 422.529, 1395.426 429.925, 1405.743 438.779 C 1416.059 447.634, 1426.044 456.273, 1427.931 457.979 C 1430.515 460.314, 1431.996 460.945, 1433.931 460.535 C 1438.691 459.527, 1519.327 445, 1519.917 445.044 C 1520.237 445.069, 1508.575 456.751, 1494 471.006 C 1473.228 491.321, 1467.716 497.235, 1468.500 498.365 C 1469.050 499.158, 1474.903 506.038, 1481.506 513.654 C 1488.109 521.269, 1494.732 529.073, 1496.223 530.996 L 1498.935 534.491 1516.718 516.957 C 1526.498 507.313, 1547.868 486.329, 1564.207 470.326 L 1593.914 441.229 1584.787 431.364 C 1579.767 425.939, 1569.998 415.439, 1563.080 408.030 C 1556.161 400.622, 1546.928 390.722, 1542.562 386.030 C 1523.678 365.736, 1514.378 357.295, 1506.813 353.585 C 1500.205 350.343, 1491.356 347.870, 1487.114 348.079 C 1486.226 348.123, 1482.756 348.756, 1479.402 349.486 M 1496.395 393.155 C 1492.435 394.210, 1488.308 398.322, 1487.495 402.024 C 1486.328 407.338, 1489.974 412.718, 1505.781 429 L 1520.829 444.500 1529.420 436.017 C 1534.145 431.351, 1537.896 427.227, 1537.756 426.853 C 1537.475 426.107, 1511.841 399.879, 1507.822 396.226 C 1504.575 393.275, 1500.280 392.120, 1496.395 393.155 M 1185 603.840 C 1185 604.485, 1184.304 609.623, 1183.454 615.257 C 1182.604 620.890, 1177.230 657.900, 1171.512 697.500 C 1165.795 737.100, 1158.146 789.975, 1154.515 815 C 1150.884 840.025, 1146.145 872.875, 1143.985 888 C 1141.825 903.125, 1135.751 945.200, 1130.489 981.500 C 1125.226 1017.800, 1120.652 1049.412, 1120.324 1051.750 C 1119.996 1054.088, 1119.955 1056, 1120.232 1056 C 1120.510 1056, 1132.609 1050.330, 1147.118 1043.400 C 1161.628 1036.469, 1177.100 1029.106, 1181.500 1027.036 C 1188.976 1023.519, 1213.939 1011.601, 1249.820 994.417 C 1258.246 990.382, 1264.996 987.460, 1264.820 987.925 C 1264.465 988.862, 1221.900 1033.267, 1179.915 1076.500 C 1163.831 1093.062, 1157.154 1100.835, 1146.798 1115.053 C 1124.506 1145.659, 1107.677 1181.358, 1098.012 1218.541 C 1095.207 1229.334, 1094.080 1236.284, 1083.990 1305 C 1081.284 1323.425, 1077.018 1352.450, 1074.509 1369.500 C 1072.001 1386.550, 1068.628 1409.500, 1067.014 1420.500 C 1065.400 1431.500, 1061.814 1455.800, 1059.045 1474.500 C 1056.276 1493.200, 1054.033 1509.400, 1054.062 1510.500 C 1054.109 1512.333, 1057.384 1501.722, 1069.496 1460.500 C 1096.618 1368.188, 1099.244 1359.900, 1107.507 1340.500 C 1127.640 1293.234, 1153.185 1255.658, 1190.451 1218.487 C 1218.277 1190.733, 1252.487 1165.178, 1280.773 1151.015 C 1298.615 1142.082, 1345.148 1120, 1346.132 1120 C 1346.609 1120, 1347 1119.505, 1347 1118.900 C 1347 1118.295, 1342.223 1102.657, 1336.385 1084.150 C 1330.546 1065.642, 1324.742 1047.125, 1323.485 1043 C 1321.177 1035.421, 1298.683 963.613, 1279.317 902 C 1273.525 883.575, 1267.545 864.450, 1266.027 859.500 C 1264.509 854.550, 1257.320 831.600, 1250.052 808.500 C 1242.783 785.400, 1229.933 744.450, 1221.495 717.500 C 1213.057 690.550, 1201.575 653.875, 1195.978 636 C 1190.382 618.125, 1185.622 603.313, 1185.402 603.083 C 1185.181 602.854, 1185 603.195, 1185 603.840 M 743.663 605 C 743.350 605.825, 737.188 625.400, 729.970 648.500 C 715.563 694.608, 701.401 739.825, 685.495 790.500 C 679.798 808.650, 666.750 850.275, 656.499 883 C 640.077 935.427, 608.534 1036.086, 589.330 1097.348 C 585.702 1108.922, 583.176 1118.576, 583.652 1119.052 C 584.123 1119.523, 597.332 1126.012, 613.004 1133.471 C 628.677 1140.930, 645.550 1149.115, 650.500 1151.659 C 679.151 1166.387, 712.888 1191.860, 741 1219.993 C 787.818 1266.845, 818.380 1318.956, 838.358 1386 C 843.557 1403.446, 846.528 1413.591, 867.124 1484.228 C 871.731 1500.029, 875.628 1512.383, 875.784 1511.681 C 875.941 1510.980, 866.812 1447.652, 855.498 1370.953 C 834.327 1227.435, 832.854 1218.980, 825.140 1196.758 C 810.707 1155.174, 789.042 1118.772, 760.163 1087.577 C 754.299 1081.241, 733.944 1059.957, 714.930 1040.279 C 671.569 995.401, 664.103 987.563, 664.417 987.250 C 664.555 987.112, 677.005 992.895, 692.084 1000.101 C 707.163 1007.307, 723.100 1014.908, 727.500 1016.991 C 731.900 1019.074, 752.102 1028.714, 772.393 1038.413 C 792.684 1048.112, 809.432 1055.902, 809.610 1055.723 C 809.788 1055.545, 808.129 1043.047, 805.924 1027.950 C 803.718 1012.852, 798.572 977.325, 794.488 949 C 790.404 920.675, 781.891 861.725, 775.572 818 C 769.253 774.275, 759.772 708.575, 754.503 672 C 749.235 635.425, 744.769 605.050, 744.579 604.500 C 744.389 603.950, 743.976 604.175, 743.663 605 M 238.389 922.488 C 226.010 925.181, 218.261 931.574, 216.012 940.950 C 213.110 953.046, 218.005 963.347, 229 968.284 C 235.155 971.048, 255.445 971.806, 265.489 969.647 C 269.333 968.820, 272.640 968.307, 272.838 968.505 C 273.770 969.436, 270.652 975.959, 268.113 978.392 C 263.419 982.889, 257.619 984, 238.841 984 L 222 984 222 992.500 L 222 1001 240.451 1001 C 260.777 1001, 266.759 1000.127, 275.087 995.943 C 285.253 990.835, 290.327 982.815, 292.041 969.145 C 294.075 952.927, 290.201 936.712, 282.806 930.491 C 272.661 921.954, 255.258 918.819, 238.389 922.488 M 1741.270 922.054 C 1726.039 925.060, 1717.980 933.608, 1718.022 946.710 C 1718.058 957.942, 1722.095 964.028, 1732.500 968.537 C 1738.343 971.068, 1757.258 971.656, 1766.932 969.606 C 1771.020 968.740, 1774.562 968.228, 1774.803 968.469 C 1776.006 969.672, 1773.414 974.867, 1769.982 978.132 C 1764.849 983.015, 1759.809 984, 1739.951 984 L 1724 984 1724 992.500 L 1724 1001 1741.750 1000.983 C 1767.937 1000.957, 1778.357 998.081, 1786.729 988.570 C 1792.694 981.794, 1794.502 975.140, 1794.492 960 C 1794.482 944.956, 1792.764 938.869, 1786.658 932.244 C 1779.309 924.272, 1769.905 920.968, 1755 921.121 C 1749.775 921.175, 1743.596 921.595, 1741.270 922.054 M 166.500 923.509 C 165.950 923.701, 160.662 924.850, 154.750 926.060 L 144 928.261 144 937.130 C 144 942.009, 144.400 946, 144.890 946 C 145.379 946, 150.154 945.100, 155.500 944 C 160.846 942.900, 165.846 942, 166.610 942 C 167.753 942, 168 945.739, 168 963 L 168 984 156 984 L 144 984 144 992.500 L 144 1001 175.500 1001 L 207 1001 207 992.500 L 207 984 198 984 L 189 984 189 953.500 L 189 923 178.250 923.079 C 172.338 923.122, 167.050 923.316, 166.500 923.509 M 1640.565 924.250 C 1639.949 926.319, 1636.023 968.356, 1636.410 968.743 C 1636.607 968.940, 1642.108 968.343, 1648.634 967.416 C 1655.160 966.490, 1665.598 965.679, 1671.829 965.616 C 1683.062 965.501, 1683.178 965.524, 1685.579 968.306 C 1689.675 973.053, 1688.496 978.590, 1682.720 981.730 C 1680.016 983.200, 1676.174 983.536, 1658.750 983.828 L 1638 984.175 1638 992.587 L 1638 1001 1657.542 1001 C 1671.487 1001, 1679.283 1000.546, 1684.760 999.415 C 1700.905 996.080, 1708.126 988.216, 1708.160 973.929 C 1708.200 957.699, 1699.386 950.111, 1679.500 949.256 C 1671.352 948.906, 1668.304 949.206, 1663.043 950.873 C 1659.492 951.998, 1656.438 952.771, 1656.257 952.590 C 1656.076 952.409, 1656.282 949.390, 1656.715 945.881 L 1657.501 939.500 1680.251 939.231 L 1703 938.962 1703 930.981 L 1703 923 1671.969 923 C 1648.009 923, 1640.852 923.285, 1640.565 924.250 M 244.905 937.953 C 239.108 939.009, 236.360 940.717, 234.939 944.148 C 233.401 947.859, 235.468 951.983, 240.001 954.248 C 244.054 956.274, 259.981 956.716, 264.685 954.933 C 273.558 951.571, 274.574 942.809, 266.482 939.428 C 262.208 937.642, 250.864 936.867, 244.905 937.953 M 1747.500 937.427 C 1746.950 937.646, 1745.366 938.072, 1743.980 938.374 C 1737.335 939.821, 1734.695 947.486, 1739.340 951.850 C 1742.497 954.816, 1747.117 956.001, 1755.493 955.994 C 1768.050 955.984, 1774.029 952.992, 1773.968 946.750 C 1773.904 940.170, 1769.786 937.818, 1757.534 937.364 C 1752.565 937.179, 1748.050 937.208, 1747.500 937.427" stroke="none" fill="#040404" fill-rule="evenodd"/></svg>