<?xml version="1.0" encoding="UTF-8" standalone="no"?>
<svg
   xmlns:dc="http://purl.org/dc/elements/1.1/"
   xmlns:cc="http://creativecommons.org/ns#"
   xmlns:rdf="http://www.w3.org/1999/02/22-rdf-syntax-ns#"
   xmlns:svg="http://www.w3.org/2000/svg"
   xmlns="http://www.w3.org/2000/svg"
   xmlns:sodipodi="http://sodipodi.sourceforge.net/DTD/sodipodi-0.dtd"
   xmlns:inkscape="http://www.inkscape.org/namespaces/inkscape"
   inkscape:version="1.0 (4035a4f, 2020-05-01)"
   sodipodi:docname="LogoUSSaintMalo2018.svg"
   xml:space="preserve"
   enable-background="new 0 0 425.199 425.199"
   viewBox="0 0 300.18902 400"
   height="400"
   width="300.18903"
   y="0px"
   x="0px"
   id="Calque_1"
   version="1.1"><metadata
   id="metadata924"><rdf:RDF><cc:Work
       rdf:about=""><dc:format>image/svg+xml</dc:format><dc:type
         rdf:resource="http://purl.org/dc/dcmitype/StillImage" /></cc:Work></rdf:RDF></metadata><defs
   id="defs922" /><sodipodi:namedview
   inkscape:current-layer="Calque_1"
   inkscape:window-maximized="0"
   inkscape:window-y="0"
   inkscape:window-x="0"
   inkscape:cy="175.4125"
   inkscape:cx="131.2595"
   inkscape:zoom="1.3969929"
   showgrid="false"
   id="namedview920"
   inkscape:window-height="900"
   inkscape:window-width="1440"
   inkscape:pageshadow="2"
   inkscape:pageopacity="0"
   guidetolerance="10"
   gridtolerance="10"
   objecttolerance="10"
   borderopacity="1"
   bordercolor="#666666"
   pagecolor="#ffffff" />
<g
   transform="matrix(1.13136,0,0,1.13136,-91.524822,-41.071884)"
   id="g917">
	<path
   id="path833"
   d="m 100.63,280.826 c -5.376,0 -9.936,-1.873 -13.679,-5.61 -3.738,-3.744 -5.611,-8.285 -5.611,-13.617 v -62.518 h 11.933 v 62.387 c 0,1.938 0.691,3.581 2.067,4.938 1.376,1.354 3.034,2.032 4.969,2.032 1.936,0 3.581,-0.678 4.935,-2.032 1.354,-1.355 2.033,-2.999 2.033,-4.938 v -62.387 h 12.71 v 62.518 c 0,5.419 -1.894,9.979 -5.677,13.674 -3.788,3.703 -8.349,5.553 -13.68,5.553 z"
   fill="#010202" />
	<path
   id="path835"
   d="m 300.961,279.785 h -12.192 v -80.904 h 17.494 L 317.628,257 328.535,198.881 h 16.813 v 80.904 h -12.193 v -50.843 l -10.583,50.843 h -9.804 l -11.809,-50.71 z"
   fill="#010202" />
	<g
   id="g847">
		<path
   id="path837"
   d="m 135.935,320.228 c -0.792,1.203 -1.798,2.008 -3.012,2.412 -0.811,0.29 -1.676,0.29 -2.601,0 -0.494,-0.148 -1.013,-0.41 -1.559,-0.787 -1.006,-0.688 -1.671,-1.512 -1.992,-2.468 -0.269,-0.785 -0.33,-1.64 -0.169,-2.562 0.163,-0.925 0.522,-1.86 1.09,-2.806 l 2.571,1.505 c -0.573,1.067 -0.802,1.968 -0.691,2.702 0.075,0.547 0.322,0.949 0.733,1.204 0.574,0.365 1.212,0.4 1.916,0.093 0.354,-0.146 0.696,-0.463 1.032,-0.954 0.482,-0.708 0.647,-1.63 0.479,-2.769 -0.179,-0.835 -0.444,-2.076 -0.8,-3.736 -0.288,-1.407 -0.382,-2.562 -0.288,-3.46 0.123,-0.995 0.481,-1.925 1.071,-2.788 1.062,-1.551 2.391,-2.37 3.983,-2.457 0.97,-0.037 1.934,0.27 2.89,0.923 0.915,0.628 1.557,1.374 1.932,2.227 0.294,0.667 0.396,1.39 0.319,2.18 -0.078,0.787 -0.346,1.57 -0.789,2.357 l -2.771,-1.237 c 0.407,-0.748 0.581,-1.432 0.522,-2.044 -0.046,-0.442 -0.287,-0.815 -0.734,-1.122 -0.47,-0.324 -0.972,-0.359 -1.5,-0.113 -0.433,0.204 -0.817,0.553 -1.164,1.05 -0.53,0.781 -0.737,1.806 -0.617,3.07 0.039,0.483 0.173,1.107 0.394,1.868 0.255,0.915 0.414,1.535 0.467,1.864 0.196,1.065 0.254,2.032 0.182,2.882 -0.036,0.401 -0.088,0.759 -0.154,1.072 -0.172,0.776 -0.416,1.405 -0.74,1.894 z"
   fill="#010202" />
		<path
   id="path839"
   d="m 140.597,328.984 -2.689,-1.571 10.413,-17.851 2.692,1.567 z"
   fill="#010202" />
		<path
   id="path841"
   d="m 157.887,314.782 -2.289,14.318 6.021,-12.529 2.806,1.35 -8.953,18.646 -3.016,-1.45 1.866,-13.8 -5.732,11.943 -2.812,-1.35 8.953,-18.646 z"
   fill="#010202" />
		<path
   id="path843"
   d="m 165.866,340.836 c -1.298,-0.449 -2.242,-1.295 -2.833,-2.517 -0.591,-1.227 -0.662,-2.483 -0.214,-3.771 l 3.721,-10.65 c 0.451,-1.299 1.298,-2.244 2.522,-2.832 1.233,-0.591 2.492,-0.661 3.778,-0.213 1.3,0.456 2.24,1.301 2.822,2.525 0.587,1.229 0.653,2.486 0.204,3.772 l -0.776,2.229 -3.052,-1.068 0.798,-2.285 c 0.165,-0.472 0.138,-0.925 -0.08,-1.377 -0.215,-0.445 -0.557,-0.753 -1.025,-0.916 -0.467,-0.166 -0.922,-0.132 -1.365,0.083 -0.444,0.221 -0.743,0.562 -0.908,1.026 l -3.731,10.687 c -0.162,0.466 -0.138,0.921 0.076,1.36 0.213,0.439 0.553,0.747 1.021,0.906 0.468,0.163 0.923,0.141 1.367,-0.072 0.449,-0.21 0.751,-0.548 0.914,-1.02 l 0.945,-2.691 3.052,1.064 -0.951,2.725 c -0.456,1.299 -1.295,2.237 -2.523,2.822 -1.231,0.591 -2.482,0.658 -3.762,0.213 z"
   fill="#010202" />
		<path
   id="path845"
   d="m 176.417,343.859 4.59,-20.168 8.65,1.969 -0.691,3.057 -5.616,-1.275 -1.25,5.504 4.101,0.931 -0.692,3.056 -4.106,-0.933 -1.25,5.496 5.612,1.28 -0.695,3.055 z"
   fill="#010202" />
	</g>
	<g
   id="g857">
		<path
   id="path849"
   d="m 227.067,347.454 -2.425,-19.229 -3.203,0.403 -0.338,-2.631 c 0.894,-0.226 1.71,-0.675 2.454,-1.353 0.743,-0.683 1.244,-1.457 1.498,-2.324 l 2.629,-0.329 3.153,24.985 z"
   fill="#010202" />
		<path
   id="path851"
   d="m 237.573,319.608 c 1.609,-0.397 3.095,-0.143 4.446,0.765 1.304,0.868 2.155,2.104 2.554,3.717 l 3.282,13.339 c 0.403,1.623 0.212,3.135 -0.568,4.524 -0.78,1.395 -1.965,2.281 -3.551,2.677 -1.625,0.398 -3.105,0.148 -4.446,-0.747 -1.303,-0.865 -2.15,-2.104 -2.552,-3.721 l -0.125,-0.521 3.821,-0.944 0.151,0.605 c 0.145,0.6 0.43,1.06 0.846,1.382 0.421,0.33 0.917,0.416 1.505,0.273 0.584,-0.145 0.987,-0.457 1.204,-0.942 0.22,-0.479 0.258,-1.019 0.111,-1.617 l -1.209,-4.896 c -0.669,0.982 -1.502,1.595 -2.505,1.844 -1.612,0.395 -2.96,0.13 -4.047,-0.804 -0.954,-0.812 -1.652,-2.102 -2.089,-3.871 l -1.036,-4.19 0.021,-0.011 c -0.226,-1.144 -0.157,-2.236 0.215,-3.286 0.367,-1.052 1.006,-1.921 1.912,-2.61 0.592,-0.451 1.279,-0.773 2.06,-0.966 z m 3.382,5.414 c -0.149,-0.6 -0.432,-1.062 -0.852,-1.394 -0.422,-0.334 -0.924,-0.425 -1.509,-0.282 -0.585,0.143 -0.985,0.46 -1.203,0.947 -0.218,0.486 -0.254,1.029 -0.104,1.63 l 1.114,4.527 c 0.177,0.714 0.581,1.238 1.219,1.58 0.284,0.163 0.658,0.188 1.112,0.075 0.938,-0.231 1.401,-0.871 1.39,-1.915 -0.005,-0.312 -0.028,-0.55 -0.069,-0.704 z"
   fill="#010202" />
		<path
   id="path853"
   d="m 265.553,331.146 c 0.591,1.564 0.546,3.104 -0.144,4.607 -0.689,1.507 -1.805,2.553 -3.344,3.137 -1.565,0.595 -3.104,0.551 -4.613,-0.131 -1.515,-0.676 -2.561,-1.794 -3.151,-3.349 l -4.871,-12.844 c -0.591,-1.564 -0.548,-3.102 0.142,-4.616 0.684,-1.517 1.807,-2.563 3.354,-3.151 1.563,-0.598 3.104,-0.547 4.61,0.141 1.503,0.687 2.555,1.807 3.145,3.362 z m -8.581,-11.527 c -0.215,-0.564 -0.598,-0.97 -1.149,-1.217 -0.555,-0.251 -1.111,-0.267 -1.676,-0.053 -0.561,0.213 -0.965,0.597 -1.209,1.146 -0.241,0.549 -0.255,1.105 -0.042,1.669 l 4.88,12.864 c 0.211,0.562 0.596,0.973 1.143,1.225 0.544,0.249 1.1,0.267 1.662,0.056 0.563,-0.216 0.969,-0.596 1.219,-1.154 0.247,-0.551 0.265,-1.106 0.056,-1.672 z"
   fill="#010202" />
		<path
   id="path855"
   d="m 276.793,332.233 -8.498,-17.42 -2.906,1.42 -1.162,-2.387 c 0.771,-0.492 1.398,-1.185 1.881,-2.07 0.486,-0.88 0.712,-1.777 0.668,-2.68 l 2.387,-1.164 11.044,22.632 z"
   fill="#010202" />
	</g>
	<path
   id="path859"
   d="m 175.079,305.972 c 0,0 27.014,16.949 61.974,-0.53 0,-0.001 -31.782,-15.889 -61.974,0.53 z"
   fill="#010202" />
	<g
   id="g865">
		<path
   id="path861"
   d="m 266.885,190.385 h -3.006 c -2.106,0 -3.997,-0.826 -5.322,-2.33 -1.336,-1.506 -1.934,-3.532 -1.671,-5.693 0.114,-0.842 0.229,-1.677 0.346,-2.508 -4.962,5.279 -9.544,8.521 -14.031,9.938 -2.172,0.621 -4.242,0.924 -6.24,0.924 -1.474,0 -2.936,-0.16 -4.352,-0.476 -2.208,-0.521 -4.146,-1.318 -5.853,-2.358 -1.856,2.122 -3.47,4.562 -4.77,7.398 -2.173,4.745 -3.439,10.18 -3.812,16.305 l 16.537,1.194 c 0.733,-6.71 2.51,-11.574 5.327,-14.59 2.08,-2.277 4.469,-3.354 7.165,-3.232 3.795,0.123 6.824,1.989 9.095,5.609 1.16,1.775 1.744,4.32 1.744,7.63 0,4.78 -2.175,9.532 -6.522,14.256 -3.43,3.243 -8.575,8.116 -15.431,14.612 -5.759,5.578 -9.831,10.575 -12.22,14.986 -2.569,4.965 -3.856,10.36 -3.856,16.183 0,10.479 3.522,18.42 10.562,23.813 4.35,3.248 9.738,4.873 16.169,4.873 0.509,0 1.005,-0.026 1.501,-0.043 -9.699,6.919 -21.099,11.593 -33.465,13.268 0,-0.452 0,-1.12 0,-2.011 0.155,-1.51 0.327,-3.006 0.477,-4.521 -0.159,0 -0.317,0 -0.477,0 0,-19.465 0,-74.31 0,-114.595 -0.367,0.218 -0.735,0.438 -1.131,0.659 -0.198,0.115 -0.407,0.217 -0.639,0.311 -2.017,0.863 -4.379,1.345 -6.985,1.418 -0.029,0.004 -0.062,0.004 -0.095,0.004 h -0.283 c -2.182,0 -4.251,-0.604 -6.153,-1.795 -0.224,-0.15 -0.435,-0.304 -0.639,-0.457 -0.539,0.221 -1.081,0.414 -1.625,0.595 0,40.124 0,94.509 0,113.86 -0.154,0 -0.313,0 -0.472,0 0.161,1.574 0.316,3.153 0.472,4.729 0,1.041 0,1.767 0,2.146 -13.566,-1.312 -26.062,-6.231 -36.557,-13.776 1.261,0.13 2.558,0.207 3.903,0.207 6.428,0 11.815,-1.625 16.165,-4.873 7.045,-5.395 10.564,-13.334 10.564,-23.813 0,-5.821 -1.285,-11.218 -3.856,-16.183 -2.39,-4.411 -6.462,-9.408 -12.219,-14.986 -6.856,-6.496 -12.004,-11.369 -15.435,-14.612 -4.345,-4.724 -6.521,-9.476 -6.521,-14.256 0,-3.31 0.581,-5.854 1.747,-7.63 2.267,-3.62 5.297,-5.486 9.091,-5.609 2.699,-0.12 5.084,0.955 7.17,3.232 2.813,3.016 4.59,7.88 5.323,14.59 l 16.534,-1.194 c -0.367,-6.125 -1.637,-11.56 -3.812,-16.305 -0.87,-1.908 -1.908,-3.612 -3.034,-5.201 -0.611,-0.231 -1.203,-0.5 -1.748,-0.833 -2.245,0.967 -4.463,1.455 -6.613,1.455 -1.662,0 -3.196,-0.407 -4.492,-1.177 -2.145,0.706 -4.556,1.124 -7.198,1.245 -0.198,0.018 -0.473,0.031 -0.745,0.031 -0.771,0 -1.548,-0.086 -2.32,-0.25 -0.614,-0.079 -1.206,-0.215 -1.771,-0.41 -0.881,0.37 -1.966,0.629 -3.275,0.629 -0.425,0 -0.896,-0.026 -1.408,-0.093 -0.688,-0.053 -1.354,-0.205 -1.984,-0.449 -1.062,0.249 -2.123,0.372 -3.159,0.372 -0.511,0 -1.019,-0.035 -1.52,-0.093 -0.514,-0.044 -1.032,-0.151 -1.54,-0.316 -1.042,0.34 -2.098,0.511 -3.157,0.511 -1.886,0 -3.662,-0.531 -5.147,-1.506 -1.213,0.542 -2.417,0.907 -3.606,1.136 -8.632,12.944 -13.683,28.484 -13.683,45.216 10e-4,42.905 33.099,78.05 75.153,81.363 2.378,24.364 4.628,48.855 8.159,72.067 2.13,-24.53 5.069,-48.243 7.645,-72.331 19.223,-2.185 36.411,-11.036 49.211,-24.192 3.206,-2.122 5.837,-4.99 7.849,-8.671 0.382,-0.691 0.701,-1.424 1.025,-2.155 8.985,-13.116 14.253,-28.979 14.254,-46.081 -0.001,-17.466 -5.503,-33.636 -14.844,-46.907 -1.226,1.094 -2.81,1.746 -4.494,1.746 z m -113.695,77.048 -15.44,2.815 c -5.405,-10.387 -8.476,-22.176 -8.479,-34.703 0,-11.042 2.396,-21.508 6.66,-30.95 -0.136,1.436 -0.22,2.896 -0.196,4.417 0.062,3.241 0.919,6.918 2.574,11.021 0.672,1.655 1.561,3.456 2.66,5.422 2.332,4.164 5.639,8.388 9.922,12.677 1.288,1.344 3.951,3.704 7.994,7.071 3.43,2.813 6.002,5.265 7.716,7.353 4.532,5.447 6.796,10.804 6.796,16.07 0,3.368 -0.674,6.188 -2.021,8.452 -1.653,2.814 -4.07,4.228 -7.258,4.228 -2.998,0 -5.294,-0.95 -6.889,-2.849 -2.203,-2.638 -3.55,-6.311 -4.039,-11.024 z m 126.692,-31.888 c 0,12.38 -3.001,24.043 -8.291,34.343 l -13.457,-2.455 c -0.491,4.713 -1.836,8.387 -4.042,11.022 -1.593,1.897 -3.89,2.849 -6.889,2.849 -3.186,0 -5.604,-1.412 -7.258,-4.228 -1.347,-2.266 -2.021,-5.084 -2.021,-8.452 0,-5.268 2.263,-10.623 6.798,-16.07 1.713,-2.088 4.285,-4.538 7.714,-7.353 4.043,-3.367 6.709,-5.729 7.995,-7.071 4.283,-4.289 7.591,-8.513 9.92,-12.677 1.103,-1.966 1.987,-3.767 2.662,-5.423 1.459,-3.621 2.262,-6.895 2.481,-9.846 2.832,7.924 4.388,16.46 4.388,25.361 z"
   fill="#010202" />
		<path
   id="path863"
   d="m 214.781,141.825 c -5.848,-0.113 -11.696,-0.389 -17.549,-0.548 v 4.422 l -0.181,14.667 c 0.754,0.217 3.111,0.515 3.776,0.895 0.121,-0.241 0.261,-0.476 0.418,-0.702 1.471,-2.125 3.682,-3.341 6.067,-3.341 3.216,0 7.467,4.395 7.467,3.726 2.729,0.371 5.389,0.937 8.015,1.588 0.2,-0.253 0.363,-0.522 0.578,-0.771 1.597,-1.841 3.406,-3.229 5.406,-4.178 -4.513,-1.399 -9.188,-2.429 -13.999,-3.028 z"
   fill="#010202" />
	</g>
	<g
   id="g869">
		<path
   id="path867"
   d="m 199.639,144.849 v 4.865 l -0.031,2.553 c 4.34,0.264 8.667,0.676 12.99,1.15 v -8.922 c 3.064,-0.895 6.551,-2.825 10.508,-4.55 3.611,-1.577 8.082,-4.375 10.855,-4.203 2.073,0.125 3.385,2.573 4.553,1.749 2.729,-37.78 3.124,-35.058 17.802,-60.889 -14.687,5.741 -24.243,16.618 -32.57,28.72 3.29,-0.687 6.956,-2.848 9.81,-2.803 -3.625,12.696 2.176,-5.484 -1.694,8.006 -1.063,3.711 -2.535,10.943 -4.553,12.956 -1.272,1.276 -9.047,4.669 -11.207,4.207 -5.669,-1.22 -3.502,-17.851 -3.502,-25.22 0,-20.951 -0.285,-2.569 0.352,-21.852 3.035,0.748 6.664,5.267 8.404,4.902 -2.894,-18.472 -7.712,-35.019 -15.76,-48.331 -6.824,14.308 -12.72,31.406 -15.059,49.031 2.648,-2.021 6.113,-5.089 9.104,-5.604 0,19.969 0,1.249 0,21.502 0,8.131 2.156,24.677 -3.851,25.569 -2.822,0.417 -9.727,-3.032 -11.207,-4.907 -1.893,-2.391 -3.085,-9.058 -4.205,-12.957 -3.923,-13.678 -0.702,1.438 -3.575,-10.433 3.33,0.872 6.1,2.307 9.455,3.153 -8.015,-12.297 -17.837,-22.79 -32.221,-28.723 14.277,26.118 17.362,25.603 19.687,63.667 2.207,0.229 2.842,-1.746 5.254,-1.749 2.575,-0.002 7.172,2.712 10.506,4.204 3.868,1.733 7.247,3.72 10.155,4.909 z"
   fill="#010202" />
	</g>
	<g
   id="g895">
		<path
   id="path871"
   d="m 137.518,157.506 c 0,4.184 -1.416,8.263 -4.242,12.238 -3.238,4.497 -7.194,8.21 -11.874,11.141 -4.908,3.036 -9.838,4.548 -14.792,4.548 -7.083,0 -12.014,-2.195 -14.795,-6.589 -0.876,-1.362 -1.314,-2.718 -1.314,-4.08 1.294,2.093 3.261,3.74 5.901,4.942 2.361,1.102 4.791,1.646 7.292,1.646 4.677,0 10.025,-2.012 16.044,-6.041 1.571,-1.044 3.092,-2.245 4.548,-3.605 1.459,-1.358 2.859,-2.852 4.204,-4.477 3.332,-3.918 5.045,-7.555 5.139,-10.903 0.043,-2.719 -0.856,-4.781 -2.71,-6.197 -1.525,-1.095 -3.587,-1.699 -6.181,-1.803 -0.186,0 -0.395,0 -0.628,0 -0.229,0 -0.485,0.027 -0.762,0.076 -1.342,1.889 -3.288,5.024 -5.831,9.416 -1.348,2.303 -2.49,4.25 -3.438,5.844 -0.951,1.598 -1.729,2.839 -2.329,3.729 -1.573,2.408 -3.287,4 -5.141,4.786 -0.694,0.312 -1.365,0.34 -2.014,0.077 1.064,-1.986 2.303,-4.249 3.715,-6.787 1.411,-2.536 2.998,-5.374 4.756,-8.514 0.88,-1.517 1.695,-2.873 2.434,-4.076 0.739,-1.203 1.436,-2.277 2.084,-3.217 -4.77,1.564 -9.611,4.47 -14.521,8.709 -5.692,4.862 -8.355,9.021 -7.985,12.474 0.604,2.351 2.665,3.452 6.184,3.294 3.935,-0.258 7.592,-1.933 10.975,-5.023 2.682,-2.403 4.233,-4.937 4.652,-7.608 0.046,-0.104 0.069,-0.205 0.069,-0.312 0,-0.104 0.022,-0.235 0.069,-0.392 0.231,0 0.438,0.104 0.624,0.313 0.141,0.625 0.246,1.217 0.313,1.763 0.071,0.55 0.127,1.035 0.173,1.455 0.277,4.756 -2.039,8.734 -6.945,11.926 -2.964,1.934 -5.996,2.899 -9.097,2.899 -2.687,0 -5.001,-0.702 -6.947,-2.114 -2.406,-1.785 -3.52,-4.554 -3.334,-8.318 0.141,-2.406 1.227,-5.072 3.265,-8.001 5.605,-8.161 13.218,-13.341 22.851,-15.534 0.741,-0.155 1.414,-0.285 2.014,-0.393 0.602,-0.106 1.157,-0.188 1.666,-0.237 2.27,-2.51 4.192,-3.767 5.763,-3.767 0.233,0 0.57,0.092 1.011,0.274 0.439,0.185 0.565,0.379 0.38,0.592 l -2.498,2.899 c 3.472,0.578 6.158,1.884 8.056,3.923 2.128,2.248 3.196,5.258 3.196,9.024 z"
   fill="#010202" />
		<path
   id="path873"
   d="m 141.962,179.864 c 0,0.729 -0.998,1.725 -2.987,2.982 -2.5,1.619 -4.75,2.301 -6.737,2.04 -0.877,-0.054 -1.202,-0.762 -0.971,-2.117 0.047,-0.214 0.813,-1.857 2.291,-4.941 l 1.875,-3.69 c 0.463,-0.943 0.981,-1.933 1.562,-2.981 0.58,-1.044 1.262,-2.173 2.049,-3.375 0.42,-0.468 1.091,-0.628 2.016,-0.468 0.693,0.154 0.994,0.445 0.903,0.861 -0.095,0.469 -1.735,3.636 -4.934,9.494 -1.527,2.824 -2.247,4.237 -2.149,4.237 0.553,0.26 1.55,-0.08 2.983,-1.021 l 2.848,-1.806 c 0.834,-0.209 1.251,0.05 1.251,0.785 z m 4.651,-19.377 c 0,0.627 -0.253,1.384 -0.764,2.273 -1.296,2.25 -2.662,3.376 -4.097,3.376 -0.648,0 -0.975,-0.368 -0.975,-1.103 0,-0.627 0.256,-1.384 0.768,-2.273 1.295,-2.246 2.66,-3.375 4.097,-3.375 0.648,0.001 0.971,0.367 0.971,1.102 z"
   fill="#010202" />
		<path
   id="path875"
   d="m 159.532,179.864 c 0,0.729 -0.975,1.725 -2.919,2.982 -2.5,1.619 -4.789,2.301 -6.877,2.04 -0.833,-0.054 -1.135,-0.762 -0.898,-2.117 -1.624,1.516 -3.104,2.273 -4.447,2.273 -1.993,0 -3.151,-1.335 -3.473,-4.002 -0.417,-3.45 0.975,-7.034 4.168,-10.749 2.081,-2.457 4.072,-3.688 5.971,-3.688 2.271,0 3.381,1.568 3.337,4.709 0.74,-1.466 1.247,-2.355 1.525,-2.672 0.741,-0.885 1.573,-1.227 2.502,-1.019 0.645,0.105 0.923,0.392 0.831,0.861 -0.046,0.265 -0.464,1.154 -1.249,2.669 -0.79,1.519 -1.92,3.687 -3.403,6.514 -1.528,2.823 -2.247,4.237 -2.153,4.237 0.511,0.26 1.483,-0.081 2.915,-1.021 l 2.852,-1.806 c 0.881,-0.205 1.318,0.054 1.318,0.789 z m -7.086,-4.865 c 0.278,-1.047 0.302,-2.118 0.072,-3.214 -0.233,-1.259 -0.86,-1.888 -1.877,-1.888 -1.436,0 -2.8,1.021 -4.098,3.061 -1.25,1.985 -1.873,3.818 -1.873,5.496 0,2.14 0.762,3.216 2.289,3.216 1.112,0 2.271,-0.785 3.477,-2.355 l 0.693,-1.486 1.178,-2.438 c 0.047,-0.102 0.072,-0.182 0.072,-0.232 -0.001,-0.055 0.022,-0.106 0.067,-0.16 z"
   fill="#010202" />
		<path
   id="path877"
   d="m 176.336,179.864 c 0,0.729 -0.97,1.725 -2.916,2.982 -2.129,1.36 -4.953,2.117 -8.474,2.272 -0.557,0.05 -1.135,0 -1.734,-0.155 -1.808,-0.104 -2.596,-1.543 -2.362,-4.314 l -0.418,0.78 -0.762,1.417 c -0.464,0.838 -0.867,1.449 -1.213,1.843 -0.351,0.393 -1.056,0.507 -2.12,0.354 -0.279,0 -0.488,-0.079 -0.627,-0.237 -0.09,-0.208 0.996,-2.536 3.267,-6.979 l 7.569,-14.517 c 0.372,-0.836 0.854,-1.764 1.458,-2.787 0.601,-1.019 1.298,-2.184 2.084,-3.489 0.464,-0.522 1.136,-0.709 2.014,-0.551 0.697,0.158 0.995,0.446 0.903,0.862 -0.044,0.472 -0.694,1.855 -1.946,4.157 l -3.888,7.22 c 1.573,-1.308 3.029,-1.964 4.375,-1.964 1.806,0 2.776,1.233 2.915,3.688 0.187,4.135 -1.525,7.978 -5.134,11.535 0.507,0.154 1.479,-0.209 2.914,-1.099 l 2.848,-1.806 c 0.834,-0.206 1.247,0.053 1.247,0.788 z m -5.417,-7.138 c 0.139,-1.778 -0.392,-2.669 -1.593,-2.669 -1.438,0 -2.968,1.077 -4.589,3.214 l -2.148,4.007 c -0.278,0.891 -0.417,1.751 -0.417,2.587 0,1.203 0.506,1.807 1.527,1.807 1.155,0 2.452,-0.734 3.89,-2.196 1.987,-1.941 3.099,-4.187 3.33,-6.75 z"
   fill="#010202" />
		<path
   id="path879"
   d="m 193.076,154.13 c -0.558,3.397 -1.713,6.905 -3.475,10.516 -3.425,6.9 -7.014,11.924 -10.765,15.062 -0.51,1.047 -0.768,1.674 -0.768,1.882 0,0.214 0.094,0.346 0.282,0.396 0.646,0.208 1.944,-0.209 3.889,-1.256 0.739,-0.418 1.343,-0.743 1.805,-0.981 0.46,-0.236 0.789,-0.404 0.973,-0.509 0.833,-0.209 1.246,0.053 1.246,0.786 0.05,0.265 -0.088,0.652 -0.414,1.177 -3.243,2.562 -6.207,3.844 -8.891,3.844 -0.927,0 -1.573,-0.287 -1.943,-0.866 -0.465,-0.679 -0.441,-1.853 0.069,-3.527 0.046,-0.056 0.173,-0.379 0.383,-0.98 0.208,-0.601 0.542,-1.479 1.003,-2.626 1.575,-4.238 3.29,-8.133 5.143,-11.689 2.128,-4.134 3.285,-6.305 3.472,-6.513 2.962,-5.337 5.23,-8.005 6.804,-8.005 1.116,-0.006 1.508,1.092 1.187,3.289 z m -1.597,0.316 c 0,-0.212 -0.023,-0.34 -0.068,-0.395 -1.249,1.098 -4.355,6.879 -9.31,17.339 -0.37,0.836 -0.729,1.621 -1.079,2.353 -0.345,0.733 -0.633,1.467 -0.863,2.201 0.787,-0.734 1.631,-1.687 2.534,-2.866 0.901,-1.181 1.813,-2.574 2.742,-4.199 1.342,-2.297 2.477,-4.443 3.403,-6.432 0.929,-1.986 1.623,-3.843 2.084,-5.57 0.184,-0.572 0.312,-1.059 0.381,-1.449 0.068,-0.397 0.13,-0.722 0.176,-0.982 z"
   fill="#010202" />
		<path
   id="path881"
   d="m 200.783,179.864 c 0.046,0.682 -0.462,1.386 -1.528,2.119 -3.01,1.988 -6.019,3.061 -9.026,3.213 -3.241,0.159 -5.048,-1.225 -5.42,-4.154 -0.273,-2.355 0.441,-4.972 2.154,-7.849 0.511,-0.885 1.088,-1.712 1.738,-2.471 0.646,-0.76 1.362,-1.477 2.151,-2.159 1.899,-1.668 3.613,-2.299 5.14,-1.883 0.97,0.264 1.701,0.841 2.188,1.73 0.484,0.889 0.635,1.907 0.452,3.059 -0.188,1.097 -0.604,2.172 -1.251,3.217 -1.623,2.405 -3.658,3.712 -6.113,3.922 -1.207,0.105 -2.083,-0.153 -2.639,-0.78 -0.229,2.608 0.88,4.023 3.331,4.23 1.763,0.161 3.868,-0.574 6.32,-2.194 0.421,-0.312 0.838,-0.574 1.252,-0.784 0.838,-0.21 1.251,0.049 1.251,0.784 z m -4.585,-7.375 c 0.421,-1.725 -0.135,-2.591 -1.665,-2.591 -1.204,0 -2.432,0.895 -3.681,2.668 -1.25,1.83 -1.853,3.01 -1.806,3.531 0.045,0.313 0.464,0.525 1.249,0.628 0.696,0.052 1.481,-0.129 2.362,-0.551 1.807,-0.94 2.984,-2.144 3.54,-3.608 v -0.077 z"
   fill="#010202" />
		<path
   id="path883"
   d="m 216.48,178.14 c 0.141,0.781 -0.648,1.988 -2.359,3.607 -0.513,0.521 -1.148,1.031 -1.913,1.527 -0.763,0.5 -1.605,1.01 -2.535,1.53 -1.341,0.577 -2.94,0.89 -4.79,0.939 h -0.209 c -1.021,0 -1.992,-0.283 -2.917,-0.858 -1.063,-0.734 -1.621,-1.624 -1.668,-2.667 0,-0.577 0.093,-1.152 0.281,-1.729 -0.419,0.471 -0.93,0.889 -1.532,1.256 -0.924,0 -1.341,-0.472 -1.249,-1.41 l 0.417,-0.396 c 0.465,-0.468 1.044,-1.137 1.737,-2 0.695,-0.861 1.504,-1.893 2.431,-3.101 1.298,-2.247 2.152,-4.705 2.569,-7.374 l 0.558,-2.979 c 0.324,-0.471 0.668,-0.708 1.04,-0.708 0.558,0 0.938,0.324 1.147,0.979 0.206,0.657 0.266,1.271 0.176,1.845 l -0.143,0.47 c 0.143,0.576 0.879,0.995 2.221,1.254 0.232,0 0.417,0.026 0.558,0.083 0,0.151 -0.097,0.365 -0.278,0.625 -0.649,1.203 -0.927,2.46 -0.836,3.768 l 1.114,5.182 c 0.046,0.413 0.079,0.819 0.104,1.209 0.022,0.396 0.013,0.774 -0.034,1.144 -0.048,0.312 -0.096,0.613 -0.141,0.899 -0.047,0.291 -0.116,0.564 -0.208,0.821 0.556,-0.257 2.222,-1.701 4.999,-4.312 0.323,-0.21 0.648,-0.236 0.974,-0.077 0.278,0.104 0.439,0.259 0.486,0.473 z m -9.377,3.371 c 0.141,-0.835 0,-2.01 -0.415,-3.525 l -0.973,-5.809 c 0,0.104 -0.066,0.263 -0.207,0.467 -0.696,1.521 -1.812,3.482 -3.335,5.888 0.509,-0.105 0.892,0.026 1.146,0.391 0.256,0.368 0.313,0.812 0.177,1.334 -0.097,0.368 -0.314,0.771 -0.662,1.219 -0.348,0.443 -0.521,0.796 -0.521,1.061 0,0.362 0.206,0.703 0.624,1.017 0.739,0.521 1.619,0.521 2.641,0 0.877,-0.368 1.387,-1.048 1.525,-2.043 z"
   fill="#010202" />
		<path
   id="path885"
   d="m 291.932,179.864 c 0,0.729 -1.004,1.725 -3.006,2.982 -1.237,0.73 -2.643,1.021 -4.216,0.861 -0.524,0 -1.003,-0.079 -1.434,-0.235 -1.14,0.783 -2.237,1.308 -3.284,1.57 -1.717,0.419 -3.195,0.284 -4.433,-0.393 -1.43,-0.785 -2.145,-2.096 -2.145,-3.924 0,-3.504 1.736,-7.086 5.219,-10.748 2.62,-2.722 5.216,-3.792 7.791,-3.22 2.048,0.47 3.074,1.99 3.074,4.555 0,3.138 -1.239,6.325 -3.72,9.57 0.383,0.101 0.646,0.156 0.786,0.156 0.62,0 1.264,-0.21 1.932,-0.627 0.237,-0.21 0.533,-0.418 0.896,-0.627 0.355,-0.214 0.771,-0.446 1.249,-0.708 0.861,-0.206 1.291,0.053 1.291,0.788 z m -5.578,-4.865 c 0.332,-1.147 0.406,-2.246 0.213,-3.294 -0.236,-1.202 -0.93,-1.808 -2.071,-1.808 -1.285,0 -2.695,0.917 -4.217,2.745 -1.67,2.147 -2.503,4.109 -2.503,5.888 0,2.301 0.927,3.32 2.786,3.058 -0.429,-0.73 -0.669,-1.384 -0.716,-1.959 -0.237,-1.884 0.405,-3.454 1.932,-4.707 0.144,1.935 0.812,3.503 2.001,4.707 1.242,-1.361 2.1,-2.903 2.575,-4.63 z"
   fill="#010202" />
		<path
   id="path887"
   d="m 316.164,154.679 c -0.096,0.523 -0.454,0.971 -1.071,1.333 -0.952,-2.876 -2.6,-5.15 -4.933,-6.824 -2.24,-1.515 -4.815,-2.354 -7.721,-2.514 -11.582,-0.677 -22.161,9.053 -31.74,29.188 -0.385,0.839 -0.92,1.966 -1.609,3.375 -0.689,1.412 -1.56,3.137 -2.608,5.179 -0.143,0.21 -0.334,0.312 -0.57,0.312 h -3.002 c -0.717,0 -1.025,-0.39 -0.932,-1.179 0.668,-4.969 1.407,-9.738 2.218,-14.315 0.811,-4.577 1.688,-9.011 2.644,-13.299 l -5.789,8.241 c -1.86,2.664 -3.552,4.979 -5.076,6.939 -1.524,1.961 -2.884,3.598 -4.075,4.904 -4.192,4.496 -8.027,7.295 -11.509,8.395 -2.574,0.731 -5.055,0.836 -7.435,0.312 -3.769,-0.889 -6.389,-2.85 -7.863,-5.885 -0.812,-1.566 -1.167,-3.295 -1.073,-5.179 0.144,-2.822 1.146,-5.311 3,-7.451 1.859,-2.146 4.102,-3.321 6.725,-3.535 1.428,-0.154 2.738,0.032 3.931,0.554 1.002,0.156 1.881,0.89 2.646,2.197 0.855,1.361 1.285,2.563 1.285,3.606 0,0.784 -0.189,1.544 -0.573,2.277 -1.478,-4.135 -3.835,-6.039 -7.077,-5.727 -1.998,0.153 -3.679,1.018 -5.037,2.586 -1.356,1.57 -2.088,3.449 -2.183,5.649 -0.092,1.41 0.146,2.614 0.715,3.607 1.526,3.086 4.193,4.627 8.009,4.627 4.905,0 10.271,-3.687 16.085,-11.062 0.812,-1.045 1.785,-2.354 2.93,-3.923 1.146,-1.567 2.453,-3.424 3.934,-5.57 l 7.721,-12.157 c -2.335,-0.419 -4.504,-0.813 -6.505,-1.176 -2.002,-0.368 -3.863,-0.735 -5.577,-1.104 -1.62,-0.361 -3.193,-0.468 -4.717,-0.312 -2.384,0.263 -4.245,0.941 -5.578,2.042 -1.767,1.36 -2.523,3.218 -2.286,5.567 0.188,1.987 1.12,3.479 2.787,4.475 1.432,0.835 3.099,1.121 5.005,0.86 1.382,-0.202 2.586,-0.86 3.61,-1.96 1.022,-1.099 1.606,-2.409 1.754,-3.926 0.093,-1.254 -0.457,-1.958 -1.648,-2.114 -0.953,-0.107 -1.688,0.287 -2.213,1.177 -0.289,0.575 -0.408,0.967 -0.359,1.175 -0.716,-0.367 -0.979,-1.097 -0.788,-2.194 0.189,-0.942 0.719,-1.698 1.576,-2.276 0.854,-0.574 1.716,-0.757 2.573,-0.548 2.568,0.522 3.739,2.192 3.5,5.02 -0.141,1.309 -0.476,2.498 -1.001,3.57 -0.522,1.074 -1.19,1.975 -2.001,2.706 -0.812,0.733 -1.751,1.307 -2.824,1.726 -1.071,0.422 -2.204,0.625 -3.395,0.625 -2.194,0 -4.242,-0.649 -6.148,-1.956 -2.621,-1.778 -4.002,-4.134 -4.146,-7.064 -0.046,-1.307 0.31,-2.847 1.072,-4.625 2.146,-4.919 7.103,-7.221 14.867,-6.905 1.003,0.104 4.004,0.499 9.01,1.179 1.812,0.261 3.47,0.419 4.969,0.469 1.501,0.054 2.848,0.027 4.039,-0.082 0.093,-0.046 0.321,-0.152 0.68,-0.31 0.356,-0.158 0.846,-0.396 1.464,-0.707 0.288,-0.104 0.497,-0.128 0.646,-0.077 0.33,0 0.546,0.158 0.641,0.469 l -0.858,2.514 c -0.188,0.521 -0.473,1.592 -0.854,3.218 -0.951,4.079 -1.836,8.064 -2.647,11.96 -0.809,3.898 -1.521,7.756 -2.144,11.573 9.582,-17.625 19.589,-27.118 30.023,-28.479 0.669,-0.101 1.322,-0.167 1.969,-0.191 0.642,-0.027 1.297,-0.014 1.964,0.032 4.769,0.213 8.508,1.889 11.225,5.027 1.847,2.143 2.634,4.133 2.348,5.961 z"
   fill="#010202" />
		<path
   id="path889"
   d="m 300.078,179.864 c 0,0.729 -1.023,1.725 -3.072,2.982 -2.576,1.619 -4.887,2.301 -6.935,2.04 -0.904,-0.054 -1.24,-0.762 -1.001,-2.117 0.049,-0.214 0.833,-1.857 2.357,-4.941 l 1.931,-3.69 c 0.475,-0.943 1.016,-1.933 1.608,-2.981 0.597,-1.044 1.298,-2.173 2.107,-3.375 0.43,-0.468 1.118,-0.628 2.073,-0.468 0.716,0.154 1.025,0.445 0.93,0.861 -0.097,0.469 -1.787,3.636 -5.073,9.494 -1.574,2.824 -2.312,4.237 -2.216,4.237 0.569,0.26 1.595,-0.08 3.07,-1.021 l 2.933,-1.806 c 0.86,-0.209 1.288,0.05 1.288,0.785 z m 4.792,-19.377 c 0,0.627 -0.267,1.384 -0.788,2.273 -1.333,2.25 -2.742,3.376 -4.218,3.376 -0.669,0 -1.002,-0.368 -1.002,-1.103 0,-0.627 0.262,-1.384 0.787,-2.273 1.332,-2.246 2.74,-3.375 4.22,-3.375 0.666,0.001 1.001,0.367 1.001,1.102 z"
   fill="#010202" />
		<path
   id="path891"
   d="m 317.092,178.14 c 0.145,0.677 -0.668,1.884 -2.432,3.607 L 313.088,183 c -2.24,1.569 -3.836,2.354 -4.789,2.354 -1.855,0 -2.931,-1.126 -3.218,-3.372 -0.143,-1.099 0.403,-2.955 1.646,-5.571 l 1.786,-3.53 0.575,-1.49 c -0.528,-0.257 -1.016,-0.471 -1.469,-0.626 -0.453,-0.158 -0.846,-0.289 -1.177,-0.394 -0.669,1.516 -1.572,3.426 -2.72,5.727 -0.523,0.944 -1.31,2.015 -2.357,3.217 -1.337,1.57 -2.241,2.383 -2.717,2.434 -0.95,0 -1.381,-0.472 -1.289,-1.41 l 0.359,-0.396 c 0.571,-0.571 1.214,-1.278 1.931,-2.113 0.718,-0.84 1.525,-1.833 2.433,-2.986 0.332,-0.521 0.606,-1.017 0.82,-1.489 0.213,-0.471 0.414,-0.966 0.606,-1.492 0.666,-1.982 1.073,-3.447 1.216,-4.393 l 0.214,-1.566 c 0.05,-0.05 0.143,-0.498 0.287,-1.334 0.238,-0.472 0.548,-0.73 0.926,-0.785 0.574,-0.156 1.015,0.116 1.325,0.823 0.311,0.704 0.393,1.375 0.247,2.001 l -0.212,1.1 c 0.095,0.104 0.406,0.262 0.929,0.47 l 0.213,-0.158 c 0.193,0.055 0.583,0.227 1.185,0.515 0.594,0.285 0.964,0.452 1.105,0.507 l 1.715,0.47 c 0.332,0.212 0.551,0.551 0.646,1.021 0.046,0.266 -0.335,1.179 -1.146,2.743 l -1.787,3.376 c -1.718,3.399 -2.358,5.363 -1.931,5.888 0.29,0.417 1.146,0.152 2.573,-0.786 0.431,-0.264 1.954,-1.593 4.577,-4.002 0.333,-0.21 0.667,-0.236 0.997,-0.077 0.241,0.041 0.41,0.201 0.505,0.464 z"
   fill="#010202" />
		<path
   id="path893"
   d="m 332.891,178.14 c 0.144,0.781 -0.667,1.988 -2.431,3.607 -0.525,0.521 -1.182,1.031 -1.968,1.527 -0.787,0.5 -1.656,1.01 -2.609,1.53 -1.382,0.577 -3.027,0.89 -4.934,0.939 h -0.213 c -1.049,0 -2.049,-0.283 -3.005,-0.858 -1.095,-0.734 -1.666,-1.624 -1.713,-2.667 0,-0.577 0.093,-1.152 0.287,-1.729 -0.432,0.471 -0.956,0.889 -1.573,1.256 -0.954,0 -1.384,-0.472 -1.287,-1.41 l 0.429,-0.396 c 0.479,-0.468 1.072,-1.137 1.787,-2 0.717,-0.861 1.552,-1.893 2.503,-3.101 1.332,-2.247 2.216,-4.705 2.646,-7.374 l 0.571,-2.979 c 0.332,-0.471 0.688,-0.708 1.071,-0.708 0.569,0 0.964,0.324 1.183,0.979 0.212,0.657 0.272,1.271 0.174,1.845 l -0.138,0.47 c 0.138,0.576 0.902,0.995 2.284,1.254 0.238,0 0.429,0.026 0.572,0.083 0,0.151 -0.097,0.365 -0.286,0.625 -0.667,1.203 -0.954,2.46 -0.856,3.768 l 1.144,5.182 c 0.046,0.413 0.083,0.819 0.109,1.209 0.021,0.396 0.007,0.774 -0.039,1.144 -0.05,0.312 -0.096,0.613 -0.144,0.899 -0.049,0.291 -0.118,0.564 -0.214,0.821 0.571,-0.257 2.29,-1.701 5.147,-4.312 0.335,-0.21 0.668,-0.236 1.003,-0.077 0.287,0.104 0.454,0.259 0.5,0.473 z m -9.651,3.371 c 0.143,-0.835 0,-2.01 -0.433,-3.525 l -0.996,-5.809 c 0,0.104 -0.076,0.263 -0.217,0.467 -0.715,1.521 -1.856,3.482 -3.432,5.888 0.523,-0.105 0.919,0.026 1.18,0.391 0.262,0.368 0.32,0.812 0.18,1.334 -0.098,0.368 -0.324,0.771 -0.682,1.219 -0.356,0.443 -0.535,0.796 -0.535,1.061 0,0.362 0.215,0.703 0.644,1.017 0.763,0.521 1.668,0.521 2.72,0 0.901,-0.368 1.427,-1.048 1.571,-2.043 z"
   fill="#010202" />
	</g>
	<g
   id="g911">
		<path
   id="path897"
   d="m 170.334,274.63 -2.946,-55.61 c 21.189,-3.522 38.839,3.647 38.839,3.647 18.556,5.185 39.974,-0.829 39.974,-0.829 l -1.896,49.173 c -9.131,4.976 -38.51,0.89 -38.51,0.89 0,0 -24.582,-3.759 -35.461,2.729 z"
   fill="#ffffff" />
		<path
   id="path899"
   d="m 201.061,271.389 c -10.343,-0.882 -20.567,-0.775 -30.726,3.241 -0.502,-7.146 -0.675,-14.458 -1.188,-21.645 10.558,-3.472 21.075,-2.335 31.818,-0.823 0.112,6.571 -0.017,12.665 0.096,19.227 z"
   fill="#314f9d" />
		<path
   id="path901"
   d="m 200.835,240.542 c -10.976,-1.897 -21.646,-3.295 -32.435,-0.189 -0.511,-7.236 -0.503,-14.061 -1.013,-21.333 11.189,-2.479 21.747,-0.803 33.123,1.791 0.11,6.581 0.223,13.154 0.325,19.731 z"
   fill="#e32220" />
		<path
   id="path903"
   d="m 244.241,271.298 c -10.448,3.881 -21.577,1.99 -31.896,1.418 0.029,-6.35 0.064,-12.693 0.098,-19.045 10.721,1.173 22.039,1.304 32.891,-2.016 -0.433,5.756 -0.659,13.866 -1.093,19.643 z"
   fill="#314f9d" />
		<path
   id="path905"
   d="m 245.51,241.92 c -11.079,2.997 -21.906,2.212 -32.854,0.681 0.027,-6.335 0.068,-12.669 0.102,-18.999 11.345,2.21 22.8,0.271 34.279,-2.093 -0.433,5.663 -1.091,14.716 -1.527,20.411 z"
   fill="#314f9d" />
		<path
   id="path907"
   d="m 170.789,229.615 c -0.004,0.013 0.694,-1.892 2.711,-1.802 0,-0.02 2.577,0.487 2.809,0.942 0.237,0.434 -0.047,-0.205 -0.047,-0.205 0.001,0.152 2.141,-7.28 12.464,-6.572 0,-0.03 4.625,0.77 5.45,0.008 0,0.002 0.374,2.467 -0.787,2.95 0.005,-0.008 2.3,1.73 2.165,2.202 -0.135,0.47 -2.324,0.763 -2.548,0.701 0,0 0.592,1.999 -0.38,2.91 0.007,0.032 -3.672,-4.777 -9.021,-4.997 0,-0.06 -5.367,0.093 -6.121,3.831 0.003,0.011 0.819,1.71 3.085,0.77 -0.019,-0.061 5.771,-2.841 9.58,2.355 0.003,0.003 1.65,2.142 4.646,2.683 0,0 1.154,0.103 1.013,0.853 -0.004,0.003 -0.159,0.255 -1.866,-0.155 -0.004,0 -1.196,-0.151 -3.617,-1.972 0.002,0 1.281,1.233 1.128,1.671 0,0 -0.178,0.959 -1.411,0.362 0,0 0.215,-0.434 -0.026,-0.691 0,-0.003 -1.502,0.069 -2.207,0.093 0,-0.002 -1.589,-0.244 -1.941,-0.482 0,0 -1.511,0.772 -2.297,0.745 0,0 -0.861,-0.263 -0.012,-0.877 0,-0.005 1.275,-0.414 1.203,-1.049 0.005,0.003 -0.514,-0.858 -2.015,-0.657 0,-0.012 -2.362,0.043 -1.995,0.696 -0.005,-0.008 0.947,0.553 0.528,1.427 0,0 -0.158,0.446 -0.908,0.241 0,0 0.235,-0.836 -0.281,-0.953 0,0 -0.859,-0.413 -1.819,0.274 0,0 -0.912,1.154 -2.468,1.145 0,0 -0.888,0.151 -0.962,-0.361 0,0.008 -0.159,-0.413 1.345,-0.878 0,-0.01 1.293,-0.797 0.601,-1.739 0,-0.01 -2.112,-2.374 -2.746,-2.516 0.001,-0.028 -3.102,0.47 -3.253,-0.953 z"
   fill="#ffffff" />
		<path
   id="path909"
   d="m 176.261,228.551 c 0.407,0.341 0.821,0.688 1.223,1.033 0,-0.003 -1.083,2.881 -0.943,3.36 -0.327,-0.405 -0.661,-0.809 -0.986,-1.202 -0.001,0 0.335,-1.945 0.706,-3.191 z"
   fill="#ffffff" />
	</g>
	<path
   id="path913"
   d="m 129.462,223.863 c 0,0 18.108,25.011 2.586,40.531 0,10e-4 -10.348,-14.661 -2.586,-40.531 z"
   fill="#010202" />
	<path
   id="path915"
   d="m 279.376,223.863 c 0,0 -18.109,25.011 -2.588,40.531 0,10e-4 10.349,-14.661 2.588,-40.531 z"
   fill="#010202" />
</g>
</svg>
