<svg height="362.399411" viewBox="0 0 300 394.2027" width="275.938638" xmlns="http://www.w3.org/2000/svg"><path d="m165.54836 143.313c1.1507.4884 2.2881 1.0114 3.4534 1.4597 4.4358 1.7072 8.8616 3.4411 13.3286 5.0614 2.2168.8039 3.2114 2.2078 3.6564 4.5685 1.3503 7.1666 8.7991 10.6089 14.9956 6.8087 3.2126-1.9693 5.9691-4.6856 8.9174-7.0808.091-.074.029-.3357.033-.4115-14.825-3.3408-28.5662-11.026-44.3848-10.406m-50.8245 134.641c-18.6094-6.5456-31.1288-19.9355-40.936-36.2314-9.9784-16.5802-12.5379-34.581-8.9619-53.9723-10.4099 9.573-11.8075 36.829-2.7953 55.8089 11.2968 23.7903 35.1727 34.7906 52.6932 34.3948m-61.3014-26.0796c-1.7336 3.973-.148 6.8444.9145 9.6845 7.4338 19.8663 21.2524 33.8506 39.9729 43.3701 10.9448 5.5654 22.7022 8.7166 34.3704 12.2269 15.1206 4.5507 29.9111 9.9287 42.6632 19.6835.4951.3791 1.492.7125 1.9246.4717 4.2061-2.3339 8.342-4.796 12.7064-7.3418-.8341-.7036-1.3637-1.1864-1.9291-1.6224-7.9216-6.0995-16.8077-10.3893-26.1454-13.7869-19.1003-6.9515-38.2864-13.6721-57.3121-20.8242-9.4594-3.5549-18.1876-8.6732-26.2023-14.8686-9.0912-7.0284-16.7256-15.2744-20.9631-26.9928m149.2939 12.0719c.085-.407.1695-.814.2542-1.221 4.689.4527 9.4582.5073 14.0479 1.4406 9.7748 1.9871 19.4504 4.4582 29.1862 6.6393.8586.1918 2.2882.045 2.7308-.5152 1.5054-1.9001 2.6863-4.0567 4.1537-6.3738-1.1686-.4673-1.9703-.8943-2.8245-1.1118-7.3584-1.87-14.6645-4.0143-22.1032-5.4773-12.7376-2.5045-25.2109-5.7047-36.6885-11.9481-12.2682-6.6749-22.1857-15.5409-26.4978-29.4249-.136-.4371-.523-.795-.9757-1.4563-1.9168 4.8362-2.2257 9.4013-1.2656 14.0802 1.7763 8.652 6.8712 15.4584 12.2782 22.0943.9289 1.1385 1.8265 2.3027 2.7398 3.4545-12.7979-4.4213-22.3575-12.5257-28.8372-24.1393-6.5289-11.7028-7.9339-24.0491-4.1917-36.9941-11.3013 13.4033-11.7028 28.341-6.1262 44.2276-.8709-.3769-1.4686-.7593-1.9447-1.2578-8.2026-8.5951-11.0695-19.2341-10.27-30.6124 1.1586-16.5055 9.8273-28.1459 25.0694-34.7795 2.4743-1.0761 4.9365-2.1822 7.4041-3.275-.081-.3858-.1639-.7717-.2453-1.1575-2.9806.3569-5.9902.5587-8.9374 1.0962-21.9683 4.0053-35.6559 22.9517-32.5828 45.0973 1.676 12.0742 7.9885 21.7007 16.4163 30.0716 13.3966 13.3097 29.9389 21.1554 47.5851 27.0487 10.9401 3.6541 21.9282 7.1956 32.7334 11.2188 6.9246 2.5792 13.5572 5.9457 20.5822 9.0746 1.7596-2.1332 3.6441-4.418 5.7327-6.9503-11.6426-8.5873-24.6657-13.4613-37.4234-18.8494m22.1411 36.0206c-2.4799-1.4954-4.4659-3.0308-6.7016-3.9831-10.0994-4.3009-20.1084-8.9017-30.4541-12.5213-14.8084-5.1818-29.5877-10.2822-43.0981-18.4502-15.1908-9.185-27.9819-20.6447-35.6526-37.061-8.2018-17.5503-7.0523-34.5141 3.43-50.7263 7.8134-12.0853 19.2876-18.9877 33.0913-22.3229 1.4228-.3445 2.8256-.7739 4.2373-1.163l-.043-1.1196c-2.1722-.4683-4.3343-1.2879-6.5177-1.3481-13.7802-.3791-26.3728 3.5794-38.019 10.8018-3.0344 1.8823-6.0758 3.7534-9.1415 5.5833-.5335.3189-1.2052.4058-2.5856.8474 1.1637-1.7808 1.8241-2.8602 2.5515-3.8927 8.4566-12.0084 19.6799-20.5745 33.0253-26.4878 13.6453-6.0482 28.0265-8.4088 42.8471-8.2248 12.015.1483 23.7067 2.2647 34.8364 6.9235 7.1644 2.9985 13.6854 6.908 16.3861 14.7983.7226 2.1109 1.7953 2.7097 3.8527 2.9695 7.9338 1.0013 15.0246 3.9652 20.7729 9.7023 7.9595 7.9439 8.3263 19.5709.8073 27.9653-1.986 2.2167-4.137 4.3544-7.6093 5.0491.2029-1.3136.3523-2.3752.5352-3.4323 1.1485-6.647-1.3582-11.1374-7.8368-13.0409-3.7434-1.0995-7.6729-1.88-11.5601-2.1075-12.4633-.7293-24.3456 1.3314-34.6557 8.9474-10.1674 7.509-12.0942 17.1924-6.046 28.2741 4.496 8.2405 11.5043 13.7067 19.6288 17.8314 17.8971 9.089 37.0431 12.945 57.0177 13.3598 3.0653.065 4.4993-.9088 5.7148-3.6597 8.2204-18.6041 13.1045-38.0724 15.3235-58.2286 2.461-22.3619 1.3961-44.6614-1.6292-66.8962-2.0305-14.9164-5.3568-29.5442-9.8038-43.9341-.8486-2.7449-2.2123-4.3079-4.9175-5.1861-8.6219-2.7979-17.0753-6.1735-25.7942-8.6021-31.0172-8.6385-62.6187-12.2475-94.8625-11.4852-36.1946.8556-71.1862 7.1998-105.0001 20.1349-2.5304.968-3.9452 2.3652-4.7503 5.0136-6.7737 22.2843-10.8042 45.028-12.2493 68.2786-2.0042 32.2416 1.3687 63.6848 13.2856 93.9292 1.9583 4.9688 4.2037 9.8261 6.3162 14.7348.3217-4.3121.078-8.4178.3637-12.4868 1.2476-17.7421 5.681-34.7048 13.4083-50.7118 10.4752-21.6996 26.0018-38.621 47.8691-49.3213.7559-.3702 1.5686-.6234 2.3548-.9311-.044.8787-.3369 1.3046-.6836 1.6804-16.5661 17.9729-24.7225 38.9811-21.2746 63.4417 4.2941 30.4641 19.1593 54.231 47.2424 68.213 11.9403 5.9457 24.5809 10.4885 36.926 15.6135 16.1576 6.705 32.3308 13.3698 48.5229 19.989.8843.3613 2.364.5854 2.9561.1115 2.5502-2.0395 4.8718-4.3645 7.5837-6.8689m-219.5029-140.6323c-.4355-24.3959 2.262-48.4717 8.3524-72.1165 2.0549-7.9778 4.5447-15.8432 6.6514-23.8087.7126-2.6946 2.2853-4.0717 4.7454-5.1098 15.4948-6.5376 31.4724-11.5205 47.865-15.2238 17.3576-3.9214 34.8631-6.8389 52.6428-7.9934 47.7111-3.0983 94.1589 2.9293 139.1771 19.249 3.701 1.3416 7.3785 2.8026 10.9089 4.5303 1.289.631 2.626 2.0268 3.0843 3.3668 10.7996 31.5699 16.0673 63.9825 15.9569 97.4272-.084 25.0928-3.6352 49.4808-11.3984 73.26-9.0166 27.6162-23.8104 51.8325-43.805 72.8808-19.8675 20.9146-43.2765 36.9071-69.1085 49.4908-6.0092 2.9271-12.0898 5.7227-18.2406 8.3387-1.3325.5675-3.3084.5909-4.6432.037-16.8712-7.0116-33.0578-15.3558-48.315-25.4417-33.3362-22.0352-59.1634-50.6595-75.7678-87.1841-10.9692-24.1293-16.691-49.6001-18.0666-76.0398-.271-5.2075-.039-10.4406-.039-15.6625" fill="#fff" stroke="#d9291c" stroke-linecap="round" stroke-linejoin="bevel" stroke-width="10.5189"/><path d="m12.91616 126.2611 13.7667-61.588 57.9652-17.7518 62.3126-6.1588s32.7192 2.8814 59.2227 5.4996c26.5035 2.6181 46.7913 4.973 62.5042 18.411 16.607 14.2028 17.3381 60.5633 17.3381 60.5633l.82 46.6497-4.252 46.6496-26.4097 53.3496-22.4529 29.8421-27.5247 26.5816-53.0869 23.654-56.0632-35.5942-50.9912-38.4925-28.9478-62.5816-4.4061-44.2606z" fill="#fff" stroke-linecap="round" stroke-linejoin="bevel" stroke-width="8.00999"/><g fill="#d9291c"><path d="m224.85746 299.9669c-2.713 2.5044-5.0346 4.8294-7.5837 6.8689-.5932.4739-2.0718.2498-2.9561-.1115-16.1921-6.6192-32.3664-13.284-48.5229-19.9901-12.3462-5.1239-24.9868-9.6667-36.926-15.6124-28.0836-13.982-42.9486-37.7489-47.2428-68.213-3.4479-24.4606 4.7085-45.4688 21.2746-63.4417.3466-.3758.6392-.8017.6835-1.6804-.786.3077-1.5987.5609-2.3546.9311-21.8673 10.7003-37.3938 27.6217-47.8693 49.3213-7.7272 16.007-12.1606 32.9697-13.408 50.7129-.2861 4.0679-.042 8.1736-.3639 12.4857-2.1126-4.9087-4.3579-9.766-6.3162-14.7348-11.9168-30.2433-15.2898-61.6876-13.2857-93.9303 1.4454-23.2495 5.4756-45.9933 12.2494-68.2775.805-2.6484 2.2199-4.0456 4.7504-5.0136 33.8137-12.9352 68.8055-19.2793 104.9993-20.1349 32.2449-.7623 63.8464 2.8467 94.8625 11.4852 8.72 2.4286 17.1723 5.8042 25.7942 8.6022 2.7063.8779 4.07 2.4412 4.9186 5.1861 4.447 14.3897 7.7733 29.0175 9.8027 43.934 3.0252 22.2348 4.0913 44.5343 1.6303 66.8962-2.219 20.1562-7.1031 39.6245-15.3246 58.2286-1.2155 2.7509-2.6484 3.7233-5.7148 3.6597-19.9735-.4148-39.1195-4.2708-57.0177-13.3598-8.1245-4.1247-15.1317-9.5909-19.6288-17.8314-6.0483-11.0817-4.1203-20.7651 6.046-28.2741 10.3112-7.6149 22.1935-9.6767 34.6568-8.9474 3.8861.2275 7.8167 1.008 11.559 2.1075 6.4797 1.9035 8.9864 6.3928 7.8379 13.0409-.1829 1.0571-.3323 2.1187-.5364 3.4323 3.4735-.6947 5.6245-2.8324 7.6094-5.048 7.5201-8.3955 7.1521-20.0236-.8062-27.9664-5.7483-5.7371-12.8402-8.701-20.7729-9.7034-2.0574-.2587-3.1301-.8575-3.8527-2.9684-2.7018-7.8903-9.2228-11.7998-16.3861-14.7983-11.1297-4.6577-22.8214-6.7752-34.8364-6.9235-14.8206-.184-29.2018 2.1766-42.8483 8.2248-13.3442 5.9133-24.5678 14.4794-33.0244 26.4878-.7274 1.0325-1.388 2.1119-2.5517 3.8927 1.3807-.4416 2.0521-.5285 2.5859-.8474 3.0657-1.8299 6.107-3.701 9.1413-5.5833 11.6455-7.2224 24.2381-11.1809 38.0183-10.8018 2.1834.06 4.3466.8798 6.5188 1.3481.014.3725.029.746.043 1.1196-1.4128.3903-2.8145.8185-4.2384 1.163-13.8037 3.3352-25.2768 10.2376-33.0913 22.3229-10.4817 16.2122-11.631 33.176-3.43 50.7263 7.6718 16.4163 20.4629 27.876 35.6526 37.061 13.5104 8.168 28.2908 13.2684 43.0981 18.4502 10.3468 3.6196 20.3547 8.2204 30.4552 12.5213 2.2346.9523 4.2206 2.4877 6.7016 3.9831"/><path d="m202.71636 263.9463c12.7577 5.3869 25.7808 10.2621 37.4234 18.8494-2.0875 2.5312-3.9731 4.8171-5.7327 6.9503-7.025-3.1289-13.6576-6.4954-20.5822-9.0746-10.8052-4.0232-21.7921-7.5658-32.7334-11.2188-17.6462-5.8933-34.1885-13.739-47.5851-27.0487-8.4267-8.372-14.7403-17.9974-16.4163-30.0716-3.0731-22.1456 10.6145-41.092 32.5828-45.0973 2.9472-.5375 5.9568-.7393 8.9374-1.0962.082.3858.1639.7717.2453 1.1575-2.4676 1.0917-4.9298 2.1978-7.4041 3.275-15.2421 6.6325-23.9108 18.274-25.0694 34.7795-.7984 11.3783 2.0674 22.0162 10.27 30.6113.4761.4996 1.0738.882 1.9458 1.2578-5.5777-15.8855-5.1762-30.8232 6.1251-44.2265-3.7411 12.945-2.3372 25.2913 4.1928 36.9941 6.4786 11.6136 16.0382 19.7169 28.8361 24.1393-.9122-1.1518-1.8109-2.316-2.7387-3.4556-5.4081-6.6348-10.503-13.4424-12.2793-22.0943-.9601-4.6789-.6512-9.2441 1.2656-14.0791.4527.6613.8408 1.0192.9757 1.4552 4.3121 13.8851 14.2296 22.7511 26.4978 29.4249 11.4776 6.2445 23.9509 9.4436 36.6885 11.9481 7.4399 1.463 14.7459 3.6084 22.1032 5.4784.8542.2175 1.6559.6445 2.8245 1.1118-1.4674 2.316-2.6483 4.4726-4.1537 6.3738-.4426.5598-1.8711.707-2.7297.5152-9.7369-2.1823-19.4125-4.6533-29.1862-6.6404-4.5908-.9333-9.36-.9868-14.0479-1.4395-.086.407-.1706.814-.2553 1.221"/><path d="m53.42196 251.8744c4.2374 11.7184 11.8719 19.9644 20.9632 26.9928 8.0146 6.1954 16.7427 11.3137 26.2022 14.8697 19.025 7.151 38.2123 13.8716 57.3126 20.8231 9.3366 3.3988 18.2227 7.6885 26.1443 13.7869.5665.436 1.0961.9188 1.9291 1.6224-4.3633 2.5469-8.4992 5.0079-12.7053 7.3429-.4326.2397-1.4295-.094-1.9257-.4728-12.751-9.7537-27.5415-15.1328-42.6632-19.6824-11.6682-3.5114-23.4249-6.6615-34.3698-12.2269-18.7203-9.5195-32.539-23.5038-39.9727-43.3712-1.0627-2.8401-2.6481-5.7115-.9147-9.6845"/><path d="m114.72276 277.954c-17.52.3958-41.3957-10.6045-52.6926-34.3948-9.0123-18.9788-7.6147-46.2359 2.7952-55.8089-3.5758 19.3924-1.0165 37.3932 8.962 53.9734 9.8072 16.2959 22.3266 29.6847 40.9354 36.2303"/><path d="m165.54836 143.313c15.8186-.62 29.5598 7.0652 44.3848 10.406 0 .076.058.3379-.033.4115-2.9483 2.3952-5.7048 5.1115-8.9174 7.0808-6.1965 3.8002-13.6453.3579-14.9956-6.8087-.445-2.3607-1.4396-3.7646-3.6564-4.5685-4.467-1.6203-8.8928-3.3542-13.3286-5.0614-1.1653-.4483-2.3027-.9713-3.4534-1.4597"/><path d="m150.00066 375.0288 2.3796 7.3239h7.7008l-6.23 4.5261 2.3796 7.3239-6.23-4.5261-6.2299 4.5261 2.3796-7.3239-6.23-4.5261h7.7008z"/><path d="m130.92936 370.457 2.3796 7.3238h7.7008l-6.23 4.5262 2.3796 7.3238-6.23-4.5261-6.2299 4.5261 2.3796-7.3238-6.23-4.5262h7.7008z"/><path d="m111.85806 357.6324 2.3796 7.3238h7.7008l-6.23 4.5262 2.3796 7.3239-6.23-4.5262-6.23 4.5262 2.3798-7.3239-6.2301-4.5262h7.7008z"/><path d="m92.78676 347.5598 2.3798 7.3239h7.7006l-6.2299 4.5261 2.3796 7.3239-6.2301-4.5261-6.23 4.5261 2.3798-7.3239-6.2301-4.5261h7.7008z"/><path d="m73.71536 334.7352 2.3796 7.3239h7.7008l-6.2301 4.5261 2.3798 7.3239-6.2301-4.5261-6.2301 4.5261 2.3799-7.3239-6.2301-4.5261h7.7006z"/><path d="m169.07196 370.457-2.3795 7.3238h-7.7008l6.23 4.5262-2.3796 7.3238 6.2299-4.5261 6.23 4.5261-2.3796-7.3238 6.23-4.5262h-7.7008z"/><path d="m188.14446 357.6324-2.3796 7.3238h-7.7008l6.23 4.5262-2.3796 7.3239 6.23-4.5262 6.2299 4.5262-2.3796-7.3239 6.23-4.5262h-7.7008z"/><path d="m207.21576 347.5598-2.3796 7.3239h-7.7008l6.23 4.5261-2.3796 7.3239 6.23-4.5261 6.2299 4.5261-2.3796-7.3239 6.23-4.5261h-7.7008z"/><path d="m226.28706 334.7352-2.3796 7.3239h-7.7008l6.23 4.5261-2.3796 7.3239 6.23-4.5261 6.2299 4.5261-2.3796-7.3239 6.23-4.5261h-7.7008z"/><path d="m21.43236 32.4982c.1709-1.8206.8126-3.4421 1.9248-4.8648 1.1122-1.4216 2.6503-2.5304 4.615-3.3252 1.6887-.6836 3.3266-.9778 4.9141-.8832 1.587.095 3.032.5515 4.3359 1.37 1.3028.8186 2.4044 1.943 3.3037 3.3736l-6.4435 2.6076c-.5538-.5236-1.1742-.8547-1.8602-.9939-.6865-.1386-1.3784-.067-2.0759.2151-1.0282.4164-1.6847 1.1306-1.9689 2.1428-.285 1.0127-.1633 2.1706.3643 3.4739.5274 1.3038 1.2451 2.2199 2.1538 2.7494.9084.5296 1.8768.5866 2.905.1703.6976-.2821 1.2447-.7118 1.6414-1.289.3965-.577.6119-1.2461.6457-2.0076l6.4435-2.6077c.3487 1.6536.339 3.2277-.028 4.7221-.3678 1.4946-1.0884 2.8279-2.1631 3.9995-1.0747 1.1722-2.4564 2.0997-4.1451 2.783-1.9646.7951-3.8408 1.0685-5.6289.8199-1.7883-.2483-3.3771-.9673-4.7663-2.1568-1.3896-1.1895-2.4742-2.7485-3.2541-4.6759-.7799-1.9277-1.0847-3.8016-.9134-5.6231"/><path d="m56.22756 29.13c.577-1.0416.6325-2.2783.1664-3.7093-.4657-1.4309-1.239-2.3977-2.3187-2.9004-1.0805-.5019-2.3263-.5234-3.7385-.063l-1.4969.4875 2.9065 8.9257 1.4969-.4875c1.4124-.4599 2.4068-1.2102 2.9843-2.2525m-1.2025-12.8547c1.8479.3356 3.4416 1.1185 4.7792 2.3487 1.3382 1.2311 2.3197 2.8061 2.9453 4.7269.6194 1.9023.7533 3.7536.403 5.5547-.3509 1.8011-1.1702 3.3958-2.4571 4.7832-1.2874 1.3876-2.9758 2.4216-5.0661 3.1023l-8.3324 2.7134-6.512-19.9978 8.3323-2.7136c2.0903-.6804 4.0594-.8532 5.9078-.5178"/><path d="m74.40756 29.6021c-1.8634-.7649-3.128-2.2387-3.793-4.4215l6.8175-1.633c.3777 1.1517 1.0384 1.6144 1.9822 1.3882.3466-.083.6205-.235.8224-.4565.2013-.2211.2607-.5056.1776-.8521-.1154-.4813-.4687-.8089-1.0603-.9831-.5915-.1737-1.4822-.3217-2.6721-.4442-1.4207-.1485-2.6125-.341-3.5754-.5791-.9633-.2377-1.8542-.7062-2.6735-1.4061-.8195-.6997-1.3787-1.7164-1.6777-3.05-.3183-1.3287-.2475-2.5418.2124-3.6399.4596-1.0978 1.2247-2.0292 2.2937-2.7946 1.069-.7649 2.3446-1.3255 3.8278-1.6806 2.5035-.5999 4.6306-.4986 6.3809.3041 1.7499.8026 2.9148 2.2446 3.4949 4.325l-6.9044 1.6541c-.1576-.5731-.4013-.9525-.7309-1.1385-.3298-.1855-.6871-.2325-1.072-.1402-.2699.065-.4692.2094-.5987.4336-.1295.2249-.155.5005-.077.8279.1108.462.4569.7817 1.0387.9576.5819.1767 1.4822.3427 2.7005.4985 1.4057.1728 2.5805.3798 3.5245.6218.9438.2429 1.8185.6847 2.624 1.3263.8052.6426 1.3513 1.5604 1.6371 2.7545.3 1.2518.2606 2.4473-.1182 3.5864-.3787 1.1401-1.0887 2.1296-2.1295 2.9693-1.0411.8402-2.3701 1.4536-3.988 1.8412-2.4459.5859-4.6004.4964-6.4639-.2691"/><path d="m100.89016 17.3201-2.8639-5.4459-.8837 6.0892zm2.4202 4.6182-6.9097 1.186-.4869 3.3083-6.8218 1.1709 4.0254-22.0299 7.495-1.2864 11.1108 19.4322-6.8507 1.1755z"/><path d="m132.92316 21.6528-6.5634.6427-7.9784-9.8442 1.0314 10.5245-6.5633.643-2.0496-20.9313 6.5623-.6429 7.9963 10.0218-1.0482-10.7021 6.5634-.6428z"/><path d="m151.40016 0 .1706 5.2254-5.5821.1822.5151 15.7947-6.5912.2151-.5152-15.795-5.5219.18-.1706-5.2254z"/><path d="m165.67436 13.2291-1.7128-5.9098-2.0874 5.7879zm1.444 5.0098-7.0072-.2248-1.1407 3.1434-6.918-.2221 8.3643-20.7739 7.6015.2439 6.9849 21.2668-6.9481-.2233z"/><path d="m183.67176 6.3039c1.0282-1.5122 2.373-2.623 4.0333-3.332 1.6604-.7086 3.5426-.9374 5.6468-.6857 1.8087.2164 3.3854.749 4.7302 1.5981 1.3448.8488 2.3896 1.9463 3.1367 3.292.746 1.346 1.1686 2.8622 1.2656 4.5495l-6.9023-.8259c-.232-.7258-.6156-1.3153-1.1486-1.7678-.5352-.453-1.1753-.7243-1.9224-.8134-1.1017-.132-2.0216.177-2.7587.9263-.7382.7495-1.1909 1.8226-1.357 3.2185-.1673 1.3962.019 2.5453.5597 3.4475.5397.9023 1.3604 1.4194 2.4621 1.5513.7471.089 1.4329-.023 2.0596-.3372.6256-.314 1.1374-.7962 1.5343-1.4469l6.9013.8257c-.4917 1.6164-1.26 2.9907-2.3026 4.1222-1.0438 1.132-2.3183 1.9518-3.8248 2.4594-1.5065.508-3.1646.6538-4.9733.4372-2.1041-.2516-3.8793-.9175-5.3256-1.9984-1.4463-1.0803-2.4911-2.4768-3.1334-4.1894-.6434-1.712-.8408-3.6005-.5943-5.6653.2475-2.0647.8842-3.8532 1.9134-5.3657"/><path d="m210.35356 21.27 6.2567 1.1241-.882 4.9117-12.7476-2.2896 3.7177-20.7002 6.4909 1.1658z"/><path d="m230.95696 22.4675-.4717-6.1349-3.2237 5.2407zm.3925 5.1988-6.8142-1.6487-1.7574 2.8451-6.7273-1.6277 12.4231-18.6323 7.3919 1.788 2.5034 22.2439-6.7563-1.6344z"/><path d="m249.33246 23.6303 2.4933.7842c.6044.19 1.1006.1961 1.4898.017.388-.1785.6746-.5611.8586-1.1469.1662-.5286.1416-.9933-.076-1.3938-.2163-.4-.6178-.6927-1.2032-.8766l-2.4933-.7845zm.2141 12.5857-1.5054-8.3828-.028-.01-2.2637 7.1974-6.2913-1.9786 6.3103-20.0625 9.3511 2.941c1.6247.5108 2.9226 1.2357 3.8939 2.1742.9712.9389 1.589 1.9946 1.8533 3.1677.2642 1.1728.1996 2.3828-.1918 3.6297-.4227 1.3417-1.1698 2.4142-2.2425 3.2184-1.0727.8044-2.3796 1.2132-3.9206 1.2269l1.9492 9.0521z"/><path d="m272.13146 35.6815.3558-6.1428-3.8984 4.7611zm-.3088 5.2047-6.5311-2.548-2.1231 2.5834-6.4485-2.5154 14.8116-16.7972 7.0842 2.7637-.5041 22.3787-6.4753-2.5262z"/></g><g fill="#fff" stroke="#d9291c"><g stroke-width="1.82127"><path d="m79.23806 85.898-2.6111-4.2806-.4032 4.9979zm2.2078 3.6299-5.5578 1.3225-.2244 2.7162-5.4869 1.3057 2.1313-18.1244 6.0286-1.4345 10.0433 15.2269-5.5103 1.3113z"/><path d="m109.81526 81.6924c.4293-.376.7337-.8608.9133-1.4558l5.6133-.7633c-.062 1.8163-.5988 3.3876-1.6068 4.7134-1.0092 1.3265-2.3897 2.2471-4.1437 2.7624l.1204-.016.1104.8154c.4472-.061.9244-.032 1.4285.087.5051.1185.9556.3746 1.3503.7689.3959.3941.6423.9426.7382 1.6467.1405 1.0392-.1171 1.8359-.775 2.3895-.6568.5535-1.4663.8955-2.4253 1.026l-4.1497.5646-.3687-2.7101 3.5985-.4898c.1918-.026.3378-.083.4404-.1698.1015-.087.1461-.1871.1305-.2986-.032-.2399-.2565-.3318-.6724-.2751l-2.039.2775-.434-3.1902c-1.4653 0-2.782-.3055-3.9497-.9282-1.1678-.623-2.1142-1.5041-2.8391-2.6431-.7252-1.139-1.1921-2.4764-1.4006-4.0114-.2287-1.6791-.093-3.2203.409-4.6241.5011-1.4033 1.3338-2.5548 2.4983-3.4546 1.1638-.8994 2.6017-1.4656 4.3127-1.6983 1.4712-.2004 2.8235-.1035 4.0579.2907 1.2344.3938 2.2837 1.0451 3.149 1.9536.8642.9083 1.5076 2.0177 1.9302 3.3281l-5.6122.7636c-.3323-.5245-.7549-.911-1.269-1.1585-.5143-.2478-1.0751-.3303-1.6827-.2475-.8959.1219-1.5576.5539-1.9858 1.2962-.4285.7422-.5651 1.6812-.4108 2.8164.1545 1.1358.5373 2.0036 1.1483 2.6044.6109.6008 1.364.8405 2.2599.7185.6075-.082 1.1261-.3119 1.5554-.6879"/><path d="m141.41896 78.6212c.5554-.7062.8129-1.6404.7706-2.8012-.043-1.1771-.3669-2.0982-.9724-2.7627-.6055-.664-1.4407-.9772-2.5056-.9385-1.0805.039-1.8979.4123-2.4543 1.1187-.5553.7067-.8118 1.6487-.7683 2.8258.041 1.1612.3658 2.0739.9713 2.7381.6055.6645 1.4485.9769 2.529.9376 1.0638-.039 1.8744-.4112 2.4297-1.1178m-6.7284 5.1498c-1.3749-.7092-2.481-1.7184-3.3196-3.0286-.8385-1.3098-1.289-2.8032-1.3492-4.4807-.061-1.6772.2787-3.199 1.0203-4.5667.7415-1.3671 1.7718-2.4501 3.0921-3.249 1.3191-.7988 2.7855-1.2277 4.3979-1.2862 1.6124-.059 3.101.2627 4.4681.9642 1.3649.7012 2.4633 1.7071 3.294 3.0171.8307 1.3102 1.2768 2.8039 1.3381 4.4808.061 1.6778-.2754 3.1996-1.0091 4.5666-.7338 1.3671-1.7597 2.454-3.0788 3.2605-1.3191.8072-2.7766 1.2394-4.3734 1.2974-1.6135.059-3.1066-.2665-4.4804-.9754"/><path d="m167.52876 75.1116 2.1264.1266c.5152.031.9088-.063 1.1809-.2814.271-.2184.4226-.5771.4516-1.0767.027-.4508-.085-.8131-.3356-1.0868-.2498-.2734-.6256-.4252-1.1251-.455l-2.1254-.1262zm2.6606 9.9065-2.8491-6.3287h-.024l-.3635 6.1375-5.3647-.3187 1.0158-17.1082 7.9751.4738c1.385.082 2.5547.3987 3.5081.9482.9534.5497 1.6503 1.262 2.0919 2.137.4404.8748.63 1.8439.5664 2.9072-.068 1.1442-.446 2.1398-1.1351 2.9877-.6891.8486-1.6414 1.4305-2.8557 1.7463l3.3318 6.7694z"/><path d="m196.63916 74.9021-.3067 2.0836 5.2688.7752-.5876 3.9993-5.2688-.775-.3524 2.3948 5.9869.8808-.6233 4.2389-11.3036-1.6625 2.4933-16.956 11.3047 1.6626-.6244 4.2391z"/><path d="m216.17766 90.2008c-1.0761-1.2395-1.4574-2.7756-1.1419-4.608l5.561 1.3079c-.1472.9767.165 1.5555.9344 1.7366.2832.067.5375.056.7661-.031.2275-.087.3746-.2724.4416-.5552.091-.3925-.046-.7605-.4126-1.104-.3669-.3433-.9612-.7771-1.7819-1.3023-.9802-.6282-1.7775-1.2049-2.3908-1.7308-.6144-.5257-1.0916-1.1928-1.4317-2.0027-.3401-.8092-.3747-1.7542-.1037-2.8344.2542-1.084.7504-1.9412 1.4875-2.5721.737-.6307 1.6347-1.0288 2.6929-1.1945 1.0582-.1652 2.1923-.106 3.4021.1787 2.0417.4802 3.5538 1.3327 4.534 2.5582.9801 1.225 1.299 2.7013.9601 4.4282l-5.6323-1.3246c.095-.4749.057-.8402-.1149-1.096-.1717-.2558-.4148-.4209-.7293-.4949-.2196-.052-.4181-.02-.5943.096-.1773.1162-.2966.3076-.3591.5747-.089.3769.047.7362.4059 1.0776.358.3413.9523.7922 1.7831 1.3519.96.6403 1.7395 1.2212 2.3383 1.7432.5977.5223 1.0727 1.1643 1.424 1.9267.3512.7623.4125 1.6305.1828 2.6044-.2397 1.0212-.7069 1.8769-1.3994 2.5678-.6936.6908-1.5723 1.1512-2.6372 1.3814-1.066.2304-2.258.1902-3.5783-.12-1.9949-.4692-3.5304-1.3234-4.6064-2.563"/></g><g stroke-linecap="round" stroke-linejoin="bevel" stroke-width=".895746"><path d="m127.47376 108.3562v-2.935h4.7837v10.3158h-3.2884v-7.3808z"/><path d="m144.80216 109.3442c.1506-.1416.2264-.339.2264-.5932 0-.2821-.074-.4907-.2186-.6278-.1472-.1361-.3512-.2041-.6144-.2041-.2643 0-.4683.068-.6144.2041-.145.1371-.2186.3457-.2186.6278 0 .2542.076.4516.2264.5932.1505.1405.3524.2119.6066.2119.2543 0 .4561-.071.6066-.2119m-.9378 3.7891c.1272.136.3033.204.5286.204.3479 0 .5765-.1762.6846-.5285.1082-.3535.1617-.92.1617-1.7005-.1683.2631-.4137.4705-.7337.6211-.32.1505-.6824.2252-1.0861.2252-.8943 0-1.6135-.2821-2.1588-.8463-.5464-.5643-.8185-1.3783-.8185-2.441 0-.7058.1483-1.3202.4438-1.8421.2967-.5218.7204-.9243 1.2701-1.2066.5509-.282 1.1932-.4233 1.9269-.4233 1.4864 0 2.519.4376 3.0977 1.3121.5776.8754.8675 2.122.8675 3.74 0 1.8622-.2854 3.2594-.8541 4.1905s-1.5266 1.3972-2.8714 1.3972c-.7437 0-1.3827-.155-1.919-.4661-.5364-.31-.9479-.717-1.2344-1.2199-.2877-.5029-.4494-1.0471-.4873-1.6303h2.9204c.048.2732.1349.4773.262.6145"/><path d="m158.88456 110.6778c.7338-.766 1.1006-1.4841 1.1006-2.1521 0-.2252-.049-.3992-.1483-.5218-.098-.1227-.2275-.184-.388-.184-.1885 0-.3357.097-.4438.2899-.1082.1929-.1484.4862-.1205.882h-3.0341c.029-.8753.2197-1.5945.572-2.1599.3524-.5637.8107-.9776 1.376-1.2412.5643-.2631 1.1854-.3951 1.8622-.3951 1.2043 0 2.0863.2894 2.6461.8679.5598.5788.8397 1.3193.8397 2.2225 0 .95-.3033 1.841-.911 2.674-.6067.8329-1.366 1.5365-2.2782 2.1097h3.2316v2.5257h-7.296v-2.3562c1.2611-.9411 2.258-1.7942 2.9917-2.5614"/><path d="m170.68106 108.3562v-2.935h4.7837v10.3158h-3.2884v-7.3808z"/></g></g></svg>