<svg xmlns="http://www.w3.org/2000/svg" width="887px" height="831px" style="shape-rendering:geometricPrecision;text-rendering:geometricPrecision;image-rendering:optimizeQuality;fill-rule:evenodd;clip-rule:evenodd"><path fill="#fcfcfd" d="M886.5 395.5v44q-16.291 197.88-175 315.5a350 350 0 0 1-37 23 1162 1162 0 0 0 92 23.5l2 1a46.6 46.6 0 0 0-6 5.5q-3.164 2.86-7.5 2.5a4986 4986 0 0 1-127.5-10q-127.442 49.386-260 15.5Q208.418 770.867 122 630.5q-78.807-71.058-110-173-17.601-67.11-9-136a1398 1398 0 0 0 9-60Q34.962 165.547 127.5 132a203.3 203.3 0 0 1 57-8Q316.676-3.77 501.5 5 687.942 21.326 803 167.5q75.42 101.495 83.5 228" style="opacity:.986"/><path fill="#099fe2" d="M275.5 158.5q-39.339-27.95-88-31Q288.998 26.26 432.5 10 647.82-5.422 789 156.5q117.855 148.912 86 337Q837.364 674.067 680.5 770a101.3 101.3 0 0 1-17 8.5 1143 1143 0 0 1-122-41.5Q694.632 700.838 767 561.5q75.11-165.414-18-321-98.23-144.012-273.5-150-111.863.285-200 68" style="opacity:1"/><path fill="#f9fcfd" d="M474.5 25.5h18v6q26.657 1.425 18.5 27-7.392 9.231-19.5 9v6h-18v-7q-25.446-1.2-19.5-26 7.135-11.191 20.5-10zM525.5 33.5q8.597.276 17 2a929 929 0 0 1-1.5 15A101.5 101.5 0 0 1 552.5 38q9.525.55 19 2.5a229 229 0 0 1-18 18l11 24q-9.526.921-19-1.5a246 246 0 0 0-6.5-16.5q-2.96 6.676-2.5 14a83.4 83.4 0 0 1-18-2 3853 3853 0 0 0 7-43" style="opacity:1"/><path fill="#3da7e5" d="M489.5 43.5q6.547-.76 7 5.5-.306 6.553-7 6.5z" style="opacity:1"/><path fill="#0f9de2" d="M471.5 43.5h4v11q-8.026-1.026-5.5-9 1.075-.816 1.5-2" style="opacity:1"/><path fill="#fafcfd" d="M608.5 57.5q15.076-2.76 26.5 7-.844 7.794-4.5 15-5.434-9.465-16-6.5-11.067 11.16 3 18 4.671.185 9 .5a95 95 0 0 1-5 12.5q-19.6 1.574-27.5-16.5-3.528-20.439 14.5-30M647.5 71.5a135.3 135.3 0 0 1 27 15.5 34 34 0 0 1-6 10.5l-9-5.5q-4.41-1.329-3 2.5a63 63 0 0 1 9 6q-1.687 4.922-5.5 8a43 43 0 0 1-9.5-5q-2.082 1.636-1.5 4 5.95 2.59 10.5 7l-6 10a168.6 168.6 0 0 1-26-15.5 2043 2043 0 0 0 20-37.5" style="opacity:1"/><path fill="#fbfcfd" d="M683.5 92.5a466 466 0 0 1 23 14.5q8.424 7.629 2.5 17.5-4.9 2.401-10.5 2.5 4.29 5.522 2.5 12.5-6.192 10.483-17.5 5.5a302 302 0 0 1-24-17 1346 1346 0 0 1 24-35.5" style="opacity:1"/><path fill="#28a1e3" d="M692.5 110.5q7.752 3.888 0 7-2.25.071-3-2a18.7 18.7 0 0 1 3-5" style="opacity:1"/><path fill="#2ba2e3" d="M682.5 124.5q8.55 2.202 2 8-2.996-.73-4-3.5a15.4 15.4 0 0 0 2-4.5" style="opacity:1"/><path fill="#fafcfd" d="M733.5 132.5q9.672 4.144 16 13a825 825 0 0 1-19 42 195 195 0 0 0-12.5-11q.629-3.005 2.5-6a74 74 0 0 0-7-7.5q-3.39-.066-6 2.5a163 163 0 0 1-13-12 1101 1101 0 0 1 39-21" style="opacity:1"/><path fill="#27a0e3" d="M729.5 150.5q1.314-.197 2 1l-5 8a19.9 19.9 0 0 1-4-3.5 59.4 59.4 0 0 0 7-5.5" style="opacity:1"/><path fill="#f9fcfd" d="M758.5 170.5q21.22-.906 28 19l-.5 3a108 108 0 0 0-9.5 8q-1.861-14.65-16-12.5-9.971 9.293 1 18a23 23 0 0 0 5 2 260 260 0 0 1-11.5 9.5q-22.584-13.617-11-37 6.035-7.113 14.5-10" style="opacity:1"/><path fill="#fafcfd" d="M791.5 197.5q11.418 13.772 20 30a40.6 40.6 0 0 1-10 7q-1.95-4.398-6-7l-25 16a106.3 106.3 0 0 1-10-14 339 339 0 0 1 25.5-17q-.523-4.356-3.5-8a75 75 0 0 1 9-7" style="opacity:1"/><path fill="#dcb52f" d="M685.5 405.5v1q.25 68.002-.5 136-5.118 26.617-31.5 32.5l-103 1q-17.25 5.25-22.5 22.5-5.36-17.859-23.5-22.5l-102-1q-25.392-7.39-29.5-33.5-.75-67.998-.5-136v-185h313z" style="opacity:1"/><path fill="#fdfdfc" d="M377.5 225.5a22957 22957 0 0 1 303-1q.25 159.5-.5 319-1.917 9.833-8.5 17a1266 1266 0 0 0-43-50q-1.238-1.329-3-1 12.007-4.4 19.5-15 6.02-8.478 7.5-18-2.844 1.162-5 3a402 402 0 0 1-27 6q-4.219.405-8 1.5l5-7a478 478 0 0 1 36-14q16.39-12.011 18.5-32.5a30.5 30.5 0 0 0 0-11q-10.814 11.59-24.5 19-6.317 3.046-11.5 8l-.5-1 11.5-15q7.191-13.648 5-29a119.5 119.5 0 0 1-3.5-22 22.5 22.5 0 0 0-4 5q-8.775 7.06-14 17a39 39 0 0 0-2.5 5 2535 2535 0 0 0 0 42 36.2 36.2 0 0 1-4 11q1.823-18.753-5.5-36-.678-5.495-1.5-11a17.34 17.34 0 0 0-3.5 7q-6.127 9.609-8.5 21 .135 13.812 2.5 27.5a143 143 0 0 1-1 11.5q-1 0-1 1a5.73 5.73 0 0 0-3-1q1.201-2.312 1-5 3.132-15.562-4.5-30a67.5 67.5 0 0 0-4.5 10l-6 9q-4.816-8.085-11.5-15a61526 61526 0 0 1-199.5-226" style="opacity:1"/><path fill="#257cc0" d="M377.5 225.5a61526 61526 0 0 0 199.5 226q6.684 6.915 11.5 15-4.435 6.374-6.5 14a178 178 0 0 1-6.5 27q-9.827 12.78-26 13a222 222 0 0 0-26 2.5q-3.254 4.229-4.5 9.5a18.5 18.5 0 0 0-.5 6q4.642-.19 5.5-5a32 32 0 0 1 7.5-5.5 210 210 0 0 1 26-4.5q2.933-1.235 6-.5a198.6 198.6 0 0 0 35 11q7.5 1 15 0a634 634 0 0 1 20-4.5 4.93 4.93 0 0 0 3-.5q-19.55-21.599-48-16.5-3.513-.412 0-2.5 18.493-.75 37-.5 1.762-.329 3 1a1266 1266 0 0 1 43 50q-7.977 8.742-20 10.5l-102 1q-13.79 3.52-21.5 15.5-6.675-11.445-19.5-14-1.144-1.152-3-1.5-48.998-.75-98-.5-23.04-4.402-29.5-27-.75-159.5-.5-319" style="opacity:1"/><path fill="#fafcfd" d="M800.5 241.5q23.74-1.037 30.5 22 1.56 30.938-29.5 28.5-13.792-5.771-17.5-20.5-3.904-21.69 16.5-30" style="opacity:1"/><path fill="#1ba0e3" d="M803.5 258.5q12.752-1.485 12.5 11-6.033 10.688-16 4-5.973-9.397 3.5-15" style="opacity:1"/><path fill="#fafcfd" d="M839.5 293.5q3.17 1.29 3.5 5a845 845 0 0 1 10.5 39 1506 1506 0 0 1-42 12 95 95 0 0 0-4-15l1-2a438 438 0 0 1 28-8q-.115-5.469-3-10a739 739 0 0 1-30 8 314 314 0 0 1-4-17 464 464 0 0 0 40-12" style="opacity:1"/><path fill="#e21f24" d="M11.5 297.5q6.665 110.074 107 154 2.673 107.072 80 180.5 60.53 53.8 136 85 102.895 41.13 212 61a3856 3856 0 0 0 150 23.5h-2a1632 1632 0 0 1-236-25.5q-113.696-21.334-219-69Q126.425 652.438 57 547.5q-71.49-116.19-45.5-250" style="opacity:1"/><path fill="#feda16" d="M374.5 222.5h309q.25 160-.5 320-.75-159.5-.5-319h-307q-.727 163.146 1.5 326a7.3 7.3 0 0 0-2-3q-.75-161.999-.5-324" style="opacity:1"/><path fill="#fbf7ee" d="M601.5 294.5q3.812 2.91 0 6.5-5.007.75-5-4.5-.197-1.314 1-2 2.242 1.808 4 0" style="opacity:1"/><path fill="#d5af31" d="M629.5 265.5v-1q2.835-.305 4.5 2a25.2 25.2 0 0 1 0 10l-2.5 2.5-23 1q-1.242 2.988-4 4.5a24.3 24.3 0 0 1 3-5.5l23-1q4.34-4.363 2.5-10.5-1.224-1.984-3.5-2" style="opacity:1"/><path fill="#d8b234" d="M570.5 263.5v2q-1.494-.129-2.5 1-1.183 5.387.5 10.5a159 159 0 0 0 24 2q2.49 2.232 3 5.5a32.6 32.6 0 0 1-4-4.5l-23-1q-4.227-5.007-2.5-11.5 1.188-3.216 4.5-4" style="opacity:1"/><path fill="#f8d116" d="M570.5 265.5v9q29.76.495 59-1v-8q2.276.016 3.5 2 1.84 6.137-2.5 10.5l-23 1a24.3 24.3 0 0 0-3 5.5 308 308 0 0 0-4.5-8q-3.03.798-2.5 4h4v14q-1.758 1.808-4 0-1.197.686-1 2-2.387 4.747 3 7l-1 1a16.1 16.1 0 0 0-5-2q-4.904-8.99 4-14.5a11.8 11.8 0 0 0-2-3.5q-.51-3.268-3-5.5a159 159 0 0 1-24-2q-1.683-5.113-.5-10.5 1.006-1.129 2.5-1" style="opacity:1"/><path fill="#cd7124" d="M570.5 263.5h1v10h58a871 871 0 0 1-59 1v-11" style="opacity:1"/><path fill="#b53023" d="M627.5 243.5h-55v29h55l2-9v10h-58v-31a785 785 0 0 1 56 1" style="opacity:1"/><path fill="#d9601f" d="M572.5 264.5h55v8h-55z" style="opacity:1"/><path fill="#c34c38" d="M629.5 251.5v12l-2 9v-8h-55v-1h55v-11h-55v-1h56q.46-4.328-1-8a785 785 0 0 0-56-1v21h-1v-22h59z" style="opacity:1"/><path fill="#e46c70" d="M572.5 252.5h55v11h-55z" style="opacity:1"/><path fill="#ea5d1d" d="M627.5 243.5q1.46 3.672 1 8h-56v-8z" style="opacity:1"/><path fill="#f9d016" d="M633.5 239.5q1.707 4.206.5 9-1.694 2.462-4.5 3v-10h-59v9q-7.334-5.612-1-12.5a930 930 0 0 1 61 0z" style="opacity:1"/><path fill="#d7ad18" d="m633.5 239.5-3-1.5a930 930 0 0 0-61 0q-6.334 6.888 1 12.5v1q-2.806-.538-4.5-3-1.892-6.614 2.5-11.5 31.5-1 63 0 1.884.625 2 2.5" style="opacity:1"/><path fill="#2b2929" d="M187.5 127.5q48.661 3.05 88 31 88.174 70.254 63.5 181-11.129 36.771-35.5 66-1.352 1.185-2 3-41.736 42.63-101 53-42.358 5.146-82-10-100.334-43.926-107-154 5.89-111.032 106-157.5 33.874-12.61 70-12.5" style="opacity:1"/><path fill="#f7f7f7" d="M327.5 334.5h5q-2.367 17.354-10.5 33a168.6 168.6 0 0 1-22 31 295 295 0 0 0 2-25q15.67-15.828 23-37 1.492-.85 2.5-2" style="opacity:1"/><path fill="#fcfcfc" d="M175.5 301.5q20.466 5.724 41 11.5a124.7 124.7 0 0 0 23 3q8.203 26.62 7.5 54.5-19.765 24.276-47.5 38.5-26.644-.035-51-11a21.8 21.8 0 0 1-5-4q-9.08-27.56-7.5-56.5a978 978 0 0 0 39.5-36M277.5 266.5q18.27-1.871 35 5.5 21.925 44.682-8.5 83.5L289.5 370q-14.043 2.032-27-3.5a528 528 0 0 0-10-55q16.96-19.976 25-45" style="opacity:1"/><path fill="#fbfbfb" d="M34.5 241.5a196 196 0 0 1 18.5 13 286 286 0 0 0 7.5 56 114 114 0 0 1-10.5 17q-7.195 9.887-8.5 22-9.899-5.646-16.5-15-19.175-49.143 9.5-93" style="opacity:1"/><path fill="#fcfcfc" d="M113.5 208.5q28.78-.114 53 15.5 7.089 32.317 5.5 65.5a1184 1184 0 0 0-42.5 39.5q-32.752-4.594-59.5-24.5a218.9 218.9 0 0 1-4-53q17.017-29.283 47.5-43M239.5 165.5q65.246-.723 80.5 63 .616 13.668-5.5 26l-1.5 1a741 741 0 0 0-34.5-5.5q-17.18-31.094-47-50.5-1.337-7.118 1.5-14l1-18a61 61 0 0 0 5.5-2" style="opacity:1"/><path fill="#fbfbfb" d="M166.5 148.5q31.744-4.106 55 17.5a145.4 145.4 0 0 1 0 30.5 66.9 66.9 0 0 0-21 3.5 202 202 0 0 0-31 14.5q-21.558-13.353-47-16-2.47-15.16 1.5-30 19.197-14.468 42.5-20" style="opacity:1"/><path fill="#f5f5f5" d="M162.5 135.5q8.29-.482 16 1l-11 5.5q-22.58 4.167-42.5 15.5a76 76 0 0 0-12.5-7q23.624-12.155 50-15" style="opacity:1"/><path fill="#8b8b8a" d="M162.5 135.5q8.769-1.976 18 0-.686 1.197-2 1-7.71-1.482-16-1" style="opacity:1"/><path fill="#d4ae21" d="M604.5 284.5q-1.337 1.142-2 3a46 46 0 0 0 5.5 6q2.168 8.656-5.5 13a305 305 0 0 0 15 24.5 222 222 0 0 1 31 7L628 360.5a261 261 0 0 0 2.5 33l-1 1a254 254 0 0 1-6-3 8.4 8.4 0 0 0 4-.5 994 994 0 0 1-17-23.5 62.4 62.4 0 0 1 6-7.5 22.7 22.7 0 0 0-7-3q2.816-.864 5.5.5 1.92-.17 2.5-2-.835-2.603-1-5-1.783-1.393-4-1a257 257 0 0 1 32-10.5 481 481 0 0 0-27.5-6.5q-3.514 1.769-5.5 5-4.678-2.055-10-3-1.39 5.41-1.5 17-2.424 1.952-4.5 0a2.43 2.43 0 0 0 2-.5q-5.78-10.658 1.5-.5 1-21 0-42a844 844 0 0 0-14.5 23.5 248 248 0 0 0-27 7 1650 1650 0 0 0 30 10.5q-2.253 3.402-4 7.5a2.43 2.43 0 0 0 2 .5q-4.543 2.758-10 4a210 210 0 0 0-2.5 28 309 309 0 0 1 12.5-16l6 1.5a11.4 11.4 0 0 0 2 2.5q4.734-2.016 4.5 3-2.817.83-4.5 3a708 708 0 0 1-22.5 11q.19-16.082 2.5-32a667 667 0 0 0-20.5-23 4.93 4.93 0 0 1-.5-3 504 504 0 0 0 31-6 271 271 0 0 0 14-24q-2.05-2.01-4-4a16.1 16.1 0 0 1 5 2l1-1q-5.387-2.253-3-7-.007 5.25 5 4.5 3.812-3.59 0-6.5v-14h-4q-.53-3.202 2.5-4a308 308 0 0 1 4.5 8" style="opacity:1"/><path fill="#fcd418" d="M612.5 349.5a31.6 31.6 0 0 0-9.5 3l-1.5-1a101.4 101.4 0 0 0 10-14q1.986-3.231 5.5-5a481 481 0 0 1 27.5 6.5 257 257 0 0 0-32 10.5M595.5 351.5l-8-2a1650 1650 0 0 1-30-10.5 248 248 0 0 1 27-7 844 844 0 0 1 14.5-23.5q1 21 0 42-7.28-10.158-1.5.5a2.43 2.43 0 0 1-2 .5" style="opacity:1"/><path fill="#f8d212" d="M602.5 290.5q9.494 6.376.5 13l-1.5-.5q3.5-2 3-6a83 83 0 0 0-2-6.5" style="opacity:1"/><path fill="#fafcfd" d="M830.5 353.5q22.719-2.77 29.5 19 4.047 33.77-29.5 31.5-14.088-5.37-16.5-20.5-3.519-21.677 16.5-30" style="opacity:1"/><path fill="#f6f6f6" d="M28.5 353.5a65.7 65.7 0 0 1 14.5 9q19.128 30.143 47 53l7.5 17-1 1q-47.47-28.477-68-80" style="opacity:1"/><path fill="#fcd418" d="M585.5 373.5a309 309 0 0 0-12.5 16 210 210 0 0 1 2.5-28q5.457-1.242 10-4a218 218 0 0 0 11.5-3l1.5 1a8814 8814 0 0 0-13 18" style="opacity:1"/><path fill="#fbd319" d="M610.5 367.5a994 994 0 0 0 17 23.5 8.4 8.4 0 0 1-4 .5 352 352 0 0 1-23-10q-.25-13.509.5-27 4.764 6.544 9.5 13" style="opacity:1"/><path fill="#c29e1f" d="M611.5 337.5a101.4 101.4 0 0 1-10 14l1.5 1a31.6 31.6 0 0 1 9.5-3q2.217-.393 4 1 .165 2.397 1 5-.58 1.83-2.5 2-2.684-1.364-5.5-.5a22.7 22.7 0 0 1 7 3 62.4 62.4 0 0 0-6 7.5 4438 4438 0 0 1-9.5-13q-.75 13.491-.5 27a29.4 29.4 0 0 1-7 2q1.683-2.17 4.5-3 .234-5.016-4.5-3a11.4 11.4 0 0 1-2-2.5l-6-1.5a8814 8814 0 0 1 13-18l-1.5-1a218 218 0 0 1-11.5 3 2.43 2.43 0 0 1-2-.5q1.747-4.098 4-7.5l8 2q2.076 1.952 4.5 0 .11-11.59 1.5-17 5.322.945 10 3" style="opacity:1"/><path fill="#1ba0e3" d="M833.5 370.5q13.488-1.259 12.5 12-2.7 5.603-9 5-10.488-.438-9-11 2.04-3.784 5.5-6" style="opacity:1"/><path fill="#fbfbfb" d="M134.5 404.5a339 339 0 0 0 31 10.5 210 210 0 0 0 33 5l32 26q-52.945 22.7-106 0-17.95-10.686-24-30.5 18.46-1.242 34-11" style="opacity:1"/><path fill="#cdcbe0" d="M685.5 406.5v-1h100q.488 11.778-1 23v-22z" style="opacity:1"/><path fill="#fafcfd" d="M861.5 435.5q-1.488 11.724-1 24h-44v-18h32v-7a111.2 111.2 0 0 1-25-1.5q-3.909-2.907-5.5-7.5a129 129 0 0 1-.5-16h12q-.937 5.205 3 8.5a238 238 0 0 0 29 1.5z" style="opacity:1"/><path fill="#f9d118" d="M644.5 387.5h2q-4.864 9.944-6.5 21a1330 1330 0 0 1-6.5 38q-2.153 3.147-3.5 7-.465-17.015-1.5-34a146 146 0 0 1 2-15q5.225-9.94 14-17" style="opacity:1"/><path fill="#bc9920" d="M646.5 387.5q.991 2.45 1 5.5-1.779 24.788-8.5 48.5a41 41 0 0 0-5 7 2.43 2.43 0 0 1-.5-2 1330 1330 0 0 0 6.5-38q1.636-11.056 6.5-21" style="opacity:1"/><path fill="#838586" d="M434.5 340.5a96.7 96.7 0 0 1 27 2.5q.686.621 1 1.5a25.9 25.9 0 0 1-10 1 46 46 0 0 0 1 12.5q-.195 1.588-1.5 2.5-1 42 0 84a208 208 0 0 1 13 24q2.754 3.313 7 4a127 127 0 0 0 7 18 24 24 0 0 1 8.5 4.5l12 1q2.882.54 5 2.5-7.16 8.54-8 20a7.9 7.9 0 0 0 1 3.5 31.7 31.7 0 0 1 10.5 5.5q1 6 0 12a611 611 0 0 1-17.5 4q-2.35.034-4-1.5l-23-.5q-20.167.373-40 1a43 43 0 0 1-5-1.5q-2.79-5.8-9-7-1.384-3.062-1-6.5h-4a93.5 93.5 0 0 1 3-28q2.466.32 4.5-1l1-11a58.5 58.5 0 0 0 6-14 7.25 7.25 0 0 1 2.5-2l4 3a46.5 46.5 0 0 1 4-13.5q-2.057-3.479-2-7.5 3.535.245 7-.5a24 24 0 0 1 4.5-8.5 1722 1722 0 0 0 0-83q-2.597-3.543-2.5-8h4a41.7 41.7 0 0 0 1-9q-6.465.87-13 1v-3q3.597.361 6-2" style="opacity:1"/><path fill="#f9f9f9" d="M441.5 363.5h6a1731 1731 0 0 1 1 81h-8q-.486-40.611 1-81" style="opacity:1"/><path fill="#8ecff1" d="M861.5 435.5v25q-6.798.477-13-1h12q-.488-12.276 1-24" style="opacity:1"/><path fill="#0f9fe2" d="M118.5 451.5q39.642 15.146 82 10-1.563 71.053 40.5 128 33.462 41.964 77.5 72.5 74.38 48.938 159 78 137.277 45.825 281 65.5l-3.5 1a6528 6528 0 0 0-43.5-3q-7.125-2.297-15-2a3856 3856 0 0 1-150-23.5q-109.105-19.87-212-61-75.47-31.2-136-85-77.327-73.428-80-180.5" style="opacity:1"/><path fill="#d6af26" d="M647.5 441.5q13.686-7.41 24.5-19a30.5 30.5 0 0 1 0 11q-2.11 20.489-18.5 32.5a478 478 0 0 0-36 14l-5 7q3.781-1.095 8-1.5a178 178 0 0 0-16 7.5q-3.305 3.892-8 5.5a158 158 0 0 0 7.5-7 34 34 0 0 0 1.5-8q0-1 1-1a12.9 12.9 0 0 0 .5 5q1.412-3.34 3.5-6-.16 2.818 1.5 1a53.2 53.2 0 0 0 6-11q.75-22.494.5-45 7.323 17.247 5.5 36a36.2 36.2 0 0 0 4-11 2535 2535 0 0 1 0-42 39 39 0 0 1 2.5-5 146 146 0 0 0-2 15q1.035 16.985 1.5 34 1.347-3.853 3.5-7a2.43 2.43 0 0 0 .5 2 41 41 0 0 1 5-7q6.721-23.712 8.5-48.5-.009-3.05-1-5.5h-2a22.5 22.5 0 0 1 4-5 119.5 119.5 0 0 0 3.5 22q2.191 15.352-5 29l-11.5 15 .5 1q5.183-4.954 11.5-8" style="opacity:1"/><path fill="#f9fcfd" d="m813.5 467.5 44 7a267 267 0 0 0-3 16l-3 1a110 110 0 0 0-13-2q-.426 10.036-7 17.5-19.226 8.001-22-12.5z" style="opacity:1"/><path fill="#219ee2" d="M821.5 486.5a19.2 19.2 0 0 0 6 1q.539 6.73-5.5 5a18.5 18.5 0 0 1-.5-6" style="opacity:1"/><path fill="#383184" d="M303.5 405.5h69q-.25 68.002.5 136 4.108 26.11 29.5 33.5l102 1q18.14 4.641 23.5 22.5 5.25-17.25 22.5-22.5l103-1q26.382-5.883 31.5-32.5.75-67.998.5-136h99v22q-17.283 174.928-168 263.5-46.407 25.302-98.5 34.5-94.583-37.213-171.5-102.5-38.788-34.863-59.5-82.5-25.42-70.202 14.5-133 .648-1.815 2-3" style="opacity:1"/><path fill="#dcb20b" d="M407.5 571.5q49.002-.25 98 .5 1.856.348 3 1.5a55957 55957 0 0 1-101-2" style="opacity:1"/><path fill="#f2f2f2" d="M500.5 529.5h6a13.1 13.1 0 0 1-1 7 25.6 25.6 0 0 1-5-7" style="opacity:1"/><path fill="#efc71c" d="M549.5 520.5a21.1 21.1 0 0 1 9 1q-.544 1.025-1 2a210 210 0 0 0-26 4.5 32 32 0 0 0-7.5 5.5q-.858 4.81-5.5 5a18.5 18.5 0 0 1 .5-6q1.246-5.271 4.5-9.5a222 222 0 0 1 26-2.5" style="opacity:1"/><path fill="#f7d01c" d="M588.5 512.5q28.45-5.099 48 16.5a4.93 4.93 0 0 1-3 .5q-.166-.925-1-1.5-33.382-8.673-68-8a51.6 51.6 0 0 1 15-5l-3-1a103 103 0 0 0 8.5-4.5q-.986 2.991-4.5 4.5 4.379.65 8-1.5" style="opacity:1"/><path fill="#c39f24" d="M603.5 477.5a85 85 0 0 0-.5-13q-4.042 4.722-4 11-5.085 13.497-10.5 27l.5 2a54.5 54.5 0 0 1 6.5-6h1a19.6 19.6 0 0 1-3.5 4q-1.032 1.248.5 2a185.6 185.6 0 0 1 37-10.5q11.139-4.558 19-13.5-.686-1.197-2-1 2.156-1.838 5-3-1.48 9.522-7.5 18-7.493 10.6-19.5 15-18.507-.25-37 .5-3.513 2.088 0 2.5-3.621 2.15-8 1.5 3.514-1.509 4.5-4.5a103 103 0 0 1-8.5 4.5l3 1a51.6 51.6 0 0 0-15 5q34.618-.673 68 8 .834.575 1 1.5a634 634 0 0 0-20 4.5q-7.5 1-15 0a198.6 198.6 0 0 1-35-11q-3.067-.735-6 .5.456-.975 1-2a21.1 21.1 0 0 0-9-1q16.173-.22 26-13-.366 4.144-4 6.5 4.338-.812 7.5-4.5 16.64-25.082 18-55-.565 2.163-2.5 3a67.5 67.5 0 0 1 4.5-10q7.632 14.438 4.5 30" style="opacity:1"/><path fill="#fad219" d="M647.5 479.5q1.314-.197 2 1-7.861 8.942-19 13.5a185.6 185.6 0 0 0-37 10.5q-1.532-.752-.5-2a19.6 19.6 0 0 0 3.5-4q4.695-1.608 8-5.5a178 178 0 0 1 16-7.5 402 402 0 0 0 27-6" style="opacity:1"/><path fill="#eee" d="M477.5 491.5q5.166 1.414 7 6.5a4.93 4.93 0 0 0 3 .5q3.148 7.012-4 5.5 2.054 4.95-1 9.5-.807-3.396 1-7-2-3-5-5a25.9 25.9 0 0 1-1-10" style="opacity:1"/><path fill="#297bc1" d="M602.5 482.5a5.73 5.73 0 0 1 3 1 34 34 0 0 1-1.5 8 158 158 0 0 1-7.5 7h-1a85.6 85.6 0 0 0 7-16" style="opacity:1"/><path fill="#d1ac1d" d="M603.5 477.5q.201 2.688-1 5a85.6 85.6 0 0 1-7 16 54.5 54.5 0 0 0-6.5 6l-.5-2q5.415-13.503 10.5-27-.042-6.278 4-11 .749 6.481.5 13" style="opacity:1"/><path fill="#f6ce1c" d="M575.5 507.5a178 178 0 0 0 6.5-27q2.065-7.626 6.5-14l6-9q1.935-.837 2.5-3-1.36 29.918-18 55-3.162 3.688-7.5 4.5 3.634-2.356 4-6.5" style="opacity:1"/><path fill="#e5e5e5" d="M421.5 474.5q4.11 3.173 9 1.5-2.934 5.219-9 5a32.8 32.8 0 0 0-3.5 5.5q-.225-6.576 3.5-12" style="opacity:1"/><path fill="#f4f4f4" d="M429.5 455.5q5.208.411 11-1v14h3q.416-4.422-1-8.5a89 89 0 0 1 7-3.5q2.286 5.675 3 12 3.555-1.464 3 3-.823 5.071-6 5.5 5.03 3.85 11 2 3.629 2.263 3 6.5h-9a19.4 19.4 0 0 1-1 8q3.76 3.212 8 0-1.16-1.817-2.5 0-.845-1.838 1-3 3.958.271 7.5 0a62.5 62.5 0 0 1-9.5 10q-2.151-.645-3.5-2.5-2.418-1.08-4.5.5-1 1 0 2 1.34-1.817 2.5 0a7.3 7.3 0 0 0-2 3.5q2.358 4.378 2 9.5a4.93 4.93 0 0 0 3-.5q-1.89-2.72 0-5.5 5.514 3.599.5-2-1-2 0-4 1.574 1.526 3.5.5a14.5 14.5 0 0 1 5-4 38 38 0 0 1 5.5-8.5q.274 4.118-2.5 7.5 1.386 2.717 2.5-.5a96 96 0 0 1-1.5 20 30 30 0 0 1 5-.5 73.4 73.4 0 0 0 7 7.5 8.9 8.9 0 0 1 4-3q4.375 3.35 9.5 1 4.201 3.25 9.5 4.5a48.3 48.3 0 0 0-11 2.5 3.65 3.65 0 0 1-1.5-1q-1.171 2.166.5 4 1.344-1.509 2 0a26 26 0 0 0-4 4.5q-3.066.072-6-1.5a7.25 7.25 0 0 0-2.5 2q-.926-1.423.5-2.5-4.659-1.266-8.5 1.5-2.344-.903.5-2.5-4.659-1.266-8.5 1.5-6.206-4.598-14-5-6.126.442-11.5 3v-3q-5.43.232-10 3a14.7 14.7 0 0 1-1.5-5q-1.676 2.436-4.5 3a87.4 87.4 0 0 0-17-5q-.564-12.357 3.5-24 4.641-.439 4.5-5 3.333-.483 5.5 2 3.473-4.916 4-11l7.5-7.5a25.8 25.8 0 0 1 8-2 18.5 18.5 0 0 0-6-.5 61 61 0 0 0-.5-11l-1-1a36.2 36.2 0 0 1-2.5 8q-1.26-5.971 2-11.5-.452-3.6-2-6.5" style="opacity:1"/><path fill="#7f8181" d="M417.5 519.5q4.12-.47 8 1a3.65 3.65 0 0 1-1 1.5 49.2 49.2 0 0 1-14 0 47 47 0 0 1 7-2.5" style="opacity:1"/><path fill="#7b7e7e" d="M455.5 518.5q5.579-.746 10 2.5l-3.5 3.5a11.3 11.3 0 0 0-1.5-3.5q-3.366-.075-5-2.5" style="opacity:1"/><path fill="#848686" d="M433.5 500.5q3.618-.384 5 3a141 141 0 0 0-5 9 7.3 7.3 0 0 1-2-3q1.003-4.545 2-9" style="opacity:1"/><path fill="#838585" d="M421.5 499.5q.595-1.538 2-.5a11.3 11.3 0 0 1 1.5 3.5q.086 6.642.5 13-4.897.301-8-3.5-3.945-1.268-7 1.5l-1-1.5a14.3 14.3 0 0 0 2.5-5.5q1.112-1.712 2.5 0a30 30 0 0 1 4.5-6q1.31.353 2.5 1 1.91-1.135 0-2" style="opacity:1"/><path fill="#7a7d7d" d="M432.5 485.5a12.9 12.9 0 0 1 5 .5q-3.542.296-5 3.5-3.937-2.047 0-4" style="opacity:1"/><path fill="#f6ce1c" d="M610.5 481.5q-2.088 2.66-3.5 6a12.9 12.9 0 0 1-.5-5q.731-5.713 1-11.5a171 171 0 0 1-2.5-27.5q2.373-11.391 8.5-21 1.725-2.026 2 .5a1157 1157 0 0 0-1.5 46.5 80 80 0 0 1-3.5 12" style="opacity:1"/><path fill="#e9e9e9" d="M445.5 447.5q2.818-.16 1 1.5 3.236.117 6 .5-5.325.774-10 3-2.281-.57-5-.5 4.586-1.374 8-4.5" style="opacity:1"/><path fill="#fbd317" d="M669.5 428.5q-10.747 17.511-27 30a108 108 0 0 0-17.5 13 188 188 0 0 1 9-19 417 417 0 0 1 13.5-11q12.79-3.776 21.5-14 .598.343.5 1" style="opacity:1"/><path fill="#c09c1f" d="M618.5 426.5q.25 22.506-.5 45a53.2 53.2 0 0 1-6 11q-1.66 1.818-1.5-1a80 80 0 0 0 3.5-12q.284-23.298 1.5-46.5-.275-2.526-2-.5a17.34 17.34 0 0 1 3.5-7q.822 5.505 1.5 11" style="opacity:1"/><path fill="#af8e22" d="M669.5 428.5q1.455 9.067-2.5 18-11.637 8.45-24.5 12 16.253-12.489 27-30" style="opacity:1"/><path fill="#089fe2" d="M134.5 642.5q40.57 35.784 89 60.5 89.216 43.738 186 66a1367 1367 0 0 0 207 31q-172.917 61.519-336-23-89.494-49.24-146-134.5" style="opacity:1"/><path fill="#ec7171" d="M694.5 801.5h2q7.875-.297 15 2-8.79-.325-17-2" style="opacity:1"/></svg>