<?xml version="1.0" encoding="UTF-8" standalone="no"?>
<!-- Generator: Adobe Illustrator 22.1.0, SVG Export Plug-In . SVG Version: 6.00 Build 0)  -->

<svg
   xmlns:dc="http://purl.org/dc/elements/1.1/"
   xmlns:cc="http://creativecommons.org/ns#"
   xmlns:rdf="http://www.w3.org/1999/02/22-rdf-syntax-ns#"
   xmlns:svg="http://www.w3.org/2000/svg"
   xmlns="http://www.w3.org/2000/svg"
   xmlns:sodipodi="http://sodipodi.sourceforge.net/DTD/sodipodi-0.dtd"
   xmlns:inkscape="http://www.inkscape.org/namespaces/inkscape"
   version="1.1"
   id="图层_1"
   x="0px"
   y="0px"
   viewBox="0 0 197.03572 252"
   xml:space="preserve"
   sodipodi:docname="shenzen.svg"
   width="197.03572"
   height="252"
   inkscape:version="0.92.4 (5da689c313, 2019-01-14)"><metadata
   id="metadata155"><rdf:RDF><cc:Work
       rdf:about=""><dc:format>image/svg+xml</dc:format><dc:type
         rdf:resource="http://purl.org/dc/dcmitype/StillImage" /><dc:title></dc:title></cc:Work></rdf:RDF></metadata><defs
   id="defs153" /><sodipodi:namedview
   pagecolor="#ffffff"
   bordercolor="#666666"
   borderopacity="1"
   objecttolerance="10"
   gridtolerance="10"
   guidetolerance="10"
   inkscape:pageopacity="0"
   inkscape:pageshadow="2"
   inkscape:window-width="1366"
   inkscape:window-height="705"
   id="namedview151"
   showgrid="false"
   fit-margin-top="1"
   fit-margin-right="1"
   fit-margin-bottom="1"
   fit-margin-left="1"
   inkscape:zoom="0.834386"
   inkscape:cx="141.55771"
   inkscape:cy="167.28658"
   inkscape:window-x="-8"
   inkscape:window-y="-8"
   inkscape:window-maximized="1"
   inkscape:current-layer="图层_1" />
<style
   type="text/css"
   id="style2">
	.st0{fill:#FFFFFF;}
	.st1{fill:#C5B485;}
	.st2{fill:#C3162D;}
	.st3{fill:#03213D;}
	.st4{fill:#07213E;}
	.st5{fill:#C6B584;}
</style>
<g
   id="g148"
   transform="matrix(0.35714286,0,0,0.35714286,-44.392858,-16.857143)">
	<g
   id="g50">
		<g
   id="g8">
			<path
   class="st0"
   d="m 661,286.7 -7.4,-2.3 c -13.6,-4.3 -27.5,-8.3 -41.4,-11.9 v -3.9 -37.8 -7.3 -2.4 c 18.3,-14.2 29.8,-23.8 29.8,-23.8 0,0 -57,17 -94.1,16.7 -20.6,0 -38.9,-3.3 -54.6,-9.7 -9.6,-4 -19.2,-7.5 -28.7,-10.4 v -16.3 -9.7 l -9.2,3 -30.7,9.8 -4.9,1.6 v 1.5 c -0.5,-0.1 -1,-0.1 -1.5,-0.2 -8.1,-1 -13.4,-1.1 -15.3,-1.1 -0.7,0 -1.1,0 -1.1,0 l -1.8,0.1 -1.8,-0.1 c 0,0 -0.4,0 -1.1,0 -1.9,0 -7.3,0.1 -15.3,1.1 -0.5,0.1 -1,0.1 -1.5,0.2 v -1.5 l -4.9,-1.6 -30.7,-9.8 -9.2,-3 v 9.7 16.3 c -9.5,3 -19.1,6.5 -28.7,10.4 -15.7,6.5 -34,9.7 -54.6,9.7 -37.2,0.3 -94.1,-16.7 -94.1,-16.7 0,0 11.5,9.6 29.8,23.8 v 2.4 7.3 37.8 3.9 c -13.9,3.6 -27.8,7.6 -41.4,11.9 l -7.4,2.3 -5,1.6 v 5.2 7.8 142.8 16.2 6 l 5.9,1 25.4,4.3 1.9,0.3 1.8,-0.7 c 6.1,-2.4 12.4,-4.7 18.7,-6.9 v 28.3 c 0,46.1 45,103 82.8,142.6 46.6,48.9 98.1,88.6 126.2,104.8 l 2.9,1.7 0.3,0.2 0.3,-0.2 2.9,-1.7 c 28.1,-16.2 79.6,-55.9 126.2,-104.8 37.8,-39.6 82.8,-96.5 82.8,-142.6 v -28.3 c 6.3,2.2 12.6,4.5 18.7,6.9 l 1.8,0.7 1.9,-0.3 25.4,-4.3 5.9,-1 v -6 -16.2 -142.8 -7.8 -5.2 z"
   id="path4"
   inkscape:connector-curvature="0"
   style="fill:#ffffff" />
			<path
   class="st1"
   d="m 464.6,167.8 v 9.7 16.3 c 9.5,3 19.1,6.5 28.7,10.4 15.7,6.5 34,9.7 54.6,9.7 0.4,0 0.7,0 1.1,0 37.2,0 93,-16.7 93,-16.7 0,0 -11.5,9.6 -29.8,23.8 v 2.4 7.3 37.8 3.9 c 13.9,3.6 27.8,7.6 41.4,11.9 l 7.4,2.3 5,1.6 v 5.2 7.8 142.8 16.2 6 l -5.9,1 -25.4,4.3 -1.9,0.3 -1.8,-0.7 c -6.1,-2.4 -12.4,-4.7 -18.7,-6.9 v 28.3 c 0,46.1 -45,103 -82.8,142.6 -46.6,48.9 -98.1,88.6 -126.2,104.8 l -2.9,1.7 -0.3,0.2 -0.3,-0.2 -2.9,-1.7 C 368.8,723.7 317.3,684 270.7,635.1 232.9,595.5 187.9,538.6 187.9,492.5 v -28.3 c -6.3,2.2 -12.6,4.5 -18.7,6.9 l -1.8,0.7 -1.9,-0.3 -25.4,-4.3 -5.9,-1 v -6 -16.2 -142.7 -7.8 -5.2 l 5,-1.6 7.4,-2.3 c 13.6,-4.3 27.5,-8.3 41.4,-11.9 v -3.9 -37.8 -7.3 -2.4 c -18.3,-14.2 -29.8,-23.8 -29.8,-23.8 0,0 55.9,16.7 93,16.7 0.4,0 0.7,0 1.1,0 20.6,0 38.9,-3.3 54.6,-9.7 9.6,-4 19.2,-7.5 28.7,-10.4 v -16.3 -9.7 l 9.2,3 30.7,9.8 4.9,1.6 v 1.5 c 0.5,-0.1 1,-0.1 1.5,-0.2 8.1,-1 13.4,-1.1 15.3,-1.1 0.7,0 1.1,0 1.1,0 l 1.8,0.1 1.8,-0.1 c 0,0 0.4,0 1.1,0 1.9,0 7.3,0.1 15.3,1.1 0.5,0.1 1,0.1 1.5,0.2 v -1.5 l 4.9,-1.6 30.7,-9.8 9.2,-3.1 m 7.1,-9.7 -9.2,3 -9.2,3 -30.7,9.8 -4.9,1.6 -2,0.6 c -6.5,-0.7 -11,-0.7 -12.7,-0.7 -0.9,0 -1.3,0 -1.3,0 l -1.6,0.1 -1.6,-0.1 c 0,0 -0.4,0 -1.3,0 -1.8,0 -6.2,0.1 -12.7,0.7 l -2,-0.6 -4.9,-1.6 -30.7,-9.8 -9.2,-3 -9.2,-3 v 9.7 9.7 11.1 c -8,2.7 -16.2,5.7 -24.3,9 -14.8,6.1 -32.3,9.2 -51.9,9.2 v 0 0 c -0.3,0 -0.7,0 -1,0 -35.7,0 -90.4,-16.2 -91,-16.4 l -33.2,-9.9 26.7,22.2 c 0.1,0.1 10.7,8.9 27.3,21.8 v 6.3 36.2 c -12.2,3.3 -24.4,6.8 -36.4,10.6 l -7.4,2.3 -5,1.6 -5,1.6 v 5.2 5.2 7.8 142.8 16.2 6 6 l 5.9,1 5.9,1 25.4,4.3 1.9,0.3 1.9,0.3 1.8,-0.7 1.8,-0.7 c 3,-1.2 6,-2.3 9.1,-3.4 v 18.2 c 0,22.1 9.5,48.2 28.3,77.6 14,21.8 32.9,45.3 56.4,69.9 47.1,49.4 99.3,89.6 127.8,106 l 2.9,1.7 0.3,0.2 3.5,2 3.5,-2 0.3,-0.2 2.9,-1.7 c 28.5,-16.4 80.7,-56.6 127.8,-106 23.3,-24.6 42.3,-48.1 56.3,-70 18.8,-29.4 28.3,-55.5 28.3,-77.6 v -18.2 c 3,1.1 6.1,2.3 9.1,3.4 l 1.8,0.7 1.8,0.7 1.9,-0.3 1.9,-0.3 25.4,-4.3 5.9,-1 5.9,-1 v -6 -6 -16.2 -142.7 -7.8 -5.2 -5.2 l -5,-1.6 -5,-1.6 -7.4,-2.3 c -12,-3.8 -24.2,-7.3 -36.4,-10.6 v -36.2 -6.3 c 16.6,-12.9 27.2,-21.7 27.3,-21.8 l 26.7,-22.2 -33.2,9.9 c -0.5,0.2 -55.3,16.4 -91,16.4 -0.3,0 -0.7,0 -1,0 v 0 0 c -19.6,0 -37.1,-3.1 -51.9,-9.2 -8.1,-3.3 -16.3,-6.4 -24.3,-9 v -11.1 -9.7 -9.7 z"
   id="path6"
   inkscape:connector-curvature="0"
   style="fill:#c5b485" />
		</g>
		<g
   id="g48">
			<g
   id="g38">
				<path
   class="st2"
   d="m 497.6,234.7 -1,12.5 c -8.7,-1 -17.8,-2 -27.3,-2.8 V 232 h -11.8 v -9.4 c -11.2,-2.6 -21.8,-4.4 -30.7,-5.7 0,8.2 0,15.1 0,15.1 h -2.4 v 9.8 c -8.1,-0.2 -16.3,-0.4 -24.8,-0.4 -8.5,0 -16.7,0.1 -24.8,0.4 V 232 h -2.4 c 0,0 0,-6.9 0,-15.1 -8.9,1.3 -19.5,3.1 -30.7,5.7 V 232 H 330 v 12.4 c -9.5,0.8 -18.6,1.7 -27.3,2.8 l -1,-12.5 -107.6,-3.8 v 37.8 c 0,0 0,4.8 0,13 0,40.7 0,165.6 0,211 0,79.2 147,207.6 205.4,241.3 58.4,-33.7 205.4,-162 205.4,-241.3 0,-45.4 0,-170.3 0,-211 0,-8.2 0,-13 0,-13 v -37.8 z"
   id="path10"
   inkscape:connector-curvature="0"
   style="fill:#c3162d" />
				<path
   class="st2"
   d="m 136.6,230.7 c -0.1,0 -0.1,0 -0.2,0.1 -0.1,0 -0.1,0 -0.2,0.1 0.1,-0.1 0.2,-0.2 0.4,-0.2 z"
   id="path12"
   inkscape:connector-curvature="0"
   style="fill:#c3162d" />
				<g
   id="g22">
					<g
   id="g18">
						<polygon
   class="st3"
   points="392.6,250.9 374.9,232 374.9,253.3 "
   id="polygon14"
   style="fill:#03213d" />
						<path
   class="st3"
   d="m 397.3,214.3 v -12.6 c -7.7,0 -29.2,-1.7 -86.8,15.6 -62.6,21.3 -122.8,-5.9 -122.8,-5.9 5.2,7.5 17.8,15.1 34,20.5 l 79.9,2.9 1.1,12.5 c 8.7,-1 23.7,-2.5 23.7,-2.5 v -10.4 l -17.7,-1.9 c 1.6,-0.6 3.2,-1.1 4.7,-1.8 40.3,-14 83.9,-16.4 83.9,-16.4 z"
   id="path16"
   inkscape:connector-curvature="0"
   style="fill:#03213d" />
					</g>
					<path
   class="st2"
   d="m 372.5,191.9 c 0,-0.5 0,-0.9 0,-1.2 0,-3.5 -16.5,-8.3 -30.7,-8.3 V 199 c -9.9,2.9 -21,6.7 -33.1,11.7 -47.4,19.6 -103.8,5.9 -117.4,2.1 0.8,0.3 1.8,0.7 3,1.1 0,0 0.1,0 0.1,0 0.5,0.2 1.1,0.4 1.7,0.6 0.1,0 0.2,0.1 0.2,0.1 0.6,0.2 1.2,0.4 1.9,0.6 0,0 0.1,0 0.1,0 0.6,0.2 1.3,0.4 2,0.6 0.1,0 0.2,0.1 0.2,0.1 0.7,0.2 1.4,0.4 2.1,0.7 0.1,0 0.3,0.1 0.4,0.1 0.7,0.2 1.5,0.4 2.2,0.7 0.1,0 0.3,0.1 0.4,0.1 0.8,0.2 1.6,0.4 2.4,0.7 0.1,0 0.1,0 0.2,0 0.8,0.2 1.7,0.5 2.6,0.7 0.2,0 0.4,0.1 0.5,0.1 0.9,0.2 1.7,0.4 2.6,0.7 0.2,0 0.4,0.1 0.6,0.1 0.9,0.2 1.9,0.4 2.8,0.7 0.1,0 0.3,0.1 0.4,0.1 0.9,0.2 1.8,0.4 2.7,0.6 0.2,0 0.4,0.1 0.6,0.1 1,0.2 2,0.4 3,0.6 0.3,0 0.5,0.1 0.8,0.1 1,0.2 2.1,0.4 3.1,0.5 0.2,0 0.4,0.1 0.7,0.1 1,0.2 2,0.3 3.1,0.5 0.1,0 0.3,0 0.4,0.1 1.1,0.2 2.2,0.3 3.4,0.5 0.3,0 0.5,0.1 0.8,0.1 1.1,0.1 2.3,0.3 3.4,0.4 0.3,0 0.5,0.1 0.8,0.1 1.2,0.1 2.4,0.2 3.6,0.3 0.1,0 0.3,0 0.4,0 1.2,0.1 2.3,0.2 3.5,0.3 0.2,0 0.5,0 0.7,0 1.2,0.1 2.5,0.1 3.7,0.2 0.3,0 0.6,0 0.9,0 1.3,0 2.5,0.1 3.8,0.1 0.2,0 0.4,0 0.7,0 1.2,0 2.5,0 3.8,0 0.2,0 0.3,0 0.5,0 1.3,0 2.7,-0.1 4,-0.1 0.3,0 0.6,0 0.8,0 1.3,-0.1 2.7,-0.1 4,-0.2 0.3,0 0.5,0 0.8,-0.1 1.4,-0.1 2.8,-0.2 4.2,-0.3 0.1,0 0.1,0 0.2,0 1.4,-0.1 2.8,-0.3 4.2,-0.5 0.2,0 0.5,-0.1 0.7,-0.1 1.4,-0.2 2.8,-0.4 4.2,-0.6 0.3,0 0.6,-0.1 0.9,-0.1 1.4,-0.2 2.8,-0.5 4.3,-0.7 0.2,0 0.4,-0.1 0.6,-0.1 1.4,-0.3 2.8,-0.6 4.2,-0.9 0.2,0 0.3,-0.1 0.5,-0.1 1.5,-0.3 2.9,-0.7 4.4,-1.1 0.3,-0.1 0.6,-0.1 0.8,-0.2 1.4,-0.4 2.9,-0.8 4.3,-1.2 0.3,-0.1 0.5,-0.2 0.8,-0.2 1.5,-0.5 3,-0.9 4.5,-1.5 57.6,-17.3 79.1,-15.6 86.8,-15.6 v -12.2 c 0,0.1 -8.9,-0.2 -24.8,2.5 z"
   id="path20"
   inkscape:connector-curvature="0"
   style="fill:#c3162d" />
				</g>
				<g
   id="g28">
					<polygon
   class="st3"
   points="406.8,250.9 424.5,232 424.5,253.3 "
   id="polygon24"
   style="fill:#03213d" />
					<path
   class="st3"
   d="m 402.1,214.3 v -12.6 c 7.7,0 29.2,-1.7 86.8,15.6 62.6,21.3 122.8,-5.9 122.8,-5.9 -5.2,7.5 -17.8,15.1 -34,20.5 l -79.9,2.9 -1.1,12.5 c -8.7,-1 -23.7,-2.5 -23.7,-2.5 v -10.4 l 17.7,-1.9 c -1.6,-0.6 -3.2,-1.1 -4.7,-1.8 -40.2,-14 -83.9,-16.4 -83.9,-16.4 z"
   id="path26"
   inkscape:connector-curvature="0"
   style="fill:#03213d" />
				</g>
				<path
   class="st2"
   d="m 426.9,191.9 c 0,-0.5 0,-4.5 0,-4.5 l 30.7,-9.8 V 199 c 9.9,2.9 21,6.7 33.1,11.7 47.4,19.6 103.8,5.9 117.4,2.1 -0.8,0.3 -1.8,0.7 -3,1.1 0,0 -0.1,0 -0.1,0 -0.5,0.2 -1.1,0.4 -1.7,0.6 -0.1,0 -0.2,0.1 -0.2,0.1 -0.6,0.2 -1.2,0.4 -1.9,0.6 0,0 -0.1,0 -0.1,0 -0.6,0.2 -1.3,0.4 -2,0.6 -0.1,0 -0.2,0.1 -0.2,0.1 -0.7,0.2 -1.4,0.4 -2.1,0.7 -0.1,0 -0.3,0.1 -0.4,0.1 -0.7,0.2 -1.5,0.4 -2.2,0.7 -0.1,0 -0.3,0.1 -0.4,0.1 -0.8,0.2 -1.6,0.4 -2.4,0.7 -0.1,0 -0.1,0 -0.2,0 -0.8,0.2 -1.7,0.5 -2.6,0.7 -0.2,0 -0.4,0.1 -0.5,0.1 -0.9,0.2 -1.7,0.4 -2.6,0.7 -0.2,0 -0.4,0.1 -0.6,0.1 -0.9,0.2 -1.9,0.4 -2.8,0.7 -0.1,0 -0.3,0.1 -0.4,0.1 -0.9,0.2 -1.8,0.4 -2.7,0.6 -0.2,0 -0.4,0.1 -0.6,0.1 -1,0.2 -2,0.4 -3,0.6 -0.3,0 -0.5,0.1 -0.8,0.1 -1,0.2 -2.1,0.4 -3.1,0.5 -0.2,0 -0.4,0.1 -0.7,0.1 -1,0.2 -2,0.3 -3.1,0.5 -0.1,0 -0.3,0 -0.4,0.1 -1.1,0.2 -2.2,0.3 -3.4,0.5 -0.3,0 -0.5,0.1 -0.8,0.1 -1.1,0.1 -2.3,0.3 -3.4,0.4 -0.3,0 -0.5,0.1 -0.8,0.1 -1.2,0.1 -2.4,0.2 -3.6,0.3 -0.1,0 -0.3,0 -0.4,0 -1.2,0.1 -2.3,0.2 -3.5,0.3 -0.2,0 -0.5,0 -0.7,0 -1.2,0.1 -2.5,0.1 -3.7,0.2 -0.3,0 -0.6,0 -0.9,0 -1.3,0 -2.5,0.1 -3.8,0.1 -0.2,0 -0.4,0 -0.7,0 -1.2,0 -2.5,0 -3.8,0 -0.2,0 -0.3,0 -0.5,0 -1.3,0 -2.7,-0.1 -4,-0.1 -0.3,0 -0.6,0 -0.8,0 -1.3,-0.1 -2.7,-0.1 -4,-0.2 -0.3,0 -0.5,0 -0.8,-0.1 -1.4,-0.1 -2.8,-0.2 -4.2,-0.3 -0.1,0 -0.1,0 -0.2,0 -1.4,-0.1 -2.8,-0.3 -4.2,-0.5 -0.2,0 -0.5,-0.1 -0.7,-0.1 -1.4,-0.2 -2.8,-0.4 -4.2,-0.6 -0.3,0 -0.6,-0.1 -0.9,-0.1 -1.4,-0.2 -2.8,-0.5 -4.3,-0.7 -0.2,0 -0.4,-0.1 -0.6,-0.1 -1.4,-0.3 -2.8,-0.6 -4.2,-0.9 -0.2,0 -0.3,-0.1 -0.5,-0.1 -1.5,-0.3 -2.9,-0.7 -4.4,-1.1 -0.3,-0.1 -0.6,-0.1 -0.8,-0.2 -1.4,-0.4 -2.9,-0.8 -4.3,-1.2 -0.3,-0.1 -0.5,-0.2 -0.8,-0.2 -1.5,-0.5 -3,-0.9 -4.5,-1.5 -57.6,-17.3 -79.1,-15.6 -86.8,-15.6 v -12.2 c 0,0.1 8.9,-0.2 24.8,2.5 z"
   id="path30"
   inkscape:connector-curvature="0"
   style="fill:#c3162d" />
				<path
   class="st0"
   d="m 151.1,301.3 c 0,0 217.4,-87.9 497.2,0 v 142.8 c 0,0 -215.1,-93.9 -497.2,0 z"
   id="path32"
   inkscape:connector-curvature="0"
   style="fill:#ffffff" />
				<path
   class="st2"
   d="m 395,262.2 c 73.7,0 160,9.8 253.3,39.1 v 142.8 c 0,0 -95.6,-41.7 -242.9,-41.7 -73.7,0 -160.2,10.4 -254.3,41.7 V 301.3 c 0,0 96.6,-39.1 243.9,-39.1 m 0.1,-10.6 v 0 c -42.6,0 -108.3,3.4 -179.6,19.8 -42.9,9.8 -67.3,19.6 -68.3,20 l -6.6,2.7 v 7.2 142.8 14.7 l 14,-4.7 C 236.6,426.8 321,413 405.3,413 c 143.4,0 237.8,40.4 238.7,40.8 l 14.9,6.5 v -16.2 -142.8 -7.8 l -7.4,-2.3 C 567.9,264.9 481.7,251.6 395.1,251.6 Z"
   id="path34"
   inkscape:connector-curvature="0"
   style="fill:#c3162d" />
				<path
   class="st4"
   d="m 405.3,413 c -84.4,0 -168.8,13.9 -250.9,41.2 l -14,4.7 23.5,5.8 c 0,0 207.4,-101.5 469.5,0 l 25.4,-4.3 -14.9,-6.5 C 643.1,453.4 548.8,413 405.3,413 Z"
   id="path36"
   inkscape:connector-curvature="0"
   style="fill:#07213e" />
			</g>
			<path
   class="st0"
   d="m 376.5,654.3 c -16.5,12.3 -37.1,19.9 -51.1,23.9 30.7,31.6 55.9,45 74.3,55.6 47.2,-27.2 149,-105.6 191.1,-191.2 -0.5,-0.3 -1.2,-0.6 -1.7,-0.9 C 557.2,524 491,505.3 491,505.3 c 10,-4.9 23.4,-17.8 28,-51.9 5.2,-26.4 19.4,-37.1 27.9,-43.6 2.6,-1.9 4.5,-3.4 5.7,-5 2.1,-1.7 3.7,-4.5 3,-7.3 -0.3,-1.1 -1.4,-3.8 -5.8,-4.4 l -0.7,-0.1 -0.7,0.2 c -1.1,0.3 -26.3,7.3 -42.5,23.1 -4.6,4.4 -8.2,9.8 -11.7,15 -9.2,13.6 -18,26.6 -44,28.4 -12,-7.1 -25.1,-13.8 -41.1,-13.8 -12.8,0 -25.5,4.2 -39,12.9 -2.2,-0.2 -4.4,-0.4 -6.6,-0.4 -8.2,0 -14.7,2.6 -22.2,8.8 -2.8,-0.3 -5.7,-0.5 -8.5,-0.5 -3.9,0 -9.6,0.4 -14.1,4 -0.5,0.3 -1.1,0.4 -1.9,0.4 -4.6,0 -12.5,-5.2 -17.8,-11.5 -6,-7.3 -24,-25.3 -38.4,-33.5 l -0.1,-0.1 h -0.1 c -1.4,-0.7 -2.5,-1 -3.5,-1 -1.8,0 -3.4,1 -4,2.7 -1.2,3 1.4,6.3 3,7.9 1,0.9 3.6,3.5 6,6 2.7,2.8 5.6,5.7 7.1,7.1 1.2,1.1 2.9,7.2 4.2,12.1 4.5,16.6 11.9,44.3 37.6,46.3 -3.9,5.5 -11.4,16.6 -8.6,37.2 0,1.3 -2,6.1 -9.8,15.9 -5.7,7.2 -11.7,13.4 -13.4,14.6 l -0.2,0.2 -0.2,0.2 c -6.1,6.1 -6.9,14.4 -2.4,24.7 0.8,2.4 1.7,5.1 2.5,7.6 3.5,11.5 6.9,22.3 14.6,24.6 7.9,2.3 34.6,3.5 44.3,3.5 11.3,0 13.9,-5.7 15.7,-9.6 0.1,-0.1 0.1,-0.3 0.2,-0.4 3.7,-4.7 14,-17.3 26.4,-17.3 0.6,0 1.1,0 1.7,0.1 3.2,0.3 6.3,1.8 8.8,4.3 3.1,5.3 14,20.8 -13.9,41.6 z"
   id="path40"
   inkscape:connector-curvature="0"
   style="fill:#ffffff" />
			<path
   class="st4"
   d="m 585.4,552.1 -2.6,-1.9 c 0,0 -53.7,-27.2 -103.3,-45.5 0,0 28.9,1.2 36,-52 7.1,-36 30.7,-44.9 34.5,-50.5 2.1,-1.5 3.9,-5 -0.7,-5.6 0,0 -25.2,6.9 -40.9,22.2 -15.7,15.3 -19.7,42.1 -59,44.5 -19.3,-11.4 -43.3,-24 -78.3,-0.8 -10,-1 -17.3,-1.4 -28.5,8.5 -8.5,-0.8 -16.5,-1.6 -21.6,2.8 -6.3,3.9 -18.1,-4.1 -24.4,-11.8 -6.3,-7.7 -24,-25 -37.4,-32.7 -4.3,-2.2 -2.8,1.8 -0.6,3.7 2.2,2 10.2,10.4 13.2,13.2 6.9,6.3 7.1,55.9 40.5,57.5 13.2,0.8 -10.8,6.7 -6.3,40.3 0.5,7.1 -20.3,30.5 -24.6,33.7 -4.9,4.9 -5.7,11.6 -1.6,20.9 4.2,11.9 7.3,27.9 14.8,30.1 7.5,2.2 33.7,3.3 43.3,3.3 9.6,0 11,-4.5 12.8,-8.3 4.7,-5.9 16.5,-20.3 31.5,-18.9 15,1.4 27.9,23.6 8.7,50.8 -16.9,22.2 -51.6,33.5 -51.6,33.5 l 56.8,42.4 c 1.3,0.8 2.6,1.6 3.8,2.3 45.1,-26 143.4,-108.9 185.5,-181.7 z"
   id="path42"
   inkscape:connector-curvature="0"
   style="fill:#07213e" />
			<path
   class="st2"
   d="m 506.8,438.2 c 18.1,-30.5 44.5,-40.9 44.5,-40.9 v 0 l -5.3,0.4 c -7.4,2.4 -25.3,9.3 -37.6,21.2 -15.7,15.3 -19.7,42.1 -59,44.5 -19.3,-11.4 -43.3,-24 -78.3,-0.8 -10,-1 -17.3,-1.4 -28.5,8.5 -8.5,-0.8 -16.5,-1.6 -21.6,2.8 -6.3,3.9 -18.1,-4.1 -24.4,-11.8 -6.3,-7.7 -24,-25 -37.4,-32.7 -1.4,-0.7 -2.2,-0.8 -2.5,-0.4 1.3,1.3 8.6,8.7 14.1,13.4 6.1,5.2 8.1,12 16.2,26.9 8.1,14.9 20.2,20.8 25.5,18.2 8,-3.8 10.6,0.4 12.1,1 1.5,0.6 5.8,4.8 4,12.1 -8.7,28.3 -23.5,47.3 -23.5,47.3 v 0 c -3.9,9.4 -20,27.3 -23.7,30 -4.9,4.9 -5.7,11.6 -1.6,20.9 3.6,10.3 6.4,23.6 11.9,28.4 7.3,-4.3 18.9,-11.1 21.6,-12.7 3.9,-2.4 7.1,-5.3 3.9,-8.9 -14.8,-13.4 -5.9,-29.3 -1.4,-33.1 4.5,-3.7 12,-8.5 12.4,-25.4 0.8,-22.8 12.4,-40.1 13.2,-43.3 0.8,-3.1 3.9,-3.9 3.9,-1.6 0,2.3 -0.2,16.9 0,19.1 0.2,2.2 1.2,6.9 3.9,3.1 31.7,-49.4 83.2,-62.2 99.8,-44.5 16.4,17.8 39.3,-15.3 57.8,-41.7 z"
   id="path44"
   inkscape:connector-curvature="0"
   style="fill:#c3162d" />
			<path
   class="st2"
   d="m 375.9,510.5 c 0,0 7.9,-2.8 15.2,-2.8 7.3,0 14,0 14,0 0,0 4.1,2.6 -0.6,3.5 -3.7,0.7 -5.9,1.3 -3.6,3.1 2.3,1.8 7.5,9.2 3.6,16.4 -3.7,6.3 -13.6,6.1 -15.8,6.1 -2.2,0 -14.9,0 -31.7,-2.1 -2.4,-0.4 0.7,-2.5 1.8,-3.4 1.1,-0.9 4.1,-6.1 4.1,-6.1 0,0 1.3,-1.3 2.9,0.4 1.5,1.7 11.6,6.1 15.8,2.2 4.2,-3.9 4.6,-9.2 2.1,-11.8 -2.5,-2.6 -7.7,-2.7 -8.7,-1.8 -1,0.9 -1.4,-0.9 -0.7,-2 0.6,-1.1 1.6,-1.7 1.6,-1.7 z"
   id="path46"
   inkscape:connector-curvature="0"
   style="fill:#c3162d" />
		</g>
	</g>
	<g
   id="g70">
		<g
   id="g68">
			<path
   class="st2"
   d="m 214.2,363.2 c 0,4.8 -3.1,7.9 -9.3,9.5 -12.3,3.2 -18.4,4.9 -30.5,8.6 -6.1,1.8 -9.1,0.4 -9.1,-4.3 0,-7.5 0,-11.2 0,-18.7 6,-1.9 9,-2.8 15.1,-4.6 0,6.4 0,9.6 0,16 7.4,-2.2 11.1,-3.2 18.5,-5.2 0,-6.1 0,-9.2 0,-15.4 -10,-4.6 -20.2,-9.1 -30.3,-13.4 -2.2,-1 -3.3,-2.7 -3.3,-5.2 0,-7 0,-10.4 0,-17.4 0,-4.8 3,-8.2 9.1,-10 12.2,-3.7 18.3,-5.4 30.5,-8.6 6.2,-1.6 9.3,0 9.3,4.8 0,7 0,10.5 0,17.5 -6.1,1.5 -9.2,2.3 -15.2,3.9 0,-5.9 0,-8.9 0,-14.8 -7.4,2 -11.1,3 -18.5,5.2 0,5.7 0,8.5 0,14.2 10.2,4.4 20.4,9 30.4,13.8 2.2,1 3.3,2.9 3.3,5.5 0,7.4 0,11.1 0,18.6 z"
   id="path52"
   inkscape:connector-curvature="0"
   style="fill:#c3162d" />
			<path
   class="st2"
   d="m 278.1,357.5 c -6.2,1 -9.4,1.5 -15.6,2.6 0,-11.7 0,-23.4 0,-35.1 -8.4,1.5 -12.5,2.3 -20.9,4 0,11.7 0,23.4 0,35.1 -6.1,1.3 -9.2,1.9 -15.3,3.3 0,-26.1 0,-52.2 0,-78.3 6.1,-1.4 9.2,-2.1 15.3,-3.3 0,12.9 0,19.4 0,32.3 8.3,-1.7 12.5,-2.5 20.9,-4 0,-12.9 0,-19.4 0,-32.3 6.2,-1.1 9.3,-1.6 15.6,-2.6 0,26.1 0,52.2 0,78.3 z"
   id="path54"
   inkscape:connector-curvature="0"
   style="fill:#c3162d" />
			<path
   class="st2"
   d="m 333.6,350.8 c -14.4,1.2 -28.8,2.8 -43.1,4.9 0,-26.1 0,-52.2 0,-78.3 14.2,-2 28.4,-3.6 42.7,-4.8 0,4.1 0,6.2 0,10.4 -10.9,0.9 -16.3,1.5 -27.2,2.8 0,9.1 0,13.7 0,22.9 9.3,-1.1 14,-1.6 23.4,-2.5 0,4.1 0,6.1 0,10.2 -9.4,0.8 -14.1,1.3 -23.4,2.5 0,9.8 0,14.7 0,24.6 11,-1.3 16.5,-1.9 27.6,-2.8 0,3.9 0,5.9 0,10.1 z"
   id="path56"
   inkscape:connector-curvature="0"
   style="fill:#c3162d" />
			<path
   class="st2"
   d="m 397.2,348 c -5.5,0 -8.2,0 -13.7,0.1 -8.3,-16.1 -16.6,-32.3 -25,-48.4 0.7,2.4 1,4.2 1,5.6 0,14.5 0,29.1 0,43.6 -6.1,0.3 -9.1,0.5 -15.2,0.9 0,-26.1 0,-52.2 0,-78.3 5.5,-0.4 8.2,-0.6 13.7,-0.8 8.4,15.8 16.7,31.6 25,47.4 -0.7,-2.4 -1,-4.3 -1,-5.6 0,-14.2 0,-28.4 0,-42.6 6.1,-0.1 9.1,-0.2 15.2,-0.2 0,26.1 0,52.2 0,78.3 z"
   id="path58"
   inkscape:connector-curvature="0"
   style="fill:#c3162d" />
			<path
   class="st2"
   d="m 454,350 c -16,-1.1 -32,-1.8 -48,-1.9 0,-2.5 0,-3.8 0,-6.3 9.7,-20.2 19.4,-40.5 29.2,-60.7 -10.8,-0.5 -16.1,-0.7 -26.9,-0.8 0,-4.2 0,-6.3 0,-10.6 15.2,0.2 30.4,0.8 45.5,1.9 0,2.7 0,4.1 0,6.8 -9.8,19.8 -19.5,39.6 -29.2,59.5 11.7,0.4 17.6,0.7 29.3,1.5 0.1,4.3 0.1,6.4 0.1,10.6 z"
   id="path60"
   inkscape:connector-curvature="0"
   style="fill:#c3162d" />
			<path
   class="st2"
   d="m 515.3,356.8 c -6.2,-1 -9.4,-1.4 -15.6,-2.2 0,-11.7 0,-23.4 0,-35.1 -8.4,-1.1 -12.6,-1.6 -21.1,-2.5 0,11.7 0,23.4 0,35.1 -6.2,-0.6 -9.3,-0.9 -15.6,-1.5 0,-26.1 0,-52.2 0,-78.3 6.2,0.5 9.3,0.8 15.6,1.5 0,12.9 0,19.4 0,32.3 8.4,0.9 12.6,1.4 21.1,2.5 0,-12.9 0,-19.4 0,-32.3 6.3,0.8 9.4,1.3 15.6,2.2 0,26.2 0,52.2 0,78.3 z"
   id="path62"
   inkscape:connector-curvature="0"
   style="fill:#c3162d" />
			<path
   class="st2"
   d="m 570.2,367.3 c -14.1,-3.2 -28.4,-6 -42.7,-8.4 0,-26.1 0,-52.2 0,-78.3 14.2,2.4 28.3,5.2 42.3,8.4 0,4.1 0,6.2 0,10.4 -10.7,-2.4 -16.1,-3.5 -26.9,-5.6 0,9.1 0,13.7 0,22.9 9.3,1.8 13.9,2.7 23.1,4.8 0,4.1 0,6.1 0,10.2 -9.2,-2 -13.9,-3 -23.1,-4.8 0,9.8 0,14.7 0,24.6 10.9,2.1 16.4,3.2 27.2,5.7 0.1,3.9 0.1,5.9 0.1,10.1 z"
   id="path64"
   inkscape:connector-curvature="0"
   style="fill:#c3162d" />
			<path
   class="st2"
   d="m 632.1,384.1 c -5.3,-1.7 -7.9,-2.5 -13.2,-4.1 -8,-18.7 -16.1,-37.4 -24.3,-56.1 0.7,2.6 1,4.5 1,5.9 0,14.5 0,29.1 0,43.6 -5.9,-1.6 -8.9,-2.3 -14.9,-3.8 0,-26.1 0,-52.2 0,-78.3 5.4,1.3 8,2 13.4,3.4 8.2,18.3 16.3,36.7 24.3,55.1 -0.6,-2.6 -1,-4.6 -1,-5.9 0,-14.2 0,-28.4 0,-42.6 5.9,1.7 8.8,2.6 14.7,4.5 0,26.1 0,52.2 0,78.3 z"
   id="path66"
   inkscape:connector-curvature="0"
   style="fill:#c3162d" />
		</g>
	</g>
	<g
   id="g88">
		<g
   id="g86">
			<path
   class="st2"
   d="m 304.1,364.2 c -7.7,0.6 -11.6,0.9 -19.3,1.7 0,5.1 0,7.6 0,12.6 6.6,-0.6 9.9,-0.9 16.5,-1.5 0,2.2 0,3.3 0,5.5 -6.6,0.5 -9.9,0.8 -16.5,1.5 0,7.5 0,11.3 0,18.9 -4.5,0.4 -6.7,0.6 -11.2,1.1 0,-14.2 0,-28.4 0,-42.7 12.2,-1.3 18.3,-1.8 30.5,-2.8 0,2.3 0,3.4 0,5.7 z"
   id="path72"
   inkscape:connector-curvature="0"
   style="fill:#c3162d" />
			<path
   class="st2"
   d="m 347.3,394.7 c 0,2.6 -2.3,4 -6.9,4.2 -9.4,0.5 -14,0.7 -23.4,1.4 -4.4,0.3 -6.6,-0.8 -6.6,-3.4 0,-11.6 0,-23.2 0,-34.8 0,-2.6 2.2,-4.1 6.6,-4.4 9.3,-0.6 14,-0.9 23.4,-1.4 4.6,-0.2 6.9,1 6.9,3.6 0,4 0,6 0,10 -4.5,0.2 -6.7,0.3 -11.2,0.5 0,-3.4 0,-5.1 0,-8.4 -5.8,0.3 -8.7,0.5 -14.5,0.8 0,12.7 0,19 0,31.7 5.8,-0.4 8.7,-0.5 14.5,-0.8 0,-3.6 0,-5.4 0,-9 4.5,-0.2 6.7,-0.3 11.2,-0.5 0,4.2 0,6.3 0,10.5 z"
   id="path74"
   inkscape:connector-curvature="0"
   style="fill:#c3162d" />
			<path
   class="st2"
   d="m 366.1,397.9 c -4.3,0.1 -6.5,0.2 -10.8,0.3 0,-2.6 0,-4 0,-6.6 4.3,-0.2 6.5,-0.2 10.8,-0.3 0,2.7 0,4 0,6.6 z"
   id="path76"
   inkscape:connector-curvature="0"
   style="fill:#c3162d" />
			<path
   class="st2"
   d="m 387.8,397.5 c -4.4,0 -6.6,0.1 -11,0.2 0,-12 0,-18.1 0,-30.1 -1.7,0 -2.6,0.1 -4.3,0.1 0,-0.3 0,-0.5 0,-0.8 2.3,-4.7 3.5,-7.1 5.8,-11.8 3.8,-0.1 5.7,-0.1 9.5,-0.1 0,14.1 0,28.3 0,42.5 z"
   id="path78"
   inkscape:connector-curvature="0"
   style="fill:#c3162d" />
			<path
   class="st2"
   d="m 433.5,394.1 c 0,2.6 -2.3,3.8 -6.8,3.7 -9,-0.2 -13.6,-0.3 -22.6,-0.3 -4.5,0 -6.8,-1.3 -6.8,-3.9 0,-3.6 0,-5.4 0,-9.1 4.4,0 6.6,0 11,0 0,3 0,4.5 0,7.5 5.6,0 8.4,0.1 14,0.2 0,-5.1 0,-7.7 0,-12.8 -7.5,-0.1 -11.2,-0.2 -18.7,-0.2 -4.4,0 -6.7,-1.3 -6.7,-3.8 0,-6.6 0,-9.9 0,-16.6 0,-2.6 2.2,-3.9 6.7,-3.9 9.2,0 13.8,0.1 22.9,0.3 4.6,0.1 6.9,1.5 6.9,4.1 0.1,11.5 0.1,23.1 0.1,34.8 z M 422.4,374 c 0,-5.4 0,-8.1 0,-13.5 -5.7,-0.1 -8.6,-0.1 -14.3,-0.2 0,5.4 0,8.1 0,13.5 5.7,0 8.6,0.1 14.3,0.2 z"
   id="path80"
   inkscape:connector-curvature="0"
   style="fill:#c3162d" />
			<path
   class="st2"
   d="m 478.8,396.1 c 0,2.6 -2.2,3.7 -6.7,3.5 -9,-0.5 -13.5,-0.8 -22.6,-1.1 -4.5,-0.2 -6.8,-1.6 -6.8,-4.2 0,-3.6 0,-5.4 0,-9.1 4.4,0.2 6.6,0.2 11,0.4 0,3 0,4.5 0,7.5 5.6,0.2 8.4,0.4 14,0.7 0,-5.1 0,-7.7 0,-12.8 -7.4,-0.4 -11.2,-0.6 -18.6,-0.9 -4.4,-0.2 -6.7,-1.5 -6.7,-4.1 0,-6.6 0,-9.9 0,-16.6 0,-2.6 2.2,-3.9 6.7,-3.7 9.2,0.4 13.7,0.6 22.9,1.1 4.6,0.3 6.8,1.7 6.8,4.4 0,11.7 0,23.3 0,34.9 z m -11.1,-20.4 c 0,-5.4 0,-8.1 0,-13.5 -5.7,-0.3 -8.6,-0.5 -14.3,-0.7 0,5.4 0,8.1 0,13.5 5.7,0.2 8.5,0.3 14.3,0.7 z"
   id="path82"
   inkscape:connector-curvature="0"
   style="fill:#c3162d" />
			<path
   class="st2"
   d="m 525.8,396 c -2.3,-0.2 -3.4,-0.4 -5.7,-0.6 0,3.2 0,4.8 0,8 -4.3,-0.4 -6.4,-0.6 -10.6,-1 0,-3.2 0,-4.8 0,-8 -9.8,-0.9 -14.7,-1.3 -24.5,-2 0,-1.5 0,-2.3 0,-3.8 6.2,-9.8 12.4,-19.6 18.6,-29.4 4.5,0.4 6.8,0.6 11.4,1 0,0.1 0,0.2 0,0.2 -7,10.9 -10.4,16.4 -17.4,27.4 4.8,0.4 7.2,0.6 12,1 0,-5.1 0,-7.7 0,-12.8 4.3,0.4 6.4,0.6 10.6,1 0,5.1 0,7.7 0,12.8 2.3,0.2 3.4,0.3 5.7,0.6 -0.1,2.3 -0.1,3.4 -0.1,5.6 z"
   id="path84"
   inkscape:connector-curvature="0"
   style="fill:#c3162d" />
		</g>
	</g>
	<g
   id="g116">
		<g
   id="g114">
			<path
   class="st2"
   d="m 196.7,384.8 c -4.3,-1.5 -7.1,-3.5 -7.1,-3.5 0,0 0,0 0,0 0,0 0,0 0,0 0,0 -1.3,3.1 -4.3,6.3 -3,3.3 -6.7,12.9 0.7,13.8 3.9,0 4.3,-2.7 9.5,0.4 0,0 0,0 0,0 0,0 0,0 0,0 3,-5 4.7,-2.9 8,-4.6 5.9,-4 -2.4,-11 -6.8,-12.4 z"
   id="path90"
   inkscape:connector-curvature="0"
   style="fill:#c3162d" />
			<path
   class="st2"
   d="m 219.9,413.8 c 4.5,-1.3 8.8,-1.1 8.8,-1.1 0,0 0,0 0,0 0,0 0,0 0,0 0,0 -2.9,-2.6 -4.7,-6 -1.8,-3.3 -10.8,-10.8 -17.3,-7.5 -2.9,2 0.1,3.3 -7.1,5.1 0,0 0,0 0,0 0,0 0,0 0,0 4.3,3.9 0.6,4 0.8,6.8 1.7,5.4 15,4 19.5,2.7 z"
   id="path92"
   inkscape:connector-curvature="0"
   style="fill:#c3162d" />
			<path
   class="st2"
   d="m 179.8,422.6 c -4.8,0.8 -8.7,2.8 -8.7,2.8 0,0 0,0 0,0 0,0 0,0 0,0 0,0 1.3,-3.4 1.2,-7 -0.1,-3.6 4.1,-13.9 11.8,-13.9 3.6,0.5 1.7,2.9 9,1.3 0,0 0,0 0,0 0,0 0,0 0,0 -1.7,5.3 1.7,3.7 2.9,6.3 1.3,5.4 -11.4,9.7 -16.2,10.5 z"
   id="path94"
   inkscape:connector-curvature="0"
   style="fill:#c3162d" />
			<g
   id="g100">
				<path
   class="st5"
   d="m 197.5,403.1 c -0.2,0 -0.4,0 -0.5,-0.1 -0.2,-0.1 -0.1,-0.4 0.1,-0.5 4.2,-2.6 6.4,-3.8 10.6,-6.1 0.2,-0.1 0.5,-0.1 0.7,0.1 0.2,0.2 0.1,0.4 -0.1,0.5 -4.3,2.2 -6.4,3.4 -10.6,6 -0.1,0.1 -0.2,0.1 -0.2,0.1 z"
   id="path96"
   inkscape:connector-curvature="0"
   style="fill:#c6b584" />
				<path
   class="st5"
   d="m 211.6,395.4 c 0.1,0.4 -0.3,0.8 -0.9,0.9 -0.6,0.1 -1.2,-0.2 -1.3,-0.6 -0.1,-0.4 0.3,-0.8 0.9,-0.9 0.6,-0.1 1.2,0.2 1.3,0.6 z"
   id="path98"
   inkscape:connector-curvature="0"
   style="fill:#c6b584" />
			</g>
			<g
   id="g106">
				<path
   class="st5"
   d="m 194.8,403.5 c 0.1,0.1 0.2,0.2 0.1,0.3 -0.1,0.2 -0.4,0.3 -0.6,0.3 -5,-0.6 -7.5,-0.9 -12.4,-1.1 -0.3,0 -0.4,-0.2 -0.3,-0.4 0.1,-0.2 0.4,-0.4 0.6,-0.3 4.9,0.2 7.4,0.4 12.5,1.1 0,0 0,0 0.1,0.1 z"
   id="path102"
   inkscape:connector-curvature="0"
   style="fill:#c6b584" />
				<path
   class="st5"
   d="m 178.4,402.1 c 0.4,-0.4 1.1,-0.5 1.5,-0.3 0.4,0.2 0.4,0.7 0,1.1 -0.4,0.4 -1.1,0.5 -1.5,0.3 -0.4,-0.2 -0.4,-0.7 0,-1.1 z"
   id="path104"
   inkscape:connector-curvature="0"
   style="fill:#c6b584" />
			</g>
			<g
   id="g112">
				<path
   class="st5"
   d="m 196,405.3 c 0,-0.1 0.2,-0.2 0.4,-0.3 0.3,-0.1 0.5,0 0.6,0.2 1.1,3.5 1.6,5.3 2.7,8.8 0.1,0.2 -0.1,0.4 -0.4,0.4 -0.3,0.1 -0.5,0 -0.6,-0.2 -1.1,-3.5 -1.6,-5.3 -2.7,-8.8 0,0 0,-0.1 0,-0.1 z"
   id="path108"
   inkscape:connector-curvature="0"
   style="fill:#c6b584" />
				<path
   class="st5"
   d="m 199.3,417 c -0.6,-0.1 -0.9,-0.4 -0.8,-0.9 0.2,-0.4 0.8,-0.7 1.3,-0.7 0.6,0.1 0.9,0.5 0.8,0.9 -0.1,0.5 -0.7,0.8 -1.3,0.7 z"
   id="path110"
   inkscape:connector-curvature="0"
   style="fill:#c6b584" />
			</g>
		</g>
	</g>
	<g
   id="g144">
		<g
   id="g142">
			<path
   class="st2"
   d="m 610.7,387.5 c -3,-3.4 -4.4,-6.5 -4.4,-6.5 0,0 0,0 0,0 0,0 0,0 0,0 0,0 -2.7,2.1 -7,3.6 -4.3,1.5 -12.4,8.5 -6.5,12.7 3.3,1.8 5,-0.4 8.1,4.8 0,0 0,0 0,0 0,0 0,0 0,0 5.1,-3.1 5.6,-0.4 9.4,-0.4 7.2,-0.8 3.5,-10.8 0.4,-14.2 z"
   id="path118"
   inkscape:connector-curvature="0"
   style="fill:#c3162d" />
			<path
   class="st2"
   d="m 616.5,423.9 c 4.7,0.9 8.5,3 8.5,3 0,0 0,0 0,0 0,0 0,0 0,0 0,0 -1.3,-3.6 -1.2,-7.4 0.1,-3.7 -4.2,-14.5 -11.7,-14.5 -3.5,0.5 -1.6,3 -8.9,1.2 0,0 0,0 0,0 0,0 0,0 0,0 1.8,5.5 -1.6,3.8 -2.7,6.4 -1.2,5.7 11.3,10.4 16,11.3 z"
   id="path120"
   inkscape:connector-curvature="0"
   style="fill:#c3162d" />
			<path
   class="st2"
   d="m 576.7,413.8 c -4.5,-1.5 -8.9,-1.4 -8.9,-1.4 0,0 0,0 0,0 0,0 0,0 0,0 0,0 2.9,-2.5 4.6,-5.9 1.7,-3.3 10.6,-10.8 17.2,-7.2 2.9,2.1 0,3.4 7.2,5.3 0,0 0,0 0,0 0,0 0,0 0,0 -4.2,3.9 -0.5,4.1 -0.7,7 -1.6,5.5 -14.9,3.6 -19.4,2.2 z"
   id="path122"
   inkscape:connector-curvature="0"
   style="fill:#c3162d" />
			<g
   id="g128">
				<path
   class="st5"
   d="m 602,404.2 c -0.2,0 -0.3,-0.2 -0.4,-0.3 -0.1,-0.2 0.1,-0.4 0.3,-0.4 5,-0.4 7.5,-0.5 12.4,-0.5 0.3,0 0.5,0.2 0.6,0.4 0.1,0.2 -0.1,0.4 -0.3,0.4 -4.9,0 -7.4,0.1 -12.4,0.4 -0.1,0.1 -0.1,0 -0.2,0 z"
   id="path124"
   inkscape:connector-curvature="0"
   style="fill:#c6b584" />
				<path
   class="st5"
   d="m 618.4,404 c -0.1,0.4 -0.6,0.6 -1.2,0.3 -0.6,-0.2 -0.9,-0.7 -0.8,-1.1 0.1,-0.4 0.7,-0.6 1.2,-0.4 0.5,0.2 0.9,0.7 0.8,1.2 z"
   id="path126"
   inkscape:connector-curvature="0"
   style="fill:#c6b584" />
			</g>
			<g
   id="g134">
				<path
   class="st5"
   d="m 599.5,403.3 c 0.1,0.1 0.1,0.3 -0.1,0.4 -0.2,0.1 -0.5,0.1 -0.7,0 -4.1,-2.9 -6.1,-4.2 -10.3,-6.7 -0.2,-0.1 -0.2,-0.3 -0.1,-0.5 0.2,-0.1 0.5,-0.2 0.7,0 4.1,2.5 6.2,3.9 10.3,6.8 0.1,-0.1 0.2,-0.1 0.2,0 z"
   id="path130"
   inkscape:connector-curvature="0"
   style="fill:#c6b584" />
				<path
   class="st5"
   d="m 586,394.4 c 0.6,-0.2 1.2,0 1.5,0.4 0.2,0.4 0,0.8 -0.6,1 -0.6,0.2 -1.2,0 -1.5,-0.4 -0.2,-0.3 0.1,-0.8 0.6,-1 z"
   id="path132"
   inkscape:connector-curvature="0"
   style="fill:#c6b584" />
			</g>
			<g
   id="g140">
				<path
   class="st5"
   d="m 599.6,405.5 c 0.1,-0.1 0.3,-0.1 0.5,-0.1 0.3,0.1 0.4,0.3 0.4,0.5 -0.9,3.7 -1.3,5.5 -2.2,9.1 0,0.2 -0.3,0.3 -0.6,0.2 -0.3,-0.1 -0.4,-0.3 -0.4,-0.5 0.9,-3.7 1.3,-5.5 2.2,-9.1 0,0 0.1,-0.1 0.1,-0.1 z"
   id="path136"
   inkscape:connector-curvature="0"
   style="fill:#c6b584" />
				<path
   class="st5"
   d="m 596.5,417.5 c -0.5,-0.3 -0.6,-0.8 -0.2,-1.1 0.4,-0.3 1,-0.3 1.5,0 0.5,0.3 0.6,0.8 0.2,1.1 -0.3,0.4 -1,0.3 -1.5,0 z"
   id="path138"
   inkscape:connector-curvature="0"
   style="fill:#c6b584" />
			</g>
		</g>
	</g>
	<polygon
   class="st1"
   points="421.4,116.7 434.7,157.8 399.7,132.4 364.7,157.8 378,116.7 343,91.2 386.3,91.2 399.7,50 413.1,91.2 456.4,91.2 "
   id="polygon146"
   style="fill:#c5b485" />
</g>
</svg>