<svg width="568" height="568" viewBox="0 0 568 568" fill="none" xmlns="http://www.w3.org/2000/svg">
<path fill-rule="evenodd" clip-rule="evenodd" d="M283.638 0.480225C358.817 0.480225 430.917 30.3452 484.077 83.5051C537.237 136.665 567.102 208.765 567.102 283.945C567.102 340.009 550.477 394.814 519.33 441.429C488.182 488.045 443.911 524.377 392.115 545.832C340.318 567.287 283.323 572.9 228.336 561.963C173.35 551.025 122.841 524.028 83.1978 484.385C43.5546 444.741 16.5572 394.233 5.61967 339.246C-5.31787 284.259 0.295671 227.264 21.7504 175.468C43.2052 123.671 79.5376 79.4001 126.153 48.2526C172.769 17.1051 227.574 0.480225 283.638 0.480225V0.480225Z" fill="#BE9D14"/>
<path fill-rule="evenodd" clip-rule="evenodd" d="M283.638 7.88721C356.853 7.88721 427.069 36.9717 478.84 88.7426C530.611 140.513 559.695 210.73 559.695 283.945C559.695 338.544 543.505 391.917 513.171 437.314C482.838 482.711 439.723 518.094 389.28 538.989C338.837 559.883 283.331 565.35 229.782 554.698C176.232 544.046 127.043 517.754 88.4356 479.147C49.8282 440.54 23.5363 391.351 12.8846 337.801C2.23283 284.251 7.69969 228.745 28.5938 178.302C49.488 127.859 84.8709 84.7449 130.268 54.4113C175.666 24.0777 229.039 7.88721 283.638 7.88721V7.88721Z" fill="white"/>
<path fill-rule="evenodd" clip-rule="evenodd" d="M283.638 18.4282C354.057 18.4282 421.592 46.4022 471.386 96.1962C521.18 145.99 549.154 213.525 549.154 283.945C549.154 336.459 533.582 387.794 504.407 431.458C475.231 475.122 433.763 509.154 385.247 529.25C336.73 549.347 283.343 554.605 231.838 544.36C180.333 534.115 133.022 508.827 95.8892 471.693C58.7561 434.56 33.4681 387.25 23.223 335.745C12.978 284.239 18.2361 230.853 38.3325 182.336C58.4288 133.819 92.4607 92.3512 136.125 63.1758C179.789 34.0005 231.124 18.4282 283.638 18.4282V18.4282Z" fill="#AE182B"/>
<path fill-rule="evenodd" clip-rule="evenodd" d="M283.638 109.655C306.526 109.655 329.19 114.163 350.336 122.922C371.481 131.681 390.695 144.519 406.879 160.703C423.064 176.887 435.902 196.101 444.661 217.247C453.42 238.393 457.928 261.057 457.928 283.945C457.928 318.416 447.706 352.113 428.555 380.775C409.403 409.437 382.183 431.776 350.336 444.968C318.488 458.159 283.444 461.611 249.635 454.886C215.826 448.161 184.771 431.561 160.396 407.186C136.021 382.812 119.422 351.756 112.697 317.947C105.972 284.138 109.423 249.094 122.615 217.247C135.806 185.4 158.146 158.179 186.807 139.028C215.469 119.877 249.166 109.655 283.638 109.655V109.655Z" fill="white"/>
<path fill-rule="evenodd" clip-rule="evenodd" d="M320.813 167.453V283.096C320.418 283.209 320.023 283.321 319.629 283.432C312.166 285.524 304.864 287.251 297.528 288.401V183.488L311.632 166.577C307.161 168.15 302.315 170.002 297.528 171.765V155.107C305.42 158.955 313.2 163.071 320.813 167.453ZM371.381 208.375V253.24C367.216 258.721 361.928 263.586 356.554 267.272C353.858 269.12 351.025 270.821 348.096 272.388V185.447C352.157 188.505 356.155 191.817 359.58 195.248C363.624 199.298 367.838 203.638 371.381 208.375V208.375ZM371.381 332.517V400.562C365.831 404.745 359.972 408.538 353.846 411.906C351.926 402.477 349.998 393.05 348.096 383.618V349.981C357.299 345.887 365.138 339.911 371.381 332.517V332.517ZM420.829 234.085C421.316 235.426 421.785 236.775 422.234 238.133V329.757C416.967 345.694 409.029 360.415 398.949 373.392V276.169C409.668 262.861 416.891 248.828 420.829 234.085V234.085ZM264.704 428.661C258.617 427.874 252.646 426.713 246.818 425.198V386.855C251.757 386.718 256.692 386.419 261.539 386.015C261.722 385.999 261.905 385.984 262.089 385.969C263.776 398.413 265.013 411.446 264.852 423.944C264.835 425.281 264.793 426.91 264.704 428.661V428.661ZM246.818 209.212V142.692C251.674 141.429 256.628 140.413 261.666 139.654L261.737 139.683C264.53 140.835 267.319 141.963 270.103 143.093V184.031C262.902 189.298 256.613 196.007 251.354 202.961C249.8 205.016 248.286 207.099 246.818 209.212V209.212ZM270.103 229.969V285.608C265.758 275.487 264.525 264.474 265.447 253.302C266.062 245.859 267.798 237.539 270.103 229.969V229.969ZM219.25 414.937C211.023 410.884 203.23 406.083 195.965 400.616V374.177C198.291 378.553 201.545 381.735 206.566 382.95C210.788 383.971 215.005 384.805 219.25 385.439V414.937ZM195.965 344.332V264.008C198.264 265.699 201.03 267.801 203.561 269.616L202.753 280.706C206.031 292.725 211.637 306.82 219.25 318.114V328.109C218.835 328.336 218.421 328.55 218.013 328.746C214.755 330.314 211.972 330.817 208.506 331.64C203.941 332.724 200.737 335.446 198.431 339.02C197.369 340.666 196.592 342.468 195.965 344.332V344.332ZM195.965 185.765V167.273C203.23 161.806 211.023 157.006 219.25 152.952V171.09C211.332 175.88 202.648 180.651 195.965 185.765ZM219.25 179.361V235.718C212.434 233.554 205.284 229.81 200.274 227.026C201.246 211.566 210.97 193.176 219.25 179.361ZM168.398 373.484C158.328 360.545 150.394 345.865 145.113 329.975V237.915C146.132 234.85 147.249 231.83 148.462 228.859L148.656 229.061C154.481 235.072 161.287 240.405 168.398 245.417V373.484Z" fill="#AE182B"/>
<path fill-rule="evenodd" clip-rule="evenodd" d="M283.638 120.196C306.929 120.196 329.079 125.072 349.141 133.841C349.501 136.378 349.843 139.361 350.157 142.279C329.967 132.78 307.424 127.461 283.638 127.461C244.577 127.461 208.856 141.781 181.436 165.456C177.109 165.891 172.599 166.489 168.616 167.42C198.187 138.224 238.81 120.196 283.638 120.196ZM369.216 144.327C381.848 152.087 393.341 161.516 403.401 172.301C403.267 175.389 402.942 178.736 402.444 182.118C394.48 172.836 385.447 164.5 375.536 157.296C373.662 152.956 371.565 148.555 369.216 144.327ZM422.848 197.715C438.4 222.758 447.387 252.303 447.387 283.945C447.387 374.366 374.059 447.694 283.638 447.694C193.217 447.694 119.889 374.366 119.889 283.945C119.889 258.157 125.861 233.764 136.485 212.061C137.725 214.707 139.236 217.264 140.915 219.698C132.075 239.301 127.153 261.049 127.153 283.945C127.153 370.354 197.228 440.429 283.638 440.429C370.047 440.429 440.122 370.354 440.122 283.945C440.122 258.401 433.997 234.284 423.136 212.985C423.384 207.893 423.28 202.472 422.848 197.715Z" fill="#BE9D14"/>
<path fill-rule="evenodd" clip-rule="evenodd" d="M271.076 444.853C272.616 440.848 273.705 433.349 273.825 424.059C273.979 412.115 272.721 397.208 270.732 382.954C291.745 379.69 308.083 370.954 315.339 358.589L314.186 357.745C309.5 362.311 303.791 367.29 296.464 370.345C287.99 373.878 274.775 375.905 260.793 377.072C251.533 377.844 241.933 378.481 233.152 378.069C223.495 377.616 214.818 375.855 208.676 374.369C205.986 373.719 204.612 371.835 203.562 369.75C200.608 363.886 200.957 355.019 204.418 346.517C205.625 343.552 207.02 341.006 210.293 340.229C212.976 339.592 217.24 338.792 221.905 336.547C225.77 334.687 230.401 331.829 234.414 327.241C235.84 325.61 235.797 324.102 234.935 323.252C225.467 314.534 217.232 298.978 211.837 279.199C218.287 279.718 226.268 281.616 232.509 284.032C227.224 276.232 213.884 266.071 198.507 255.503C183.382 245.108 166.261 234.332 155.1 222.816C144.496 211.873 139.129 200.218 143.526 190.548C148.96 178.602 167.049 173.259 189.229 171.526C171.299 176.927 157.44 186.269 157.045 196.837C156.757 204.548 163.579 213.608 181.63 225.078C185.924 212.158 191.325 201.722 202.338 191.581C197.209 202.841 191.637 214.779 191.366 228.444C191.292 232.243 191.55 232.056 194.811 233.889C206.165 240.27 221.259 247.778 232.902 245.832C234.595 245.46 236.452 244.32 237.92 242.52C240.027 239.937 241.343 236.387 242.944 233.163C247.321 224.349 252.421 215.67 258.369 207.804C264.865 199.214 273.924 189.921 284.823 185.102C276.009 195.46 268.733 208.158 263.766 221.645C260.024 231.807 257.587 242.891 256.788 252.563C255.516 267.964 257.534 284.003 266.731 298.364C285.839 300.232 303.097 297.387 322.051 292.072C336.622 287.987 350.426 282.356 361.63 274.672C371.903 267.625 380.57 257.801 385.065 247.817C389.607 237.728 389.753 227.459 386.655 218.655C382.873 207.908 374.802 197.793 365.93 188.907C356.791 179.754 339.136 167.691 320.015 157.14C302.607 147.533 284.215 139.386 265.157 131.529C285.098 133.162 303.119 138.939 319.837 146.116C332.229 151.436 343.907 157.4 355.121 163.69C357.13 164.817 358.452 161.081 358.531 157.08C358.674 149.944 356.364 138.123 354.61 131.001C358.715 137.685 362.19 144.472 364.392 149.015C368.007 156.474 370.028 161.441 372.101 166.517C373.519 169.99 374.813 173.516 377.262 177.928C378.627 180.388 379.927 181.842 381.312 183.715C382.535 185.368 383.829 187.448 385.3 189.497C390.2 196.321 395.793 204.874 400.176 211.876C407.482 201.986 410.497 183.918 409.895 168.641C423.079 212.181 413.822 246.602 388.279 275.397C381.129 283.457 372.696 290.86 363.159 297.877C367.354 297.45 373.924 296.806 378.119 296.948C373.637 322.082 357.183 338.947 336.048 344.785C333.886 345.382 333.545 345.658 333.28 348.252C333.089 350.129 333.596 354.317 334.361 359.317C335.285 365.351 336.729 372.571 337.883 378.342C341.353 395.694 344.94 413.024 348.429 430.373C334.561 440.834 281.895 446.26 271.076 444.853Z" fill="#BE9D14"/>
<path fill-rule="evenodd" clip-rule="evenodd" d="M263.781 304.505C262.91 305.568 261.878 306.903 260.51 308.427C258.75 310.387 256.665 312.379 254.49 314.795C250.498 319.228 246.889 323.85 243.062 327.558C239.826 330.694 235.395 333.899 231.57 336.3C225.299 340.236 220.022 341.675 212.013 344.223C226.953 343.731 238.834 343.139 241.612 346.288C243.26 348.158 244.43 354.603 239.544 360.022C238.935 360.697 239.164 361.269 239.839 361.19C240.923 361.095 241.991 360.634 242.811 359.694C244.009 358.32 244.845 355.935 245.776 353.637C248.232 347.574 250.264 339.897 254.173 335.594C256.883 332.611 259.968 330.608 263.218 328.028C272.207 320.896 282.51 313.622 290.013 305.852C282.832 304.489 268.733 304.655 263.781 304.505V304.505ZM356.699 173.157C371.124 183.733 383.339 197.986 389.406 212.322C392.368 219.322 394.245 227.024 394.13 234.937C394.035 241.476 393.319 246.533 389.847 254.928C389.583 255.568 389.545 256.233 389.79 256.334C390.035 256.435 390.57 256.119 390.9 255.666C396.367 248.175 398.755 238.679 398.177 229.579C397.596 220.445 393.573 208.909 386.2 198.066C382.286 192.312 377.251 186.353 371.17 181.119C367.143 177.652 360.979 173.112 357.568 172.188C356.603 171.927 355.891 172.564 356.699 173.157V173.157ZM151.992 214.964C153.32 217.916 156.94 222.334 162.474 226.906C168.493 231.88 179.507 238.63 191.885 246.418C199.122 250.971 206.423 255.607 213.479 260.438C222.54 266.641 231.045 273.071 240.416 282.705C240.74 283.038 241.251 282.788 241.299 282.323C241.54 280.01 237.525 275.275 232.343 270.728C229.937 268.616 226.996 266.37 223.91 264.03C206.202 250.6 178.854 233.357 161.553 221.199C158.614 219.133 155.781 216.613 152.887 214.451C152.2 213.938 151.64 214.18 151.992 214.964V214.964ZM286.927 335.072C286.298 330.459 291.175 325.195 297.576 324.678C300.802 324.418 303.422 328.884 300.55 332.93C297.984 336.544 290.859 335.806 286.927 335.072V335.072ZM328.699 311.685C330.796 313.992 332.892 316.156 334.989 318.462C353.318 313.401 367.926 306.928 372.343 301.429C372.817 300.83 372.851 300.03 371.626 300.662C357.373 306.196 340.187 308.992 328.699 311.685V311.685ZM219.133 284.715C223.011 286.845 227.322 289.289 232.035 292.338C237.051 295.583 242.523 299.495 248.414 303.793C250.196 302.647 252.504 300.992 254.129 300.289C246.072 294.48 233.087 287.12 219.45 283.988C218.619 283.668 218.064 284.219 219.133 284.715V284.715Z" fill="white"/>
<path fill-rule="evenodd" clip-rule="evenodd" d="M158.959 126.936C154.028 130.831 148.501 132.588 142.381 132.207L142.592 124.428C147.47 124.533 151.429 123.385 154.469 120.985C157.365 118.698 158.043 116.579 156.503 114.63C155.824 113.769 154.893 113.387 153.711 113.482C152.45 113.594 150.351 114.297 147.415 115.591C143.244 117.442 140.04 118.366 137.803 118.364C134.887 118.386 132.319 116.991 130.1 114.181C127.948 111.457 127.205 108.482 127.87 105.257C128.507 102.054 130.374 99.2297 133.47 96.7839C137.743 93.41 142.478 91.7419 147.676 91.7801L148.175 99.4866C143.774 99.7502 140.383 100.822 138.004 102.701C136.771 103.675 136.014 104.692 135.734 105.751C135.459 106.759 135.639 107.665 136.273 108.468C137.043 109.443 138.062 109.849 139.329 109.685C140.495 109.51 142.683 108.714 145.892 107.296C149.841 105.574 153.018 104.764 155.426 104.865C158.244 105.014 160.649 106.35 162.642 108.873C164.952 111.798 165.743 114.921 165.014 118.244C164.304 121.412 162.285 124.31 158.959 126.936Z" fill="white"/>
<path fill-rule="evenodd" clip-rule="evenodd" d="M165.315 84.8146L155.205 90.6517L151.314 83.9118L178.843 68.0181L182.734 74.7577L172.624 80.5945L187.915 107.079L180.606 111.3L165.315 84.8146Z" fill="white"/>
<path fill-rule="evenodd" clip-rule="evenodd" d="M187.984 64.1792L215.053 53.9506L217.707 60.9742L198.482 68.2389L201.233 75.5192L218.151 69.126L220.806 76.15L203.887 82.5429L206.735 90.0793L226.217 82.7175L228.871 89.7415L201.545 100.067L187.984 64.1792Z" fill="white"/>
<path fill-rule="evenodd" clip-rule="evenodd" d="M222.549 51.9316L231.724 50.3137L246.294 75.1811L251.479 46.8303L260.438 45.2503L251.873 85.9952L244.533 87.2897L222.549 51.9316Z" fill="white"/>
<path fill-rule="evenodd" clip-rule="evenodd" d="M267.855 44.8965H296.793V52.405H276.24V60.1876H294.326V67.6962H276.24V75.7525H297.067V83.2611H267.855V44.8965Z" fill="white"/>
<path fill-rule="evenodd" clip-rule="evenodd" d="M310.69 45.5563L318.329 47.0411L331.468 73.6586L335.975 50.4712L344.153 52.0609L336.833 89.7207L329.785 88.3506L316.201 60.8648L311.547 84.8055L303.37 83.2161L310.69 45.5563Z" fill="white"/>
<path fill-rule="evenodd" clip-rule="evenodd" d="M370.768 61.1471L377.969 64.1003L378.52 106.088L370.356 102.739L370.375 93.4479L355.366 87.292L348.856 93.9219L340.895 90.6568L370.768 61.1471ZM370.415 85.4074L370.42 71.9627L360.983 81.5392L370.415 85.4074Z" fill="white"/>
<path fill-rule="evenodd" clip-rule="evenodd" d="M395.135 118.532C390.209 115.184 387.248 110.897 386.251 105.669C385.242 100.522 386.361 95.5609 389.606 90.7864C392.707 86.2231 396.907 83.4226 402.206 82.3856C407.587 81.3592 412.649 82.4583 417.394 85.6826C422.289 89.0099 425.458 93.284 426.901 98.5061L418.9 100.821C417.79 96.9301 415.754 93.978 412.792 91.9653C410.254 90.2403 407.441 89.7645 404.353 90.5374C401.256 91.2596 398.773 92.996 396.904 95.7461C394.932 98.6468 394.206 101.665 394.726 104.801C395.214 107.917 396.864 110.43 399.675 112.34C402.304 114.126 404.926 114.981 407.541 114.903L410.622 110.37L403.596 105.595L407.693 99.5664L421.473 108.931L412.108 122.711C405.87 123.375 400.212 121.982 395.135 118.532Z" fill="white"/>
<path fill-rule="evenodd" clip-rule="evenodd" d="M441.069 104.442L461.531 124.904L456.222 130.213L441.689 115.681L436.186 121.184L448.975 133.972L443.666 139.282L430.877 126.493L425.18 132.19L439.906 146.916L434.597 152.225L413.942 131.57L441.069 104.442Z" fill="white"/>
<path fill-rule="evenodd" clip-rule="evenodd" d="M126 412.232L142.149 429.98L137.487 434.221L126.004 421.602L121.043 426.116L131.163 437.238L126.501 441.479L116.381 430.358L107.357 438.569L102.691 433.441L126 412.232Z" fill="white"/>
<path fill-rule="evenodd" clip-rule="evenodd" d="M136.119 466.212C132.387 463.19 130.285 459.442 129.815 454.968C129.33 450.558 130.524 446.581 133.395 443.036C136.247 439.514 139.9 437.53 144.356 437.083C148.854 436.631 152.969 437.917 156.701 440.939C160.433 443.961 162.545 447.718 163.039 452.212C163.501 456.602 162.296 460.57 159.425 464.115C156.573 467.637 152.93 469.631 148.498 470.097C143.977 470.529 139.851 469.235 136.119 466.212ZM140.212 461.301C142.358 463.039 144.734 463.728 147.343 463.368C149.886 462.994 152.035 461.723 153.792 459.553C155.53 457.408 156.305 455.043 156.119 452.459C155.924 449.791 154.754 447.588 152.608 445.85C150.462 444.112 148.096 443.433 145.512 443.811C142.945 444.166 140.784 445.428 139.028 447.598C137.29 449.743 136.526 452.118 136.735 454.72C136.907 457.37 138.066 459.563 140.212 461.301Z" fill="white"/>
<path fill-rule="evenodd" clip-rule="evenodd" d="M169.849 488.837C165.69 486.436 163.028 483.063 161.864 478.717C160.695 474.438 161.252 470.323 163.532 466.373C165.798 462.448 169.097 459.916 173.428 458.778C177.8 457.628 182.065 458.254 186.224 460.655C190.383 463.056 193.057 466.437 194.248 470.798C195.39 475.062 194.821 479.169 192.54 483.12C190.274 487.045 186.988 489.584 182.683 490.738C178.285 491.872 174.008 491.238 169.849 488.837ZM173.123 483.346C175.514 484.727 177.97 485.036 180.49 484.272C182.943 483.505 184.867 481.913 186.263 479.496C187.644 477.105 188.039 474.647 187.451 472.125C186.841 469.52 185.341 467.527 182.949 466.147C180.558 464.766 178.115 464.465 175.622 465.243C173.143 465.995 171.205 467.58 169.81 469.997C168.429 472.388 168.046 474.853 168.66 477.391C169.244 479.98 170.732 481.966 173.123 483.346Z" fill="white"/>
<path fill-rule="evenodd" clip-rule="evenodd" d="M207.089 478.78L198.095 475.453L200.313 469.458L224.803 478.517L222.585 484.512L213.591 481.185L204.876 504.746L198.374 502.341L207.089 478.78Z" fill="white"/>
<path fill-rule="evenodd" clip-rule="evenodd" d="M227.629 478.729L241.886 482.02C245.424 482.837 247.891 484.361 249.286 486.593C250.365 488.321 250.658 490.253 250.165 492.387C249.497 495.282 247.642 497.18 244.601 498.079C248.094 500.426 249.422 503.412 248.585 507.038C247.95 509.787 246.411 511.65 243.968 512.626C241.656 513.571 238.716 513.631 235.148 512.807L220.541 509.435L227.629 478.729ZM237.572 494.1C240.818 494.849 242.698 494.113 243.211 491.891C243.697 489.785 242.463 488.391 239.51 487.709L232.842 486.17L231.344 492.662L237.572 494.1ZM236.515 506.885C239.703 507.621 241.56 506.849 242.086 504.568C242.599 502.345 241.189 500.849 237.855 500.079L230.047 498.277L228.488 505.032L236.515 506.885Z" fill="white"/>
<path fill-rule="evenodd" clip-rule="evenodd" d="M267.202 485.882L273.582 486.294L285.011 518.839L277.778 518.371L275.359 511.132L262.061 510.272L258.73 517.139L251.676 516.683L267.202 485.882ZM273.283 504.862L269.765 494.393L264.927 504.322L273.283 504.862Z" fill="white"/>
<path fill-rule="evenodd" clip-rule="evenodd" d="M289.617 486.612L296.531 486.092L298.421 511.232L314.089 510.054L314.561 516.339L291.98 518.037L289.617 486.612Z" fill="white"/>
<path fill-rule="evenodd" clip-rule="evenodd" d="M315.036 484.3L321.839 482.965L326.693 507.704L342.111 504.679L343.325 510.864L321.103 515.224L315.036 484.3Z" fill="white"/>
<path fill-rule="evenodd" clip-rule="evenodd" d="M378.067 499.191C373.806 500.982 369.64 501.024 365.569 499.317C361.537 497.626 358.632 494.664 356.852 490.431C355.084 486.225 355.007 482.09 356.619 478.027C358.264 473.884 361.286 470.888 365.685 469.039C369.974 467.236 374.386 467.237 378.921 469.042L376.952 475.046C373.665 473.888 370.722 473.856 368.121 474.949C365.686 475.973 364.039 477.707 363.178 480.152C362.334 482.558 362.452 485.048 363.534 487.621C364.604 490.166 366.294 491.979 368.604 493.059C370.965 494.184 373.363 494.234 375.797 493.21C378.398 492.117 380.467 489.912 382.003 486.597L387.902 489.245C386.215 493.828 382.936 497.144 378.067 499.191Z" fill="white"/>
<path fill-rule="evenodd" clip-rule="evenodd" d="M379.993 463.103L385.917 459.501L399.015 481.043L412.44 472.88L415.714 478.266L396.365 490.03L379.993 463.103Z" fill="white"/>
<path fill-rule="evenodd" clip-rule="evenodd" d="M431.562 467.161C428.226 469.862 424.901 471.05 421.585 470.722C418.165 470.363 415.021 468.41 412.15 464.865L400.817 450.871L406.205 446.507L417.424 460.362C419.011 462.321 420.696 463.448 422.479 463.742C424.219 464.032 425.929 463.497 427.609 462.137C429.288 460.777 430.186 459.239 430.302 457.522C430.404 455.74 429.681 453.894 428.132 451.981L416.771 437.951L422.159 433.588L433.35 447.408C436.296 451.046 437.567 454.594 437.16 458.051C436.787 461.405 434.921 464.442 431.562 467.161Z" fill="white"/>
<path fill-rule="evenodd" clip-rule="evenodd" d="M425.501 430.354L435.48 419.653C437.956 416.997 440.51 415.623 443.14 415.531C445.176 415.46 446.995 416.172 448.597 417.666C450.77 419.692 451.486 422.247 450.744 425.331C454.523 423.479 457.774 423.822 460.495 426.36C462.559 428.285 463.402 430.549 463.026 433.153C462.688 435.628 461.27 438.204 458.773 440.882L448.549 451.846L425.501 430.354ZM443.784 429.429C446.056 426.992 446.358 424.996 444.69 423.441C443.109 421.967 441.286 422.338 439.218 424.555L434.551 429.56L439.424 434.104L443.784 429.429ZM454.328 436.737C456.559 434.344 456.818 432.35 455.106 430.753C453.438 429.198 451.437 429.671 449.104 432.173L443.639 438.034L448.709 442.762L454.328 436.737Z" fill="white"/>
<path fill-rule="evenodd" clip-rule="evenodd" d="M46.5022 275.26L41.0448 276.602L39.6133 270.965L48.6046 268.281H53.3016V299.818H46.5022V275.26Z" fill="white"/>
<path fill-rule="evenodd" clip-rule="evenodd" d="M70.7639 300.355C66.8871 300.355 63.4576 299.117 60.4754 296.642L64.0989 291.408C66.3356 293.197 68.617 294.092 70.9431 294.092C74.6706 294.092 76.7881 291.721 77.295 286.98C75.6249 288.411 73.5076 289.127 70.9431 289.127C67.5133 289.127 64.7997 288.232 62.8015 286.443C60.7737 284.624 59.7598 282.119 59.7598 278.928C59.7598 275.767 60.8631 273.157 63.0699 271.099C65.3065 269.012 68.1845 267.968 71.7034 267.968C75.4608 267.968 78.473 269.102 80.7393 271.368C83.2147 273.843 84.4522 277.809 84.4522 283.267C84.4522 288.456 83.289 292.571 80.9632 295.613C78.5177 298.774 75.1181 300.355 70.7639 300.355ZM72.0613 283.401C73.7313 283.401 75.0583 282.954 76.0426 282.059C76.9671 281.194 77.4291 280.061 77.4291 278.659C77.4291 277.258 76.9371 276.11 75.9531 275.215C74.9688 274.32 73.627 273.873 71.9271 273.873C70.2571 273.873 68.9449 274.32 67.9905 275.215C67.066 276.08 66.6039 277.243 66.6039 278.704C66.6039 280.106 67.0959 281.239 68.0799 282.104C69.0642 282.969 70.3912 283.401 72.0613 283.401Z" fill="white"/>
<path fill-rule="evenodd" clip-rule="evenodd" d="M494.08 274.431H479.363V268.481H501.908V273.67L487.862 299.794H480.079L494.08 274.431Z" fill="white"/>
<path fill-rule="evenodd" clip-rule="evenodd" d="M518.25 300.339C514.462 300.339 511.45 299.221 509.213 296.984C506.738 294.509 505.501 290.528 505.501 285.041C505.501 279.971 506.619 275.915 508.856 272.873C511.271 269.593 514.731 267.953 519.234 267.953C522.872 267.953 526.138 269.101 529.03 271.397L525.407 276.721C523.2 275.051 521.068 274.216 519.01 274.216C515.342 274.216 513.239 276.631 512.703 281.462C514.731 280.12 516.893 279.449 519.189 279.449C522.41 279.449 525.019 280.299 527.017 281.999C529.135 283.818 530.193 286.323 530.193 289.514C530.193 292.675 529.06 295.285 526.794 297.342C524.527 299.34 521.679 300.339 518.25 300.339ZM517.981 294.435C519.651 294.435 520.978 294.002 521.963 293.137C522.887 292.273 523.349 291.139 523.349 289.738C523.349 288.396 522.872 287.307 521.918 286.472C520.904 285.607 519.562 285.175 517.892 285.175C516.222 285.175 514.91 285.607 513.955 286.472C513.001 287.277 512.524 288.381 512.524 289.782C512.524 291.125 513.016 292.228 514 293.093C514.984 293.987 516.311 294.435 517.981 294.435Z" fill="white"/>
</svg>
