<svg height="566" viewBox="0 0 470.588 566" width="470.588" xmlns="http://www.w3.org/2000/svg"><path d="m401.858 83.096c-42.493-51.242-101.413-83.099-166.565-83.096-65.15-.003-124.073 31.854-166.566 83.096-42.511 51.248-68.724 121.91-68.727 199.903.003 77.995 26.216 148.659 68.727 199.906 42.493 51.24 101.417 83.099 166.566 83.095 65.152.004 124.072-31.854 166.565-83.095 42.515-51.247 68.729-121.911 68.73-199.906-.002-77.992-26.215-148.655-68.73-199.903zm-4.631 395.967c-41.575 50.097-98.798 80.915-161.934 80.919-63.137-.004-120.36-30.822-161.936-80.919-41.561-50.089-67.346-119.42-67.343-196.064-.003-76.643 25.782-145.975 67.343-196.062 41.576-50.096 98.799-80.917 161.936-80.921 63.136.003 120.359 30.823 161.934 80.921 41.563 50.087 67.348 119.419 67.344 196.062.004 76.644-25.781 145.975-67.344 196.064z"/><path d="m397.227 479.063c-41.575 50.097-98.798 80.915-161.934 80.919-63.137-.004-120.36-30.822-161.936-80.919-41.561-50.089-67.346-119.42-67.343-196.064-.003-76.643 25.782-145.975 67.343-196.062 41.576-50.096 98.799-80.917 161.936-80.921 63.136.003 120.359 30.823 161.934 80.921 41.563 50.087 67.348 119.419 67.344 196.062.004 76.644-25.781 145.975-67.344 196.064z" fill="#fff"/><path d="m389.572 94.377c-39.337-48.36-93.911-78.456-154.277-78.453-60.366-.003-114.943 30.093-154.277 78.453-39.354 48.37-63.609 115.039-63.613 188.62.003 73.583 24.259 140.256 63.613 188.624 39.333 48.361 93.907 78.454 154.277 78.454 60.366 0 114.94-30.093 154.277-78.454 39.354-48.368 63.609-115.041 63.612-188.624-.003-73.58-24.259-140.251-63.612-188.62z"/><path d="m384.906 98.174c-38.436-47.213-91.303-76.229-149.611-76.232-58.308.003-111.175 29.02-149.611 76.232-38.418 47.204-62.268 112.567-62.264 184.823-.001 33.711 5.192 65.918 14.63 95.483l392.845-195.933c-10.779-31.813-26.506-60.432-45.989-84.373z" fill="#fff"/><path d="m205.959 217.752c-4.516-8.872-10.302-15.588-17.392-19.895-6.972-4.246-14.826-6.436-23.323-6.552-.249-.004-.505-.006-.762-.006-8.4.008-19.708 1.809-34.171 5.352-11.137 2.739-19.409 4.062-24.444 4.051-1.562.002-2.799-.127-3.644-.326-3.162-.775-4.917-2.149-6.179-4.532-.684-1.352-.979-2.578-.981-3.798.002-1.257.313-2.547 1.051-3.986 2.419-4.75 7.217-9.156 14.772-13.004 5.725-2.922 10.601-4.264 14.521-4.256 1.084 0 2.096.099 3.05.291 4.383.872 8.829 3.961 13.251 9.921l1.572 2.123 31.556-17.579-1.455-2.624c-7.029-12.769-17.362-21.099-30.476-24.353-3.505-.88-7.166-1.315-10.966-1.313-10.583.004-22.187 3.341-34.874 9.804-10.587 5.395-18.954 11.662-24.998 18.883-6.039 7.201-9.62 15.187-10.533 23.733-.177 1.657-.266 3.295-.266 4.917-.004 6.648 1.512 12.998 4.523 18.894 5.729 11.329 15.304 18.906 27.992 22.234 3.504.928 7.477 1.364 11.939 1.367 7.503-.002 16.404-1.239 26.793-3.656 12.656-2.941 20.895-4.672 24.375-5.154 1.81-.232 3.475-.346 4.952-.346 2.681-.004 4.734.383 6.148.996 2.331 1.016 4.058 2.64 5.428 5.292 1.051 2.071 1.554 4.161 1.558 6.413-.002 2.265-.525 4.717-1.665 7.4-2.131 5.022-7.12 9.826-15.485 14.084-5.554 2.83-10.634 4.161-15.279 4.159-1.875 0-3.687-.214-5.451-.643-6.067-1.467-12.07-5.799-17.921-13.531l-1.684-2.226-30.014 19.334 1.696 2.543c9.725 14.609 21.659 23.931 35.634 27.364 3.802.938 7.751 1.407 11.827 1.407 10.937-.004 22.733-3.324 35.406-9.776 11.91-6.069 21.148-12.87 27.654-20.526 6.508-7.661 10.304-16.388 11.199-25.911.159-1.671.239-3.326.239-4.965.004-7.605-1.729-14.858-5.173-21.604z"/><path d="m158.864 118.54 35.11-17.889 79.584 77.549-16.67-109.608 34.544-17.599 20.899 163.091-2.984.384 2.984-.384.268 2.103-32.94 16.784z"/><g fill="#fff"><path d="m88.349 430.034 3.482-2.25c1.164 1.801 2.363 3.055 3.598 3.761 1.234.706 2.661 1.053 4.279 1.039s3.236-.433 4.853-1.256c2.319-1.182 3.843-2.645 4.57-4.386.727-1.743.647-3.484-.239-5.224-.519-1.018-1.204-1.789-2.058-2.313-.853-.522-1.873-.788-3.059-.796-1.187-.006-3.566.34-7.138 1.043-3.181.622-5.563.832-7.147.63s-3.017-.752-4.298-1.652c-1.282-.899-2.318-2.128-3.111-3.683-1.424-2.795-1.649-5.559-.675-8.29s3.054-4.909 6.238-6.531c2.188-1.115 4.316-1.675 6.381-1.679 2.066-.004 3.948.54 5.646 1.633 1.699 1.093 3.117 2.676 4.254 4.746l-3.581 2.239c-1.34-2.146-2.886-3.454-4.639-3.927-1.753-.472-3.716-.154-5.888.952-2.205 1.123-3.645 2.457-4.32 3.997-.676 1.541-.63 3.064.139 4.571.712 1.398 1.688 2.266 2.93 2.603 1.242.338 3.549.143 6.922-.584 3.299-.707 5.682-1.075 7.147-1.107 2.246-.031 4.192.438 5.841 1.407 1.647.968 2.979 2.447 3.995 4.439 1.007 1.977 1.441 4.022 1.306 6.137-.137 2.115-.818 4.019-2.043 5.711-1.228 1.691-3.008 3.133-5.344 4.322-3.642 1.856-7.081 2.282-10.317 1.281s-5.81-3.277-7.724-6.833z"/><path d="m124.56 425.589-6.238-40.321 4.167-2.123 29.657 28.389-4.459 2.271-8.755-8.712-12.391 6.313 2.128 12.09zm1.223-18.486 10.032-5.111-7.934-8.005c-2.444-2.454-4.354-4.487-5.73-6.101.748 2.407 1.33 4.881 1.748 7.419z"/><path d="m160.127 407.466-17.596-34.534 3.993-2.034 29.326 19.278-13.843-27.168 3.724-1.897 17.596 34.534-3.993 2.035-29.305-19.296 13.846 27.172z"/><path d="m194.862 389.768-17.596-34.534 10.167-5.181c2.515-1.281 4.534-2.042 6.057-2.284 1.995-.324 3.993-.076 5.995.743 2.002.82 3.92 2.161 5.754 4.026s3.529 4.32 5.081 7.366c1.992 3.91 3.086 7.532 3.282 10.863.196 3.333-.35 6.045-1.641 8.136-1.29 2.093-3.445 3.907-6.467 5.446zm1.819-6.06 6.272-3.196c2.531-1.29 4.248-2.663 5.15-4.123.903-1.458 1.257-3.247 1.063-5.363-.261-2.814-1.224-5.854-2.888-9.121-1.785-3.502-3.681-6.003-5.689-7.501-2.009-1.5-3.961-2.19-5.857-2.076-1.277.077-3.051.694-5.322 1.851l-6.173 3.146z"/><path d="m229.646 372.044-17.596-34.534 3.896-1.984 7.226 14.182 15.313-7.802-7.226-14.182 3.895-1.985 17.597 34.534-3.896 1.985-8.294-16.278-15.313 7.802 8.295 16.278z"/><path d="m261.148 355.993-6.238-40.321 4.167-2.123 29.657 28.389-4.459 2.272-8.755-8.713-12.391 6.313 2.128 12.089zm1.224-18.485 10.032-5.112-7.934-8.005c-2.443-2.454-4.354-4.487-5.73-6.101.748 2.408 1.33 4.881 1.748 7.419z"/><path d="m298.474 293.475 3.896-1.984 10.166 19.953c1.704 3.345 2.764 6.262 3.18 8.751.415 2.487.045 4.808-1.109 6.959-1.154 2.15-3.11 3.93-5.867 5.334-3.884 1.979-7.36 2.346-10.43 1.1-3.069-1.244-6.045-4.693-8.925-10.347l-10.167-19.953 3.896-1.985 10.154 19.93c1.593 3.125 2.998 5.258 4.217 6.397 1.218 1.14 2.589 1.781 4.112 1.925 1.524.144 3.11-.205 4.76-1.046 2.776-1.415 4.406-3.194 4.887-5.339s-.39-5.398-2.614-9.765z"/><path d="m324.56 309.679 3.482-2.251c1.164 1.801 2.363 3.055 3.599 3.762 1.233.706 2.66 1.053 4.278 1.039 1.618-.015 3.236-.433 4.854-1.257 2.318-1.182 3.842-2.644 4.569-4.385.728-1.743.647-3.485-.239-5.225-.519-1.018-1.204-1.788-2.057-2.312-.854-.522-1.873-.788-3.06-.796-1.187-.007-3.566.34-7.138 1.042-3.182.622-5.563.832-7.147.631-1.584-.203-3.017-.752-4.298-1.653-1.281-.899-2.318-2.127-3.111-3.682-1.424-2.795-1.648-5.559-.675-8.29.975-2.731 3.054-4.909 6.239-6.533 2.188-1.115 4.315-1.675 6.381-1.678 2.065-.004 3.947.54 5.646 1.633 1.698 1.093 3.116 2.676 4.254 4.747l-3.58 2.239c-1.34-2.146-2.887-3.455-4.64-3.927s-3.715-.155-5.888.951c-2.204 1.124-3.645 2.457-4.32 3.997-.676 1.542-.629 3.065.139 4.572.713 1.398 1.689 2.265 2.931 2.602 1.241.338 3.549.143 6.922-.583 3.3-.707 5.682-1.076 7.146-1.107 2.246-.031 4.192.437 5.841 1.406 1.647.968 2.979 2.448 3.995 4.44 1.007 1.977 1.442 4.021 1.306 6.137s-.818 4.019-2.043 5.71c-1.227 1.692-3.008 3.133-5.344 4.323-3.642 1.855-7.08 2.282-10.317 1.28-3.236-.999-5.811-3.278-7.725-6.832z"/><path d="m364.079 303.548-17.597-34.535 21.29-10.848 2.076 4.075-17.395 8.863 5.378 10.554 16.292-8.301 2.076 4.075-16.292 8.301 5.989 11.755 18.081-9.212 2.076 4.075z"/><path d="m396.339 287.11-17.596-34.535 3.993-2.035 29.326 19.279-13.843-27.168 3.724-1.897 17.597 34.534-3.994 2.035-29.305-19.296 13.846 27.173z"/><path d="m254.56 490.096-4.835 2.463-18.906-37.107c-.451 1.86-1.27 3.941-2.456 6.244-1.187 2.302-2.387 4.197-3.604 5.687l-2.868-5.629c1.888-2.863 3.294-5.902 4.221-9.119.926-3.216 1.275-6.069 1.048-8.563l3.136-1.598z"/><path d="m269.331 468.756 4.374-2.882c3.291 4.627 6.742 6.019 10.357 4.177 1.612-.821 2.799-2.112 3.562-3.872.763-1.762.892-4.266.39-7.514-.504-3.249-1.7-6.728-3.591-10.438l-.593-1.164c-.024 2.431-.6 4.639-1.727 6.626s-2.572 3.431-4.336 4.329c-3.201 1.631-6.668 1.651-10.398.063-3.732-1.589-6.823-4.789-9.273-9.599-2.527-4.961-3.316-9.482-2.366-13.567.95-4.083 3.146-7.003 6.586-8.756 2.438-1.242 5.122-1.604 8.048-1.084 2.925.52 5.756 2.039 8.493 4.556 2.736 2.518 5.595 6.699 8.572 12.544 3.319 6.514 5.274 11.888 5.869 16.122.594 4.233.252 7.723-1.024 10.466-1.277 2.742-3.234 4.784-5.868 6.127-2.984 1.521-5.991 1.783-9.022.786-3.033-.996-5.717-3.304-8.053-6.92zm9.088-31.018c-1.728-3.392-3.851-5.67-6.368-6.835-2.52-1.166-4.771-1.243-6.757-.231-2.073 1.056-3.395 3.035-3.963 5.938-.57 2.901.026 6.081 1.787 9.536 1.585 3.111 3.622 5.195 6.113 6.251 2.49 1.059 4.815 1.036 6.977-.064 2.138-1.09 3.476-2.941 4.014-5.555.537-2.613-.063-5.628-1.803-9.04z"/><path d="m330.164 451.573-4.835 2.464-18.907-37.107c-.451 1.859-1.27 3.94-2.455 6.244-1.187 2.302-2.388 4.196-3.604 5.687l-2.868-5.629c1.888-2.864 3.294-5.903 4.22-9.119.927-3.217 1.275-6.07 1.049-8.563l3.136-1.598z"/><path d="m356.528 392.988-4.571 2.899c-1.692-2.194-3.247-3.579-4.663-4.155-2.048-.851-3.974-.816-5.778.103-2.804 1.429-4.173 4.301-4.109 8.615.061 3.718 1.563 8.494 4.509 14.328.056-2.636.649-4.915 1.782-6.837s2.636-3.36 4.509-4.315c3.114-1.586 6.543-1.573 10.285.037 3.742 1.612 6.806 4.758 9.19 9.438 1.615 3.171 2.497 6.342 2.646 9.513.147 3.171-.38 5.837-1.582 7.998-1.203 2.162-2.904 3.803-5.104 4.923-3.964 2.02-8.132 1.916-12.503-.313-4.373-2.228-8.662-7.471-12.872-15.732-4.67-9.166-6.681-16.365-6.033-21.6.648-5.233 3.026-8.898 7.138-10.993 2.979-1.518 5.988-1.782 9.024-.797s5.746 3.282 8.132 6.888zm-9.231 30.498c1.747 3.429 3.968 5.769 6.661 7.018 2.694 1.25 5.119 1.324 7.275.226 1.895-.965 3.088-2.81 3.579-5.532s-.136-5.798-1.884-9.228c-1.713-3.363-3.783-5.597-6.209-6.697-2.427-1.101-4.707-1.107-6.841-.02-2.091 1.064-3.445 2.917-4.063 5.555-.616 2.636-.122 5.53 1.482 8.678z"/></g><path d="m235.295 21.941v-6.016" fill="none"/></svg>