<svg xmlns="http://www.w3.org/2000/svg" width="360.0039" height="282.9803" viewBox="0 0 36.00039 28.29803">
  <title>Tampa Bay Rowdies logo (two gold stars)</title>
  <g id="Tampa_Bay_Rowdies_logo">
    <g id="text-with-trademark" style="fill: #4a8b2c">
      <g id="text">
        <g id="text-rowdies">
          <path d="M2.12,10.71552a.45122.45122,0,0,0-.428-.444.76149.76149,0,1,1-.002-1.523c.366,0,.598.205.917.241a1.30437,1.30437,0,0,0,.622-.073,2.39023,2.39023,0,0,1,.998-.216,2.41641,2.41641,0,0,1,2.416,2.416v4.19a2.40969,2.40969,0,0,1-1.302,2.143c.247,0,.318.291.318.291l1.314,3.926a.45733.45733,0,0,0,.465.269.76105.76105,0,0,1,.422,1.395,1.19567,1.19567,0,0,0-.406.607,2.94692,2.94692,0,0,0-.073.937.76251.76251,0,0,1-1.525,0,.70366.70366,0,0,1,.053-.271,1.21109,1.21109,0,0,0,.075-.321.85.85,0,0,0-.028-.183l-2.096-6.261-.003,6.801a.80966.80966,0,0,0,.763.762c.053.008.138.01.138.01a.75987.75987,0,0,1,.76.761.82016.82016,0,0,1-.736.773,1.17457,1.17457,0,0,0-.738.289,1.996,1.996,0,0,0-.495.617.7629.7629,0,0,1-1.429-.371l-.001-10.074a2.52355,2.52355,0,0,1,.001-4.982Zm-.001,5.688v-1.503a.76067.76067,0,0,0,0,1.503m1.739-6.31v6.314a1.07036,1.07036,0,0,0,1.07-1.072v-4.171a1.07014,1.07014,0,0,0-1.07-1.071" style="fill-rule: evenodd"/>
          <path d="M7.09468,10.96194a2.2725,2.2725,0,1,1,4.545,0v8.021a2.274,2.274,0,0,1-4.548.001Zm1.738-.559v9.128a.535.535,0,1,0,1.07,0v-9.128a.535.535,0,1,0-1.07,0" style="fill-rule: evenodd"/>
          <path d="M16.532,11.20032a.72445.72445,0,0,1-.124.38c-.067.101-.128.154-.084.3l.42,1.465.415-2.955a.76218.76218,0,0,1,.142-1.511.72266.72266,0,0,1,.336.078.98687.98687,0,0,0,.521.074,1.15551,1.15551,0,0,0,.477-.195.64154.64154,0,0,1,.356-.088.762.762,0,0,1,.077,1.52s-.137-.005-.167.218c-.012.09-.448,3.181-.937,6.672a1.001,1.001,0,0,0,.134.617c.128.194.274.328.414.515a.74681.74681,0,0,1,.169.479.76158.76158,0,0,1-.761.762.78878.78878,0,0,1-.711-.488.47117.47117,0,0,0-.301-.235,2.44885,2.44885,0,0,0-.512-.063.76042.76042,0,0,1-.761-.761.74835.74835,0,0,1,.494-.714c.074-.026.088-.179.088-.179l.022-.146-.806-2.811-.806,2.811.021.146s.015.153.088.179a.74922.74922,0,0,1,.495.714.76128.76128,0,0,1-.762.761,2.4583,2.4583,0,0,0-.512.063.46724.46724,0,0,0-.3.235.79094.79094,0,0,1-.711.488.7618.7618,0,0,1-.762-.762.74678.74678,0,0,1,.169-.479c.141-.187.286-.321.414-.515a1.00135,1.00135,0,0,0,.135-.617c-.49-3.491-.926-6.582-.938-6.672-.03-.223-.167-.218-.167-.218a.762.762,0,0,1,.078-1.52.64034.64034,0,0,1,.355.088,1.15367,1.15367,0,0,0,.478.195.98464.98464,0,0,0,.52-.074.72639.72639,0,0,1,.337-.078.76219.76219,0,0,1,.141,1.511l.416,2.955.419-1.465c.044-.146-.017-.199-.084-.3a.73337.73337,0,0,1-.124-.38.64762.64762,0,0,1,.648-.647.80638.80638,0,0,1,.282.067.35287.35287,0,0,0,.334,0,.791.791,0,0,1,.288-.067.64761.64761,0,0,1,.648.647c0,.358-.001-.357-.001,0" style="fill-rule: evenodd"/>
          <path d="M19.82127,10.39114c0-.164-.104-.195-.213-.276a.78964.78964,0,0,1-.299-.605.76222.76222,0,0,1,1.232-.599.42773.42773,0,0,0,.262.087h1.151a2.41491,2.41491,0,0,1,2.415,2.416v5.035a2.41492,2.41492,0,0,1-2.415,2.416h-1.151a.42773.42773,0,0,0-.262.087.76221.76221,0,0,1-1.232-.599.78964.78964,0,0,1,.299-.605c.109-.081.213-.112.213-.276Zm1.739-.012v7.096a1.06951,1.06951,0,0,0,1.07-1.071v-4.954a1.07015,1.07015,0,0,0-1.07-1.071" style="fill-rule: evenodd"/>
          <path d="M26.8653,19.86621a.76187.76187,0,0,1-.463,1.367.77606.77606,0,0,1-.75-.632,1.14015,1.14015,0,0,0-.354-.558,1.048,1.048,0,0,0-.569-.305.77041.77041,0,0,1-.659-.755.75415.75415,0,0,1,.474-.706c.209-.101.276-.192.276-.365v-7.289c0-.283-.055-.332-.22-.381a.76188.76188,0,0,1,.21-1.494,3.53186,3.53186,0,0,1,.521.131,1.23656,1.23656,0,0,0,.708,0,3.60593,3.60593,0,0,1,.522-.131.76288.76288,0,0,1,.216,1.494c-.16.055-.214.074-.214.378l-.001,8.221a1.22739,1.22739,0,0,0,.303,1.025"/>
          <path d="M30.15788,10.62012l-.006,6.233c.381,0,.447-.427.68-.741a.69211.69211,0,0,1,.545-.299.67573.67573,0,0,1,.648.648,4.28,4.28,0,0,1-.201.815,1.15616,1.15616,0,0,0,.065.636,3.83834,3.83834,0,0,0,.244.422.87693.87693,0,0,1,.173.483.76157.76157,0,0,1-1.514.118c-.093-.46.02-1.023-.634-1.023l-.006,4.499a.64873.64873,0,0,0,.647.65,3.00375,3.00375,0,0,0,.799-.144,2.84879,2.84879,0,0,0,.992-.489.71548.71548,0,0,1,.477-.212.64749.64749,0,1,1,0,1.295,12.47666,12.47666,0,0,0-1.499.126,1.90545,1.90545,0,0,0-1.291.887.84414.84414,0,0,1-.78.577.76849.76849,0,0,1-.762-.762,3.35436,3.35436,0,0,0-.065-.91,1.00179,1.00179,0,0,0-.559-.482.77765.77765,0,0,1-.613-.75.76185.76185,0,0,1,.547-.731c.207-.072.369-.132.369-.424v-3.125a2.52314,2.52314,0,0,1,.002-4.674l-.002-2.62c0-.283-.055-.332-.219-.381a.76173.76173,0,0,1,.21-1.494c.137,0,.719.177.967.233a2.29808,2.29808,0,0,0,1.404-.088.98236.98236,0,0,1,.447-.145.762.762,0,0,1,0,1.524.71861.71861,0,0,1-.345-.082c-.405-.195-.72-.028-.72.43m-1.744,6.239v-1.273a.64763.64763,0,0,0,0,1.273" style="fill-rule: evenodd"/>
          <path d="M34.31029,22.197a12.89019,12.89019,0,0,0-.952-4.284c-.524-1.5-1.523-2.404-1.857-4.213a7.79087,7.79087,0,0,1,.226-3.662,1.67066,1.67066,0,0,1,1.583-1.242,1.96136,1.96136,0,0,1,.69.153.70435.70435,0,0,0,.745-.019.777.777,0,0,1,.493-.181.76147.76147,0,0,1,.56,1.278.95616.95616,0,0,0-.197.435,1.01215,1.01215,0,0,0,.107.639.64738.64738,0,0,1-.553.985.65575.65575,0,0,1-.652-.639,1.78477,1.78477,0,0,0-.123-.629.57465.57465,0,0,0-.534-.296c-.798,0-.809,1.737-.702,2.749.119,1.129.999,1.952,1.618,3.285a11.43448,11.43448,0,0,1,1.238,5.236c0,2.381.048,3.833-1.845,5.665a3.03464,3.03464,0,0,1-1.606.762.7537.7537,0,0,1-.735-.56,2.86,2.86,0,0,0-.289-.702,1.114,1.114,0,0,0-.738-.408.76777.76777,0,0,1-.69-.758.79128.79128,0,0,1,.405-.69c.448-.353.636-.501.845-1.666a5.95622,5.95622,0,0,0,.077-1.994.647.647,0,0,1,.637-.677.68846.68846,0,0,1,.654.725c-.105.548-.63,1.422-.785,2.077a5.03637,5.03637,0,0,0-.167,2.285.76663.76663,0,0,0,.75.63.34376.34376,0,0,0,.123-.009c1.531-.55,1.674-4.275,1.674-4.275" style="fill-rule: evenodd"/>
        </g>
        <g id="text-tampa-bay">
          <polygon points="8.56 7.019 8.822 7.019 8.822 7.402 7.841 7.402 7.841 7.019 8.103 7.019 8.103 5.41 7.751 5.41 7.751 5.759 7.388 5.759 7.388 5.004 9.275 5.004 9.275 5.759 8.913 5.759 8.913 5.41 8.56 5.41 8.56 7.019"/>
          <path d="M10.90749,7.06552h.266l-.141-.359h-.844l-.137.359h.258v.336h-.977v-.383h.255l.699-1.632h-.265v-.383h.802l.84,2.015h.255v.383h-1.011Zm-.292-1.535h-.003l-.306.823h.611Z"/>
          <polygon points="15.042 7.019 15.304 7.019 15.304 7.402 14.327 7.402 14.327 7.019 14.585 7.019 14.585 5.625 13.924 7.402 13.601 7.402 12.919 5.625 12.919 7.019 13.198 7.019 13.198 7.402 12.2 7.402 12.2 7.019 12.462 7.019 12.462 5.387 12.2 5.387 12.2 5.004 13.101 5.004 13.752 6.697 14.404 5.004 15.304 5.004 15.304 5.387 15.042 5.387 15.042 7.019"/>
          <path d="M16.60619,5.0036a1.08627,1.08627,0,0,1,.639.157.75143.75143,0,0,1,.295.625.781.781,0,0,1-.232.564.77162.77162,0,0,1-.611.222h-.329v.447h.262v.383h-.977v-.383h.258v-1.633h-.258v-.382Zm.034,1.155a.43367.43367,0,0,0,.309-.081.37743.37743,0,0,0,.131-.292.35418.35418,0,0,0-.151-.292.48028.48028,0,0,0-.309-.074h-.252v.739Z"/>
          <path d="M19.15878,7.06552h.266l-.141-.359h-.844l-.137.359h.258v.336h-.977v-.383h.255l.699-1.632h-.266v-.383h.803l.84,2.015h.255v.383h-1.011Zm-.292-1.535h-.003l-.306.823h.611Z"/>
          <path d="M21.68388,7.01843h.259v-1.632h-.259v-.383h1.065a.80155.80155,0,0,1,.497.124.57324.57324,0,0,1,.225.477.55127.55127,0,0,1-.312.511.63843.63843,0,0,1,.416.618.67364.67364,0,0,1-.225.507.77144.77144,0,0,1-.551.161h-1.115Zm.716-.017h.252a.59344.59344,0,0,0,.332-.06.31282.31282,0,0,0,.135-.262.32579.32579,0,0,0-.131-.272.53862.53862,0,0,0-.333-.071h-.255Zm.003-1.041h.232a.49132.49132,0,0,0,.309-.06.29423.29423,0,0,0-.017-.467.52468.52468,0,0,0-.289-.047h-.235Z"/>
          <path d="M25.43538,7.06552h.266l-.141-.359h-.844l-.137.359h.258v.336h-.977v-.383h.255l.699-1.632h-.266v-.383h.803l.84,2.015h.255v.383h-1.011Zm-.292-1.535h-.003l-.306.823h.611Z"/>
          <polygon points="27.652 7.019 27.914 7.019 27.914 7.402 26.937 7.402 26.937 7.019 27.195 7.019 27.195 6.566 26.56 5.387 26.319 5.387 26.319 5.004 27.246 5.004 27.246 5.387 27.024 5.387 27.427 6.179 27.827 5.387 27.598 5.387 27.598 5.004 28.522 5.004 28.522 5.387 28.283 5.387 27.652 6.566 27.652 7.019"/>
        </g>
      </g>
      <path id="trademark" d="M34.88269,27.851h-.162v.447h.109v-.306h.004l.108.306h.084l.109-.307.004.002v.305h.109v-.447h-.162l-.1.28h-.002Zm-.251,0h-.37v.091h.13v.356h.109v-.356h.131Z" style="fill-rule: evenodd"/>
    </g>
    <g id="stars" style="fill: #ffcd00">
      <polygon points="15.764 0 16.209 1.377 17.657 1.375 16.483 2.224 16.934 3.6 15.764 2.746 14.595 3.6 15.045 2.224 13.872 1.375 15.319 1.377 15.764 0"/>
      <polygon points="20.197 0 19.753 1.378 18.306 1.375 19.479 2.224 19.029 3.6 20.197 2.747 21.367 3.6 20.916 2.224 22.09 1.375 20.642 1.378 20.197 0"/>
    </g>
  </g>
</svg>
