<?xml version="1.0" encoding="UTF-8" standalone="no"?>
<!-- Created with Inkscape (http://www.inkscape.org/) -->

<svg
   xmlns:dc="http://purl.org/dc/elements/1.1/"
   xmlns:cc="http://creativecommons.org/ns#"
   xmlns:rdf="http://www.w3.org/1999/02/22-rdf-syntax-ns#"
   xmlns:svg="http://www.w3.org/2000/svg"
   xmlns="http://www.w3.org/2000/svg"
   xmlns:sodipodi="http://sodipodi.sourceforge.net/DTD/sodipodi-0.dtd"
   xmlns:inkscape="http://www.inkscape.org/namespaces/inkscape"
   version="1.1"
   id="svg2"
   width="435"
   height="500"
   viewBox="0 0 435 500"
   sodipodi:docname="trinid.svg"
   inkscape:version="0.48.1 ">
  <metadata
     id="metadata3051">
    <rdf:RDF>
      <cc:Work
         rdf:about="">
        <dc:format>image/svg+xml</dc:format>
        <dc:type
           rdf:resource="http://purl.org/dc/dcmitype/StillImage" />
      </cc:Work>
    </rdf:RDF>
  </metadata>
  <defs
     id="defs6">
    <clipPath
       clipPathUnits="userSpaceOnUse"
       id="clipPath16">
      <path
         d="M 0,1080 H 1080 V 0 H 0 z"
         id="path14"
         inkscape:connector-curvature="0" />
    </clipPath>
  </defs>
  <sodipodi:namedview
     id="namedview4"
     pagecolor="#ffffff"
     bordercolor="#000000"
     borderopacity="0.25"
     inkscape:showpageshadow="2"
     inkscape:pageopacity="0.0"
     inkscape:pagecheckerboard="0"
     inkscape:deskcolor="#d1d1d1"
     showgrid="false"
     inkscape:zoom="0.76818182"
     inkscape:cx="232.30769"
     inkscape:cy="258.46154"
     inkscape:window-width="1280"
     inkscape:window-height="657"
     inkscape:window-x="-8"
     inkscape:window-y="-8"
     inkscape:window-maximized="1"
     inkscape:current-layer="g8" />
  <g
     id="g8"
     inkscape:groupmode="layer"
     inkscape:label="sportivo-trinidense-seeklogo.com"
     transform="matrix(1.3333333,0,0,-1.3333333,0,500)">
    <g
       id="g10"
       transform="matrix(0.42159976,0,0,0.42159976,-62.851705,-39.96809)">
      <g
         id="g12"
         clip-path="url(#clipPath16)">
        <g
           id="g18"
           transform="translate(895.5555,463.7408)">
          <path
             d="m 0,0 c 0,-198.004 -160.514,-358.519 -358.518,-358.519 -198.005,0 -358.519,160.515 -358.519,358.519 0,198.004 160.514,358.519 358.519,358.519 C -160.514,358.519 0,198.004 0,0"
             style="fill:#ffd80e;fill-opacity:1;fill-rule:nonzero;stroke:none"
             id="path20"
             inkscape:connector-curvature="0" />
        </g>
        <g
           id="g22"
           transform="translate(863.7706,536.2222)">
          <path
             d="M 0,0 C -33.119,149.96 -166.814,262.148 -326.734,262.148 -486.653,262.148 -620.348,149.96 -653.467,0 z"
             style="fill:#251981;fill-opacity:1;fill-rule:nonzero;stroke:none"
             id="path24"
             inkscape:connector-curvature="0" />
        </g>
        <g
           id="g26"
           transform="translate(210.626,389.7778)">
          <path
             d="m 0,0 c 33.669,-149.218 167.018,-260.667 326.411,-260.667 159.393,0 292.742,111.449 326.411,260.667 z"
             style="fill:#251981;fill-opacity:1;fill-rule:nonzero;stroke:none"
             id="path28"
             inkscape:connector-curvature="0" />
        </g>
        <g
           id="g30"
           transform="translate(537.6296,768.3333)">
          <path
             d="m 0,0 c -31.355,0 -61.602,-4.736 -90.074,-13.519 v -14.01 -31.124 -267.569 H 46.37 v -236.381 c -15.032,-2.693 -30.509,-4.101 -46.314,-4.101 -15.683,0 -31.041,1.389 -45.963,4.042 v 120.273 h -44.167 v -108.328 -20.135 -26 c 28.472,-8.783 58.719,-13.518 90.074,-13.518 31.247,0 61.392,4.706 89.778,13.43 v 41.792 4.281 267.719 h -136 v 236.387 c 15.02,2.689 30.485,4.094 46.278,4.094 15.701,0 31.079,-1.389 46.018,-4.048 V -167 h 43.704 v 108.497 32.836 12.237 C 61.392,-4.706 31.247,0 0,0"
             style="fill:#ffffff;fill-opacity:1;fill-rule:nonzero;stroke:none"
             id="path32"
             inkscape:connector-curvature="0" />
        </g>
        <g
           id="g34"
           transform="translate(232.4445,463.1481)">
          <path
             d="m 0,0 c 0,-123.3 73.127,-229.51 178.37,-277.657 v 14.953 34.066 130.601 H 135.111 V -198.438 C 79.206,-150.387 43.778,-79.096 43.778,0.5 c 0,79.596 35.428,150.887 91.333,198.938 V 98.778 h 43.259 v 130.861 12.843 35.175 C 73.127,229.51 0,123.3 0,0"
             style="fill:#ffffff;fill-opacity:1;fill-rule:nonzero;stroke:none"
             id="path36"
             inkscape:connector-curvature="0" />
        </g>
        <g
           id="g38"
           transform="translate(840.0327,504.4445)">
          <path
             d="m 0,0 c -13.531,100.005 -75.5,184.624 -161.514,229.471 v -49.47 c 20.949,-13.446 39.849,-29.812 56.148,-48.513 v -288.821 -55.755 -20.468 -40.773 c 15.929,13.481 30.454,28.566 43.333,45.004 v 85.146 206.721 C -53.579,42.823 -47.455,21.864 -44.044,0 z"
             style="fill:#ffffff;fill-opacity:1;fill-rule:nonzero;stroke:none"
             id="path40"
             inkscape:connector-curvature="0" />
        </g>
        <g
           id="g42"
           transform="translate(514.963,934.963)">
          <path
             d="M 0,0 H -40 L -53.037,39.556 -66.074,0 h -40 l 32.296,-23.111 -12.444,-39.111 33.185,23.259 33.185,-23.259 -12.444,39.111 z"
             style="fill:#ffd80e;fill-opacity:1;fill-rule:nonzero;stroke:none"
             id="path44"
             inkscape:connector-curvature="0" />
        </g>
        <g
           id="g46"
           transform="translate(666.074,934.963)">
          <path
             d="M 0,0 H -40 L -53.037,39.556 -66.074,0 h -40 l 32.296,-23.111 -12.444,-39.111 33.185,23.259 33.185,-23.259 -12.444,39.111 z"
             style="fill:#ffd80e;fill-opacity:1;fill-rule:nonzero;stroke:none"
             id="path48"
             inkscape:connector-curvature="0" />
        </g>
        <g
           id="g50"
           transform="translate(379.8518,888.7407)">
          <path
             d="M 0,0 H -40 L -53.037,39.556 -66.074,0 h -40 l 32.296,-23.111 -12.444,-39.111 33.185,23.259 33.185,-23.259 -12.444,39.111 z"
             style="fill:#ffd80e;fill-opacity:1;fill-rule:nonzero;stroke:none"
             id="path52"
             inkscape:connector-curvature="0" />
        </g>
        <g
           id="g54"
           transform="translate(801.6296,888.7407)">
          <path
             d="M 0,0 H -40 L -53.037,39.556 -66.074,0 h -40 l 32.296,-23.111 -12.444,-39.111 33.185,23.259 33.185,-23.259 -12.444,39.111 z"
             style="fill:#ffd80e;fill-opacity:1;fill-rule:nonzero;stroke:none"
             id="path56"
             inkscape:connector-curvature="0" />
        </g>
        <g
           id="g58"
           transform="translate(265.1852,796.1111)">
          <path
             d="M 0,0 H -40 L -53.037,39.556 -66.074,0 h -40 l 32.296,-23.111 -12.444,-39.111 33.185,23.259 33.185,-23.259 -12.444,39.111 z"
             style="fill:#ffd80e;fill-opacity:1;fill-rule:nonzero;stroke:none"
             id="path60"
             inkscape:connector-curvature="0" />
        </g>
        <g
           id="g62"
           transform="translate(916.8076,796.1111)">
          <path
             d="M 0,0 H -40 L -53.037,39.556 -66.074,0 h -40 l 32.296,-23.111 -12.444,-39.111 33.185,23.259 33.185,-23.259 -12.444,39.111 z"
             style="fill:#ffd80e;fill-opacity:1;fill-rule:nonzero;stroke:none"
             id="path64"
             inkscape:connector-curvature="0" />
        </g>
      </g>
    </g>
  </g>
</svg>
