<?xml version="1.0" encoding="UTF-8"?>
<svg xmlns="http://www.w3.org/2000/svg" xmlns:xlink="http://www.w3.org/1999/xlink" width="288.02pt" height="294.25pt" viewBox="0 0 288.02 294.25" version="1.1">
<g id="surface1">
<path style=" stroke:none;fill-rule:nonzero;fill:rgb(84.169006%,17.330933%,15.376282%);fill-opacity:1;" d="M 53.851562 68.730469 C 55.746094 69.136719 57.136719 69.277344 58.03125 69.152344 C 58.925781 69.023438 59.667969 68.636719 60.257812 67.992188 L 61.214844 68.71875 L 55.675781 76.019531 L 54.71875 75.296875 L 54.789062 75.203125 C 55.140625 74.738281 55.3125 74.277344 55.304688 73.824219 C 55.300781 73.371094 55.117188 73.011719 54.769531 72.746094 C 54.257812 72.363281 53.328125 72.019531 51.972656 71.726562 C 51.828125 71.699219 51.714844 71.675781 51.628906 71.660156 L 32.398438 67.839844 L 41.238281 85.359375 C 41.460938 85.839844 41.714844 86.261719 41.996094 86.617188 C 42.277344 86.980469 42.566406 87.273438 42.867188 87.5 C 43.40625 87.910156 43.925781 88.070312 44.429688 87.988281 C 44.933594 87.90625 45.398438 87.578125 45.832031 87.011719 L 45.902344 86.917969 L 46.859375 87.644531 L 42.433594 93.476562 L 41.492188 92.765625 C 41.949219 92.097656 42.109375 91.296875 41.980469 90.359375 C 41.855469 89.421875 41.355469 88.089844 40.484375 86.355469 L 29.011719 63.683594 L 53.851562 68.730469 "/>
<path style=" stroke:none;fill-rule:nonzero;fill:rgb(84.169006%,17.330933%,15.376282%);fill-opacity:1;" d="M 27.917969 88.339844 L 22.835938 99.097656 L 35.886719 98.15625 Z M 24.519531 84.042969 C 23.984375 83.386719 23.480469 82.84375 23.015625 82.414062 C 22.550781 81.988281 22.144531 81.695312 21.804688 81.53125 C 21.183594 81.238281 20.550781 81.246094 19.90625 81.5625 C 19.261719 81.875 18.710938 82.441406 18.253906 83.257812 L 17.1875 82.753906 L 21.214844 74.226562 L 22.28125 74.730469 C 21.820312 75.832031 21.757812 76.925781 22.089844 78.011719 C 22.425781 79.097656 23.433594 80.6875 25.109375 82.789062 L 39.992188 101.238281 L 12.347656 103.238281 C 11.410156 103.3125 10.511719 103.542969 9.648438 103.9375 C 8.789062 104.324219 8.191406 104.765625 7.859375 105.257812 L 6.792969 104.753906 L 11.023438 95.800781 L 12.089844 96.304688 L 11.988281 96.515625 C 11.722656 97.078125 11.675781 97.621094 11.847656 98.140625 C 12.019531 98.660156 12.367188 99.046875 12.898438 99.296875 C 13.167969 99.421875 13.570312 99.519531 14.105469 99.585938 C 14.644531 99.652344 15.183594 99.664062 15.734375 99.621094 L 21.460938 99.183594 L 27.09375 87.261719 L 24.519531 84.042969 "/>
<path style=" stroke:none;fill-rule:nonzero;fill:rgb(84.169006%,17.330933%,15.376282%);fill-opacity:1;" d="M 29.136719 129.957031 L 31.308594 119.308594 L 19.328125 116.867188 L 17.160156 127.515625 C 16.742188 129.542969 16.964844 131.292969 17.816406 132.765625 C 18.667969 134.238281 19.976562 135.15625 21.746094 135.515625 C 23.539062 135.882812 25.117188 135.554688 26.476562 134.53125 C 27.839844 133.507812 28.722656 131.980469 29.136719 129.957031 Z M 30.433594 129.625 C 29.671875 133.363281 28.492188 136.058594 26.898438 137.710938 C 25.304688 139.359375 23.316406 139.941406 20.9375 139.457031 C 18.878906 139.039062 17.371094 137.898438 16.421875 136.03125 C 15.46875 134.171875 15.203125 131.828125 15.617188 129.011719 C 14.703125 129.980469 12.65625 130.835938 9.476562 131.578125 C 8.878906 131.722656 8.417969 131.832031 8.097656 131.914062 C 6.492188 132.285156 5.242188 132.722656 4.34375 133.214844 C 3.449219 133.707031 2.941406 134.226562 2.832031 134.773438 C 2.816406 134.851562 2.804688 134.929688 2.800781 135.007812 C 2.800781 135.085938 2.808594 135.214844 2.824219 135.390625 L 1.929688 135.78125 C 1.292969 135.160156 0.859375 134.578125 0.632812 134.039062 C 0.410156 133.492188 0.355469 132.917969 0.480469 132.308594 C 0.683594 131.328125 1.257812 130.558594 2.214844 130.007812 C 3.171875 129.449219 4.984375 128.957031 7.660156 128.519531 C 10.21875 128.074219 12.058594 127.65625 13.175781 127.269531 C 14.296875 126.878906 15.140625 126.40625 15.707031 125.84375 L 16.179688 126.0625 L 18.105469 116.617188 L 10.625 115.09375 C 8.804688 114.722656 7.546875 114.652344 6.855469 114.878906 C 6.164062 115.109375 5.726562 115.675781 5.542969 116.574219 L 5.527344 116.652344 L 4.371094 116.414062 L 6.0625 108.109375 L 7.21875 108.347656 L 7.207031 108.421875 C 7.019531 109.335938 7.199219 110.03125 7.746094 110.503906 C 8.292969 110.980469 9.480469 111.40625 11.300781 111.777344 L 27.425781 115.0625 C 29.230469 115.429688 30.476562 115.503906 31.164062 115.289062 C 31.847656 115.070312 32.28125 114.523438 32.460938 113.648438 L 32.492188 113.496094 L 33.671875 113.738281 L 30.433594 129.625 "/>
<path style=" stroke:none;fill-rule:nonzero;fill:rgb(84.169006%,17.330933%,15.376282%);fill-opacity:1;" d="M 1.816406 160.175781 C 1.882812 162.09375 2.355469 163.59375 3.21875 164.679688 C 4.089844 165.761719 5.484375 166.589844 7.402344 167.167969 L 7.449219 168.414062 L 0.949219 168.65625 L 0 143.183594 L 1.179688 143.140625 L 1.1875 143.292969 C 1.21875 144.199219 1.570312 144.820312 2.242188 145.152344 C 2.910156 145.484375 4.148438 145.613281 5.953125 145.546875 L 22.390625 144.933594 C 24.175781 144.867188 25.394531 144.652344 26.035156 144.285156 C 26.675781 143.917969 26.984375 143.292969 26.949219 142.414062 L 26.941406 142.179688 L 28.144531 142.136719 L 29.09375 167.609375 L 22.835938 167.84375 L 22.789062 166.597656 C 24.566406 165.894531 25.824219 164.96875 26.570312 163.816406 C 27.3125 162.664062 27.644531 161.132812 27.578125 159.214844 L 27.167969 148.324219 L 16.125 148.738281 L 16.316406 153.839844 C 16.394531 155.890625 16.722656 157.378906 17.300781 158.300781 C 17.882812 159.21875 18.769531 159.675781 19.96875 159.652344 L 20.011719 160.835938 L 11.972656 161.136719 L 11.929688 159.953125 C 13.109375 159.882812 13.957031 159.363281 14.476562 158.398438 C 14.992188 157.429688 15.214844 155.921875 15.136719 153.886719 L 14.945312 148.78125 L 1.410156 149.285156 L 1.816406 160.175781 "/>
<path style=" stroke:none;fill-rule:nonzero;fill:rgb(84.169006%,17.330933%,15.376282%);fill-opacity:1;" d="M 9.285156 174.570312 L 9.613281 175.777344 C 8 176.980469 6.890625 178.808594 6.28125 181.25 C 5.667969 183.691406 5.699219 186.15625 6.382812 188.648438 C 7.058594 191.128906 8.175781 192.964844 9.738281 194.167969 C 11.296875 195.367188 13 195.71875 14.84375 195.214844 C 16.597656 194.734375 17.734375 193.710938 18.253906 192.132812 C 18.773438 190.558594 18.738281 187.960938 18.15625 184.339844 C 17.460938 179.863281 17.429688 176.621094 18.078125 174.625 C 18.722656 172.625 20.140625 171.324219 22.335938 170.726562 C 24.476562 170.140625 26.457031 170.515625 28.273438 171.851562 C 30.09375 173.183594 31.378906 175.222656 32.128906 177.964844 C 32.542969 179.492188 32.8125 181.320312 32.933594 183.449219 C 33.054688 185.578125 33.199219 186.945312 33.363281 187.5625 C 33.523438 188.136719 33.773438 188.726562 34.121094 189.335938 C 34.46875 189.941406 34.9375 190.597656 35.53125 191.3125 L 29.03125 193.085938 L 28.707031 191.894531 C 30.125 190.578125 31.074219 188.761719 31.554688 186.4375 C 32.03125 184.113281 31.933594 181.730469 31.269531 179.289062 C 30.675781 177.125 29.789062 175.558594 28.601562 174.589844 C 27.410156 173.621094 26.046875 173.347656 24.507812 173.769531 C 23.851562 173.949219 23.277344 174.28125 22.785156 174.765625 C 22.289062 175.246094 21.949219 175.8125 21.761719 176.457031 C 21.332031 177.945312 21.410156 180.195312 21.988281 183.199219 C 22.101562 183.816406 22.1875 184.28125 22.25 184.601562 C 22.929688 188.480469 22.847656 191.566406 22 193.855469 C 21.148438 196.148438 19.539062 197.617188 17.171875 198.261719 C 14.644531 198.957031 12.269531 198.515625 10.054688 196.9375 C 7.835938 195.359375 6.300781 192.988281 5.433594 189.816406 C 5 188.238281 4.761719 186.332031 4.714844 184.089844 C 4.664062 181.847656 4.5625 180.433594 4.398438 179.84375 C 4.21875 179.167969 3.964844 178.550781 3.65625 177.996094 C 3.34375 177.445312 2.945312 176.925781 2.464844 176.4375 L 9.285156 174.570312 "/>
<path style=" stroke:none;fill-rule:nonzero;fill:rgb(84.169006%,17.330933%,15.376282%);fill-opacity:1;" d="M 20.742188 222.144531 C 21.660156 223.832031 22.75 224.972656 24.011719 225.5625 C 25.269531 226.148438 26.886719 226.277344 28.863281 225.945312 L 29.460938 227.039062 L 23.738281 230.148438 L 11.558594 207.730469 L 12.605469 207.160156 L 12.675781 207.296875 C 13.113281 208.09375 13.703125 208.492188 14.449219 208.492188 C 15.195312 208.492188 16.363281 208.058594 17.949219 207.195312 L 32.386719 199.355469 C 33.964844 198.496094 34.960938 197.761719 35.371094 197.148438 C 35.785156 196.53125 35.78125 195.839844 35.359375 195.066406 L 35.25 194.859375 L 36.320312 194.277344 L 48.496094 216.699219 L 42.976562 219.699219 L 42.378906 218.601562 C 43.664062 217.179688 44.382812 215.785156 44.535156 214.421875 C 44.6875 213.058594 44.304688 211.53125 43.386719 209.839844 L 38.1875 200.269531 L 28.480469 205.542969 L 30.914062 210.03125 C 31.894531 211.835938 32.851562 213.019531 33.777344 213.585938 C 34.707031 214.15625 35.699219 214.164062 36.761719 213.617188 L 37.328125 214.664062 L 30.269531 218.5 L 29.703125 217.453125 C 30.722656 216.863281 31.253906 216.023438 31.28125 214.929688 C 31.3125 213.832031 30.84375 212.390625 29.871094 210.597656 L 27.433594 206.109375 L 15.542969 212.570312 L 20.742188 222.144531 "/>
<path style=" stroke:none;fill-rule:nonzero;fill:rgb(84.169006%,17.330933%,15.376282%);fill-opacity:1;" d="M 40.042969 250.265625 L 40.847656 249.371094 L 40.964844 249.476562 C 41.644531 250.089844 42.335938 250.269531 43.039062 250.023438 C 43.742188 249.777344 44.699219 248.984375 45.902344 247.644531 L 56.914062 235.402344 C 58.105469 234.082031 58.789062 233.054688 58.96875 232.328125 C 59.148438 231.601562 58.914062 230.941406 58.265625 230.359375 L 58.089844 230.203125 L 58.890625 229.3125 L 76.65625 245.289062 L 72.472656 249.945312 L 71.574219 249.140625 C 72.308594 247.371094 72.519531 245.820312 72.207031 244.480469 C 71.886719 243.140625 71.011719 241.824219 69.574219 240.53125 L 62.675781 234.328125 L 55.285156 242.542969 L 57.902344 244.894531 C 59.417969 246.261719 60.710938 247.054688 61.773438 247.273438 C 62.839844 247.492188 63.78125 247.164062 64.605469 246.289062 L 65.496094 247.089844 L 60.085938 253.101562 L 59.195312 252.300781 C 59.96875 251.402344 60.191406 250.429688 59.859375 249.386719 C 59.53125 248.34375 58.609375 247.144531 57.101562 245.785156 L 54.484375 243.433594 L 48.554688 250.027344 C 47.347656 251.367188 46.660156 252.402344 46.492188 253.128906 C 46.320312 253.855469 46.570312 254.519531 47.238281 255.121094 L 47.371094 255.238281 L 46.570312 256.132812 L 40.042969 250.265625 "/>
<path style=" stroke:none;fill-rule:nonzero;fill:rgb(84.169006%,17.330933%,15.376282%);fill-opacity:1;" d="M 91.417969 269.402344 C 93.25 266.070312 93.847656 262.816406 93.210938 259.644531 C 92.574219 256.46875 90.835938 254.101562 88.003906 252.539062 C 85.214844 251.003906 82.273438 250.835938 79.183594 252.03125 C 76.09375 253.226562 73.625 255.503906 71.777344 258.855469 C 69.949219 262.179688 69.355469 265.433594 70.007812 268.617188 C 70.65625 271.804688 72.394531 274.179688 75.226562 275.742188 C 78.015625 277.273438 80.949219 277.441406 84.027344 276.238281 C 87.105469 275.035156 89.570312 272.757812 91.417969 269.402344 Z M 88.578125 251.492188 C 92.492188 253.648438 95.050781 256.558594 96.265625 260.226562 C 97.476562 263.898438 97.078125 267.554688 95.074219 271.191406 C 92.996094 274.972656 90.039062 277.382812 86.214844 278.425781 C 82.382812 279.46875 78.53125 278.921875 74.652344 276.789062 C 70.738281 274.632812 68.171875 271.71875 66.949219 268.039062 C 65.726562 264.367188 66.117188 260.707031 68.121094 257.066406 C 70.195312 253.300781 73.152344 250.894531 76.984375 249.851562 C 80.824219 248.804688 84.6875 249.351562 88.578125 251.492188 "/>
<path style=" stroke:none;fill-rule:nonzero;fill:rgb(84.169006%,17.330933%,15.376282%);fill-opacity:1;" d="M 123.503906 278.863281 C 124.417969 275.171875 124.15625 271.875 122.71875 268.972656 C 121.28125 266.066406 118.992188 264.226562 115.847656 263.445312 C 112.757812 262.675781 109.867188 263.269531 107.1875 265.21875 C 104.503906 267.164062 102.703125 269.996094 101.78125 273.714844 C 100.867188 277.390625 101.136719 280.6875 102.582031 283.601562 C 104.03125 286.511719 106.328125 288.359375 109.472656 289.140625 C 112.5625 289.90625 115.445312 289.316406 118.113281 287.363281 C 120.78125 285.414062 122.578125 282.578125 123.503906 278.863281 Z M 116.136719 262.285156 C 120.472656 263.363281 123.699219 265.519531 125.816406 268.753906 C 127.933594 271.988281 128.488281 275.617188 127.488281 279.652344 C 126.453125 283.835938 124.214844 286.921875 120.78125 288.914062 C 117.351562 290.902344 113.484375 291.367188 109.183594 290.296875 C 104.847656 289.222656 101.613281 287.0625 99.484375 283.828125 C 97.355469 280.589844 96.792969 276.957031 97.792969 272.925781 C 98.828125 268.753906 101.066406 265.671875 104.507812 263.675781 C 107.945312 261.679688 111.824219 261.21875 116.136719 262.285156 "/>
<path style=" stroke:none;fill-rule:nonzero;fill:rgb(84.169006%,17.330933%,15.376282%);fill-opacity:1;" d="M 144.925781 288.347656 C 144.894531 290.152344 145.058594 291.390625 145.410156 292.050781 C 145.761719 292.714844 146.386719 293.050781 147.277344 293.066406 L 147.453125 293.070312 L 147.433594 294.25 L 138.816406 294.105469 L 138.835938 292.929688 L 138.992188 292.929688 C 139.898438 292.945312 140.535156 292.625 140.902344 291.980469 C 141.269531 291.328125 141.46875 290.097656 141.496094 288.292969 L 141.839844 267.1875 L 139.097656 267.140625 C 137.164062 267.109375 135.632812 267.480469 134.5 268.242188 C 133.371094 269.011719 132.46875 270.289062 131.789062 272.078125 L 130.601562 272.058594 L 130.703125 265.804688 L 156.464844 266.21875 L 156.363281 272.476562 L 155.15625 272.457031 C 154.546875 270.644531 153.6875 269.339844 152.578125 268.539062 C 151.46875 267.734375 149.949219 267.320312 148.027344 267.285156 L 145.265625 267.242188 L 144.925781 288.347656 "/>
<path style=" stroke:none;fill-rule:nonzero;fill:rgb(84.169006%,17.330933%,15.376282%);fill-opacity:1;" d="M 175.0625 274.566406 L 164.582031 276.929688 L 167.8125 291.226562 L 176.65625 289.230469 C 179.421875 288.601562 181.394531 287.460938 182.5625 285.804688 C 183.738281 284.148438 184.046875 282.097656 183.496094 279.648438 C 183.027344 277.574219 182.046875 276.082031 180.554688 275.179688 C 179.0625 274.277344 177.230469 274.070312 175.0625 274.566406 Z M 173.503906 263.519531 L 162.132812 266.085938 L 164.320312 275.773438 L 174.402344 273.496094 C 176.425781 273.035156 177.898438 272.246094 178.800781 271.125 C 179.707031 270.003906 179.984375 268.660156 179.632812 267.105469 C 179.324219 265.734375 178.59375 264.714844 177.449219 264.035156 C 176.304688 263.355469 174.988281 263.183594 173.503906 263.519531 Z M 162.238281 293.703125 L 161.976562 292.542969 L 162.050781 292.523438 C 162.96875 292.316406 163.53125 291.871094 163.738281 291.175781 C 163.949219 290.480469 163.851562 289.230469 163.441406 287.417969 L 159.816406 271.378906 C 159.410156 269.582031 158.96875 268.414062 158.488281 267.878906 C 158.003906 267.34375 157.328125 267.171875 156.449219 267.371094 L 156.300781 267.40625 L 156.03125 266.226562 L 173.789062 262.210938 C 176.574219 261.582031 178.796875 261.617188 180.460938 262.316406 C 182.121094 263.011719 183.175781 264.351562 183.625 266.339844 C 183.910156 267.59375 183.789062 268.789062 183.269531 269.925781 C 182.75 271.0625 181.886719 271.976562 180.691406 272.675781 C 182.445312 272.890625 183.914062 273.527344 185.101562 274.585938 C 186.28125 275.640625 187.066406 277.003906 187.441406 278.679688 C 188.070312 281.453125 187.601562 283.84375 186.042969 285.847656 C 184.484375 287.851562 181.984375 289.238281 178.550781 290.015625 L 162.238281 293.703125 "/>
<path style=" stroke:none;fill-rule:nonzero;fill:rgb(84.169006%,17.330933%,15.376282%);fill-opacity:1;" d="M 196.085938 271.535156 L 206.753906 266.257812 L 195.933594 258.894531 Z M 196.078125 277.023438 C 196.09375 277.871094 196.148438 278.605469 196.246094 279.230469 C 196.34375 279.855469 196.476562 280.335938 196.644531 280.671875 C 196.949219 281.289062 197.453125 281.671875 198.152344 281.824219 C 198.851562 281.980469 199.636719 281.875 200.503906 281.519531 L 201.035156 282.589844 L 192.574219 286.773438 L 192.042969 285.707031 C 193.09375 285.128906 193.824219 284.3125 194.234375 283.253906 C 194.644531 282.195312 194.847656 280.320312 194.839844 277.636719 L 194.628906 253.933594 L 217.539062 269.527344 C 218.320312 270.054688 219.167969 270.429688 220.085938 270.652344 C 221 270.882812 221.738281 270.902344 222.304688 270.730469 L 222.832031 271.796875 L 213.96875 276.183594 L 213.441406 275.113281 L 213.648438 275.011719 C 214.210938 274.734375 214.582031 274.34375 214.769531 273.828125 C 214.957031 273.316406 214.921875 272.796875 214.664062 272.273438 C 214.53125 272.007812 214.273438 271.679688 213.894531 271.296875 C 213.515625 270.914062 213.097656 270.566406 212.640625 270.257812 L 207.886719 267.054688 L 196.066406 272.902344 L 196.078125 277.023438 "/>
<path style=" stroke:none;fill-rule:nonzero;fill:rgb(84.169006%,17.330933%,15.376282%);fill-opacity:1;" d="M 236.496094 258.890625 C 238.003906 257.679688 238.9375 256.394531 239.300781 255.035156 C 239.660156 253.683594 239.5 252.070312 238.820312 250.203125 L 239.757812 249.445312 L 243.84375 254.523438 L 225.292969 269.4375 L 224.542969 268.503906 L 224.664062 268.40625 C 225.375 267.835938 225.664062 267.179688 225.535156 266.445312 C 225.402344 265.707031 224.773438 264.640625 223.640625 263.234375 L 213.339844 250.417969 C 212.222656 249.03125 211.320312 248.191406 210.628906 247.894531 C 209.941406 247.601562 209.253906 247.726562 208.578125 248.273438 L 208.390625 248.417969 L 207.640625 247.484375 L 214.320312 242.113281 L 215.070312 243.046875 L 214.953125 243.144531 C 214.257812 243.703125 213.972656 244.34375 214.105469 245.066406 C 214.234375 245.78125 214.867188 246.851562 216.011719 248.273438 L 229.242188 264.726562 L 236.496094 258.890625 "/>
<path style=" stroke:none;fill-rule:nonzero;fill:rgb(84.169006%,17.330933%,15.376282%);fill-opacity:1;" d="M 256.667969 237.726562 C 257.898438 236.230469 258.554688 234.785156 258.636719 233.382812 C 258.710938 231.980469 258.230469 230.4375 257.183594 228.75 L 257.953125 227.816406 L 262.960938 231.945312 L 247.828125 250.316406 L 246.914062 249.5625 L 247.011719 249.441406 C 247.59375 248.738281 247.746094 248.039062 247.464844 247.347656 C 247.1875 246.65625 246.355469 245.734375 244.964844 244.589844 L 232.273438 234.136719 C 230.902344 233.003906 229.847656 232.363281 229.113281 232.210938 C 228.378906 232.0625 227.734375 232.324219 227.179688 232.996094 L 227.03125 233.179688 L 226.097656 232.40625 L 231.546875 225.792969 L 232.480469 226.566406 L 232.382812 226.683594 C 231.8125 227.371094 231.667969 228.054688 231.941406 228.734375 C 232.214844 229.410156 233.054688 230.328125 234.457031 231.484375 L 250.75 244.910156 L 256.667969 237.726562 "/>
<path style=" stroke:none;fill-rule:nonzero;fill:rgb(84.169006%,17.330933%,15.376282%);fill-opacity:1;" d="M 263.136719 180.328125 L 262.863281 181.351562 C 260.765625 181.570312 258.917969 182.328125 257.320312 183.621094 C 255.722656 184.917969 254.550781 186.617188 253.800781 188.726562 C 252.71875 191.773438 252.925781 194.609375 254.425781 197.222656 C 255.925781 199.839844 258.457031 201.773438 262.019531 203.039062 C 266.035156 204.46875 269.566406 204.613281 272.605469 203.484375 C 275.644531 202.359375 277.757812 200.128906 278.9375 196.796875 C 279.894531 194.101562 279.890625 191.554688 278.929688 189.160156 C 277.96875 186.761719 276.371094 185.171875 274.144531 184.378906 C 273.484375 184.144531 272.753906 184.101562 271.957031 184.253906 C 271.15625 184.40625 270.648438 184.441406 270.425781 184.363281 C 270.195312 184.28125 270.035156 184.125 269.953125 183.894531 C 269.867188 183.667969 269.875 183.40625 269.980469 183.113281 C 270.210938 182.464844 270.765625 182.046875 271.640625 181.847656 C 272.515625 181.648438 273.492188 181.742188 274.570312 182.121094 C 277.324219 183.101562 279.207031 185.117188 280.222656 188.175781 C 281.242188 191.230469 281.097656 194.601562 279.789062 198.285156 C 278.375 202.277344 275.933594 205.085938 272.46875 206.71875 C 269.003906 208.347656 265.273438 208.457031 261.285156 207.039062 C 257.269531 205.617188 254.445312 203.238281 252.808594 199.90625 C 251.171875 196.578125 251.054688 192.925781 252.464844 188.957031 C 252.910156 187.707031 253.496094 186.472656 254.222656 185.253906 C 254.945312 184.039062 255.324219 183.398438 255.34375 183.335938 C 255.515625 182.929688 255.636719 182.621094 255.710938 182.410156 C 255.96875 181.6875 256.117188 180.957031 256.15625 180.210938 C 256.191406 179.464844 256.125 178.65625 255.953125 177.78125 L 263.136719 180.328125 "/>
<path style=" stroke:none;fill-rule:nonzero;fill:rgb(84.169006%,17.330933%,15.376282%);fill-opacity:1;" d="M 285.855469 163.054688 C 286.082031 161.128906 285.847656 159.558594 285.15625 158.339844 C 284.464844 157.117188 283.222656 156.082031 281.425781 155.230469 L 281.566406 154.027344 L 288.023438 154.789062 L 285.246094 178.4375 L 284.066406 178.296875 L 284.085938 178.140625 C 284.191406 177.234375 283.941406 176.566406 283.332031 176.132812 C 282.722656 175.703125 281.519531 175.378906 279.730469 175.167969 L 263.390625 173.246094 C 261.621094 173.039062 260.386719 173.074219 259.691406 173.34375 C 258.992188 173.617188 258.589844 174.1875 258.488281 175.054688 L 258.460938 175.285156 L 257.257812 175.144531 L 258.257812 166.617188 L 259.460938 166.761719 L 259.445312 166.914062 C 259.339844 167.804688 259.585938 168.464844 260.183594 168.890625 C 260.78125 169.3125 261.984375 169.628906 263.792969 169.839844 L 284.769531 172.308594 L 285.855469 163.054688 "/>
<path style=" stroke:none;fill-rule:nonzero;fill:rgb(84.169006%,17.330933%,15.376282%);fill-opacity:1;" d="M 274.976562 126.472656 C 278.394531 126.144531 281.199219 126.867188 283.398438 128.636719 C 285.597656 130.402344 286.851562 132.9375 287.164062 136.234375 C 287.488281 139.636719 286.695312 142.496094 284.78125 144.816406 C 282.867188 147.140625 280.171875 148.46875 276.691406 148.796875 L 265.6875 149.84375 C 263.902344 150.015625 262.699219 150.3125 262.082031 150.738281 C 261.460938 151.164062 261.195312 151.824219 261.277344 152.71875 L 261.296875 152.894531 L 260.09375 153.007812 L 259.273438 144.410156 L 260.476562 144.296875 L 260.492188 144.453125 C 260.582031 145.359375 260.964844 145.960938 261.652344 146.253906 C 262.339844 146.546875 263.578125 146.609375 265.363281 146.4375 L 277.878906 145.246094 C 280.601562 144.988281 282.683594 144.03125 284.140625 142.378906 C 285.597656 140.726562 286.203125 138.632812 285.960938 136.097656 C 285.691406 133.289062 284.578125 131.109375 282.605469 129.5625 C 280.640625 128.011719 278.144531 127.382812 275.132812 127.667969 L 264.882812 128.644531 C 262.90625 128.835938 261.460938 129.28125 260.5625 129.988281 C 259.664062 130.691406 259.273438 131.671875 259.394531 132.925781 L 259.425781 133.253906 L 258.222656 133.367188 L 257.335938 124.039062 L 258.539062 123.925781 L 258.566406 124.234375 C 258.6875 125.503906 259.261719 126.402344 260.28125 126.929688 C 261.308594 127.460938 262.800781 127.632812 264.769531 127.441406 L 274.976562 126.472656 "/>
<path style=" stroke:none;fill-rule:nonzero;fill:rgb(84.169006%,17.330933%,15.376282%);fill-opacity:1;" d="M 263.710938 106.054688 L 267.222656 116.191406 L 281.09375 111.390625 L 278.132812 102.835938 C 277.203125 100.160156 275.855469 98.335938 274.074219 97.359375 C 272.296875 96.382812 270.222656 96.304688 267.851562 97.125 C 265.832031 97.824219 264.457031 98.960938 263.722656 100.539062 C 262.988281 102.121094 262.984375 103.957031 263.710938 106.054688 Z M 252.902344 108.828125 L 256.710938 119.832031 L 266.109375 116.578125 L 262.730469 106.824219 C 262.050781 104.863281 261.105469 103.496094 259.886719 102.722656 C 258.671875 101.945312 257.308594 101.820312 255.796875 102.34375 C 254.46875 102.804688 253.53125 103.640625 252.980469 104.855469 C 252.429688 106.066406 252.402344 107.394531 252.902344 108.828125 Z M 284.164062 116.660156 L 283.050781 117.046875 L 283.023438 116.972656 C 282.71875 116.089844 282.210938 115.585938 281.496094 115.457031 C 280.785156 115.324219 279.546875 115.566406 277.789062 116.171875 L 262.238281 121.554688 C 260.492188 122.160156 259.382812 122.730469 258.902344 123.269531 C 258.421875 123.804688 258.324219 124.492188 258.617188 125.339844 L 258.667969 125.484375 L 257.53125 125.878906 L 251.582031 108.6875 C 250.648438 105.984375 250.433594 103.773438 250.9375 102.042969 C 251.449219 100.3125 252.664062 99.113281 254.589844 98.445312 C 255.804688 98.027344 257.007812 98.015625 258.191406 98.40625 C 259.378906 98.800781 260.386719 99.558594 261.214844 100.675781 C 261.238281 98.90625 261.707031 97.378906 262.625 96.082031 C 263.546875 94.785156 264.820312 93.859375 266.4375 93.296875 C 269.128906 92.367188 271.558594 92.566406 273.722656 93.890625 C 275.886719 95.214844 277.542969 97.539062 278.695312 100.867188 L 284.164062 116.660156 "/>
<path style=" stroke:none;fill-rule:nonzero;fill:rgb(84.169006%,17.330933%,15.376282%);fill-opacity:1;" d="M 129.589844 59.769531 L 87.304688 133.808594 L 87.304688 99.667969 L 64.503906 99.667969 L 64.503906 165.222656 L 95.621094 165.222656 L 155.84375 59.769531 L 129.589844 59.769531 "/>
<path style=" stroke:none;fill-rule:nonzero;fill:rgb(84.169006%,17.330933%,15.376282%);fill-opacity:1;" d="M 173.621094 82.570312 L 240.296875 82.570312 L 253.316406 59.769531 L 160.390625 59.769531 L 65.980469 225.070312 L 92.238281 225.070312 L 158.023438 109.882812 L 210.445312 109.882812 L 223.464844 87.082031 L 171.042969 87.082031 L 173.621094 82.570312 "/>
<path style=" stroke:none;fill-rule:nonzero;fill:rgb(84.169006%,17.330933%,15.376282%);fill-opacity:1;" d="M 176.679688 197.90625 C 173.683594 203.523438 167.769531 207.347656 160.957031 207.347656 C 151.121094 207.347656 143.144531 199.371094 143.144531 189.535156 C 143.144531 179.695312 151.121094 171.722656 160.957031 171.722656 C 167.769531 171.722656 173.683594 175.546875 176.679688 181.164062 L 199.410156 181.164062 C 195.574219 163.445312 179.824219 150.167969 160.957031 150.167969 C 139.21875 150.167969 121.59375 167.792969 121.59375 189.535156 C 121.59375 211.277344 139.21875 228.898438 160.957031 228.898438 C 179.824219 228.898438 195.574219 215.621094 199.410156 197.90625 L 176.679688 197.90625 "/>
<path style=" stroke:none;fill-rule:nonzero;fill:rgb(100%,100%,100%);fill-opacity:1;" d="M 189.761719 29.996094 C 190.242188 14.085938 177.734375 0.804688 161.820312 0.328125 C 145.914062 -0.148438 132.632812 12.359375 132.15625 28.269531 C 131.679688 44.175781 144.1875 57.460938 160.09375 57.9375 C 176 58.414062 189.285156 45.902344 189.761719 29.996094 "/>
<path style=" stroke:none;fill-rule:nonzero;fill:rgb(84.169006%,17.330933%,15.376282%);fill-opacity:1;" d="M 150.921875 55.078125 C 148.921875 53.210938 148.644531 52.796875 146.144531 49.03125 C 141.644531 47.546875 141.210938 47.394531 138.621094 45.851562 C 135.023438 41.105469 132.921875 35.1875 132.972656 28.8125 C 134.519531 25.859375 134.703125 25.628906 137.875 21.878906 C 137.714844 16.546875 137.714844 16.402344 138.34375 12.550781 C 139.34375 11.1875 140.464844 9.894531 141.722656 8.710938 C 144.890625 5.726562 148.636719 3.59375 152.683594 2.355469 C 156.597656 3.246094 156.648438 3.265625 161.582031 5.425781 C 166.628906 3.574219 166.6875 3.554688 170.636719 2.910156 C 176.316406 5.046875 181.109375 8.957031 184.332031 13.96875 C 184.734375 17.78125 184.722656 17.960938 184.253906 23.21875 C 187.183594 27.152344 187.355469 27.398438 188.710938 30.375 C 188.402344 36.777344 185.945312 42.589844 182.054688 47.136719 C 179.351562 48.527344 178.917969 48.652344 174.304688 49.875 C 171.582031 53.492188 171.277344 53.886719 169.164062 55.640625 C 166.277344 56.546875 163.207031 57.015625 160.019531 56.921875 C 156.8125 56.824219 153.761719 56.160156 150.921875 55.078125 Z M 161.722656 0.015625 C 153.976562 -0.21875 146.601562 2.582031 140.957031 7.898438 C 135.3125 13.214844 132.078125 20.410156 131.847656 28.15625 C 131.367188 44.152344 143.992188 57.554688 159.988281 58.035156 C 175.980469 58.511719 189.386719 45.890625 189.863281 29.894531 C 190.34375 13.898438 177.71875 0.492188 161.722656 0.015625 "/>
<path style=" stroke:none;fill-rule:evenodd;fill:rgb(84.169006%,17.330933%,15.376282%);fill-opacity:1;" d="M 168.054688 40.851562 C 170.761719 33.835938 170.761719 33.835938 173.242188 26.644531 C 167.328125 21.875 167.328125 21.875 161.21875 17.273438 C 154.835938 21.492188 154.835938 21.492188 148.640625 25.886719 C 150.683594 33.238281 150.683594 33.238281 152.96875 40.40625 C 160.511719 40.78125 160.511719 40.78125 168.054688 40.851562 "/>
<path style="fill:none;stroke-width:13.7655;stroke-linecap:square;stroke-linejoin:miter;stroke:rgb(84.169006%,17.330933%,15.376282%);stroke-opacity:1;stroke-miterlimit:4;" d="M 1615.820312 2888.242188 C 1614.21875 2835.976562 1614.21875 2835.976562 1612.1875 2769.765625 " transform="matrix(0.1,0,0,-0.1,0,294.25)"/>
<path style="fill:none;stroke-width:13.7655;stroke-linecap:square;stroke-linejoin:miter;stroke:rgb(84.169006%,17.330933%,15.376282%);stroke-opacity:1;stroke-miterlimit:4;" d="M 1743.046875 2443.75 C 1715.820312 2482.617188 1715.820312 2482.617188 1680.15625 2534.101562 " transform="matrix(0.1,0,0,-0.1,0,294.25)"/>
<path style="fill:none;stroke-width:13.7655;stroke-linecap:square;stroke-linejoin:miter;stroke:rgb(84.169006%,17.330933%,15.376282%);stroke-opacity:1;stroke-miterlimit:4;" d="M 1461.445312 2452.1875 C 1490.78125 2489.375 1490.78125 2489.375 1529.296875 2538.671875 " transform="matrix(0.1,0,0,-0.1,0,294.25)"/>
<path style="fill:none;stroke-width:13.7655;stroke-linecap:square;stroke-linejoin:miter;stroke:rgb(84.169006%,17.330933%,15.376282%);stroke-opacity:1;stroke-miterlimit:4;" d="M 1842.539062 2710.3125 C 1794.375 2695.390625 1794.375 2695.390625 1732.226562 2676.679688 " transform="matrix(0.1,0,0,-0.1,0,294.25)"/>
<path style="fill:none;stroke-width:13.7655;stroke-linecap:square;stroke-linejoin:miter;stroke:rgb(84.169006%,17.330933%,15.376282%);stroke-opacity:1;stroke-miterlimit:4;" d="M 1378.75 2723.710938 C 1426.09375 2705.820312 1426.09375 2705.820312 1487.03125 2683.359375 " transform="matrix(0.1,0,0,-0.1,0,294.25)"/>
</g>
</svg>
