<?xml version="1.0" encoding="UTF-8" standalone="no"?>
<svg
   xmlns:dc="http://purl.org/dc/elements/1.1/"
   xmlns:cc="http://creativecommons.org/ns#"
   xmlns:rdf="http://www.w3.org/1999/02/22-rdf-syntax-ns#"
   xmlns:svg="http://www.w3.org/2000/svg"
   xmlns="http://www.w3.org/2000/svg"
   xmlns:xlink="http://www.w3.org/1999/xlink"
   xmlns:sodipodi="http://sodipodi.sourceforge.net/DTD/sodipodi-0.dtd"
   xmlns:inkscape="http://www.inkscape.org/namespaces/inkscape"
   inkscape:version="1.0 (4035a4f, 2020-05-01)"
   sodipodi:docname="Logo Vendée Poiré Football - 2018.cdr.svg"
   viewBox="0 0 571.78015 700"
   id="svg915"
   height="700"
   width="571.78015"
   version="1.1">
  <metadata
     id="metadata921">
    <rdf:RDF>
      <cc:Work
         rdf:about="">
        <dc:format>image/svg+xml</dc:format>
        <dc:type
           rdf:resource="http://purl.org/dc/dcmitype/StillImage" />
        <dc:title></dc:title>
      </cc:Work>
    </rdf:RDF>
  </metadata>
  <defs
     id="defs919">
    <defs
       id="defs838">
      <radialGradient
         id="grad1"
         cx="239.65704"
         cy="290.77716"
         r="512.38226"
         gradientTransform="matrix(1.1159248,0,0,1.3661675,-81.610725,-169.7503)"
         fx="239.65704"
         fy="290.77716"
         gradientUnits="userSpaceOnUse">
        <stop
           offset="0%"
           stop-color="#89cdf1"
           stop-opacity="1.0000"
           id="stop833" />
        <stop
           offset="100%"
           stop-color="#0eb3e7"
           stop-opacity="1.0000"
           id="stop835" />
      </radialGradient>
    </defs>
    <defs
       id="defs856">
      <linearGradient
         id="grad2">
        <stop
           offset="201392128.0000%"
           stop-color="#003a7c"
           stop-opacity="1.0000"
           id="stop842" />
        <stop
           offset="201392155.0000%"
           stop-color="#013b7c"
           stop-opacity="1.0000"
           id="stop844" />
        <stop
           offset="201392193.0000%"
           stop-color="#0a4381"
           stop-opacity="1.0000"
           id="stop846" />
        <stop
           offset="201392206.0000%"
           stop-color="#1b518a"
           stop-opacity="1.0000"
           id="stop848" />
        <stop
           offset="201392222.0000%"
           stop-color="#2e6195"
           stop-opacity="1.0000"
           id="stop850" />
        <stop
           offset="100.0000%"
           stop-color="#37699a"
           stop-opacity="1.0000"
           id="stop852" />
      </linearGradient>
      <linearGradient
         xlink:href="#grad2"
         id="grad3"
         x1="91.072205"
         y1="141.06703"
         x2="91.072205"
         y2="617.74561"
         gradientTransform="matrix(1.1153309,0,0,1.3668948,-81.610725,-169.7503)"
         gradientUnits="userSpaceOnUse" />
    </defs>
    <linearGradient
       y2="617.74561"
       x2="91.072205"
       y1="141.06703"
       x1="91.072205"
       gradientTransform="matrix(1.1153309,0,0,1.3668948,-81.610725,-169.7503)"
       gradientUnits="userSpaceOnUse"
       id="linearGradient997"
       xlink:href="#grad2"
       inkscape:collect="always" />
  </defs>
  <sodipodi:namedview
     inkscape:current-layer="svg915"
     inkscape:window-maximized="0"
     inkscape:window-y="0"
     inkscape:window-x="0"
     inkscape:cy="283.46439"
     inkscape:cx="231.54139"
     inkscape:zoom="0.72693602"
     showgrid="false"
     id="namedview917"
     inkscape:window-height="900"
     inkscape:window-width="1440"
     inkscape:pageshadow="2"
     inkscape:pageopacity="0"
     guidetolerance="10"
     gridtolerance="10"
     objecttolerance="10"
     borderopacity="1"
     bordercolor="#666666"
     pagecolor="#ffffff" />
  <g
     id="g1067">
    <path
       id="path840"
       style="fill:url(#grad1);stroke-width:1.23472"
       d="M 27.878807,68.69232 C 110.11541,22.4196 200.74184,0 286.44715,0 c 85.70532,0 192.68849,28.4874 256.74208,68.5728 15.83606,48.37421 30.60309,133.61873 28.36528,205.79951 -2.60539,84.01226 -27.54123,172.58818 -75.3071,244.62129 C 449.78233,589.0635 385.55822,651.56232 285.4574,700 197.96989,660.1292 92.296022,578.63799 36.994272,448.28942 17.790011,403.02424 5.7556631,353.37073 1.4779661,297.2132 -3.7171299,229.00501 4.7134331,148.02622 27.878807,68.69232 Z" />
    <path
       style="fill:url(#linearGradient997);stroke-width:1.23472"
       d="m 284.95055,674.64299 c 78.97854,-35.7793 147.35082,-93.90115 195.00457,-166.36333 45.84822,-69.71553 68.84814,-149.61308 71.43995,-232.67794 1.99605,-63.98654 -9.5286,-135.69776 -26.9114,-190.56093 C 458.6448,48.63104 367.92725,23.07351 286.44703,23.07351 c -76.02583,0 -166.54113,20.54974 -239.417678,62.66687 -19.235617,66.57687 -31.072781,140.7574 -25.812985,209.67765 3.767756,49.37249 13.093745,98.30751 32.503825,144.05128 42.63535,100.48161 130.154098,191.49993 231.230358,235.17368 z"
       id="path858" />
    <g
       id="g1036">
      <path
         id="path993"
         d="m 388.66911,106.18937 c 42.20788,8.73529 80.21598,18.75729 121.86787,35.56199 C 484.10651,107.35321 436.04307,91.61717 389.27795,81.20043 Z"
         style="fill:#62c5ee;stroke-width:1.23472;fill-opacity:1" />
      <path
         id="path991"
         d="M 183.52289,105.3279 C 139.64566,115.17617 103.30691,123.83331 61.655022,140.63788 88.085492,106.23974 136.40106,90.782 183.16606,80.08696 Z"
         style="fill:#62c5ee;fill-opacity:1;stroke-width:1.23472" />
    </g>
  </g>
  <g
     id="g1026">
    <path
       id="path860"
       style="fill:#fffeff;fill-rule:evenodd;stroke:none;stroke-width:1.23472"
       d="m 289.08946,217.31182 c -0.27102,16.58368 -0.25448,36.59928 -0.22385,58.98357 0.0691,49.24728 3.13014,108.7203 12.66899,169.66078 10.63776,4.29004 20.43355,10.86161 26.03709,21.04029 7.68282,13.9557 8.60417,38.42099 8.99064,53.74415 l 19.19092,8.14485 28.83646,-28.35072 31.49938,25.71644 c 3.75776,-5.20572 5.3319,-7.58219 9.08954,-12.7879 -10.76728,-10.91742 -22.82595,-23.60469 -37.70609,-33.08712 -11.16572,6.95977 -24.32083,20.23007 -32.83943,30.06859 0.0558,-18.17426 -2.8269,-35.69472 -9.23251,-46.41422 -6.01755,-10.06941 -11.78852,-14.55528 -24.97832,-18.74 -20.54418,-52.827 -24.62247,-136.5265 -31.33282,-227.97871 z" />
    <path
       id="path862"
       style="fill:#4dbeed;fill-rule:evenodd;stroke:none;stroke-width:1.23472"
       d="m 285.77003,205.89767 c 0.39672,24.27193 0.1194,60.26608 -0.47833,99.71967 -0.71009,46.81031 -2.39104,96.03006 -8.97878,140.12818 -11.19313,4.56836 -22.68865,12.86483 -28.29935,23.05228 -5.13151,9.31734 -6.68281,22.64432 -7.08114,35.31035 22.3517,-1.21176 45.75352,-0.30485 66.20423,2.84801 -30.56618,1.69997 -50.57548,4.08422 -72.50613,8.64627 -23.34601,4.85678 -48.30235,12.06411 -69.58724,21.89942 -4.33585,-6.50712 -8.67171,-10.4365 -13.00756,-16.94361 24.33342,-8.07731 46.26951,-11.6743 68.9463,-14.23944 1.46253,-17.61468 4.74035,-32.75942 10.71011,-42.75104 6.01359,-10.06645 12.40588,-13.93372 25.59556,-18.11857 10.40451,-35.75683 16.42292,-81.46046 20.82545,-132.48859 2.91579,-33.79831 4.98309,-69.93309 7.65688,-107.06293 z" />
    <path
       style="fill:#fffeff;fill-rule:evenodd;stroke-width:1.23472"
       d="m 490.02713,262.11966 c -0.33301,86.55925 -28.74459,183.59598 -72.38587,253.00024 -34.75127,53.44708 -68.72961,89.10093 -132.8295,131.7569 C 195.40216,589.53034 143.41897,513.33672 110.97243,422.04564 92.826212,370.99097 82.869402,314.32732 83.218952,259.96951 l -38.82153,12.46329 c -0.12248,17.03547 1.40437,36.86253 4.03112,55.07456 5.07891,35.22084 14.06633,69.93235 27.99129,102.74919 39.057238,92.04944 112.225548,171.14133 208.195608,219.37874 73.66628,-36.75572 134.33907,-90.01721 177.61746,-155.82682 43.42693,-66.03298 63.56106,-142.55813 66.85073,-218.18576 z"
       id="path864" />
  </g>
  <g
     id="g1032">
    <path
       id="path866"
       style="fill:#fffeff;fill-rule:evenodd;stroke-width:1.23472"
       d="m 238.70117,550.33284 c 1.20719,0 2.19817,-0.12903 2.97185,-0.38709 0.77319,-0.25806 1.40586,-0.60835 1.89629,-1.05099 0.49092,-0.44302 0.88715,-0.95914 1.18854,-1.54946 0.30239,-0.5902 0.56662,-1.21731 0.79282,-1.8811 h 4.1888 v 38.72893 h -6.22708 v -29.54457 h -4.81122 z" />
    <path
       id="path868"
       style="fill:#fffeff;fill-rule:evenodd;stroke-width:1.23472"
       d="m 277.25168,574.56625 c 0,3.28288 -0.7738,5.78146 -2.32115,7.49674 -1.54699,1.71528 -3.94371,2.57267 -7.18881,2.57267 -3.05717,0 -5.3682,-0.83924 -6.93482,-2.51723 -1.56612,-1.67848 -2.34893,-4.08484 -2.34893,-7.22004 v -0.99605 h 5.88691 v 1.38313 c 0,1.40178 0.29238,2.3882 0.87702,2.95988 0.58575,0.57205 1.36857,0.85788 2.34992,0.85788 1.09434,0 1.94309,-0.33226 2.54699,-0.99605 0.60378,-0.66378 0.90579,-1.91789 0.90579,-3.7622 v -7.082 c -1.09433,2.28696 -3.01926,3.43056 -5.77393,3.43056 -2.30202,0 -4.02841,-0.75652 -5.17966,-2.26868 -1.15126,-1.51217 -1.72639,-3.70689 -1.72639,-6.58391 v -7.08151 c 0,-3.13521 0.81096,-5.54205 2.43401,-7.22053 1.62304,-1.67799 3.96247,-2.51723 7.01952,-2.51723 3.05656,0 5.39636,0.83924 7.0189,2.51723 1.62305,1.67848 2.43463,4.08532 2.43463,7.22053 z m -9.45353,-9.40563 c 0.98086,0 1.76417,-0.28584 2.34931,-0.85739 0.58476,-0.57168 0.87714,-1.55859 0.87714,-2.96037 v -6.971 c 0,-1.40128 -0.29238,-2.37919 -0.87714,-2.93209 -0.58514,-0.55353 -1.36845,-0.83023 -2.34931,-0.83023 -0.98136,0 -1.76417,0.2767 -2.34894,0.83023 -0.58563,0.5529 -0.87801,1.53081 -0.87801,2.93209 v 6.971 c 0,1.40178 0.29238,2.38869 0.87801,2.96037 0.58477,0.57155 1.36758,0.85739 2.34894,0.85739 z" />
    <path
       id="path870"
       style="fill:#fffeff;fill-rule:evenodd;stroke-width:1.23472"
       d="m 288.12008,571.6891 v 3.59637 c 0,1.40178 0.29226,2.37919 0.87752,2.9321 0.58526,0.5534 1.36795,0.83023 2.34943,0.83023 0.98086,0 1.76417,-0.27683 2.34881,-0.83023 0.58526,-0.55291 0.87764,-1.53032 0.87764,-2.9321 v -8.52045 c 0,-1.40129 -0.29238,-2.3882 -0.87764,-2.95988 -0.58464,-0.57155 -1.36795,-0.85739 -2.34881,-0.85739 -0.98148,0 -1.76417,0.28584 -2.34943,0.85739 -0.58526,0.57168 -0.87752,1.55859 -0.87752,2.95988 v 1.16175 h -5.88691 l 1.13212,-22.46257 h 16.4165 v 5.53304 h -10.81247 l -0.50957,9.23918 c 1.1699,-1.8811 2.98149,-2.82158 5.43426,-2.82158 2.30252,0 4.0289,0.75602 5.18016,2.26868 1.15076,1.51216 1.72577,3.70688 1.72577,6.58341 v 8.63146 c 0,3.1352 -0.78269,5.54156 -2.34881,7.22004 -1.56612,1.67799 -3.87765,2.51723 -6.93433,2.51723 -3.05705,0 -5.36808,-0.83924 -6.93469,-2.51723 -1.56613,-1.67848 -2.34894,-4.08484 -2.34894,-7.22004 v -3.20929 z" />
    <path
       id="path872"
       style="fill:#fffeff;fill-rule:evenodd;stroke-width:1.23472"
       d="m 305.16012,571.63415 11.32092,-26.16995 h 6.7932 v 26.16995 h 2.9437 v 5.53242 h -2.9437 v 7.02656 h -6.11373 v -7.02656 h -12.00039 z m 12.00039,0 v -14.55096 l -6.2835,14.55096 z" />
  </g>
  <g
     id="g1060">
    <g
       id="g972"
       transform="matrix(1.2347227,0,0,1.2347227,-81.610725,-169.7503)">
      <path
         d="m 356.9114,204.3566 9.4068,1.1328 0.218,6.8457 -9.5508,-1.1352 0.1464,11.5678 12.3501,1.3361 0.1334,6.912 -20.1595,-2.3098 c 0.0488,-14.7307 0.0972,-29.4614 -0.1118,-44.1921 6.3664,0.6851 12.9807,1.6024 18.4802,2.416 l 0.2472,7.1214 c -3.495,-0.4713 -7.1811,-0.9425 -11.2848,-1.4141 z"
         style="fill:#ffffff;fill-rule:evenodd"
         id="path874" />
      <path
         d="m 343.0278,174.0598 -6.3924,7.3657 -4.7648,-0.4664 4.0935,-7.4897 c 2.8632,0.0687 5.243,0.4688 7.0637,0.5904 z"
         style="fill:#ffffff;fill-rule:evenodd"
         id="path876" />
      <path
         d="m 333.5233,202.0017 9.6028,0.7977 0.0444,6.9718 -9.6321,-0.7559 0.0146,11.6256 c 4.011,0.2704 7.8699,0.3838 12.0338,0.8701 l 0.074,6.7501 c -6.7302,-0.5773 -13.4605,-1.0258 -20.1907,-1.3449 0.5456,-15.0601 0.5643,-29.744 0.9111,-44.423 7.4072,0.5664 11.9248,0.8514 18.5717,1.5698 l 0.059,7.3459 c -4.4477,-0.3241 -7.6788,-0.777 -11.5182,-1.1015 z"
         style="fill:#ffffff;fill-rule:evenodd"
         id="path878" />
      <path
         d="m 300.9191,180.9189 c 3.6101,0.0785 6.6148,0.3867 10.2496,0.5485 7.1015,0.3163 10.3774,4.3501 10.3969,11.347 0.0216,7.6008 0.196,14.8978 0.3928,22.8043 0.0906,3.6426 -0.8722,6.3684 -2.5998,8.1732 -1.73,1.8077 -4.6359,2.4477 -8.1533,2.305 l -11.5564,-0.4578 c 0.1667,-14.9068 0.5664,-29.8135 1.2702,-44.7202 z m 6.9941,7.4653 c -0.2777,10.4453 -0.5554,20.5039 -0.4477,30.9495 1.317,0.0244 1.9159,0.0683 3.2446,0.1151 1.0921,0.0386 1.9764,-0.2611 2.6189,-0.8783 0.644,-0.618 1.1677,-1.7341 1.1652,-3.3746 0.0102,-8.1277 -0.1561,-14.7323 -0.041,-22.0981 -0.002,-1.6369 -0.0838,-2.7941 -0.714,-3.4775 -0.6205,-0.6729 -1.4682,-1.0429 -2.5595,-1.0844 -1.2844,-0.0492 -1.9792,-0.1094 -3.2665,-0.1517 z"
         style="fill:#ffffff;fill-rule:evenodd"
         id="path880" />
      <path
         d="m 279.7477,195.6748 c -0.3802,10.148 -0.6319,20.296 -0.8835,30.4436 l -7.1308,0.1151 c 0.5453,-14.9128 1.219,-29.8261 2.0216,-44.7393 l 8.6009,-0.1903 c 1.7016,8.7616 4.0456,17.5227 6.2615,26.2839 -0.1773,-8.7791 -0.2261,-17.5581 -0.1464,-26.3371 l 6.4025,-0.1773 c -0.0943,14.8494 0.0692,29.6984 0.2322,44.5474 l -7.5178,0.2155 c -2.7656,-9.2922 -5.5312,-20.4124 -7.8402,-30.1615 z"
         style="fill:#ffffff;fill-rule:evenodd"
         id="path882" />
      <path
         d="m 256.5214,201.6 9.5426,-0.4269 -0.1627,6.7985 -9.5723,0.3903 -0.4586,12.0155 c 4.2741,-0.4025 8.5485,-0.5477 12.823,-0.6928 l -0.1777,6.6762 c -7.0063,0.3041 -13.3467,0.7375 -20.505,1.2998 l 2.0195,-44.6124 c 6.3407,-0.5156 13.1612,-0.9006 18.8941,-1.2251 l -0.1777,7.2113 -11.8109,0.6448 z"
         style="fill:#ffffff;fill-rule:evenodd"
         id="path884" />
      <path
         d="m 233.3056,220.8519 c 1.8516,-9.9667 5.0234,-26.734 6.3684,-36.8527 l 6.9718,-0.6363 c -2.5994,15.1194 -5.1987,30.2387 -7.7976,45.3581 l -11.565,1.4019 c -2.1476,-14.7258 -3.5052,-29.452 -4.7493,-44.179 l 7.5186,-0.7937 c 0.9738,11.9436 1.7012,24.3209 3.2531,35.7017 z"
         style="fill:#ffffff;fill-rule:evenodd"
         id="path886" />
    </g>
    <g
       id="g987"
       transform="matrix(1.2347227,0,0,1.2347227,-81.610725,-169.7503)">
      <path
         d="m 117.9672,276.3664 c 2.3621,-0.7944 4.4104,-1.1559 6.1369,-1.1564 1.7332,-5e-4 3.1457,0.5486 4.2502,1.336 2.2193,1.5822 3.142,4.587 3.0247,9.0135 -0.0629,2.3695 -0.113,4.7275 -0.1538,7.0972 -0.0761,4.4062 -1.0568,8.124 -3.4659,11.1637 -1.2101,1.5266 -2.7314,2.8735 -4.5607,4.0394 -1.8292,1.1656 -4.0989,2.1486 -6.5457,2.9641 -1.5334,0.5109 -2.555,1.0342 -4.0892,1.5459 -0.1744,6.8379 -0.1728,13.647 -0.2093,20.4839 -1.6459,0.5504 -3.9353,1.1012 -5.5763,1.6539 -1.6431,0.5533 -3.2856,1.1073 -4.9253,1.6513 0.1173,-9.0184 0.3397,-18.097 0.7262,-27.1917 0.3876,-9.1237 0.9256,-18.4115 1.5252,-27.5987 2.3121,-0.9115 4.6213,-1.7812 6.9331,-2.6067 2.3084,-0.8241 4.6145,-1.617 6.9299,-2.3954 z m -4.3878,9.8167 c -0.1536,3.1135 -0.3012,5.3229 -0.4278,8.4281 -0.1264,3.0986 -0.2412,6.0726 -0.3498,9.1665 1.5223,-0.5115 2.2771,-0.6558 3.7992,-1.1596 1.5185,-0.5027 2.7039,-1.5095 3.545,-2.5181 0.8318,-0.9895 1.2735,-2.485 1.3292,-4.4627 0.0773,-2.7406 0.1644,-4.5854 0.2591,-7.3322 0.0686,-1.9845 -0.2771,-3.2207 -1.0519,-3.6853 -0.7686,-0.4647 -1.905,-0.2016 -3.3942,0.2949 -1.4951,0.4982 -2.2168,0.7634 -3.7088,1.2684 z"
         style="fill:#ffffff;fill-rule:evenodd"
         id="path888" />
      <path
         d="m 143.9985,309.6663 c -0.0557,3.1846 1.271,5.2408 4.4423,4.1778 2.9579,-0.9915 4.718,-4.0553 4.7532,-7.47 0.0511,-4.9757 0.1454,-8.9473 0.2753,-13.9418 0.13,-4.995 0.3041,-9.7561 0.4818,-14.7777 0.1045,-2.9532 -0.9787,-5.0356 -4.2384,-3.9423 -3.0295,1.0159 -4.4866,4.0873 -4.6425,7.0399 -0.2668,5.0535 -0.536,9.5974 -0.7422,14.6315 -0.206,5.0327 -0.2419,9.287 -0.3295,14.2826 z m -8.5881,-24.9901 c 0.3204,-4.4618 1.6523,-8.5521 4.1959,-12.1568 1.263,-1.7279 2.8732,-3.2716 4.6146,-4.5224 1.7091,-1.2273 3.6839,-2.1921 5.8958,-2.8358 2.1903,-0.6373 4.1284,-0.8181 5.7823,-0.6154 1.6649,0.2043 3.0598,0.8043 4.1926,1.7465 2.2818,1.8977 3.3832,5.0352 3.2982,9.4374 -0.0912,4.712 -0.1633,9.418 -0.2185,14.1106 -0.045,3.8127 -0.075,7.6215 -0.0904,11.4326 -0.0131,3.5004 -0.056,6.8333 -1.47,10.1401 -0.5822,1.3613 -1.3395,2.6396 -2.2733,3.834 -1.2421,1.5925 -2.7568,2.9789 -4.5491,4.1351 -1.7899,1.1547 -3.8636,2.1 -6.216,2.8242 -2.358,0.726 -4.4499,1.0556 -6.2699,1.0238 -5.913,-0.1038 -8.4326,-4.3514 -8.2962,-10.0452 0.113,-4.7195 0.2031,-9.4513 0.4702,-14.1953 0.2681,-4.7589 0.5904,-9.5303 0.9338,-14.3134 z"
         style="fill:#ffffff;fill-rule:evenodd"
         id="path890" />
      <path
         d="m 170.1559,260.6199 c 1.5016,-0.4266 3.0054,-0.8445 4.507,-1.268 1.5026,-0.4235 3.0057,-0.8532 4.5095,-1.2798 -0.5403,9.4042 -0.9882,18.7658 -1.2522,28.0881 -0.2632,9.3023 -0.3297,18.5833 -0.2665,27.8037 -1.6562,0.4798 -3.3126,0.8898 -4.9649,1.299 -1.6538,0.4097 -3.3077,0.8541 -4.9613,1.3221 0.167,-9.2621 0.3922,-18.5499 0.7771,-27.858 0.386,-9.3295 0.959,-18.6966 1.6513,-28.1071 z"
         style="fill:#ffffff;fill-rule:evenodd"
         id="path892" />
      <path
         d="m 202.2001,308.4133 c -0.1117,-0.3441 -0.218,-0.6635 -0.3241,-0.957 -0.1083,-0.2999 -0.2041,-0.6823 -0.284,-1.1449 -0.0799,-0.4629 -0.1266,-1.0582 -0.1464,-1.8029 -0.0195,-0.7387 -0.0218,-1.6784 -0.009,-2.7993 0.0349,-2.9364 0.0711,-5.8746 0.1148,-8.8175 0.0388,-2.6174 -0.396,-4.3616 -1.2997,-5.224 -0.9053,-0.8642 -1.7432,-1.0781 -3.8051,-0.5996 -1.0296,0.2389 -2.0602,0.4772 -3.0902,0.7127 -0.1148,3.8328 -0.2245,7.6601 -0.3215,11.4735 -0.0969,3.8135 -0.1808,7.6404 -0.2553,11.442 -1.538,0.3689 -3.462,0.7434 -4.999,1.1331 -1.5406,0.3908 -3.0815,0.8068 -4.6192,1.2068 0.3012,-9.3818 0.643,-18.7841 1.1045,-28.1963 0.462,-9.4212 1.0645,-18.8781 1.7761,-28.3616 2.0858,-0.5965 4.1783,-1.1702 6.2664,-1.6953 2.0806,-0.5233 4.1744,-1.007 6.2604,-1.4759 2.1631,-0.4861 4.0167,-0.6062 5.5691,-0.4152 1.5576,0.1918 2.8165,0.7145 3.7846,1.5579 1.9381,1.6881 2.9171,4.6796 2.9066,9.0067 -0.004,1.4713 -0.006,2.9433 -0.009,4.4086 -0.0113,5.7734 -1.9509,9.9954 -5.8359,12.6648 2.2524,0.4176 3.7928,1.5535 4.6253,3.4209 0.8342,1.8709 1.2551,4.2849 1.251,7.2156 -0.004,2.8867 -0.01,5.7739 -0.0116,8.6545 -8e-4,1.39 0.0511,2.5988 0.1608,3.6064 0.1109,1.0202 0.3929,2.0149 0.8436,2.9714 -1.5668,0.3377 -3.1364,0.6696 -4.6999,1.0006 -1.5632,0.331 -3.3901,0.6699 -4.9538,1.014 z m -7.8881,-45.6437 c -0.132,2.8936 -0.2609,5.4093 -0.3729,8.289 -0.1122,2.8922 -0.2152,5.4017 -0.3187,8.2829 1.1508,-0.2738 1.9171,-0.5348 3.0609,-0.7941 1.6577,-0.3756 2.9667,-1.102 3.9222,-2.1688 0.9456,-1.0555 1.3177,-2.3319 1.3606,-4.5731 0.0352,-1.8462 0.0745,-3.3104 0.1148,-5.1571 0.0444,-2.035 -0.2704,-3.4313 -0.944,-4.1923 -0.668,-0.7543 -1.6248,-0.9779 -3.1166,-0.6397 -1.3639,0.309 -2.3434,0.6288 -3.7063,0.9532 z"
         style="fill:#ffffff;fill-rule:evenodd"
         id="path894" />
      <path
         d="m 225.5778,271.0481 c 1.9651,-0.333 3.5414,-0.6646 5.5052,-0.983 1.9638,-0.3183 3.9302,-0.6298 5.8953,-0.9484 -0.0252,2.6856 -0.0475,5.7492 -0.0678,8.4199 -1.9926,0.3187 -3.9841,0.6413 -5.9754,0.9703 -1.9905,0.3287 -3.5951,0.6576 -5.5879,1.0051 -0.1328,5.516 -0.2481,10.6465 -0.3459,16.1477 2.5717,-0.4511 4.7635,-0.8982 7.3324,-1.3154 2.5727,-0.418 5.151,-0.837 7.7276,-1.2663 0.0274,2.6705 0.0577,5.7267 0.0927,8.3903 -4.1182,0.6739 -8.2415,1.3267 -12.3522,2.0361 -4.1179,0.7104 -8.2338,1.4927 -12.3494,2.2894 0.263,-9.4176 0.5568,-18.8513 0.9574,-28.2825 0.4011,-9.4482 0.9147,-18.9166 1.4512,-28.3931 7.45,-1.4705 15.4036,-2.8874 22.4283,-3.8686 -0.0426,2.6855 -0.0852,5.6279 -0.1202,8.3061 -2.4063,0.4215 -4.8136,0.8144 -7.2163,1.1992 -2.4006,0.3842 -4.4173,0.7765 -6.821,1.1761 -0.2006,5.2629 -0.386,9.8689 -0.554,15.1171 z m 12.5284,-36.7923 c -1.2858,1.7128 -2.5784,3.4134 -3.875,5.1026 -1.2984,1.6916 -2.612,3.3752 -3.9279,5.0666 -1.8323,0.2963 -3.6643,0.5926 -5.4967,0.9107 1.8198,-3.2782 3.6244,-6.5421 5.4141,-9.8205 1.3135,-0.2075 2.6279,-0.4084 3.9427,-0.6152 1.3128,-0.2065 2.6269,-0.4223 3.9428,-0.6442 z"
         style="fill:#ffffff;fill-rule:evenodd"
         id="path896" />
      <path
         d="m 270.2945,266.1259 c 1.8277,-0.0997 3.3993,-0.1998 5.2263,-0.2873 1.8266,-0.0874 3.6554,-0.1707 5.4854,-0.2474 0.0167,2.7266 0.0359,5.967 0.0552,8.6877 -1.8637,0.0593 -3.7232,0.1335 -5.5815,0.2187 -1.8585,0.0852 -3.4633,0.1878 -5.3223,0.2879 -0.0622,3.9153 -0.1277,7.837 -0.1895,11.7579 -0.0619,3.915 -0.1223,7.8367 -0.1821,11.7463 -1.5111,0.0873 -3.2797,0.1727 -4.7903,0.2682 -1.5131,0.0955 -3.0244,0.1918 -4.5354,0.2847 0.3164,-9.492 0.6392,-18.9959 0.9712,-28.4937 0.3321,-9.4978 0.6693,-18.8556 1.0003,-28.3593 8.7949,-0.8371 16.5184,-1.2079 21.2536,-1.4951 0.036,2.7383 0.0696,5.7276 0.1056,8.4598 -3.8321,0.0756 -8.1598,0.3036 -13.2063,0.7772 -0.0504,2.8609 -0.1007,5.4717 -0.1464,8.3316 -0.0455,2.8596 -0.0958,5.2078 -0.1438,8.0628 z"
         style="fill:#ffffff;fill-rule:evenodd"
         id="path898" />
      <path
         d="m 295.9935,284.2861 c -0.0352,2.3962 0.493,5.1846 3.6916,5.3076 3.4533,0.1329 4.18,-2.5243 4.1967,-5.3892 0.0593,-10.0773 -0.007,-20.7985 0.0539,-30.8748 0.0124,-2.0475 -0.2719,-4.2917 -2.9006,-4.5961 -1.5259,-0.1768 -2.7275,0.4463 -3.4333,1.3775 -0.7999,1.0555 -1.0084,2.5658 -1.0295,4.0106 -0.1479,10.0543 -0.4307,20.1088 -0.5788,30.1644 z m -8.1717,-28.6256 c 0.122,-3.0564 0.4695,-6.0682 1.4718,-8.5004 0.8842,-2.146 2.3082,-3.8144 4.1328,-5.0683 1.7052,-1.1721 4.0113,-1.872 6.7777,-1.9377 1.9887,-0.0474 3.8737,0.2528 5.3914,0.8717 2.2517,0.9186 4.016,2.5418 5.1431,4.6444 1.4491,2.7035 2.0616,6.1185 2.0675,8.9625 0.0106,4.9243 0.1534,9.8387 0.1626,14.7517 0.009,4.9182 0.0203,9.8335 0.0313,14.7522 0.0103,4.5919 -1.2237,8.1249 -3.4527,10.5919 -1.1195,1.2393 -2.7433,2.185 -4.3568,2.808 -1.6158,0.6238 -3.4784,0.931 -5.5881,0.9476 -2.1097,0.0162 -3.9687,-0.2713 -5.571,-0.8714 -1.6022,-0.6 -2.9509,-1.517 -4.0429,-2.742 -2.1744,-2.4398 -3.207,-6.0859 -3.102,-10.6726 0.2181,-9.5066 0.5804,-19.6576 0.9353,-28.5376 z"
         style="fill:#ffffff;fill-rule:evenodd"
         id="path900" />
      <path
         d="m 326.3165,286.0975 c -0.049,3.1353 1.1531,5.2371 3.9438,5.3509 2.7081,0.1102 4.2163,-1.6667 4.2921,-4.9634 0.2352,-10.2324 -0.006,-20.3402 -0.006,-30.5746 0,-2.9018 -1.0755,-5.3327 -3.9584,-5.4518 -3.0331,-0.1251 -3.7471,2.821 -3.7902,5.6336 -0.1572,10.258 -0.321,19.7478 -0.4813,30.0053 z m -8.2705,-30.3397 c 0.0899,-2.8768 0.4507,-5.3911 1.3357,-7.4765 1.1148,-2.6262 3.3634,-4.9733 6.0488,-5.9761 1.5106,-0.5643 3.2571,-0.7837 5.2197,-0.6369 1.9656,0.1469 3.7021,0.6388 5.2075,1.4119 1.5129,0.7766 2.9161,1.8244 3.9862,3.1684 2.131,2.6759 3.2522,6.3879 3.3231,10.9601 0.152,9.7781 0.1772,19.5579 0.3295,29.3359 0.0708,4.566 -1.028,8.153 -3.2995,10.4978 -1.1456,1.1829 -2.5501,2.0381 -4.2153,2.5691 -1.6692,0.5321 -3.5978,0.7319 -5.7835,0.6154 -2.1857,-0.1163 -4.11,-0.6589 -5.7689,-1.3423 -1.6552,-0.6815 -3.0473,-1.659 -4.1709,-2.9303 -2.2344,-2.5283 -3.4034,-6.1857 -3.2596,-10.7882 0.3074,-9.8453 0.7398,-19.5633 1.0472,-29.4083 z"
         style="fill:#ffffff;fill-rule:evenodd"
         id="path902" />
      <path
         d="m 347.2417,244.4913 c 4.1824,0.5664 8.3645,1.1487 12.5387,1.7971 4.1818,0.6493 8.3621,1.3716 12.5448,2.1276 0.0621,2.7251 -0.004,5.8364 0.0583,8.5553 -1.4466,-0.2641 -2.7666,-0.5382 -4.2112,-0.7928 -1.4414,-0.2541 -2.8932,-0.4977 -4.3339,-0.7313 -0.0115,16.1134 -0.0182,32.2275 -0.0236,48.3409 -1.5621,-0.2452 -3.124,-0.4812 -4.6836,-0.7053 -1.5558,-0.2234 -3.1213,-0.4355 -4.6806,-0.638 0.3593,-16.0905 0.6073,-32.1804 0.9656,-48.2709 -1.4466,-0.2027 -2.7646,-0.4131 -4.2083,-0.6092 -1.4423,-0.1961 -2.896,-0.3749 -4.3398,-0.5596 0.1245,-2.7074 0.246,-5.8062 0.3736,-8.5138 z"
         style="fill:#ffffff;fill-rule:evenodd"
         id="path904" />
      <path
         d="m 390.1571,252.1209 c 2.187,0.5273 4.0671,1.2972 5.6457,2.2609 1.5888,0.97 2.8785,2.1415 3.8606,3.492 1.9972,2.7473 2.8826,6.2935 2.934,10.6073 0.008,0.6712 0.0151,1.3314 0.0228,1.9957 0.0334,2.8776 -0.2568,4.6001 -1.1348,6.1984 -0.8798,1.6021 -2.3066,2.6008 -4.2712,2.9934 2.3981,1.2761 4.1035,3.4814 5.1125,5.8126 1.0103,2.334 1.5519,5.5074 1.5881,8.4903 0.0182,1.5153 0.0403,2.3928 0.0599,3.902 0.0711,5.5029 -1.7859,10.5343 -7.7356,11.14 -1.7453,0.1775 -3.7815,0.009 -6.0992,-0.4933 -2.4181,-0.5243 -4.8321,-1.039 -7.251,-1.5273 -2.4168,-0.4882 -4.8387,-0.9583 -7.2566,-1.4218 0.3108,-9.3079 0.6215,-18.6219 0.9322,-27.9356 0.3105,-9.3079 0.6218,-18.6281 0.9353,-27.9483 2.1128,0.2784 4.2266,0.6068 6.3301,1.0273 2.1107,0.4217 4.2232,0.8991 6.3272,1.4064 z m -4.4479,29.963 c -0.1081,5.7612 -0.2113,11.1373 -0.3195,16.8985 1.7366,0.3669 2.8349,0.6153 4.5704,0.9924 1.544,0.3355 2.7184,0.2006 3.5242,-0.4233 0.7977,-0.6174 1.198,-1.976 1.2034,-4.0641 0.004,-1.6279 0.009,-2.8736 0.0113,-4.5072 0.004,-2.6291 -0.4342,-4.5243 -1.3202,-5.7023 -0.8809,-1.1707 -2.339,-1.9989 -4.374,-2.4582 -1.3164,-0.2972 -1.9841,-0.4548 -3.2956,-0.7358 z m 0.0339,-22.5114 c -0.0912,4.9553 -0.0539,9.3989 -0.1453,14.3513 1.1348,0.2381 2.1469,0.3615 3.2789,0.4894 3.5113,0.3964 4.8613,-0.9942 4.8698,-4.3203 0.003,-1.036 0.0113,-1.705 0.0144,-2.748 0.006,-2.032 -0.3446,-3.5983 -1.0321,-4.6773 -0.6903,-1.0833 -1.3968,-1.8177 -2.8883,-2.1716 -1.3632,-0.3232 -2.7345,-0.6239 -4.0974,-0.9235 z"
         style="fill:#ffffff;fill-rule:evenodd"
         id="path906" />
      <path
         d="m 438.5035,319.9945 c -3.3488,-0.9073 -6.7368,-1.6718 -10.0802,-2.5802 -0.614,-3.5179 -0.9425,-6.9043 -1.5036,-10.5874 -1.9304,-0.5151 -3.4746,-1.0291 -5.403,-1.5211 -1.9237,-0.4907 -3.3932,-0.8151 -5.3205,-1.2853 -0.5673,3.2518 -1.1056,6.364 -1.7776,9.6159 -3.0029,-0.6948 -6.0602,-1.2484 -9.0859,-1.8424 1.8601,-8.8749 3.6734,-18.0462 5.3452,-27.0344 1.6677,-8.9663 3.0601,-17.9414 4.6921,-26.8963 2.2391,0.5654 4.4849,1.1245 6.7238,1.6966 2.2355,0.5712 4.3529,1.1571 6.5953,1.7419 2.8472,19.5786 6.8093,42.7901 9.8144,58.6927 z m -20.973,-23.8067 c 2.7743,0.6905 5.3928,1.4795 8.1614,2.2024 -1.4222,-9.5013 -2.6944,-19.267 -4.1272,-29.0074 -1.2532,9.0645 -2.6859,18.8854 -4.0342,26.805 z"
         style="fill:#ffffff;fill-rule:evenodd"
         id="path908" />
      <path
         d="m 442.3654,265.2784 c 2.9782,0.886 5.9135,1.8514 8.8393,2.8964 0.5619,15.825 0.5622,31.6422 0.2088,46.7107 5.273,1.6295 10.5152,3.0836 15.7818,4.8865 0.0779,2.5933 0.1582,6.2142 0.2361,8.8011 -7.7425,-2.4527 -17.2419,-5.3646 -25.9294,-7.8639 0.5131,-18.4778 0.7504,-36.9547 0.8634,-55.4308 z"
         style="fill:#ffffff;fill-rule:evenodd"
         id="path910" />
      <path
         d="m 471.0585,274.4478 c 2.9782,0.886 6.5789,2.3627 9.3529,3.4083 0.5619,15.825 0.4338,31.0004 0.0804,46.069 5.2731,1.7579 11.0756,3.8758 16.0387,5.6562 0.0778,2.5933 0.1582,6.2142 0.236,8.801 -7.3123,-2.4545 -17.9599,-6.1092 -26.5714,-8.7605 0.6649,-18.7826 1.054,-37.0032 0.8634,-55.174 z"
         style="fill:#ffffff;fill-rule:evenodd"
         id="path912" />
    </g>
  </g>
</svg>
