<?xml version="1.0" encoding="UTF-8" standalone="no"?>
<!-- Created with Inkscape (http://www.inkscape.org/) -->

<svg
   xmlns:dc="http://purl.org/dc/elements/1.1/"
   xmlns:cc="http://creativecommons.org/ns#"
   xmlns:rdf="http://www.w3.org/1999/02/22-rdf-syntax-ns#"
   xmlns:svg="http://www.w3.org/2000/svg"
   xmlns="http://www.w3.org/2000/svg"
   xmlns:sodipodi="http://sodipodi.sourceforge.net/DTD/sodipodi-0.dtd"
   xmlns:inkscape="http://www.inkscape.org/namespaces/inkscape"
   width="122.45247mm"
   height="133.93205mm"
   viewBox="0 0 122.45247 133.93205"
   version="1.1"
   id="svg8"
   sodipodi:docname="virtus_bergame_1909.svg"
   inkscape:version="0.92.1 r15371">
  <defs
     id="defs2" />
  <sodipodi:namedview
     id="base"
     pagecolor="#ffffff"
     bordercolor="#666666"
     borderopacity="1.0"
     inkscape:pageopacity="0.0"
     inkscape:pageshadow="2"
     inkscape:zoom="0.85768271"
     inkscape:cx="50.911132"
     inkscape:cy="211.75435"
     inkscape:document-units="mm"
     inkscape:current-layer="g4956"
     showgrid="false"
     fit-margin-top="0"
     fit-margin-left="0"
     fit-margin-right="0"
     fit-margin-bottom="0"
     showguides="true"
     inkscape:guide-bbox="true"
     inkscape:window-width="1440"
     inkscape:window-height="837"
     inkscape:window-x="-8"
     inkscape:window-y="-8"
     inkscape:window-maximized="1">
    <sodipodi:guide
       position="-6.0118143,172.87504"
       orientation="1,0"
       id="guide4496"
       inkscape:locked="false"
       inkscape:label=""
       inkscape:color="rgb(0,0,255)" />
    <sodipodi:guide
       position="129.98818,146.41671"
       orientation="1,0"
       id="guide4498"
       inkscape:locked="false"
       inkscape:label=""
       inkscape:color="rgb(0,0,255)" />
    <sodipodi:guide
       position="-162.49396,-16.11306"
       orientation="0,1"
       id="guide4500"
       inkscape:locked="false"
       inkscape:label=""
       inkscape:color="rgb(0,0,255)" />
    <sodipodi:guide
       position="-43.053481,145.88694"
       orientation="0,1"
       id="guide4502"
       inkscape:locked="false"
       inkscape:label=""
       inkscape:color="rgb(0,0,255)" />
    <sodipodi:guide
       position="109.64889,125.34453"
       orientation="1,0"
       id="guide4527"
       inkscape:locked="false" />
    <sodipodi:guide
       position="42.497603,97.376268"
       orientation="0,1"
       id="guide4614"
       inkscape:locked="false" />
  </sodipodi:namedview>
  <metadata
     id="metadata5">
    <rdf:RDF>
      <cc:Work
         rdf:about="">
        <dc:format>image/svg+xml</dc:format>
        <dc:type
           rdf:resource="http://purl.org/dc/dcmitype/StillImage" />
        <dc:title></dc:title>
      </cc:Work>
    </rdf:RDF>
  </metadata>
  <g
     inkscape:groupmode="layer"
     id="layer3"
     inkscape:label="divers"
     style="display:inline;opacity:1"
     transform="translate(-6.0118145,-11.954889)" />
  <g
     inkscape:groupmode="layer"
     id="layer2"
     inkscape:label="Inscription"
     style="display:inline"
     transform="translate(-6.0118145,-11.954889)" />
  <g
     inkscape:groupmode="layer"
     id="layer5"
     inkscape:label="Layer 1">
    <g
       id="g5151">
      <g
         transform="translate(-6.0118146,-11.954889)"
         id="g4956"
         style="">
        <g
           id="g5227">
          <path
             sodipodi:nodetypes="ccccccccccccccccccccccccccccccccccccccccccccc"
             inkscape:connector-curvature="0"
             id="path4842"
             d="m 10.206629,78.314671 5.110566,5.926643 0.770093,16.136186 2.944792,11.61556 6.980248,9.21611 3.817323,3.70826 8.398111,5.23518 9.597839,3.87186 11.244384,1.5163 8.168087,6.78099 8.168082,-6.78099 12.501335,-1.89803 10.415838,-4.90799 8.888903,-5.45331 6.81665,-8.61625 3.32653,-9.97957 1.30879,-10.415839 0.49472,-10.028467 5.11057,-5.926643 -6.53235,-9.348285 -4.52626,-9.761439 -1.52693,-13.087964 2.83573,-11.397435 4.67312,-9.038684 -3.53209,-5.138457 -9.86634,1.907175 -8.398108,-0.381732 -11.070236,-4.96252 -1.398407,-0.744246 -7.981299,5.052367 -6.162249,1.745062 -4.391244,-0.02794 -7.933257,-0.953658 -8.507177,-5.017053 -8.452641,3.053858 -7.416514,1.799595 c 0,0 -6.162249,-0.05453 -6.489448,0.05453 -0.3272,0.109066 -9.216108,-1.254264 -9.216108,-1.254264 l -3.094363,4.867278 3.585162,7.020956 2.944792,6.707581 0.817997,13.52423 -1.854128,8.289044 -4.089988,8.070911 z"
             style="display:inline;opacity:1;fill:#ffffff;fill-opacity:1;stroke:none;stroke-width:0.26458332px;stroke-linecap:butt;stroke-linejoin:miter;stroke-opacity:1" />
          <path
             sodipodi:nodetypes="ccccccccccc"
             inkscape:connector-curvature="0"
             d="m 53.956101,129.73028 c -11.461188,-2.49827 -21.028368,-7.45484 -27.639781,-17.57383 -2.029337,-3.1223 -3.701413,-6.60818 -4.569708,-10.52191 -0.959231,-4.086804 -1.33163,-8.76382 -0.887051,-14.119478 h 92.631909 c 0.44458,5.355658 0.0722,10.032674 -0.88705,14.119478 -0.8683,3.91373 -2.54037,7.39961 -4.56971,10.52191 -6.61142,10.11899 -16.178608,15.07556 -27.639796,17.57383 l -4.223098,-11.69612 -17.773424,-0.26727 z"
             style="display:inline;opacity:1;fill:#000000;fill-opacity:1;stroke:#000000;stroke-width:0.79374999;stroke-linecap:butt;stroke-linejoin:round;stroke-miterlimit:4;stroke-dasharray:none;stroke-opacity:1"
             id="path4583" />
          <path
             inkscape:connector-curvature="0"
             id="path4775"
             d="m 92.160269,87.654804 12.030971,-0.154242 v 29.537558 l -4.15012,3.92565 -4.744385,3.27199 -3.136466,1.59422 z"
             style="display:inline;opacity:1;fill:#ffffff;fill-opacity:1;stroke:none;stroke-width:0.26458332px;stroke-linecap:butt;stroke-linejoin:miter;stroke-opacity:1" />
          <path
             inkscape:connector-curvature="0"
             id="path4773"
             d="m 29.884184,87.562197 h 11.997299 v 38.064163 l -1.893951,-0.72184 -5.321388,-3.50903 -4.78196,-4.54897 z"
             style="display:inline;opacity:1;fill:#ffffff;fill-opacity:1;stroke:none;stroke-width:0.26458332px;stroke-linecap:butt;stroke-linejoin:miter;stroke-opacity:1" />
          <path
             inkscape:connector-curvature="0"
             id="path4634"
             d="m 67.999998,29.235857 6.76865,-0.803809 6.1472,-2.071338 4.634854,-2.562337 4.118224,1.894163 6.280832,2.271792 5.612662,0.668174 7.684,-0.200454 2.68738,-0.384199 -0.88331,1.920999 -3.14042,7.216278 -1.67043,6.34765 0.0668,7.416729 0.86863,6.815373 1.06908,3.474505 2.2235,6.337435 L 67.999998,67.4587 65.815119,66.117051 66.807291,29.283099 Z"
             style="display:inline;opacity:1;fill:#ffffff;fill-opacity:1;stroke:none;stroke-width:0.26458332px;stroke-linecap:butt;stroke-linejoin:miter;stroke-opacity:1" />
          <path
             inkscape:connector-curvature="0"
             id="path4596"
             d="M 67.999998,29.235857 V 67.4587 l -44.116627,0.118118 0.732328,-1.582775 2.126117,-6.142113 1.370163,-6.142113 0.236235,-4.866444 -0.614211,-6.378348 -1.74814,-6.472842 -1.653646,-4.110491 -1.914986,-3.833842 v 0 l 4.324585,0.621044 4.110491,-0.04725 4.157738,-0.188988 5.244419,-1.181176 5.858631,-1.842634 2.687217,-1.610476 8.510328,3.92558 6.000372,1.464658 3.49628,0.09449 z"
             style="display:inline;opacity:1;fill:#000000;fill-opacity:1;stroke:#000000;stroke-width:0.26458332px;stroke-linecap:butt;stroke-linejoin:miter;stroke-opacity:1" />
          <path
             sodipodi:nodetypes="ccccccscccccccccccccccccccccccccccccccccccccccsccccccccccccccccccccccc"
             style="color:#000000;font-style:normal;font-variant:normal;font-weight:normal;font-stretch:normal;font-size:medium;line-height:normal;font-family:sans-serif;font-variant-ligatures:normal;font-variant-position:normal;font-variant-caps:normal;font-variant-numeric:normal;font-variant-alternates:normal;font-feature-settings:normal;text-indent:0;text-align:start;text-decoration:none;text-decoration-line:none;text-decoration-style:solid;text-decoration-color:#000000;letter-spacing:normal;word-spacing:normal;text-transform:none;writing-mode:lr-tb;direction:ltr;text-orientation:mixed;dominant-baseline:auto;baseline-shift:baseline;text-anchor:start;white-space:normal;shape-padding:0;clip-rule:nonzero;display:inline;overflow:visible;visibility:visible;opacity:1;isolation:auto;mix-blend-mode:normal;color-interpolation:sRGB;color-interpolation-filters:linearRGB;solid-color:#000000;solid-opacity:1;vector-effect:none;fill:#f9d80d;fill-opacity:1;fill-rule:nonzero;stroke:none;stroke-width:2.64583349;stroke-linecap:butt;stroke-linejoin:miter;stroke-miterlimit:4;stroke-dasharray:none;stroke-dashoffset:0;stroke-opacity:1;color-rendering:auto;image-rendering:auto;shape-rendering:auto;text-rendering:auto;enable-background:accumulate"
             d="m 49.514249,11.954889 -1.128154,0.793095 c -9.574224,6.733778 -19.726217,7.108877 -29.99355,3.812579 l -1.215264,-0.390422 -5.718821,9.370108 0.48772,0.853283 c 4.836586,8.486502 10.903329,18.686458 4.395924,35.152151 -1.784926,4.516401 -4.78374,9.731736 -9.5215467,15.891205 l -0.8087428,1.053019 5.9924385,6.939187 c -0.03494,9.293225 -0.292429,23.098856 8.631609,35.159316 2.206886,2.97018 4.92228,5.79935 8.176151,7.81005 8.860761,6.02691 19.069205,9.63675 29.248095,9.86069 l 8.987583,7.46277 0.190357,0.16502 0.190353,-0.16502 8.987584,-7.46277 c 10.178884,-0.22394 20.387333,-3.83378 29.248095,-9.86069 3.25388,-2.0107 5.96926,-4.83987 8.17615,-7.81005 8.92404,-12.06046 8.66657,-25.866091 8.63162,-35.159316 l 5.99243,-6.939187 -0.80874,-1.053019 c -4.73781,-6.159418 -7.73663,-11.374804 -9.52155,-15.891205 -6.50741,-16.465693 -0.44066,-26.665649 4.39593,-35.152151 l 0.48771,-0.853283 -5.71881,-8.840941 -1.21527,0.390422 c -10.26733,3.296297 -20.719415,2.392032 -30.293645,-4.341746 l -1.128155,-0.793095 -0.985654,0.958212 c -3.389645,3.295083 -10.956215,6.795668 -16.686024,6.824365 l -0.810357,0.0038 -0.810356,-0.0038 C 59.639548,19.708766 53.88954,16.208184 50.499905,12.913101 Z m -2.082418,4.406195 c 4.428133,3.748335 12.600668,8.202849 18.979727,8.2348 h 5.5e-4 v 0.008 l 0.82595,-0.0038 0.825951,0.0038 v -0.008 h 5.5e-4 c 6.379069,-0.03195 12.434935,-4.486465 16.863061,-8.2348 9.771075,6.410296 21.42804,7.880615 31.7146,4.89873 l 2.55058,4.42105 c -4.85071,8.631934 -10.8865,19.97272 -4.13405,37.058455 1.80756,4.57366 4.83689,9.732604 9.21074,15.575353 l -4.4325,5.131416 -0.67807,0.795226 c 0,0.350479 -10e-5,0.708195 0,1.072199 0.002,9.504671 -0.10908,23.471597 -8.03365,34.235197 -1.58083,2.30977 -3.71474,4.25966 -5.92468,5.83823 -8.917831,6.35694 -19.334227,10.09445 -29.528794,10.15683 l -0.26564,-0.003 -0.159165,0.12783 -8.008919,6.65316 -8.008919,-6.65316 -0.159167,-0.12783 -0.265639,0.003 c -10.194594,-0.0624 -20.610989,-3.79989 -29.528811,-10.15683 -2.209948,-1.57857 -4.343848,-3.52847 -5.924686,-5.83823 -7.924563,-10.7636 -8.035736,-24.730526 -8.033655,-34.235197 1.04e-4,-0.364004 0,-0.72172 0,-1.072199 L 14.63912,83.446088 10.206629,78.314672 C 14.580497,72.47192 17.609811,67.312979 19.41737,62.739319 26.169813,45.653582 20.134026,34.312798 15.283319,25.680864 l 2.685547,-4.363209 c 10.286563,2.981887 19.691885,1.453725 29.462965,-4.956571 z"
             id="path4594"
             inkscape:connector-curvature="0" />
          <path
             sodipodi:nodetypes="ccccc"
             inkscape:connector-curvature="0"
             id="rect4517"
             d="M 85.325795,23.894711 V 67.119307 H 79.178596 V 27.057636 Z"
             style="display:inline;opacity:1;vector-effect:none;fill:#518f3c;fill-opacity:1;fill-rule:evenodd;stroke:none;stroke-width:0.26458332;stroke-linecap:round;stroke-linejoin:round;stroke-miterlimit:4;stroke-dasharray:none;stroke-dashoffset:0;stroke-opacity:1;paint-order:normal" />
          <path
             sodipodi:nodetypes="ccccc"
             inkscape:connector-curvature="0"
             id="rect4521"
             d="M 99.084126,28.202833 V 67.119307 H 92.936928 V 27.003103 Z"
             style="display:inline;opacity:1;vector-effect:none;fill:#c43d27;fill-opacity:1;fill-rule:evenodd;stroke:none;stroke-width:0.26458332;stroke-linecap:round;stroke-linejoin:round;stroke-miterlimit:4;stroke-dasharray:none;stroke-dashoffset:0;stroke-opacity:1;paint-order:normal" />
          <path
             transform="scale(0.26458333)"
             sodipodi:nodetypes="ccccccscccccccccccccccscccccccccccccccccccccccsccccccccccccccccccccccc"
             inkscape:connector-curvature="0"
             id="path4543"
             d="m 186.90625,54.205078 -4.09766,2.908203 C 148.03327,81.805388 110.0682,84.022748 72.775391,71.935547 l -4.414063,-1.431641 -16.927734,26.597656 1.771484,3.128908 c 17.567358,31.11917 39.602866,74.34262 15.966797,134.7207 -6.483175,16.5612 -17.375413,35.68532 -34.583984,58.27149 l -2.9375,3.86132 21.765625,25.44532 c -0.126955,34.07734 -1.062158,84.70126 31.351562,128.92578 8.015811,10.89131 17.878612,21.26564 29.697262,28.63867 32.18389,22.10007 69.26281,35.33703 106.23438,36.1582 l 32.64453,27.36524 0.66909,0.58203 0.71372,-0.58203 32.64453,-27.36524 c 36.97155,-0.82116 74.05049,-14.05814 106.23438,-36.1582 11.81866,-7.37303 21.68142,-17.74736 29.69726,-28.63867 32.4137,-44.2245 31.47855,-94.84844 31.35157,-128.92578 l 21.76562,-25.44532 -2.9375,-3.86132 c -17.20857,-22.58598 -28.10081,-41.71029 -34.58398,-58.27149 -23.63607,-60.37808 -1.6006,-103.60153 15.96679,-134.7207 l 1.77149,-3.128908 -16.92774,-26.597656 -4.41406,1.431641 C 398.0021,84.022745 360.03706,81.805388 325.26172,57.113281 l -4.09766,-2.908203 -3.58008,3.513672 c -12.3118,12.082745 -39.79375,23.820555 -60.60546,23.925781 l -2.94336,0.01367 -2.94336,-0.01367 C 230.28009,81.539305 202.7981,69.801495 190.48633,57.71875 Z m -0.9668,15.058594 c 16.08378,13.744777 41.92385,24.257835 65.09375,24.375 h 0.002 v 0.0293 l 3,-0.01367 3,0.01367 v -0.0293 h 0.002 c 23.16993,-0.117165 49.00999,-10.630223 65.09375,-24.375 35.49031,23.505929 74.82678,26.045607 112.18945,15.111328 l 8.42383,13.242188 C 425.12558,129.26964 403.2025,176.6764 427.72861,239.32812 c 6.56538,16.77116 17.5684,35.6885 33.45507,57.11329 l -16.09961,18.8164 -2.46289,2.91602 c 0,1.28517 -3.7e-4,2.59688 0,3.93164 0.008,34.8527 -0.39624,86.06803 -29.17968,125.53711 -5.7419,8.46969 -13.49262,15.61978 -21.51953,21.4082 -32.39116,23.31028 -70.2254,37.0154 -107.25391,37.24414 l -0.96485,-0.0117 -0.57812,0.46875 -29.08984,24.39649 -29.08985,-24.39649 -0.57812,-0.46875 -0.96485,0.0117 C 186.37382,506.06618 148.53959,492.36106 116.14844,469.05078 108.12151,463.26236 100.3708,456.11223 94.628906,447.64258 65.845461,408.1735 65.44166,356.95817 65.449219,322.10547 c 3.78e-4,-1.33476 0,-2.64647 0,-3.93164 l -2.462891,-2.91602 -16.099609,-18.8164 C 62.773396,275.01661 73.776417,256.09928 80.341797,239.32812 104.86789,176.67639 82.944818,129.26964 65.326172,97.617188 L 73.75,84.375 c 37.36266,10.934283 76.69912,8.394601 112.18945,-15.111328 z"
             style="color:#000000;font-style:normal;font-variant:normal;font-weight:normal;font-stretch:normal;font-size:medium;line-height:normal;font-family:sans-serif;font-variant-ligatures:normal;font-variant-position:normal;font-variant-caps:normal;font-variant-numeric:normal;font-variant-alternates:normal;font-feature-settings:normal;text-indent:0;text-align:start;text-decoration:none;text-decoration-line:none;text-decoration-style:solid;text-decoration-color:#000000;letter-spacing:normal;word-spacing:normal;text-transform:none;writing-mode:lr-tb;direction:ltr;text-orientation:mixed;dominant-baseline:auto;baseline-shift:baseline;text-anchor:start;white-space:normal;shape-padding:0;clip-rule:nonzero;display:inline;overflow:visible;visibility:visible;opacity:1;isolation:auto;mix-blend-mode:normal;color-interpolation:sRGB;color-interpolation-filters:linearRGB;solid-color:#000000;solid-opacity:1;vector-effect:none;fill:#000000;fill-opacity:1;fill-rule:nonzero;stroke:none;stroke-width:10;stroke-linecap:butt;stroke-linejoin:miter;stroke-miterlimit:4;stroke-dasharray:none;stroke-dashoffset:0;stroke-opacity:1;color-rendering:auto;image-rendering:auto;shape-rendering:auto;text-rendering:auto;enable-background:accumulate" />
          <path
             sodipodi:nodetypes="ccccccc"
             inkscape:connector-curvature="0"
             id="path4591"
             d="m 110.46766,67.576818 c -5.14494,-11.99554 -6.9185,-23.683043 1.46614,-39.528968 -11.44487,1.88373 -19.363174,-0.469294 -26.383097,-4.249477 -11.925693,7.93104 -26.09772,6.777733 -36.750391,0 -7.019923,3.780183 -14.938226,6.133207 -26.383081,4.249477 8.384635,15.845925 6.611077,27.533428 1.46614,39.528968 z"
             style="display:inline;opacity:1;fill:none;stroke:#000000;stroke-width:1.32291663;stroke-linecap:butt;stroke-linejoin:round;stroke-miterlimit:4;stroke-dasharray:none;stroke-opacity:1" />
          <rect
             ry="0"
             rx="0"
             y="42.396885"
             x="76.171814"
             height="10.757599"
             width="24.922882"
             id="rect4636"
             style="display:inline;opacity:1;vector-effect:none;fill:#ffffff;fill-opacity:1;fill-rule:evenodd;stroke:none;stroke-width:1.32291663;stroke-linecap:round;stroke-linejoin:round;stroke-miterlimit:4;stroke-dasharray:none;stroke-dashoffset:0;stroke-opacity:1;paint-order:normal" />
          <g
             id="g4810"
             style="display:inline;opacity:1">
            <circle
               style="opacity:1;vector-effect:none;fill:#ffffff;fill-opacity:1;fill-rule:evenodd;stroke:#000000;stroke-width:0.5291667;stroke-linecap:square;stroke-linejoin:round;stroke-miterlimit:4;stroke-dasharray:none;stroke-dashoffset:0;stroke-opacity:1;paint-order:normal"
               id="path4579"
               cx="67.178719"
               cy="115.6329"
               r="16.176701" />
            <path
               style="fill:#000000;fill-opacity:1;stroke:#000000;stroke-width:0.26458332px;stroke-linecap:butt;stroke-linejoin:miter;stroke-opacity:1"
               d="m 67.172884,104.73723 c 0.575118,1.86377 0.483637,3.72754 0.694092,5.59131 1.937212,0.23873 4.65145,1.08281 6.516772,2.19797 0.951167,-1.40108 1.902333,-2.98521 2.8535,-4.58873 -0.928662,-1.86516 -2.446306,-3.30961 -4.087445,-4.66586 -1.132971,-0.0331 -4.739928,0.30548 -5.976919,1.46531 z"
               id="path4739"
               inkscape:connector-curvature="0"
               sodipodi:nodetypes="cccccc" />
            <path
               style="fill:#000000;fill-opacity:1;stroke:#000000;stroke-width:0.26458332px;stroke-linecap:butt;stroke-linejoin:miter;stroke-opacity:1"
               d="m 54.756311,119.15896 c 0.209941,-1.93502 0.616692,-3.81902 2.197965,-5.39851 2.015091,0.18638 3.910388,0.63631 5.668434,1.38819 1.071044,2.47806 1.10351,4.39689 1.580994,6.55534 -1.265745,1.12015 -3.394028,1.78029 -5.398511,2.50645 -1.654671,-1.37974 -2.885983,-2.9195 -4.048882,-5.05147 z"
               id="path4741"
               inkscape:connector-curvature="0"
               sodipodi:nodetypes="cccccc" />
            <path
               style="fill:#000000;fill-opacity:1;stroke:#000000;stroke-width:0.26458332px;stroke-linecap:butt;stroke-linejoin:miter;stroke-opacity:1"
               d="m 53.15604,107.74497 c 0.964019,-0.18511 1.928038,-0.33516 2.892057,-0.11568 1.222058,-2.17426 2.994036,-3.66112 5.244267,-4.55017 -0.02497,-0.85476 -0.05941,-1.70953 0.366328,-2.56429 l -1.021861,0.25064 -2.082282,1.21467 -1.98588,1.40747 -1.44603,1.36891 -1.214664,1.54243 z"
               id="path4743"
               inkscape:connector-curvature="0"
               sodipodi:nodetypes="cccccccccc" />
            <path
               style="fill:#000000;fill-opacity:1;stroke:#000000;stroke-width:0.26458332px;stroke-linecap:butt;stroke-linejoin:miter;stroke-opacity:1"
               d="m 57.696107,128.54389 c 1.218796,0.0957 1.702789,-0.006 2.344926,-0.0545 1.803018,1.10299 3.442745,1.96919 6.40765,2.26313 l 0.05453,0.95433 -1.963195,-0.21813 -2.15406,-0.35447 -2.235862,-0.84526 -2.017728,-1.17246 z"
               id="path4745"
               inkscape:connector-curvature="0"
               sodipodi:nodetypes="ccccccccc" />
            <path
               style="fill:#000000;fill-opacity:1;stroke:#000000;stroke-width:0.26458332px;stroke-linecap:butt;stroke-linejoin:miter;stroke-opacity:1"
               d="m 70.797596,123.82482 1.195385,4.35737 c 2.282627,0.26384 4.053028,-0.36872 5.514192,-1.54244 1.416597,-1.46779 2.169392,-3.37812 2.352207,-5.66843 l -4.048882,-1.58099 c -1.387943,1.83418 -2.864238,3.55722 -5.012902,4.43449 z"
               id="path4747"
               inkscape:connector-curvature="0"
               sodipodi:nodetypes="cccccc" />
            <path
               style="fill:#000000;fill-opacity:1;stroke:#000000;stroke-width:0.26458332px;stroke-linecap:butt;stroke-linejoin:miter;stroke-opacity:1"
               d="m 81.881572,108.72107 -1.145197,0.6544 c 1.165466,2.40538 1.641184,4.85675 1.717795,7.33472 h 0.736197 l 0.190868,-0.8998 v -1.69053 l -0.190868,-1.60873 -0.681664,-2.01773 z"
               id="path4749"
               inkscape:connector-curvature="0"
               sodipodi:nodetypes="ccccccccc" />
            <path
               style="fill:none;stroke:#000000;stroke-width:0.26458332px;stroke-linecap:butt;stroke-linejoin:miter;stroke-opacity:1"
               d="m 56.048097,107.62929 c -0.0043,2.04372 0.329126,4.08744 0.906179,6.13116"
               id="path4751"
               inkscape:connector-curvature="0"
               sodipodi:nodetypes="cc" />
            <path
               style="fill:none;stroke:#000000;stroke-width:0.26458332px;stroke-linecap:butt;stroke-linejoin:miter;stroke-opacity:1"
               d="m 62.62271,115.14864 6.116365,-5.52777"
               id="path4753"
               inkscape:connector-curvature="0" />
            <path
               style="fill:none;stroke:#000000;stroke-width:0.26458332px;stroke-linecap:butt;stroke-linejoin:miter;stroke-opacity:1"
               d="m 61.079384,103.08157 c 2.974233,0.18682 4.439134,0.53762 6.0935,1.65566"
               id="path4755"
               inkscape:connector-curvature="0"
               sodipodi:nodetypes="cc" />
            <path
               style="fill:none;stroke:#000000;stroke-width:0.26458332px;stroke-linecap:butt;stroke-linejoin:miter;stroke-opacity:1"
               d="m 73.149803,103.27192 0.03373,-2.53996"
               id="path4757"
               inkscape:connector-curvature="0" />
            <path
               style="fill:none;stroke:#000000;stroke-width:0.26458332px;stroke-linecap:butt;stroke-linejoin:miter;stroke-opacity:1"
               d="m 76.850888,107.80765 c 1.285525,0.36842 2.565144,0.64235 3.885485,1.56782"
               id="path4759"
               inkscape:connector-curvature="0"
               sodipodi:nodetypes="cc" />
            <path
               style="fill:none;stroke:#000000;stroke-width:0.26458332px;stroke-linecap:butt;stroke-linejoin:miter;stroke-opacity:1"
               d="m 74.383748,112.52651 c 0.889586,2.46044 1.409234,4.76674 1.42675,6.86382"
               id="path4761"
               inkscape:connector-curvature="0"
               sodipodi:nodetypes="cc" />
            <path
               style="fill:none;stroke:#000000;stroke-width:0.26458332px;stroke-linecap:butt;stroke-linejoin:miter;stroke-opacity:1"
               d="m 79.85938,120.97132 c 2.022872,-2.04017 2.329811,-3.44817 2.785657,-4.80647"
               id="path4763"
               inkscape:connector-curvature="0"
               sodipodi:nodetypes="cc" />
            <path
               style="fill:none;stroke:#000000;stroke-width:0.26458332px;stroke-linecap:butt;stroke-linejoin:miter;stroke-opacity:1"
               d="m 58.732237,123.58137 c -0.189415,0.30109 0.855448,4.3004 1.690528,5.34425"
               id="path4765"
               inkscape:connector-curvature="0"
               sodipodi:nodetypes="cc" />
            <path
               style="fill:none;stroke:#000000;stroke-width:0.26458332px;stroke-linecap:butt;stroke-linejoin:miter;stroke-opacity:1"
               d="m 51.397524,119.27324 3.358787,-0.11428"
               id="path4767"
               inkscape:connector-curvature="0" />
            <path
               style="fill:none;stroke:#000000;stroke-width:0.26458332px;stroke-linecap:butt;stroke-linejoin:miter;stroke-opacity:1"
               d="m 63.085774,121.21318 c 2.361898,1.23874 5.054296,2.05815 8.288236,2.7882"
               id="path4769"
               inkscape:connector-curvature="0"
               sodipodi:nodetypes="cc" />
            <path
               style="fill:none;stroke:#000000;stroke-width:0.26458332px;stroke-linecap:butt;stroke-linejoin:miter;stroke-opacity:1"
               d="m 66.448683,130.75252 c 2.520023,-0.2282 4.141347,-1.29712 5.544298,-2.57033"
               id="path4771"
               inkscape:connector-curvature="0"
               sodipodi:nodetypes="cc" />
          </g>
          <path
             sodipodi:nodetypes="cccccccccc"
             inkscape:connector-curvature="0"
             d="m 55.148406,126.51932 -1.192304,3.21096 c -11.461188,-2.49827 -21.028368,-7.45484 -27.639782,-17.57383 -2.029337,-3.1223 -3.701413,-6.60818 -4.569708,-10.52191 -0.959231,-4.086805 -1.33163,-8.763821 -0.887051,-14.119479 h 92.631909 c 0.44458,5.355658 0.0722,10.032674 -0.88705,14.119479 -0.8683,3.91373 -2.54037,7.39961 -4.56971,10.52191 -6.61142,10.11899 -16.178607,15.07556 -27.639796,17.57383 l -1.165764,-3.22866"
             style="display:inline;opacity:1;fill:none;fill-opacity:1;stroke:#000000;stroke-width:0.79374999;stroke-linecap:butt;stroke-linejoin:round;stroke-miterlimit:4;stroke-dasharray:none;stroke-opacity:1"
             id="path4583-9" />
          <g
             id="text4513"
             style="font-style:normal;font-variant:normal;font-weight:normal;font-stretch:normal;font-size:2.95463133px;line-height:1.25;font-family:Mebinac;-inkscape-font-specification:'Mebinac, Normal';font-variant-ligatures:normal;font-variant-caps:normal;font-variant-numeric:normal;font-feature-settings:normal;text-align:start;letter-spacing:0px;word-spacing:0px;writing-mode:lr-tb;text-anchor:start;display:inline;fill:#000000;fill-opacity:1;stroke:none;stroke-width:0.26458332"
             transform="scale(0.99477478,1.0052527)"
             aria-label="1909">
            <path
               id="path5153"
               style="font-style:normal;font-variant:normal;font-weight:normal;font-stretch:normal;font-size:10.34120941px;font-family:Impact;-inkscape-font-specification:Impact;stroke-width:0.26458332"
               d="m 83.013901,43.366106 v 8.175009 h -2.039965 v -4.382896 q 0,-0.94929 -0.04545,-1.141168 -0.04545,-0.191878 -0.252471,-0.287817 -0.201977,-0.100988 -0.908895,-0.100988 h -0.201977 v -0.954341 q 1.479479,-0.318113 2.246991,-1.307799 z" />
            <path
               id="path5155"
               style="font-style:normal;font-variant:normal;font-weight:normal;font-stretch:normal;font-size:10.34120941px;font-family:Impact;-inkscape-font-specification:Impact;stroke-width:0.26458332"
               d="m 83.80666,49.369865 h 2.039965 q 0,0.570584 0.01515,0.722067 0.01515,0.146433 0.121186,0.247421 0.111087,0.100989 0.297916,0.100989 0.156532,0 0.25752,-0.09594 0.100988,-0.09594 0.111087,-0.247422 0.01515,-0.151482 0.01515,-0.61098 v -1.30275 q -0.151483,0.328213 -0.454448,0.494843 -0.302965,0.161582 -0.752364,0.161582 -0.560485,0 -0.989686,-0.302965 -0.4292,-0.302965 -0.545337,-0.727117 -0.116136,-0.424151 -0.116136,-1.146218 v -0.651375 q 0,-0.858401 0.06564,-1.277503 0.07069,-0.419101 0.353459,-0.772561 0.282768,-0.358508 0.78266,-0.555436 0.499893,-0.196927 1.161366,-0.196927 0.818006,0 1.343146,0.227224 0.525139,0.227224 0.812956,0.656424 0.287817,0.424151 0.333262,0.893747 0.04545,0.469596 0.04545,1.817791 v 1.136119 q 0,1.459282 -0.0404,1.954125 -0.04039,0.489794 -0.353459,0.929093 -0.308015,0.4393 -0.838204,0.661474 -0.530188,0.217125 -1.227008,0.217125 -0.863451,0 -1.413837,-0.277718 -0.545338,-0.277718 -0.78771,-0.78266 -0.237322,-0.504942 -0.237322,-1.272453 z m 2.039965,-2.549957 q 0,0.515041 0.131285,0.636227 0.136334,0.121186 0.277718,0.121186 0.212075,0 0.308014,-0.151482 0.100989,-0.156532 0.100989,-0.605931 v -1.479479 q 0,-0.540288 -0.09594,-0.706919 -0.09089,-0.166631 -0.308015,-0.166631 -0.131285,0 -0.272669,0.131285 -0.141383,0.126236 -0.141383,0.691771 z" />
            <path
               id="path5157"
               style="font-style:normal;font-variant:normal;font-weight:normal;font-stretch:normal;font-size:10.34120941px;font-family:Impact;-inkscape-font-specification:Impact;stroke-width:0.26458332"
               d="m 94.213511,46.133187 v 2.726686 q 0,0.929094 -0.100988,1.353245 -0.100989,0.424151 -0.419102,0.792758 -0.318113,0.368608 -0.767512,0.530189 -0.449398,0.161582 -1.004834,0.161582 -0.732166,0 -1.21691,-0.166631 -0.484744,-0.17168 -0.772561,-0.530189 -0.287817,-0.358509 -0.409003,-0.752363 -0.121186,-0.398904 -0.121186,-1.262355 v -2.852922 q 0,-1.12602 0.191878,-1.686505 0.196927,-0.560486 0.772561,-0.898797 0.580683,-0.338311 1.403739,-0.338311 0.671572,0 1.201761,0.237323 0.530189,0.232273 0.792759,0.570584 0.26257,0.338311 0.353459,0.762462 0.09594,0.424151 0.09594,1.353244 z m -2.039965,-0.686721 q 0,-0.651375 -0.06564,-0.812956 -0.06059,-0.166631 -0.292867,-0.166631 -0.227224,0 -0.302965,0.17673 -0.07069,0.17168 -0.07069,0.802857 v 3.989041 q 0,0.711968 0.06564,0.858401 0.07069,0.146434 0.297915,0.146434 0.227224,0 0.297916,-0.171681 0.07069,-0.17168 0.07069,-0.772561 z" />
            <path
               id="path5159"
               style="font-style:normal;font-variant:normal;font-weight:normal;font-stretch:normal;font-size:10.34120941px;font-family:Impact;-inkscape-font-specification:Impact;stroke-width:0.26458332"
               d="m 94.955776,49.369865 h 2.039965 q 0,0.570584 0.01515,0.722067 0.01515,0.146433 0.121186,0.247421 0.111087,0.100989 0.297916,0.100989 0.156532,0 0.25752,-0.09594 0.100988,-0.09594 0.111087,-0.247422 0.01515,-0.151482 0.01515,-0.61098 v -1.30275 q -0.151483,0.328213 -0.454448,0.494843 -0.302965,0.161582 -0.752364,0.161582 -0.560485,0 -0.989686,-0.302965 -0.4292,-0.302965 -0.545337,-0.727117 -0.116136,-0.424151 -0.116136,-1.146218 v -0.651375 q 0,-0.858401 0.06564,-1.277503 0.07069,-0.419101 0.353459,-0.772561 0.282768,-0.358508 0.78266,-0.555436 0.499893,-0.196927 1.161367,-0.196927 0.818005,0 1.343145,0.227224 0.525139,0.227224 0.812956,0.656424 0.287817,0.424151 0.333262,0.893747 0.04545,0.469596 0.04545,1.817791 v 1.136119 q 0,1.459282 -0.0404,1.954125 -0.0404,0.489794 -0.353459,0.929093 -0.308015,0.4393 -0.838203,0.661474 -0.530189,0.217125 -1.227009,0.217125 -0.863451,0 -1.413837,-0.277718 -0.545338,-0.277718 -0.78771,-0.78266 -0.237322,-0.504942 -0.237322,-1.272453 z m 2.039965,-2.549957 q 0,0.515041 0.131285,0.636227 0.136334,0.121186 0.277718,0.121186 0.212075,0 0.308014,-0.151482 0.100989,-0.156532 0.100989,-0.605931 v -1.479479 q 0,-0.540288 -0.09594,-0.706919 -0.09089,-0.166631 -0.308015,-0.166631 -0.131285,0 -0.272669,0.131285 -0.141383,0.126236 -0.141383,0.691771 z" />
          </g>
          <rect
             ry="1.3701649"
             rx="1.3701649"
             y="48.932377"
             x="42.571194"
             height="2.7403297"
             width="11.733987"
             id="rect4515"
             style="display:inline;opacity:1;vector-effect:none;fill:#ffffff;fill-opacity:1;fill-rule:evenodd;stroke:#000000;stroke-width:0.26458332;stroke-linecap:round;stroke-linejoin:round;stroke-miterlimit:4;stroke-dasharray:none;stroke-dashoffset:0;stroke-opacity:1;paint-order:normal" />
          <path
             sodipodi:nodetypes="cccccc"
             inkscape:connector-curvature="0"
             d="M 47.632767,48.485615 C 47.255632,44.62979 44.654699,41.43171 44.587409,35.282167 c -0.02811,-3.263251 0.624774,-6.843709 3.850779,-8.921457 3.226006,2.077748 3.878892,5.658206 3.85078,8.921457 -0.06729,6.149543 -2.668223,9.347623 -3.045358,13.203448 z"
             style="display:inline;fill:#ffffff;fill-opacity:1;stroke:#000000;stroke-width:0.26458332;stroke-linecap:round;stroke-linejoin:round;stroke-miterlimit:4;stroke-dasharray:none;stroke-opacity:1"
             id="path4602" />
          <path
             sodipodi:nodetypes="cccccc"
             inkscape:connector-curvature="0"
             d="m 46.46877,57.265396 c 0.07001,-1.618416 0.515751,-4.461452 1.809794,-5.053133 0.151821,-0.06239 0.209513,-0.04389 0.294547,-0.01098 1.313081,0.566576 1.764048,3.435438 1.834496,5.06411 0.09263,2.413359 -0.472781,5.666937 -1.969419,7.515307 -1.496637,-1.84837 -2.062048,-5.101948 -1.969418,-7.515307 z"
             style="display:inline;fill:#ffffff;fill-opacity:1;stroke:#000000;stroke-width:0.26458332px;stroke-linecap:round;stroke-linejoin:round;stroke-opacity:1"
             id="path4607" />
          <g
             style="display:inline;fill:#ffffff;fill-opacity:1"
             id="g4632">
            <g
               style="fill:#ffffff;fill-opacity:1"
               id="g4618">
              <path
                 sodipodi:nodetypes="cscccccc"
                 inkscape:connector-curvature="0"
                 id="path4610"
                 d="m 40.147088,54.757357 c 2.297614,1.777758 3.46753,0.03542 4.541638,-1.256716 0.567363,-0.682528 1.039079,-1.320518 1.465381,-1.448648 0,0 0.606341,2.938305 -0.705738,4.826958 -1.165171,1.534158 -2.566184,2.143375 -4.473727,1.53659 -1.446624,-0.584222 -1.522894,-2.02918 -1.427336,-3.115443 0.02199,-0.281896 0.05817,-0.692185 0.126541,-0.81172 0.07759,-0.08952 0.216971,0.06035 0.473241,0.268979 z"
                 style="fill:#ffffff;fill-opacity:1;stroke:#000000;stroke-width:0.26458332px;stroke-linecap:round;stroke-linejoin:round;stroke-opacity:1" />
              <path
                 sodipodi:nodetypes="ccscccscc"
                 inkscape:connector-curvature="0"
                 id="path4612"
                 d="m 45.536344,48.510667 c -0.502527,-1.36585 -1.129689,-2.115178 -1.769837,-2.846103 -0.954155,-1.089459 -2.051456,-1.482661 -3.070499,-1.402491 -2.379217,0.149067 -3.660096,2.061018 -3.276366,4.746664 -0.83232,-0.413739 -1.442272,-1.067803 -1.876217,-1.698423 -0.699214,-0.991693 -1.076265,-2.259926 -1.211688,-3.291543 -0.312274,-2.469688 0.222203,-5.871443 4.103065,-5.875543 2.653413,-0.0028 7.499671,1.572912 8.62134,10.367439 z"
                 style="fill:#ffffff;fill-opacity:1;stroke:#000000;stroke-width:0.26458332px;stroke-linecap:butt;stroke-linejoin:miter;stroke-opacity:1" />
            </g>
            <g
               style="fill:#ffffff;fill-opacity:1"
               id="g4624"
               transform="matrix(-1,0,0,1,96.876378,0)">
              <path
                 style="fill:#ffffff;fill-opacity:1;stroke:#000000;stroke-width:0.26458332px;stroke-linecap:round;stroke-linejoin:round;stroke-opacity:1"
                 d="m 40.147088,54.757357 c 2.297614,1.777758 3.46753,0.03542 4.541638,-1.256716 0.567363,-0.682528 1.039079,-1.320518 1.465381,-1.448648 0,0 0.606341,2.938305 -0.705738,4.826958 -1.165171,1.534158 -2.566184,2.143375 -4.473727,1.53659 -1.446624,-0.584222 -1.522894,-2.02918 -1.427336,-3.115443 0.02199,-0.281896 0.05817,-0.692185 0.126541,-0.81172 0.07759,-0.08952 0.216971,0.06035 0.473241,0.268979 z"
                 id="path4620"
                 inkscape:connector-curvature="0"
                 sodipodi:nodetypes="cscccccc" />
              <path
                 style="fill:#ffffff;fill-opacity:1;stroke:#000000;stroke-width:0.26458332px;stroke-linecap:butt;stroke-linejoin:miter;stroke-opacity:1"
                 d="m 45.536344,48.510667 c -0.502527,-1.36585 -1.129689,-2.115178 -1.769837,-2.846103 -0.954155,-1.089459 -2.051456,-1.482661 -3.070499,-1.402491 -2.379217,0.149067 -3.660096,2.061018 -3.276366,4.746664 -0.83232,-0.413739 -1.442272,-1.067803 -1.876217,-1.698423 -0.699214,-0.991693 -1.076265,-2.259926 -1.211688,-3.291543 -0.312274,-2.469688 0.222203,-5.871443 4.103065,-5.875543 2.653413,-0.0028 7.499671,1.572912 8.62134,10.367439 z"
                 id="path4622"
                 inkscape:connector-curvature="0"
                 sodipodi:nodetypes="ccscccscc" />
            </g>
          </g>
          <g
             id="text4659"
             style="font-style:normal;font-variant:normal;font-weight:normal;font-stretch:normal;font-size:3.03067136px;line-height:1.25;font-family:Mebinac;-inkscape-font-specification:'Mebinac, Normal';font-variant-ligatures:normal;font-variant-caps:normal;font-variant-numeric:normal;font-feature-settings:normal;text-align:start;letter-spacing:0px;word-spacing:0px;writing-mode:lr-tb;text-anchor:start;fill:#fed80d;fill-opacity:1;stroke:#fed80d;stroke-width:0.26458332;stroke-miterlimit:4;stroke-dasharray:none;stroke-opacity:1"
             aria-label="A L Z A N O S E R I A T E">
            <path
               inkscape:connector-curvature="0"
               id="path4700"
               style="font-style:normal;font-variant:normal;font-weight:bold;font-stretch:normal;font-size:7.76111126px;font-family:Carlito;-inkscape-font-specification:'Carlito Bold';fill:#fed80d;fill-opacity:1;stroke:#fed80d;stroke-width:0.26458332;stroke-miterlimit:4;stroke-dasharray:none;stroke-opacity:1"
               d="m 48.795957,111.31493 -0.184592,0.74291 q -0.03198,0.12872 -0.110018,0.19134 -0.08171,0.0617 -0.182795,0.0756 l -1.036661,0.0704 -0.446858,1.79844 0.880375,0.54284 q 0.0736,0.0495 0.12246,0.15148 0.0461,0.0974 0.01594,0.21873 l -0.187333,0.75394 -4.441798,-2.9936 0.244904,-0.98564 z m -2.583719,2.4936 0.338113,-1.36077 -1.668032,0.11269 q -0.124976,0.0158 -0.287645,0.0262 -0.166346,0.009 -0.358437,0.0125 0.169245,0.0889 0.311832,0.1751 0.142587,0.0862 0.246546,0.15497 z" />
            <path
               inkscape:connector-curvature="0"
               id="path4702"
               style="font-style:normal;font-variant:normal;font-weight:bold;font-stretch:normal;font-size:7.76111126px;font-family:Carlito;-inkscape-font-specification:'Carlito Bold';fill:#fed80d;fill-opacity:1;stroke:#fed80d;stroke-width:0.26458332;stroke-miterlimit:4;stroke-dasharray:none;stroke-opacity:1"
               d="m 48.30883,109.26032 0.674842,-1.6114 0.755018,0.31619 -1.059838,2.53071 -4.641964,-1.94401 0.384996,-0.91931 z" />
            <path
               inkscape:connector-curvature="0"
               id="path4704"
               style="font-style:normal;font-variant:normal;font-weight:bold;font-stretch:normal;font-size:7.76111126px;font-family:Carlito;-inkscape-font-specification:'Carlito Bold';fill:#fed80d;fill-opacity:1;stroke:#fed80d;stroke-width:0.26458332;stroke-miterlimit:4;stroke-dasharray:none;stroke-opacity:1"
               d="m 47.794884,101.26052 0.30282,0.20839 q 0.13424,0.0924 0.192919,0.24776 l 1.715089,3.81153 1.248154,-1.81379 0.652468,0.44899 -1.93131,2.80654 -0.318429,-0.21912 q -0.124874,-0.0859 -0.175363,-0.22648 l -1.721332,-3.81583 -1.183706,1.72014 -0.652467,-0.44899 z" />
            <path
               inkscape:connector-curvature="0"
               id="path4706"
               style="font-style:normal;font-variant:normal;font-weight:bold;font-stretch:normal;font-size:7.76111126px;font-family:Carlito;-inkscape-font-specification:'Carlito Bold';fill:#fed80d;fill-opacity:1;stroke:#fed80d;stroke-width:0.26458332;stroke-miterlimit:4;stroke-dasharray:none;stroke-opacity:1"
               d="m 55.969297,100.47256 -0.58245,0.49673 q -0.100923,0.086 -0.200815,0.0916 -0.102329,0.003 -0.192668,-0.0449 l -0.884023,-0.54601 -1.409992,1.20249 0.400034,0.95379 q 0.03103,0.0831 0.01147,0.19445 -0.01917,0.10599 -0.114326,0.18714 l -0.591101,0.50411 -1.870064,-5.019364 0.772756,-0.659029 z m -3.552295,0.52427 1.066865,-0.90985 -1.422069,-0.879065 q -0.110832,-0.05988 -0.249138,-0.146129 -0.140765,-0.08913 -0.298744,-0.198455 0.08589,0.170796 0.15169,0.323867 0.0658,0.153071 0.110313,0.269507 z" />
            <path
               inkscape:connector-curvature="0"
               id="path4708"
               style="font-style:normal;font-variant:normal;font-weight:bold;font-stretch:normal;font-size:7.76111126px;font-family:Carlito;-inkscape-font-specification:'Carlito Bold';fill:#fed80d;fill-opacity:1;stroke:#fed80d;stroke-width:0.26458332;stroke-miterlimit:4;stroke-dasharray:none;stroke-opacity:1"
               d="m 55.412634,95.072142 q 0.05844,-0.02128 0.102104,-0.02915 0.04246,-0.01146 0.07942,-0.0048 0.03919,0.0018 0.07632,0.02039 0.04056,0.01735 0.09402,0.05008 l 3.285609,2.264483 Q 58.950069,97.144584 58.87907,96.933551 l -0.936156,-2.782784 0.794152,-0.289193 1.597963,4.750047 -0.464116,0.169008 q -0.106574,0.03881 -0.1908,0.02935 -0.08199,-0.0143 -0.17963,-0.07511 L 56.22777,96.485777 q 0.09522,0.214254 0.159004,0.403825 l 0.946985,2.814976 -0.797589,0.290445 -1.597963,-4.750047 0.474428,-0.172765 z" />
            <path
               inkscape:connector-curvature="0"
               id="path4710"
               style="font-style:normal;font-variant:normal;font-weight:bold;font-stretch:normal;font-size:7.76111126px;font-family:Carlito;-inkscape-font-specification:'Carlito Bold';fill:#fed80d;fill-opacity:1;stroke:#fed80d;stroke-width:0.26458332;stroke-miterlimit:4;stroke-dasharray:none;stroke-opacity:1"
               d="m 66.240398,94.758689 q 0.08484,0.575393 -0.01478,1.096159 -0.100204,0.516824 -0.365631,0.927443 -0.261682,0.410007 -0.677675,0.683777 -0.415994,0.273768 -0.958995,0.362424 -0.542994,0.08868 -1.018259,-0.03954 -0.475266,-0.128218 -0.846453,-0.434873 -0.371188,-0.306655 -0.619249,-0.766603 -0.244897,-0.464502 -0.329741,-1.039896 -0.08426,-0.571454 0.01595,-1.088277 0.103368,-0.521376 0.369375,-0.928054 0.265428,-0.410619 0.681421,-0.684388 0.415412,-0.277711 0.958407,-0.366388 0.542994,-0.08868 1.018841,0.04349 0.475266,0.128219 0.842707,0.435486 0.371187,0.306653 0.615504,0.767213 0.244313,0.460561 0.328581,1.032013 z m -1.003604,0.163897 q -0.0616,-0.417752 -0.20777,-0.732903 -0.14618,-0.315147 -0.363956,-0.517705 -0.214034,-0.203169 -0.494184,-0.282532 -0.276986,-0.08392 -0.606527,-0.0301 -0.32954,0.05382 -0.573082,0.222734 -0.244121,0.164983 -0.393331,0.42747 -0.145466,0.261878 -0.194017,0.608827 -0.04855,0.34695 0.01304,0.764703 0.06217,0.421695 0.20893,0.740786 0.146181,0.315147 0.360212,0.518316 0.217198,0.198616 0.497348,0.27798 0.280149,0.07936 0.60969,0.02554 0.329541,-0.05382 0.569905,-0.218225 0.244121,-0.164982 0.390167,-0.422918 0.149209,-0.262489 0.197761,-0.609439 0.04797,-0.35089 -0.01421,-0.772584 z" />
            <path
               inkscape:connector-curvature="0"
               id="path4712"
               style="font-style:normal;font-variant:normal;font-weight:bold;font-stretch:normal;font-size:7.76111126px;font-family:Carlito;-inkscape-font-specification:'Carlito Bold';fill:#fed80d;fill-opacity:1;stroke:#fed80d;stroke-width:0.26458332;stroke-miterlimit:4;stroke-dasharray:none;stroke-opacity:1"
               d="m 70.729327,93.009244 q -0.0407,0.08182 -0.09504,0.118015 -0.05041,0.03213 -0.126252,0.0308 -0.07205,-0.0013 -0.153536,-0.06047 -0.08148,-0.0592 -0.193029,-0.127188 -0.107609,-0.07205 -0.253565,-0.132372 -0.14595,-0.06033 -0.339352,-0.06372 -0.341296,-0.006 -0.521842,0.172443 -0.176753,0.178487 -0.186608,0.471316 -0.0063,0.185599 0.0806,0.310921 0.09077,0.121271 0.239413,0.214659 0.152562,0.08934 0.343606,0.162836 0.194833,0.07357 0.396836,0.159641 0.202141,0.08194 0.391794,0.196693 0.193586,0.110676 0.339721,0.278317 0.149932,0.167695 0.232872,0.408517 0.08676,0.240872 0.07524,0.583198 -0.01249,0.371194 -0.137217,0.69503 -0.120938,0.3239 -0.345278,0.563453 -0.224202,0.235433 -0.543673,0.370146 -0.315675,0.134787 -0.717648,0.127747 -0.227509,-0.004 -0.453234,-0.0616 -0.222074,-0.05341 -0.427452,-0.151922 -0.205378,-0.09851 -0.386752,-0.233747 -0.181384,-0.135175 -0.316142,-0.302607 l 0.313137,-0.51037 q 0.03621,-0.06127 0.09434,-0.09739 0.06192,-0.03606 0.130184,-0.03487 0.09102,0.0015 0.183179,0.08162 0.0961,0.07596 0.221841,0.173084 0.125883,0.09299 0.293892,0.174346 0.168149,0.07722 0.403264,0.08134 0.341296,0.006 0.537289,-0.180427 0.195993,-0.1864 0.208482,-0.557595 0.0071,-0.210343 -0.08328,-0.343985 -0.08657,-0.133574 -0.235347,-0.22284 -0.14863,-0.0934 -0.343745,-0.15871 -0.191181,-0.06937 -0.393459,-0.147201 -0.198487,-0.07777 -0.392211,-0.184319 -0.189792,-0.11062 -0.335651,-0.2865 -0.145855,-0.175882 -0.232027,-0.433272 -0.08241,-0.257307 -0.06964,-0.636748 0.01013,-0.30108 0.125885,-0.583803 0.115899,-0.286847 0.328167,-0.505978 0.212273,-0.21913 0.512479,-0.345976 0.304161,-0.130859 0.68717,-0.124153 0.432308,0.0076 0.795014,0.16661 0.366498,0.159108 0.618859,0.440023 z" />
            <path
               inkscape:connector-curvature="0"
               id="path4714"
               style="font-style:normal;font-variant:normal;font-weight:bold;font-stretch:normal;font-size:7.76111126px;font-family:Carlito;-inkscape-font-specification:'Carlito Bold';fill:#fed80d;fill-opacity:1;stroke:#fed80d;stroke-width:0.26458332;stroke-miterlimit:4;stroke-dasharray:none;stroke-opacity:1"
               d="m 76.668846,94.058461 -0.278888,0.741302 -1.936607,-0.728582 -0.468377,1.244958 1.507436,0.567127 -0.268216,0.712924 -1.507429,-0.567119 -0.477717,1.269788 1.940153,0.729918 -0.282438,0.739966 -2.872989,-1.080869 1.772086,-4.710276 z" />
            <path
               inkscape:connector-curvature="0"
               id="path4716"
               style="font-style:normal;font-variant:normal;font-weight:bold;font-stretch:normal;font-size:7.76111126px;font-family:Carlito;-inkscape-font-specification:'Carlito Bold';fill:#fed80d;fill-opacity:1;stroke:#fed80d;stroke-width:0.26458332;stroke-miterlimit:4;stroke-dasharray:none;stroke-opacity:1"
               d="m 77.78688,98.217868 -0.982656,1.66865 -0.862081,-0.507679 2.553761,-4.336515 1.306179,0.769205 q 0.434305,0.255763 0.688754,0.533146 0.256376,0.274122 0.354226,0.556037 0.101115,0.283845 0.05601,0.569527 -0.0451,0.285695 -0.208558,0.563254 -0.125025,0.212214 -0.297229,0.370303 -0.170303,0.154796 -0.378813,0.247509 -0.20334,0.09134 -0.439676,0.119295 -0.234422,0.02467 -0.490906,-0.02522 0.05471,0.09379 0.08809,0.201412 0.0353,0.104349 0.0435,0.23231 l 0.0391,2.151618 -0.773913,-0.45575 q -0.20572,-0.12115 -0.214825,-0.35961 l 0.0059,-1.817257 q -0.0029,-0.107243 -0.04564,-0.176413 -0.03958,-0.0673 -0.150568,-0.132651 z m 0.359607,-0.610635 0.437568,0.257682 q 0.208993,0.123069 0.391892,0.15602 0.186165,0.03486 0.341819,-0.0054 0.155685,-0.04023 0.280232,-0.14721 0.129777,-0.108265 0.223961,-0.268329 0.186534,-0.316748 0.0906,-0.601934 -0.09401,-0.288448 -0.498919,-0.526905 l -0.444098,-0.261526 z" />
            <path
               inkscape:connector-curvature="0"
               id="path4718"
               style="font-style:normal;font-variant:normal;font-weight:bold;font-stretch:normal;font-size:7.76111126px;font-family:Carlito;-inkscape-font-specification:'Carlito Bold';fill:#fed80d;fill-opacity:1;stroke:#fed80d;stroke-width:0.26458332;stroke-miterlimit:4;stroke-dasharray:none;stroke-opacity:1"
               d="m 80.981965,103.06283 -0.766717,-0.64269 3.232918,-3.85685 0.766722,0.642686 z" />
            <path
               inkscape:transform-center-y="-0.54400224"
               inkscape:transform-center-x="1.0661245"
               inkscape:connector-curvature="0"
               id="path4720"
               style="font-style:normal;font-variant:normal;font-weight:bold;font-stretch:normal;font-size:7.76111126px;font-family:Carlito;-inkscape-font-specification:'Carlito Bold';fill:#fed80d;fill-opacity:1;stroke:#fed80d;stroke-width:0.26458332;stroke-miterlimit:4;stroke-dasharray:none;stroke-opacity:1"
               d="m 84.043664,107.77034 -0.424903,-0.63675 q -0.07362,-0.11033 -0.06736,-0.21018 0.0094,-0.10195 0.06718,-0.18607 l 0.646035,-0.81379 -1.028606,-1.54143 -0.994163,0.28527 q -0.08614,0.0214 -0.194442,-0.0115 -0.103032,-0.0315 -0.172429,-0.1355 l -0.431215,-0.64621 5.204225,-1.26776 0.563735,0.84479 z m -0.103538,-3.58928 0.778293,1.16632 1.039959,-1.30901 q 0.07247,-0.10305 0.174369,-0.23026 0.105052,-0.12932 0.232162,-0.27338 -0.179688,0.0653 -0.339436,0.11261 -0.159733,0.0474 -0.280612,0.0779 z" />
            <path
               inkscape:connector-curvature="0"
               id="path4722"
               style="font-style:normal;font-variant:normal;font-weight:bold;font-stretch:normal;font-size:7.76111126px;font-family:Carlito;-inkscape-font-specification:'Carlito Bold';fill:#fed80d;fill-opacity:1;stroke:#fed80d;stroke-width:0.26458332;stroke-miterlimit:4;stroke-dasharray:none;stroke-opacity:1"
               d="m 90.042685,109.42277 -0.747838,0.31372 -0.524824,-1.25105 -3.892946,1.63311 -0.384088,-0.91558 3.892947,-1.63311 -0.524823,-1.25105 0.747835,-0.31373 z" />
            <path
               inkscape:connector-curvature="0"
               id="path4724"
               style="font-style:normal;font-variant:normal;font-weight:bold;font-stretch:normal;font-size:7.76111126px;font-family:Carlito;-inkscape-font-specification:'Carlito Bold';fill:#fed80d;fill-opacity:1;stroke:#fed80d;stroke-width:0.26458332;stroke-miterlimit:4;stroke-dasharray:none;stroke-opacity:1"
               d="m 91.166897,114.54558 -0.771587,0.17878 -0.467043,-2.01573 -1.295823,0.30025 0.363541,1.56901 -0.742049,0.17197 -0.36354,-1.56901 -1.321667,0.30623 0.4679,2.01942 -0.772445,0.17506 -0.692867,-2.99036 4.902715,-1.13596 z" />
          </g>
          <path
             inkscape:connector-curvature="0"
             id="path4727"
             d="M 29.884184,87.562199 V 116.84652"
             style="fill:none;stroke:#000000;stroke-width:0.79374999;stroke-linecap:butt;stroke-linejoin:miter;stroke-miterlimit:4;stroke-dasharray:none;stroke-opacity:1" />
          <path
             inkscape:connector-curvature="0"
             id="path4729"
             d="M 41.881483,87.562199 V 125.62636"
             style="fill:none;stroke:#000000;stroke-width:0.79374999;stroke-linecap:butt;stroke-linejoin:miter;stroke-miterlimit:4;stroke-dasharray:none;stroke-opacity:1" />
          <path
             inkscape:connector-curvature="0"
             id="path4731"
             d="M 92.160269,87.654804 V 125.82998"
             style="fill:none;stroke:#000000;stroke-width:0.79374999;stroke-linecap:butt;stroke-linejoin:miter;stroke-miterlimit:4;stroke-dasharray:none;stroke-opacity:1" />
          <path
             inkscape:connector-curvature="0"
             id="path4733"
             d="M 104.19124,87.500562 V 117.03812"
             style="fill:none;stroke:#000000;stroke-width:0.79374999;stroke-linecap:butt;stroke-linejoin:miter;stroke-miterlimit:4;stroke-dasharray:none;stroke-opacity:1" />
        </g>
      </g>
      <g
         id="text4509"
         style="font-style:normal;font-variant:normal;font-weight:normal;font-stretch:normal;font-size:2.91886353px;line-height:1.25;font-family:Mebinac;-inkscape-font-specification:'Mebinac, Normal';font-variant-ligatures:normal;font-variant-caps:normal;font-variant-numeric:normal;font-feature-settings:normal;text-align:start;letter-spacing:0px;word-spacing:0px;writing-mode:lr-tb;text-anchor:start;display:inline;fill:#000000;fill-opacity:1;stroke:none;stroke-width:0.26458332"
         transform="matrix(0.94231735,0,0,1.0612136,-6.0118146,-11.954889)"
         aria-label="VIRTUS BERGAMO">
        <path
           id="path4984"
           style="font-style:normal;font-variant:normal;font-weight:normal;font-stretch:normal;font-size:14.59431648px;font-family:Impact;-inkscape-font-specification:Impact;stroke-width:0.26458332"
           d="M 28.780955,66.83449 27.255963,78.371696 H 22.702365 L 20.970715,66.83449 h 3.164002 q 0.548712,4.767382 0.783875,8.059654 0.235162,-3.327903 0.491703,-5.914688 l 0.206658,-2.144966 z" />
        <path
           id="path4986"
           style="font-style:normal;font-variant:normal;font-weight:normal;font-stretch:normal;font-size:14.59431648px;font-family:Impact;-inkscape-font-specification:Impact;stroke-width:0.26458332"
           d="M 32.294137,66.83449 V 78.371696 H 29.294036 V 66.83449 Z" />
        <path
           id="path4988"
           style="font-style:normal;font-variant:normal;font-weight:normal;font-stretch:normal;font-size:14.59431648px;font-family:Impact;-inkscape-font-specification:Impact;stroke-width:0.26458332"
           d="m 33.484202,66.83449 h 2.123587 q 2.123587,0 2.871831,0.163901 0.75537,0.163901 1.225694,0.840884 0.477451,0.669856 0.477451,2.144965 0,1.346839 -0.334928,1.810037 -0.334928,0.463199 -1.318334,0.555839 0.890766,0.22091 1.19719,0.591469 0.306423,0.370558 0.377685,0.684108 0.07839,0.306424 0.07839,1.703145 v 3.042858 h -2.786317 v -3.833858 q 0,-0.926397 -0.149649,-1.147307 -0.142523,-0.22091 -0.762496,-0.22091 v 5.202075 h -3.000101 z m 3.000101,1.973939 v 2.565407 q 0.505955,0 0.705487,-0.135397 0.206658,-0.142522 0.206658,-0.905018 v -0.634226 q 0,-0.548712 -0.199532,-0.719739 -0.192405,-0.171027 -0.712613,-0.171027 z" />
        <path
           id="path4990"
           style="font-style:normal;font-variant:normal;font-weight:normal;font-stretch:normal;font-size:14.59431648px;font-family:Impact;-inkscape-font-specification:Impact;stroke-width:0.26458332"
           d="m 47.394409,66.83449 v 2.308867 h -1.781532 v 9.228339 H 42.612776 V 69.143357 H 40.838369 V 66.83449 Z" />
        <path
           id="path4992"
           style="font-style:normal;font-variant:normal;font-weight:normal;font-stretch:normal;font-size:14.59431648px;font-family:Impact;-inkscape-font-specification:Impact;stroke-width:0.26458332"
           d="m 54.898226,66.83449 v 7.710474 q 0,1.311208 -0.08551,1.845668 -0.08551,0.527334 -0.505955,1.090298 -0.420442,0.555838 -1.111677,0.84801 -0.684108,0.285045 -1.617631,0.285045 -1.033289,0 -1.82429,-0.342054 -0.791,-0.342055 -1.182938,-0.890767 -0.391937,-0.548712 -0.463198,-1.154433 -0.07126,-0.612847 -0.07126,-2.565407 V 66.83449 h 3.000102 v 8.651123 q 0,0.75537 0.07839,0.969154 0.08551,0.206658 0.334928,0.206658 0.285046,0 0.363433,-0.228036 0.08551,-0.235163 0.08551,-1.097424 V 66.83449 Z" />
        <path
           id="path4994"
           style="font-style:normal;font-variant:normal;font-weight:normal;font-stretch:normal;font-size:14.59431648px;font-family:Impact;-inkscape-font-specification:Impact;stroke-width:0.26458332"
           d="m 62.416293,70.326294 h -2.786317 v -0.855135 q 0,-0.598595 -0.106892,-0.762496 -0.106892,-0.163901 -0.356307,-0.163901 -0.270793,0 -0.413315,0.22091 -0.135397,0.22091 -0.135397,0.669856 0,0.577217 0.156775,0.869388 0.149649,0.292171 0.84801,0.705487 2.002443,1.190064 2.52265,1.95256 0.520208,0.762496 0.520208,2.458515 0,1.232821 -0.292172,1.817164 -0.285045,0.584342 -1.111676,0.983406 -0.826631,0.391937 -1.924055,0.391937 -1.204317,0 -2.059452,-0.456072 -0.84801,-0.456073 -1.111677,-1.16156 -0.263667,-0.705487 -0.263667,-2.002443 v -0.75537 h 2.786318 v 1.403848 q 0,0.648478 0.114018,0.833758 0.121144,0.185279 0.420441,0.185279 0.299298,0 0.441821,-0.235162 0.149648,-0.235163 0.149648,-0.698361 0,-1.019037 -0.277919,-1.332587 -0.285045,-0.313549 -1.403848,-1.047541 -1.118802,-0.741118 -1.482235,-1.076046 -0.363433,-0.334928 -0.605721,-0.926397 -0.235162,-0.591469 -0.235162,-1.51074 0,-1.32546 0.334928,-1.938307 0.342054,-0.612848 1.097424,-0.954902 0.75537,-0.34918 1.82429,-0.34918 1.168685,0 1.98819,0.377685 0.826631,0.377685 1.090298,0.954901 0.270793,0.570091 0.270793,1.945434 z" />
        <path
           id="path4996"
           style="font-style:normal;font-variant:normal;font-weight:normal;font-stretch:normal;font-size:14.59431648px;font-family:Impact;-inkscape-font-specification:Impact;stroke-width:0.26458332"
           d="m 66.178891,66.83449 h 2.992975 q 1.4181,0 2.144965,0.22091 0.733992,0.22091 1.182938,0.897893 0.448946,0.669856 0.448946,2.166344 0,1.01191 -0.320676,1.410974 -0.31355,0.399063 -1.247073,0.612847 1.040415,0.235162 1.410974,0.783874 0.370559,0.541586 0.370559,1.667515 v 1.06892 q 0,1.168685 -0.270793,1.73165 -0.263667,0.562964 -0.84801,0.769622 -0.584342,0.206657 -2.39438,0.206657 h -3.470425 z m 3.000101,1.973939 v 2.565407 q 0.192405,-0.0071 0.299297,-0.0071 0.44182,0 0.562965,-0.213784 0.121144,-0.22091 0.121144,-1.247073 0,-0.541586 -0.09977,-0.75537 -0.09977,-0.22091 -0.263667,-0.277919 -0.156775,-0.05701 -0.619973,-0.06413 z m 0,4.361192 v 3.228137 q 0.634225,-0.02138 0.805253,-0.199532 0.178153,-0.178153 0.178153,-0.876514 v -1.076045 q 0,-0.741118 -0.156775,-0.897893 -0.156775,-0.156775 -0.826631,-0.178153 z" />
        <path
           id="path4998"
           style="font-style:normal;font-variant:normal;font-weight:normal;font-stretch:normal;font-size:14.59431648px;font-family:Impact;-inkscape-font-specification:Impact;stroke-width:0.26458332"
           d="m 74.245671,66.83449 h 5.002544 v 2.308867 h -2.002443 v 2.187722 h 1.874172 v 2.194848 h -1.874172 v 2.536903 h 2.201974 v 2.308866 h -5.202075 z" />
        <path
           id="path5000"
           style="font-style:normal;font-variant:normal;font-weight:normal;font-stretch:normal;font-size:14.59431648px;font-family:Impact;-inkscape-font-specification:Impact;stroke-width:0.26458332"
           d="m 80.317135,66.83449 h 2.123587 q 2.123587,0 2.871831,0.163901 0.75537,0.163901 1.225695,0.840884 0.47745,0.669856 0.47745,2.144965 0,1.346839 -0.334928,1.810037 -0.334928,0.463199 -1.318334,0.555839 0.890766,0.22091 1.19719,0.591469 0.306424,0.370558 0.377685,0.684108 0.07839,0.306424 0.07839,1.703145 v 3.042858 h -2.786317 v -3.833858 q 0,-0.926397 -0.149649,-1.147307 -0.142522,-0.22091 -0.762496,-0.22091 v 5.202075 h -3.000101 z m 3.000101,1.973939 v 2.565407 q 0.505956,0 0.705487,-0.135397 0.206658,-0.142522 0.206658,-0.905018 v -0.634226 q 0,-0.548712 -0.199531,-0.719739 -0.192406,-0.171027 -0.712614,-0.171027 z" />
        <path
           id="path5002"
           style="font-style:normal;font-variant:normal;font-weight:normal;font-stretch:normal;font-size:14.59431648px;font-family:Impact;-inkscape-font-specification:Impact;stroke-width:0.26458332"
           d="m 95.068223,71.081664 h -3.000102 v -1.047541 q 0,-0.990532 -0.08551,-1.239947 -0.08551,-0.249414 -0.40619,-0.249414 -0.277919,0 -0.377685,0.213784 -0.09977,0.213784 -0.09977,1.097424 v 5.537004 q 0,0.776748 0.09977,1.026163 0.09977,0.242288 0.399064,0.242288 0.327802,0 0.44182,-0.277919 0.121144,-0.277919 0.121144,-1.083172 V 73.932117 H 91.55504 v -1.753028 h 3.513183 v 6.192607 h -1.888425 l -0.277919,-0.826631 q -0.306424,0.53446 -0.776749,0.805253 -0.463198,0.263667 -1.097424,0.263667 -0.75537,0 -1.4181,-0.363433 -0.655604,-0.370559 -0.997658,-0.912145 -0.342055,-0.541585 -0.427568,-1.133054 -0.08551,-0.598595 -0.08551,-1.788659 v -3.427669 q 0,-1.653263 0.178154,-2.401507 0.178153,-0.748243 1.019036,-1.368217 0.84801,-0.627099 2.187723,-0.627099 1.318334,0 2.187722,0.541586 0.869388,0.541586 1.133055,1.289829 0.263667,0.741118 0.263667,2.159218 z" />
        <path
           id="path5004"
           style="font-style:normal;font-variant:normal;font-weight:normal;font-stretch:normal;font-size:14.59431648px;font-family:Impact;-inkscape-font-specification:Impact;stroke-width:0.26458332"
           d="m 101.40335,66.83449 1.7174,11.537206 h -3.07136 l -0.14965,-2.073704 h -1.076046 l -0.178153,2.073704 H 95.538548 L 97.06354,66.83449 Z m -1.589123,7.418303 q -0.228037,-1.959686 -0.456073,-4.838643 -0.456072,3.306525 -0.57009,4.838643 z" />
        <path
           id="path5006"
           style="font-style:normal;font-variant:normal;font-weight:normal;font-stretch:normal;font-size:14.59431648px;font-family:Impact;-inkscape-font-specification:Impact;stroke-width:0.26458332"
           d="m 112.89068,66.83449 v 11.537206 h -2.62242 v -7.788861 l -1.04754,7.788861 h -1.85992 l -1.10455,-7.610708 v 7.610708 h -2.62241 V 66.83449 h 3.88374 q 0.17102,1.040415 0.36343,2.451389 l 0.41331,2.935966 0.68411,-5.387355 z" />
        <path
           id="path5008"
           style="font-style:normal;font-variant:normal;font-weight:normal;font-stretch:normal;font-size:14.59431648px;font-family:Impact;-inkscape-font-specification:Impact;stroke-width:0.26458332"
           d="m 120.95033,73.590063 q 0,1.738775 -0.0855,2.465641 -0.0784,0.719739 -0.51308,1.318334 -0.42757,0.598595 -1.16156,0.919271 -0.73399,0.320676 -1.71027,0.320676 -0.9264,0 -1.66752,-0.299298 -0.73399,-0.306423 -1.18294,-0.912144 -0.44894,-0.605721 -0.53446,-1.318335 -0.0855,-0.712613 -0.0855,-2.494145 v -1.973939 q 0,-1.738776 0.0784,-2.458515 0.0855,-0.726865 0.51308,-1.32546 0.43469,-0.598595 1.16868,-0.919271 0.734,-0.320676 1.71028,-0.320676 0.92639,0 1.66038,0.306423 0.74112,0.299298 1.19007,0.905019 0.44894,0.605721 0.53446,1.318334 0.0855,0.712613 0.0855,2.494146 z m -3.0001,-3.791102 q 0,-0.805253 -0.0926,-1.026163 -0.0855,-0.228036 -0.36343,-0.228036 -0.23516,0 -0.36343,0.185279 -0.12115,0.178153 -0.12115,1.06892 v 5.387355 q 0,1.004784 0.0784,1.239947 0.0855,0.235162 0.38481,0.235162 0.30642,0 0.39194,-0.270793 0.0855,-0.270793 0.0855,-1.28983 z" />
      </g>
    </g>
  </g>
</svg>
