<?xml version="1.0" encoding="utf-8"?>
<!-- Generator: Adobe Illustrator 15.0.0, SVG Export Plug-In . SVG Version: 6.00 Build 0)  -->
<!DOCTYPE svg PUBLIC "-//W3C//DTD SVG 1.1//EN" "http://www.w3.org/Graphics/SVG/1.1/DTD/svg11.dtd">
<svg version="1.1" id="Layer_1" xmlns="http://www.w3.org/2000/svg" xmlns:xlink="http://www.w3.org/1999/xlink" x="0px" y="0px"
	 width="261.628826712" height="382.220878551" viewBox="0 0 500 730.464" enable-background="new 0 0 500 730.464" xml:space="preserve">
<path fill="#D1D3D4" d="M0,188.16l7.509,203.876c0.028,3.021,0.549,34.426,10.971,77.158
	c10.908,44.718,32.74,102.189,76.514,152.488c62.96,72.34,146.299,106.009,151.249,107.893l2.339,0.89l2.337-0.89
	c4.95-1.884,88.291-35.552,151.249-107.893c43.775-50.298,65.607-107.77,76.514-152.488c10.423-42.732,10.943-74.137,10.971-77.158
	l7.51-203.876H0z"/>
<path d="M490.256,194.816c-0.475,12.887-7.259,197.066-7.259,197.066l-0.001,0.092c-0.03,3.344-0.596,33.885-10.781,75.642
	c-9.81,40.21-30.794,98.822-75.069,149.695c-63.492,72.955-147.248,105.524-148.564,106.029
	c-1.342-0.514-85.089-33.096-148.565-106.03c-44.274-50.872-65.26-109.483-75.068-149.694
	c-10.185-41.757-10.75-72.298-10.782-75.642l-0.003-0.184c0,0-6.781-184.087-7.256-196.974
	C20.151,194.816,477.011,194.816,490.256,194.816z"/>
<path fill="#EF4135" d="M248.582,208.275v236.451h112.551l-56.79-56.79c-16.744-15.182-27.259-37.106-27.259-61.487
	c0-45.831,37.15-82.982,82.979-82.982c24.275,0,46.113,10.426,61.287,27.041l50.779,50.782c1.612-43.754,3.5-95.018,4.163-113.015
	C457.977,208.275,353.279,208.275,248.582,208.275z"/>
<path fill="#C41230" d="M469.539,391.85l0.002-0.277c0,0,1.19-32.313,2.588-70.283l-50.779-50.782
	c-15.174-16.615-37.012-27.041-61.287-27.041c-45.829,0-82.979,37.151-82.979,82.982c0,24.381,10.515,46.305,27.259,61.487
	l56.79,56.79H463.41C469.25,414.066,469.529,392.907,469.539,391.85z"/>
<path fill="#FFFFFF" d="M248.582,208.275c-104.697,0-209.396,0-227.712,0c1.238,33.615,6.752,183.298,6.752,183.298l0.002,0.277
	c0.009,1.057,0.288,22.216,6.127,52.876h214.831V208.275z"/>
<path fill="#FFFFFF" d="M248.582,444.726v264.017c18.411-8.049,86.32-40.412,138.412-100.268
	c42.5-48.833,62.69-105.288,72.146-144.049c1.683-6.902,3.088-13.491,4.27-19.7H248.582z"/>
<path fill="#EF4135" d="M33.751,444.726c1.184,6.209,2.588,12.798,4.271,19.7c9.456,38.761,29.647,95.216,72.146,144.048
	c52.084,59.846,119.997,92.215,138.413,100.269V444.726H33.751z"/>
<path d="M59.427,127.688c0,7.251-5.947,12.764-13.198,12.764c-7.979,0-13.2-6.382-13.2-12.764c0-9.283,0-56.281,0-61.647
	c-2.903,0-21.903,0-24.804,0c0,5.077,0,38.292,0,59.906c0,22.192,16.535,38.582,38.004,38.582c21.177,0,37.565-16.825,37.565-38.582
	c0-6.817,0-55.408,0-59.906c-2.901,0-21.467,0-24.368,0C59.427,70.975,59.427,117.388,59.427,127.688z"/>
<path d="M152.542,111.443c-4.788-4.062-49.03-43.805-52.944-47.284c0,5.074,0,91.958,0,98.63c3.046,0,20.307,0,24.368,0
	c0-4.93,0-38.583,0-45.4c4.063,3.628,48.01,43.079,52.798,47.286c0-6.961,0-92.251,0-98.633c-2.901,0-21.468,0-24.221,0
	C152.542,71.698,152.542,104.625,152.542,111.443z"/>
<path d="M193.854,162.789c3.625,0,21.609,0,25.093,0c0-4.061,0-91.959,0-96.747c-3.628,0-21.904,0-25.093,0
	C193.854,71.408,193.854,158.582,193.854,162.789z"/>
<path d="M231.91,89.975c3.917,0,19.287,0,23.642,0c0,2.03,0,69.043,0,72.813c2.321,0,21.322,0,24.948,0c0-5.511,0-66.286,0-72.813
	c2.901,0,16.827,0,23.642,0c0-3.046,0-21.032,0-23.934c-6.674,0-65.85,0-72.232,0C231.91,69.233,231.91,87.074,231.91,89.975z"/>
<path d="M317.435,162.789c2.756,0,73.102,0,76.876,0c0-3.48,0-19.871,0-23.932c-3.623,0-47.72,0-52.509,0c0-1.741,0-10.154,0-12.475
	c4.644,0,35.537,0,40.473,0c0-2.319,0-21.612,0-23.787c-4.064,0-35.539,0-40.473,0c0-1.595,0-11.314,0-12.619
	c4.935,0,48.014,0,52.509,0c0-2.322,0-21.322,0-23.934c-4.931,0-71.506,0-76.876,0C317.435,72.281,317.435,157.278,317.435,162.789z
	"/>
<path d="M450.538,66.041c-13.925,0-37.857,0-40.468,0c0,4.788,0,92.25,0,96.747c2.465,0,25.815,0,40.611,0
	c26.107,0,49.319-19.58,49.319-48.299C500,87.51,479.109,66.041,450.538,66.041z M450.392,138.857c-4.642,0-13.198,0-15.809,0
	c0-3.771,0-44.82,0-49.173c2.321,0,10.877,0,15.373,0c14.36,0,25.384,10.3,25.384,24.805
	C475.34,128.266,463.3,138.857,450.392,138.857z"/>
<path fill="#EF4135" d="M90.783,0.096c-0.35,1.138-20.593,57.225-21.03,58.451c1.051,0,15.248,0,15.948,0
	c0.264-0.789,3.155-9.025,3.418-9.815c0.7,0,18.229,0,19.192,0c0.35,0.965,3.155,8.589,3.592,9.815c1.141,0,14.635,0,16.126,0
	c-0.526-1.404-21.646-57.49-21.997-58.451C104.979,0.096,91.747,0.096,90.783,0.096z M94.113,34.361
	c0.262-0.79,3.944-11.48,4.294-12.532c0.351,0.964,4.293,11.831,4.558,12.532C102.351,34.361,94.902,34.361,94.113,34.361z"/>
<path fill="#EF4135" d="M135.092,58.548c2.19,0,13.057,0,15.16,0c0-2.454,0-55.56,0-58.451c-2.19,0-13.232,0-15.16,0
	C135.092,3.337,135.092,56.005,135.092,58.548z"/>
<path fill="#EF4135" d="M202.922,0.096c-4.032,0-39.784,0-43.641,0c0,1.926,0,12.707,0,14.459c2.367,0,11.653,0,14.286,0
	c0,1.226,0,41.713,0,43.992c1.4,0,12.879,0,15.072,0c0-3.33,0-40.048,0-43.992c1.751,0,10.163,0,14.282,0
	C202.922,12.716,202.922,1.849,202.922,0.096z"/>
<path fill="#EF4135" d="M220.258,0.096c-0.352,1.138-20.594,57.225-21.032,58.451c1.05,0,15.247,0,15.948,0
	c0.263-0.789,3.156-9.025,3.418-9.815c0.701,0,18.229,0,19.194,0c0.349,0.965,3.152,8.589,3.59,9.815c1.142,0,14.636,0,16.127,0
	c-0.531-1.404-21.646-57.49-21.998-58.451C234.456,0.096,221.221,0.096,220.258,0.096z M223.588,34.361
	c0.263-0.79,3.943-11.48,4.293-12.532c0.35,0.964,4.294,11.831,4.558,12.532C231.826,34.361,224.377,34.361,223.588,34.361z"/>
<path fill="#EF4135" d="M323.284,0.096c-2.279,0-16.478,0-18.493,0c-1.313,1.753-14.635,20.331-15.861,21.997
	c-1.49,0-8.325,0-9.814,0c0-2.365,0-18.228,0-21.997c-1.931,0-13.583,0-14.984,0c0,3.241,0,55.122,0,58.451
	c1.49,0,12.964,0,14.984,0c0-2.717,0-19.28,0-21.82c1.749,0,8.146,0,9.904,0c1.487,1.926,15.071,20.156,16.297,21.82
	c1.931,0,16.915,0,18.928,0c-1.49-1.841-21.643-27.606-22.958-29.358C302.601,27.525,321.441,2.375,323.284,0.096z"/>
<path fill="#EF4135" d="M330.275,58.548c1.667,0,44.168,0,46.446,0c0-2.105,0-12.005,0-14.458c-2.19,0-28.83,0-31.722,0
	c0-1.053,0-6.136,0-7.538c2.804,0,21.468,0,24.452,0c0-1.401,0-13.056,0-14.371c-2.454,0-21.471,0-24.452,0c0-0.964,0-6.836,0-7.625
	c2.981,0,29.004,0,31.722,0c0-1.402,0-12.882,0-14.459c-2.977,0-43.201,0-46.446,0C330.275,3.865,330.275,55.218,330.275,58.548z"/>
<path fill="#EF4135" d="M436.979,19.813c0-11.919-9.024-19.717-19.629-19.717c-11.745,0-28.655,0-31.111,0c0,5.609,0,53.28,0,58.451
	c2.456,0,12.971,0,14.81,0c0-4.031,0-16.737,0-19.28c1.317,0,5.699,0,7.625,0c1.317,2.278,9.907,17.527,10.954,19.28
	c2.193,0,16.127,0,18.495,0c-1.23-1.928-11.217-18.93-12.624-21.295C431.722,35.061,436.979,27.875,436.979,19.813z M415.951,25.071
	c-5.7,0-13.324,0-14.901,0c0-1.49,0-8.677,0-10.604c1.841,0,9.202,0,14.901,0c3.326,0,6.045,1.841,6.045,5.346
	C421.996,23.143,419.104,25.071,415.951,25.071z"/>
<path fill="#EF4135" d="M493.044,14.555c0-1.402,0-12.882,0-14.459c-2.979,0-43.203,0-46.446,0c0,3.769,0,55.122,0,58.451
	c1.665,0,44.167,0,46.446,0c0-2.105,0-12.005,0-14.458c-2.19,0-28.832,0-31.722,0c0-1.053,0-6.136,0-7.538
	c2.801,0,21.465,0,24.452,0c0-1.401,0-13.056,0-14.371c-2.456,0-21.474,0-24.452,0c0-0.964,0-6.836,0-7.625
	C464.3,14.555,490.324,14.555,493.044,14.555z"/>
<path fill="#EF4135" d="M49.995,31.814c-1.495-1.055-10.808-7.998-12.479-9.316c-1.669,1.318-10.458,7.82-12.479,9.316
	C24.95,27.858,24.334,3.341,24.246,0L0.17,0.019l9.523,8.464c1.053,15.713,3.207,47.399,3.482,51.452
	c2.899-2.197,22.409-16.346,24.342-17.927c2.109,1.581,21.794,15.994,24.432,17.927C62.122,56.246,65.726,3.076,65.99,0H50.787
	C50.698,3.692,50.171,29.09,49.995,31.814z"/>
<path fill="#EF4135" d="M160.081,278.985c-0.144,6.091-1.014,47.997-1.302,52.493c-2.469-1.744-17.837-13.195-20.594-15.372
	c-2.755,2.177-17.253,12.905-20.59,15.372c-0.144-6.528-1.16-46.984-1.305-52.493l-39.728,0.029l15.712,13.967
	c1.741,25.929,5.293,78.21,5.747,84.896c4.785-3.623,36.975-26.971,40.164-29.579c3.48,2.607,35.961,26.39,40.311,29.579
	c0.29-6.088,6.235-93.817,6.672-98.892H160.081z"/>
<path d="M349.13,495.825c0,4.53,0,47.136,0,56.588c0,6.659-5.462,11.719-12.114,11.719c-7.325,0-12.121-5.86-12.121-11.719
	c0-8.517,0-51.664,0-56.588c-2.662,0-20.106,0-22.77,0c0,4.66,0,35.152,0,54.994c0,20.372,15.182,35.418,34.89,35.418
	c19.436,0,34.482-15.446,34.482-35.418c0-6.259,0-50.869,0-54.994C368.835,495.825,351.792,495.825,349.13,495.825z"/>
<polygon fill="#FFFFFF" points="86.898,481.099 83.242,469.848 79.584,481.099 67.751,481.099 77.324,488.054 73.668,499.312 
	83.242,492.357 92.815,499.312 89.159,488.054 98.732,481.099 "/>
<polygon fill="#FFFFFF" points="125.927,469.848 122.271,481.099 110.436,481.099 120.01,488.054 116.354,499.312 125.927,492.357 
	135.5,499.312 131.844,488.054 141.416,481.099 129.584,481.099 "/>
<polygon fill="#FFFFFF" points="125.927,515.022 122.271,526.275 110.436,526.275 120.01,533.229 116.354,544.488 125.927,537.533 
	135.5,544.488 131.844,533.229 141.416,526.275 129.584,526.275 "/>
<polygon fill="#FFFFFF" points="129.584,571.45 125.927,560.197 122.271,571.45 110.436,571.45 120.01,578.405 116.354,589.663 
	125.927,582.708 135.5,589.663 131.844,578.405 141.416,571.45 "/>
<polygon fill="#FFFFFF" points="168.612,560.197 164.956,571.45 153.122,571.45 162.696,578.405 159.04,589.663 168.612,582.708 
	178.185,589.663 174.529,578.405 184.102,571.45 172.27,571.45 "/>
<polygon fill="#FFFFFF" points="172.27,616.625 168.612,605.373 164.956,616.625 153.122,616.625 162.696,623.58 159.04,634.838 
	168.612,627.884 178.185,634.838 174.529,623.58 184.102,616.625 "/>
<polygon fill="#FFFFFF" points="211.297,560.197 207.641,571.45 195.809,571.45 205.381,578.405 201.726,589.663 211.297,582.708 
	220.871,589.663 217.215,578.405 226.788,571.45 214.953,571.45 "/>
<polygon fill="#FFFFFF" points="214.953,616.625 211.297,605.373 207.641,616.625 195.809,616.625 205.381,623.58 201.726,634.838 
	211.297,627.884 220.871,634.838 217.215,623.58 226.788,616.625 "/>
<polygon fill="#FFFFFF" points="168.612,515.022 164.956,526.275 153.122,526.275 162.696,533.229 159.04,544.488 168.612,537.533 
	178.185,544.488 174.529,533.229 184.102,526.275 172.27,526.275 "/>
<polygon fill="#FFFFFF" points="211.297,515.022 207.641,526.275 195.809,526.275 205.381,533.229 201.726,544.488 211.297,537.533 
	220.871,544.488 217.215,533.229 226.788,526.275 214.953,526.275 "/>
<polygon fill="#FFFFFF" points="168.612,469.848 164.956,481.099 153.122,481.099 162.696,488.054 159.04,499.312 168.612,492.357 
	178.185,499.312 174.529,488.054 184.102,481.099 172.27,481.099 "/>
<polygon fill="#FFFFFF" points="201.726,499.312 211.297,492.357 220.871,499.312 217.215,488.054 226.788,481.099 214.953,481.099 
	211.297,469.848 207.641,481.099 195.809,481.099 205.381,488.054 "/>
<path d="M360.063,248.95c-42.803,0-77.499,34.698-77.499,77.5c0,42.801,34.695,77.498,77.499,77.498
	c42.798,0,77.496-34.697,77.496-77.498C437.559,283.647,402.861,248.95,360.063,248.95z"/>
<path fill="#D1D3D4" d="M293.146,353.527c1.678,4.063,3.747,8.035,6.234,11.849c-0.25-4.175,2.067-9.091,3.6-11.849h0.007
	c0.738-1.34,1.293-2.16,1.293-2.16c-3.629-6.731-7.837-17.408-5.643-24.399c-1.344-2.636-8.444-14.213-9.306-15.616
	c-2.918,13.882-1.765,28.595,3.814,42.164V353.527z"/>
<path fill="#FFFFFF" d="M422.418,332.938c-11.635,8.678-18.861,11.575-18.861,11.575c-1.184,2.909-2.503,5.992-3.848,9.015h-0.002
	c-4.454,10.054-9.083,19.428-9.083,19.428c2.451-5.741,5.392-13.427,7.629-19.412v-0.016c2.008-5.346,3.44-9.341,3.44-9.341
	c-8.288-13.009-21.9-23.087-21.9-23.087c9.605-18.981,11.252-20.138,11.729-31.108c-5.792-10.637-17.507-22.005-17.507-22.005
	c10.537,5.709,18.947,19.382,18.947,19.382c11.359,1.028,24.678,7.234,24.678,7.234c0.721-2.203,2.049-5.221,2.803-6.873
	c-0.598-0.94-1.21-1.875-1.854-2.797c-11.122-15.871-27.534-25.859-45.196-29.297l-1.951,11.107
	c-15.286-2.38-33.746,2.378-36.009,6.145c-3.271,3.912-9.976,15.191-12.239,26.323c2.398-13.674,9.711-28.371,9.711-28.371
	c-1.366-0.74-5.45-5.823-7.204-8.05c-1.957,1.048-3.872,2.215-5.753,3.459c-13.858,16.086-21.248,35.736-20.984,54.802
	c1.3,1.051,2.051,1.537,2.051,1.537c8.146-11.699,14.736-16.309,21.577-20.547c3.15,13.045,16.675,25.373,16.675,25.373
	c13.414-3.417,23.778-6.534,37.74-6.279c-11.586,2.123-34.159,5.944-37.74,11.727c-3.289,4.848-5.469,13.936-6.715,20.656v0.011
	c-0.882,4.776-1.292,8.361-1.292,8.361c-5.138-1.183-14.072-1.812-22.142-6.248c9.307,14.608,23.702,24.363,40.258,28.798
	c-6.613-5.351-16.88-19.792-16.88-19.792c12.481,14.704,21.916,18.632,21.916,18.632s20.263,3.255,33.867-8.443l6.636,8.981
	c4.63-1.291,9.229-2.974,13.763-5.019c7.753-7.211,13.626-15.864,17.469-25.259v-0.012c1.611-3.914,2.866-7.967,3.758-12.096
	L422.418,332.938z"/>
<path fill="#D1D3D4" d="M397.506,387.328c1.152-0.711,2.289-1.454,3.405-2.237c2.774-1.938,5.353-4.051,7.766-6.292
	c-4.533,2.044-9.132,3.728-13.763,5.019L397.506,387.328z"/>
<path fill="#D1D3D4" d="M289.344,311.321c4.161,5,7.579,8.077,9.619,9.729c-0.264-19.066,7.126-38.716,20.984-54.802
	c-0.517,0.341-1.04,0.657-1.55,1.014C302.874,278.14,292.977,294.089,289.344,311.321z"/>
<path fill="#D1D3D4" d="M299.971,366.269c0.26,0.389,0.503,0.784,0.774,1.168c10.121,14.457,24.881,24.491,41.901,28.611
	c4.093-2.584,6.224-4.738,7.593-10.931c-0.275-0.197-0.57-0.444-0.864-0.678c-16.556-4.435-30.952-14.189-40.258-28.798
	c-1.121-0.617-2.228-1.305-3.306-2.08C301.839,358.282,300.2,361.759,299.971,366.269z"/>
<path fill="#FFFFFF" d="M421.848,290.073c-1.547,3.263-2.07,6.024-2.07,6.024c10.877,20.182,4.759,34.811,4.759,34.811l5.429,10.233
	C433.567,324.164,431.075,305.941,421.848,290.073z"/>
<path fill="#D1D3D4" d="M341.384,319.738c-7.339-2.822-13.271-10.296-13.271-10.296s4.26,8.295,11.801,15.815
	c8.275-2.256,9.027-2.507,21.831-4.513C362.101,320.689,346.476,321.696,341.384,319.738z"/>
<path fill="#D1D3D4" d="M356.632,377.618c-4.234-0.566-16.939-8.754-16.939-8.754s11.575,11.862,15.809,12.988
	c9.602,0.281,14.32-1.105,22.307-3.389C379.787,377.903,368.053,379.138,356.632,377.618z"/>
</svg>
