<svg height="339.842548" viewBox="0 0 160.41405 185.20833" width="294.253914" xmlns="http://www.w3.org/2000/svg"><g transform="matrix(.26458333 0 0 .26458333 -25.626309 -13.229167)"><path d="m690.9 158.6s-181.3 15.3-290.9-108.6c-109.6 123.9-290.9 108.6-290.9 108.6-9 37.5-37.5 196.5 43.5 363s247.4 228.4 247.4 228.4 166.4-61.9 247.4-228.4 52.5-325.5 43.5-363z" fill="#d61518"/><path d="m674.3 172.4s-170.9 14.4-274.3-102.4c-103.3 116.8-274.3 102.4-274.3 102.4-8.5 35.4-35.4 185.3 41 342.2s233.3 215.4 233.3 215.4 156.9-58.4 233.3-215.4 49.5-306.8 41-342.2z" fill="#f2c820"/><path d="m649.3 193.1s-155.4 13.1-249.3-93.1c-93.9 106.2-249.3 93.1-249.3 93.1-7.7 32.1-32.1 168.4 37.3 311.1s212 195.8 212 195.8 142.6-53.1 212.1-195.8 45-279 37.2-311.1z" fill="#d61518"/><path d="m400 100c75.3 85.2 190.2 93.6 232.8 93.6 10.5 0 16.6-.5 16.6-.5 7.7 32.1 32.1 168.4-37.3 311.1-69.5 142.7-212.1 195.8-212.1 195.8s-142.6-53.1-212.1-195.8c-69.4-142.7-45-279-37.3-311.1 0 0 6.1.5 16.6.5 42.6 0 157.5-8.4 232.8-93.6m0-6-3 3.4c-32 36.1-74.6 62.2-126.8 77.6-43.6 12.8-83.2 14.7-103 14.7-10.2 0-16.2-.5-16.2-.5l-3.4-.3-.8 3.3c-2.9 12-12.1 55.6-10.4 115.1 2 70.6 18.2 137.4 48 198.7 16 32.9 37.2 63.8 63.1 91.8 20.7 22.4 44.3 42.9 70.3 61.2 44.2 31 79.4 44.3 80.9 44.9l1.4.5 1.4-.5c1.5-.5 36.6-13.8 80.9-44.9 26-18.2 49.6-38.8 70.3-61.2 25.9-28 47.1-58.9 63.1-91.8 29.8-61.3 45.9-128.1 48-198.7 1.7-59.5-7.5-103.2-10.4-115.1l-.8-3.3-3.4.3c-.1 0-6.1.5-16.2.5-19.7 0-59.4-1.9-102.9-14.7-52.5-15.4-95.1-41.5-127.1-77.7z" fill="#fff"/><path d="m258 365.5s25.8 3 46.8 32.5c0 0-18 16.5-28.2 32.8-.1 0 3.9-43.6-18.6-65.3z" fill="#fff"/><path d="m355.3 451.7s5 14 9 16.3l5-17 3.7 39.3s-17-4.6-17.7-38.6z" fill="#fff"/><path d="m383.7 481.3-12 15.3c-28.3-14-24.3-54.3-24.3-54.3-13.2 12.1-4.3 41.9-4.3 41.9-35.2-5.8-29.2-30.8-29.2-30.8-6.2 5.2-9 16-9 16-4.8-20.5 8.9-55.2 8.9-55.2-34 47.3-17 87.5-17 87.5l1-16.5c2 39.3 21.7 51.3 21.7 51.3-11.7-18-8.3-51.3-8.3-51.3 12.7 38.7 32.7 37.7 32.7 37.7-13.7-5.3-15.3-32-15.3-32l15.3 23.7h24.7c2 13-14 26.7-14 26.7 32.4-9.6 29.1-60 29.1-60zm-37 26.5s-11.3-9.8-12.3-20l16 1.5c-.1 0-11.9 7-3.7 18.5zm13.8 3c7.8-9.9 4.2-9.1 3.9-8.5s-7.2 7.3-12.9 1.8 1.5-13.3 1.5-13.3c11 4.7 17 14.5 17 14.5z" fill="#fff"/><path d="m298 414.3s-68.7 82.7-5 150.7c0 0-9 .2-11.5-1 0 0 13 16.5 40 29.5 0 0-4-10.5-3.8-25.5l28.2 25.5 35.8 73.2-23-23.2s-3.5 3.5-3.2 9.8c0 0-11.8-13.5-14-38.8 0 0-3 8.8-2.8 17.2 0 0-13.3-24.2-14.4-29.8 0 0-12.8-.2-20.3-6.2l5 11.8s-45.5-16.5-46.5-76.5c0 0-2.8.8-4.5 11.5 0 0-15.7-54.5 12.7-95.8 0 0-8.7 4-15.7-5 0 0 18 2 22.3-3.7 4.4-5.7 16-21.8 20.7-23.7z" fill="#fff"/><path d="m542 365.5s-25.8 3-46.8 32.5c0 0 18 16.5 28.2 32.8.1 0-3.9-43.6 18.6-65.3z" fill="#fff"/><path d="m444.7 451.7s-5 14-9 16.3l-5-17-3.7 39.3s17-4.6 17.7-38.6z" fill="#fff"/><path d="m445.7 541.3s-16-13.7-14-26.7h24.7l15.3-23.7s-1.7 26.7-15.3 32c0 0 20 1 32.7-37.7 0 0 3.3 33.3-8.3 51.3 0 0 19.7-12 21.7-51.3l1 16.5s17-40.2-17-87.5c0 0 13.7 34.7 8.9 55.2 0 0-2.8-10.8-9-16 0 0 6 25-29.2 30.8 0 0 8.8-29.8-4.3-41.9 0 0 4 40.3-24.3 54.3l-12-15.3c-.3 0-3.6 50.4 29.1 60zm4-52 16-1.5c-1 10.2-12.3 20-12.3 20 8.1-11.5-3.7-18.5-3.7-18.5zm-19.7 16s6-9.8 17-14.5c0 0 7.2 7.8 1.5 13.3s-12.5-1.2-12.9-1.8-3.9-1.5 3.9 8.5z" fill="#fff"/><path d="m502 414.3s68.7 82.7 5 150.7c0 0 9 .2 11.5-1 0 0-13 16.5-40 29.5 0 0 4-10.5 3.8-25.5l-28.3 25.5-35.8 73.2 23-23.2s3.5 3.5 3.2 9.8c0 0 11.8-13.5 14-38.8 0 0 3 8.8 2.8 17.2 0 0 13.3-24.2 14.4-29.8 0 0 12.8-.2 20.3-6.2l-5 11.8s45.5-16.5 46.5-76.5c0 0 2.8.8 4.5 11.5 0 0 15.7-54.5-12.7-95.8 0 0 8.7 4 15.7-5 0 0-18 2-22.3-3.7s-15.9-21.8-20.6-23.7z" fill="#fff"/><path d="m439.3 588.5h-27.7l-9.8-10v-4.7l8.3-7.2h6.5c3.2 0 11-4.6 9-26.1 0 0-6.7 19.8-25.7 19.8s-25.7-19.8-25.7-19.8c-2 21.5 5.8 26.1 9 26.1h6.5l8.3 7.2v4.7l-9.8 10h-27.7l-13.8-12.7 8.2 18h11.8c1.3 13.5 9.2 21.8 9.2 21.8v-21.8h18.5c0-1.2.2-2.4 1.6-2.5h3.9 3.9c1.4.1 1.6 1.3 1.6 2.5h18.6v21.8s7.8-8.3 9.2-21.8h11.8l8.2-18z" fill="#fff"/><path d="m386 656.3 7.2-5.8 6.8 5 6.8-5 7.2 5.8 22.3-22.1-12.6-14.4v19.5h-23.7-23.7v-19.5l-12.6 14.4z" fill="#fff"/><g fill="#f2c820"><path d="m258 362s52.5-5.5 80.8 13c0 0-18 14.2-27.5 32 0 0-1.5-9 8.5-23.8l-10.8 9s-11.5-19.7-51-30.2z"/><path d="m333 393s17-31.3 62.7-31.3v5.5c0 4-3 7.3-6.9 7.8-12.4 1.5-38.5 5.9-55.8 18z"/><path d="m382.8 386.8s-22.2-15.2-51 19.8-16.8 50.2-16.8 50.2 8-25.2 30-32.8c0 0-4.8 6.5-6.2 8.8s-3.2 9 1.8 11.8 13.8 1.2 17.2-2.2 22.8-28.5 30.8-27.5c0 0-14-4.5-26.5 3 0 0 11.5-15.8 28.2-17.8 0 0-27.5-6.8-58.8 21.5 0 0 10.5-16.2 23-24.2s28.3-10.6 28.3-10.6z"/><path d="m291 449.3s-9.7 28.7 6.7 64.7l-7-4s5.7 10.3 5.8 18.5c0 0 2.7-9.5 4-10.8 0 0 5.3 17 7.3 20.8s5.5 13 5.5 13.8l4-13.2s10.8 14.7 14.5 19.8c0 0 24.5-14.7 38-21.3l-33.5 31.8 5.3 15.8s-7.5-2.2-22-20l.3 7.8s-10.5-6-20-33.2l-.2 14s-13-12.3-17.3-39.7c-4.3-27.3-4-45.3-4-45.3l6.5 7.3c.1.2-2.4-17.9 6.1-26.8z"/><path d="m542 362s-52.5-5.5-80.8 13c0 0 18 14.2 27.5 32 0 0 1.5-9-8.5-23.8l10.8 9s11.5-19.7 51-30.2z"/><path d="m467 393s-17-31.3-62.7-31.3v5.5c0 4 3 7.3 6.9 7.8 12.4 1.5 38.5 5.9 55.8 18z"/><path d="m417.2 386.8s22.2-15.2 51 19.8 16.8 50.2 16.8 50.2-8-25.2-30-32.8c0 0 4.8 6.5 6.2 8.8s3.2 9-1.8 11.8-13.8 1.2-17.2-2.2-22.8-28.5-30.8-27.5c0 0 14-4.5 26.5 3 0 0-11.5-15.8-28.2-17.8 0 0 27.5-6.8 58.8 21.5 0 0-10.5-16.2-23-24.2s-28.3-10.6-28.3-10.6z"/><path d="m509 449.3s9.7 28.7-6.7 64.7l7-4s-5.7 10.3-5.8 18.5c0 0-2.7-9.5-4-10.8 0 0-5.3 17-7.3 20.8s-5.5 13-5.5 13.8l-4-13.2s-10.8 14.7-14.5 19.8c0 0-24.5-14.7-38-21.3l33.5 31.8-5.3 15.8s7.5-2.2 22-20l-.3 7.8s10.5-6 20-33.2l.2 14s13-12.3 17.3-39.7c4.3-27.3 4-45.3 4-45.3l-6.5 7.3c-.1.2 2.4-17.9-6.1-26.8z"/><path d="m400 414.8c-11.2 22.9-32.9 21.9-32.9 21.9 24.8 5.1 32.9-4.5 32.9-4.5s8.1 9.6 32.9 4.5c0-.1-21.7.9-32.9-21.9z"/><path d="m405 438.4s-2 1.7-2.7 2.2c-.7.6-1.5.7-2.3.7s-1.7-.1-2.3-.7c-.7-.6-2.7-2.2-2.7-2.2-1.4 6.8-12 11.2-12 11.2 12.5 1.9 13.8-3.4 13.8-3.4l3.2 6.6 3.2-6.6s1.3 5.3 13.8 3.4c0 .1-10.6-4.4-12-11.2z"/><path d="m400 454c-8.4 17.4-26.2 16.8-26.2 16.8 23.3 5.2 26.2-3.7 26.2-3.7s2.9 8.8 26.2 3.7c0 0-17.8.6-26.2-16.8z"/><path d="m437 595.3s.1 39.6-19.2 39.6h-17.8-17.8c-19.3 0-19.2-39.6-19.2-39.6h-7.3c7.2 50.3 17.6 45.6 25.1 45.6h19.2 19.2c7.4 0 17.9 4.8 25.1-45.6z"/></g><path d="m511.3 192h-221l27.7-17 25.3 15.7 56.7-38.7 52.7 39.3 28-17.3z" fill="#fff"/><path d="m299.5 192 13.5-10.2 14.2 10.2z" fill="#f2c820"/><path d="m329.2 192 5.6-4.2 6.2 4.2z" fill="#f2c820"/><path d="m382.8 176.8 7.2 6 17.2-16.6 38 25.8h-84.4z" fill="#f2c820"/><path d="m473.2 192 16.8-11.2 16.8 11.2z" fill="#f2c820"/><circle cx="400.5" cy="154.5" fill="#fff" r="27.200001"/><path d="m400.5 128.8c14.2 0 25.8 11.6 25.8 25.8s-11.6 25.8-25.8 25.8-25.8-11.6-25.8-25.8 11.6-25.8 25.8-25.8m0-1.6c-15 0-27.2 12.2-27.2 27.2s12.2 27.2 27.2 27.2 27.2-12.2 27.2-27.2-12.2-27.2-27.2-27.2z" fill="#f2c820"/><path d="m392.3 165.1 2.9-9.1-7.7-5.6h9.5l3-9.1 3 9.1h9.5l-7.7 5.6 2.9 9.1-7.7-5.6z" fill="#f2c820"/><path d="m374.8 152.4 3.6 5.9 8.1-8.8-1.4-10.9-6.5 2.1c-2 3.5-3.4 7.5-3.8 11.7z" fill="#d61518"/><path d="m420.5 170.7-.3-7.3-10.7 2.5-5.3 10.7 7 1.2c3.6-1.5 6.8-4 9.3-7.1z" fill="#d61518"/><path d="m422.6 141.4-6.7-2.2-1.4 10.9 8.1 8.8 3.6-6c-.3-4.2-1.5-8.1-3.6-11.5z" fill="#d61518"/><path d="m389.8 177.9 6.8-1.2-5.3-10.7-10.7-2.5-.3 6.9c2.5 3.2 5.8 5.8 9.5 7.5z" fill="#d61518"/><path d="m405.9 129.3c-1.7-.4-3.5-.6-5.4-.6-2.2 0-4.3.3-6.3.8l-4.2 5.8 10 4.7 10.8-5.1z" fill="#d61518"/><circle cx="357.10001" cy="210.10001" fill="#f2c820" r="3.1"/><circle cx="444.10001" cy="210.10001" fill="#f2c820" r="3.1"/><path d="m379.6 202.2v16.5h-4.6v-10.8c-.7.6-1.5 1-2.1 1.4-.7.3-1.6.7-2.6 1v-3.7c1.5-.5 2.7-1.1 3.6-1.8.8-.7 1.5-1.5 2-2.6z" fill="#f2c820"/><path d="m385.6 214.8 4.4-.6c.1.6.3 1.1.6 1.3s.6.4 1 .4c.7 0 1.3-.4 1.7-1.1.3-.5.5-1.7.7-3.4-.5.5-1.1.9-1.6 1.2-.6.3-1.2.4-1.9.4-1.4 0-2.6-.5-3.6-1.5s-1.5-2.3-1.5-3.9c0-1.1.3-2 .8-2.9s1.2-1.5 2.1-2c.9-.4 2-.7 3.3-.7 1.6 0 2.9.3 3.8.8 1 .5 1.7 1.4 2.3 2.6s.9 2.8.9 4.7c0 2.9-.6 5-1.8 6.3s-2.9 2-5 2c-1.3 0-2.3-.1-3-.4s-1.3-.7-1.8-1.3-1.2-1.1-1.4-1.9zm8.1-7.1c0-.9-.2-1.5-.7-2s-1-.7-1.6-.7-1.1.2-1.5.7c-.4.4-.6 1.1-.6 2s.2 1.6.6 2c.4.5.9.7 1.5.7s1.1-.2 1.6-.7.7-1.2.7-2z" fill="#f2c820"/><path d="m402.8 202.3h10.5v3.5h-7.1l-.4 2.4c.5-.2 1-.4 1.5-.5s1-.2 1.4-.2c1.6 0 2.9.5 3.9 1.4 1 1 1.5 2.2 1.5 3.6 0 1-.3 2-.8 3s-1.2 1.7-2.2 2.2-2.1.8-3.6.8c-1.1 0-2-.1-2.7-.3-.8-.2-1.4-.5-1.9-.9s-1-.8-1.3-1.3-.6-1.1-.8-1.9l4.5-.5c.1.7.4 1.3.8 1.6.4.4.9.6 1.4.6.6 0 1.1-.2 1.5-.7s.6-1.2.6-2.1c0-1-.2-1.6-.6-2.1-.4-.4-.9-.7-1.6-.7-.4 0-.8.1-1.2.3-.3.2-.6.4-1 .8l-3.8-.5z" fill="#f2c820"/><path d="m418.2 202.3h10.5v3.5h-7.1l-.4 2.4c.5-.2 1-.4 1.5-.5s1-.2 1.4-.2c1.6 0 2.9.5 3.9 1.4 1 1 1.5 2.2 1.5 3.6 0 1-.3 2-.8 3s-1.2 1.7-2.2 2.2c-.9.5-2.1.8-3.6.8-1.1 0-2-.1-2.7-.3-.8-.2-1.4-.5-1.9-.9s-1-.8-1.3-1.3-.6-1.1-.8-1.9l4.5-.5c.1.7.4 1.3.8 1.6.4.4.9.6 1.4.6.6 0 1.1-.2 1.5-.7s.6-1.2.6-2.1c0-1-.2-1.6-.6-2.1-.4-.4-.9-.7-1.6-.7-.4 0-.8.1-1.2.3-.3.2-.6.4-1 .8l-3.8-.5z" fill="#f2c820"/><path d="m210.7 314.5h-20.4v-28.5l-25.6-48h22.6l13 29.3 14.4-29.3h21.6l-25.6 47.7z" fill="#fff"/><path d="m236.3 238-25.7 47.7v28.8h-20.3v-28.5l-25.7-48h22.7l13 29.3 14.3-29.3zm5.9-3.5h-5.9-21.7-2.2l-1 2-11 22.6-10-22.5-.9-2.1h-2.3-22.7-5.8l2.8 5.2 25.3 47.2v27.6 3.5h3.5 20.3 3.5v-3.5-28l25.2-46.9z" fill="#f2c820"/><path d="m282 314h19.3l-24.7-76h-21.3l-24.3 76.5h19l2.7-10.5h26.6zm-26-23 9.7-38 10.2 38z" fill="#fff"/><path d="m276.7 238 24.7 76h-19.4l-2.7-10h-26.6l-2.7 10.5h-19l24.3-76.5zm-20.7 53h19.9l-10.2-38zm23.2-56.5h-2.5-21.3-2.6l-.8 2.4-24.3 76.5-1.5 4.6h4.8 19 2.7l.7-2.6 2-7.9h21.2l2 7.4.7 2.6h2.7 19.3 4.8l-1.5-4.6-24.7-76zm-18.7 53 5.3-20.7 5.5 20.7z" fill="#f2c820"/><path d="m544.2 314h19.3l-24.7-76h-21.3l-24.3 76.5h19l2.7-10.5h26.6zm-26-23 9.7-38 10.2 38z" fill="#fff"/><path d="m538.9 238 24.7 76h-19.3l-2.7-10h-26.6l-2.7 10.5h-19l24.3-76.5zm-20.7 53h19.9l-10.2-38zm23.2-56.5h-2.5-21.3-2.6l-.8 2.4-24.3 76.5-1.5 4.6h4.8 19 2.7l.7-2.6 2-7.9h21.2l2 7.4.7 2.6h2.7 19.3 4.8l-1.5-4.6-24.7-76zm-18.7 53 5.3-20.7 5.5 20.7z" fill="#f2c820"/><path d="m376 238h-18.9v48.7l-27.8-48.7h-19v76.5h18v-49.5l28.4 49.5h19.3z" fill="#fff"/><path d="m376 238v76.5h-19.3l-28.4-49.5v49.5h-18v-76.5h19l27.8 48.7v-48.7zm3.5-3.5h-3.5-18.9-3.5v3.5 35.5l-21.3-37.2-1-1.8h-2-19-3.5v3.5 76.5 3.5h3.5 18 3.5v-3.5-36.3l21.8 38.1 1 1.8h2 19.4 3.5v-3.5-76.6z" fill="#f2c820"/><path d="m638.3 238h-18.9v48.7l-27.8-48.7h-19v76.5h18v-49.5l28.4 49.5h19.3z" fill="#fff"/><path d="m638.3 238v76.5h-19.3l-28.4-49.5v49.5h-18v-76.5h19l27.8 48.7v-48.7zm3.5-3.5h-3.5-18.9-3.5v3.5 35.5l-21.3-37.2-1-1.8h-2-19-3.5v3.5 76.5 3.5h3.5 18 3.5v-3.5-36.3l21.8 38.1 1 1.8h2 19.3 3.5v-3.5-76.6-3.5z" fill="#f2c820"/><path d="m438 274s11.7-5.3 11.7-17-8.7-19-19.7-19-40 0-40 0v76.5h42c12.3 0 20.3-9.5 20.3-22.2s-10-18-14.3-18.3zm-29.3-21h14.7c4.6 0 8.3 3.7 8.3 8.3s-3.7 8.3-8.3 8.3h-14.7zm17 46.3h-17v-18.7h17c5.2 0 9.3 4.2 9.3 9.3s-4.2 9.4-9.3 9.4z" fill="#fff"/><path d="m430 238c11 0 19.7 7.3 19.7 19s-11.7 17-11.7 17c4.3.3 14.3 5.7 14.3 18.3s-8 22.2-20.3 22.2-42 0-42 0v-76.5zm-21.3 31.7h14.7c4.6 0 8.3-3.7 8.3-8.3s-3.7-8.3-8.3-8.3h-14.7zm0 29.6h17c5.2 0 9.3-4.2 9.3-9.3s-4.2-9.3-9.3-9.3h-17zm21.3-64.8h-40-3.5v3.5 76.5 3.5h3.5 42c6.9 0 13.1-2.7 17.4-7.5 4.1-4.6 6.4-11.1 6.4-18.2 0-9.7-5.1-16-10.4-19.2 3.7-3.3 7.7-8.5 7.7-16.1.1-13-9.7-22.5-23.1-22.5zm-17.8 22h11.2c2.7 0 4.8 2.2 4.8 4.8s-2.2 4.8-4.8 4.8h-11.2zm0 27.7h13.5c3.2 0 5.8 2.6 5.8 5.8s-2.6 5.8-5.8 5.8h-13.5z" fill="#f2c820"/><path d="m464.29999 238h19.700001v76.5h-19.700001z" fill="#fff"/><path d="m484 238v76.5h-19.7v-76.5zm3.5-3.5h-3.5-19.7-3.5v3.5 76.5 3.5h3.5 19.7 3.5v-3.5-76.5z" fill="#f2c820"/><path d="m202.7 353.5c-1.7-.2-5.5-1.7-7.2-4.2s-4.2-4.7-8.5-4.7c0 0-6.2 0-6.8 2.3-.7 2.3-2.3 5.2-4 6.5s-11.5 5.3-11.5 15.2c0 9.8 8.3 21 21.7 21 13.3 0 23.8-8 24-19.7.1-11.6-6.1-16.2-7.7-16.4zm-15.5 23.5c-4.2 0-9.3-4.7-9.3-9.2s7.5-7.8 9.3-7.8c3.8 0 9.2 3 9 7.7-.2 4.6-4.9 9.3-9 9.3z" fill="#f2c820"/><path d="m218.5 339c0-2.5 6.2-4.7 13.3-1.3 7.2 3.3 8 7.2 7.7 9.5s-4.2 3.5-3.7 6 3 3.3 3.3 5.3 0 26.7 0 30.2.3 7.2-8.7 8.2-30.2 1.7-32.7 7.7l9.2 6.7s5.5.8 9.5-.7 13-5.3 17.3-.2c4.3 5.2 5 9.7-4.8 13s-23.2 2.2-26.2 1.2-18.2-13-19.3-15.5 3.3-7.7 10-9.8c6.7-2.2 29.8-5.5 32.2-8.2v-8.8s-7 0-8.7 0-9.7-4.2-3.3-8.7h12v-8.8s-6.2 0-9 0-7.3-6.5-2.8-8h7c2.7 0 6.7-3.3 6.7-6.8s-1-4.5-3.5-5.5-5.5-2-5.5-5.5z" fill="#f2c820"/><path d="m557.8 349c-.5 2.5 1.6 5 3.5 5.2s2.8 2.9 2.6 7.1.1 12.5-.2 15.4-1.9 14.2 1.2 14.8 35-.8 36.8-2 1.8-1.4 1.9-3.8-.9-18.6-.9-19.4-1.9-6-1.5-7.1 2.8-2.4 3.2-4.1-.6-8.8-8.9-10.1-11 1.6-10.9 3.2 4.6 5.9 6.8 6.5v19.8c0 1.9-.6 5.5-4.4 5.5s-6.5 0-8.2 0-4.4-1.4-4.5-3.2 0-3.2 0-4.1 2.2-3 6.2-3.1 6.8 0 7.8-.6 1.6-2.5 1.6-4.1 0-5.5-3.4-5.8-9.6 0-10.6 0-3.2-3.6-1-4.8.8-7.2-5.2-7.6-11.3-.9-11.9 2.3z" fill="#f2c820"/><path d="m614.1 336c3.3-.4 10.9.4 14 5.8s1.5 6.9-.5 8.6-2.1 3.9.9 8c1.6 3 1.5 29 1.4 31.5s-.1 6.2-7 6.2-26.1 2.6-34.1 4.8c0 0 .5 6.5 6.2 8.1s14.8-.5 18.8-1.8 10.9 0 12 6.1-7.2 11.6-13.9 12-14.8 0-16.5 0-21-21.6-21-21.6 4.4-8.8 42.1-11.5v-9s-5.5 0-7.4 0-3.8-2.8-4.1-4.9-.5-3.5 5.1-3.9 13.4-5.1 5.2-9c0 0-5.6 0-7.6 0s-6-6.1-2.2-7.9l6.6-.4s5.8-1.1 5.8-5.6-7.5-9.4-7.6-10.4-.9-4.5 3.8-5.1z" fill="#f2c820"/></g></svg>